<svg width="484" height="457" xmlns="http://www.w3.org/2000/svg" xmlns:xlink="http://www.w3.org/1999/xlink" overflow="hidden"><defs><clipPath id="clip0"><rect x="201" y="57" width="484" height="457"/></clipPath></defs><g clip-path="url(#clip0)" transform="translate(-201 -57)"><path d="M446.045 58.0186C442.661 58.0186 440.78 58.0745 440.78 58.0745 440.78 58.0745 374.608 63.8673 304.097 79.3084 233.586 94.2653 208.823 203.583 201.722 312.304 195.015 421.622 226.97 410.465 330.469 428.346 369.419 435.275 422.344 438.981 474.859 438.981 562.031 438.981 648.094 428.774 667.274 406.181 697.985 369.859 686.938 256.258 646.759 144.631 617.11 62.3027 475.254 58.0186 446.045 58.0186Z" fill="#BDDFD1" fill-rule="evenodd" fill-opacity="0.290196"/><path d="M521.125 109C505.716 109 493.01 124.668 493.01 143.642 493.01 162.616 505.716 178 521.125 178 536.581 178 549 162.616 549 143.642 549 124.668 536.581 109 521.125 109Z" fill="#BDC0BD" fill-rule="evenodd"/><path d="M521.221 113.012C520.576 113.012 519.93 113.035 519.276 113.095 505.784 114.571 496 129.291 497.021 145.558 498.205 161.175 508.731 172.988 521.25 172.988 522.001 172.988 522.771 172.941 523.542 172.858 537.033 171.311 546.99 156.887 545.738 140.324 544.593 124.565 533.884 113.012 521.221 113.012Z" fill="#FFFFFF" fill-rule="evenodd"/><path d="M520.288 119C520.182 119 520.015 119.136 520.015 119.136L520.015 121.182C520.015 122.102 520.015 122.955 520.773 123.875 520.773 123.955 520.833 123.989 520.924 123.989 521.136 123.989 521.53 123.773 521.53 123.523 522 122.67 521.151 121.466 521.151 120.614 521.151 120.33 521.151 119.136 520.394 119.136 520.394 119.034 520.349 119 520.288 119Z" fill="#231F20" fill-rule="evenodd"/><path d="M521.409 162C521.205 162 521.008 162.152 521.008 162.468 521.197 164.127 521.197 166.101 521.386 167.759 521.477 167.911 521.583 167.987 521.689 167.987 521.795 167.987 521.901 167.911 522 167.759 522 166.101 521.811 164.127 521.811 162.468 521.811 162.152 521.606 162 521.409 162Z" fill="#231F20" fill-rule="evenodd"/><path d="M505.517 145C504.494 145 503.712 145 502.988 145.234L501.241 145.234C501 145.467 501 145.701 501.241 145.701 501.763 145.916 502.332 145.991 502.911 145.991 503.751 145.991 504.629 145.832 505.517 145.701 505.99 145.701 505.99 145 505.517 145Z" fill="#231F20" fill-rule="evenodd"/><path d="M541.3 143C540.103 143 538.436 143 537 143.25L537 143.75C538.436 144 540.103 144 541.3 144 541.991 144 541.991 143 541.3 143Z" fill="#231F20" fill-rule="evenodd"/><path d="M503.263 134C503.01 134 503.01 134.362 503.01 134.362 503.263 135.087 504.336 135.536 504.842 135.899 505.662 136.261 506.411 136.986 507.484 136.986 507.99 136.986 507.99 135.536 507.484 135.536 505.905 135.536 504.589 134.725 503.263 134Z" fill="#231F20" fill-rule="evenodd"/><path d="M510.217 124.011C510.101 124.011 510.007 124.225 510.007 124.472 510.37 125.876 510.732 127.618 511.319 128.809 511.399 128.944 511.486 129 511.558 129 511.812 129 511.993 128.404 511.855 127.966 511.138 127.056 510.732 125.596 510.37 124.124 510.319 124.045 510.261 124.011 510.217 124.011Z" fill="#231F20" fill-rule="evenodd"/><path d="M531.389 122C531.274 122 531.147 122.07 531.021 122.223 529.642 123.688 528.526 125.879 528.01 127.695 528.01 127.988 528.263 127.988 528.526 127.988 529.642 126.172 530.495 124.637 531.547 123.102 532 122.656 531.758 122 531.389 122Z" fill="#231F20" fill-rule="evenodd"/><path d="M538.493 131.012C537.671 131.372 536.911 132.244 536.343 132.826 535.582 133.477 534.761 133.756 534.264 134.337 534.01 134.628 534.264 134.988 534.507 134.988 535.329 134.988 536.089 134.047 536.596 133.756 537.418 133.186 538.179 132.535 538.746 131.663 539 131.372 538.746 131.012 538.493 131.012Z" fill="#231F20" fill-rule="evenodd"/><path d="M528.261 160.012C528.116 160.012 528.01 160.142 528.01 160.142 528.251 161.028 528.493 161.69 528.493 162.281 528.734 162.861 528.966 163.818 528.966 164.409 529.072 164.823 529.275 165 529.469 165 529.739 165 529.99 164.669 529.99 164.113 529.749 163.522 529.517 162.565 529.208 161.69 528.966 161.028 528.966 160.437 528.493 160.142 528.406 160.047 528.328 160.012 528.261 160.012Z" fill="#231F20" fill-rule="evenodd"/><path d="M535.372 156.413C535.438 156.413 535.504 156.453 535.562 156.48L535.562 156.48C535.405 156.493 535.256 156.68 535.165 157.08 535.165 156.747 535.165 156.747 535.372 156.413ZM533.215 154.013C533.008 154.013 533.008 154.347 533.008 154.347 533.008 154.68 533.215 155 533.215 155 533.628 155.76 533.884 156.08 534.298 156.747 534.446 156.987 535.174 157.987 535.636 157.987 535.802 157.987 535.934 157.853 535.992 157.493 535.992 156.933 535.826 156.573 535.628 156.493L535.628 156.493C535.62 156.48 535.603 156.453 535.578 156.413 535.372 156.413 535.372 156.08 535.165 156.08 534.909 155.76 534.702 155.427 534.298 155 534.091 154.68 533.422 154.013 533.215 154.013Z" fill="#231F20" fill-rule="evenodd"/><path d="M515.393 162C515.267 162 515.153 162.029 515.073 162.107 514.786 162.829 514.214 163.376 513.859 164.107 513.573 164.654 513 164.898 513 165.629 513 165.795 513.286 166 513.55 166 513.664 166 513.767 165.961 513.859 165.873 514.5 165.385 514.5 164.654 514.786 164.107 515.073 163.62 515.645 163.141 516 162.351 516 162.176 515.679 162 515.393 162Z" fill="#231F20" fill-rule="evenodd"/><path d="M509.417 156.012C509.238 156.012 509.036 156.105 508.936 156.363 508.655 156.936 508.028 157.228 507.468 158.175 507.188 158.468 506.627 158.76 506.28 159.345 506 159.345 506.28 159.708 506.28 160 506.908 160 507.748 159.053 508.028 158.76 508.655 158.175 509.496 157.52 509.776 156.643 509.989 156.281 509.72 156.012 509.417 156.012Z" fill="#231F20" fill-rule="evenodd"/><path d="M520.866 142C520.433 142 520 142.847 520 143.369 520 144.216 520.433 145 520.866 145 521.567 145 522 144.216 522 143.369 522 142.847 521.567 142 520.866 142Z" fill="#F4992B" fill-rule="evenodd"/><path d="M521.505 131.011 520.01 134.509 521.265 134.509 521.265 142.989 522.281 142.989 522.042 134.509 522.99 134.228 521.505 131.011Z" fill="#F4992B" fill-rule="evenodd"/><path d="M533.099 141 533.099 142.359 521.01 142.359 521.01 143.641 533.099 143.321 533.099 145 535.99 143 533.099 141Z" fill="#F4992B" fill-rule="evenodd"/><path d="M578.01 122 578.01 197 597 197 597 122Z" fill="#32ADB2" fill-rule="evenodd"/><path d="M587.676 176.012C585.678 176.012 584.011 177.923 584.011 179.846 584.011 182.077 585.678 184 587.676 184 589.333 184 591 182.077 591 179.846 591 177.923 589.333 176.012 587.676 176.012Z" fill="#2E252C" fill-rule="evenodd"/><path d="M582 129 582 161 593 161 593 129Z" fill="#FAD7B4" fill-rule="evenodd"/><path d="M565.288 119.012 550.009 192.114 567.712 198 582.991 124.886 565.288 119.012Z" fill="#FCC557" fill-rule="evenodd"/><path d="M562.356 175.012C561.014 175.012 559.93 176.12 559.537 177.695 559 179.997 560.016 182.225 561.752 182.84 562.011 182.938 562.279 183 562.538 183 563.814 183 565.07 181.843 565.511 179.997 565.99 177.695 564.974 175.48 563.248 175.172 562.941 175.062 562.644 175.012 562.356 175.012Z" fill="#2E252C" fill-rule="evenodd"/><path d="M567.988 127 561.01 158.849 571.071 162 577.99 130.452 567.988 127Z" fill="#FAD7B4" fill-rule="evenodd"/><path d="M596.01 122 596.01 197 615 197 615 122Z" fill="#F4A3B1" fill-rule="evenodd"/><path d="M606.116 176.012C604.451 176.012 603.009 177.923 603.009 179.846 603.009 182.077 604.451 184 606.116 184 607.789 184 609 182.077 609 179.846 609 177.923 607.789 176.012 606.116 176.012Z" fill="#2E252C" fill-rule="evenodd"/><path d="M601 129 601 161 610.99 161 610.99 129Z" fill="#FAD7B4" fill-rule="evenodd"/><path d="M500 197.012 500 354 623.99 354 623.99 197.012Z" fill="#BDDFD1" fill-rule="evenodd"/><path d="M500 247.016 500 250 623.99 250 623.99 247.016Z" fill="#A8C0C9" fill-rule="evenodd"/><path d="M500 296 500 298 623.99 298 623.99 296Z" fill="#A8C0C9" fill-rule="evenodd"/><path d="M242.01 88.0118 242.01 235.988 485 235.988 485 88.0118Z" fill="#F8F7F7" fill-rule="evenodd"/><path d="M353.01 88.0118 476.012 235.988 485 235.988 485 197.087 396.183 88.0118Z" fill="#FBFBFA" fill-rule="evenodd"/><path d="M276.01 88.0118 399.463 235.988 422 235.988 301.306 88.0118Z" fill="#FBFBFA" fill-rule="evenodd"/><path d="M483.722 88.8153 483.722 235.256 243.278 235.256 243.278 88.8153ZM241.01 86 241.01 238 486 238 486 86Z" fill="#D5C0B7" fill-rule="evenodd"/><path d="M243.01 161.013 243.01 163.987 483.99 163.987 483.99 161.013Z" fill="#D5C0B7" fill-rule="evenodd"/><path d="M404.008 89.0118 404.008 235 406 235 406 89.0118Z" fill="#D5C0B7" fill-rule="evenodd"/><path d="M411.291 234.012C410.114 234.012 380.8 234.296 380.8 262.519L379.778 337.127C379.778 337.127 374.01 349.435 377.791 360.774 380.087 367.928 421.853 373 454.735 373 475.339 373 492.451 371.014 494.187 366.296 499 353.704 474.963 335.873 474.963 335.873 475.918 320.266 480.191 268.407 479.168 259.788 477.663 246.604 466.667 234.012 444.617 234.012L411.32 234.012C411.32 234.012 411.31 234.012 411.291 234.012Z" fill="#F6CCA5" fill-rule="evenodd"/><path d="M418.738 246.012C417.318 246.012 393.784 246.356 393.784 269.387L392.761 331.357C392.761 331.357 388.01 341.198 391.254 350.731 393.099 356.809 427.303 360.988 454.391 360.988 471.512 360.988 485.805 359.314 487.272 355.397 491 344.89 471.203 330.395 471.203 330.395 471.986 317.158 475.723 274.337 474.999 267.535 473.492 256.138 464.473 246.012 446.424 246.012L418.805 246.012C418.805 246.012 418.786 246.012 418.738 246.012Z" fill="#E9B58C" fill-rule="evenodd"/><path d="M403.99 318.012C400.995 330.923 399.747 353.428 398.01 375.199 406.62 386.665 417.631 390.988 429.381 390.988 444.462 390.988 460.753 383.858 474.739 375.566 474.739 374.311 480 346.049 480 344.497L480 344.497C476.275 344.923 473.213 345.338 471.735 345.338 471.13 345.338 470.784 345.267 470.784 345.089 468.039 325.391 467.559 322.951 467.559 322.951L403.99 318.012Z" fill="#32ADB2" fill-rule="evenodd"/><path d="M441.756 326.012C441.465 326.012 441.23 326.012 441.23 326.306L440 373.399C440 373.694 440.3 373.694 440.3 373.988 440.535 373.988 440.761 373.694 440.761 373.399L441.991 326.306C441.991 326.012 441.756 326.012 441.756 326.012Z" fill="#8F3956" fill-rule="evenodd"/><path d="M436.706 325C436.488 325 436.488 325 436.488 325.296 436.488 325.592 436 349.27 436.488 358.481 437.141 367.704 440.564 368 440.782 368 440.991 368 440.991 368 440.991 367.704 440.991 367.408 440.991 367.408 440.782 367.408 440.782 367.408 437.577 367.041 437.141 358.481 436.488 349.27 436.923 325.592 436.923 325.296 436.923 325 436.706 325 436.706 325Z" fill="#8F3956" fill-rule="evenodd"/><path d="M439.033 326.01C437.88 326.01 437 326.784 437 327.876 437 328.959 437.88 329.732 439.033 329.99 440.12 329.99 441 329.216 441 328.134 441 327.041 440.12 326.01 439.033 326.01Z" fill="#8F3956" fill-rule="evenodd"/><path d="M460.758 377.012 444.249 452.307C439.748 459.948 432 468.179 433.744 473.392 435.961 480.738 448.509 481.988 448.509 481.988L487 390.455 460.758 377.012Z" fill="#F9BD8E" fill-rule="evenodd"/><path d="M433.497 452 433.497 452C432.478 452.293 431.22 452.657 430.018 453.244 430.018 453.244 429.01 462.096 432.478 484.918 436.485 510.218 439.723 513 439.723 513 439.723 513 440.741 513 441.99 512.049 433.497 486.163 433.016 463.928 433.497 452Z" fill="#083B4F" fill-rule="evenodd"/><path d="M433.009 473 434.013 481.471C437.432 509.82 442.149 513 442.149 513 442.149 513 448.996 508.91 449.763 478.68 450 474.893 433.009 473 433.009 473Z" fill="#083B4F" fill-rule="evenodd"/><path d="M440.596 450.012C437.317 450.012 433.279 451.984 433.279 451.984 431 457.863 433.279 474.988 433.279 474.988 440.288 470.005 444 451.386 444 451.386 443.25 450.37 441.99 450.012 440.596 450.012Z" fill="#083B4F" fill-rule="evenodd"/><path d="M480.141 344C476.786 344 472.822 345.127 468.209 347.842 453.6 356.488 440.01 447.282 440.01 447.282 443.45 461.098 456.573 471 456.573 471 456.573 471 491.482 389.361 495.399 368.157 496.99 360.093 492.835 344 480.141 344Z" fill="#32ADB2" fill-rule="evenodd"/><path d="M460.762 365C460.524 365 460.285 365.297 460.285 365.297L442.238 450.335C442 450.62 442.238 450.62 442.476 451L442.715 450.62 442.953 450.335 461 365.593C461 365.297 461 365.297 460.762 365Z" fill="#7B8DA8" fill-rule="evenodd"/><path d="M495.692 368.012C495.452 368.012 495.211 368.012 495.211 368.31 492.701 381.022 480.715 411.662 471 435.236 471 435.534 471 435.821 471.24 435.821 471.327 435.952 471.404 435.988 471.471 435.988 471.616 435.988 471.721 435.821 471.721 435.821 481.254 412.032 493.48 381.321 495.99 368.609 495.99 368.31 495.99 368.012 495.692 368.012Z" fill="#7B8DA8" fill-rule="evenodd"/><path d="M482.479 344C482.479 344 470.828 344.598 451.255 346.763 451.255 346.763 451.01 347.063 451.255 347.362 451.255 347.362 451.255 347.732 451.499 347.732 461.134 346.464 468.762 345.495 474.372 345.196 476.928 344.897 478.945 344.897 480.472 344.897 481.755 344.598 482.479 344.598 482.479 344.598 487.365 345.196 490.9 348.331 493.162 352.35 495.473 356.382 496.51 361.071 496.51 364.804L496.51 365.689C496.51 365.988 496.755 365.988 496.755 365.988 497 365.988 497 365.988 497 365.689L497 364.804C497 361.071 495.962 356.083 493.465 352.051 491.145 348.032 487.61 344.598 482.479 344Z" fill="#2F2035" fill-rule="evenodd"/><path d="M414.732 377.012 398.244 452.307C393.739 459.948 386.01 468.179 387.742 473.392 390.023 480.738 402.498 481.988 402.498 481.988L440.99 390.455 414.732 377.012Z" fill="#F9BD8E" fill-rule="evenodd"/><path d="M388.07 452C386.739 452.293 385.662 452.657 384.331 453.244 384.331 453.244 383 462.096 386.993 484.918 391.229 510.218 394.399 513 394.399 513 394.399 513 395.405 513 396.99 512.049 388.07 486.163 387.501 463.928 388.07 452Z" fill="#083B4F" fill-rule="evenodd"/><path d="M387.01 473 388.031 481.471C391.51 509.82 396.252 513 396.252 513 396.252 513 403.277 508.91 404 478.68 404 474.893 387.01 473 387.01 473Z" fill="#083B4F" fill-rule="evenodd"/><path d="M395.589 450.012C392.313 450.012 388.287 451.984 388.287 451.984 386.01 457.863 387.979 474.988 387.979 474.988 395.224 470.005 399 451.386 399 451.386 398.251 450.37 396.992 450.012 395.589 450.012Z" fill="#083B4F" fill-rule="evenodd"/><path d="M435.059 344C431.655 344 427.64 345.127 422.947 347.842 407.838 356.488 394.01 447.282 394.01 447.282 397.753 461.098 410.864 471 410.864 471 410.864 471 446.327 389.361 450.613 368.157 452 360.093 447.908 344 435.059 344Z" fill="#32ADB2" fill-rule="evenodd"/><path d="M415.763 365C415.525 365 415.288 365.297 415.288 365.297L397 450.335C397 450.62 397.237 450.62 397.237 451 397.532 451 397.77 450.62 397.77 450.62L397.77 450.335 416 365.593C416 365.297 416 365.297 415.763 365Z" fill="#7B8DA8" fill-rule="evenodd"/><path d="M450.759 368.012C450.518 368.012 450.277 368.012 450.277 368.31 447.508 381.022 435.5 411.662 426 435.236 426 435.534 426 435.821 426.241 435.821 426.241 435.952 426.27 435.988 426.318 435.988 426.405 435.988 426.559 435.821 426.723 435.821 436.214 412.032 448.232 381.321 451 368.609 451 368.31 450.759 368.012 450.759 368.012Z" fill="#7B8DA8" fill-rule="evenodd"/><path d="M436.158 344C433.873 344 422.052 344.299 406.242 348.929 406 348.929 406 349.228 406 349.599 406 349.599 406.116 349.73 406.184 349.73 406.223 349.73 406.242 349.694 406.242 349.599 422.052 344.897 433.873 344.598 436.158 344.598L436.642 344.598C441.406 345.196 444.668 348.331 447.195 352.35 449.49 356.382 450.458 361.071 450.458 364.804L450.458 365.689C450.458 365.988 450.458 365.988 450.7 365.988 451 365.988 451 365.988 451 365.689L451 364.804C451 361.071 449.974 356.083 447.437 352.051 445.21 348.032 441.648 344.598 436.642 344Z" fill="#2F2035" fill-rule="evenodd"/><path d="M407.24 327.012C407.24 327.012 407 327.012 407 327.383 407 327.682 407 327.682 407.24 327.682 417.465 331.103 428.4 332 437.897 332 454.089 332 466.76 329.237 466.76 329.237 466.76 329.237 467 328.866 467 328.567 466.837 328.567 466.789 328.435 466.703 328.435 466.655 328.435 466.597 328.471 466.52 328.567 466.52 328.567 465.743 328.567 464.247 328.866 460.065 329.835 450.089 331.402 437.897 331.402 428.4 331.402 417.695 330.433 407.24 327.012Z" fill="#2F2035" fill-rule="evenodd"/><path d="M441.629 216.012C441.067 216.012 440.476 216.023 439.876 216.035 429.486 216.326 428.01 216.687 428.01 216.687L435.895 233 450.495 227.194 453.99 218.141C453.99 218.141 450.886 216.012 441.629 216.012Z" fill="#F4992B" fill-rule="evenodd"/><path d="M430 203.011 430.532 214.112C434.91 216.019 439.525 216.989 444.236 216.989 446.144 216.989 448.072 216.831 450 216.504L450 205.685 430 203.011Z" fill="#F7B38D" fill-rule="evenodd"/><path d="M430 214 430 218.401C430 218.401 430 238 439.526 238 439.877 238 440.247 237.976 440.627 237.916 451 236.35 449.968 218.102 449.968 218.102L449.968 216.535C447.99 216.882 446.013 217.049 444.055 217.049 439.224 217.049 434.49 216.021 430 214Z" fill="#FAC9A6" fill-rule="evenodd"/><path d="M411 142C407.914 142.376 405.086 144.875 403.543 148.357 402.247 151.827 402.495 156.206 404.285 159.385 404.532 159.991 404.838 160.295 404.838 160.901 405.086 161.884 404.532 162.478 404.285 163.461 402.989 165.657 402 168.156 402 171.019 402 173.821 403.543 176.697 405.818 177L411 142Z" fill="#DCA03B" fill-rule="evenodd"/><path d="M462.011 153.012C462.874 156.166 464.197 159.634 464.794 160.239 464.794 160.239 465.594 177.181 467.257 180.335 467.438 180.795 467.641 181 467.854 181 469.241 181 470.989 171.9 469.784 165.882 469.187 161.822 468.387 159.937 467.854 158.958 466.724 158.051 464.538 156.77 463.674 155.574 462.874 154.293 462.277 153.689 462.011 153.012Z" fill="#F4BC56" fill-rule="evenodd"/><path d="M441.998 135C438.454 135 434.525 135.626 430.278 136.89 413 141.746 407 160.449 411.266 183.771 415.051 205.793 427.928 213 440.717 213 441.478 213 442.239 212.976 443 212.917 457.523 211.96 467 197.617 467 183.192 467 164.489 463.042 151.907 463.042 151.907 460.538 140.99 453.064 135 441.998 135Z" fill="#FAC9A6" fill-rule="evenodd"/><path d="M427.447 185C424.88 185 422.89 186.228 422.483 188.201 422.009 190.831 424.719 193.685 428.384 194.69 429.189 194.888 429.976 194.988 430.705 194.988 433.357 194.988 435.384 193.747 435.754 191.749 435.991 189.206 433.575 186.266 429.853 185.335 429.019 185.112 428.204 185 427.447 185Z" fill="#F7B38D" fill-rule="evenodd"/><path d="M459.553 185C458.796 185 457.981 185.112 457.147 185.335 453.425 186.266 451.009 189.206 451.246 191.749 451.616 193.747 453.643 194.988 456.295 194.988 457.024 194.988 457.811 194.888 458.616 194.69 462.281 193.685 464.991 190.831 464.517 188.201 464.11 186.228 462.12 185 459.553 185Z" fill="#F7B38D" fill-rule="evenodd"/><path d="M447 146C447 145.038 446 145.038 446 145.038 446 145.038 447 145.038 447 146Z" fill="#855A46" fill-rule="evenodd"/><path d="M457.069 119C453.004 119 446.48 123.273 443.904 124.212 442.434 124.67 441.242 124.834 440.185 124.834 437.764 124.834 435.986 123.989 432.911 123.989 430.951 123.989 428.462 124.33 424.926 125.457 419.958 127.276 417.44 132.183 417.44 132.183 417.44 132.183 419.18 121.5 416.489 121.5 413.731 121.794 413.491 135.177 413.491 135.177 413.491 135.177 410.589 133.557 408.446 133.557 407.37 133.557 406.486 133.956 406.245 135.177 405.467 138.839 409.964 142.49 409.964 142.49 409.964 142.49 399.25 149.51 405.467 158.655 405.467 158.655 400.259 164.138 401.518 170.864 401.518 170.864 401.998 173.283 403.978 173.94 403.978 173.94 399.01 180.89 404.218 188.203 409.215 195.482 411.732 205.988 416.835 205.988 417.104 205.988 417.392 205.965 417.68 205.894 423.427 204.662 415.47 194.049 413.491 190.398 411.694 186.736 412.953 182.427 414.452 172.696 415.951 163.257 418.219 151.048 418.219 151.048 418.219 151.048 429.096 157.434 437.303 157.434 439.417 157.434 441.358 157.012 442.886 155.955 449.41 151.342 446.893 146.517 446.422 145.566L446.422 145.566C447.123 146.787 452.447 154.417 457.799 154.417 457.895 154.417 457.992 154.417 458.088 154.417 462.345 154.124 460.605 148.935 460.605 148.923L460.605 148.923C460.605 148.935 461.384 150.755 462.104 153.173 462.345 153.831 462.883 154.417 463.603 155.662 464.382 156.824 466.352 158.068 467.37 158.949 467.168 158.362 466.995 158.162 466.899 158.104L466.899 158.104C467.149 158.209 467.966 158.514 468.908 158.514 470.551 158.514 472.578 157.564 472.578 152.88 472.578 148.348 469.35 145.273 469.35 145.273 469.35 145.273 473.059 144.028 474.318 138.546 475 135.729 474.058 135.083 473.059 135.083 472.213 135.083 471.32 135.541 471.32 135.541 471.32 135.541 472.819 131.232 470.061 128.521 469.1 127.523 467.668 127.206 466.121 127.206 463.354 127.206 460.202 128.227 458.626 128.227 458.626 128.227 462.883 123.332 459.587 119.963 458.981 119.282 458.107 119 457.069 119Z" fill="#F4BC56" fill-rule="evenodd"/><path d="M410.171 179C407.255 179 403.722 180.596 403.446 188.202 403 195.545 406.41 198.988 410.038 198.988 412.726 198.988 415.537 197.104 417 193.505L414.037 179.828C414.037 179.828 412.261 179 410.171 179Z" fill="#FAC9A6" fill-rule="evenodd"/><path d="M428.881 160C427.652 160 425.864 160.745 423.253 162.689 418 166.972 420.601 169.941 420.601 169.941 421.119 170.651 421.79 170.988 422.633 170.988 423.943 170.988 425.66 170.139 427.753 168.497 430.659 166.321 431.99 163.632 431.167 161.828 430.791 160.768 430.12 160 428.881 160Z" fill="#F4BC56" fill-rule="evenodd"/><path d="M455 159.012C453.434 159.012 452.811 159.981 452.538 161.312 452.009 163.492 453.472 165.985 456.651 167.571 458.519 168.419 460.075 168.988 461.245 168.988 462.236 168.988 462.934 168.576 463.292 167.571 463.292 167.571 464.991 163.492 459.877 160.634 457.66 159.484 456.094 159.012 455 159.012Z" fill="#F4BC56" fill-rule="evenodd"/><path d="M409.415 183.013C409.094 183.013 408.764 183.051 408.415 183.127 406.472 183.749 405.245 186.365 405.009 186.365 405.009 186.365 405.009 186.759 405.245 186.759L405.472 186.759C405.472 186.759 406.708 184.067 408.651 183.444 408.868 183.381 409.075 183.356 409.283 183.356 410.245 183.356 411.104 183.94 412.113 184.778 415.528 187.711 413.349 194.276 413.349 194.67L413.585 194.987 413.821 194.67C413.821 194.67 416 187.711 412.349 184.384 411.406 183.419 410.462 183.013 409.415 183.013Z" fill="#2C1D1A" fill-rule="evenodd"/><path d="M412.029 188.007C410.031 188.007 408.27 188.837 408.27 188.837 408 188.837 408 189 408.27 189L408.54 189C408.54 189 410.182 188.314 412.019 188.314 412.937 188.314 413.898 188.484 414.73 189L415 189 415 188.837C414.082 188.209 413.023 188.007 412.029 188.007Z" fill="#2C1D1A" fill-rule="evenodd"/><path d="M443.103 136.804C443.34 137.165 443.872 137.456 444.109 138.038 444.584 138.62 444.821 138.981 445.116 139.564 445.818 141.113 446.416 143.023 446.777 144.886L446.777 144.886C445.628 143.302 444.651 141.532 443.872 139.564 443.635 138.981 443.34 138.329 443.103 137.747 443.103 137.456 442.866 137.165 442.866 136.804ZM459.604 139.564 459.898 139.855C460.136 140.146 460.136 140.426 460.373 140.426 460.848 141.66 461.085 142.895 461.085 144.42 461.379 145.585 461.379 146.819 461.085 148.054 461.085 148.299 461.076 148.543 461.066 148.788L461.066 148.788C460.677 147.588 460.373 146.319 460.136 145.003 459.898 143.768 459.604 142.604 459.604 141.369 459.367 141.089 459.367 140.798 459.367 140.426 459.604 140.146 459.604 139.855 459.604 139.564ZM442.989 136C442.866 136 442.752 136.082 442.628 136.221 442.391 136.512 442.391 136.804 442.391 136.804 442.391 137.456 442.391 137.747 442.628 138.038 442.628 138.62 442.866 139.273 443.103 139.855 444.337 142.219 445.571 144.385 447.034 146.47L447.034 146.47C447.043 146.587 447.053 146.703 447.062 146.819 447.062 148.054 447.062 149.498 446.834 150.733 446.293 151.676 445.828 152.841 445.116 153.784 444.109 154.366 443.34 154.937 442.391 155.601 441.385 155.88 440.15 156.172 439.201 156.463 438.66 156.544 438.109 156.579 437.549 156.579 436.03 156.579 434.463 156.311 432.992 155.88 430.798 155.31 428.852 154.657 426.839 153.493 422.937 151.676 418.969 149.207 415.541 146.237 415.247 146.237 415.247 146.237 415.009 146.528 415.009 146.528 415.009 146.819 415.247 147.111 418.731 150.15 422.406 152.549 426.602 154.657 428.558 155.601 430.561 156.463 432.754 157.115 434.055 157.29 435.327 157.453 436.609 157.453 437.549 157.453 438.489 157.359 439.438 157.115 440.378 157.115 441.385 156.754 442.628 156.172 443.635 155.88 444.584 155.31 445.353 154.366 446.293 153.493 446.834 152.258 447.299 150.733 447.518 149.615 447.727 148.322 447.594 147.169L447.594 147.169C448.904 148.776 450.224 150.372 451.743 151.967 452.749 152.549 453.689 153.132 454.695 153.784 455.436 154.203 456.3 154.471 457.079 154.471 457.363 154.471 457.639 154.436 457.895 154.366 459.129 154.366 460.136 153.132 460.848 152.258 460.99 151.932 461.114 151.571 461.218 151.222L461.218 151.222C461.417 151.758 461.626 152.293 461.854 152.841 462.566 154.075 463.098 154.937 463.8 156.172 464.569 157.115 465.519 157.988 466.763 157.988 467 157.988 467 157.988 467 157.697 467 157.406 467 157.406 466.763 157.406 465.813 157.406 465.044 156.463 464.342 155.601 463.573 154.657 463.098 153.493 462.566 152.258 462.167 151.56 461.816 150.814 461.512 150.034L461.512 150.034C461.645 149.44 461.75 148.858 461.854 148.345 461.854 146.819 461.854 145.585 461.617 144.059 461.617 142.895 461.379 141.66 460.848 140.146 460.61 139.855 460.61 139.564 460.373 139.273 460.136 139.273 460.136 139.273 459.898 138.981L459.604 138.981C459.367 138.981 459.367 139.273 459.129 139.273 458.892 139.564 458.892 139.855 458.892 140.426L458.892 141.369C459.129 142.895 459.367 144.059 459.604 145.294 459.946 147.052 460.354 148.66 460.876 150.22L460.876 150.22C460.753 150.768 460.591 151.245 460.373 151.676 459.604 152.841 458.892 153.493 457.895 153.784 456.946 153.784 455.939 153.493 454.933 153.132 453.983 152.549 452.977 151.967 451.98 151.315 450.262 149.859 448.781 148.054 447.537 145.876 447.527 145.864 447.518 145.853 447.508 145.841L447.508 145.841C447.366 143.43 446.682 141.124 445.59 139.273 445.353 138.62 445.116 138.038 444.584 137.456 444.347 137.165 443.872 136.512 443.34 136.221 443.226 136.082 443.103 136 442.989 136Z" fill="#DCA03B" fill-rule="evenodd"/><path d="M467.095 225C465.541 225 465.253 228.29 463.593 232.126L458.633 230.57C456.12 234.644 454.623 238.635 454.143 241.082 453.366 245.369 456.12 262.686 457.616 270.383 450.142 272.521 433.467 277.188 423.01 279.623 423.01 279.623 423.959 285.467 423.72 287.32 423.297 292.011 423.058 296.477 423.182 296.477 423.201 296.477 423.221 296.406 423.249 296.275 423.249 296.275 442.342 301.988 458.911 301.988 464.083 301.988 469.014 301.43 473.034 299.969 493 292.569 486.485 256.463 486.485 256.463L484.989 244.479C484.989 244.479 482.772 227.827 467.297 225.024 467.23 225.012 467.153 225 467.095 225Z" fill="#FCC557" fill-rule="evenodd"/><path d="M407.487 274C406.767 274 406 274.742 406.142 277.201 406.379 281.267 406.379 280.99 411.049 284.989L412.991 282.718C412.991 282.718 410.045 280.99 409.808 280.093 409.571 279.262 409.097 275.473 408.567 274.642 408.387 274.299 407.942 274 407.487 274Z" fill="#F7B38D" fill-rule="evenodd"/><path d="M412.546 272.012C409.482 272.012 405.35 273.58 406.608 274.931 407.771 275.799 410.541 275.932 412.196 275.932 412.972 275.932 413.501 275.908 413.501 275.908 415.449 277.114 416.688 281.239 416.688 281.239 416.376 281.202 416.073 281.178 415.78 281.178 411.137 281.178 408.319 285.894 408.319 285.894 408.319 285.894 401.34 277.222 398.787 277.222 398.428 277.222 398.163 277.391 398.012 277.789 397.009 280.563 406.371 292.515 409.558 293.71 412.972 294.988 424.754 294.988 424.754 294.988L424.991 294.385 424.281 282.746C424.281 282.746 416.924 272.446 413.974 272.145 413.548 272.048 413.066 272.012 412.546 272.012Z" fill="#FAC9A6" fill-rule="evenodd"/><path d="M400.842 273.012C400.581 273.012 400.351 273.119 400.251 273.382 400.01 273.68 400.251 274.277 400.501 274.575 402.566 279.552 405.683 283.575 409.372 286.988L412.99 286.021C409.873 281.414 405.934 277.106 402.065 273.68 401.764 273.275 401.253 273.012 400.842 273.012Z" fill="#FAC9A6" fill-rule="evenodd"/><path d="M403.075 289.013C401.882 289.013 400.689 289.051 399.486 289.129 399.013 289.129 398.009 289.45 398.246 290.491 398.246 290.812 398.776 291.134 399.013 291.455 402.062 293.023 405.451 294 408.897 294 409.844 294 410.8 293.923 411.747 293.769L413.991 290.17C410.298 289.386 406.71 289.013 403.075 289.013Z" fill="#FAC9A6" fill-rule="evenodd"/><path d="M419.441 283.012C413.771 283.012 412 288.689 412 288.689 412 288.689 412 288.988 412.308 288.988 412.308 288.988 412.539 288.988 412.539 288.689 412.539 288.689 414.098 283.347 419.768 283.347 420.086 283.347 420.413 283.371 420.759 283.406L421 283.406C421 283.108 420.759 283.108 420.759 283.108 420.297 283.036 419.855 283.012 419.441 283.012Z" fill="#F7B38D" fill-rule="evenodd"/><path d="M403 280 403 280.297 410.682 288 411 288 411 287.406 403.257 280Z" fill="#F7B38D" fill-rule="evenodd"/><path d="M411.034 283.012C410.01 285.114 411.758 290.58 411.758 290.872 411.758 290.872 411.758 291 411.826 291 411.865 291 411.913 290.965 411.99 290.872L411.99 290.58C411.99 290.58 410.493 285.114 411.275 283.304L411.275 283.012Z" fill="#F7B38D" fill-rule="evenodd"/><path d="M405.009 289.015 405.009 289.394 405.009 289.773C405.223 289.773 408.322 289.773 410.785 291L411 291 411 290.621 411 290.152C408.536 289.015 405.223 289.015 405.009 289.015Z" fill="#F7B38D" fill-rule="evenodd"/><path d="M422.786 282.012C423.016 289.008 422.01 296.882 422.01 296.882L428.521 299 428.99 282.597 422.786 282.012Z" fill="#ECCABB" fill-rule="evenodd"/><path d="M428.777 277.012 423.009 280.134 423.231 282 428.991 280.433 428.777 277.012Z" fill="#ECCABB" fill-rule="evenodd"/><path d="M468.467 276C468.015 276 467.59 276.289 467.422 276.601 466.925 277.502 466.482 281.239 466.261 282.073 465.765 282.974 463.009 284.431 463.009 284.431L464.878 286.989C469.247 282.974 469.247 283.53 469.681 279.504 469.991 276.779 469.211 276 468.467 276Z" fill="#F7B38D" fill-rule="evenodd"/><path d="M463.279 274.012C463.072 274.012 462.875 274.024 462.697 274.035 459.536 274.331 452.004 284.12 452.004 284.12L451.009 295.445 451.244 295.811C451.244 295.811 454.799 295.988 458.57 295.988 461.628 295.988 464.826 295.87 466.374 295.445 469.535 294.264 479 283.235 478.062 280.141 477.94 279.751 477.687 279.586 477.33 279.586 474.891 279.586 467.838 287.793 467.838 287.793 467.838 287.793 465.239 282.88 460.427 282.88 460.136 282.88 459.846 282.904 459.536 282.939 459.536 282.939 460.999 278.889 462.932 278.015 462.932 278.015 463.457 278.039 464.226 278.039 465.868 278.039 468.616 277.909 469.77 277.059 471.355 275.948 466.327 274.012 463.279 274.012Z" fill="#FAC9A6" fill-rule="evenodd"/><path d="M475.247 276.011C474.874 276.011 474.402 276.321 474.13 276.493 470.336 280.062 467.059 283.928 464.009 288.071L467.286 289C470.844 286.281 473.676 282.139 475.546 277.71 475.764 277.354 475.991 276.78 475.764 276.493 475.682 276.126 475.483 276.011 475.247 276.011Z" fill="#FAC9A6" fill-rule="evenodd"/><path d="M470.111 291C467.381 291 464.662 291.253 462.01 291.833L464.22 295.76C465.277 295.912 466.344 296 467.42 296 470.668 296 473.954 295.268 476.972 293.79 477.452 293.399 477.99 293.083 477.99 292.768 477.99 291.833 477.212 291.429 476.491 291.429 474.387 291.164 472.253 291 470.111 291Z" fill="#FAC9A6" fill-rule="evenodd"/><path d="M456.425 284.013C456.283 284.013 456.142 284.013 456 284.013L456 284.44 456 284.773C456.301 284.733 456.593 284.707 456.876 284.707 462.115 284.707 463.558 291 463.558 291L463.77 291C463.77 291 463.991 291 463.991 290.667 463.779 290.667 462.248 284.013 456.425 284.013Z" fill="#F7B38D" fill-rule="evenodd"/><path d="M472.759 282.012 465 289.692 465 290 465.241 290 473 282.32 473 282.012Z" fill="#F7B38D" fill-rule="evenodd"/><path d="M465.664 285C465.651 285 465.651 285.035 465.651 285.128 465.336 285.128 465.336 285.128 465.336 285.42 466.357 286.95 464 292.696 464 292.696L464 292.988 464.403 292.988 464.706 292.696C464.706 292.696 466.987 286.95 465.966 285.128 465.765 285.128 465.689 285 465.664 285Z" fill="#F7B38D" fill-rule="evenodd"/><path d="M470.385 291.012C469.041 291.012 466.963 291.116 465.242 291.709 465.01 291.709 465.01 291.709 465.01 292L465.242 292C468.017 291.337 471.749 291.337 471.749 291.337 471.99 291.337 471.99 291.337 471.99 291.058L471.749 291.058C471.749 291.058 471.207 291.012 470.385 291.012Z" fill="#F7B38D" fill-rule="evenodd"/><path d="M409.951 226.012C409.951 226.012 397.867 229.718 392.068 244.267 391.098 247.02 390.312 256.29 390.312 256.29 390.312 256.29 383 292.145 402.881 300.247 407.682 302.261 413.821 302.988 420.154 302.988 436.107 302.988 453.273 298.389 453.273 298.389 453.292 298.508 453.311 298.567 453.331 298.567 453.457 298.567 453.214 294.135 452.72 289.404 452.72 287.545 453.99 281.98 453.99 281.98 443.177 278.859 426.564 273.592 419.252 271.137 420.765 263.428 424.023 246.126 423.305 241.741 422.821 239.298 421.55 235.282 419.252 231.279L413.995 232.768C412.25 228.455 409.951 226.012 409.951 226.012Z" fill="#FCC557" fill-rule="evenodd"/><path d="M453.74 283.012 447.01 283.597 447.01 299.988 453.99 297.882C453.99 297.882 453.249 290.008 453.74 283.012Z" fill="#ECCABB" fill-rule="evenodd"/><path d="M447.501 278 447.01 281.134 453.74 283 453.99 281.433 447.501 278Z" fill="#ECCABB" fill-rule="evenodd"/><path d="M423.735 223C423.735 223 416.002 224.261 410.003 225.82L405.024 275.857C405.024 275.857 395 316.624 406.517 323.74 411.977 327.084 433.278 327.453 433.278 327.453 435.088 327.833 437.159 328 439.364 328 451.141 328 466.75 323.371 466.75 323.371 466.75 323.371 472.99 318.778 471.007 300.834 470.227 293.42 470.776 273.703 470.776 273.703L469.996 261.923 469.755 262.22 467.473 225.154C463.274 223.964 459.249 223.666 459.249 223.666 459.249 223.666 451.574 223.369 446.316 223.369 443.678 223.369 441.656 223.44 441.492 223.666 441.251 224.559 438.738 232.567 438.738 232.567L436.995 223.964 423.735 223Z" fill="#FCC557" fill-rule="evenodd"/><path d="M441.008 232.012 441.008 232.308 441.794 323.692C441.794 323.988 441.794 323.988 441.992 323.988L441.992 323.692 441.206 232.308C441.206 232.308 441.206 232.012 441.008 232.012Z" fill="#ECCABB" fill-rule="evenodd"/><path d="M436 229 436 229.298 437.669 233.613 436.637 323.69C436.637 323.988 436.955 323.988 436.955 323.988L437.274 323.69 437.987 233.613 437.987 233.315 436.318 229Z" fill="#ECCABB" fill-rule="evenodd"/><path d="M446.686 231.013C446.686 231.013 444.98 232.618 441.647 232.618 440.186 232.618 438.402 232.312 436.304 231.408L436 231.408 436 231.726C438.324 232.682 440.098 233 441.618 233 445.167 233 447 231.408 447 231.408L447 231.013Z" fill="#ECCABB" fill-rule="evenodd"/><path d="M439.034 235C438.493 235 438.01 235.471 438.01 236.101 438.01 236.571 438.493 236.992 439.034 236.992 439.517 236.992 440 236.571 440 236.101 440 235.471 439.517 235 439.034 235Z" fill="#ECCABB" fill-rule="evenodd"/><path d="M439.034 250C438.493 250 438.01 250.242 438.01 250.966 438.01 251.507 438.493 251.99 439.034 251.99 439.517 251.99 439.99 251.507 439.99 250.966 439.99 250.242 439.517 250 439.034 250Z" fill="#ECCABB" fill-rule="evenodd"/><path d="M438.879 264.013C438.698 264.013 438.526 264.119 438.44 264.425 438.009 265.089 438.009 265.752 438.224 266.496 438.44 266.827 438.724 267 438.974 267 439.233 267 439.457 266.827 439.569 266.496 439.991 266.164 439.991 265.089 439.569 264.425 439.44 264.239 439.147 264.013 438.879 264.013Z" fill="#ECCABB" fill-rule="evenodd"/><path d="M439.597 282.009C439.278 282.009 438.901 282.122 438.582 282.357 438.297 282.592 438.011 283.352 438.582 283.822 438.901 283.934 439.198 283.991 439.494 283.991 439.791 283.991 440.076 283.934 440.361 283.822 441 283.352 441 282.826 440.361 282.357 440.213 282.122 439.928 282.009 439.597 282.009Z" fill="#ECCABB" fill-rule="evenodd"/><path d="M439.597 314.014C439.278 314.014 438.901 314.099 438.582 314.268 438.297 314.972 438.011 315.676 438.582 316.465 438.901 316.817 439.198 317 439.494 317 439.791 317 440.076 316.817 440.361 316.465 441 316.113 441 314.972 440.361 314.268 440.213 314.099 439.928 314.014 439.597 314.014Z" fill="#ECCABB" fill-rule="evenodd"/><path d="M439.597 299C439.278 299 438.901 299.121 438.582 299.344 438.297 299.642 438.011 300.33 438.582 300.563 438.947 300.86 439.289 300.991 439.62 300.991 439.871 300.991 440.11 300.916 440.361 300.795 441 300.33 441 299.874 440.361 299.344 440.213 299.121 439.928 299 439.597 299Z" fill="#ECCABB" fill-rule="evenodd"/><path d="M473 255.012 470 279.988C471.108 271.835 472.216 263.465 473 255.012Z" fill="#ECCABB" fill-rule="evenodd"/><path d="M470.009 264 471 278.988C471 274.226 470.467 269.082 470.009 264Z" fill="#ECCABB" fill-rule="evenodd"/><path d="M405.99 272C405.749 273.201 405.536 274.428 405.333 275.667L405.333 275.667 405.99 272ZM405.333 275.667 404.01 283C404.531 280.66 404.918 278.144 405.333 275.667Z" fill="#ECCABB" fill-rule="evenodd"/><path d="M436.7 226.012C435.616 226.012 434.86 226.606 434.032 227.568L433.521 228.448C433.01 229.707 433.01 230.895 433.521 232.154L434.86 235.552C435.361 236.812 436.444 237.703 437.528 237.703L440.972 238C441.983 238 443.067 237.406 443.578 236.444L445.489 233.414C446 232.154 446 230.895 445.489 229.707L444.917 228.15C444.406 226.903 443.322 226.012 442.3 226.012Z" fill="#083B4F" fill-rule="evenodd"/><path d="M454.305 218.012C453.242 218.665 441 223.823 441 223.823L447.246 238C450.375 237.125 459.99 226.226 459.99 226.226 456.872 221.057 454.305 218.012 454.305 218.012Z" fill="#F4992B" fill-rule="evenodd"/><path d="M427.732 217C427.732 217 423.093 220.565 420.01 225.546 420.01 225.546 427.98 237.143 431.062 238L436.99 224.118C436.99 224.118 428.783 217.571 427.732 217Z" fill="#F4992B" fill-rule="evenodd"/><path d="M415.74 253.012C414.731 253.012 414.017 253.963 413.722 254.843L412 270.704C412 271.655 412.238 272.242 412.771 272.829L420.183 280.436C420.469 280.836 420.945 280.988 421.439 280.988 421.763 280.988 422.096 280.918 422.382 280.8L432.991 273.486C433.524 272.829 434 272.242 434 271.291L433.762 256.369C433.762 255.207 432.991 254.256 432.04 254.256L415.74 253.012Z" fill="#F4992B" fill-rule="evenodd"/><path d="M413 256 413 257.227 434 257.985 434 257.227 413 256Z" fill="#083B4F" fill-rule="evenodd"/><path d="M441.998 235 436.484 235.297 433.01 309.127 438.764 322.988 445 308.163 441.998 235Z" fill="#083B4F" fill-rule="evenodd"/><path d="M440.593 286 426.158 286.89C423.86 286.89 422.01 288.879 422.01 291.418 422.01 294.011 423.86 296 426.407 296L440.911 295.725C442.951 295.725 444.751 293.736 445 291.143L445 290.868C445 288.264 442.951 286 440.593 286Z" fill="#B4B9B5" fill-rule="evenodd"/><path d="M502.285 238.012 442.705 238.307C440.209 238.307 438 241.106 438 244.189L438.239 290.178C438.239 293.189 440.209 295.988 442.705 295.988L502.285 295.693C504.724 295.693 506.99 292.894 506.99 289.811L506.751 243.822C506.751 240.811 504.724 238.012 502.285 238.012Z" fill="#B4B9B5" fill-rule="evenodd"/><path d="M500.858 242C500.742 242 500.617 242.012 500.492 242.024L444.267 242.024C441.984 242.024 440.01 244.525 440.01 247.546L440.25 290.477C440.25 293.486 441.984 295.988 444.508 295.988L500.492 295.693C503.016 295.693 504.99 293.191 504.99 290.182L504.759 247.251C504.759 244.396 502.977 242 500.858 242Z" fill="#BDC0BD" fill-rule="evenodd"/><path d="M471.969 263.012C469.867 263.012 468.01 265.088 468.01 267.465 468.01 269.842 469.867 271.988 471.969 271.988 474.144 271.988 476 269.842 476 267.465 476 265.088 474.144 263.012 471.969 263.012Z" fill="#B4B9B5" fill-rule="evenodd"/><path d="M589 304.06 589 512.94 593.99 512.94 593.99 304.06Z" fill="#2E252C" fill-rule="evenodd"/><path d="M355 304.06 355 512.94 359.989 512.94 359.989 304.06Z" fill="#2E252C" fill-rule="evenodd"/><path d="M569 304.06 569 512.94 574 512.94 574 304.06Z" fill="#2E252C" fill-rule="evenodd"/><path d="M375.011 304.06 375.011 512.94 380 512.94 380 304.06Z" fill="#2E252C" fill-rule="evenodd"/><path d="M374.01 294 374.01 306 597 306 597 294Z" fill="#8F3956" fill-rule="evenodd"/><path d="M352.01 294 352.01 306 374 306 374 294Z" fill="#A24F3E" fill-rule="evenodd"/><path d="M438.436 188.012C438.206 188.012 437.976 188.012 437.976 188.384L437.691 188.384C437.46 188.384 437.46 188.684 437.46 188.684 437.23 188.684 437.23 188.984 437 189.284L437 189.584C437.23 189.884 437.23 189.884 437.46 190.256 437.691 190.256 437.976 189.884 437.976 189.584L438.206 189.284 438.206 189.884C438.206 190.256 438.206 190.556 438.436 190.856 438.436 191.144 438.667 191.444 438.667 191.744 438.667 191.744 438.897 192.116 439.127 192.416 439.873 193.316 440.554 193.988 441.53 193.988 441.761 193.988 441.991 193.616 441.991 193.316L441.991 193.016C441.761 192.716 441.761 192.716 441.53 192.716L441.3 192.716C441.079 192.716 440.849 192.416 440.554 192.416 440.333 192.116 440.103 192.116 439.873 191.744 439.643 191.444 439.643 191.144 439.413 190.856 439.413 190.856 439.127 190.556 439.127 190.256L439.127 189.584 439.127 189.284C439.413 188.984 439.413 188.984 439.413 188.684L439.413 188.384C439.127 188.012 439.127 188.012 438.897 188.012Z" fill="#083B4F" fill-rule="evenodd"/><path d="M433.657 176.012C432.582 176.012 431.254 177.8 431.254 180.246 431 182.623 431.822 184.7 433.15 184.988 434.418 184.988 435.483 183.2 435.736 180.823 435.99 178.446 435.239 176.369 433.911 176.012Z" fill="#083B4F" fill-rule="evenodd"/><path d="M456.239 177.011C455.12 177.011 454.214 178.71 454 180.967 454 181.855 454.214 182.951 454.479 183.838 454.692 184.375 455.12 184.989 455.547 184.989L455.812 184.989C456.667 184.989 457.573 183.564 457.786 181.241 458 178.984 457.359 177.285 456.239 177.011Z" fill="#083B4F" fill-rule="evenodd"/><path d="M446.841 169.012 446.589 169.305C446.022 171.125 445.516 173.249 445.263 175.374 445.263 176.618 445.01 177.78 445.01 178.731L445.01 180.269 445.01 181.807 445.263 182.1C445.263 182.1 445.263 182.394 445.516 182.394L445.769 182.1 446.022 181.807C446.589 181.443 446.841 181.443 447.084 181.443 447.084 181.149 447.337 181.149 447.59 181.149L448.41 181.149C448.663 181.443 448.663 181.443 448.916 181.443 448.916 181.807 449.169 181.807 449.169 182.1 449.422 182.394 449.422 182.394 449.422 182.687 449.735 182.98 449.735 183.274 449.735 183.931L449.735 185.093C449.735 185.457 449.422 185.751 449.422 186.044 449.169 186.338 449.169 186.631 448.916 186.925 448.916 186.925 448.663 187.288 448.41 187.582 448.41 187.582 448.157 187.582 447.843 187.875L446.022 187.875C445.769 187.875 445.516 188.169 445.263 188.169 445.263 188.462 445.01 188.756 445.01 188.756 445.01 189.413 445.516 190 445.769 190L447.084 190C447.59 189.707 447.843 189.707 448.41 189.413 448.916 189.413 449.422 188.756 449.988 188.169 450.241 187.582 450.747 186.925 450.747 186.338 451 185.457 451 184.8 451 184.225 451 183.274 450.747 182.687 450.494 182.1 450.241 181.443 449.988 181.149 449.422 180.562 449.169 180.269 448.663 179.975 448.157 179.975L447.843 179.975C447.337 179.975 446.841 180.269 446.265 180.562 446.022 180.856 446.022 180.856 445.769 181.149L445.769 180.562 445.769 180.269C445.516 178.731 445.769 177.205 446.022 175.08 446.265 173.249 446.589 171.418 447.084 169.599 447.084 169.305 447.084 169.305 446.841 169.012Z" fill="#B9866A" fill-rule="evenodd"/><path d="M408 247.012 408 271C409 263.029 409 255.057 408 247.012Z" fill="#ECCABB" fill-rule="evenodd"/></g></svg>