<svg width="393" height="304" xmlns="http://www.w3.org/2000/svg" xmlns:xlink="http://www.w3.org/1999/xlink" overflow="hidden"><defs><clipPath id="clip0"><rect x="310" y="146" width="393" height="304"/></clipPath></defs><g clip-path="url(#clip0)" transform="translate(-310 -146)"><path d="M466.649 159.506 461.874 159.78 457.105 160.054 447.859 161.149 438.918 162.793 430.566 164.711 422.513 167.176 415.359 169.648 409.094 172.113 403.133 174.579 398.358 176.771 391.801 180.064 389.41 181.434 384.045 186.091 378.972 191.302 373.011 197.329 367.044 203.909 364.361 207.197 361.977 210.758 359.891 213.777 358.698 216.791 357.804 219.804 357.506 220.9 357.506 222.27 358.102 224.741 358.997 227.481 360.189 230.494 361.679 233.788 365.256 240.363 369.137 246.943 373.011 252.97 376.588 257.907 379.873 262.29 379.575 265.852 378.972 274.624 378.674 280.657 378.972 287.506 379.27 294.908 380.171 302.859 381.363 310.809 383.151 318.754 384.343 322.869 385.536 326.704 387.026 330.266 388.814 333.833 390.9 337.394 392.993 340.682 395.377 343.701 398.06 346.44 400.742 348.906 404.027 351.098 407.604 353.015 411.18 354.665 415.061 356.034 419.234 357.13 423.705 357.678 427.884 358.226 432.653 358.5 441.898 358.5 446.667 358.226 451.442 357.678 456.211 356.856 466.053 354.939 475.597 352.741 484.836 350.002 493.486 346.714 501.838 343.427 509.289 340.134 516.151 336.572 521.522 333.285 525.992 330.266 529.271 327.252 530.165 326.156 530.761 325.06 532.55 325.06 536.729 325.334 539.709 325.06 542.988 324.786 546.57 324.239 550.445 323.417 554.32 322.321 558.201 320.671 562.075 318.48 565.354 315.74 567.142 314.096 568.639 312.453 570.129 310.535 571.321 308.338 572.811 306.146 573.706 303.68 574.6 300.941 575.494 298.196 543.584 279.561 543.882 274.898 543.882 263.112 543.882 255.162 543.286 246.395 542.391 236.527 540.603 226.659 538.517 216.243 537.325 211.032 535.834 206.101 534.046 201.17 531.953 196.233 529.867 191.576 527.185 187.187 524.502 183.077 521.522 178.962 518.237 175.401 514.66 172.113 510.786 169.374 506.309 166.629 501.838 164.711 496.765 163.067 491.698 161.971 486.631 161.149 481.558 160.328 476.491 159.78 471.716 159.78 466.649 159.506Z" stroke="#FFE9AB" stroke-linejoin="round" stroke-miterlimit="10" fill="#FFC216" fill-rule="evenodd"/><path d="M447 369.006 452.098 375.422 457.789 381.832 464.984 389.364 468.878 392.987 472.772 396.61 476.972 400.239 481.165 403.305 485.059 405.813 488.959 408.049 492.554 409.443 494.351 409.721 495.849 410 499.15 409.721 502.445 408.885 506.039 407.486 509.34 405.813 512.934 403.862 516.229 401.354 519.524 398.846 522.825 396.331 528.516 391.036 533.016 386.576 536.91 382.111 539.006 383.226 543.799 385.456 546.501 386.576 548.897 387.134 550.395 387.134 550.694 386.855 550.994 386.298 550.694 385.456 550.395 384.62 548.298 382.111 545.303 379.603 542.002 376.816 535.711 372.072 533.016 370.121 505.44 386.576 479.967 369.842 447 369.006Z" fill="#FDC59D" fill-rule="evenodd"/><path d="M532.555 371 520 378.33 529.264 390 534.646 384.84 536.437 382.67 539.722 384.298 542.709 385.654 546 387.016 544.208 379.686 540.021 376.431 536.437 373.713 532.555 371Z" fill="#FDFDFD" fill-rule="evenodd"/><path d="M530.488 366.006 529.574 366.553 527.747 367.92 525.92 369.834 525.006 371.201 525.006 371.475 525.615 372.021 527.138 373.662 532.93 378.043 540.848 384.059 540.848 384.059 540.239 383.785 538.716 383.238 536.28 382.691 535.366 382.691 534.148 382.965 533.235 383.512 532.93 384.059 532.626 384.879 532.315 385.699 532.626 387.893 533.235 389.807 533.235 390.08 533.844 390.354 534.757 390.627 536.28 390.901 537.803 390.901 540.848 390.354 542.066 390.08 544.197 390.627 548.772 391.721 551.208 391.994 553.644 391.994 555.471 391.447 556.385 391.174 556.689 390.627 557 389.807 556.385 388.44 555.471 387.072 553.948 385.152 549.99 381.324 545.422 376.949 540.543 372.842 535.975 369.287 532.626 366.826 531.097 366.006Z" fill="#FDFDFD" fill-rule="evenodd"/><path d="M536.232 391 536.232 391 536.232 391 536.232 391 536.232 391 536.232 391ZM541.994 390.149 541.994 390.149 539.871 390.716 536.535 391 536.535 391 539.871 390.716 541.994 390.149ZM525.006 370.567 525.006 370.567 525.006 370.567 525.006 370.567 525.006 370.567 525.006 370.567 525.006 370.567 525.006 370.567 525.006 370.567ZM525.006 370.567 525.006 370.567 525.006 370.567 525.006 370.567 525.006 370.567ZM525.31 370.284 525.31 370.284 525.006 370.567 525.006 370.567 525.31 370.284ZM525.31 370 525.31 370 525.31 370.284 525.31 370.284 525.31 370ZM525.31 370 525.31 370 525.31 370 525.31 370 525.31 370ZM525.31 370 525.31 370 525.31 370 525.31 370 525.31 370ZM525.31 370 525.31 370 525.31 370 525.31 370 525.31 370ZM525.31 370 525.31 370 525.31 370 525.31 370 525.31 370ZM525.31 370 525.31 370 525.31 370 525.31 370 525.31 370Z" fill="#FAF9F9" fill-rule="evenodd"/><path d="M536 382 536 382 534.185 382.333 534.185 382.333 533.096 382.998 532.37 383.664 532 384.995 532 385.993 532 385.993 532 384.995 532.37 383.664 533.096 382.998 534.185 382.333 534.185 382.333 536 382ZM536 382 536 382 536 382 536 382 536 382 536 382Z" fill="#F8F8F8" fill-rule="evenodd"/><path d="M528.603 367.006 526.805 368.927 525.306 370.574 525.306 370.848 525.006 371.123 525.606 372.221 527.404 373.868 532.806 378.265 540.599 384.029 538.801 383.205 537.302 382.931 535.504 382.656 534.005 382.931 533.106 383.48 532.506 384.029 532.2 385.127 532.2 385.95 532.506 387.877 533.106 389.798 533.406 390.347 534.005 390.622 536.103 390.896 536.403 390.896 539.7 390.622 541.799 390.073 545.402 391.171 548.699 391.72 551.996 391.994 553.495 391.72 554.994 391.445 552.896 388.701 549.898 385.401 546.301 381.833 542.398 378.265 534.305 371.397 528.603 367.006Z" fill="#FBDAE0" fill-rule="evenodd"/><path d="M499.611 383 488.555 390.944 476.006 399.436 480.784 402.994 502 384.642 499.611 383Z" fill="#FEA68C" fill-rule="evenodd"/><path d="M420 366.006 420.898 376.118 422.096 386.777 424.193 399.075 425.391 405.358 426.894 411.373 428.691 417.11 430.488 422.579 432.584 426.949 433.782 428.862 435.28 430.779 436.478 432.145 437.981 433.238 439.479 434.057 440.976 434.604 444.27 435.15 447.864 435.696 455.657 436.243 463.749 436.516 471.835 436.516 484.718 435.969 490.115 435.696 492.212 438.155 497.003 442.804 499.705 445.263 502.101 447.175 503.298 447.721 504.197 447.994 505.095 447.994 505.694 447.721 505.994 446.902 505.994 445.536 505.095 441.985 503.298 437.608 501.202 432.691 497.309 423.945 495.206 420.12 490.415 420.12 479.328 419.574 473.332 418.749 467.642 417.929 465.246 417.383 463.15 416.837 461.347 416.017 460.448 415.198 459.55 414.105 458.651 411.92 456.555 405.905 454.459 398.529 452.362 390.055 449.062 375.02 447.864 368.464 420 366.006Z" fill="#FDC59D" fill-rule="evenodd"/><path d="M481 419.006 482.157 435.873 490.262 435.32 493.154 438.637 496.336 441.959 499.523 445 502.994 437.255 500.68 430.897 498.077 425.363 495.179 419.559 490.84 419.559 481 419.006Z" fill="#FDFDFD" fill-rule="evenodd"/><path d="M496.737 416 494.304 416.557 491.871 417.392 490.047 418.228 490.047 418.506 490.047 419.069 490.655 421.297 493.088 427.703 497.041 436.899 496.433 436.063 495.216 434.949 493.696 433.557 492.784 433 491.567 432.721 490.655 432.721 489.743 433 489.135 433.557 488.527 434.392 487.614 436.342 487.006 438.013 487.006 438.57 487.31 439.127 487.919 439.962 489.135 440.519 490.655 441.361 493.392 442.196 494.608 442.753 496.129 443.867 499.48 446.931 501.608 448.323 503.737 449.437 505.561 449.994 506.473 449.994 507.081 449.716 507.69 448.88 507.994 447.766 507.994 445.817 507.69 443.589 506.473 438.291 504.649 432.443 502.824 426.589 500.696 421.576 499.176 417.671 498.263 416.279 497.655 416Z" fill="#FDFDFD" fill-rule="evenodd"/><path d="M487.577 436.078 487.577 436.078 487.577 436.078 487.006 437.994 487.006 437.994 487.577 436.078ZM491 418 491 418 489.859 418.547 489.859 418.547 489.859 419.101 490.144 420.196 490.144 420.196 490.144 420.196 490.144 420.196 489.859 419.101 489.859 418.547 489.859 418.547 491 418Z" fill="#FAF9F9" fill-rule="evenodd"/><path d="M491.601 432.687 491.601 432.687 490.403 432.963 489.504 433.514 488.605 434.616 488.006 435.994 488.006 435.994 488.006 435.994 488.006 435.994 488.605 434.616 489.504 433.514 490.403 432.963 491.601 432.687ZM491.601 432.687 491.601 432.687 491.601 432.687 491.601 432.687 491.601 432.687 491.601 432.687ZM490.702 420.006 490.702 420.006 491.901 423.864 493.698 428.548 496.994 435.994 496.994 435.994 493.698 428.548 491.901 423.864 490.702 420.006 490.702 420.006 490.702 420.006Z" fill="#F8F8F8" fill-rule="evenodd"/><path d="M495.697 416 493.3 416.562 491.202 417.404 490.003 417.966 490.003 418.533 490.303 419.656 491.502 423.587 493.3 428.361 496.596 435.948 496.896 436.791 496.297 435.948 495.098 434.825 493.599 433.421 492.7 432.86 491.502 432.579 491.202 432.579 490.003 432.86 489.104 433.421 488.205 434.544 487.606 435.948 487.006 437.914 487.006 438.195 487.306 439.037 488.205 439.88 489.404 440.728 490.603 441.289 493.3 442.132 494.498 442.693 495.397 443.536 498.101 446.063 501.697 448.59 503.495 449.433 504.994 449.994 504.994 446.625 504.095 442.132 502.896 437.352 501.397 432.298 498.101 422.464 495.697 416Z" fill="#FBDAE0" fill-rule="evenodd"/><path d="M456 403 456 403 456 403 456 403 456.996 406.995 456.996 406.995 456.996 406.995 456 403Z" fill="#FFCBCB" fill-rule="evenodd"/><path d="M455.533 403 442.669 404.09 426 405.18 426.883 409 456.994 407.632 455.533 403Z" fill="#FEA68C" fill-rule="evenodd"/><path d="M420.393 366.006 419.498 369.558 418.901 373.657 418.305 378.581 418.006 384.047 418.305 389.791 418.603 392.797 419.2 395.802 420.095 398.267 421.288 401 459.202 399.087 456.218 390.337 454.726 384.593 454.427 382.953 454.427 382.407 457.411 385.413 461.893 390.884 466.667 396.622 468.756 398.541 469.95 399.36 470.845 399.36 472.337 399.087 476.222 397.174 481.294 393.89 486.97 390.337 496.816 383.227 501 380.221 488.76 372.564 420.393 366.006Z" fill="#4D6D81" fill-rule="evenodd"/><path d="M493 375 493 375 494.99 376 494.99 376 493 375Z" fill="#FAF9F9" fill-rule="evenodd"/><path d="M493.796 375 418.605 375.466 418.006 378 492.598 377.078 494.994 375.696 493.796 375Z" fill="#95BFF4" fill-rule="evenodd"/><path d="M452.71 394 437.609 394.289 416.006 395.157 416.302 399.5 416.894 402.681 417.19 404.126 417.781 404.705 418.669 404.994 426.361 404.994 442.941 403.837 455.077 402.681 460.698 402.392 460.698 402.102 460.994 401.524 460.698 398.922 460.106 396.024 459.81 394.289 457.74 394.289 452.71 394Z" fill="#82B7F8" fill-rule="evenodd"/><path d="M454.485 394 430.805 394.578 416.006 395.157 416.302 399.5 416.894 402.681 417.19 404.126 417.781 404.705 418.669 404.994 420.444 404.994 430.213 404.705 442.941 403.837 460.402 402.392 460.698 402.392 460.698 402.102 460.994 401.524 460.402 397.476 459.81 394.289 458.331 394.289 454.485 394Z" fill="#95BFF4" fill-rule="evenodd"/><path d="M497.034 375 495.567 375.815 491.478 377.974 480.371 384.72 464.006 394.979 466.927 398.222 468.972 400.651 469.848 401.46 470.725 402 471.309 401.73 472.478 401.19 476.281 398.762 486.804 391.741 497.034 384.45 502 380.942 502 380.672 501.708 380.132 499.955 377.974 497.034 375Z" fill="#82B7F8" fill-rule="evenodd"/><path d="M497.034 375 494.399 376.085 492.062 377.704 474.529 388.503 464.006 394.979 466.927 398.222 468.972 400.651 469.848 401.46 470.725 402 471.601 401.73 472.77 400.921 476.573 398.762 486.804 391.471 497.034 384.45 502 380.942 501.416 379.593 499.663 377.704 497.034 375Z" fill="#95BFF4" fill-rule="evenodd"/><path d="M424.909 290.006 422.234 290.823 418.667 291.913 415.1 293.276 410.932 295.184 402.306 299.278 394.28 303.638 387.14 307.454 380.601 311.275 380.303 314.001 380.006 319.997 380.006 326.816 380.303 329.541 380.898 331.455 381.195 332 383.87 332 386.843 331.727 390.41 330.904 399.631 328.996 410.04 326.271 429.076 320.548 437.994 318.089 437.399 314.273 435.616 305.819 434.427 300.913 432.941 296.547 432.049 294.639 431.157 292.731 429.968 291.368 428.779 290.551 428.185 290.006Z" fill="#FDC59D" fill-rule="evenodd"/><path d="M387.574 307 385.006 308.635 387.574 319.815 390.428 331 395 329.904 387.574 307Z" fill="#FEA68C" fill-rule="evenodd"/><path d="M428 287 421.147 289.459 406.553 295.182 398.807 298.18 392.258 301.184 387.488 303.365 386.298 304.182 386 304.727 390.769 319.179 395.235 332 399.403 331.177 408.637 329.541 413.996 328.451 418.765 327.361 422.635 325.998 423.826 325.453 424.719 324.635 425.315 323.818 425.916 322.182 426.809 317.271 427.405 311.274 427.702 304.455 428 292.457 428 287Z" fill="#FF6B6B" fill-rule="evenodd"/><path d="M428 287 418.328 290.526 417.45 292.692 420.379 293.504 421.55 291.88 423.015 290.255 424.186 288.901 425.651 288.089 428 287ZM411.586 320.871 411 328.994 411 328.994 411.879 328.724 412.757 321.412 411.586 320.871Z" fill="#FB7F7F" fill-rule="evenodd"/><path d="M342.881 284 333.006 294.243 336.896 298.952 341.384 303.655 347.375 309.465 354.257 315.835 358.154 318.878 362.343 322.204 366.532 324.971 371.026 327.737 375.814 330.228 380.309 332.447 382.104 333 383.6 333 384.498 332.723 385.096 332.447 385.695 331.893 385.994 331.058 384.498 311.685 375.814 306.422 365.036 299.505 353.36 291.476 342.881 284Z" fill="#FDC59D" fill-rule="evenodd"/><path d="M320.683 265 320.378 265.273 320.378 266.641 321.293 268.004 322.207 269.639 323.427 271.547 326.171 274.545 328.305 276.725 328 276.725 324.951 274.817 320.073 272.092 317.628 271.002 315.189 270.184 313.665 269.911 313.36 270.184 313.055 270.729 313.055 271.274 313.055 272.092 314.275 273.727 315.799 275.362 317.628 277.276 321.598 280.274 323.122 281.636 320.988 280.819 316.713 278.911 314.275 278.093 312.14 277.548 310.616 277.548 310.311 277.821 310.006 278.093 310.006 278.638 310.311 279.183 311.531 280.274 313.055 281.364 314.884 282.454 318.543 284.362 320.988 285.452 318.848 285.179 315.189 284.907 313.36 284.907 311.836 285.179 310.616 285.452 310.311 285.724 310.311 286.269 310.616 286.815 311.226 287.36 313.97 288.455 317.323 289.546 320.988 290.636 321.293 291.998 322.207 293.361 323.122 294.451 324.342 295.541 326.171 296.632 328.305 297.449 330.439 297.994 332.579 297.994 334.409 297.449 336.543 296.904 338.372 295.814 339.896 294.451 343.555 290.908 344.781 289.273 345.39 287.632 346 286.269 346 284.362 346 282.726 345.39 281.091 344.781 279.728 343.555 278.093 342.64 275.362 341.116 271.547 339.896 269.911 338.982 268.821 337.762 268.004 336.543 268.004 335.933 268.549 335.323 269.094 335.018 269.911 335.018 270.729 335.018 272.637 335.323 274.545 333.494 274.545 330.134 271.547 325.866 268.004 324.037 266.641 322.207 265.545 320.988 265Z" fill="#FDC59D" fill-rule="evenodd"/><path d="M442.011 285 435.987 285.273 432.978 285.818 430.27 286.363 427.863 287.181 425.75 288.004 424.246 288.822 422.741 290.185 421.538 291.82 420.334 293.728 419.13 295.909 417.927 298.634 416.121 304.091 414.316 310.639 413.106 317.726 412.204 325.091 411.301 332.456 411 340.088 411 347.181 411.301 354.001 411.903 360.27 412.504 365.727 413.708 370.088 414.617 371.723 415.219 373.086 416.121 374.177 417.024 375 494.994 374.449 494.392 373.904 493.489 373.086 491.985 370.361 490.781 367.09 489.578 362.723 487.471 351.814 485.359 339.27 483.854 332.729 482.35 325.909 480.544 319.361 478.739 312.819 476.332 306.545 473.618 300.821 472.113 298.089 470.308 295.636 468.803 293.183 466.697 291.002 465.493 289.912 463.989 288.822 461.883 288.004 459.77 287.181 454.354 286.09 448.33 285.273 442.011 285Z" fill="#FDFDFD" fill-rule="evenodd"/><path d="M442.011 285 435.987 285.273 432.978 285.818 430.27 286.363 427.863 287.181 425.75 288.004 424.246 288.822 422.741 290.185 421.538 291.82 420.334 293.728 419.13 295.909 417.927 298.634 416.121 304.091 414.316 310.639 413.106 317.726 412.204 325.091 411.301 332.456 411 340.088 411 347.181 411.301 354.001 411.903 360.27 412.504 365.727 413.708 370.088 414.617 371.723 415.219 373.086 416.121 374.177 417.024 375 494.994 374.449 494.392 373.904 493.489 373.086 491.985 370.361 490.781 367.09 489.578 362.723 487.471 351.814 485.359 339.27 483.854 332.729 482.35 325.909 480.544 319.361 478.739 312.819 476.332 306.545 473.618 300.821 472.113 298.089 470.308 295.636 468.803 293.183 466.697 291.002 465.493 289.912 463.989 288.822 461.883 288.004 459.77 287.181 454.354 286.09 448.33 285.273 442.011 285Z" fill="#FDFDFD" fill-rule="evenodd"/><path d="M476.223 295 470 295.561 473.108 300.901 475.912 306.795 478.399 313.257 480.574 319.994 482.439 317.749 483.994 315.222 482.439 309.889 480.574 304.83 478.399 299.778 476.223 295Z" fill="#FFC216" fill-rule="evenodd"/><path d="M412.57 315 412 321.392 413.139 322 413.994 315.608 412.57 315Z" fill="#F79191" fill-rule="evenodd"/><path d="M441.33 285 436.204 285.261 435.301 287.085 435 288.915 435 290.479 435.602 292.043 436.506 293.346 438.017 294.649 439.523 295.431 441.33 296.213 443.437 296.734 445.545 296.995 447.954 296.995 450.068 296.473 451.875 295.952 453.681 294.91 454.886 293.867 456.09 292.564 456.693 291.261 456.994 289.697 456.994 287.872 456.09 286.303 451.574 285.521 446.449 285.261 441.33 285Z" fill="#FF6B6B" fill-rule="evenodd"/><path d="M436.204 285 435.301 286.998 435 289.002 435 289.287 435 290.429 435.301 291.571 435.903 292.713 436.506 293.854 438.319 295.567 440.727 296.994 444.04 296.994 451.875 296.709 453.983 295.567 455.488 293.854 456.693 291.856 456.994 291 456.994 289.858 456.994 289.573 456.994 288.146 456.392 286.713 451.574 286.998 450.67 286.998 450.67 291.571 440.727 290.429 441.029 285.856 436.506 285Z" fill="#FA8181" fill-rule="evenodd"/><path d="M441.612 281.006 441.006 289.92 451 291 451 291 450.697 281.546 441.612 281.006Z" fill="#FDC59D" fill-rule="evenodd"/><path d="M441.309 286 441.006 290.001 451 291 451 286.999 445.849 286.749 441.309 286Z" fill="#FEA68C" fill-rule="evenodd"/><path d="M382.043 206.006 380.294 206.548 378.539 206.819 375.624 208.174 372.71 210.072 370.087 212.518 368.338 215.5 367.457 217.126 366.874 218.753 366.291 220.651 366 222.283 366 225.807 366.583 229.06 367.755 232.314 369.504 235.03 370.669 236.115 371.835 237.199 373.293 238.283 374.75 239.097 376.207 239.91 377.956 240.452 379.711 240.994 384.957 240.994 386.415 240.723 388.163 240.181 391.376 238.826 394.29 236.928 396.622 234.488 398.662 231.5 399.537 229.874 400.12 228.247 400.702 226.62 400.994 224.723 400.994 221.193 400.411 217.94 399.245 214.958 397.205 212.247 396.331 210.885 395.165 209.801 393.707 208.717 392.25 207.903 390.495 207.09 389.038 206.548 387.289 206.277 385.54 206.006Z" fill="#FDC59D" fill-rule="evenodd"/><path d="M376.349 214.005 374.537 215.06 372.725 216.642 371.516 218.224 370.61 220.333 370.006 222.179 370.006 224.294 370.308 226.139 371.214 227.985 372.121 229.567 373.631 230.885 375.443 231.94 377.255 232.731 378.765 233 380.282 233 382.396 232.731 383 230.358 380.584 226.139 378.765 221.915 377.557 217.96 376.349 214.005Z" fill="#FEA68C" fill-rule="evenodd"/><path d="M435.36 181.006 430.596 181.553 425.824 182.647 421.357 184.014 416.884 185.929 412.715 188.123 408.843 190.585 404.966 193.32 401.392 196.602 398.414 200.163 395.436 203.719 393.047 207.548 390.962 211.657 389.176 216.033 387.091 222.877 385.9 227.253 385.006 231.635 385.006 235.738 385.304 240.114 385.9 244.223 387.091 248.326 388.58 252.428 390.367 255.99 392.749 259.819 395.436 263.101 398.712 266.116 401.987 269.124 405.567 271.586 409.737 273.774 413.906 275.695 418.677 277.336 438.041 282.806 442.812 283.9 447.875 284.447 452.944 284.994 458.006 284.721 463.069 284.447 467.84 283.353 472.903 282.259 477.376 280.618 481.545 278.43 485.417 276.242 488.997 273.227 491.677 270.219 493.166 268.304 494.06 266.663 495.251 264.748 495.846 262.554 496.442 260.64 497.038 258.452 497.335 255.99 497.335 253.528 499.718 246.685 500.915 242.303 501.809 237.926 502.702 233.55 503 229.168 503 224.792 502.702 220.41 502.107 216.307 500.915 212.204 499.42 208.369 497.335 204.813 494.655 201.531 491.379 198.517 487.799 196.055 483.63 193.867 478.567 191.952 473.201 190.585 449.364 182.647 444.897 181.553 440.125 181.006Z" fill="#FDC59D" fill-rule="evenodd"/><path d="M428.595 236.006 428.301 236.287 428.006 236.568 428.301 238.253 429.185 239.938 430.363 241.343 431.542 242.466 433.015 243.309 434.783 244.157 436.551 244.719 438.325 245 443.923 245 445.69 244.438 447.458 243.871 448.931 242.747 450.116 241.624 451 239.938 451 239.657 450.705 239.376 450.411 239.657 449.521 241.062 448.342 242.185 446.869 243.028 445.101 243.59 443.333 243.871 441.566 244.157 438.03 243.871 435.077 243.028 433.604 242.185 432.131 241.343 430.952 240.5 430.069 239.376 429.479 237.972 428.89 236.287 428.595 236.006Z" fill="#4D2A22" fill-rule="evenodd"/><path d="M450.204 239 450.204 239.272 449.299 239.272 449 239.544 449 239.817 449.299 239.817 449.599 240.089 449.599 239.817 449.904 239.817 450.204 240.089 450.503 240.089 450.802 240.361 451.102 240.361 451.102 240.633 451.102 240.905 451.401 241.178 451.401 241.45 451.102 241.722 451.102 241.994 451.701 241.994 452 240.905 452 240.089 451.102 239.272 450.802 239.272 450.503 239Z" fill="#4D2A22" fill-rule="evenodd"/><path d="M429.136 236.006 427.804 236.291 427.272 237.43 427.006 237.715 427.272 238 427.538 238 428.071 237.715 428.071 237.43 428.337 237.43 428.603 237.145 429.669 237.145 430.201 237.43 430.467 237.715 430.734 237.715 431 237.43 431 237.145 430.201 236.291 429.669 236.006Z" fill="#4D2A22" fill-rule="evenodd"/><path d="M497.791 233.006 496.037 233.283 494.579 233.559 492.831 233.836 489.624 235.496 486.71 237.434 484.372 239.924 482.332 242.692 481.457 244.358 480.874 246.295 480.291 247.956 480 249.893 480 253.214 480.583 256.541 481.749 259.862 483.498 262.629 484.663 264.013 485.835 265.12 487.293 265.956 488.75 267.063 490.207 267.616 491.956 268.17 493.705 268.723 495.454 269 497.209 269 498.957 268.723 500.706 268.447 502.163 267.893 505.37 266.509 508.284 264.566 510.622 262.076 512.662 259.308 513.537 257.648 514.12 255.71 514.702 254.044 514.994 252.107 514.994 248.786 514.411 245.188 513.245 242.138 511.496 239.371 510.331 237.987 509.165 236.88 507.701 235.773 506.244 234.943 504.787 234.389 503.038 233.836 501.289 233.283 499.54 233.006Z" fill="#FDC59D" fill-rule="evenodd"/><path d="M501.103 240 499.304 240.273 497.5 240.545 496.001 241.09 494.502 242.18 493.303 243.27 492.104 244.638 491.205 246.001 490.306 247.636 490.006 249.816 490.006 251.723 490.306 253.631 490.905 255.544 492.104 257.179 493.603 258.542 495.102 259.632 497.2 260.449 498.698 260.722 499.904 260.994 501.702 260.722 503.5 260.449 504.999 259.632 506.498 258.814 507.697 257.724 508.896 256.362 509.795 254.999 510.694 253.358 510.994 251.178 510.994 248.998 510.694 247.091 510.095 245.456 508.896 243.821 507.397 242.18 505.898 241.09 503.8 240.545 502.302 240Z" fill="#FEA68C" fill-rule="evenodd"/><path d="M472.072 248.006 470.059 248.278 468.046 248.551 466.32 249.368 464.882 250.457 463.732 251.547 462.581 252.909 462.294 254.271 462.006 255.639 462.294 257.274 462.869 258.636 463.732 259.725 465.17 260.815 466.608 261.632 468.333 262.449 470.059 262.722 472.072 262.994 472.647 262.994 474.954 262.449 477.255 261.905 479.268 260.815 480.994 259.453 479.844 257.274 479.556 254.816 479.268 252.364 479.268 249.913 477.83 249.095 476.392 248.551 474.379 248.006Z" fill="#FEA68C" fill-rule="evenodd"/><path d="M480 250 480 252.313 480.25 254.626 480.499 256.944 481.497 259 481.997 258.229 482.496 257.201 482.995 255.916 482.995 254.888 482.745 253.341 482.246 252.056 481.248 251.028 480 250Z" fill="#FEA68C" fill-rule="evenodd"/><path d="M421.399 199 419.9 199.29 418.401 199.58 416.602 200.16 415.403 200.746 413.898 201.615 412.698 202.775 411.799 203.935 410.899 205.385 410 206.834 410 207.414 410.6 207.704 411.199 207.994 411.799 207.414 412.399 206.254 413.298 205.385 415.103 203.645 417.502 202.195 420.2 201.615 422.599 201.326 423.798 201.615 425.297 201.905 426.503 202.775 427.402 203.935 428.302 205.095 429.201 206.254 429.501 206.834 430.4 206.834 431 206.254 431 205.674 431 205.385 430.101 203.935 428.901 202.485 427.702 201.326 426.197 200.45 424.698 199.87 423.198 199.29 421.399 199Z" fill="#FFC216" fill-rule="evenodd"/><path d="M467.046 205.006 465.608 205.295 464.17 205.873 462.732 206.741 461.288 207.608 461.288 208.187 461 208.476 461.288 209.054 462.156 209.343 462.444 209.343 462.732 209.054 463.882 208.187 465.032 207.608 466.183 207.319 467.333 207.03 468.771 207.03 469.922 207.319 472.223 208.187 474.242 209.343 476.255 211.078 477.693 213.108 477.981 214.265 478.268 215.422 478.844 216 479.419 216 479.994 215.422 479.994 214.843 479.706 213.398 479.131 211.952 478.556 210.789 477.693 209.633 476.83 208.476 475.68 207.319 473.085 205.873 471.647 205.295 469.922 205.295 468.484 205.006Z" fill="#FFC216" fill-rule="evenodd"/><path d="M401.394 233.006 399.916 233.291 398.439 233.577 397.257 234.433 396.37 235.004 395.188 235.861 394.597 237.003 394.302 238.145 394.006 239.858 394.006 241.286 394.597 242.999 395.779 244.432 396.961 245.574 398.439 246.716 400.212 247.572 402.281 248.429 404.06 248.714 405.833 249 407.31 248.714 408.788 248.429 410.266 248.143 411.448 247.287 412.63 246.716 413.516 245.859 414.107 244.717 414.704 243.57 415 241.857 414.704 240.429 414.107 239.001 413.221 237.288 411.743 236.146 410.266 235.004 408.493 234.148 406.424 233.291 404.651 233.006Z" fill="#FEA68C" fill-rule="evenodd"/><path d="M466.503 218 464.124 218.534 462.042 219.069 459.954 220.137 458.467 221.473 456.98 223.082 455.791 224.952 455.196 227.089 454.304 232.699 454.006 234.842 454.304 236.98 455.196 238.85 456.385 240.72 457.872 242.323 459.657 243.391 461.739 244.466 464.124 245 466.503 245 468.882 244.733 470.964 244.199 473.046 243.124 474.539 241.788 476.026 240.186 477.216 238.315 477.81 236.178 478.703 230.562 479 228.425 478.703 226.288 477.81 224.417 476.621 222.547 475.134 220.939 473.343 219.87 471.261 218.801 468.882 218.267 466.503 218Z" fill="#FDFDFD" fill-rule="evenodd"/><path d="M461.971 219 460.491 219.276 458.723 220.654 456.954 222.314 455.775 224.519 455.185 226.724 454.301 232.513 454.006 233.897 454.006 235.276 454.301 236.654 454.89 238.032 455.185 239.411 456.07 240.513 457.838 242.443 459.312 242.994 461.67 242.994 463.74 242.443 465.509 241.616 467.277 240.513 468.751 238.859 470.225 236.93 471.11 235 471.699 232.513 471.994 230.032 471.699 227.827 471.11 225.622 470.225 223.692 469.046 222.038 467.572 220.654 465.509 219.551 463.74 219Z" fill="#210A06" fill-rule="evenodd"/><path d="M437.789 228.005 437.526 228.268 437 230.369 437 231.419 437 232.207 437 232.732 437.263 232.995 437.789 232.732 437.789 232.207 437.789 231.682 438.051 230.631 438.166 229.745 438.583 230.369 439.371 231.682 439.634 231.944 439.897 231.944 440.423 231.682 442 229.318 442 229.056 441.737 228.793 441.211 228.531 440.949 228.793 439.848 230.44 439.848 230.44 439.371 229.844 438.846 229.056 438.32 228.268 438.051 228.268 437.789 228.005Z" fill="#4D2A22" fill-rule="evenodd"/><path d="M421.235 209 419.178 209.277 416.827 209.831 414.77 210.662 413.001 212.053 411.532 213.716 410.357 215.655 409.769 217.595 408.3 223.418 408.006 225.635 408.3 227.851 408.888 230.068 410.063 231.73 411.532 233.398 413.001 234.784 415.064 235.892 417.415 236.723 419.765 237 422.116 236.723 424.173 236.169 426.236 235.061 427.999 233.952 429.468 232.284 430.643 230.345 431.525 228.128 432.7 222.31 432.994 220.088 432.7 217.872 432.112 215.932 431.231 213.993 429.762 212.33 427.999 210.939 425.942 209.831 423.879 209.277 421.235 209Z" fill="#FDFDFD" fill-rule="evenodd"/><path d="M426.033 212.006 423.997 212.285 421.967 212.842 420.227 214.237 418.486 215.631 417.036 217.304 416.166 219.535 415.296 221.766 415.006 224.282 415.006 226.792 415.586 229.023 416.456 230.975 417.616 232.648 419.066 234.048 420.807 235.163 422.547 236 424.287 236 426.613 234.885 427.773 234.048 428.934 232.927 429.804 231.811 430.384 230.696 430.964 229.301 431.544 227.907 432.704 222.051 432.994 219.814 432.704 217.304 431.834 215.073 430.674 213.121 429.514 212.564 428.063 212.006Z" fill="#210A06" fill-rule="evenodd"/><path d="M445.281 147.506 438.132 148.058 431.288 148.886 428.014 149.714 424.437 150.542 417.592 153.027 411.039 155.787 404.79 159.382 399.129 163.246 396.451 165.455 393.773 167.663 391.386 170.153 389.005 172.638 386.922 175.398 385.136 178.159 383.351 180.925 381.565 183.685 380.375 186.722 379.178 189.758 377.988 193.077 377.393 196.113 376.798 199.426 376.5 202.744 376.5 206.333 376.5 209.645 377.095 213.24 377.69 216.828 378.881 220.141 380.077 224.011 381.565 227.6 383.648 231.188 383.946 229.808 384.839 226.22 386.624 220.969 387.815 217.932 389.303 214.62 391.386 211.025 393.475 207.437 395.856 204.124 398.832 200.53 402.105 197.217 405.682 194.181 409.551 191.42 414.015 188.93 413.122 191.144 411.932 193.353 410.444 198.045 409.254 203.02 428.312 207.437 428.907 201.916 429.502 198.874 430.097 195.837 431.288 192.801 432.776 190.04 434.561 187.55 435.454 186.446 436.644 185.894 436.049 188.102 434.264 193.905 433.668 197.493 433.073 201.364 432.776 204.952 432.776 208.265 458.976 214.344 458.083 213.24 457.488 212.135 457.19 210.749 457.19 209.369 457.488 206.057 458.083 202.468 459.869 195.009 460.762 191.696 460.762 188.378 461.952 193.905 463.744 198.874 465.232 203.848 467.017 208.265 469.695 214.896 470.886 217.38 502.747 235.059 505.127 235.887 508.103 237.543 510.788 239.752 512.276 240.856 513.466 242.512 514.359 243.892 515.252 245.83 515.847 247.763 515.847 249.971 515.847 252.18 515.549 254.664 514.359 257.43 513.168 260.467 511.68 262.399 510.49 264.331 508.698 265.712 507.21 266.822 505.425 267.926 503.639 268.478 500.366 269.306 497.384 269.582 495.003 269.582 492.622 269.03 491.134 271.238 489.349 273.723 486.968 276.483 483.986 279.249 482.2 280.354 480.415 281.734 478.332 282.562 476.249 283.39 474.339 284.051 474.339 284.051 475.058 283.942 479.224 283.39 484.581 282.286 490.539 280.63 497.086 278.421 500.663 276.759 504.234 275.103 507.508 273.447 511.085 271.238 514.359 269.03 517.632 266.54 520.608 263.503 523.59 260.467 526.269 257.154 528.649 253.284 530.732 249.419 532.518 245.002 534.012 240.304 534.905 235.335 535.5 229.808 535.5 224.287 535.202 217.932 534.012 211.301 532.518 204.4 530.137 196.941 528.947 193.353 527.459 190.04 525.673 186.722 523.59 183.409 521.501 180.373 519.12 177.33 516.74 174.57 514.061 172.086 511.383 169.601 508.698 167.111 505.722 164.903 502.449 162.694 495.896 159.106 489.051 155.787 481.903 153.027 474.761 150.818 467.315 149.162 459.869 148.058 452.429 147.506ZM474.339 284.051 471.481 284.494 471.481 284.494 473.862 284.218 474.339 284.051Z" stroke="#FFE9AB" stroke-linejoin="round" stroke-miterlimit="10" fill="#FFC216" fill-rule="evenodd"/><path d="M500.912 199 500.277 199.277 499.642 199.555 499.007 200.665 499.007 202.335 499.007 204 499.642 205.942 500.595 207.329 501.547 208.439 502.5 208.717 503.135 208.994 503.453 208.994 504.088 208.717 504.723 208.439 505.358 207.884 505.676 207.329 505.993 205.942 505.676 204.555 505.041 202.89 504.088 201.225 502.818 200.11 501.547 199.277 500.912 199Z" fill="#FFF0C7" fill-rule="evenodd"/><path d="M9.86372 0.00572331 0.00621924 10.1703 2.09588 12.6485 8.66962 19.2418 13.1475 23.3683 18.8194 28.0385 25.0946 32.7144 32.2654 37.6594 40.027 42.6043 44.2126 44.8078 48.3919 47.0055 52.8698 48.9286 57.3538 50.8516 62.1302 52.7746 66.9066 54.1482 71.6892 55.5275 76.7641 56.6264 82.1437 57.4506 87.2186 57.7253 92.5983 58 97.9717 58 103.351 57.4506 109.023 56.6264 110.516 56.077 112.009 55.2528 113.203 54.1482 114.098 53.0493 114.701 51.6757 115 50.0274 114.701 48.6538 114.397 47.0055 111.113 39.8571 109.919 37.6594 108.426 35.7363 106.635 34.088 104.844 32.7144 102.45 31.6098 100.36 30.7857 97.6732 30.2362 95.285 30.2362 88.7113 30.511 81.5467 30.511 77.3611 30.2362 73.1818 29.6868 68.704 28.8626 63.6228 27.7638 58.5479 26.3902 52.8698 24.4671 46.8993 21.9947 40.3256 18.967 33.4595 15.3957 25.9902 11.0002 18.2224 5.77482 9.86372 0.00572331Z" fill="#FDC59D" fill-rule="evenodd" transform="matrix(-1 0 0 1 605 261)"/><path d="M424 294 424 294 424 294 428.86 295.122 433.107 295.87 437.05 296.618 441 296.992 441 296.992 441 296.992 441 296.992 437.05 296.618 433.107 295.87 428.86 295.122 424 294Z" fill="#FECACA" fill-rule="evenodd"/><path d="M521.287 318.07 518.3 293.884 510.471 293.29 506.516 293.431 502.272 293.644 500.358 303.192 502.543 320.498 504.565 319.992 508.393 319.317 512.282 318.909 516.459 318.43 521.287 318.07Z" fill="#FEA68C" fill-rule="evenodd"/><path d="M513.876 320.543 511.125 287.915 504.487 287.672 497.879 287.702 489.8 287.924 481.491 288.73 477.652 289.23 473.843 290.004 470.666 290.972 467.82 292.174 465.304 293.61 464.519 294.543 464.035 295.438 462.772 297.27 462.43 299.254 462.124 301.51 462.408 303.69 462.987 305.831 463.862 307.939 465.032 310.003 466.202 312.067 467.933 313.78 469.363 315.533 471.347 316.937 473.002 318.112 474.951 319.244 476.829 319.83 478.967 320.105 480.745 319.874 484.914 319.607 490.005 319.498 500.854 319.746 509.931 320.226 513.876 320.543Z" fill="#FF6B6B" fill-rule="evenodd"/><path d="M10.5931 0.00567791 10.2992 0.278217 10.0052 0.550757 10.0052 1.64092 10.887 3.00361 11.7687 4.63885 12.9444 6.54663 15.8835 9.82278 17.647 11.7306 14.4139 9.82278 9.71134 7.36425 7.36004 6.00155 5.29654 5.45647 3.53307 5.18393 3.23915 5.45647 2.94524 5.72901 2.94524 6.27409 2.94524 7.09171 4.12089 8.73262 5.59045 10.6404 7.65395 12.2756 11.1809 15.5461 12.6505 16.6363 12.6505 16.6363 10.887 15.8187 6.47218 14.1834 4.12089 13.3658 2.06351 12.8207 0.300035 12.8207 0.00612316 13.3658 0.00612316 13.6383 0.300035 14.1834 1.47568 15.2736 2.94524 16.3637 4.70871 17.4539 8.53569 19.3673 10.5931 20.4575 10.5931 20.4575 8.53569 20.185 3.23915 20.185 1.76959 20.4575 0.887859 20.73 0.593947 21.0026 0.300035 21.2751 0.593947 21.8202 1.47568 22.3653 3.82698 23.728 7.36004 24.8181 10.5931 25.6358 11.1809 26.9985 12.0626 28.3611 12.9444 29.4513 14.12 30.5471 15.8835 31.6373 17.647 32.4549 19.7105 33 21.7678 33 23.8252 32.4549 25.8826 31.9098 27.6461 30.8197 29.1156 29.4513 32.3548 25.6358 33.5304 24.2731 34.4122 22.6378 34.7061 21.0026 35 19.3673 34.7061 17.7264 34.4122 16.0912 33.5304 14.456 32.6487 13.0933 31.767 9.82278 30.5913 5.18393 29.7035 3.00361 28.8217 1.36838 27.94 0.278217 27.3522 0.00567791 27.0583 0.278217 26.1765 0.823297 25.5887 1.64092 25.2948 2.73107 25.2948 4.09377 25.2948 7.09171 25.5887 9.55024 22.6496 9.55024 19.4165 6.54663 15.2957 3.00361 13.5322 1.64092 11.7687 0.550757 10.5931 0.00567791Z" fill="#FDC59D" fill-rule="evenodd" transform="matrix(-1 0 0 1 624 240)"/><path d="M510.458 189 509.642 189.527 508.825 190.054 508.009 192.163 508.009 195.337 508.009 198.5 508.825 202.19 510.05 204.826 511.275 206.935 512.5 207.462 513.317 207.989 513.725 207.989 514.542 207.462 515.358 206.935 516.175 205.88 516.583 204.826 516.992 202.19 516.583 199.554 515.767 196.391 514.542 193.228 512.908 191.109 511.275 189.527 510.458 189Z" fill="#FFF0C7" fill-rule="evenodd"/><path d="M413.776 162.132 413.071 161.609 412.366 161.085 410.428 161.082 407.951 162.125 405.483 163.164 402.897 165.073 401.28 166.983 400.075 168.721 400.103 169.939 399.985 170.808 400.132 171.157 400.837 171.68 401.541 172.203 402.657 172.553 403.626 172.555 405.83 172.037 407.74 170.823 409.914 169.088 411.943 167.004 413.01 164.914 413.658 163.002 413.776 162.132Z" fill="#FFF0C7" fill-rule="evenodd"/></g></svg>