<svg width="266" height="304" xmlns="http://www.w3.org/2000/svg" xmlns:xlink="http://www.w3.org/1999/xlink" overflow="hidden"><defs><clipPath id="clip0"><rect x="243" y="131" width="266" height="304"/></clipPath></defs><g clip-path="url(#clip0)" transform="translate(-243 -131)"><path d="M252.633 293 252.039 293.526 252.039 293.794 252.039 294.583 252.633 295.372 253.525 296.161 254.714 296.95 257.389 298.265 259.767 299.054 258.876 300.106 258.281 301.157 254.119 302.209 249.06 303.524 246.979 304.318 245.195 305.107 244.303 305.896 244.006 306.159 244.303 306.422 245.195 306.948 251.147 306.948 255.308 306.422 257.984 305.896 254.714 307.474 250.249 309.578 247.871 310.893 246.384 312.207 245.493 313.259 245.493 313.785 245.79 314.048 246.087 314.311 246.979 314.58 249.06 314.58 251.444 314.048 253.822 313.522 258.281 312.207 260.065 311.682 258.578 312.733 254.714 315.106 252.93 316.42 251.444 317.735 250.849 318.787 250.849 319.313 251.147 319.576 252.039 319.576 253.525 319.313 255.308 318.787 257.092 317.998 260.659 316.157 262.449 314.843 262.449 314.843 261.254 316.42 259.47 318.787 258.876 320.102 258.281 321.417 257.984 322.206 258.281 322.732 258.578 322.995 259.173 322.995 260.065 322.732 262.146 321.417 264.827 319.313 267.205 317.209 268.692 317.472 270.178 317.472 271.664 317.209 273.151 316.946 275.238 316.157 276.724 315.106 277.913 313.785 279.102 312.207 279.697 310.63 279.994 308.789 279.697 307.211 279.102 305.37 277.616 301.157 276.724 299.843 275.535 298.528 274.346 297.476 272.853 296.424 271.367 295.898 269.583 295.635 268.097 295.372 266.313 295.635 262.746 294.583 258.281 293.263 255.903 293Z" fill="#FDC59D" fill-rule="evenodd"/><path d="M373 276.006 360.954 277.593 348.305 279.444 332.64 281.825 324.212 283.412 315.778 285.269 307.042 287.12 298.614 289.501 290.481 291.617 282.949 294.267 276.026 296.912 270 299.822 273.913 311.994 365.168 300.351 373 276.006Z" fill="#FDC59D" fill-rule="evenodd"/><path d="M324.54 283 319 284.087 321.46 306 327 305.189 324.54 283Z" fill="#FEA68C" fill-rule="evenodd"/><path d="M371 273.006 365.504 273.271 352.688 273.802 345.057 274.598 337.127 275.395 330.106 276.722 326.751 277.518 324.006 278.58 327.056 307 360.014 304.876 371 273.006Z" fill="#D3F1F3" fill-rule="evenodd"/><path d="M483.698 313 482.199 313.527 480.4 314.054 478.901 314.85 477.696 315.903 476.497 316.957 473.499 320.645 472.6 322.489 472 324.07 472 325.919 472 327.5 472.6 329.081 473.499 330.661 474.998 331.978 476.497 333.296 478.002 333.822 479.501 334.349 481 334.613 482.499 334.876 484.298 337.253 486.096 339.624 488.195 341.468 488.795 341.995 489.394 341.995 489.7 341.731 490 341.468 490 340.677 490 339.36 489.394 337.78 488.195 335.14 487.595 333.559 487.595 333.296 489.094 334.876 492.099 337.516 493.598 338.57 495.096 339.624 496.595 340.15 497.495 340.15 497.795 339.887 498.094 339.624 497.495 338.306 496.595 336.989 495.096 335.14 492.099 332.242 490.6 330.661 492.398 331.715 496.595 333.822 498.694 334.876 501.092 335.935 502.897 336.199 503.797 336.199 504.396 335.935 504.696 335.672 504.696 335.14 504.096 334.086 502.897 332.505 501.092 330.925 497.195 327.5 494.497 325.656 494.497 325.656 496.895 326.446 500.793 328.027 504.996 328.817 506.495 329.081 507.694 328.817 507.994 328.554 507.994 328.29 507.094 327.5 505.595 326.183 503.497 325.129 498.994 322.753 495.096 320.909 494.797 319.855 494.497 318.538 497.195 318.274 499.893 317.484 501.092 316.957 502.298 316.43 503.197 315.64 503.497 315.113 503.497 314.586 502.897 314.317 501.698 313.79 499.893 313.263 497.495 313.263 492.398 313.527 489.094 313.79 487.296 313.263 485.497 313Z" fill="#FDC59D" fill-rule="evenodd"/><path d="M394.676 275.005 392.262 275.269 390.156 275.533 387.748 276.06 385.943 276.85 383.836 277.904 382.025 279.222 380.52 280.539 379.316 282.12 378.113 283.971 377.21 285.815 376.307 287.66 376.006 289.768 376.006 291.876 478.066 328 484.994 316.927 481.684 314.55 478.066 311.914 473.854 309.016 469.039 306.381 458.802 300.841 447.662 295.571 435.92 290.295 423.877 285.288 412.436 280.539 401.597 276.323 399.189 275.796 396.782 275.269 394.676 275.005Z" fill="#FDC59D" fill-rule="evenodd"/><path d="M438.813 292 432.006 312.353 439.109 314.995 447.994 296.232 438.813 292Z" fill="#FEA68C" fill-rule="evenodd"/><path d="M402 273 406.803 304.306 430.8 315 435.597 300.911 439.195 290.739 440.994 284.742 440.694 284.221 440.394 283.96 438.595 283.173 436.497 282.391 433.798 282.13 428.396 281.609 425.997 281.348 423.599 280.044 420.301 278.741 412.2 276.134 402 273Z" fill="#D3F1F3" fill-rule="evenodd"/><path d="M376.994 349.006 341.639 349.536 325.762 369.696 311.082 354.308 307.782 355.368 300.895 357.76 297.295 359.351 294.001 360.941 291.605 362.267 291.006 363.062 291.006 363.593 291.006 364.123 291.306 364.388 291.905 364.653 292.504 364.918 294.3 364.653 296.097 364.123 299.697 363.062 301.493 362.267 304.189 366.509 307.483 370.756 311.382 375.528 315.874 380.306 318.269 382.427 320.665 384.548 323.067 386.139 325.163 387.199 327.259 388 329.355 388 331.751 387.729 334.147 387.199 336.548 386.404 338.645 385.608 343.436 383.487 347.635 380.836 351.827 377.655 355.72 374.468 359.32 371.021 362.913 367.575 365.908 363.858 368.902 360.676 373.4 354.573 376.095 350.596 376.994 349.006Z" fill="#FDC59D" fill-rule="evenodd"/><path d="M328 367.005 326.007 369 328 367.005 328 367.005Z" fill="#FFCBCB" fill-rule="evenodd"/><path d="M327.835 367.005 326.006 369.351 339.727 384.995 343.994 382.91 340.032 379.521 335.46 375.346 327.835 367.005Z" fill="#FEA68C" fill-rule="evenodd"/><path d="M315.064 350.005 313.25 350.511 309.314 351.775 303.872 354.05 298.122 356.326 292.076 359.112 287.239 361.64 285.418 362.904 283.907 363.916 283 364.927 283 365.685 283.302 366.191 283.907 366.702 285.721 367.713 287.843 368.219 290.262 368.472 295.099 368.725 296.913 368.725 298.122 369.483 300.849 370.494 302.36 370.747 303.872 371 305.081 371 305.383 370.747 305.686 370.494 306.895 368.977 307.5 367.208 307.802 366.444 307.802 365.685 307.5 364.927 306.895 364.421 305.988 363.916 304.779 363.663 302.663 363.41 300.849 363.663 299.942 363.663 309.616 360.376 316.273 357.848 318.389 356.837 318.994 356.326 318.994 356.073 318.389 354.809 317.482 352.786 316.273 350.764 315.668 350.258 315.064 350.005Z" fill="#FDFDFD" fill-rule="evenodd"/><path d="M315.064 350.005 313.25 350.511 309.314 351.775 304.174 353.798 298.43 356.326 292.68 358.859 287.843 361.388 285.721 362.652 284.209 363.663 283.302 364.674 283 365.433 283 365.685 283.302 366.191 283.605 366.702 285.116 367.461 286.936 367.966 289.052 368.472 293.285 368.725 296.913 368.725 299.64 369.989 302.058 370.747 304.174 371 305.081 371 305.686 370.494 307.197 368.472 307.5 367.208 307.802 366.191 307.5 365.18 306.895 364.421 305.988 363.916 305.081 363.663 302.965 363.41 300.849 363.663 299.942 363.663 309.616 360.376 315.971 357.848 318.389 356.837 318.994 356.579 318.994 356.073 318.389 354.809 317.482 352.786 316.273 350.764 315.668 350.258 315.064 350.005Z" fill="#F8F8F8" fill-rule="evenodd"/><path d="M316.883 351.005 309.942 353.86 300.294 357.759 295.162 360.094 290.639 362.43 286.72 364.766 284 366.848 285.508 367.626 287.624 368.145 291.845 368.664 296.971 368.664 298.177 369.443 300.897 370.481 302.405 370.74 303.912 371 305.118 371 305.42 370.74 305.721 370.481 306.927 368.924 307.53 367.107 307.832 366.323 307.832 365.544 307.53 364.766 306.927 364.247 306.023 363.728 304.817 363.468 302.706 363.209 300.897 363.468 299.992 363.468 309.641 360.094 316.28 357.499 318.391 356.461 318.994 355.936 318.994 355.677 318.391 353.86 316.883 351.005Z" fill="#78BDA1" fill-rule="evenodd"/><path d="M404.451 344 369 351.324 387.789 388.725 401.12 415.136 408.091 428.472 408.697 428.995 410.817 428.995 412.331 428.472 415.662 427.165 419.606 425.074 423.24 422.983 426.268 420.63 428.388 418.534 428.691 417.749 428.994 416.965 428.691 416.181 428.085 415.92 427.782 415.658 427.177 415.658 425.662 415.92 424.451 416.704 421.726 418.534 420.514 419.585 419 415.397 417.479 410.692 414.754 399.447 412.028 386.889 409.606 374.337 405.662 352.893 404.451 344Z" fill="#FDC59D" fill-rule="evenodd"/><path d="M412.01 386 412.01 386 412.99 390 412.99 390 412.99 390 412.01 386 412.01 386Z" fill="#FFCBCB" fill-rule="evenodd"/><path d="M410.819 384 387.006 387.439 389.944 393 411.994 390.355 411.406 386.645 410.819 384Z" fill="#FEA68C" fill-rule="evenodd"/><path d="M415.953 410.005 415.654 410.263 415.355 410.521 414.159 412.069 412.665 413.616 412.067 414.39 411.768 415.163 411.768 415.679 412.366 416.453 414.458 417.484 416.85 418.258 419.247 419.295 409.974 423.163 403.69 426 401.598 427.289 401 427.547 401 427.805 401.598 429.353 402.794 431.421 403.989 433.226 404.886 433.742 405.484 434 407.284 433.484 410.871 431.679 415.953 429.353 421.639 426.774 427.319 423.679 432.108 420.842 433.901 419.553 435.097 418.258 435.994 417.226 435.994 416.453 435.695 415.937 435.097 415.421 433.303 414.647 430.912 414.132 428.514 413.874 421.938 413.874 421.041 413.1 419.247 411.553 418.052 410.779 416.85 410.263 415.953 410.005Z" fill="#FDFDFD" fill-rule="evenodd"/><path d="M416.252 410.005 415.654 410.263 415.355 410.521 414.458 411.811 413.262 412.842 412.067 414.132 411.768 414.647 411.768 415.421 412.067 415.937 412.366 416.453 414.458 417.484 416.85 418.258 419.247 419.295 409.974 423.163 403.69 426 401.598 427.032 401 427.547 401 427.805 401.598 429.353 402.794 431.421 403.989 433.226 404.886 433.742 405.484 434 406.985 433.484 410.871 431.937 415.654 429.616 421.34 427.032 426.721 423.937 431.51 421.1 433.303 419.811 434.798 418.774 435.695 417.742 435.994 416.711 435.994 416.453 435.396 415.679 434.499 415.163 433.303 414.647 431.809 414.39 428.514 413.874 421.938 413.874 419.845 412.069 418.052 410.779 417.149 410.263 416.252 410.005Z" fill="#F8F8F8" fill-rule="evenodd"/><path d="M416.042 410.005 415.741 410.27 415.441 410.534 414.238 412.119 412.734 413.704 412.133 414.497 411.832 415.289 411.832 415.817 412.434 416.61 414.539 417.667 416.944 418.459 419.356 419.521 410.028 423.484 403.706 426.39 401.601 427.711 401 427.975 401 428.239 401.902 430.358 403.406 433 410.028 429.824 419.657 425.333 424.469 422.692 428.679 420.05 432.594 417.667 435 415.289 433.496 414.761 431.391 414.232 427.175 413.968 422.063 413.968 421.161 413.176 419.356 411.591 418.154 410.798 416.944 410.27 416.042 410.005Z" fill="#78BDA1" fill-rule="evenodd"/><path d="M340.403 348.005 332.55 355.513 327.119 360.954 325.61 362.767 325.006 363.543 328.024 367.432 335.273 375.198 339.195 379.086 342.817 382.452 344.627 383.746 346.142 384.782 347.349 385.299 348.255 385.299 350.065 384.005 353.385 381.416 361.237 374.162 371.503 364.061 372.408 368.208 374.521 377.533 375.728 382.452 376.935 386.594 378.444 389.706 379.047 390.741 379.651 391 384.787 391 388.106 390.482 386.296 387.112 410.751 383.746 411.657 387.894 412.562 387.629 414.674 386.853 416.787 385.558 417.698 384.782 418 384.005 417.39 381.934 416.485 378.051 412.864 367.432 407.734 352.406 340.403 348.005Z" fill="#FFDA73" fill-rule="evenodd"/><path d="M338.398 350.005 336.006 352.106 409 354.995 409 354.995 407.804 351.581 338.398 350.005Z" fill="#D8C276" fill-rule="evenodd"/><path d="M386.438 270 380.358 270.264 374.589 270.793 369.724 272.115 367.295 272.649 365.473 273.442 363.955 274.5 362.74 275.293 360.918 277.407 359.4 279.522 356.357 284.286 353.928 289.573 351.499 295.13 349.677 300.946 348.159 307.032 345.42 318.933 343.294 330.042 341.168 339.564 340.257 343.53 339.043 346.707 337.828 348.822 336.917 349.88 336.006 350.408 408.313 351.995 409.224 351.466 410.135 350.408 411.046 349.087 411.654 347.5 412.868 343.53 413.779 338.507 414.386 332.685 414.69 326.605 414.994 319.991 414.69 313.112 414.386 306.239 413.475 299.624 412.261 293.274 411.046 287.194 409.224 282.166 408.313 279.787 407.099 277.672 405.878 276.086 404.663 274.5 403.449 273.442 401.93 272.379 399.805 271.586 397.679 271.057 394.946 270.529 392.207 270.264 386.438 270Z" fill="#62C447" fill-rule="evenodd"/><path d="M391.6 270 392.682 270.143 392.682 270.143 391.904 270ZM392.682 270.143 396.161 270.793 396.161 271.057 395.857 272.913 394.946 274.764 393.725 276.35 392.207 277.672 390.082 278.994 387.652 279.787 385.223 280.315 382.49 280.58 379.751 280.315 377.322 280.051 375.196 279.258 373.374 278.201 371.553 276.879 370.338 275.557 369.421 273.971 368.813 272.379 371.553 271.586 374.589 270.793 374.589 270.793 370.642 271.586 367.295 272.649 364.562 273.971 363.651 274.764 362.74 275.293 360.918 277.407 359.4 279.522 356.357 284.286 353.928 289.573 351.499 295.13 349.677 300.946 348.159 307.032 345.42 318.933 343.294 330.042 341.168 339.564 340.257 343.53 339.043 346.707 337.828 348.822 336.917 349.88 336.006 350.408 408.313 351.995 409.224 351.466 409.832 350.673 411.35 348.294 412.261 345.116 413.172 341.415 414.083 336.921 414.386 331.892 414.69 326.341 414.994 320.784 414.69 312.848 414.083 305.181 413.172 297.51 411.654 290.366 410.135 284.286 408.921 281.373 407.706 278.994 406.491 276.614 404.967 274.764 403.752 273.442 401.93 272.379 398.894 271.322 395.554 270.529 392.682 270.143Z" fill="#78BDA1" fill-rule="evenodd"/><path d="M381.897 270 378.6 270.275 375.002 270.824 372.004 271.648 369 272.472 369.6 274.126 370.505 275.775 371.704 277.148 373.503 278.522 375.302 279.621 377.4 280.445 379.799 280.72 382.503 280.994 385.201 280.72 387.6 280.17 389.998 279.346 392.096 277.972 393.595 276.599 394.801 274.951 395.7 273.028 396 271.099 396 270.824 392.696 270.275 389.099 270Z" fill="#D3F1F3" fill-rule="evenodd"/><path d="M387.375 267.005 378.625 267.505 378 276 378 276 388 274.751 387.375 267.005Z" fill="#FDC59D" fill-rule="evenodd"/><path d="M387.688 270 383.003 270.521 378.312 270.782 378 276 378 276 388 274.697 387.688 270Z" fill="#FEA68C" fill-rule="evenodd"/><path d="M441.245 202.005 439.441 202.265 437.937 202.525 436.133 202.785 434.629 203.305 433.126 204.085 431.622 204.865 429.21 206.945 427.406 209.285 425.902 212.15 425 215.01 425 218.13 425.601 221.255 426.504 224.375 428.308 227.235 430.72 229.575 433.426 231.4 436.133 232.96 439.441 233.74 441.245 234 444.559 234 446.364 233.74 447.867 233.22 449.371 232.7 450.874 231.92 452.378 231.14 454.79 229.055 456.594 226.715 458.098 224.115 459 220.995 459 217.87 458.699 214.75 457.496 211.63 455.692 208.765 453.581 206.425 450.874 204.605 447.867 203.305 444.559 202.265 443.056 202.005Z" fill="#FDC59D" fill-rule="evenodd"/><path d="M446.335 208 445.717 212.224 444.789 216.179 443.553 220.134 442.006 224.094 442.316 226.731 443.553 226.995 445.099 226.995 447.263 226.731 449.118 226.204 450.974 225.413 452.211 224.094 453.447 222.776 454.382 220.93 455 219.343 455 217.497 454.691 215.388 454.072 214.07 453.447 212.751 452.52 211.697 451.592 210.642 450.355 209.582 449.118 209.055 447.882 208.527 446.335 208Z" fill="#FEA68C" fill-rule="evenodd"/><path d="M391.918 174 387.074 174.265 382.532 174.794 359.508 180.886 354.052 181.68 349.207 183.003 344.968 184.855 341.329 186.978 337.998 189.624 335.273 192.535 332.851 195.711 331.028 198.892 329.817 202.597 328.908 206.302 328.303 210.277 328 214.246 328 218.486 328.303 222.455 328.908 226.69 330.119 230.665 331.633 237.016 331.633 239.138 331.633 241.255 331.936 243.373 332.239 245.49 332.851 247.342 333.759 248.935 335.879 252.376 338.301 255.551 341.631 258.198 344.968 260.585 348.904 262.702 353.143 264.554 357.691 265.877 362.536 266.936 367.078 267.73 371.928 267.994 377.076 267.994 381.624 267.73 386.468 266.936 405.556 262.966 410.098 261.908 414.336 260.585 418.279 258.727 421.912 256.61 425.546 253.963 428.58 251.317 431.608 248.401 434.03 245.225 436.149 242.049 437.966 238.345 439.177 234.899 440.085 230.929 440.697 227.219 441 223.249 440.697 219.28 439.783 215.305 437.966 208.689 436.755 204.714 434.938 201.009 432.819 197.304 430.396 193.594 427.665 190.418 424.334 187.243 421.004 184.326 417.371 181.945 413.428 179.563 409.492 177.71 405.253 176.123 400.705 175.059 396.466 174.265 391.918 174Z" fill="#FDC59D" fill-rule="evenodd"/><path d="M397.121 227 396.828 227.25 396.535 228.499 395.655 229.748 394.776 230.497 393.598 231.252 392.132 232.001 390.667 232.501 387.736 233.001 384.512 233.001 382.753 232.751 381.282 232.251 379.816 231.752 378.644 231.002 377.472 229.998 376.885 228.749 376.299 228.749 376.006 228.999 376.885 230.497 378.058 231.752 379.23 232.501 380.696 233.251 382.46 233.75 384.219 234 387.736 234 389.494 233.75 391.253 233.251 392.718 232.751 394.19 232.001 395.655 231.252 396.828 229.998 397.414 228.749 398 227.25 397.707 227Z" fill="#4D2A22" fill-rule="evenodd"/><path d="M375.902 228 375.305 228.898 375.006 229.796 375.305 230.694 375.305 230.994 375.604 230.994 375.902 230.395 375.902 230.096 375.902 229.796 375.902 229.497 376.201 229.497 376.201 229.198 376.5 229.198 376.5 228.898 377.994 228.898 377.994 228.599 377.695 228.299 377.396 228Z" fill="#4D2A22" fill-rule="evenodd"/><path d="M396.434 227 395.007 227.427 395.007 227.57 395.364 227.712 396.077 227.712 396.79 227.427 397.86 227.427 398.217 227.57 398.574 227.57 398.574 227.712 398.574 227.855 398.93 227.855 399.287 227.997 399.643 227.997 400 227.855 400 227.57 398.93 227.142 397.86 227Z" fill="#4D2A22" fill-rule="evenodd"/><path d="M330.248 220 328.444 220.26 326.941 220.52 325.137 220.785 323.634 221.565 322.124 222.085 320.621 222.865 318.216 224.945 316.412 227.285 314.908 230.145 314.006 233.01 314.006 236.13 314.307 239.51 315.51 242.375 317.314 245.235 319.719 247.575 322.124 249.395 325.137 250.955 328.444 251.74 329.948 252 333.556 252 335.065 251.74 336.869 251.215 338.372 250.695 339.876 249.915 341.379 249.135 343.784 247.315 345.588 244.715 347.098 242.115 348 238.99 348 235.87 347.699 232.75 346.497 229.625 344.686 227.025 342.281 224.685 339.876 222.605 336.869 221.305 333.556 220.26 332.052 220.26 330.248 220Z" fill="#FDC59D" fill-rule="evenodd"/><path d="M329.851 227 327.763 227.264 325.674 227.791 324.183 228.582 322.691 229.901 321.492 231.225 320.597 232.808 320.298 234.654 320 236.5 320.298 238.61 320.895 240.192 321.79 241.511 322.989 242.835 324.183 243.89 325.674 244.945 327.166 245.473 328.658 246 330.447 246 332.536 245.736 334.332 245.209 336.122 244.418 337.613 243.099 338.807 241.78 339.403 240.192 340 238.346 340 236.5 339.702 234.39 339.105 232.808 338.508 231.489 337.315 230.165 336.122 229.11 334.63 228.055 333.132 227.527 331.342 227Z" fill="#FEA68C" fill-rule="evenodd"/><path d="M352.635 235.005 350.827 235.255 349.622 235.754 348.115 236.254 348.115 238.501 347.814 240.499 347.211 242.501 346 244.499 347.513 245.747 349.32 246.746 351.429 247.495 353.84 247.745 355.346 247.995 357.154 247.745 358.968 247.495 360.474 246.996 361.981 246.247 363.186 245.498 364.09 244.499 364.692 243.5 364.994 242.252 364.994 240.998 364.391 239.749 363.487 238.501 362.583 237.502 361.077 236.503 359.571 235.754 357.455 235.255 355.647 235.005Z" fill="#FEA68C" fill-rule="evenodd"/><path d="M348 236.006 346.669 236.823 345.331 237.912 344.333 239.274 344 240.636 344 241.731 344.333 242.821 344.998 243.91 345.664 245 347.002 242.821 347.667 240.636 348 238.457 348 236.006Z" fill="#FEA68C" fill-rule="evenodd"/><path d="M406.18 193.006 404.667 193.586 403.153 193.876 401.639 194.746 400.126 195.905 399.217 197.065 398.309 198.515 398.006 198.805 398.006 199.095 398.612 199.674 399.217 199.97 399.823 199.674 399.823 199.385 400.731 198.225 401.639 197.065 402.85 196.195 404.061 195.615 405.272 195.326 406.18 195.326 408.609 195.615 411.031 196.195 413.15 197.645 414.966 199.385 415.874 200.26 416.177 201.42 416.783 202 417.388 202 417.994 201.71 417.994 200.84 417.388 199.385 416.783 198.225 415.874 197.065 414.664 195.905 413.453 195.036 412.242 194.166 410.728 193.586 409.214 193.006Z" fill="#FDDC9A" fill-rule="evenodd"/><path d="M358.91 197 357.717 197.242 355.048 198.453 352.675 199.91 351.786 200.879 351.193 201.847 350.599 202.816 350.006 204.026 350.303 204.753 350.896 204.995 351.489 204.995 351.786 204.511 352.082 203.542 352.675 202.816 354.158 201.363 356.234 200.153 358.317 199.179 360.393 198.695 361.579 198.453 362.766 198.453 364.248 198.695 365.435 199.179 366.325 199.91 367.214 200.395 367.807 200.637 368.104 200.879 368.697 200.395 368.994 199.91 368.994 199.663 368.697 199.421 367.511 198.453 366.325 197.726 364.842 197.242 363.359 197Z" fill="#FDDC9A" fill-rule="evenodd"/><path d="M422.047 225.005 419.363 225.269 417.567 225.797 415.778 226.589 413.988 227.38 412.796 228.435 411.901 229.755 411.304 231.079 411.006 232.399 411.006 233.718 411.304 234.773 411.901 235.828 412.796 236.62 413.988 237.411 415.181 238.203 416.673 238.467 418.17 238.731 419.959 238.995 422.345 238.731 424.433 238.203 426.222 237.411 427.713 236.62 428.906 235.565 430.105 234.245 430.702 232.926 431 231.607 431 230.282 430.404 229.227 429.801 228.172 428.906 227.116 427.713 226.589 426.52 225.797 425.029 225.533 423.538 225.269 422.047 225.005Z" fill="#FEA68C" fill-rule="evenodd"/><path d="M361.16 208 358.772 208.263 356.677 209.052 354.886 210.104 353.394 211.424 352.2 213.002 351.305 214.843 351.006 216.684 351.006 218.788 351.305 224.053 351.902 226.157 352.797 227.998 353.991 229.576 355.483 230.891 357.274 231.948 359.369 232.737 361.458 233 363.846 233 365.935 232.737 368.025 231.948 369.815 230.891 371.314 229.576 372.806 227.998 373.403 226.157 374 224.316 374 222.212 373.403 216.947 373.105 214.843 372.209 213.265 371.015 211.687 369.218 210.104 367.428 209.052 365.637 208.263 363.249 208Z" fill="#FDFDFD" fill-rule="evenodd"/><path d="M365.803 210 363.68 210.512 361.86 211.285 360.343 212.308 359.13 213.588 357.91 215.379 357.303 217.171 357 219.218 357 221.27 357.303 223.574 358.22 225.365 359.13 227.156 360.646 228.436 362.467 229.715 364.287 230.483 366.107 231 368.23 231 369.747 230.739 371.573 229.203 373.09 227.156 373.697 225.877 374 224.853 374 223.574 374 222.294 373.393 217.171 372.787 215.123 371.877 213.332 370.36 211.541 368.837 210.256 367.32 210Z" fill="#210A06" fill-rule="evenodd"/><path d="M389.936 218 389.584 218.294 389.232 218.588 388.88 218.881 388.176 219.469 387.34 220.515 387.34 220.515 386.064 218.588 385.711 218.294 385.007 218.294 385.007 218.588 385.007 219.175 386.768 221.825 387.12 222.119 387.824 221.825 388.88 220.056 389.584 219.469 389.584 220.65 389.584 221.531 389.584 222.119 389.936 222.706 390.289 223 390.993 222.706 390.993 222.119 390.993 221.531 390.993 220.65 390.993 219.469 390.641 218.294 390.289 218Z" fill="#4D2A22" fill-rule="evenodd"/><path d="M404.434 203.005 402.077 203.531 400.31 204.32 398.542 205.372 397.069 206.949 395.89 208.527 395.301 210.367 395.006 212.213 395.006 214.317 395.89 219.575 396.479 221.421 397.363 223.262 398.542 224.839 400.31 226.154 402.077 226.943 404.14 227.732 406.202 227.995 408.566 227.995 410.628 227.469 412.69 226.68 414.458 225.365 415.931 224.051 417.11 222.473 417.699 220.627 418 218.524 418 216.683 417.11 211.425 416.521 209.316 415.637 207.738 414.164 206.161 412.69 204.846 410.923 203.794 408.86 203.268 406.798 203.005Z" fill="#FDFDFD" fill-rule="evenodd"/><path d="M400.371 205 398.881 205.268 397.688 205.804 396.198 207.413 395.304 209.557 395.006 211.708 395.006 213.853 395.9 219.214 396.198 220.555 396.496 221.633 397.39 222.705 397.986 223.777 400.073 225.654 402.457 226.994 403.947 226.994 405.735 226.458 407.53 225.386 409.02 224.314 410.212 222.705 411.106 221.096 411.702 218.946 412 216.801 412 214.657 411.404 212.512 410.51 210.367 409.318 208.753 407.828 207.145 406.033 206.072 404.245 205.268 402.159 205Z" fill="#210A06" fill-rule="evenodd"/><path d="M415.788 139.005 414.894 139.264 414.298 139.523 414 140.3 414 141.077 414.298 142.113 415.49 144.444 417.576 146.774 419.967 149.11 422.649 151.182 424.139 151.959 425.331 152.477 426.821 152.736 428.014 152.995 429.504 152.736 430.404 152.218 431 151.7 431 150.923 430.702 149.887 430.106 148.851 429.206 147.551 427.119 145.22 424.139 142.89 421.159 140.818 418.179 139.523 416.98 139.005Z" fill="#FEF3DD" fill-rule="evenodd"/><path d="M300.716 195 299.573 195.266 298.717 195.533 296.712 196.865 295.284 198.73 293.857 200.6 293.286 202.465 293 203.531 293 204.33 293.286 205.13 293.857 205.929 294.428 206.462 295.57 206.728 296.427 206.994 297.283 206.728 298.14 206.462 299.002 205.929 299.859 205.13 301.287 203.265 302.429 200.867 303 198.73 303 196.865 302.714 196.066 302.429 195.533 301.858 195Z" fill="#FEF3DD" fill-rule="evenodd"/><path d="M310.329 200.505 310.329 200.505 310.038 200.505 310.038 200.505 308.582 201.021 307.127 201.794 305.962 203.083 305.088 204.371 304.506 205.66 304.506 206.948 304.797 207.464 305.088 207.979 305.671 208.237 306.253 208.495 306.253 208.495 306.835 208.495 306.835 208.495 307.418 208.495 308.291 208.237 309.456 207.464 310.329 205.917 311.209 204.629 311.209 204.629 311.5 203.083 311.5 201.794 311.209 200.763 310.627 200.505 310.329 200.505" stroke="#FDD077" stroke-linejoin="round" stroke-miterlimit="10" fill="none" fill-rule="evenodd"/><path d="M398.223 132.5 394.459 133.014 391.278 133.786 388.098 134.815 385.496 135.843 382.888 136.872 375.949 140.221 373.341 140.992 372.184 141.249 371.317 141.249 368.425 140.478 364.089 139.706 358.878 138.935 353.096 138.163 347.307 137.906 339.206 137.906 337.182 138.42 335.158 138.935 333.423 139.706 332.267 140.735 330.821 141.764 328.508 144.85 326.478 148.198 324.744 151.799 323.298 155.142 322.141 157.976 321.274 160.548 319.539 160.805 315.196 162.091 312.883 163.12 310.281 164.149 308.547 165.434 307.679 166.206 307.101 166.977 306.523 167.749 306.234 169.04 305.944 171.869 305.655 175.212 305.944 178.561 306.234 184.476 306.812 187.048 304.204 189.111 301.891 191.425 299.289 194.511 296.686 197.854 295.53 199.66 294.663 201.46 294.084 203.26 293.506 204.803 293.506 206.604 293.795 208.404 294.663 210.467 295.53 212.267 296.976 214.324 298.132 216.125 301.312 219.473 304.204 222.559 305.077 225.645 305.944 228.731 307.101 231.823 308.547 234.652 309.992 237.224 311.727 239.801 313.751 242.115 315.486 244.173 317.805 246.23 319.828 248.03 324.454 251.636 329.086 254.465 334.002 257.037 338.628 259.094 343.26 260.642 347.307 261.928 351.072 262.957 356.565 264.243 358.589 264.5 358.589 264.5 355.987 263.471 353.674 262.185 349.62 259.608 346.44 257.294 344.127 254.722 342.392 252.665 341.236 251.122 340.368 249.573 338.338 249.836 336.025 249.836 333.134 249.316 330.243 248.545 328.508 247.773 327.057 247.001 325.611 245.973 324.454 244.687 323.009 242.887 322.141 241.086 320.985 238.252 320.407 235.938 320.118 233.623 320.118 231.566 320.407 229.765 320.985 227.96 321.852 226.674 323.009 225.131 324.165 224.102 325.611 222.816 328.219 221.273 331.11 219.987 333.423 219.216 343.26 228.474 344.127 226.674 344.705 224.874 344.705 223.074 344.705 221.531 344.127 219.987 343.549 218.182 341.814 214.067 344.705 211.495 347.307 208.661 350.783 204.803 354.252 200.432 357.433 195.797 358.589 193.225 359.746 190.654 360.613 188.076 361.191 185.505 364.378 183.962 367.847 184.219 371.895 184.733 375.949 185.505 377.973 186.019 379.996 186.791 379.129 186.019 377.394 183.962 376.816 182.933 376.527 182.161 376.527 181.647 376.816 181.39 377.105 181.39 377.683 181.133 379.418 181.647 381.153 182.161 382.888 183.19 384.622 184.476 387.52 186.533 388.676 187.305 389.544 186.533 392.146 184.476 394.17 183.447 396.483 182.161 399.38 181.133 402.849 180.361 406.03 180.618 408.927 181.39 411.818 181.904 414.42 182.933 417.022 183.962 419.335 185.248 421.654 186.533 423.678 188.076 427.437 191.425 430.617 195.026 433.515 198.631 435.828 202.489 437.851 206.347 439.297 209.952 440.454 213.296 441.321 216.382 442.477 220.759 442.773 222.559 444.507 217.925 445.664 213.296 446.531 208.661 447.109 204.032 449.712 201.975 452.025 199.66 452.892 198.369 453.759 196.826 454.054 195.54 454.054 193.997 453.47 191.682 452.603 189.368 450.579 185.505 448.844 182.419 448.555 181.133 448.266 180.104 449.133 178.561 450.29 176.498 451.735 173.927 453.47 170.84 454.633 167.492 455.211 165.949 455.5 164.406 455.5 162.863 455.5 161.32 454.922 159.777 454.344 158.491 453.181 157.457 452.025 156.428 450.579 155.656 449.133 154.885 445.953 153.856 442.773 153.085 439.875 152.57 437.273 152.056 436.117 151.542 435.249 151.027 434.671 150.513 434.382 149.999 433.804 148.198 432.069 145.878 430.039 143.564 427.148 140.992 423.678 138.42 419.92 136.1 417.89 135.072 415.577 134.3 413.264 133.786 411.24 133.272 406.319 132.5Z" stroke="#FDD077" stroke-linejoin="round" stroke-miterlimit="10" fill="#FDDC9A" fill-rule="evenodd"/></g></svg>