<svg width="266" height="304" xmlns="http://www.w3.org/2000/svg" xmlns:xlink="http://www.w3.org/1999/xlink" overflow="hidden"><defs><clipPath id="clip0"><rect x="317" y="132" width="266" height="304"/></clipPath></defs><g clip-path="url(#clip0)" transform="translate(-317 -132)"><path d="M122.994 0 58.277 9.86713 0.00583353 37.3924 0.845862 38.1709 3.36595 39.9876 5.32601 41.0257 7.57192 42.3232 10.372 43.3613 13.7321 44.3994 17.3781 45.4375 21.8582 46.2214 26.6184 47 37.8246 47 44.5507 46.481 51.5567 45.4375 59.397 43.6208 66.9631 41.5447 74.2492 38.69 80.9694 35.8299 87.4155 32.4561 93.0156 28.8228 98.3417 25.1842 103.102 21.5509 107.308 17.9176 110.948 14.279 114.028 11.1647 119.074 5.45531 121.874 1.55711 122.994 0Z" fill="#FF6B6B" fill-rule="evenodd" transform="matrix(-1 0 0 1 483 359)"/><path d="M1 0 1 0 0.0204082 0.994819 0.0204082 0.994819 0.0204082 0.994819 0.0204082 0.994819 1 0Z" fill="#F66666" fill-rule="evenodd" transform="matrix(-1 0 0 1 386 383)"/><path d="M0.00583391 0 1.96603 0.749025 2.24605 0.749025 1.40597 0.249675 0.00583391 0ZM50.9942 0.749025 46.2337 1.74772 42.4242 2.60078 42.4242 2.60078 46.2337 1.9974 50.9942 0.749025ZM42.4242 2.60078 41.4674 2.74642 40.9073 2.85046 40.9073 2.85046 41.7474 2.74642 42.4242 2.60078ZM40.9073 2.85046 37.547 3.25098 33.3466 3.75033 33.0666 4 37.267 3.50065 40.9073 2.85046Z" fill="#F6F5F5" fill-rule="evenodd" transform="matrix(-1 0 0 1 474 402)"/><path d="M0.00586125 17.3678 0.849882 17.8859 1.13122 17.6268 0.00586125 17.3678ZM67 0.00539707 64.1866 2.07787 61.086 3.89129 57.9913 5.18658 54.8965 6.22282 52.6458 6.74094 50.3892 7 45.8878 7.25906 40.8236 7 39.1297 10.8913 37.1604 14.2591 34.9096 17.8859 32.0962 21 36.3163 20.4819 40.5364 19.9584 45.0437 18.9221 49.8265 17.8859 53.7711 16.8497 57.7099 15.2953 59.6793 13.7409 61.3673 11.9275 63.3426 9.07247 65.0306 6.22282 66.156 3.37317 67 0.00539707Z" fill="#F66666" fill-rule="evenodd" transform="matrix(-1 0 0 1 473 385)"/><path d="M20.6832 0 0 17.3329 5.66929 21.0073 10.4832 24.4247 14.7366 28.099 18.4178 31.2485 21.5327 34.6659 24.0812 37.8153 25.7861 40.9648 27.4851 43.8518 28.3346 46.7442 28.901 49.6312 29.1842 52.2558 28.901 54.6233 28.3346 57.2479 27.4851 59.61 26.6356 61.7096 25.2198 63.8092 23.798 65.9143 22.099 67.7515 18.701 71.1634 14.7366 74.0504 11.0495 76.6804 7.65147 78.5176 5.10295 79.8299 2.55442 80.8797 4.53661 89.5462 6.23563 95.5826 7.08514 97.9502 7.36831 98.4751 7.65147 99 8.21781 99 8.50098 98.7375 9.35049 97.6877 9.91683 95.8451 10.7663 94.0079 11.6158 90.0711 12.1822 88.2339 19.5505 84.5541 25.7861 80.8797 31.4495 77.2053 36.2693 73.5255 40.2337 69.5887 43.6317 65.9143 46.1802 61.9721 48.1683 58.2977 49.5842 54.6233 50.7168 50.9435 51 47.2691 51 43.5893 50.7168 39.9149 49.8673 36.503 48.7346 33.0857 47.3129 29.9362 45.6139 26.5243 43.9149 23.6373 41.9327 20.7448 39.6673 17.8578 35.4139 12.8712 30.8832 8.40401 26.9188 4.9921 23.798 2.36756 20.6832 0Z" fill="#FDC59D" fill-rule="evenodd" transform="matrix(-1 0 0 1 435 330)"/><path d="M5.90826 0.00544747 3.65973 0.266926 1.40534 0.528405 0.562134 0.789883 0 1.05136 0 2.35875 0.281067 5.4965 0.843201 9.94708 1.40534 14.6537 2.25439 19.6272 3.37866 23.8109 4.22186 25.3798 4.78399 26.6872 5.34613 27.7331 6.18933 27.9946 7.03253 27.9946 7.59466 27.7331 9 26.6872 10.1243 25.3798 11.2485 23.8109 12.9349 20.6732 13.5029 19.1043 14.3461 18.5759 16.3136 17.007 17.1568 16.2226 17.7189 15.1767 18 14.3922 17.7189 13.6078 16.5947 12.5619 15.1893 11.516 14.3461 10.993 13.5029 10.7315 12.6539 10.7315 11.8107 10.993 11.2485 11.516 10.6864 12.3004 9.8432 13.8693 9.28107 15.6996 8.71893 7.84981 8.1568 2.62023 7.87573 0.789883 7.59466 0.266926 7.59466 0.00544747Z" fill="#FDFDFD" fill-rule="evenodd" transform="matrix(-1 0 0 1 434 407)"/><path d="M6.18933 0.00544747 2.53546 0.266926 0.843201 0.528405 0.281067 0.789883 0 1.05136 0 1.8358 0.562134 7.58833 1.6864 16.484 2.53546 20.6732 3.65973 24.3339 4.22186 25.9027 4.78399 26.9486 5.6272 27.7331 6.18933 27.9946 7.03253 27.9946 7.87573 27.7331 9 26.6872 10.4053 25.1183 11.2485 23.5494 12.9349 20.6732 13.5029 19.1043 15.7515 17.53 17.4379 15.6996 18 14.9152 18 14.3922 17.7189 13.6078 16.8757 12.8233 15.7515 11.7774 14.3461 10.993 13.2219 10.7315 11.8107 10.993 11.2485 11.516 10.4053 12.5619 9.8432 14.1307 9.28107 15.6996 9 9.42412 8.43787 4.45058 7.87573 0.789883 7.59466 0.266926 7.59466 0.00544747Z" fill="#F8F8F8" fill-rule="evenodd" transform="matrix(-1 0 0 1 434 407)"/><path d="M3.14647 0.00549882 0.00594795 0.269442 0.576952 5.81225 1.71896 14 2.57546 17.9592 3.43197 21.9238 4.28848 25.3551 5.71598 27.9945 6.85799 26.9387 7.7145 25.883 9.71301 22.9796 11.1465 20.3401 11.432 19.2844 12.2885 18.751 14.287 17.1673 15.1435 16.3755 15.7145 15.3197 16 14.5279 15.7145 13.7361 14.5725 12.6803 13.145 11.6245 12.2885 11.0966 11.432 10.8327 10.5695 10.8327 9.71301 11.0966 9.14201 11.6245 8.571 12.4163 7.7145 14 7.14349 15.8476 6.57249 7.9238 6.00149 2.64493 5.71598 0.797329 5.43048 0.269442 5.43048 0.00549882Z" fill="#210A06" fill-rule="evenodd" transform="matrix(-1 0 0 1 432 407)"/><path d="M0.00594354 0.00554785 1.1471 4.53259 2.00297 6.39667 2.85884 7.99445 3.42942 7.19556 4.28529 6.66297 5.71174 4.79889 7.13819 2.66852 7.99406 0.804438 4.28529 0.00554785Z" fill="#FDFDFD" fill-rule="evenodd" transform="matrix(-1 0 0 1 429 427)"/><path d="M6 0.00542986 6 0.00542986 6 0.00542986 6 0.00542986 5.10094 3.39367 3.90218 6.26063 2.10406 9.1276 0 12 0 12 0 12 0 12 2.10406 9.1276 3.90218 6.26063 5.10094 3.39367 6 0.00542986Z" fill="#F96868" fill-rule="evenodd" transform="matrix(-1 0 0 1 412 385)"/><path d="M25.7157 0.00544747 24.8591 0.266926 24.2821 0.528405 22.5689 1.57432 20.2847 3.40467 18.0004 5.50195 12.2838 10.7315 9.14298 13.3463 5.71659 15.9665 4.86 19.3658 3.71787 22.242 2.00467 25.1183 0 28 6.85872 25.9027 13.7174 23.2879 17.1438 21.9805 20.2847 20.4117 23.4255 18.5813 26.2868 16.751 27.1434 14.1307 27.4289 12.3004 28 8.11673 28 5.76342 27.7145 3.92763 27.7145 3.66615 27.7145 3.40467 27.4289 1.57432 26.5723 0.528405 26.5723 0.266926 26.0013 0.266926 25.7157 0.00544747Z" fill="#FEA68C" fill-rule="evenodd" transform="matrix(-1 0 0 1 412 369)"/><path d="M54.9615 0.00542029 56.0712 6.24959 56.9035 11.9788 57.4642 17.1823 57.4642 21.8709 57.181 26.0336 56.6261 29.9362 55.7938 33.3239 54.6841 36.1858 53.2969 38.7876 51.9097 41.1346 49.9676 43.216 48.0256 44.777 46.0777 46.0779 43.8582 47.3787 41.6387 48.1593 39.1418 48.6796 36.6448 49.1999 34.1421 49.4601 29.4257 49.4601 24.7093 48.9398 20.5419 48.4194 16.9352 47.3787 14.1609 46.5982 11.6581 45.8177 5.55453 53.6283 1.66462 59.3521 0.277437 61.4335 0 62.2195 0 62.7398 0.277437 63 0.554875 63 1.94206 62.7398 3.61247 61.9593 5.55453 60.9132 9.43865 58.8318 11.1033 58.0513 18.8773 60.1327 25.819 61.6991 32.4775 62.4796 38.5869 63 44.4131 63 49.4127 62.2195 54.1292 61.4335 58.2965 60.1327 62.1806 58.3114 65.5099 56.2301 68.5675 53.8885 71.3419 51.2868 73.5613 48.6796 75.5034 45.5575 77.168 42.4354 78.8327 39.3079 79.9482 35.9257 81.0579 32.5434 81.6128 29.1557 82.1677 26.0336 83 19.5239 83 13.5399 83 8.59116 82.7226 4.68855 82.1677 1.04612 54.9615 0.00542029Z" fill="#FDC59D" fill-rule="evenodd" transform="matrix(-1 0 0 1 512 354)"/><path d="M6.68987 0.00533618 6.24684 1.6809 6.24684 1.6809 6.99367 0.00533618ZM6.24684 1.6809 6.08228 2.05443 5.56329 3.07898 5.56329 3.07898 6.08228 2.31057 6.24684 1.6809ZM5.56329 3.07898 4.86709 4.10352 4.47468 4.87193 5.17089 3.84739 5.56329 3.07898ZM4.47468 4.87193 3.9557 5.64034 2.74051 7.17716 2.13291 7.95091 2.13291 7.95091 2.74051 7.43863 3.9557 5.89648 4.47468 4.87193ZM2.13291 7.95091 1.22152 8.71932 0.00632911 10 0.00632911 10 1.52532 8.71932 2.13291 7.95091Z" fill="#F96868" fill-rule="evenodd" transform="matrix(-1 0 0 1 463 388)"/><path d="M9.22812 0.0054099 8.38973 2.08281 7.55134 3.90054 6.43349 5.71827 5.31563 7.27632 4.19778 8.83978 2.80046 10.1382 0.00582216 12.2156 8.11027 12.7349 17.8973 12.9946 23.2129 12.9946 28.8022 12.7349 31.0379 8.58011 33 4.16022 28.2433 3.64087 23.4924 2.86184 14.8232 1.04411 14.5438 1.04411 13.9848 0.784436 9.50759 0.0054099Z" fill="#FEA68C" fill-rule="evenodd" transform="matrix(-1 0 0 1 465 388)"/><path d="M14.2798 0.00539707 13.1607 1.30069 11.2023 4.15035 8.68443 8.2953 5.60117 13.2228 3.08326 17.8859 1.1249 22.2953 0.285595 24.1087 0.00582848 25.6631 0.00582848 26.9584 0.285595 27.7355 0.845129 27.9946 3.36303 27.9946 5.3214 27.2174 7.27977 26.4402 10.9226 24.6268 12.3214 23.5906 13.4405 23.5906 15.9584 23.0725 17.3572 22.8134 18.4763 22.2953 19.3214 21.7772 19.8809 21 19.6012 19.1866 19.3214 17.3678 18.756 16.5906 18.1965 16.0725 17.637 15.5544 16.7977 15.2953 15.9584 15.5544 14.8393 15.8134 13.1607 16.5906 11.4821 18.1449 16.5179 10.8913 19.8809 5.7047 20.7202 3.89129 21 3.37317 21 3.11411 19.6012 2.33693 17.637 1.04163 15.6786 0.264456 14.8393 0.00539707Z" fill="#FDFDFD" fill-rule="evenodd" transform="matrix(-1 0 0 1 518 397)"/><path d="M14.2798 0.00539707 13.4405 1.04163 11.4821 3.63223 6.72023 11.4094 4.20233 15.8134 1.9642 20.2228 0.565362 23.8497 0.00582848 25.404 0.00582848 26.4402 0.00582848 27.2174 0.285595 27.7355 1.1249 27.9946 3.36303 27.9946 5.04163 27.4765 8.68443 25.9221 11.2023 24.3678 12.3214 23.5906 13.4405 23.5906 15.9584 23.0725 17.3572 22.8134 18.4763 22.2953 19.3214 21.7772 19.8809 21 19.6012 19.1866 19.3214 17.3678 18.756 16.5906 18.1965 16.0725 17.637 15.5544 16.7977 15.2953 16.5179 15.2953 15.6786 15.5544 14.8393 15.8134 13.1607 16.8497 11.4821 18.1449 16.2381 11.4094 19.3214 6.22282 20.4405 4.40941 21 3.37317 21 3.11411 19.8809 2.33693 17.9167 1.30069 16.2381 0.264456 14.5595 0.00539707Z" fill="#F8F8F8" fill-rule="evenodd" transform="matrix(-1 0 0 1 518 397)"/><path d="M14.5277 0.00549882 11.1778 5.28437 6.4322 13.2082 4.19314 17.4313 2.23906 21.6599 0.564126 25.0911 0.00581573 27.9945 1.40159 27.9945 3.07652 27.4666 6.4322 25.883 9.22375 24.2993 10.3404 23.5075 11.457 23.5075 13.9694 22.9796 15.3652 22.7156 16.4818 22.1877 17.3251 21.6599 17.8834 20.868 17.6042 19.0204 17.3251 17.1673 16.7609 16.3755 16.2026 15.8476 15.6443 15.3197 14.8069 15.0558 13.9694 15.3197 12.8528 15.5837 11.1778 16.3755 9.50291 17.9592 14.5277 10.5687 17.8834 5.28437 18.7208 3.43676 19 2.90888 19 2.64493 17.0459 1.32522 14.5277 0.00549882Z" fill="#210A06" fill-rule="evenodd" transform="matrix(-1 0 0 1 516 397)"/><path d="M3.09558 0.00520156 0.848505 4.49935 0.286736 6.49675 0.00585176 7.9948 0.848505 7.9948 1.97204 7.74512 4.5 6.9961 7.03381 5.74772 9 4.74902 7.87646 3.50065 6.47204 2.25228 4.78088 1.0039 3.09558 0.00520156Z" fill="#FDFDFD" fill-rule="evenodd" transform="matrix(-1 0 0 1 516 417)"/><path d="M91.5326 0.00546397 27.7983 23.883 19.9411 32.2811 16.5679 33.3302 13.4811 34.3793 9.83316 36.2152 6.17934 38.3133 4.49566 39.3624 2.81198 40.6792 1.68953 41.9906 0.847686 43.5642 0.00584611 45.1378 0.00584611 46.7114 0.28646 48.2851 0.567073 49.5964 1.40891 50.9132 2.25075 51.9623 3.37321 53.0114 4.49566 54.0605 7.02118 55.6341 9.55255 56.6832 11.7975 57.47 13.7617 57.9945 15.726 57.2077 17.6903 56.4209 20.2217 54.8473 22.7472 52.7491 25.2727 50.121 26.3952 48.5473 27.5177 46.7114 28.3595 44.8756 29.2013 42.7774 37.345 44.351 42.1212 45.4001 47.1723 46.1869 52.2233 46.9737 57.2802 47.236 62.3312 46.9737 64.8626 46.7114 67.1075 46.1869 69.9137 45.4001 72.7198 44.0887 75.2512 42.5151 78.0573 40.6792 83.1083 36.7397 87.604 32.5434 91.8132 28.8661 95.1806 25.9812 96.5836 24.9321 97.7119 24.1453 98.8344 23.883 99.6762 24.1453 99.9568 24.9321 100.518 25.7189 100.799 27.817 101.079 30.4452 100.799 33.3302 100.237 38.0511 99.9568 40.1547 105.008 35.9529 110.065 31.4943 115.677 26.2434 121.295 20.4735 123.821 17.8453 126.066 15.2226 128.03 12.5999 129.152 10.5017 129.714 8.66585 129.994 7.6113 129.714 7.08676 129.433 6.29995 128.872 5.77541 127.188 4.72633 125.224 3.67725 122.698 2.89044 119.606 2.3659 116.519 1.84136 109.504 0.792275 102.763 0.267734 97.1448 0.00546397Z" fill="#FF6B6B" fill-rule="evenodd" transform="matrix(-1 0 0 1 485 345)"/><path d="M1 1 1 1 1 1 1 1 1 1 1 1ZM0.00689655 0.0204082 0.00689655 0.0204082 0.668966 1 0.668966 1 0.00689655 0.0204082 0.00689655 0.0204082 0.00689655 0.0204082Z" fill="#F59F86" fill-rule="evenodd" transform="matrix(-1 0 0 1 451 388)"/><path d="M0.00689655 0.0204082 0.668966 1 1 1 0.00689655 0.0204082Z" fill="#F66666" fill-rule="evenodd" transform="matrix(-1 0 0 1 451 388)"/><path d="M1 0.0102041 1 0.0102041 0 0.989796 0 0.989796 1 0.0102041 1 0.0102041 1 0.0102041Z" fill="#F4BD97" fill-rule="evenodd" transform="matrix(-1 0 0 1 466 400)"/><path d="M4 0.0048 2.57355 1.1568 0.00594354 3 2.85884 1.1568 4 0.0048Z" fill="#F06464" fill-rule="evenodd" transform="matrix(-1 0 0 1 465 397)"/><path d="M9.06286 0 6.31429 1.04021 3.57143 2.60593 2.47429 3.64614 1.37714 4.68634 0.554286 5.72655 0.00571429 7.0268 0.00571429 8.32706 0.28 9.62732 1.10286 11.1876 2.2 12.7534 4.12 14.3137 6.58857 15.874 9.88571 17.4343 14 18.9946 15.6457 18.2144 17.84 17.1742 18.6686 16.6541 21.1371 14.5737 22.5086 13.2735 23.88 11.9732 24.9771 10.4075 25.8 8.58711 26.8971 6.76675 27.4457 4.42629 27.9943 4.42629 25.5257 3.64614 18.1143 1.30026 14.2743 0.260051 12.6286 0Z" fill="#F66666" fill-rule="evenodd" transform="matrix(-1 0 0 1 484 383)"/><path d="M1 0 1 0 1 0 0.0204082 0.994819 0.0204082 0.994819 0.0204082 0.994819 1 0Z" fill="#ED6262" fill-rule="evenodd" transform="matrix(-1 0 0 1 386 383)"/><path d="M0.751295 12.1113 0.751295 12.1113 0.502591 13.9944 0.502591 13.9944 0.502591 13.9944 0.502591 13.9944 0.751295 12.1113ZM0.751295 12.1113 0.751295 12.1113 0.751295 12.1113 0.751295 12.1113 0.751295 12.1113ZM0.751295 12.1113 0.751295 12.1113 0.751295 12.1113 0.751295 12.1113 0.751295 12.1113ZM1 3.22818 1 3.22818 1 3.4972 1 3.4972 1 3.22818ZM1 3.22818 1 3.22818 1 3.22818 1 3.22818 1 3.22818ZM1 3.22818 1 3.22818 1 3.22818 1 3.22818 1 3.22818ZM1 3.22818 1 3.22818 1 3.22818 1 3.22818 1 3.22818ZM1 3.22818 1 3.22818 1 3.22818 1 3.22818 1 3.22818ZM1 3.22818 1 3.22818 1 3.22818 1 3.22818 1 3.22818ZM1 3.22818 1 3.22818 1 3.22818 1 3.22818 1 3.22818ZM1 2.95917 1 2.95917 1 3.22818 1 3.22818 1 2.95917ZM1 2.95917 1 2.95917 1 2.95917 1 2.95917 1 2.95917ZM1 2.95917 1 2.95917 1 2.95917 1 2.95917 1 2.95917ZM1 2.95917 1 2.95917 1 2.95917 1 2.95917 1 2.95917ZM0.00518135 0 0.00518135 0 0.751295 1.07606 1 2.95917 1 2.95917 0.751295 1.07606 0.00518135 0ZM0.00518135 0 0.00518135 0 0.00518135 0 0.00518135 0 0.00518135 0ZM0.00518135 0 0.00518135 0 0.00518135 0 0.00518135 0 0.00518135 0ZM0.00518135 0 0.00518135 0 0.00518135 0 0.00518135 0 0.00518135 0ZM0.00518135 0 0.00518135 0 0.00518135 0 0.00518135 0 0.00518135 0Z" fill="#F59F86" fill-rule="evenodd" transform="matrix(-1 0 0 1 386 369)"/><path d="M27.1376 0 26.2812 0.260322 24.5684 0.786389 20.8573 2.34832 16.2838 4.95154 11.4308 7.81508 6.85726 10.684 3.14613 13.2873 0.57689 15.1095 0.00594732 15.6302 0.00594732 15.8905 0.00594732 16.1508 0.862362 17.1921 1.14783 19.0143 1.14783 19.2747 1.14783 19.535 1.43331 21.3627 1.43331 23.7056 0.862362 27.8707 0.57689 29.693 0.57689 29.9533 0.291419 30.9946 4.00255 27.8707 8.28462 23.7056 17.7111 13.8079 21.9991 9.11669 25.4248 4.95154 27.4231 1.82768 27.9941 0.786389 27.9941 0.260322 27.7086 0Z" fill="#F66666" fill-rule="evenodd" transform="matrix(-1 0 0 1 386 353)"/><path d="M6.52424 0 4.25699 0.253925 3.40677 0.50785 2.83996 1.0157 2.27315 2.0314 1.42293 3.55495 0.856122 5.33771 0.572716 7.11519 0.00590429 11.6858 0.00590429 16.2618 0.00590429 20.5785 0.28931 24.1387 0.572716 27.6937 9.3642 28.4555 28.3583 30.2329 38.8502 30.7408 47.6417 30.9947 51.326 30.9947 54.1659 30.7408 56.1498 30.2329 56.7166 29.979 57 29.7251 57 27.9476 56.4332 25.4084 55.0162 19.0549 53.3157 13.7225 52.7489 11.178 45.6579 8.89266 38.2834 6.60734 29.4919 4.32201 20.7063 2.0314 16.7328 1.0157 12.7651 0.50785 9.3642 0Z" fill="#FDC59D" fill-rule="evenodd" transform="matrix(-1 0 0 1 429 288)"/><path d="M6.08629 0.00531444 4.76438 5.87245 3.17809 12.2551 0.00550796 23.7396 5.29315 23.9947 6.35067 18.1275 7.4082 12.2551 8.20685 6.38264 9 1.02569 6.08629 0.00531444Z" fill="#FEA68C" fill-rule="evenodd" transform="matrix(-1 0 0 1 396 295)"/><path d="M0 0.00557103 0.280798 1.61003 1.12319 3.7493 2.24639 6.42897 3.93703 9.10306 8.149 15.2535 12.9226 21.6769 22.1948 33.1811 26.1318 38 27.5358 33.1811 30.6246 22.4791 32.3094 16.3231 33.4326 10.7075 33.9941 6.16156 33.9941 4.55153 33.9941 3.48189 33.4326 2.67967 32.871 2.14485 32.0286 1.61003 31.1862 1.34262 29.2206 1.07521 26.9742 1.07521 23.318 1.61003 21.3524 2.14485 15.1748 1.34262 7.8682 0.54039 0 0.00557103Z" fill="#82B7F8" fill-rule="evenodd" transform="matrix(-1 0 0 1 424 285)"/><path d="M0.00567752 0.00543732 6.61431 0.598105 6.61431 0.598105 6.54618 0.52742 0.00567752 0.00543732ZM6.61431 0.598105 8.99886 3.13733 11.4572 6.01367 13.9099 9.40656 16.0901 13.0604 18.5428 16.9807 20.7229 20.8956 24.6745 28.9591 24.6745 28.9591 24.8164 28.4698 27.2691 19.8516 29.1768 11.2335 29.9943 7.31863 29.9943 4.70328 29.9943 3.13733 29.7218 2.35436 29.1768 1.83238 28.0867 1.31039 26.4516 0.788411 22.3637 0.788411 20.1779 1.31039 17.7252 1.83238 13.6374 1.31039 8.72634 0.788411 6.61431 0.598105ZM24.6745 28.9591 22.9088 34.9946 24.8164 29.2528 24.6745 28.9591Z" fill="#76A7DE" fill-rule="evenodd" transform="matrix(-1 0 0 1 420 286)"/><path d="M0.00571952 0.00543732 2.20201 2.09337 3.30016 3.65931 6.32006 6.27466 9.06543 9.40656 11.542 13.0604 14.2873 17.2417 16.7582 21.4176 18.9545 25.8544 21.1565 30.2967 23.0782 34.9946 25 29.2528 20.8762 20.8956 18.6799 16.9807 16.2091 13.0604 14.0128 9.40656 11.542 6.01367 9.06543 3.13733 6.5946 0.52742 0.00571952 0.00543732Z" fill="#6D9ACA" fill-rule="evenodd" transform="matrix(-1 0 0 1 420 286)"/><path d="M32.3573 0 24.4083 8.92074 15.3306 18.3659 6.81424 27.0244 0 33.5798 2.8368 51.6835 3.41007 52.4701 3.97743 52.7323 4.5448 52.9945 5.39584 52.9945 6.81424 52.7323 8.23264 51.9457 12.2042 49.0613 15.8979 45.9148 19.3021 42.5005 22.7062 39.0917 25.8326 35.4207 28.9531 31.7443 34.0594 24.659 38.3205 18.1037 41.1573 12.5917 43.9941 7.87188 32.3573 0Z" fill="#FDC59D" fill-rule="evenodd" transform="matrix(-1 0 0 1 380 266)"/><path d="M18.6198 0 17.4865 0.523463 16.3591 1.83212 14.668 3.66424 11.8495 7.8574 9.59466 11.2599 8.46726 11.2599 7.62171 11.5216 7.62171 9.42779 7.33986 7.59567 7.05213 7.07221 6.48843 6.28701 5.92473 5.76355 5.07918 5.50182 4.79733 5.50182 4.23363 5.76355 3.38808 6.81048 2.54253 8.11913 1.97883 9.68952 1.13327 13.6155 1.13327 16.5 0.287722 18.0704 0.00587189 19.6408 0.00587189 21.2112 0.287722 22.7816 0.851423 24.3519 1.41512 25.6606 2.54253 26.9747 3.95178 28.2834 7.90356 30.9007 9.59466 31.9476 11.5676 32.7328 13.5406 32.9945 15.5135 32.9945 17.4865 32.4711 19.1835 31.6859 20.8746 30.639 22.2838 29.3303 23.1294 28.0216 23.6931 26.713 24.2568 25.3989 24.2568 23.8285 27.3571 22.2581 30.1815 20.6877 32.4363 19.1173 33 18.3321 33 17.8087 32.7181 17.5469 32.4363 17.2852 29.8996 17.2852 28.2027 17.5469 25.1023 18.3321 23.1294 19.1173 25.1023 17.5469 27.9208 15.1859 29.3301 13.8772 30.7452 12.3068 31.3089 11.2599 31.5907 10.7365 31.5907 10.213 31.3089 9.95126 30.7452 9.68952 29.3301 10.213 27.639 10.9982 25.666 12.3068 22.002 14.6624 20.3109 15.9765 20.3109 15.9765 21.7201 14.4007 24.2568 10.7365 25.666 8.90433 26.7934 6.81048 27.3571 4.9729 27.3571 4.18771 27.0753 3.66424 26.7934 3.40251 26.2297 3.40251 24.8205 3.66424 23.1294 4.9729 21.1564 6.54874 17.2046 9.95126 14.668 12.3068 14.668 12.0451 16.0772 9.95126 17.7683 6.28701 18.6198 4.44944 19.1835 2.61732 19.4653 1.30866 19.1835 0.261732 18.9016 0Z" fill="#FDC59D" fill-rule="evenodd" transform="matrix(-1 0 0 1 351 245)"/><path d="M0.0060024 0 1.44658 0.749349 5.48019 3.24718 8.07323 5.00087 10.3842 7.24892 12.9772 9.49696 14.994 11.9948 14.4178 10.2463 13.2653 8.24805 11.8247 6 9.80792 3.74675 8.36134 2.74761 7.20888 1.99827 5.48019 1.24892 3.7515 0.499566 2.02281 0Z" fill="#FEA68C" fill-rule="evenodd" transform="matrix(-1 0 0 1 341 256)"/><path d="M0.00611995 0 1.18115 1.59852 2.35618 3.46346 2.9437 5.60037 3.53121 7.46531 3.82497 10.6623 4.11873 11.9944 4.70624 10.3959 5 9.06383 5 7.99815 5 6.66605 4.41248 4.80111 3.53121 2.93062 2.35618 1.86494 1.18115 0.79926 0.00611995 0Z" fill="#FEA68C" fill-rule="evenodd" transform="matrix(-1 0 0 1 343 256)"/><path d="M10.0918 0 0 8.75103 1.96116 11.3233 7.29016 17.7593 11.2125 22.1375 15.9811 26.7675 21.5845 31.9121 27.754 37.0619 34.4779 42.2064 38.1259 44.5268 42.0483 46.8419 45.9706 49.1569 49.8988 51.2147 54.1012 53.2779 58.5897 55.0784 63.0724 56.6218 67.5551 58.1652 72.3237 59.1941 77.3667 60.223 82.1354 60.7374 87.1784 60.9946 92.5073 60.9946 97.8305 60.7374 99.2313 60.223 100.632 59.7085 101.753 58.6796 102.879 57.6507 103.44 56.6218 104 55.0784 104 53.7923 103.72 52.2436 101.192 45.2985 100.352 43.2407 99.2313 41.1775 97.8305 39.6342 96.1495 38.0908 94.1883 36.8047 91.947 36.033 89.6999 35.2614 87.1784 35.0041 81.2949 34.7469 74.2849 33.9752 70.6427 33.4608 66.7146 32.6891 62.5121 31.6548 58.0236 30.3687 53.2607 28.5681 48.2178 26.2531 42.8888 23.4236 37.0053 20.0743 30.8358 16.2159 24.3861 11.5805 17.382 6.17878 10.0918 0Z" fill="#FDC59D" fill-rule="evenodd" transform="matrix(-1 0 0 1 546 259)"/><path d="M0 0 0 0 0 0 4 0.99654 4 0.99654 4 0.99654 4 0.99654 0 0Z" fill="#FFCBCB" fill-rule="evenodd" transform="matrix(-1 0 0 1 490 289)"/><path d="M1.99827 0 0 23.7122 2.9974 25 4.5013 13.1466 5.25065 6.70208 6 1.5454 1.99827 0Z" fill="#FEA68C" fill-rule="evenodd" transform="matrix(-1 0 0 1 492 289)"/><path d="M5.89627 0 5.05478 0.261296 4.77429 0.783887 4.49379 2.09036 3.6523 6.01524 1.96932 16.9951 0 32.9396 30.3112 40 31.9942 3.91943 22.7319 4.18073 16.2805 4.18073 12.9145 3.91943 11.7867 3.13555 9.54273 1.56777 8.14025 0.783887 7.01826 0.261296 5.89627 0Z" fill="#82B7F8" fill-rule="evenodd" transform="matrix(-1 0 0 1 489 286)"/><path d="M5.79469 0 4.9677 0.261918 4.41637 1.30959 3.86504 3.66686 3.03805 8.91068 2.21106 15.4641 0.551328 27.5178 0 33.0181 20.962 38 21.2376 27.2559 21.7889 17.8214 22.8916 9.69644 23.4487 6.55342 24 4.19069 17.9296 4.19069 12.692 3.92878 11.5836 3.14302 9.92965 1.83343 7.72434 0.523837 6.89734 0.261918 5.79469 0Z" fill="#76A7DE" fill-rule="evenodd" transform="matrix(-1 0 0 1 489 286)"/><path d="M0 34.211 0 34.211 4.00198 35 4.00198 35 0 34.211ZM5.71457 0 5.71457 0 3.14569 0.262993 3.14569 0.262993 3.14569 0.262993 5.71457 0ZM6 0 6 0 5.71457 0 5.71457 0 6 0ZM6 0 6 0 6 0 6 0 6 0ZM6 0 6 0 6 0 6 0 6 0Z" fill="#D8DFE3" fill-rule="evenodd" transform="matrix(-1 0 0 1 468 290)"/><path d="M5.8047 0 3.1953 0.262993 2.61544 2.63541 2.02953 5.79133 0.869799 13.9496 0.289933 23.4228 0 34.211 4.0651 35 4.9349 22.6338 5.51476 17.3685 6.09463 12.6346 5.8047 12.6346 5.51476 11.0512 5.51476 9.47323 5.51476 7.89527 6.09463 6.05432 7.5443 2.8984 8.99396 0Z" fill="#6D9ACA" fill-rule="evenodd" transform="matrix(-1 0 0 1 468 290)"/><path d="M10.9381 0 10.6648 0.257891 10.6648 1.29483 11.2114 2.84218 12.037 4.38952 13.1302 6.19476 15.3167 9.54735 16.6833 11.6158 16.6833 11.6158 13.9502 9.54735 9.84484 6.71054 7.65836 5.42109 5.7452 4.64741 4.37865 4.13163 3.83203 4.38952 3.55872 4.64741 3.55872 5.42109 3.55872 5.93687 4.37865 7.74211 5.7452 9.54735 7.38505 11.358 10.3915 14.4527 11.7637 16 10.1181 14.9684 6.29181 12.9053 4.10534 11.8737 2.19217 11.358 0.825623 11.1001 0.552313 11.358 0.27331 11.6158 0.27331 12.1316 0.552313 12.6474 1.37224 13.679 2.73879 14.7105 4.37865 16 7.65836 18.0631 9.57153 19.3526 9.57153 19.3526 7.38505 18.8368 4.37865 18.321 1.37224 18.321 0.27331 18.5789 0 18.8368 0 19.0947 0 19.8684 0.825623 20.3841 3.0121 21.679 6.01851 22.9684 9.02491 24.2579 9.29822 25.5473 9.84484 26.8368 10.6648 27.8684 11.7637 29.1578 13.4036 30.1894 15.0434 31.221 16.6833 31.7421 18.5964 32 20.5096 31.7421 22.4285 31.221 24.0683 30.4473 25.7082 29.1578 29.2612 26.0631 30.3544 24.7737 31.1744 23.2263 31.721 21.679 31.9943 20.1263 31.9943 18.5789 31.721 17.0316 31.1744 15.4842 30.3544 14.1948 30.0811 10.8368 29.2612 6.45265 28.9879 4.38952 28.168 2.58428 27.348 1.55272 27.0747 1.29483 26.5281 1.55272 25.7082 1.81061 25.1616 2.84218 24.6149 3.87374 24.3416 5.1632 24.0683 7.74211 24.3416 10.0631 21.6028 10.0631 18.8698 6.96843 15.59 3.35796 13.9502 1.55272 12.3103 0.515782 11.2114 0Z" fill="#FDC59D" fill-rule="evenodd" transform="matrix(-1 0 0 1 566 239)"/><path d="M9.99388 0 8.23133 1.08963 6.17503 2.17361 4.11873 4.07057 2.35618 6.23853 1.47491 7.59351 0.881273 9.21948 0.293758 10.5745 0 12.4771 0 14.103 0.293758 16 0.587515 14.645 1.18115 13.0191 2.06242 10.8454 3.23745 8.40649 5 5.69654 7.0563 2.7156 9.99388 0Z" fill="#FEA68C" fill-rule="evenodd" transform="matrix(-1 0 0 1 556 249)"/><path d="M4 0 2.66898 1.02759 2.00347 2.30542 0.998267 3.83882 0.332756 5.62778 0 7.41675 0 8.43901 0.332756 9.20571 0.998267 10.228 1.67071 10.9947 1.67071 9.97241 1.67071 7.41675 2.33622 3.83882 3.00173 1.79429 4 0Z" fill="#FEA68C" fill-rule="evenodd" transform="matrix(-1 0 0 1 545 249)"/><path d="M30.6164 0.00544853 25.0019 0.790037 19.3816 2.35921 14.0479 4.18992 9.55045 6.28216 7.58539 7.33372 5.90104 8.64137 4.77815 9.68749 3.93598 10.9951 3.09381 13.0874 2.25164 16.4873 1.40947 20.9387 0.848019 26.1693 0.286572 38.2105 0.00584841 51.2925 0.286572 57.8307 0.567296 64.1129 0.848019 69.6104 1.69019 74.5795 2.53236 78.764 3.65526 81.9078 4.2167 82.9539 5.05887 83.7385 5.90104 84 6.74322 84 74.9941 61.236 74.9941 59.1438 74.4327 56 73.5905 52.3386 72.1869 48.4156 70.7833 43.7027 68.8182 38.9951 66.8532 34.0206 64.3208 29.0516 61.7943 24.0771 58.9871 19.108 56.1798 14.6565 53.086 10.7336 49.9981 7.07219 46.9101 4.18992 45.5065 2.88227 43.8221 1.83615 42.1319 1.05157 40.7283 0.528507 38.4825 0.266978 35.956 0.00544853Z" fill="#82B7F8" fill-rule="evenodd" transform="matrix(-1 0 0 1 464 285)"/><path d="M32.7014 0 5.26753 9.40379 4.15979 10.9702 2.22125 14.8916 1.11351 17.2412 0.559639 19.8518 0.00576947 22.4625 0.282704 23.5122 0.559639 24.8175 3.88285 25.6007 11.3659 27.4282 15.5199 28.4724 19.12 28.9946 21.8951 28.9946 22.7259 28.7335 23.0029 28.4724 23.5568 26.906 23.5568 24.8175 23.5568 19.8518 22.7259 13.5863 24.1106 15.4137 27.1569 19.3297 28.8185 21.4182 30.7628 22.9846 32.4244 24.0343 32.9783 24.2954 33.5322 24.2954 34.9168 23.5122 36.8554 22.2014 39.0709 20.635 41.2863 18.8076 43.5076 16.7191 44.8923 14.6305 45.4461 13.8473 45.7231 13.0587 46 12.2755 45.7231 11.4923 44.6153 10.187 42.9537 8.35953 38.517 4.44355 32.7014 0Z" fill="#FDFDFD" fill-rule="evenodd" transform="matrix(-1 0 0 1 463 278)"/><path d="M7.6287 0.00580833 0 2.23621 1.57722 12 9.99452 8.9274 7.6287 0.00580833Z" fill="#FDC59D" fill-rule="evenodd" transform="matrix(-1 0 0 1 447 282)"/><path d="M8.46573 0 1.32191 1.05148 0 1.31435 0.528764 5 8.99449 2.10296 8.46573 0Z" fill="#FEA68C" fill-rule="evenodd" transform="matrix(-1 0 0 1 446 289)"/><path d="M13.6024 0.00544523 12.1867 0.528187 10.4879 1.05093 8.78903 1.57367 7.37335 2.35778 6.23491 3.40327 4.81922 4.44875 2.83727 7.06246 1.42158 9.68161 0.289035 12.8181 0.00589868 16.2159 0.00589868 17.7841 0.289035 19.6192 0.572172 21.4487 1.13845 23.017 2.83727 25.8921 4.81922 28.5058 7.37335 30.6022 10.2047 32.4318 11.9035 32.9545 13.3192 33.4773 15.018 33.7386 16.7169 34 18.4216 34 20.1204 33.7386 21.8192 33.4773 23.518 32.9545 24.9337 32.1704 26.3494 31.3863 27.7651 30.3408 28.8976 29.2953 31.1686 26.9375 32.5843 24.0625 33.7169 20.926 34 17.5227 34 15.9545 33.7169 14.1249 33.1506 12.5567 32.5843 10.7271 31.1686 7.84657 28.8976 5.23286 26.3494 3.1419 23.518 1.3123 22.1024 0.789558 20.4035 0.266816 18.9879 0.00544523Z" fill="#FDC59D" fill-rule="evenodd" transform="matrix(-1 0 0 1 406 221)"/><path d="M7.91176 0 6.5 3.55145 4.80588 7.35092 2.54706 11.1557 0 14.9551 0 17.4881 1.7 17.7414 3.11176 17.9947 4.80588 17.7414 6.78235 17.2348 8.47647 16.4749 9.88823 15.2084 11.3 13.942 12.1471 12.1689 12.7176 10.3958 13 8.61741 12.7176 6.59103 12.1471 4.56464 11.0176 2.79156 9.60588 1.27177 7.91176 0Z" fill="#FEA68C" fill-rule="evenodd" transform="matrix(-1 0 0 1 389 229)"/><path d="M60.4577 0 55.982 0.519817 33.0262 5.7234 27.7113 6.50313 22.676 7.54276 18.4742 9.10221 14.8376 11.1815 11.4808 13.7806 8.67762 16.645 6.16 19.7639 4.20185 23.1427 2.80318 26.7868 1.4045 30.6854 0.565298 34.844 0.285563 39.0079 0 43.1665 0.285563 47.3304 0.565298 51.7489 1.4045 55.9074 2.52344 62.6704 2.24371 65.0096 2.24371 67.0943 2.52344 69.1735 2.80318 71.2528 3.36265 73.3321 3.92212 75.1514 4.76132 77.2361 5.60053 78.7956 8.11814 82.1744 10.9155 85.2933 14.2781 87.8978 17.9147 90.237 22.1107 92.3162 26.3126 93.8757 30.7883 95.1752 35.5497 96.2149 40.3052 96.7347 45.0665 96.9946 49.5422 96.7347 54.2977 96.2149 73.0517 93.096 77.5274 92.3162 81.7293 91.0167 85.9253 89.1973 89.5677 87.1126 93.2042 84.7735 96.2813 82.1744 99.3584 79.3154 101.882 76.1911 104.12 72.8123 106.078 69.1735 107.756 65.5294 108.875 61.6308 109.714 57.7322 109.994 53.5682 109.994 49.4097 109.435 45.2457 108.036 38.4881 106.917 34.3242 105.518 30.1656 103.84 26.267 101.602 22.363 99.0787 18.7242 96.0016 15.3454 92.9245 12.2211 89.5677 9.62203 85.9253 7.02294 82.009 4.67835 77.8072 3.1189 73.6111 1.55945 69.4151 0.519817 64.9335 0Z" fill="#FDC59D" fill-rule="evenodd" transform="matrix(-1 0 0 1 499 193)"/><path d="M28.5396 0.00556766 25.7156 0.540063 23.7389 1.34181 22.0445 2.4108 19.5029 4.54878 18.3675 5.08327 16.9555 5.08327 15.5435 4.54878 13.8491 3.74703 10.7428 1.8763 8.76603 1.07456 7.06577 0.807311 5.93619 0.807311 5.089 1.07456 3.95942 1.34181 2.82984 1.8763 1.98265 2.94529 1.13547 4.01428 0.570674 5.61777 0.00588324 7.22125 0.00588324 9.09199 0.288279 11.2355 0.85307 13.1063 1.70026 14.977 2.82984 16.8477 4.52421 18.7185 6.78338 20.322 9.33082 21.3965 12.1548 22.4655 15.8259 23 19.7853 23 24.5861 22.7328 27.6924 22.1983 30.5222 21.1293 32.7814 19.7875 34.7582 18.4512 36.4526 16.5805 37.5821 14.7098 38.4293 12.839 38.7117 10.9683 38.9941 9.09199 38.7117 7.22125 38.1469 5.35052 37.5821 3.74703 36.4526 2.4108 35.0406 1.34181 33.6286 0.540063 31.6518 0.272815 29.9575 0.00556766Z" fill="#210A06" fill-rule="evenodd" transform="matrix(-1 0 0 1 462 250)"/><path d="M6.44942 0 4.20817 0.267658 0.00583658 0.802974 0.285992 3.48513 1.40661 6.42937 1.96693 7.76766 2.80739 9.10595 3.92802 10.1766 5.32879 11.2472 7.00973 12.3178 8.6965 13.3941 10.6576 13.9294 12.8988 14.4647 15.4202 15 21.0292 15 24.391 14.7323 27.1926 14.197 30 13.3941 28.5934 10.7119 26.6323 8.30297 24.391 6.16171 21.8696 4.2881 19.0681 2.68216 15.7004 1.60595 12.3385 0.535316 8.6965 0.267658 6.44942 0Z" fill="#FF6B6B" fill-rule="evenodd" transform="matrix(-1 0 0 1 462 258)"/><path d="M26.3434 0.0053243 23.5723 0.516457 21.6324 1.28316 19.9697 2.30542 17.4757 4.34995 16.3614 4.86108 14.9759 4.86108 13.5903 4.34995 11.9276 3.58325 8.87929 1.79429 6.93947 1.02759 5.27099 0.772023 4.16253 0.772023 3.33118 1.02759 2.22271 1.28316 1.11424 1.79429 0.00577327 2.81655 1.11424 4.34995 2.49983 5.88335 4.16253 7.16118 6.10812 8.43901 8.04794 9.46128 10.2649 9.97773 12.4818 10.7444 14.9759 11 18.0299 11 21.0782 10.4889 23.5723 9.71684 26.3434 8.69458 28.5661 7.16118 30.2288 5.62778 31.8915 3.58325 33 1.53872 31.3373 0.516457 29.3975 0.260891 27.7348 0.0053243Z" fill="#FDFDFD" fill-rule="evenodd" transform="matrix(-1 0 0 1 460 250)"/><path d="M15.5784 0 13.8796 0.267006 12.1808 0.801017 10.482 1.33503 8.78314 1.86904 7.36745 2.67006 6.23491 3.73808 4.81332 4.8061 2.83137 7.21472 1.41568 10.1518 0.283137 13.3558 0 16.8325 0 18.4345 0.283137 20.3036 0.566273 21.9056 1.13255 23.7746 2.83137 26.7173 4.81332 29.3873 7.36745 31.5234 10.1988 33.3924 11.8976 33.9264 13.3133 34.4604 15.0121 34.7274 16.711 34.9944 18.4157 34.9944 20.1145 34.7274 21.8133 34.1934 23.5121 33.6594 24.9278 33.1254 26.3435 32.3244 27.7592 31.2564 28.8976 30.1883 31.1627 27.7853 32.5784 24.8427 33.711 21.6386 33.9941 18.1675 33.9941 16.5655 33.711 14.6909 33.1447 13.0888 32.5784 11.2198 31.1627 8.28274 28.8976 5.61268 26.6266 3.47107 23.5121 1.60203 22.0965 1.06802 20.3976 0.534011 18.982 0.267006 17.2831 0Z" fill="#FDC59D" fill-rule="evenodd" transform="matrix(-1 0 0 1 516 234)"/><path d="M9.85219 0.00540687 8.11463 0.264936 6.08748 0.783996 4.34992 1.56258 2.90196 2.6007 1.74359 4.15788 0.585219 5.71506 0.00603318 7.53176 0.00603318 9.61341 0.00603318 11.6896 0.585219 13.2468 1.454 15.0635 2.61237 16.3612 3.77074 17.6588 5.2187 18.7024 6.95626 19.4809 8.69382 19.7405 10.4314 20 12.175 19.7405 13.6229 19.4809 14.7813 18.9619 15.9397 18.4374 17.098 17.6588 17.9668 16.6207 18.8356 15.5826 19.4148 14.5445 19.994 13.2468 12.7541 0.524466 11.3062 0.00540687Z" fill="#FEA68C" fill-rule="evenodd" transform="matrix(-1 0 0 1 510 242)"/><path d="M8.66544 0.00529902 6.9847 0.259652 5.58892 0.514005 4.19314 0.768357 2.79737 1.27706 2.51821 3.82059 1.9599 6.10977 1.12244 8.14459 0.00581573 10.1847 1.40159 11.7108 3.35568 12.7282 5.86807 13.4913 8.38629 14 11.1778 14 12.8528 13.4913 14.5277 12.9826 15.9235 12.2195 17.0401 11.2021 17.8776 10.1847 18.715 8.90765 18.9942 7.63588 18.715 6.10977 18.1567 4.838 17.3193 3.56624 16.2026 2.54883 14.8069 1.53142 13.1319 0.768357 11.457 0.259652 9.22375 0.00529902Z" fill="#FEA68C" fill-rule="evenodd" transform="matrix(-1 0 0 1 485 251)"/><path d="M3.99407 0.00535077 2.28487 1.0327 1.1454 2.31688 0.290801 3.85791 0.00593472 5.39893 0.00593472 6.16944 0.290801 7.19679 0.575668 8.22949 1.1454 9 2.28487 6.93995 3.13947 4.88526 3.7092 2.57372 3.99407 0.00535077Z" fill="#FEA68C" fill-rule="evenodd" transform="matrix(-1 0 0 1 486 252)"/><path d="M7.98401 0.00550796 6.60845 0.26989 5.23288 0.534272 3.5822 1.32742 2.20664 2.12056 1.10618 3.44247 0.280845 4.76438 0.00573152 5.02876 0.00573152 5.29315 0.555958 5.82191 1.10618 6.08629 1.65641 5.82191 1.93152 5.55753 2.48175 4.5 3.5822 3.44247 4.68265 2.91371 5.78311 2.12056 6.88356 1.85618 8.25912 1.85618 10.4658 2.38494 12.6667 3.17809 14.8676 4.5 16.5182 6.35067 17.0685 7.4082 17.3436 8.47124 17.8938 9 18.444 9 18.9943 8.47124 18.9943 7.93696 18.444 6.61505 17.8938 5.29315 17.0685 3.97124 16.2431 2.91371 14.8676 2.12056 13.7671 1.06304 12.3916 0.534272 11.016 0.00550796Z" fill="#4D2A22" fill-rule="evenodd" transform="matrix(-1 0 0 1 431 210)"/><path d="M9.70309 0.00567465 8.23385 0.550441 5.58923 1.63997 4.11999 2.45712 3.23845 3.27427 2.06305 4.36381 1.17539 5.45334 0.587695 6.81526 0 8.18285 0 8.72762 0.587695 9 1.17539 9 1.76921 8.45523 2.06305 7.36003 2.9446 6.54287 4.70768 4.90857 6.76462 3.54666 8.82155 2.72951 11.4662 1.91236 12.6416 1.91236 13.8231 2.18474 14.9985 2.45712 16.4677 3.00189 17.3492 3.81904 18.2308 4.63619 18.8185 4.90857 19.1123 4.90857 19.7 4.63619 19.9939 4.09142 19.9939 3.81904 19.7 3.27427 18.5246 2.18474 17.3492 1.36759 15.88 0.822825 14.4108 0.278058 11.1723 0.00567465Z" fill="#4D2A22" fill-rule="evenodd" transform="matrix(-1 0 0 1 479 211)"/><path d="M9.86221 0.00557414 8.16769 0.273133 6.1976 0.80825 4.50894 1.87848 3.10173 2.68116 1.97596 4.01895 0.850191 5.35674 0.287306 6.69454 0.00586338 8.30546 0.287306 9.64326 0.568748 10.7135 1.41308 11.7837 2.2574 12.854 3.38317 13.3891 4.50894 14.1917 5.91615 14.4593 7.32337 14.7269 8.73058 14.9944 10.4251 14.7269 11.8323 14.4593 13.8024 13.9242 15.4911 13.1215 17.1797 12.0513 18.3055 10.981 19.1498 9.64326 19.7127 8.0379 19.9941 6.69454 19.9941 5.08919 19.4313 4.01895 18.8684 2.94872 18.024 2.14604 16.8983 1.34337 15.7725 0.80825 14.3653 0.273133 12.9581 0.00557414Z" fill="#FEA68C" fill-rule="evenodd" transform="matrix(-1 0 0 1 420 243)"/><path d="M11.0714 0.00556472 8.80159 0.272671 6.53174 1.07399 4.82935 2.14242 3.12696 3.47795 1.70239 5.08059 0.851195 6.95589 0.283732 8.82564 0 11.2296 0.283732 16.8444 0.567463 18.9812 1.41866 20.851 2.5595 22.7207 3.97815 24.3234 5.68054 25.3918 7.66667 26.4602 9.93652 26.9944 12.2064 26.9944 14.4821 26.7273 16.4683 25.926 18.4544 24.8576 20.1568 23.5221 21.5754 21.9194 22.4266 20.0497 22.9941 18.1799 22.9941 15.7704 22.7104 10.1612 22.4266 8.02432 21.8592 6.15458 20.7242 4.27927 19.3056 2.67663 17.3195 1.6082 15.3333 0.539777 13.3472 0.00556472Z" fill="#FDFDFD" fill-rule="evenodd" transform="matrix(-1 0 0 1 479 223)"/><path d="M9.79824 0 7.49559 0.522356 5.76261 1.04471 4.03563 2.3506 2.59647 3.65649 1.44515 5.49018 0.581658 7.31843 0.00599647 9.66903 0.00599647 11.7585 0.293827 14.1091 1.15732 16.2039 2.02081 18.2934 3.45996 19.8604 4.89912 21.1663 6.6261 22.211 8.64691 22.7334 10.6617 22.9946 12.1009 22.7334 14.4035 20.9051 15.267 19.8604 15.8427 18.8157 16.4183 17.771 16.994 16.4651 16.994 15.1592 16.994 13.5867 16.7062 8.10196 16.4183 6.01254 15.5549 3.92311 14.4035 2.08942 12.6765 0.522356 11.2374 0.261178 9.79824 0Z" fill="#210A06" fill-rule="evenodd" transform="matrix(-1 0 0 1 473 225)"/><path d="M4.16763 0 3.89017 0.210296 3.33526 0.841183 2.78035 1.26177 1.92486 1.91019 1.92486 1.91019 0.83237 0.420591 0.554913 0.210296 0.277457 0.210296 0 0.420591 0 0.841183 1.39306 2.73384 1.39306 2.94414 1.67052 2.94414 2.22543 2.73384 3.33526 1.68237 3.89017 1.05148 3.89017 1.26177 3.89017 2.10296 3.89017 2.94414 3.89017 3.36911 3.89017 3.7897 4.16763 4 4.44509 4 4.72254 3.7897 5 3.36911 5 2.94414 5 2.10296 4.72254 0.420591 4.44509 0Z" fill="#4D2A22" fill-rule="evenodd" transform="matrix(-1 0 0 1 445 236)"/><path d="M29.0868 0 25.1678 0.261953 21.5341 0.785858 24.6088 1.83367 27.6893 3.41084 31.0434 5.24451 32.441 6.29232 33.8385 7.60209 35.2361 8.91185 36.0746 10.4836 36.6337 12.0553 36.6337 13.6325 36.3542 15.4661 35.2361 17.2998 33.2795 19.6574 31.3229 22.2769 31.3229 22.2769 31.6024 20.4432 31.8819 18.6096 31.8819 17.0378 31.6024 15.99 30.7639 14.1564 29.9254 12.5792 28.8073 11.0075 27.4039 9.95966 26.2859 9.1738 24.8883 8.38795 22.3727 7.34014 19.8571 6.81623 17.621 6.55428 15.6585 6.81623 18.739 6.81623 20.1366 7.34014 21.2546 7.86404 23.4907 9.43576 25.4473 11.0075 26.5654 12.8411 27.6893 14.4183 28.5278 15.99 26.0064 17.2998 23.4907 18.8715 20.1366 21.2291 16.2176 24.116 12.3044 27.7834 8.1117 32.2366 6.15511 34.5996 4.47221 37.2191 2.51562 40.3626 1.39756 43.506 0.279513 46.6549 0 50.0603 0 53.4657 0.279513 56.6145 0.838539 60.0199 1.67708 63.4253 3.07464 66.8362 4.75172 69.9796 6.43462 73.123 8.67072 76.01 10.9068 78.6295 13.4224 81.249 15.9381 83.6066 18.739 85.9642 21.8137 87.8033 24.8883 89.375 27.9688 90.4228 31.0434 91.4706 34.118 91.9945 37.4722 91.9945 40.8322 91.7326 43.9068 91.2087 46.9815 89.8989 50.0619 88.0652 53.1366 85.9642 55.9317 83.0827 58.4473 79.6773 60.9688 75.748 63.4844 71.0274 65.441 65.7884 66 64.2112 66 62.6395 65.7205 61.3297 64.882 60.0199 64.0434 59.2341 62.9254 58.1863 61.5278 57.6624 60.1244 57.1385 57.3293 56.3526 54.8137 55.8287 52.0185 55.5667 52.8571 54.7754 54.8137 52.1559 57.3293 47.9646 58.4473 45.3451 59.5654 42.4582 60.4039 39.3147 60.9688 35.9094 61.2483 31.9746 60.9688 28.0453 60.1244 24.116 58.7268 19.6574 56.7702 15.2042 53.9751 10.7455 52.0185 8.12599 49.4971 6.03037 47.261 4.1967 44.4659 2.88694 41.9502 1.83367 39.1551 1.04781 36.3542 0.523906 33.8385 0.261953 29.0868 0Z" fill="#210A06" fill-rule="evenodd" transform="matrix(-1 0 0 1 582 133)"/><path d="M14.4821 0 12.7738 0.262256 11.9226 0.786769 10.7877 1.84126 9.65279 3.4148 8.51786 5.25059 6.24801 9.9712 3.97815 15.4841 2.26985 20.9914 0.851195 26.5043 0 30.7004 0 32.5416 0.283732 33.8529 1.13493 35.4265 1.98612 36.4755 2.84323 37 3.69442 37 4.54562 36.7377 5.39681 36.4755 5.96428 36.2132 22.9941 3.93931 22.1429 3.15254 19.5893 1.579 18.1706 0.786769 16.4683 0.262256 14.4821 0Z" fill="#4D6D81" fill-rule="evenodd" transform="matrix(-1 0 0 1 535 186)"/><path d="M10.0957 0.00535861 7.85352 0.262572 5.8916 1.03421 3.92968 2.32028 2.52247 3.60635 1.40137 5.14963 0.560548 7.20734 0 9.01319 0 11.0709 0.560548 16.7296 1.1211 18.5301 1.96192 20.5932 3.08885 22.1364 4.49023 23.6797 6.45215 24.7086 8.41406 25.4802 10.6563 25.9946 12.8985 25.9946 15.1465 25.4802 17.1084 24.7086 18.79 23.6797 20.4717 22.1364 21.5928 20.5932 22.4336 18.7873 22.9942 16.7296 22.9942 14.6719 22.4336 9.2704 21.8731 7.20734 21.0322 5.40684 19.9111 3.60635 18.2295 2.32028 16.5479 1.03421 14.5859 0.262572 12.3379 0.00535861Z" fill="#FDFDFD" fill-rule="evenodd" transform="matrix(-1 0 0 1 435 220)"/><path d="M5.66863 0.00550239 4.25295 0.269617 3.1204 0.797847 1.69882 2.64665 0.566273 4.49545 0 6.87799 0 8.99091 0.566273 14.8014 0.84941 16.122 1.13255 17.4481 1.69882 18.5045 2.54823 19.561 3.40354 20.6175 4.25295 21.6739 6.51804 22.9945 8.21686 22.9945 10.1988 22.7304 11.8976 21.938 13.5965 20.6175 14.7349 19.0328 15.8675 17.1785 16.7169 15.3297 17 12.9526 17 10.8397 16.4337 8.46268 15.5843 6.34426 14.7349 4.49545 13.3133 2.91077 11.6145 1.59019 9.91568 0.797847 7.93373 0.269617 5.66863 0.00550239Z" fill="#210A06" fill-rule="evenodd" transform="matrix(-1 0 0 1 435 222)"/><path d="M80.758 0.0054299 73.746 0.266065 66.4595 1.04797 59.4475 2.09051 52.4355 3.91496 45.7096 6.26068 38.9778 9.1331 35.895 10.9575 32.8123 12.5214 30.004 14.6064 26.9213 16.6915 24.3991 18.7766 21.5966 21.1278 19.0685 23.7341 16.8265 26.3405 14.5846 29.2074 12.6228 32.0799 10.6611 35.2075 8.97376 38.3351 5.89104 45.1171 3.64906 51.6384 1.96757 57.633 0.846581 63.3724 0.286086 68.8457 0.00583849 73.8032 0.286086 78.7553 1.12683 83.1915 2.24782 87.6223 3.9293 91.5373 5.61079 95.1862 7.85277 98.8351 10.1006 101.968 12.9031 105.096 15.4253 107.702 18.508 110.308 21.3163 112.66 24.3991 114.745 27.4818 116.83 30.8448 118.394 36.7358 121.261 42.3407 123.612 47.1108 125.176 51.0343 126.218 54.4031 127 52.7157 126.218 50.754 125.436 47.391 122.83 44.3083 120.218 41.5 117.09 39.258 114.484 37.2963 112.138 35.895 110.048 31.125 110.048 28.3225 109.266 26.9213 109.005 25.2398 108.223 23.8386 107.441 22.1571 106.399 20.75 105.096 19.3488 103.532 18.2278 101.702 17.387 99.617 16.266 96.75 15.9858 94.1437 15.7055 91.7979 15.9858 89.4468 16.5463 87.6223 17.1068 85.7979 18.2278 84.2341 19.3488 82.6703 20.4698 81.6277 21.8768 80.5798 24.9596 78.7553 27.762 77.7128 30.2843 76.9309 40.9395 96.4894 42.0605 93.883 43.1815 90.75 44.0281 87.1011 44.5886 83.4522 45.1491 79.5372 45.1491 75.8883 44.8688 72.7607 44.3083 69.8883 48.512 68.8457 52.4355 67.5426 55.8043 65.9788 58.6068 64.1543 61.4093 62.0692 63.6512 59.9787 65.6188 57.8936 67.3003 55.5479 70.6633 50.8565 73.4657 46.6809 75.1472 44.5958 76.8345 42.7713 78.516 41.2075 80.4778 39.6437 75.1472 46.6809 72.625 50.0746 70.6633 53.4628 69.262 56.5904 68.9818 57.8936 68.7015 58.9362 68.9818 59.9787 69.5423 60.5054 70.383 61.0267 71.504 61.2873 73.1855 61.2873 75.1472 60.766 76.8345 60.2393 78.7963 59.4574 82.4395 57.3724 85.8025 54.766 89.1713 51.899 91.9738 48.766 94.496 45.899 96.4577 43.2926 94.496 47.2021 93.6552 49.5479 93.0947 51.6384 92.5343 53.7235 92.5343 55.5479 92.5343 56.3298 92.8145 56.8511 93.375 57.3724 93.9355 57.633 95.0565 57.8936 97.2985 57.8936 98.4194 57.3724 101.228 56.0692 103.75 54.2447 106.272 52.1596 108.514 49.8085 110.202 47.4628 111.323 45.1171 113.564 47.4628 115.806 50.0746 118.329 52.9416 121.417 55.5479 124.22 57.633 125.621 58.1543 126.742 58.6755 127.863 58.4149 128.984 57.8936 129.544 57.3724 129.825 56.3298 130.105 55.0266 130.105 53.4628 132.067 56.3298 134.034 58.9362 135.436 61.8086 136.837 64.6756 138.798 70.1489 140.2 75.1064 141.321 79.2766 141.881 82.6703 142.161 85.7979 144.97 81.6277 147.212 77.4521 149.173 73.0213 150.575 68.8457 151.696 64.6756 152.256 60.5054 152.256 56.3298 151.976 52.1596 155.905 53.7235 157.587 54.2447 159.268 54.766 162.631 54.766 163.752 54.2447 164.873 53.4628 165.434 52.9416 165.72 52.1596 166 50.5958 165.434 49.0266 164.593 47.2021 163.192 45.1171 161.79 43.032 157.867 38.8564 153.657 34.9469 150.014 31.5586 146.371 28.4255 152.256 28.4255 155.625 27.9043 158.988 27.383 160.389 26.8617 161.79 26.3405 162.911 25.5586 163.752 24.516 164.032 23.4735 164.032 22.1703 164.032 21.649 163.472 21.1278 162.071 19.8246 160.109 18.7766 157.867 17.7341 155.064 16.9522 151.696 15.9096 144.97 14.6064 138.238 13.5639 132.633 12.782 126.742 12.2607 119.73 8.87246 113.284 6.00004 110.202 4.69687 107.393 3.65432 100.948 2.09051 94.496 0.787336 87.77 0.266065 80.758 0.0054299Z" fill="#210A06" fill-rule="evenodd" transform="matrix(-1 0 0 1 531 158)"/><path d="M4.69479 0.0059453 3.31397 0.29132 1.93315 0.576694 0.828493 0.862069 0.276164 1.43282 0 2.28894 0 2.85969 0.552329 3.43044 0.828493 4.28656 2.48548 5.71344 4.41863 7.14031 6.90986 8.28181 9.67151 9.13793 12.4332 10 16.8575 10 18.2384 9.71462 19.343 9.13793 20.4477 8.28181 20.7238 7.71106 21 6.85493 20.7238 6.28419 20.4477 5.42806 19.8953 4.57194 18.7907 4.00119 16.5814 2.85969 13.814 1.71819 10.7762 0.862069 7.46219 0.29132 4.69479 0.0059453Z" fill="#422D29" fill-rule="evenodd" transform="matrix(-1 0 0 1 426 168)"/><path d="M2.41777 0 1.34569 0.257718 0.809645 0.515436 0.273604 1.03087 0.00558376 1.55168 0.00558376 2.84027 0.541624 3.87114 1.61371 5.15973 2.95381 6.1906 4.56193 6.96376 6.17005 7.73691 8.05178 7.99463 9.6599 7.47919 10.464 7.22148 10.732 6.96376 11 6.44832 11 5.93289 10.464 4.6443 9.12386 3.3557 7.51015 2.06711 5.90203 1.03087 4.02589 0.257718 2.41777 0Z" fill="#422D29" fill-rule="evenodd" transform="matrix(-1 0 0 1 429 176)"/><path d="M6.61505 0 5.55753 0.265081 4.76438 0.800765 2.91371 2.39125 1.58629 4.24681 0.528764 6.36746 0 8.4881 0 9.54843 0.264382 10.6088 0.528764 11.4095 1.05753 11.9397 1.85618 12.4698 2.64933 13 3.17809 13 4.23562 12.7349 5.02876 12.4698 5.82191 11.6746 6.61505 10.8738 7.93696 8.75319 8.73011 6.36746 8.99449 3.98173 8.99449 1.86109 8.73011 1.06585 8.46573 0.530161 7.93696 0Z" fill="#422D29" fill-rule="evenodd" transform="matrix(-1 0 0 1 512 197)"/><path d="M4.9601 0.00550796 3.50304 0.534272 2.33738 1.5918 1.16565 2.91371 0.291414 4.5 0 6.08629 0 7.41371 0.291414 7.94247 0.582827 8.47124 1.16565 8.73562 2.04597 9 3.21162 9 3.79445 8.73562 4.9601 7.67809 6.12576 6.08629 6.70859 4.5 7 2.91371 7 1.32742 6.41717 0.26989 6.12576 0.00550796Z" fill="#422D29" fill-rule="evenodd" transform="matrix(-1 0 0 1 501 202)"/></g></svg>