<svg width="492" height="216" viewBox="0 0 492 216" fill="none" xmlns="http://www.w3.org/2000/svg">
  <path d="M1 1H124V96C124 96 120.199 106.217 112.5 107.5H12C6.58301 105.839 4.07667 103.569 1 96V1Z" fill="#FCE29F" stroke="#FCE29F"/>
  <path d="M20.5 1H1.5V93C1.28295 100.972 4.09773 104.34 14 108.5H48C17.7434 78.2835 14.8237 52.8769 20.5 1Z" fill="#FFCD71"/>
  <path d="M89.012 62.896C89.7373 62.896 90.1 63.8773 90.1 65.84C90.1 66.9067 89.652 68.208 88.756 69.744C87.86 71.2373 86.6867 72.624 85.236 73.904C83.828 75.1413 82.2493 76.1653 80.5 76.976C78.7507 77.7867 77.044 78.192 75.38 78.192C72.8627 78.192 71.1133 77.5733 70.132 76.336C69.1933 75.056 68.724 73.2 68.724 70.768C68.724 68.2933 69.684 64.0693 71.604 58.096C65.716 57.84 61.428 57.712 58.74 57.712H57.844C57.076 62.448 56.692 67.4187 56.692 72.624C56.692 74.928 55.8173 76.5067 54.068 77.36C53.2573 77.744 52.468 78.1067 51.7 78.448C50.9747 78.7893 50.1853 78.96 49.332 78.96C47.1987 78.96 46.132 77.04 46.132 73.2C46.132 69.36 47.0067 64.432 48.756 58.416C46.8787 58.6293 45.2147 58.8427 43.764 59.056C42.356 59.2693 41.2467 59.376 40.436 59.376C39.6253 59.376 39.22 59.1627 39.22 58.736C39.22 57.456 40.2653 56.1547 42.356 54.832C44.4893 53.5093 47.3693 52.5067 50.996 51.824C55.0067 41.6267 59.9133 34.8213 65.716 31.408C67.8493 30.128 70.1107 29.488 72.5 29.488C76.7667 29.5307 79.8387 30.6827 81.716 32.944C83.636 35.2053 84.596 38.2133 84.596 41.968C84.6387 45.68 83.508 50.5227 81.204 56.496C80.3507 58.8 79.5613 60.8907 78.836 62.768C78.1107 64.6453 77.748 66.16 77.748 67.312C77.748 68.464 77.8333 69.3387 78.004 69.936C78.1747 70.5333 78.58 70.832 79.22 70.832C80.372 70.832 83.0813 68.6133 87.348 64.176C88.116 63.3227 88.6707 62.896 89.012 62.896ZM75.38 43.824C75.38 40.112 73.9933 38.256 71.22 38.256C68.404 38.256 65.972 39.4507 63.924 41.84C61.9187 44.1867 60.3613 47.344 59.252 51.312L73.78 51.504C74.8467 48.0907 75.38 45.5307 75.38 43.824Z" fill="#C8A9F1"/>
  <path d="M123 1H246V96C246 96 242.199 106.217 234.5 107.5H134C128.583 105.839 126.077 103.569 123 96V1Z" fill="#696EB1"/>
  <path d="M142.5 1H123.5V93C123.283 100.972 126.098 104.34 136 108.5H170C139.743 78.2835 136.824 52.8769 142.5 1Z" fill="#4C5698"/>
  <path d="M199.94 65.008C199.94 68.8907 200.473 70.832 201.54 70.832C202.18 70.832 202.969 70.4267 203.908 69.616C204.847 68.8053 205.785 67.9307 206.724 66.992C207.663 66.0107 208.516 65.1147 209.284 64.304C210.095 63.4933 210.649 63.088 210.948 63.088C211.545 63.088 211.844 63.8133 211.844 65.264C211.844 68.2507 210.329 71.152 207.3 73.968C204.313 76.784 201.113 78.192 197.7 78.192C195.567 78.2347 194.116 77.3173 193.348 75.44C192.751 73.9467 192.452 71.5573 192.452 68.272C189.593 74.8853 185.348 78.192 179.716 78.192C175.919 78.192 172.889 77.2533 170.628 75.376C168.409 73.456 167.3 70.448 167.3 66.352C167.3 65.3707 167.833 62.7893 168.9 58.608C170.009 54.384 170.884 50.928 171.524 48.24C172.164 45.5093 172.484 43.3547 172.484 41.776C172.484 38.32 171.609 36.592 169.86 36.592C169.263 36.592 168.708 36.7627 168.196 37.104C167.727 37.4453 167.236 37.808 166.724 38.192C166.255 38.576 165.764 38.9387 165.252 39.28C164.74 39.6213 164.143 39.792 163.46 39.792C162.82 39.792 162.5 39.216 162.5 38.064C162.5 35.7173 163.588 33.7973 165.764 32.304C167.855 30.768 170.351 30 173.252 30C176.153 30 178.329 31.1947 179.78 33.584C180.889 35.3333 181.444 37.3173 181.444 39.536C181.444 41.712 181.209 43.8453 180.74 45.936C180.271 47.984 179.759 50.096 179.204 52.272C178.692 54.448 178.201 56.6667 177.732 58.928C177.263 61.1467 177.028 62.9813 177.028 64.432C177.028 65.84 177.092 66.7787 177.22 67.248C177.817 69.1253 179.268 70.064 181.572 70.064C184.559 70.064 187.161 68.1867 189.38 64.432C191.257 61.2747 192.58 57.4347 193.348 52.912L193.732 50.032L193.476 36.656C193.476 34.6933 194.329 33.072 196.036 31.792C197.743 30.512 199.535 29.8933 201.412 29.936C202.18 29.936 202.671 30.512 202.884 31.664C203.097 32.7733 203.204 34.0107 203.204 35.376C203.204 36.7413 203.119 38.064 202.948 39.344C202.777 40.5813 202.564 42.032 202.308 43.696C202.095 45.3173 201.839 47.0667 201.54 48.944C200.431 56.6667 199.897 62.0213 199.94 65.008Z" fill="#EEEDFF"/>
  <path d="M246 1H369V96C369 96 365.199 106.217 357.5 107.5H257C251.583 105.839 249.077 103.569 246 96V1Z" fill="#7DE2FF"/>
  <path d="M265.5 1H246.5V93C246.283 100.972 249.098 104.34 259 108.5H293C262.743 78.2835 259.824 52.8769 265.5 1Z" fill="#2ECFFB"/>
  <path d="M306.044 75.184C306.044 77.7013 303.591 78.96 298.684 78.96C297.617 78.96 296.977 78.4267 296.764 77.36C296.593 76.2507 296.508 74.8853 296.508 73.264C296.508 71.6427 296.615 69.9147 296.828 68.08C297.084 66.2027 297.404 64.176 297.788 62C298.513 57.8187 299.537 53.3173 300.86 48.496C302.225 43.632 303.569 39.8773 304.892 37.232C302.204 37.4027 299.537 37.8933 296.892 38.704C294.247 39.472 292.369 40.0267 291.26 40.368C290.151 40.6667 289.233 40.816 288.508 40.816C287.783 40.816 287.42 40.5813 287.42 40.112C287.42 39.5573 287.847 38.7467 288.7 37.68C289.553 36.5707 290.769 35.4613 292.348 34.352C296.359 31.6213 300.817 30.2347 305.724 30.192L326.78 30.384C327.932 30.384 328.508 30.832 328.508 31.728C328.508 31.984 328.337 32.4533 327.996 33.136C327.655 33.776 327.356 34.48 327.1 35.248C326.545 36.784 325.372 37.552 323.58 37.552C321.831 37.552 317.628 37.424 310.972 37.168C310.801 39.0453 310.46 41.456 309.948 44.4C309.436 47.3013 308.881 50.48 308.284 53.936C306.833 62.768 306.087 69.8507 306.044 75.184Z" fill="#FF8D9D"/>
  <path d="M0 108H123V203C123 203 119.199 213.217 111.5 214.5H11C5.58301 212.839 3.07667 210.569 0 203V108Z" fill="#FF8D9D"/>
  <path d="M19.5 108H0.5V200C0.282946 207.972 3.09773 211.34 13 215.5H47C16.7434 185.284 13.8237 159.877 19.5 108Z" fill="#E95B70"/>
  <path d="M65.196 183.528C65.196 184.723 64.3427 185.32 62.636 185.32C59.948 185.32 58.1133 184.808 57.132 183.784C56.1507 182.717 55.66 180.947 55.66 178.472C55.7027 174.632 56.748 168.488 58.796 160.04C60.8867 151.592 62.8493 145.32 64.684 141.224C65.1533 140.157 65.8147 139.155 66.668 138.216C67.5213 137.235 68.652 136.744 70.06 136.744C70.6573 136.744 71.148 137.107 71.532 137.832C71.9587 138.557 72.172 139.389 72.172 140.328C72.172 141.267 72.0013 142.675 71.66 144.552C71.3187 146.387 70.892 148.499 70.38 150.888C69.868 153.277 69.292 155.859 68.652 158.632C66.348 169.171 65.196 177.469 65.196 183.528Z" fill="#FCE29F"/>
  <path d="M123 108H246V203C246 203 242.199 213.217 234.5 214.5H134C128.583 212.839 126.077 210.569 123 203V108Z" fill="#71DBBA"/>
  <path d="M142.5 108H123.5V200C123.283 207.972 126.098 211.34 136 215.5H170C139.743 185.284 136.824 159.877 142.5 108Z" fill="#30CC9B"/>
  <path d="M173.566 171.496C173.566 175.208 175.145 177.064 178.302 177.064C181.758 177.064 184.083 175.869 185.278 173.48C185.705 172.627 185.918 171.539 185.918 170.216C185.918 168.851 185.598 167.592 184.958 166.44C183.891 164.605 182.057 162.579 179.454 160.36C175.145 156.691 172.99 152.893 172.99 148.968C172.99 145 174.227 141.949 176.702 139.816C179.177 137.683 182.014 136.616 185.214 136.616C188.414 136.616 190.953 137.427 192.83 139.048C194.707 140.669 195.646 143.101 195.646 146.344C195.646 148.477 194.921 150.333 193.47 151.912C192.062 153.491 190.185 154.472 187.838 154.856C188.905 155.752 189.971 156.669 191.038 157.608C192.062 158.547 193.001 159.571 193.854 160.68C195.731 163.197 196.67 166.205 196.67 169.704C196.67 172.136 196.094 174.333 194.942 176.296C193.833 178.259 192.361 179.923 190.526 181.288C188.734 182.611 186.707 183.635 184.446 184.36C182.185 185.085 180.073 185.448 178.11 185.448C173.929 185.448 170.686 184.488 168.382 182.568C165.694 180.392 164.35 177.256 164.35 173.16C164.35 170.472 165.225 167.869 166.974 165.352C168.723 162.835 170.579 161.576 172.542 161.576C174.078 161.576 174.846 162.045 174.846 162.984C174.846 164.349 174.633 165.715 174.206 167.08C173.779 168.403 173.566 169.875 173.566 171.496ZM185.982 153.32C188.414 150.888 189.63 148.349 189.63 145.704C189.63 144.893 189.203 144.211 188.35 143.656C187.411 143.144 186.43 142.888 185.406 142.888C183.102 142.888 181.438 143.635 180.414 145.128C180.926 146.963 181.673 148.52 182.654 149.8C183.678 151.08 184.787 152.253 185.982 153.32Z" fill="#696EB1"/>
  <path d="M246 108H369V203C369 203 365.199 213.217 357.5 214.5H257C251.583 212.839 249.077 210.569 246 203V108Z" fill="#C8A9F1"/>
  <path d="M265.5 108H246.5V200C246.283 207.972 249.098 211.34 259 215.5H293C262.743 185.284 259.824 159.877 265.5 108Z" fill="#B18AE3"/>
  <path d="M350.459 169.896C351.184 169.896 351.547 170.877 351.547 172.84C351.547 173.907 351.099 175.208 350.202 176.744C349.307 178.237 348.133 179.624 346.683 180.904C345.275 182.141 343.696 183.165 341.947 183.976C340.197 184.787 338.341 185.192 336.379 185.192C334.459 185.192 332.944 184.573 331.835 183.336C330.768 182.056 330.235 180.648 330.235 179.112C330.235 177.533 330.491 175.763 331.003 173.8C331.515 171.837 332.069 169.789 332.667 167.656C334.288 161.981 335.12 157.992 335.163 155.688C335.163 154.707 335.035 153.96 334.779 153.448C334.523 152.893 334.032 152.616 333.307 152.616C332.027 152.616 330.661 153.384 329.211 154.92C327.76 156.456 326.395 158.419 325.115 160.808C322.171 166.269 320.613 171.603 320.443 176.808C320.528 177.405 320.613 178.003 320.699 178.6C320.784 179.197 320.826 179.837 320.826 180.52C320.826 181.885 320.144 183.144 318.779 184.296C317.456 185.405 315.963 185.96 314.299 185.96C313.317 185.96 312.592 185.491 312.123 184.552C311.653 183.571 311.419 182.376 311.419 180.968C311.419 179.56 311.739 177.64 312.379 175.208C313.019 172.776 313.723 170.195 314.491 167.464C316.539 160.253 317.584 154.877 317.627 151.336C317.627 149.544 317.392 148.136 316.923 147.112C316.496 146.088 315.643 145.576 314.363 145.576C312.059 145.576 309.776 147.219 307.515 150.504C305.253 153.789 303.227 158.888 301.435 165.8C300.965 167.592 300.603 169.149 300.347 170.472L300.283 171.688C301.093 175.613 301.499 178.173 301.499 179.368C301.499 181.843 300.624 183.507 298.875 184.36C298.064 184.744 297.275 185.107 296.507 185.448C295.781 185.789 294.992 185.96 294.139 185.96C292.005 185.96 290.939 183.933 290.939 179.88C290.939 175.784 292.069 167.805 294.331 155.944C295.141 151.677 295.547 149.288 295.547 148.776C295.547 145.32 294.672 143.592 292.923 143.592C292.325 143.592 291.771 143.763 291.259 144.104C290.789 144.445 290.299 144.808 289.786 145.192C289.317 145.576 288.827 145.939 288.315 146.28C287.803 146.621 287.205 146.792 286.523 146.792C285.883 146.792 285.562 146.216 285.562 145.064C285.562 142.717 286.651 140.797 288.827 139.304C290.917 137.768 293.456 137 296.443 137C300.283 137 302.544 138.792 303.227 142.376C303.397 143.443 303.525 144.573 303.611 145.768C306.768 139.837 310.757 136.872 315.579 136.872C320.827 136.872 323.835 139.389 324.603 144.424C324.859 145.875 324.965 147.432 324.923 149.096V149.608C327.696 145.768 330.981 143.848 334.779 143.848C340.155 143.848 342.843 147.091 342.843 153.576C342.843 156.392 342.395 159.699 341.499 163.496C340.645 167.251 340.005 169.96 339.579 171.624C339.195 173.245 339.003 174.504 339.003 175.4C339.003 177.021 339.557 177.832 340.667 177.832C341.819 177.832 344.528 175.613 348.795 171.176C349.563 170.323 350.117 169.896 350.459 169.896Z" fill="#FCE29F"/>
  <path d="M369 108H492V203C492 203 488.199 213.217 480.5 214.5H380C374.583 212.839 372.077 210.569 369 203V108Z" fill="#FCE29F"/>
  <path d="M388.5 108H369.5V200C369.283 207.972 372.098 211.34 382 215.5H416C385.743 185.284 382.824 159.877 388.5 108Z" fill="#FFCD71"/>
  <path d="M456.452 143.4C456.452 143.869 455.812 144.104 454.532 144.104C454.062 144.104 453.444 144.04 452.676 143.912C451.908 143.784 450.478 143.592 448.388 143.336C446.297 143.08 444.057 142.952 441.668 142.952C439.321 142.952 437.188 143.592 435.268 144.872C433.348 146.109 431.726 147.709 430.404 149.672C429.124 151.635 428.121 153.832 427.396 156.264C426.713 158.696 426.372 161.085 426.372 163.432C426.372 167.699 427.353 171.027 429.316 173.416C431.278 175.805 434.009 177 437.508 177C443.822 177 448.665 174.76 452.036 170.28C453.06 168.915 453.892 167.4 454.532 165.736C451.417 165.352 449.028 164.2 447.364 162.28C445.7 160.317 444.868 157.928 444.868 155.112C444.868 152.253 445.657 149.992 447.236 148.328C448.814 146.664 450.926 145.832 453.572 145.832C456.26 145.832 458.308 146.856 459.716 148.904C461.166 150.909 461.892 153.448 461.892 156.52C461.892 157.587 461.849 158.589 461.764 159.528C462.532 159.187 463.172 158.824 463.684 158.44C464.196 158.056 464.708 157.864 465.22 157.864C466.073 157.864 466.5 158.227 466.5 158.952C466.5 160.445 465.988 161.747 464.964 162.856C463.982 163.923 462.66 164.733 460.996 165.288C459.716 171.517 456.985 176.445 452.804 180.072C448.665 183.699 443.289 185.512 436.676 185.512C430.062 185.512 424.9 183.507 421.188 179.496C417.945 175.955 416.324 171.411 416.324 165.864C416.324 162.109 416.921 158.483 418.116 154.984C419.353 151.485 421.081 148.392 423.3 145.704C425.561 143.016 428.292 140.861 431.492 139.24C434.692 137.619 438.276 136.808 442.244 136.808C446.254 136.808 449.625 137.512 452.356 138.92C455.086 140.328 456.452 141.821 456.452 143.4ZM454.404 151.464C453.508 151.464 453.06 152.189 453.06 153.64C453.06 156.2 454.084 158.056 456.132 159.208C456.26 158.056 456.324 156.861 456.324 155.624C456.324 152.851 455.684 151.464 454.404 151.464Z" fill="#C8A9F1"/>
</svg>
