<svg viewBox="0 0 396 306" fill="none" xmlns="http://www.w3.org/2000/svg">
  <g clip-path="url(#clip0_37_414)">
    <path
      d="M79.2469 276.12C78.1429 276.12 77.1429 275.848 76.2469 275.304C75.3669 274.76 74.6709 273.976 74.1589 272.952C73.6469 271.912 73.3909 270.688 73.3909 269.28C73.3909 266.848 73.9109 264.6 74.9509 262.536C75.9909 260.456 77.5269 258.792 79.5589 257.544C81.5909 256.28 84.0309 255.648 86.8789 255.648C87.6149 255.648 88.3989 255.704 89.2309 255.816C90.0789 255.928 90.8469 256.096 91.5349 256.32C91.9829 256.448 92.2069 256.768 92.2069 257.28C92.2069 257.696 92.0469 258.088 91.7269 258.456C91.4229 258.824 91.0629 259.008 90.6469 259.008C90.5189 259.008 90.4229 259 90.3589 258.984C89.5269 258.792 88.8149 258.656 88.2229 258.576C87.6309 258.48 87.0069 258.432 86.3509 258.432C84.3189 258.432 82.5909 258.928 81.1669 259.92C79.7429 260.896 78.6789 262.192 77.9749 263.808C77.2709 265.424 76.9189 267.168 76.9189 269.04C76.9189 270.4 77.1829 271.456 77.7109 272.208C78.2549 272.944 78.9589 273.312 79.8229 273.312C80.7989 273.312 81.6549 272.912 82.3909 272.112C83.1269 271.312 83.7989 270.016 84.4069 268.224C85.0149 266.432 85.6149 264 86.2069 260.928C86.3029 260.48 86.4949 260.176 86.7829 260.016C87.0709 259.856 87.4549 259.776 87.9349 259.776C89.0709 259.776 89.6389 260.144 89.6389 260.88C89.6389 261.008 89.6149 261.168 89.5669 261.36C89.1509 262.912 88.7669 264.632 88.4149 266.52C88.0789 268.392 87.9109 269.816 87.9109 270.792C87.9109 271.656 88.0389 272.288 88.2949 272.688C88.5509 273.072 88.9429 273.264 89.4709 273.264C89.9829 273.264 90.4709 273.096 90.9349 272.76C91.3989 272.408 91.9829 271.816 92.6869 270.984C92.8789 270.76 93.0949 270.648 93.3349 270.648C93.5429 270.648 93.7029 270.744 93.8149 270.936C93.9429 271.128 94.0069 271.392 94.0069 271.728C94.0069 272.352 93.8549 272.848 93.5509 273.216C92.7669 274.16 91.9989 274.88 91.2469 275.376C90.4949 275.872 89.5749 276.12 88.4869 276.12C87.3669 276.12 86.4629 275.8 85.7749 275.16C85.0869 274.504 84.6549 273.584 84.4789 272.4C83.2949 274.88 81.5509 276.12 79.2469 276.12ZM108.77 270.648C108.978 270.648 109.138 270.744 109.25 270.936C109.378 271.128 109.442 271.392 109.442 271.728C109.442 272.368 109.29 272.864 108.986 273.216C108.298 274.064 107.546 274.76 106.73 275.304C105.914 275.848 104.978 276.12 103.922 276.12C100.658 276.12 99.0261 273.824 99.0261 269.232C99.0261 268.528 99.0501 267.816 99.0981 267.096H98.1621C97.6821 267.096 97.3541 267.008 97.1781 266.832C97.0181 266.656 96.9381 266.376 96.9381 265.992C96.9381 265.096 97.2981 264.648 98.0181 264.648H99.3861C99.6581 262.888 100.074 261.28 100.634 259.824C101.194 258.368 101.866 257.208 102.65 256.344C103.45 255.48 104.306 255.048 105.218 255.048C105.89 255.048 106.418 255.344 106.802 255.936C107.186 256.528 107.378 257.272 107.378 258.168C107.378 260.648 106.338 262.808 104.258 264.648H106.946C107.202 264.648 107.386 264.704 107.498 264.816C107.61 264.928 107.666 265.136 107.666 265.44C107.666 266.544 106.762 267.096 104.954 267.096H102.026C101.994 267.896 101.978 268.52 101.978 268.968C101.978 270.632 102.17 271.8 102.554 272.472C102.954 273.144 103.578 273.48 104.426 273.48C105.114 273.48 105.722 273.272 106.25 272.856C106.778 272.44 107.402 271.816 108.122 270.984C108.314 270.76 108.53 270.648 108.77 270.648ZM104.57 257.352C104.33 257.352 104.058 257.656 103.754 258.264C103.466 258.856 103.186 259.688 102.914 260.76C102.658 261.816 102.442 262.992 102.266 264.288C103.21 263.472 103.914 262.56 104.378 261.552C104.858 260.528 105.098 259.6 105.098 258.768C105.098 257.824 104.922 257.352 104.57 257.352ZM116.632 263.232C115.96 263.232 115.456 263.08 115.12 262.776C114.784 262.456 114.616 262.016 114.616 261.456C114.616 260.896 114.832 260.432 115.264 260.064C115.712 259.68 116.264 259.488 116.92 259.488C117.512 259.488 117.992 259.632 118.36 259.92C118.728 260.208 118.912 260.616 118.912 261.144C118.912 261.784 118.704 262.296 118.288 262.68C117.872 263.048 117.32 263.232 116.632 263.232ZM116.44 276.12C115.4 276.12 114.64 275.752 114.16 275.016C113.696 274.28 113.464 273.304 113.464 272.088C113.464 271.368 113.552 270.448 113.728 269.328C113.92 268.192 114.16 267.136 114.448 266.16C114.592 265.648 114.784 265.296 115.024 265.104C115.264 264.912 115.648 264.816 116.176 264.816C116.992 264.816 117.4 265.088 117.4 265.632C117.4 266.032 117.248 266.96 116.944 268.416C116.56 270.176 116.368 271.368 116.368 271.992C116.368 272.472 116.432 272.84 116.56 273.096C116.688 273.352 116.904 273.48 117.208 273.48C117.496 273.48 117.856 273.28 118.288 272.88C118.72 272.48 119.296 271.848 120.016 270.984C120.208 270.76 120.424 270.648 120.664 270.648C120.872 270.648 121.032 270.744 121.144 270.936C121.272 271.128 121.336 271.392 121.336 271.728C121.336 272.368 121.184 272.864 120.88 273.216C119.296 275.152 117.816 276.12 116.44 276.12ZM137.509 268.704C137.557 268.688 137.637 268.68 137.749 268.68C137.989 268.68 138.173 268.76 138.301 268.92C138.429 269.08 138.493 269.296 138.493 269.568C138.493 270.064 138.397 270.456 138.205 270.744C138.013 271.016 137.725 271.216 137.341 271.344C136.605 271.584 135.821 271.704 134.989 271.704C134.285 271.704 133.621 271.608 132.997 271.416C132.533 272.168 132.021 272.944 131.461 273.744C130.821 274.656 130.269 275.28 129.805 275.616C129.341 275.952 128.813 276.12 128.221 276.12C127.565 276.12 127.045 275.864 126.661 275.352C126.293 274.84 126.061 274.032 125.965 272.928C125.773 270.688 125.677 268.728 125.677 267.048V266.208C125.693 265.68 125.837 265.312 126.109 265.104C126.381 264.896 126.789 264.792 127.333 264.792C127.749 264.792 128.053 264.888 128.245 265.08C128.453 265.256 128.557 265.56 128.557 265.992C128.557 267.832 128.669 270.224 128.893 273.168C129.853 271.744 130.573 270.608 131.053 269.76C130.813 269.296 130.693 268.744 130.693 268.104C130.693 267.56 130.813 267.032 131.053 266.52C131.293 266.008 131.621 265.592 132.037 265.272C132.453 264.952 132.925 264.792 133.453 264.792C133.917 264.792 134.293 264.96 134.581 265.296C134.869 265.616 135.013 266.088 135.013 266.712C135.013 267.432 134.821 268.256 134.437 269.184C135.045 269.152 135.853 269.032 136.861 268.824L137.509 268.704ZM145.554 263.232C144.882 263.232 144.378 263.08 144.042 262.776C143.706 262.456 143.538 262.016 143.538 261.456C143.538 260.896 143.754 260.432 144.186 260.064C144.634 259.68 145.186 259.488 145.842 259.488C146.434 259.488 146.914 259.632 147.282 259.92C147.65 260.208 147.834 260.616 147.834 261.144C147.834 261.784 147.626 262.296 147.21 262.68C146.794 263.048 146.242 263.232 145.554 263.232ZM145.362 276.12C144.322 276.12 143.562 275.752 143.082 275.016C142.618 274.28 142.386 273.304 142.386 272.088C142.386 271.368 142.474 270.448 142.65 269.328C142.842 268.192 143.082 267.136 143.37 266.16C143.514 265.648 143.706 265.296 143.946 265.104C144.186 264.912 144.57 264.816 145.098 264.816C145.914 264.816 146.322 265.088 146.322 265.632C146.322 266.032 146.17 266.96 145.866 268.416C145.482 270.176 145.29 271.368 145.29 271.992C145.29 272.472 145.354 272.84 145.482 273.096C145.61 273.352 145.826 273.48 146.13 273.48C146.418 273.48 146.778 273.28 147.21 272.88C147.642 272.48 148.218 271.848 148.938 270.984C149.13 270.76 149.346 270.648 149.586 270.648C149.794 270.648 149.954 270.744 150.066 270.936C150.194 271.128 150.258 271.392 150.258 271.728C150.258 272.368 150.106 272.864 149.802 273.216C148.218 275.152 146.738 276.12 145.362 276.12ZM167.948 270.648C168.156 270.648 168.316 270.744 168.428 270.936C168.556 271.128 168.62 271.392 168.62 271.728C168.62 272.368 168.468 272.864 168.164 273.216C167.508 274.016 166.788 274.704 166.004 275.28C165.22 275.84 164.444 276.12 163.676 276.12C162.46 276.12 161.532 275.408 160.892 273.984C160.22 274.832 159.628 275.4 159.116 275.688C158.62 275.976 158.036 276.12 157.364 276.12C156.388 276.12 155.58 275.76 154.94 275.04C154.316 274.304 154.004 273.352 154.004 272.184C154.004 270.904 154.276 269.72 154.82 268.632C155.364 267.528 156.108 266.632 157.052 265.944C158.012 265.24 159.084 264.824 160.268 264.696C160.572 261.592 161.148 258.944 161.996 256.752C162.86 254.544 163.988 253.44 165.38 253.44C166.068 253.44 166.636 253.752 167.084 254.376C167.548 255 167.78 255.944 167.78 257.208C167.78 259 167.34 261.096 166.46 263.496C165.58 265.896 164.404 268.36 162.932 270.888C162.996 271.816 163.132 272.48 163.34 272.88C163.564 273.28 163.844 273.48 164.18 273.48C164.612 273.48 165.052 273.288 165.5 272.904C165.948 272.52 166.548 271.88 167.3 270.984C167.492 270.76 167.708 270.648 167.948 270.648ZM165.116 255.792C164.812 255.792 164.508 256.336 164.204 257.424C163.9 258.496 163.636 259.904 163.412 261.648C163.204 263.392 163.052 265.216 162.956 267.12C164.748 263.216 165.644 260.08 165.644 257.712C165.644 257.104 165.588 256.632 165.476 256.296C165.38 255.96 165.26 255.792 165.116 255.792ZM158.204 273.696C158.508 273.696 158.812 273.576 159.116 273.336C159.42 273.08 159.804 272.616 160.268 271.944C160.108 271.08 160.028 270.112 160.028 269.04C160.028 268.656 160.044 268.032 160.076 267.168C159.196 267.44 158.46 268.032 157.868 268.944C157.292 269.84 157.004 270.84 157.004 271.944C157.004 273.112 157.404 273.696 158.204 273.696ZM175.385 276.12C174.393 276.12 173.601 275.76 173.009 275.04C172.417 274.32 172.121 273.376 172.121 272.208C172.121 270.928 172.417 269.72 173.009 268.584C173.601 267.432 174.385 266.512 175.361 265.824C176.353 265.12 177.401 264.768 178.505 264.768C178.857 264.768 179.089 264.84 179.201 264.984C179.329 265.112 179.433 265.352 179.513 265.704C179.849 265.64 180.201 265.608 180.569 265.608C181.353 265.608 181.745 265.888 181.745 266.448C181.745 266.784 181.625 267.584 181.385 268.848C181.017 270.688 180.833 271.968 180.833 272.688C180.833 272.928 180.889 273.12 181.001 273.264C181.129 273.408 181.289 273.48 181.481 273.48C181.785 273.48 182.153 273.288 182.585 272.904C183.017 272.504 183.601 271.864 184.337 270.984C184.529 270.76 184.745 270.648 184.985 270.648C185.193 270.648 185.353 270.744 185.465 270.936C185.593 271.128 185.657 271.392 185.657 271.728C185.657 272.368 185.505 272.864 185.201 273.216C184.545 274.032 183.849 274.72 183.113 275.28C182.377 275.84 181.665 276.12 180.977 276.12C180.449 276.12 179.961 275.944 179.513 275.592C179.081 275.224 178.753 274.728 178.529 274.104C177.697 275.448 176.649 276.12 175.385 276.12ZM176.249 273.696C176.601 273.696 176.937 273.488 177.257 273.072C177.577 272.656 177.809 272.104 177.953 271.416L178.841 267C178.169 267.016 177.545 267.272 176.969 267.768C176.409 268.248 175.961 268.888 175.625 269.688C175.289 270.488 175.121 271.336 175.121 272.232C175.121 272.728 175.217 273.096 175.409 273.336C175.617 273.576 175.897 273.696 176.249 273.696ZM203.339 270.648C203.547 270.648 203.707 270.744 203.819 270.936C203.947 271.128 204.011 271.392 204.011 271.728C204.011 272.368 203.859 272.864 203.555 273.216C202.899 274.016 202.179 274.704 201.395 275.28C200.611 275.84 199.835 276.12 199.067 276.12C197.851 276.12 196.923 275.408 196.283 273.984C195.611 274.832 195.019 275.4 194.507 275.688C194.011 275.976 193.427 276.12 192.755 276.12C191.779 276.12 190.971 275.76 190.331 275.04C189.707 274.304 189.395 273.352 189.395 272.184C189.395 270.904 189.667 269.72 190.211 268.632C190.755 267.528 191.499 266.632 192.443 265.944C193.403 265.24 194.475 264.824 195.659 264.696C195.963 261.592 196.539 258.944 197.387 256.752C198.251 254.544 199.379 253.44 200.771 253.44C201.459 253.44 202.027 253.752 202.475 254.376C202.939 255 203.171 255.944 203.171 257.208C203.171 259 202.731 261.096 201.851 263.496C200.971 265.896 199.795 268.36 198.323 270.888C198.387 271.816 198.523 272.48 198.731 272.88C198.955 273.28 199.235 273.48 199.571 273.48C200.003 273.48 200.443 273.288 200.891 272.904C201.339 272.52 201.939 271.88 202.691 270.984C202.883 270.76 203.099 270.648 203.339 270.648ZM200.507 255.792C200.203 255.792 199.899 256.336 199.595 257.424C199.291 258.496 199.027 259.904 198.803 261.648C198.595 263.392 198.443 265.216 198.347 267.12C200.139 263.216 201.035 260.08 201.035 257.712C201.035 257.104 200.979 256.632 200.867 256.296C200.771 255.96 200.651 255.792 200.507 255.792ZM193.595 273.696C193.899 273.696 194.203 273.576 194.507 273.336C194.811 273.08 195.195 272.616 195.659 271.944C195.499 271.08 195.419 270.112 195.419 269.04C195.419 268.656 195.435 268.032 195.467 267.168C194.587 267.44 193.851 268.032 193.259 268.944C192.683 269.84 192.395 270.84 192.395 271.944C192.395 273.112 192.795 273.696 193.595 273.696ZM216.65 271.368C216.858 271.368 217.018 271.464 217.13 271.656C217.258 271.848 217.322 272.112 217.322 272.448C217.322 273.024 217.186 273.52 216.914 273.936C216.466 274.624 215.874 275.16 215.138 275.544C214.418 275.928 213.554 276.12 212.546 276.12C211.01 276.12 209.818 275.664 208.97 274.752C208.122 273.824 207.698 272.576 207.698 271.008C207.698 269.904 207.93 268.88 208.394 267.936C208.858 266.976 209.498 266.216 210.314 265.656C211.146 265.096 212.082 264.816 213.122 264.816C214.05 264.816 214.794 265.096 215.354 265.656C215.914 266.2 216.194 266.944 216.194 267.888C216.194 268.992 215.794 269.944 214.994 270.744C214.21 271.528 212.866 272.152 210.962 272.616C211.346 273.352 211.994 273.72 212.906 273.72C213.562 273.72 214.098 273.568 214.514 273.264C214.946 272.96 215.442 272.448 216.002 271.728C216.194 271.488 216.41 271.368 216.65 271.368ZM212.714 267.168C212.122 267.168 211.618 267.512 211.202 268.2C210.802 268.888 210.602 269.72 210.602 270.696V270.744C211.546 270.52 212.29 270.184 212.834 269.736C213.378 269.288 213.65 268.768 213.65 268.176C213.65 267.872 213.562 267.632 213.386 267.456C213.226 267.264 213.002 267.168 212.714 267.168ZM249.909 270.648C250.117 270.648 250.277 270.744 250.389 270.936C250.517 271.128 250.581 271.392 250.581 271.728C250.581 272.368 250.429 272.864 250.125 273.216C249.469 274.016 248.749 274.704 247.965 275.28C247.181 275.84 246.405 276.12 245.637 276.12C244.421 276.12 243.493 275.408 242.853 273.984C242.181 274.832 241.589 275.4 241.077 275.688C240.581 275.976 239.997 276.12 239.325 276.12C238.349 276.12 237.541 275.76 236.901 275.04C236.277 274.304 235.965 273.352 235.965 272.184C235.965 270.904 236.237 269.72 236.781 268.632C237.325 267.528 238.069 266.632 239.013 265.944C239.973 265.24 241.045 264.824 242.229 264.696C242.533 261.592 243.109 258.944 243.957 256.752C244.821 254.544 245.949 253.44 247.341 253.44C248.029 253.44 248.597 253.752 249.045 254.376C249.509 255 249.741 255.944 249.741 257.208C249.741 259 249.301 261.096 248.421 263.496C247.541 265.896 246.365 268.36 244.893 270.888C244.957 271.816 245.093 272.48 245.301 272.88C245.525 273.28 245.805 273.48 246.141 273.48C246.573 273.48 247.013 273.288 247.461 272.904C247.909 272.52 248.509 271.88 249.261 270.984C249.453 270.76 249.669 270.648 249.909 270.648ZM247.077 255.792C246.773 255.792 246.469 256.336 246.165 257.424C245.861 258.496 245.597 259.904 245.373 261.648C245.165 263.392 245.013 265.216 244.917 267.12C246.709 263.216 247.605 260.08 247.605 257.712C247.605 257.104 247.549 256.632 247.437 256.296C247.341 255.96 247.221 255.792 247.077 255.792ZM240.165 273.696C240.469 273.696 240.773 273.576 241.077 273.336C241.381 273.08 241.765 272.616 242.229 271.944C242.069 271.08 241.989 270.112 241.989 269.04C241.989 268.656 242.005 268.032 242.037 267.168C241.157 267.44 240.421 268.032 239.829 268.944C239.253 269.84 238.965 270.84 238.965 271.944C238.965 273.112 239.365 273.696 240.165 273.696ZM258.685 276.12C257.741 276.12 256.933 275.888 256.261 275.424C255.605 274.944 255.109 274.32 254.773 273.552C254.437 272.784 254.269 271.96 254.269 271.08C254.269 269.864 254.493 268.784 254.941 267.84C255.405 266.88 256.029 266.136 256.813 265.608C257.597 265.064 258.477 264.792 259.453 264.792C260.397 264.792 261.205 265.032 261.877 265.512C262.549 265.976 263.053 266.592 263.389 267.36C263.725 268.128 263.893 268.952 263.893 269.832C263.893 271.048 263.661 272.136 263.197 273.096C262.733 274.04 262.101 274.784 261.301 275.328C260.517 275.856 259.645 276.12 258.685 276.12ZM258.949 273.528C259.493 273.528 259.949 273.232 260.317 272.64C260.701 272.048 260.893 271.184 260.893 270.048C260.893 269.168 260.733 268.504 260.413 268.056C260.093 267.608 259.709 267.384 259.261 267.384C258.685 267.384 258.205 267.68 257.821 268.272C257.453 268.848 257.269 269.712 257.269 270.864C257.269 271.776 257.429 272.448 257.749 272.88C258.069 273.312 258.469 273.528 258.949 273.528ZM297.487 270.648C297.695 270.648 297.855 270.744 297.967 270.936C298.095 271.128 298.159 271.392 298.159 271.728C298.159 272.368 298.007 272.864 297.703 273.216C297.047 274.016 296.327 274.704 295.543 275.28C294.759 275.84 293.983 276.12 293.215 276.12C291.999 276.12 291.071 275.408 290.431 273.984C289.759 274.832 289.167 275.4 288.655 275.688C288.159 275.976 287.575 276.12 286.903 276.12C285.927 276.12 285.119 275.76 284.479 275.04C283.855 274.304 283.543 273.352 283.543 272.184C283.543 270.904 283.815 269.72 284.359 268.632C284.903 267.528 285.647 266.632 286.591 265.944C287.551 265.24 288.623 264.824 289.807 264.696C290.111 261.592 290.687 258.944 291.535 256.752C292.399 254.544 293.527 253.44 294.919 253.44C295.607 253.44 296.175 253.752 296.623 254.376C297.087 255 297.319 255.944 297.319 257.208C297.319 259 296.879 261.096 295.999 263.496C295.119 265.896 293.943 268.36 292.471 270.888C292.535 271.816 292.671 272.48 292.879 272.88C293.103 273.28 293.383 273.48 293.719 273.48C294.151 273.48 294.591 273.288 295.039 272.904C295.487 272.52 296.087 271.88 296.839 270.984C297.031 270.76 297.247 270.648 297.487 270.648ZM294.655 255.792C294.351 255.792 294.047 256.336 293.743 257.424C293.439 258.496 293.175 259.904 292.951 261.648C292.743 263.392 292.591 265.216 292.495 267.12C294.287 263.216 295.183 260.08 295.183 257.712C295.183 257.104 295.127 256.632 295.015 256.296C294.919 255.96 294.799 255.792 294.655 255.792ZM287.743 273.696C288.047 273.696 288.351 273.576 288.655 273.336C288.959 273.08 289.343 272.616 289.807 271.944C289.647 271.08 289.567 270.112 289.567 269.04C289.567 268.656 289.583 268.032 289.615 267.168C288.735 267.44 287.999 268.032 287.407 268.944C286.831 269.84 286.543 270.84 286.543 271.944C286.543 273.112 286.943 273.696 287.743 273.696ZM305.351 263.232C304.679 263.232 304.175 263.08 303.839 262.776C303.503 262.456 303.335 262.016 303.335 261.456C303.335 260.896 303.551 260.432 303.983 260.064C304.431 259.68 304.983 259.488 305.639 259.488C306.231 259.488 306.711 259.632 307.079 259.92C307.447 260.208 307.631 260.616 307.631 261.144C307.631 261.784 307.423 262.296 307.007 262.68C306.591 263.048 306.039 263.232 305.351 263.232ZM305.159 276.12C304.119 276.12 303.359 275.752 302.879 275.016C302.415 274.28 302.183 273.304 302.183 272.088C302.183 271.368 302.271 270.448 302.447 269.328C302.639 268.192 302.879 267.136 303.167 266.16C303.311 265.648 303.503 265.296 303.743 265.104C303.983 264.912 304.367 264.816 304.895 264.816C305.711 264.816 306.119 265.088 306.119 265.632C306.119 266.032 305.967 266.96 305.663 268.416C305.279 270.176 305.087 271.368 305.087 271.992C305.087 272.472 305.151 272.84 305.279 273.096C305.407 273.352 305.623 273.48 305.927 273.48C306.215 273.48 306.575 273.28 307.007 272.88C307.439 272.48 308.015 271.848 308.735 270.984C308.927 270.76 309.143 270.648 309.383 270.648C309.591 270.648 309.751 270.744 309.863 270.936C309.991 271.128 310.055 271.392 310.055 271.728C310.055 272.368 309.903 272.864 309.599 273.216C308.015 275.152 306.535 276.12 305.159 276.12ZM316.873 276.12C315.961 276.12 315.217 275.76 314.641 275.04C314.081 274.32 313.801 273.376 313.801 272.208C313.801 270.928 314.097 269.72 314.689 268.584C315.281 267.432 316.065 266.512 317.041 265.824C318.033 265.12 319.081 264.768 320.185 264.768C320.537 264.768 320.769 264.84 320.881 264.984C321.009 265.112 321.113 265.352 321.193 265.704C321.497 265.64 321.833 265.608 322.201 265.608C322.585 265.608 322.881 265.704 323.089 265.896C323.297 266.088 323.401 266.36 323.401 266.712C323.401 267.08 323.321 267.72 323.161 268.632C322.985 269.608 322.849 270.544 322.753 271.44C322.657 272.32 322.609 273.312 322.609 274.416C322.609 275.024 322.481 275.464 322.225 275.736C321.985 275.992 321.585 276.12 321.025 276.12C320.481 276.12 320.073 275.992 319.801 275.736C319.545 275.464 319.417 275.032 319.417 274.44L319.441 274.056C318.945 275.432 318.089 276.12 316.873 276.12ZM317.809 273.696C318.257 273.696 318.665 273.384 319.033 272.76C319.401 272.136 319.729 271.024 320.017 269.424L320.473 267C319.817 267.016 319.209 267.272 318.649 267.768C318.089 268.248 317.641 268.888 317.305 269.688C316.969 270.488 316.801 271.336 316.801 272.232C316.801 272.712 316.889 273.08 317.065 273.336C317.257 273.576 317.505 273.696 317.809 273.696Z"
      fill="#00A7A7" />
    <path
      d="M78.291 50.7806C77.2094 51.0018 76.1751 50.9358 75.1883 50.5824C74.2171 50.2258 73.3781 49.5972 72.6713 48.6966C71.9612 47.7803 71.4651 46.6324 71.1829 45.253C70.6955 42.8703 70.7544 40.5637 71.3596 38.3332C71.9617 36.0869 73.133 34.1489 74.8736 32.5189C76.6111 30.8733 78.8749 29.7651 81.6651 29.1943C82.3862 29.0468 83.1655 28.9446 84.0031 28.8875C84.8563 28.8273 85.6424 28.838 86.3613 28.9196C86.8259 28.9552 87.1095 29.2238 87.2121 29.7254C87.2955 30.133 87.2173 30.5491 86.9775 30.9737C86.7535 31.3952 86.4376 31.6476 86.0301 31.731C85.9047 31.7566 85.809 31.768 85.7431 31.7652C84.8895 31.7438 84.1647 31.7533 83.5687 31.7936C82.9695 31.8182 82.3485 31.8962 81.7058 32.0277C79.715 32.4349 78.1215 33.2672 76.9252 34.5245C75.7257 35.766 74.943 37.249 74.5772 38.9733C74.2114 40.6976 74.216 42.4768 74.5912 44.3108C74.8638 45.6432 75.3341 46.6249 76.0021 47.2558C76.6826 47.8678 77.446 48.0873 78.2925 47.9141C79.2487 47.7185 80.0072 47.155 80.5679 46.2238C81.1286 45.2925 81.5272 43.8881 81.7638 42.0106C82.0003 40.1331 82.1007 37.6302 82.065 34.5019C82.0692 34.0437 82.1964 33.7074 82.4465 33.493C82.6966 33.2785 83.0568 33.1231 83.527 33.0269C84.64 32.7993 85.2702 33.046 85.4177 33.767C85.4434 33.8924 85.4519 34.054 85.4434 34.2517C85.3469 35.8556 85.3154 37.6177 85.3489 39.5379C85.3949 41.4393 85.5157 42.868 85.7113 43.8242C85.8845 44.6707 86.1366 45.2642 86.4675 45.6048C86.7953 45.9297 87.2178 46.0392 87.7351 45.9334C88.2367 45.8308 88.6812 45.5684 89.0684 45.1462C89.4524 44.7084 89.9059 44.0114 90.4289 43.0551C90.5721 42.7972 90.7613 42.6442 90.9964 42.5961C91.2002 42.5544 91.3762 42.6164 91.5244 42.782C91.6883 42.9445 91.8039 43.1903 91.8712 43.5195C91.9963 44.1308 91.9468 44.6472 91.7227 45.0687C91.1438 46.1507 90.5357 47.01 89.8984 47.6466C89.261 48.2833 88.4094 48.7106 87.3435 48.9287C86.2462 49.1532 85.2964 49.0208 84.4941 48.5317C83.6886 48.0269 83.081 47.2122 82.6712 46.0875C82.0083 48.7544 80.5482 50.3188 78.291 50.7806Z"
      fill="#BD977C" />
    <path
      d="M102.599 36.9859C102.697 37.7805 102.782 38.3989 102.854 38.841C103.041 39.9778 103.242 40.8608 103.459 41.49C103.689 42.1009 103.961 42.5264 104.276 42.7666C104.605 42.9885 105.013 43.0592 105.503 42.979C105.755 42.9376 106.043 42.8095 106.364 42.5946C106.685 42.3798 106.968 42.1227 107.21 41.8235C107.358 41.6372 107.519 41.5297 107.693 41.5013C107.882 41.4702 108.05 41.5561 108.197 41.7591C108.357 41.9436 108.461 42.1859 108.511 42.4859C108.56 42.7859 108.545 43.0883 108.465 43.3932C108.401 43.6956 108.266 43.9609 108.06 44.1892C107.351 45.0027 106.475 45.4949 105.433 45.6658C103.933 45.9117 102.733 45.4679 101.834 44.3345C100.932 43.1852 100.315 41.6001 99.9841 39.5791C99.8702 38.8843 99.7787 38.1778 99.7095 37.4596L98.7859 37.611C98.3122 37.6886 97.9743 37.6549 97.7721 37.5097C97.5858 37.3619 97.4615 37.0985 97.3994 36.7196C97.2544 35.8354 97.5372 35.335 98.2477 35.2185L99.5977 34.9972C99.5814 33.2164 99.7317 31.5623 100.049 30.0349C100.366 28.5074 100.841 27.254 101.475 26.2745C102.125 25.2925 102.9 24.7277 103.8 24.5802C104.463 24.4714 105.032 24.6781 105.507 25.2002C105.981 25.7223 106.291 26.4254 106.436 27.3096C106.837 29.7569 106.16 32.0567 104.406 34.209L107.058 33.7741C107.311 33.7327 107.501 33.7582 107.63 33.8506C107.759 33.943 107.848 34.1392 107.897 34.4392C108.075 35.5287 107.273 36.2196 105.488 36.5121L102.599 36.9859ZM103.533 26.9586C103.296 26.9975 103.077 27.3415 102.875 27.9906C102.687 28.6214 102.545 29.4878 102.45 30.5897C102.368 31.6732 102.346 32.8686 102.382 34.176C103.181 33.218 103.728 32.2042 104.023 31.1344C104.331 30.0462 104.418 29.0916 104.283 28.2706C104.13 27.339 103.88 26.9017 103.533 26.9586Z"
      fill="#BD977C" />
    <path
      d="M117.63 30.7814C116.965 30.8747 116.445 30.7941 116.07 30.5397C115.692 30.2695 115.465 29.857 115.387 29.3025C115.309 28.7479 115.459 28.2584 115.836 27.834C116.226 27.3915 116.746 27.1247 117.396 27.0336C117.982 26.9515 118.477 27.0274 118.882 27.2615C119.286 27.4957 119.525 27.8742 119.598 28.397C119.687 29.0308 119.552 29.5668 119.194 30.0048C118.833 30.427 118.312 30.6859 117.63 30.7814ZM117.138 43.8644C116.631 43.9355 116.268 43.8814 116.049 43.7021C115.83 43.5227 115.689 43.2112 115.627 42.7676C115.609 42.6408 115.594 42.4168 115.581 42.0954C115.428 39.1602 115.478 36.4632 115.731 34.0042C115.789 33.4953 115.947 33.1257 116.206 32.8956C116.478 32.6474 116.939 32.4778 117.589 32.3867C118.27 32.2912 118.65 32.5207 118.727 33.0753C118.738 33.1545 118.744 33.3072 118.743 33.5335C118.505 37.0243 118.476 39.9285 118.656 42.246C118.695 42.7575 118.595 43.1351 118.354 43.3789C118.114 43.6226 117.708 43.7845 117.138 43.8644Z"
      fill="#BD977C" />
    <path
      d="M128.854 42.3071C128.187 42.3849 127.634 42.1997 127.195 41.7515C126.754 41.2874 126.421 40.5047 126.196 39.4034C125.746 37.2007 125.424 35.265 125.229 33.5963L125.132 32.762C125.087 32.2357 125.187 31.8535 125.433 31.6154C125.679 31.3773 126.072 31.2267 126.613 31.1637C127.026 31.1155 127.339 31.1757 127.552 31.3441C127.779 31.4949 127.918 31.7848 127.968 32.2139C128.181 34.0415 128.569 36.4044 129.132 39.3027C129.679 38.047 130.142 36.9057 130.521 35.8788C130.915 34.8342 131.312 33.475 131.713 31.8013C131.832 31.3042 132.026 30.9595 132.293 30.7672C132.559 30.559 132.906 30.4299 133.335 30.3799C134.209 30.278 134.679 30.5051 134.744 31.0614C134.766 31.2521 134.733 31.5217 134.645 31.8703C133.708 35.024 132.774 37.5894 131.845 39.5663C131.395 40.537 130.934 41.2189 130.465 41.6119C129.995 42.0049 129.458 42.2367 128.854 42.3071Z"
      fill="#BD977C" />
    <path
      d="M144.424 27.6907C143.755 27.753 143.239 27.6484 142.876 27.3769C142.512 27.0894 142.304 26.6669 142.252 26.1093C142.2 25.5517 142.372 25.0697 142.768 24.6632C143.178 24.2393 143.71 23.997 144.363 23.9361C144.953 23.8812 145.444 23.9801 145.837 24.2327C146.23 24.4854 146.451 24.8746 146.5 25.4003C146.56 26.0375 146.4 26.5666 146.022 26.9875C145.641 27.3925 145.109 27.6269 144.424 27.6907ZM143.325 40.7368C142.815 40.7843 142.455 40.7134 142.244 40.5241C142.034 40.3348 141.908 40.0171 141.866 39.571C141.855 39.4436 141.85 39.2191 141.852 38.8975C141.835 35.9583 142.01 33.2665 142.377 30.822C142.459 30.3162 142.634 29.9544 142.903 29.7365C143.186 29.5012 143.655 29.3532 144.308 29.2924C144.993 29.2286 145.361 29.4755 145.413 30.0331C145.421 30.1127 145.419 30.2655 145.408 30.4915C145.008 33.9675 144.845 36.8672 144.916 39.1906C144.932 39.7034 144.814 40.0759 144.562 40.3082C144.311 40.5405 143.898 40.6834 143.325 40.7368Z"
      fill="#BD977C" />
    <path
      d="M160.832 33.8456C161.096 35.1427 161.439 36.4185 161.86 37.673C161.938 37.8762 161.984 38.0896 162 38.3131C162.048 39.0314 161.633 39.4203 160.755 39.4795C160.26 39.5129 159.868 39.4031 159.578 39.1501C159.305 38.8959 159.031 38.4012 158.757 37.666L158.726 37.5719C158.17 38.3631 157.653 38.9032 157.176 39.192C156.714 39.4797 156.164 39.6452 155.525 39.6883C154.552 39.754 153.721 39.4493 153.034 38.774C152.362 38.0817 151.987 37.1529 151.908 35.9876C151.822 34.7105 152.013 33.5108 152.483 32.3887C152.952 31.2665 153.635 30.3304 154.53 29.5804C155.425 28.8144 156.45 28.3202 157.605 28.0979C157.705 25.0602 158.102 22.3954 158.798 20.1034C159.509 17.8103 160.575 16.6158 161.996 16.5198C162.682 16.4735 163.27 16.7465 163.759 17.3389C164.264 17.9303 164.559 18.8565 164.644 20.1176C164.762 21.8736 164.47 23.9541 163.766 26.3589C163.063 28.7638 162.085 31.2593 160.832 33.8456ZM161.891 18.8843C161.428 18.9155 161.068 20.1265 160.813 22.5171C160.573 24.9067 160.475 27.4952 160.519 30.2825C162.033 26.3316 162.708 23.1589 162.547 20.7644C162.506 20.1577 162.418 19.6906 162.284 19.3629C162.165 19.0341 162.034 18.8746 161.891 18.8843ZM156.2 37.2132C156.52 37.1917 156.815 37.0514 157.086 36.7926C157.373 36.5327 157.725 36.0438 158.142 35.3262C157.903 34.1716 157.742 32.9717 157.658 31.7266C157.625 31.2317 157.607 30.848 157.604 30.5756C156.744 30.8902 156.057 31.522 155.543 32.4707C155.03 33.4194 154.811 34.4445 154.885 35.546C154.964 36.7114 155.402 37.2671 156.2 37.2132Z"
      fill="#BD977C" />
    <path
      d="M173.966 38.6218C173.054 38.654 172.298 38.3204 171.697 37.6212C171.112 36.9214 170.799 35.9879 170.758 34.8206C170.713 33.5414 170.966 32.3237 171.517 31.1675C172.069 29.9954 172.82 29.0483 173.771 28.3263C174.737 27.5878 175.772 27.199 176.876 27.1601C177.227 27.1477 177.462 27.2115 177.579 27.3514C177.711 27.4748 177.824 27.711 177.916 28.06C178.217 27.9853 178.552 27.9415 178.92 27.9285C179.304 27.915 179.603 28.0005 179.817 28.185C180.032 28.3696 180.146 28.6377 180.158 28.9895C180.171 29.3573 180.114 29.9997 179.986 30.9168C179.844 31.8984 179.742 32.8386 179.677 33.7374C179.612 34.6202 179.599 35.6133 179.638 36.7166C179.66 37.3243 179.547 37.7685 179.301 38.0494C179.07 38.3137 178.675 38.4557 178.115 38.4754C177.572 38.4946 177.159 38.3811 176.879 38.1348C176.613 37.872 176.47 37.4448 176.449 36.8532L176.459 36.4686C176.012 37.8612 175.181 38.579 173.966 38.6218ZM174.816 36.1663C175.264 36.1505 175.66 35.8243 176.006 35.1878C176.352 34.5512 176.64 33.4283 176.872 31.8191L177.242 29.3806C176.587 29.4197 175.988 29.697 175.446 30.2124C174.904 30.7118 174.478 31.3672 174.171 32.1786C173.863 32.9899 173.725 33.8433 173.757 34.7388C173.774 35.2185 173.875 35.5832 174.06 35.8328C174.26 36.0659 174.512 36.1771 174.816 36.1663Z"
      fill="#BD977C" />
    <path
      d="M197.678 32.667C197.858 33.9784 198.118 35.2736 198.458 36.5526C198.523 36.7604 198.556 36.9763 198.556 37.2003C198.558 37.9203 198.12 38.2816 197.24 38.2844C196.744 38.2859 196.359 38.1511 196.086 37.88C195.829 37.6088 195.588 37.0975 195.362 36.3462L195.337 36.2503C194.732 37.0042 194.181 37.5099 193.686 37.7675C193.207 38.025 192.647 38.1547 192.007 38.1567C191.031 38.1598 190.222 37.8023 189.58 37.0843C188.954 36.3503 188.639 35.3992 188.635 34.2312C188.631 32.9513 188.899 31.7664 189.44 30.6767C189.98 29.587 190.722 28.6967 191.663 28.0058C192.605 27.2988 193.66 26.8715 194.827 26.7239C195.122 23.6989 195.69 21.0651 196.531 18.8225C197.388 16.5798 198.528 15.4562 199.952 15.4518C200.64 15.4496 201.209 15.7599 201.659 16.3825C202.125 17.005 202.36 17.9483 202.364 19.2123C202.37 20.9723 201.944 23.0296 201.087 25.3843C200.231 27.739 199.094 30.1665 197.678 32.667ZM199.696 17.8046C199.232 17.806 198.795 18.9914 198.387 21.3607C197.994 23.7299 197.73 26.3068 197.595 29.0912C199.359 25.2457 200.237 22.1229 200.23 19.7229C200.228 19.1149 200.17 18.6431 200.057 18.3075C199.96 17.9718 199.84 17.8041 199.696 17.8046ZM192.84 35.7301C193.16 35.7291 193.463 35.6082 193.75 35.3673C194.054 35.1263 194.436 34.6611 194.898 33.9717C194.734 32.8042 194.651 31.5964 194.647 30.3484C194.645 29.8524 194.652 29.4684 194.667 29.1964C193.788 29.4551 193.062 30.0414 192.489 30.9552C191.916 31.869 191.631 32.8779 191.634 33.9819C191.638 35.1499 192.04 35.7326 192.84 35.7301Z"
      fill="#BD977C" />
    <path
      d="M216.429 33.6923C216.636 33.6981 216.794 33.7985 216.9 33.9935C217.023 34.189 217.08 34.4546 217.07 34.7905C217.054 35.3663 216.905 35.8583 216.621 36.2666C216.154 36.942 215.548 37.4614 214.802 37.8249C214.071 38.1888 213.202 38.3568 212.195 38.3289C210.659 38.2864 209.48 37.7976 208.658 36.8625C207.836 35.9114 207.446 34.6521 207.49 33.0847C207.52 31.9811 207.781 30.964 208.271 30.0332C208.761 29.0864 209.422 28.3444 210.253 27.8072C211.1 27.2704 212.044 27.0164 213.083 27.0452C214.011 27.0709 214.747 27.3714 215.291 27.9466C215.836 28.5059 216.095 29.2574 216.069 30.201C216.038 31.3046 215.612 32.2452 214.79 33.0227C213.985 33.7847 212.624 34.3713 210.708 34.7824C211.072 35.5288 211.709 35.9146 212.621 35.9398C213.277 35.958 213.817 35.8209 214.241 35.5285C214.681 35.2366 215.191 34.7385 215.771 34.0343C215.969 33.7997 216.189 33.6857 216.429 33.6923ZM212.61 29.385C212.018 29.3686 211.505 29.6985 211.07 30.3748C210.651 31.0514 210.428 31.8776 210.401 32.8532L210.4 32.9012C211.35 32.7034 212.103 32.3881 212.659 31.9553C213.215 31.5226 213.502 31.0103 213.518 30.4185C213.526 30.1146 213.445 29.8723 213.274 29.6915C213.119 29.4951 212.898 29.393 212.61 29.385Z"
      fill="#BD977C" />
    <path
      d="M244.228 34.5668C244.301 35.8886 244.455 37.2006 244.69 38.5029C244.737 38.7153 244.753 38.9331 244.735 39.1564C244.679 39.8742 244.212 40.1988 243.335 40.1301C242.84 40.0914 242.468 39.9258 242.218 39.6334C241.984 39.3423 241.785 38.8131 241.62 38.0459L241.604 37.9484C240.939 38.6506 240.349 39.11 239.835 39.3265C239.336 39.5443 238.768 39.6282 238.13 39.5782C237.157 39.502 236.38 39.0801 235.798 38.3123C235.233 37.5299 234.996 36.5564 235.087 35.392C235.187 34.1159 235.551 32.9567 236.178 31.9145C236.805 30.8723 237.616 30.0451 238.611 29.4328C239.607 28.8046 240.693 28.4644 241.869 28.412C242.408 25.4209 243.188 22.8419 244.208 20.6749C245.244 18.5092 246.472 17.4819 247.892 17.593C248.578 17.6467 249.119 18.0021 249.517 18.6591C249.931 19.3174 250.089 20.2767 249.99 21.5368C249.853 23.2915 249.262 25.3075 248.217 27.5849C247.172 29.8623 245.842 32.1896 244.228 34.5668ZM247.445 19.9172C246.982 19.881 246.451 21.0271 245.852 23.3554C245.268 25.6849 244.796 28.2318 244.435 30.9961C246.505 27.3064 247.634 24.2653 247.821 21.8726C247.869 21.2664 247.85 20.7915 247.764 20.4478C247.695 20.1053 247.588 19.9285 247.445 19.9172ZM239.157 37.2272C239.476 37.2521 239.788 37.1562 240.094 36.9394C240.416 36.7239 240.835 36.2913 241.351 35.6416C241.283 34.4647 241.297 33.2541 241.395 32.0099C241.433 31.5154 241.471 31.1332 241.508 30.8633C240.611 31.0498 239.84 31.5752 239.194 32.4395C238.549 33.3038 238.183 34.2862 238.097 35.3869C238.006 36.5513 238.359 37.1647 239.157 37.2272Z"
      fill="#BD977C" />
    <path
      d="M257.815 41.3406C256.876 41.2371 256.099 40.9179 255.482 40.3831C254.882 39.8341 254.458 39.1595 254.208 38.3593C253.958 37.5591 253.881 36.7216 253.978 35.8469C254.111 34.6382 254.452 33.5893 255.001 32.7001C255.567 31.7967 256.269 31.1256 257.106 30.6867C257.945 30.2319 258.849 30.058 259.82 30.165C260.758 30.2684 261.535 30.5956 262.15 31.1463C262.767 31.6812 263.201 32.3487 263.45 33.1489C263.7 33.9491 263.777 34.7865 263.68 35.6612C263.547 36.8699 263.197 37.9259 262.631 38.8293C262.066 39.7168 261.357 40.387 260.502 40.84C259.665 41.2789 258.769 41.4458 257.815 41.3406ZM258.361 38.7931C258.902 38.8527 259.388 38.6085 259.818 38.0604C260.265 37.514 260.55 36.6763 260.675 35.5471C260.771 34.6724 260.685 33.9949 260.416 33.5145C260.147 33.0342 259.79 32.7694 259.345 32.7203C258.772 32.6572 258.263 32.8988 257.816 33.4451C257.387 33.9773 257.11 34.816 256.983 35.961C256.883 36.8675 256.969 37.553 257.239 38.0175C257.51 38.482 257.884 38.7405 258.361 38.7931Z"
      fill="#BD977C" />
    <path
      d="M291.48 40.4053C291.443 41.7285 291.488 43.0488 291.614 44.3661C291.644 44.5817 291.641 44.8 291.605 45.0211C291.49 45.7318 290.998 46.0165 290.129 45.8753C289.639 45.7957 289.282 45.5999 289.057 45.2877C288.848 44.9782 288.694 44.4343 288.593 43.6561L288.585 43.5575C287.864 44.2022 287.238 44.6111 286.708 44.7842C286.193 44.9598 285.62 44.9963 284.988 44.8936C284.025 44.737 283.285 44.252 282.769 43.4387C282.271 42.6121 282.116 41.6223 282.303 40.4695C282.508 39.2061 282.967 38.0811 283.678 37.0944C284.39 36.1078 285.267 35.3507 286.309 34.8231C287.354 34.2797 288.464 34.0307 289.64 34.076C290.425 31.1399 291.416 28.6345 292.613 26.5596C293.825 24.4872 295.134 23.5653 296.539 23.7938C297.218 23.9042 297.729 24.3033 298.071 24.9911C298.429 25.6815 298.506 26.6505 298.304 27.8981C298.021 29.6353 297.265 31.5953 296.035 33.7782C294.804 35.9611 293.286 38.1701 291.48 40.4053ZM295.901 26.073C295.443 25.9985 294.819 27.0966 294.028 29.3671C293.254 31.6403 292.572 34.1392 291.983 36.864C294.352 33.3588 295.729 30.4217 296.114 28.0528C296.212 27.4527 296.232 26.9778 296.176 26.6282C296.135 26.2812 296.043 26.0961 295.901 26.073ZM286.206 42.6358C286.522 42.6872 286.841 42.6175 287.164 42.4268C287.502 42.2387 287.956 41.8424 288.524 41.2377C288.554 40.0592 288.669 38.854 288.869 37.6222C288.949 37.1326 289.018 36.7549 289.078 36.489C288.168 36.6004 287.356 37.0601 286.641 37.8678C285.926 38.6756 285.48 39.6243 285.303 40.714C285.115 41.8668 285.416 42.5075 286.206 42.6358Z"
      fill="#BD977C" />
    <path
      d="M306.069 35.4725C305.409 35.3478 304.942 35.105 304.668 34.7439C304.397 34.3671 304.314 33.9036 304.417 33.3533C304.521 32.803 304.82 32.3872 305.312 32.1057C305.824 31.8115 306.402 31.7252 307.047 31.8469C307.628 31.9568 308.073 32.1873 308.381 32.5386C308.69 32.8899 308.795 33.3249 308.697 33.8438C308.578 34.4726 308.279 34.9372 307.799 35.2373C307.322 35.5218 306.745 35.6001 306.069 35.4725ZM301.414 47.7093C300.911 47.6143 300.584 47.4468 300.434 47.2068C300.284 46.9668 300.251 46.6267 300.334 46.1865C300.357 46.0607 300.415 45.8435 300.505 45.535C301.3 42.7054 302.211 40.1663 303.238 37.9178C303.456 37.4541 303.724 37.1547 304.043 37.0195C304.38 36.8715 304.871 36.8583 305.516 36.98C306.192 37.1077 306.478 37.4466 306.374 37.9969C306.359 38.0755 306.315 38.2219 306.242 38.4361C304.899 41.6671 303.942 44.4091 303.37 46.6621C303.244 47.1592 303.028 47.4848 302.722 47.6387C302.416 47.7926 301.98 47.8162 301.414 47.7093Z"
      fill="#BD977C" />
    <path
      d="M313.141 50.008C312.249 49.8169 311.597 49.309 311.185 48.4842C310.788 47.6628 310.712 46.6811 310.957 45.5391C311.225 44.2875 311.768 43.1684 312.585 42.1817C313.405 41.1793 314.365 40.4441 315.463 39.9759C316.581 39.4955 317.679 39.371 318.759 39.6024C319.103 39.6761 319.315 39.7952 319.394 39.9595C319.492 40.1114 319.544 40.3679 319.548 40.7289C319.859 40.73 320.194 40.7691 320.554 40.8463C320.929 40.9267 321.199 41.0826 321.362 41.314C321.525 41.5453 321.57 41.8331 321.496 42.1773C321.419 42.5371 321.206 43.1461 320.859 44.0043C320.482 44.9217 320.153 45.8084 319.871 46.6644C319.593 47.5047 319.338 48.4647 319.107 49.5441C318.979 50.1386 318.762 50.542 318.454 50.7543C318.166 50.9543 317.748 50.9957 317.201 50.8783C316.669 50.7643 316.297 50.5536 316.084 50.2463C315.891 49.9267 315.856 49.4774 315.981 48.8986L316.084 48.5281C315.311 49.7696 314.33 50.2629 313.141 50.008ZM314.564 47.8341C315.002 47.928 315.467 47.7084 315.957 47.1754C316.448 46.6424 317.002 45.6238 317.619 44.1197L318.572 41.8452C317.928 41.7233 317.28 41.8462 316.628 42.2138C315.98 42.5658 315.408 43.0977 314.911 43.8095C314.415 44.5213 314.073 45.3152 313.885 46.1913C313.785 46.6607 313.794 47.0389 313.912 47.3261C314.05 47.601 314.267 47.7704 314.564 47.8341Z"
      fill="#BD977C" />
    <path
      d="M310.01 161.893C310.917 160.369 311.721 158.767 312.416 157.088C320.376 137.873 308.338 114.855 282.991 109.299C280.249 81.1494 256.064 61.8384 228.753 58.542C197.49 54.7708 168.851 71.0154 159.322 96.8351C147.837 93.5066 136.645 93.9121 126.097 98.9544C121.312 100.765 116.934 103.435 113.007 106.949C107.242 112.108 103.493 118.619 101.966 125.484C99.705 125.776 97.483 126.067 95.3879 126.681C83.1743 130.264 75.4682 137.638 73.355 148.747C72.0399 155.663 74.6943 162.563 76.1756 165.35C82.0255 176.367 95.5905 182.611 109.373 180.959C110.059 180.877 111.057 181.13 111.647 181.535C112.375 199.142 122.826 214.714 138.505 223.609C163.66 237.883 196.027 233.486 216.445 213.913C225.194 221.233 235.606 224.789 247.838 223.498C260 222.215 269.445 216.725 276.334 207.797C279.518 208.497 282.535 209.506 285.655 209.786C297.875 210.879 307.797 206.905 315.076 197.916C317.864 194.476 320.5 190.017 320.5 182.203C320.5 174.151 316.591 166.814 310.01 161.893Z"
      fill="#C7EDE6" />
    <path
      d="M264.448 150.23C264.448 150.23 293.675 150.23 293.853 150.23C300.603 150.23 306.073 144.757 306.073 138.007C306.073 132.12 301.908 127.205 296.363 126.047C296.428 125.532 296.47 125.01 296.47 124.477C296.47 117.487 290.803 111.82 283.813 111.82C279.685 111.82 276.03 113.805 273.72 116.862C273.13 109.08 266.178 103.077 258.045 104.072C252.098 104.8 247.18 109.397 246.085 115.287C245.735 117.177 245.77 119.01 246.12 120.73C244.525 119.012 242.255 117.932 239.728 117.932C235.103 117.932 231.325 121.535 231.028 126.085C228.928 125.62 226.643 125.65 224.235 126.555C219.635 128.282 216.36 132.612 216.168 137.522C215.895 144.495 221.468 150.235 228.38 150.235C228.905 150.235 230.75 150.235 231.175 150.235H256.553"
      fill="#FDFCEF" />
    <path
      d="M293.853 151.48H264.448C263.758 151.48 263.198 150.92 263.198 150.23C263.198 149.54 263.758 148.98 264.448 148.98H293.853C299.903 148.98 304.825 144.057 304.825 138.007C304.825 132.842 301.16 128.325 296.11 127.267C295.475 127.135 295.045 126.537 295.125 125.89C295.18 125.425 295.223 124.957 295.223 124.475C295.223 118.185 290.105 113.07 283.815 113.07C280.22 113.07 276.903 114.727 274.718 117.615C274.405 118.03 273.863 118.205 273.37 118.06C272.87 117.912 272.515 117.475 272.475 116.957C272.215 113.512 270.53 110.277 267.85 108.082C265.143 105.862 261.725 104.882 258.2 105.312C252.785 105.977 248.313 110.17 247.318 115.512C247.008 117.182 247.018 118.852 247.35 120.48C247.46 121.03 247.195 121.585 246.695 121.842C246.205 122.1 245.593 121.992 245.208 121.58C243.773 120.035 241.828 119.182 239.733 119.182C235.813 119.182 232.538 122.25 232.283 126.165C232.258 126.53 232.078 126.865 231.785 127.082C231.495 127.302 231.11 127.377 230.768 127.305C228.655 126.842 226.668 126.975 224.683 127.722C220.51 129.29 217.593 133.245 217.425 137.567C217.308 140.585 218.393 143.445 220.48 145.615C222.57 147.785 225.378 148.982 228.388 148.982H256.563C257.253 148.982 257.813 149.542 257.813 150.232C257.813 150.922 257.253 151.482 256.563 151.482H228.388C224.69 151.482 221.245 150.015 218.678 147.35C216.115 144.685 214.78 141.175 214.925 137.472C215.135 132.157 218.703 127.3 223.805 125.385C225.803 124.635 227.875 124.39 229.975 124.637C230.918 120.082 234.965 116.682 239.735 116.682C241.448 116.682 243.12 117.132 244.595 117.957C244.593 116.992 244.683 116.025 244.863 115.057C246.053 108.652 251.41 103.627 257.898 102.832C262.103 102.312 266.195 103.495 269.435 106.15C271.945 108.205 273.728 111.027 274.53 114.132C277.06 111.845 280.328 110.57 283.815 110.57C291.483 110.57 297.723 116.807 297.723 124.475C297.723 124.685 297.718 124.89 297.705 125.095C303.34 126.78 307.325 132.04 307.325 138.007C307.325 145.437 301.283 151.48 293.853 151.48Z"
      fill="#472B29" />
    <path
      d="M257.365 123.307C252.845 123.01 248.952 126.132 248.675 130.28C248.64 130.795 248.662 131.302 248.737 131.795C247.865 130.81 246.575 130.142 245.092 130.045C242.38 129.867 240.037 131.657 239.697 134.095C239.205 133.96 238.69 133.87 238.157 133.835C234.202 133.575 230.797 136.307 230.552 139.937"
      fill="#FDFCEF" />
    <path
      d="M230.555 140.56C230.54 140.56 230.527 140.56 230.512 140.557C230.167 140.535 229.907 140.237 229.932 139.892C230.195 135.927 233.837 132.91 238.2 133.21C238.537 133.23 238.877 133.275 239.222 133.342C239.907 130.922 242.357 129.215 245.135 129.422C246.2 129.49 247.192 129.822 248.042 130.377C248.045 130.33 248.047 130.287 248.052 130.24C248.35 125.755 252.51 122.34 257.407 122.685C257.752 122.707 258.012 123.005 257.987 123.35C257.967 123.692 257.712 124.005 257.322 123.93C253.167 123.725 249.552 126.527 249.295 130.325C249.265 130.79 249.285 131.252 249.352 131.702C249.395 131.975 249.252 132.247 249 132.365C248.745 132.477 248.447 132.42 248.265 132.212C247.472 131.315 246.297 130.752 245.047 130.67C242.68 130.577 240.612 132.06 240.315 134.182C240.287 134.36 240.187 134.52 240.04 134.62C239.89 134.717 239.702 134.747 239.532 134.7C239.055 134.57 238.577 134.49 238.115 134.457C234.487 134.235 231.395 136.697 231.175 139.977C231.155 140.307 230.882 140.56 230.555 140.56Z"
      fill="#472B29" />
    <path
      d="M298.802 127.48C294.555 125.477 289.642 126.895 287.83 130.647C287.605 131.112 287.437 131.595 287.327 132.082"
      fill="#FDFCEF" />
    <path
      d="M287.327 132.705C287.282 132.705 287.237 132.7 287.19 132.69C286.852 132.615 286.64 132.277 286.717 131.942C286.842 131.397 287.025 130.87 287.27 130.372C289.222 126.322 294.515 124.77 299.07 126.912C299.382 127.062 299.517 127.432 299.37 127.745C299.22 128.06 298.845 128.185 298.537 128.045C294.602 126.185 290.05 127.48 288.395 130.915C288.192 131.33 288.037 131.767 287.937 132.215C287.872 132.505 287.612 132.705 287.327 132.705Z"
      fill="#472B29" />
    <path
      d="M118.348 146.89H93.2726C92.5826 146.89 92.0226 146.33 92.0226 145.64C92.0226 144.95 92.5826 144.39 93.2726 144.39H118.348C119.038 144.39 119.598 144.95 119.598 145.64C119.598 146.33 119.038 146.89 118.348 146.89ZM125.55 146.89H121.938C121.248 146.89 120.688 146.33 120.688 145.64C120.688 144.95 121.248 144.39 121.938 144.39H125.55C126.24 144.39 126.8 144.95 126.8 145.64C126.8 146.33 126.24 146.89 125.55 146.89ZM135.688 146.89H129.323C128.633 146.89 128.073 146.33 128.073 145.64C128.073 144.95 128.633 144.39 129.323 144.39H135.688C136.378 144.39 136.938 144.95 136.938 145.64C136.938 146.33 136.378 146.89 135.688 146.89ZM135.688 151.555H111.648C110.958 151.555 110.398 150.995 110.398 150.305C110.398 149.615 110.958 149.055 111.648 149.055H135.688C136.378 149.055 136.938 149.615 136.938 150.305C136.938 150.995 136.378 151.555 135.688 151.555ZM107.318 151.555H105.868C105.178 151.555 104.618 150.995 104.618 150.305C104.618 149.615 105.178 149.055 105.868 149.055H107.318C108.008 149.055 108.568 149.615 108.568 150.305C108.568 150.995 108.008 151.555 107.318 151.555ZM101.375 151.555H97.7351C97.0451 151.555 96.4851 150.995 96.4851 150.305C96.4851 149.615 97.0451 149.055 97.7351 149.055H101.375C102.065 149.055 102.625 149.615 102.625 150.305C102.625 150.995 102.065 151.555 101.375 151.555ZM124.215 142.227H111.648C110.958 142.227 110.398 141.667 110.398 140.977C110.398 140.287 110.958 139.727 111.648 139.727H124.215C124.905 139.727 125.465 140.287 125.465 140.977C125.465 141.667 124.905 142.227 124.215 142.227ZM124.215 137.567H121.073C120.383 137.567 119.823 137.007 119.823 136.317C119.823 135.627 120.383 135.067 121.073 135.067H124.215C124.905 135.067 125.465 135.627 125.465 136.317C125.465 137.007 124.905 137.567 124.215 137.567ZM116.043 156.215H111.645C110.955 156.215 110.395 155.655 110.395 154.965C110.395 154.275 110.955 153.715 111.645 153.715H116.043C116.733 153.715 117.293 154.275 117.293 154.965C117.293 155.655 116.735 156.215 116.043 156.215ZM251.293 81.1974H226.218C225.528 81.1974 224.968 80.6374 224.968 79.9474C224.968 79.2574 225.528 78.6974 226.218 78.6974H251.293C251.983 78.6974 252.543 79.2574 252.543 79.9474C252.543 80.6374 251.983 81.1974 251.293 81.1974ZM258.495 81.1974H254.883C254.193 81.1974 253.633 80.6374 253.633 79.9474C253.633 79.2574 254.193 78.6974 254.883 78.6974H258.495C259.185 78.6974 259.745 79.2574 259.745 79.9474C259.745 80.6374 259.185 81.1974 258.495 81.1974ZM268.63 81.1974H262.265C261.575 81.1974 261.015 80.6374 261.015 79.9474C261.015 79.2574 261.575 78.6974 262.265 78.6974H268.63C269.32 78.6974 269.88 79.2574 269.88 79.9474C269.88 80.6374 269.323 81.1974 268.63 81.1974ZM263.568 71.8724H239.528C238.838 71.8724 238.278 71.3124 238.278 70.6224C238.278 69.9324 238.838 69.3724 239.528 69.3724H263.568C264.258 69.3724 264.818 69.9324 264.818 70.6224C264.818 71.3124 264.258 71.8724 263.568 71.8724ZM235.198 71.8724H233.748C233.058 71.8724 232.498 71.3124 232.498 70.6224C232.498 69.9324 233.058 69.3724 233.748 69.3724H235.198C235.888 69.3724 236.448 69.9324 236.448 70.6224C236.448 71.3124 235.89 71.8724 235.198 71.8724ZM229.255 71.8724H225.615C224.925 71.8724 224.365 71.3124 224.365 70.6224C224.365 69.9324 224.925 69.3724 225.615 69.3724H229.255C229.945 69.3724 230.505 69.9324 230.505 70.6224C230.505 71.3124 229.948 71.8724 229.255 71.8724ZM257.158 76.5374H244.59C243.9 76.5374 243.34 75.9774 243.34 75.2874C243.34 74.5974 243.9 74.0374 244.59 74.0374H257.158C257.848 74.0374 258.408 74.5974 258.408 75.2874C258.408 75.9774 257.85 76.5374 257.158 76.5374Z"
      fill="white" />
    <path
      d="M257.158 71.8724H254.015C253.325 71.8724 252.765 71.3124 252.765 70.6224C252.765 69.9324 253.325 69.3724 254.015 69.3724H257.158C257.848 69.3724 258.408 69.9324 258.408 70.6224C258.408 71.3124 257.85 71.8724 257.158 71.8724ZM240.953 76.5374H236.555C235.865 76.5374 235.305 75.9774 235.305 75.2874C235.305 74.5974 235.865 74.0374 236.555 74.0374H240.953C241.643 74.0374 242.203 74.5974 242.203 75.2874C242.203 75.9774 241.643 76.5374 240.953 76.5374Z"
      fill="white" />
    <path
      d="M239.463 209.225H165.18C155.765 209.225 148.063 201.523 148.063 192.108V117.823C148.063 108.408 155.765 100.705 165.18 100.705H239.463C248.878 100.705 256.58 108.408 256.58 117.823V192.105C256.58 201.52 248.878 209.225 239.463 209.225Z"
      fill="#F1BC19" />
    <path
      d="M239.462 210.975H165.18C154.775 210.975 146.31 202.51 146.31 192.105V117.822C146.31 107.42 154.775 98.9549 165.18 98.9549H239.462C249.865 98.9549 258.33 107.42 258.33 117.822V192.105C258.33 202.51 249.865 210.975 239.462 210.975ZM165.18 102.457C156.705 102.457 149.812 109.35 149.812 117.822V192.105C149.812 200.58 156.707 207.472 165.18 207.472H239.462C247.937 207.472 254.827 200.577 254.827 192.105V117.822C254.827 109.347 247.935 102.457 239.462 102.457H165.18Z"
      fill="#472B29" />
    <path
      d="M234.957 201.472H169.685C162.055 201.472 155.812 195.23 155.812 187.6V122.33C155.812 114.7 162.055 108.457 169.685 108.457H234.957C242.587 108.457 248.83 114.7 248.83 122.33V187.6C248.83 195.23 242.587 201.472 234.957 201.472Z"
      fill="#FDFCEE" />
    <path
      d="M234.695 202.348H169.95C161.673 202.348 154.94 195.615 154.94 187.338V122.593C154.94 114.315 161.673 107.583 169.95 107.583H231.605C232.088 107.583 232.48 107.973 232.48 108.458C232.48 108.94 232.09 109.333 231.605 109.333H169.95C162.638 109.333 156.688 115.283 156.688 122.595V187.34C156.688 194.653 162.638 200.603 169.95 200.603H234.695C242.005 200.603 247.955 194.653 247.955 187.34V151.52C247.955 151.038 248.345 150.645 248.83 150.645C249.315 150.645 249.705 151.035 249.705 151.52V187.338C249.703 195.615 242.973 202.348 234.695 202.348ZM248.828 147.225C248.345 147.225 247.953 146.835 247.953 146.35V139.46C247.953 138.978 248.343 138.585 248.828 138.585C249.313 138.585 249.703 138.975 249.703 139.46V146.35C249.703 146.835 249.313 147.225 248.828 147.225ZM248.828 136.89C248.345 136.89 247.953 136.5 247.953 136.015V132.57C247.953 132.088 248.343 131.695 248.828 131.695C249.313 131.695 249.703 132.085 249.703 132.57V136.015C249.703 136.5 249.313 136.89 248.828 136.89Z"
      fill="#472B29" />
    <path
      d="M225.8 133.57C222.767 130.537 218.822 129.517 217.037 131.302L182.19 166.15C180.575 167.765 176.415 179.925 175.15 182.737C175.022 183.02 175.085 183.35 175.305 183.57L175.682 183.947C175.972 184.237 176.41 184.32 176.785 184.152C179.935 182.735 191.632 178.767 193.22 177.18L228.067 142.332C229.852 140.545 228.832 136.602 225.8 133.57Z"
      fill="#FDFCEE" />
    <path
      d="M222.378 148.02L228.538 141.86C230.325 140.073 229.305 136.13 226.27 133.098C223.238 130.065 219.293 129.045 217.508 130.83L211.645 136.693C215.24 140.448 218.758 144.29 222.378 148.02Z"
      fill="#FCB9B9" />
    <path
      d="M177.357 177.123C176.417 179.598 175.61 181.753 175.152 182.768C175.015 183.073 175.082 183.425 175.32 183.663L175.727 184.07C176.042 184.385 176.52 184.468 176.925 184.285C178.02 183.793 180.057 183.02 182.377 182.14L177.357 177.123Z"
      fill="#4A5397" />
    <path d="M209.869 138.47L220.898 149.5L192.711 177.686L181.682 166.657L209.869 138.47Z" fill="#F1BC19" />
    <path d="M214.77 133.569L225.799 144.599L220.897 149.501L209.868 138.471L214.77 133.569Z" fill="#7782AC" />
    <path
      d="M176.99 184.565C176.493 184.565 176.003 184.37 175.63 183.997L175.253 183.62C174.755 183.12 174.62 182.385 174.908 181.742C175.293 180.882 175.95 179.15 176.723 177.11C179.078 170.89 180.975 166.037 182.14 164.87L216.985 130.025C219.178 127.837 223.61 128.827 227.075 132.29C230.54 135.757 231.535 140.187 229.343 142.382L194.495 177.23C193.368 178.357 188.945 180.09 182.825 182.41C180.65 183.235 178.773 183.945 177.783 184.392C177.528 184.507 177.258 184.565 176.99 184.565ZM220.058 130.747C219.32 130.747 218.713 130.952 218.315 131.352L183.468 166.2C182.493 167.172 179.978 173.81 178.475 177.775C177.685 179.86 177.013 181.632 176.618 182.51L176.96 182.67C178.055 182.215 179.958 181.492 182.16 180.657C185.93 179.227 192.238 176.835 193.168 175.905L228.015 141.057C229.395 139.68 228.333 136.207 225.748 133.62C224.398 132.27 222.83 131.31 221.328 130.925C220.878 130.807 220.448 130.747 220.058 130.747Z"
      fill="#472B29" />
    <path
      d="M221.175 149.91C221 149.91 220.823 149.842 220.69 149.707L209.66 138.677C209.393 138.41 209.393 137.975 209.66 137.705C209.928 137.435 210.363 137.437 210.633 137.705L221.663 148.735C221.93 149.002 221.93 149.437 221.663 149.707C221.528 149.842 221.35 149.91 221.175 149.91ZM192.573 177.357C192.398 177.357 192.22 177.29 192.088 177.155L181.853 166.92C181.585 166.652 181.585 166.217 181.853 165.947C182.12 165.677 182.555 165.68 182.825 165.947L193.06 176.182C193.328 176.45 193.328 176.885 193.06 177.155C192.925 177.287 192.75 177.357 192.573 177.357ZM182.1 181.862C181.925 181.862 181.748 181.795 181.615 181.66L177.823 177.867C177.555 177.6 177.555 177.165 177.823 176.895C178.09 176.625 178.525 176.627 178.795 176.895L182.588 180.687C182.855 180.955 182.855 181.39 182.588 181.66C182.453 181.792 182.275 181.862 182.1 181.862ZM225.693 145.397C225.518 145.397 225.34 145.33 225.208 145.195L214.533 134.517C214.265 134.25 214.265 133.815 214.533 133.545C214.8 133.275 215.235 133.277 215.505 133.545L226.18 144.222C226.448 144.49 226.448 144.925 226.18 145.195C226.043 145.327 225.868 145.397 225.693 145.397Z"
      fill="#472B29" />
    <path
      d="M212.715 140.755C212.658 140.755 212.598 140.745 212.543 140.72C212.32 140.625 212.218 140.365 212.313 140.145L214.695 134.585C214.79 134.363 215.055 134.26 215.27 134.355C215.493 134.45 215.595 134.71 215.5 134.93L213.118 140.49C213.048 140.658 212.883 140.755 212.715 140.755ZM214.678 142.623C214.62 142.623 214.56 142.613 214.505 142.588C214.283 142.493 214.18 142.233 214.275 142.013L216.658 136.455C216.753 136.23 217.018 136.128 217.233 136.225C217.455 136.32 217.558 136.58 217.463 136.8L215.08 142.358C215.01 142.525 214.848 142.623 214.678 142.623ZM216.643 144.493C216.585 144.493 216.525 144.483 216.47 144.458C216.248 144.363 216.145 144.103 216.24 143.883L218.62 138.323C218.715 138.098 218.98 137.998 219.195 138.093C219.418 138.188 219.52 138.448 219.425 138.668L217.045 144.228C216.975 144.395 216.813 144.493 216.643 144.493ZM218.608 146.363C218.55 146.363 218.49 146.353 218.435 146.328C218.213 146.233 218.11 145.973 218.205 145.753L220.588 140.193C220.683 139.968 220.95 139.87 221.163 139.963C221.385 140.058 221.488 140.318 221.393 140.538L219.01 146.098C218.938 146.265 218.775 146.363 218.608 146.363ZM220.57 148.233C220.513 148.233 220.453 148.223 220.398 148.198C220.175 148.103 220.073 147.843 220.168 147.623L222.55 142.063C222.645 141.838 222.913 141.738 223.125 141.833C223.348 141.928 223.45 142.188 223.355 142.408L220.973 147.968C220.903 148.135 220.738 148.233 220.57 148.233Z"
      fill="#472B29" />
    <path
      d="M174.04 216.142C178.748 216.142 182.833 216.142 182.89 216.142C188.165 216.142 192.443 211.957 192.443 206.795C192.443 202.29 189.188 198.532 184.855 197.645C184.905 197.25 184.94 196.852 184.94 196.445C184.94 191.097 180.51 186.762 175.048 186.762C171.823 186.762 168.965 188.28 167.16 190.62C166.698 184.667 161.265 180.075 154.91 180.837C150.263 181.395 146.418 184.91 145.563 189.415C145.288 190.86 145.318 192.262 145.59 193.577C144.345 192.265 142.57 191.437 140.595 191.437C136.98 191.437 134.028 194.192 133.795 197.672C132.153 197.317 130.368 197.34 128.488 198.03C124.893 199.35 122.333 202.662 122.183 206.42C121.97 211.752 126.325 216.142 131.728 216.142C132.138 216.142 133.58 216.142 133.913 216.142H153.748H174.04ZM157.845 216.142H158.745H157.845Z"
      fill="#FDFCEF" />
    <path
      d="M182.887 217.393H174.037C173.347 217.393 172.787 216.833 172.787 216.143C172.787 215.453 173.347 214.893 174.037 214.893H182.887C187.465 214.893 191.19 211.26 191.19 206.795C191.19 202.985 188.42 199.655 184.597 198.873C183.957 198.74 183.525 198.135 183.607 197.485C183.652 197.143 183.682 196.8 183.682 196.445C183.682 191.795 179.805 188.013 175.04 188.013C172.31 188.013 169.795 189.24 168.14 191.385C167.825 191.795 167.282 191.96 166.795 191.82C166.3 191.67 165.945 191.235 165.907 190.72C165.71 188.17 164.495 185.86 162.485 184.21C160.412 182.508 157.772 181.76 155.05 182.075C150.935 182.568 147.535 185.68 146.782 189.645C146.547 190.88 146.555 192.115 146.805 193.323C146.92 193.87 146.655 194.425 146.16 194.685C145.667 194.943 145.065 194.843 144.672 194.435C143.605 193.308 142.152 192.688 140.585 192.688C137.66 192.688 135.22 194.915 135.032 197.755C135.007 198.12 134.827 198.45 134.537 198.67C134.247 198.888 133.877 198.973 133.52 198.893C131.927 198.548 130.417 198.648 128.905 199.205C125.75 200.365 123.545 203.283 123.422 206.468C123.335 208.658 124.127 210.738 125.66 212.33C127.247 213.983 129.397 214.89 131.717 214.89H153.737C154.427 214.89 154.987 215.45 154.987 216.14C154.987 216.83 154.427 217.39 153.737 217.39H131.717C128.752 217.39 125.89 216.178 123.855 214.063C121.85 211.975 120.81 209.243 120.922 206.37C121.087 202.183 123.952 198.363 128.045 196.855C129.575 196.293 131.16 196.085 132.747 196.245C133.61 192.755 136.82 190.185 140.587 190.185C141.82 190.185 143.03 190.468 144.12 190.99C144.145 190.388 144.212 189.783 144.327 189.175C145.28 184.153 149.567 180.21 154.752 179.59C158.16 179.17 161.467 180.135 164.07 182.27C165.94 183.805 167.265 185.793 167.935 188.025C169.912 186.405 172.4 185.508 175.042 185.508C181.187 185.508 186.185 190.413 186.185 196.44C186.185 196.525 186.182 196.61 186.18 196.698C190.592 198.085 193.69 202.168 193.69 206.79C193.692 212.638 188.845 217.393 182.887 217.393ZM158.745 217.393H157.845C157.155 217.393 156.595 216.833 156.595 216.143C156.595 215.453 157.155 214.893 157.845 214.893H158.745C159.435 214.893 159.995 215.453 159.995 216.143C159.995 216.833 159.437 217.393 158.745 217.393Z"
      fill="#472B29" />
    <path
      d="M178.62 202.885C178.575 202.885 178.53 202.88 178.483 202.87C178.145 202.795 177.933 202.46 178.01 202.122C178.103 201.712 178.245 201.31 178.433 200.925C179.943 197.865 184.118 196.735 187.738 198.407C188.053 198.552 188.19 198.922 188.043 199.235C187.898 199.55 187.525 199.685 187.215 199.54C184.198 198.147 180.768 199.02 179.558 201.475C179.41 201.77 179.303 202.077 179.233 202.392C179.165 202.687 178.91 202.885 178.62 202.885ZM165.723 217.392H162.955C162.265 217.392 161.705 216.832 161.705 216.142C161.705 215.452 162.265 214.892 162.955 214.892H165.723C166.413 214.892 166.973 215.452 166.973 216.142C166.973 216.832 166.415 217.392 165.723 217.392Z"
      fill="#472B29" />
    <g clip-path="url(#clip1_37_414)">
      <path
        d="M395.204 34.6167C394.591 33.252 393.869 31.906 393.187 30.4433C393.168 30.398 393.153 30.3513 393.132 30.306C393.089 30.2113 393.041 30.1213 392.993 30.0307L392.959 29.9567L392.957 29.9587C391.865 27.9653 389.562 27.0507 387.64 27.914C385.609 28.8253 384.776 31.3753 385.78 33.6087C386.783 35.8427 389.243 36.9133 391.273 36.0013C391.344 35.97 391.41 35.9313 391.477 35.8953C392.767 36.1873 392.807 37.1467 392.807 37.1467C392.807 37.1467 395.885 36.1327 395.204 34.6167ZM387.251 32.9487C386.612 31.5267 387.083 29.9307 388.301 29.384C389.518 28.836 391.023 29.5453 391.662 30.9667C392.301 32.388 391.831 33.984 390.613 34.5307C389.395 35.078 387.889 34.37 387.251 32.9487Z"
        fill="#DD2E44" />
      <path
        d="M401.985 50.7454C402.761 50.3074 403.443 49.096 403.005 48.32L395.169 34.5394C394.434 34.87 393.211 36.0814 392.807 37.1474L401.985 50.7454Z"
        fill="#99AAB5" />
      <path
        d="M390.015 50.7454C389.239 50.3074 388.557 49.096 388.995 48.32L396.831 34.5394C397.566 34.87 398.789 36.0814 399.193 37.1474L390.015 50.7454Z"
        fill="#CCD6DD" />
      <path
        d="M397.041 39.0973C397.041 39.6726 396.574 40.1386 396 40.1386C395.425 40.1386 394.959 39.6726 394.959 39.0973C394.959 38.522 395.425 38.056 396 38.056C396.575 38.056 397.041 38.522 397.041 39.0973Z"
        fill="#99AAB5" />
    </g>
  </g>
  <rect x="0.5" y="0.5" width="395" height="305" rx="49.5" stroke="black" stroke-opacity="0.25"
    stroke-dasharray="6 6" />
  <defs>
    <clipPath id="clip0_37_414">
      <rect width="396" height="306" rx="50" fill="white" />
    </clipPath>
    <clipPath id="clip1_37_414">
      <rect width="24" height="24" fill="white" transform="translate(384 27.5)" />
    </clipPath>
  </defs>
</svg>