<svg viewBox="0 0 792 612" fill="none" xmlns="http://www.w3.org/2000/svg">
<g clip-path="url(#clip0_78_83)">
<path d="M79.325 558.32C76.381 558.32 73.7143 557.595 71.325 556.144C68.9783 554.693 67.1223 552.603 65.757 549.872C64.3917 547.099 63.709 543.835 63.709 540.08C63.709 533.595 65.0957 527.6 67.869 522.096C70.6423 516.549 74.7383 512.112 80.157 508.784C85.5757 505.413 92.0823 503.728 99.677 503.728C101.64 503.728 103.73 503.877 105.949 504.176C108.21 504.475 110.258 504.923 112.093 505.52C113.288 505.861 113.885 506.715 113.885 508.08C113.885 509.189 113.458 510.235 112.605 511.216C111.794 512.197 110.834 512.688 109.725 512.688C109.384 512.688 109.128 512.667 108.957 512.624C106.738 512.112 104.84 511.749 103.261 511.536C101.682 511.28 100.018 511.152 98.269 511.152C92.8503 511.152 88.2423 512.475 84.445 515.12C80.6477 517.723 77.8103 521.179 75.933 525.488C74.0557 529.797 73.117 534.448 73.117 539.44C73.117 543.067 73.821 545.883 75.229 547.888C76.6797 549.851 78.557 550.832 80.861 550.832C83.4637 550.832 85.7463 549.765 87.709 547.632C89.6717 545.499 91.4637 542.043 93.085 537.264C94.7063 532.485 96.3063 526 97.885 517.808C98.141 516.613 98.653 515.803 99.421 515.376C100.189 514.949 101.213 514.736 102.493 514.736C105.522 514.736 107.037 515.717 107.037 517.68C107.037 518.021 106.973 518.448 106.845 518.96C105.736 523.099 104.712 527.685 103.773 532.72C102.877 537.712 102.429 541.509 102.429 544.112C102.429 546.416 102.77 548.101 103.453 549.168C104.136 550.192 105.181 550.704 106.589 550.704C107.954 550.704 109.256 550.256 110.493 549.36C111.73 548.421 113.288 546.843 115.165 544.624C115.677 544.027 116.253 543.728 116.893 543.728C117.448 543.728 117.874 543.984 118.173 544.496C118.514 545.008 118.685 545.712 118.685 546.608C118.685 548.272 118.28 549.595 117.469 550.576C115.378 553.093 113.33 555.013 111.325 556.336C109.32 557.659 106.866 558.32 103.965 558.32C100.978 558.32 98.5677 557.467 96.733 555.76C94.8983 554.011 93.7463 551.557 93.277 548.4C90.1197 555.013 85.469 558.32 79.325 558.32ZM158.054 543.728C158.608 543.728 159.035 543.984 159.333 544.496C159.675 545.008 159.846 545.712 159.846 546.608C159.846 548.315 159.44 549.637 158.63 550.576C156.795 552.837 154.79 554.693 152.614 556.144C150.438 557.595 147.942 558.32 145.126 558.32C136.422 558.32 132.07 552.197 132.07 539.952C132.07 538.075 132.134 536.176 132.262 534.256H129.766C128.486 534.256 127.611 534.021 127.142 533.552C126.715 533.083 126.502 532.336 126.502 531.312C126.502 528.923 127.462 527.728 129.382 527.728H133.03C133.755 523.035 134.864 518.747 136.358 514.864C137.851 510.981 139.643 507.888 141.734 505.584C143.867 503.28 146.15 502.128 148.582 502.128C150.374 502.128 151.782 502.917 152.806 504.496C153.83 506.075 154.342 508.059 154.342 510.448C154.342 517.061 151.568 522.821 146.022 527.728H153.19C153.872 527.728 154.363 527.877 154.662 528.176C154.96 528.475 155.11 529.029 155.11 529.84C155.11 532.784 152.699 534.256 147.878 534.256H140.07C139.984 536.389 139.942 538.053 139.942 539.248C139.942 543.685 140.454 546.8 141.478 548.592C142.544 550.384 144.208 551.28 146.47 551.28C148.304 551.28 149.926 550.725 151.334 549.616C152.742 548.507 154.406 546.843 156.326 544.624C156.838 544.027 157.414 543.728 158.054 543.728ZM146.854 508.272C146.214 508.272 145.488 509.083 144.678 510.704C143.91 512.283 143.163 514.501 142.438 517.36C141.755 520.176 141.179 523.312 140.71 526.768C143.227 524.592 145.104 522.16 146.342 519.472C147.622 516.741 148.262 514.267 148.262 512.048C148.262 509.531 147.792 508.272 146.854 508.272ZM179.019 523.952C177.227 523.952 175.883 523.547 174.987 522.736C174.091 521.883 173.643 520.709 173.643 519.216C173.643 517.723 174.219 516.485 175.371 515.504C176.565 514.48 178.037 513.968 179.787 513.968C181.365 513.968 182.645 514.352 183.627 515.12C184.608 515.888 185.099 516.976 185.099 518.384C185.099 520.091 184.544 521.456 183.435 522.48C182.325 523.461 180.853 523.952 179.019 523.952ZM178.507 558.32C175.733 558.32 173.707 557.339 172.427 555.376C171.189 553.413 170.571 550.811 170.571 547.568C170.571 545.648 170.805 543.195 171.275 540.208C171.787 537.179 172.427 534.363 173.195 531.76C173.579 530.395 174.091 529.456 174.731 528.944C175.371 528.432 176.395 528.176 177.803 528.176C179.979 528.176 181.067 528.901 181.067 530.352C181.067 531.419 180.661 533.893 179.851 537.776C178.827 542.469 178.315 545.648 178.315 547.312C178.315 548.592 178.485 549.573 178.827 550.256C179.168 550.939 179.744 551.28 180.555 551.28C181.323 551.28 182.283 550.747 183.435 549.68C184.587 548.613 186.123 546.928 188.043 544.624C188.555 544.027 189.131 543.728 189.771 543.728C190.325 543.728 190.752 543.984 191.051 544.496C191.392 545.008 191.563 545.712 191.563 546.608C191.563 548.315 191.157 549.637 190.347 550.576C186.123 555.739 182.176 558.32 178.507 558.32ZM234.69 538.544C234.818 538.501 235.031 538.48 235.33 538.48C235.97 538.48 236.46 538.693 236.802 539.12C237.143 539.547 237.314 540.123 237.314 540.848C237.314 542.171 237.058 543.216 236.546 543.984C236.034 544.709 235.266 545.243 234.242 545.584C232.279 546.224 230.188 546.544 227.97 546.544C226.092 546.544 224.322 546.288 222.658 545.776C221.42 547.781 220.055 549.851 218.562 551.984C216.855 554.416 215.383 556.08 214.146 556.976C212.908 557.872 211.5 558.32 209.922 558.32C208.172 558.32 206.786 557.637 205.762 556.272C204.78 554.907 204.162 552.752 203.906 549.808C203.394 543.835 203.138 538.608 203.138 534.128V531.888C203.18 530.48 203.564 529.499 204.29 528.944C205.015 528.389 206.103 528.112 207.554 528.112C208.663 528.112 209.474 528.368 209.986 528.88C210.54 529.349 210.818 530.16 210.818 531.312C210.818 536.219 211.116 542.597 211.714 550.448C214.274 546.651 216.194 543.621 217.474 541.36C216.834 540.123 216.514 538.651 216.514 536.944C216.514 535.493 216.834 534.085 217.474 532.72C218.114 531.355 218.988 530.245 220.098 529.392C221.207 528.539 222.466 528.112 223.874 528.112C225.111 528.112 226.114 528.56 226.882 529.456C227.65 530.309 228.034 531.568 228.034 533.232C228.034 535.152 227.522 537.349 226.498 539.824C228.119 539.739 230.274 539.419 232.962 538.864L234.69 538.544ZM256.144 523.952C254.352 523.952 253.008 523.547 252.112 522.736C251.216 521.883 250.768 520.709 250.768 519.216C250.768 517.723 251.344 516.485 252.496 515.504C253.69 514.48 255.162 513.968 256.912 513.968C258.49 513.968 259.77 514.352 260.752 515.12C261.733 515.888 262.224 516.976 262.224 518.384C262.224 520.091 261.669 521.456 260.56 522.48C259.45 523.461 257.978 523.952 256.144 523.952ZM255.632 558.32C252.858 558.32 250.832 557.339 249.552 555.376C248.314 553.413 247.696 550.811 247.696 547.568C247.696 545.648 247.93 543.195 248.4 540.208C248.912 537.179 249.552 534.363 250.32 531.76C250.704 530.395 251.216 529.456 251.856 528.944C252.496 528.432 253.52 528.176 254.928 528.176C257.104 528.176 258.192 528.901 258.192 530.352C258.192 531.419 257.786 533.893 256.976 537.776C255.952 542.469 255.44 545.648 255.44 547.312C255.44 548.592 255.61 549.573 255.952 550.256C256.293 550.939 256.869 551.28 257.68 551.28C258.448 551.28 259.408 550.747 260.56 549.68C261.712 548.613 263.248 546.928 265.168 544.624C265.68 544.027 266.256 543.728 266.896 543.728C267.45 543.728 267.877 543.984 268.176 544.496C268.517 545.008 268.688 545.712 268.688 546.608C268.688 548.315 268.282 549.637 267.472 550.576C263.248 555.739 259.301 558.32 255.632 558.32ZM315.862 543.728C316.416 543.728 316.843 543.984 317.142 544.496C317.483 545.008 317.654 545.712 317.654 546.608C317.654 548.315 317.248 549.637 316.438 550.576C314.688 552.709 312.768 554.544 310.678 556.08C308.587 557.573 306.518 558.32 304.47 558.32C301.227 558.32 298.752 556.421 297.046 552.624C295.254 554.885 293.675 556.4 292.31 557.168C290.987 557.936 289.43 558.32 287.638 558.32C285.035 558.32 282.88 557.36 281.174 555.44C279.51 553.477 278.678 550.939 278.678 547.824C278.678 544.411 279.403 541.253 280.854 538.352C282.304 535.408 284.288 533.019 286.806 531.184C289.366 529.307 292.224 528.197 295.382 527.856C296.192 519.579 297.728 512.517 299.99 506.672C302.294 500.784 305.302 497.84 309.014 497.84C310.848 497.84 312.363 498.672 313.558 500.336C314.795 502 315.414 504.517 315.414 507.888C315.414 512.667 314.24 518.256 311.894 524.656C309.547 531.056 306.411 537.627 302.486 544.368C302.656 546.843 303.019 548.613 303.574 549.68C304.171 550.747 304.918 551.28 305.814 551.28C306.966 551.28 308.139 550.768 309.333 549.744C310.528 548.72 312.128 547.013 314.134 544.624C314.646 544.027 315.222 543.728 315.862 543.728ZM308.31 504.112C307.499 504.112 306.688 505.563 305.878 508.464C305.067 511.323 304.363 515.077 303.766 519.728C303.211 524.379 302.806 529.243 302.55 534.32C307.328 523.909 309.718 515.547 309.718 509.232C309.718 507.611 309.568 506.352 309.27 505.456C309.014 504.56 308.694 504.112 308.31 504.112ZM289.878 551.856C290.688 551.856 291.499 551.536 292.31 550.896C293.12 550.213 294.144 548.976 295.382 547.184C294.955 544.88 294.742 542.299 294.742 539.44C294.742 538.416 294.784 536.752 294.87 534.448C292.523 535.173 290.56 536.752 288.982 539.184C287.446 541.573 286.678 544.24 286.678 547.184C286.678 550.299 287.744 551.856 289.878 551.856ZM335.694 558.32C333.049 558.32 330.937 557.36 329.358 555.44C327.779 553.52 326.99 551.003 326.99 547.888C326.99 544.475 327.779 541.253 329.358 538.224C330.937 535.152 333.027 532.699 335.63 530.864C338.275 528.987 341.07 528.048 344.014 528.048C344.953 528.048 345.571 528.24 345.87 528.624C346.211 528.965 346.489 529.605 346.702 530.544C347.598 530.373 348.537 530.288 349.518 530.288C351.609 530.288 352.654 531.035 352.654 532.528C352.654 533.424 352.334 535.557 351.694 538.928C350.713 543.835 350.222 547.248 350.222 549.168C350.222 549.808 350.371 550.32 350.67 550.704C351.011 551.088 351.438 551.28 351.95 551.28C352.761 551.28 353.742 550.768 354.894 549.744C356.046 548.677 357.603 546.971 359.566 544.624C360.078 544.027 360.654 543.728 361.294 543.728C361.849 543.728 362.275 543.984 362.574 544.496C362.915 545.008 363.086 545.712 363.086 546.608C363.086 548.315 362.681 549.637 361.87 550.576C360.121 552.752 358.265 554.587 356.302 556.08C354.339 557.573 352.441 558.32 350.606 558.32C349.198 558.32 347.897 557.851 346.702 556.912C345.55 555.931 344.675 554.608 344.078 552.944C341.859 556.528 339.065 558.32 335.694 558.32ZM337.998 551.856C338.937 551.856 339.833 551.301 340.686 550.192C341.539 549.083 342.158 547.611 342.542 545.776L344.91 534C343.118 534.043 341.454 534.725 339.918 536.048C338.425 537.328 337.23 539.035 336.334 541.168C335.438 543.301 334.99 545.563 334.99 547.952C334.99 549.275 335.246 550.256 335.758 550.896C336.313 551.536 337.059 551.856 337.998 551.856ZM410.237 543.728C410.791 543.728 411.218 543.984 411.517 544.496C411.858 545.008 412.029 545.712 412.029 546.608C412.029 548.315 411.623 549.637 410.812 550.576C409.063 552.709 407.143 554.544 405.053 556.08C402.962 557.573 400.893 558.32 398.845 558.32C395.602 558.32 393.127 556.421 391.421 552.624C389.629 554.885 388.05 556.4 386.685 557.168C385.362 557.936 383.805 558.32 382.013 558.32C379.41 558.32 377.255 557.36 375.549 555.44C373.885 553.477 373.053 550.939 373.053 547.824C373.053 544.411 373.778 541.253 375.229 538.352C376.679 535.408 378.663 533.019 381.181 531.184C383.741 529.307 386.599 528.197 389.757 527.856C390.567 519.579 392.103 512.517 394.365 506.672C396.669 500.784 399.677 497.84 403.389 497.84C405.223 497.84 406.738 498.672 407.933 500.336C409.17 502 409.789 504.517 409.789 507.888C409.789 512.667 408.615 518.256 406.269 524.656C403.922 531.056 400.786 537.627 396.861 544.368C397.031 546.843 397.394 548.613 397.949 549.68C398.546 550.747 399.293 551.28 400.189 551.28C401.341 551.28 402.514 550.768 403.708 549.744C404.903 548.72 406.503 547.013 408.509 544.624C409.021 544.027 409.597 543.728 410.237 543.728ZM402.685 504.112C401.874 504.112 401.063 505.563 400.253 508.464C399.442 511.323 398.738 515.077 398.141 519.728C397.586 524.379 397.181 529.243 396.925 534.32C401.703 523.909 404.093 515.547 404.093 509.232C404.093 507.611 403.943 506.352 403.645 505.456C403.389 504.56 403.069 504.112 402.685 504.112ZM384.253 551.856C385.063 551.856 385.874 551.536 386.685 550.896C387.495 550.213 388.519 548.976 389.757 547.184C389.33 544.88 389.117 542.299 389.117 539.44C389.117 538.416 389.159 536.752 389.245 534.448C386.898 535.173 384.935 536.752 383.357 539.184C381.821 541.573 381.053 544.24 381.053 547.184C381.053 550.299 382.119 551.856 384.253 551.856ZM445.734 545.648C446.289 545.648 446.715 545.904 447.014 546.416C447.355 546.928 447.526 547.632 447.526 548.528C447.526 550.064 447.163 551.387 446.438 552.496C445.243 554.331 443.665 555.76 441.702 556.784C439.782 557.808 437.478 558.32 434.79 558.32C430.694 558.32 427.515 557.104 425.254 554.672C422.993 552.197 421.862 548.869 421.862 544.688C421.862 541.744 422.481 539.013 423.718 536.496C424.955 533.936 426.662 531.909 428.838 530.416C431.057 528.923 433.553 528.176 436.326 528.176C438.801 528.176 440.785 528.923 442.278 530.416C443.771 531.867 444.518 533.851 444.518 536.368C444.518 539.312 443.451 541.851 441.318 543.984C439.227 546.075 435.643 547.739 430.566 548.976C431.59 550.939 433.318 551.92 435.75 551.92C437.499 551.92 438.929 551.515 440.038 550.704C441.19 549.893 442.513 548.528 444.006 546.608C444.518 545.968 445.094 545.648 445.734 545.648ZM435.238 534.448C433.659 534.448 432.315 535.365 431.206 537.2C430.139 539.035 429.606 541.253 429.606 543.856V543.984C432.123 543.387 434.107 542.491 435.558 541.296C437.009 540.101 437.734 538.715 437.734 537.136C437.734 536.325 437.499 535.685 437.03 535.216C436.603 534.704 436.006 534.448 435.238 534.448ZM534.424 543.728C534.979 543.728 535.405 543.984 535.704 544.496C536.045 545.008 536.216 545.712 536.216 546.608C536.216 548.315 535.811 549.637 535 550.576C533.251 552.709 531.331 554.544 529.24 556.08C527.149 557.573 525.08 558.32 523.032 558.32C519.789 558.32 517.315 556.421 515.608 552.624C513.816 554.885 512.237 556.4 510.872 557.168C509.549 557.936 507.992 558.32 506.2 558.32C503.597 558.32 501.443 557.36 499.736 555.44C498.072 553.477 497.24 550.939 497.24 547.824C497.24 544.411 497.965 541.253 499.416 538.352C500.867 535.408 502.851 533.019 505.368 531.184C507.928 529.307 510.787 528.197 513.944 527.856C514.755 519.579 516.291 512.517 518.552 506.672C520.856 500.784 523.864 497.84 527.576 497.84C529.411 497.84 530.925 498.672 532.12 500.336C533.357 502 533.976 504.517 533.976 507.888C533.976 512.667 532.803 518.256 530.456 524.656C528.109 531.056 524.973 537.627 521.048 544.368C521.219 546.843 521.581 548.613 522.136 549.68C522.733 550.747 523.48 551.28 524.376 551.28C525.528 551.28 526.701 550.768 527.896 549.744C529.091 548.72 530.691 547.013 532.696 544.624C533.208 544.027 533.784 543.728 534.424 543.728ZM526.872 504.112C526.061 504.112 525.251 505.563 524.44 508.464C523.629 511.323 522.925 515.077 522.328 519.728C521.773 524.379 521.368 529.243 521.112 534.32C525.891 523.909 528.28 515.547 528.28 509.232C528.28 507.611 528.131 506.352 527.832 505.456C527.576 504.56 527.256 504.112 526.872 504.112ZM508.44 551.856C509.251 551.856 510.061 551.536 510.872 550.896C511.683 550.213 512.707 548.976 513.944 547.184C513.517 544.88 513.304 542.299 513.304 539.44C513.304 538.416 513.347 536.752 513.432 534.448C511.085 535.173 509.123 536.752 507.544 539.184C506.008 541.573 505.24 544.24 505.24 547.184C505.24 550.299 506.307 551.856 508.44 551.856ZM557.826 558.32C555.308 558.32 553.154 557.701 551.362 556.464C549.612 555.184 548.29 553.52 547.394 551.472C546.498 549.424 546.049 547.227 546.049 544.88C546.049 541.637 546.647 538.757 547.842 536.24C549.079 533.68 550.743 531.696 552.834 530.288C554.924 528.837 557.271 528.112 559.874 528.112C562.391 528.112 564.546 528.752 566.338 530.032C568.13 531.269 569.474 532.912 570.37 534.96C571.266 537.008 571.714 539.205 571.714 541.552C571.714 544.795 571.095 547.696 569.858 550.256C568.62 552.773 566.935 554.757 564.802 556.208C562.711 557.616 560.386 558.32 557.826 558.32ZM558.53 551.408C559.98 551.408 561.196 550.619 562.178 549.04C563.202 547.461 563.714 545.157 563.714 542.128C563.714 539.781 563.287 538.011 562.434 536.816C561.58 535.621 560.556 535.024 559.362 535.024C557.826 535.024 556.546 535.813 555.522 537.392C554.54 538.928 554.05 541.232 554.05 544.304C554.05 546.736 554.476 548.528 555.33 549.68C556.183 550.832 557.25 551.408 558.53 551.408ZM661.299 543.728C661.854 543.728 662.28 543.984 662.579 544.496C662.92 545.008 663.091 545.712 663.091 546.608C663.091 548.315 662.686 549.637 661.875 550.576C660.126 552.709 658.206 554.544 656.115 556.08C654.024 557.573 651.955 558.32 649.907 558.32C646.664 558.32 644.19 556.421 642.483 552.624C640.691 554.885 639.112 556.4 637.747 557.168C636.424 557.936 634.867 558.32 633.075 558.32C630.472 558.32 628.318 557.36 626.611 555.44C624.947 553.477 624.115 550.939 624.115 547.824C624.115 544.411 624.84 541.253 626.291 538.352C627.742 535.408 629.726 533.019 632.243 531.184C634.803 529.307 637.662 528.197 640.819 527.856C641.63 519.579 643.166 512.517 645.427 506.672C647.731 500.784 650.739 497.84 654.451 497.84C656.286 497.84 657.8 498.672 658.995 500.336C660.232 502 660.851 504.517 660.851 507.888C660.851 512.667 659.678 518.256 657.331 524.656C654.984 531.056 651.848 537.627 647.923 544.368C648.094 546.843 648.456 548.613 649.011 549.68C649.608 550.747 650.355 551.28 651.251 551.28C652.403 551.28 653.576 550.768 654.771 549.744C655.966 548.72 657.566 547.013 659.571 544.624C660.083 544.027 660.659 543.728 661.299 543.728ZM653.747 504.112C652.936 504.112 652.126 505.563 651.315 508.464C650.504 511.323 649.8 515.077 649.203 519.728C648.648 524.379 648.243 529.243 647.987 534.32C652.766 523.909 655.155 515.547 655.155 509.232C655.155 507.611 655.006 506.352 654.707 505.456C654.451 504.56 654.131 504.112 653.747 504.112ZM635.315 551.856C636.126 551.856 636.936 551.536 637.747 550.896C638.558 550.213 639.582 548.976 640.819 547.184C640.392 544.88 640.179 542.299 640.179 539.44C640.179 538.416 640.222 536.752 640.307 534.448C637.96 535.173 635.998 536.752 634.419 539.184C632.883 541.573 632.115 544.24 632.115 547.184C632.115 550.299 633.182 551.856 635.315 551.856ZM682.269 523.952C680.477 523.952 679.133 523.547 678.237 522.736C677.341 521.883 676.893 520.709 676.893 519.216C676.893 517.723 677.469 516.485 678.621 515.504C679.815 514.48 681.287 513.968 683.037 513.968C684.615 513.968 685.895 514.352 686.877 515.12C687.858 515.888 688.349 516.976 688.349 518.384C688.349 520.091 687.794 521.456 686.685 522.48C685.575 523.461 684.103 523.952 682.269 523.952ZM681.757 558.32C678.983 558.32 676.957 557.339 675.677 555.376C674.439 553.413 673.821 550.811 673.821 547.568C673.821 545.648 674.055 543.195 674.525 540.208C675.037 537.179 675.677 534.363 676.445 531.76C676.829 530.395 677.341 529.456 677.981 528.944C678.621 528.432 679.645 528.176 681.053 528.176C683.229 528.176 684.317 528.901 684.317 530.352C684.317 531.419 683.911 533.893 683.101 537.776C682.077 542.469 681.565 545.648 681.565 547.312C681.565 548.592 681.735 549.573 682.077 550.256C682.418 550.939 682.994 551.28 683.805 551.28C684.573 551.28 685.533 550.747 686.685 549.68C687.837 548.613 689.373 546.928 691.293 544.624C691.805 544.027 692.381 543.728 693.021 543.728C693.575 543.728 694.002 543.984 694.301 544.496C694.642 545.008 694.813 545.712 694.813 546.608C694.813 548.315 694.407 549.637 693.597 550.576C689.373 555.739 685.426 558.32 681.757 558.32ZM712.995 558.32C710.563 558.32 708.579 557.36 707.043 555.44C705.549 553.52 704.803 551.003 704.803 547.888C704.803 544.475 705.592 541.253 707.171 538.224C708.749 535.152 710.84 532.699 713.443 530.864C716.088 528.987 718.883 528.048 721.827 528.048C722.765 528.048 723.384 528.24 723.683 528.624C724.024 528.965 724.301 529.605 724.515 530.544C725.325 530.373 726.221 530.288 727.203 530.288C728.227 530.288 729.016 530.544 729.571 531.056C730.125 531.568 730.403 532.293 730.403 533.232C730.403 534.213 730.189 535.92 729.763 538.352C729.293 540.955 728.931 543.451 728.675 545.84C728.419 548.187 728.291 550.832 728.291 553.776C728.291 555.397 727.949 556.571 727.267 557.296C726.627 557.979 725.56 558.32 724.067 558.32C722.616 558.32 721.528 557.979 720.803 557.296C720.12 556.571 719.779 555.419 719.779 553.84L719.843 552.816C718.52 556.485 716.237 558.32 712.995 558.32ZM715.491 551.856C716.685 551.856 717.773 551.024 718.755 549.36C719.736 547.696 720.611 544.731 721.378 540.464L722.595 534C720.845 534.043 719.224 534.725 717.731 536.048C716.237 537.328 715.043 539.035 714.147 541.168C713.251 543.301 712.803 545.563 712.803 547.952C712.803 549.232 713.037 550.213 713.507 550.896C714.019 551.536 714.68 551.856 715.491 551.856Z" fill="#00A7A7"/>
<path d="M165.509 107.251C162.625 107.841 159.867 107.665 157.236 106.723C154.646 105.772 152.408 104.096 150.524 101.694C148.63 99.2507 147.307 96.1897 146.555 92.5112C145.255 86.1575 145.412 80.0065 147.026 74.0584C148.631 68.0684 151.755 62.9002 156.397 58.5537C161.03 54.1654 167.067 51.2102 174.507 49.6881C176.43 49.2948 178.508 49.022 180.742 48.87C183.017 48.7094 185.113 48.7378 187.03 48.9553C188.269 49.0503 189.025 49.7666 189.299 51.1043C189.521 52.1911 189.313 53.3007 188.674 54.4332C188.076 55.5571 187.234 56.2302 186.147 56.4525C185.813 56.5209 185.558 56.5513 185.382 56.5437C183.106 56.4868 181.173 56.512 179.583 56.6194C177.985 56.685 176.329 56.8931 174.616 57.2437C169.307 58.3297 165.057 60.549 161.867 63.9018C158.669 67.2127 156.582 71.1672 155.606 75.7654C154.63 80.3635 154.643 85.1079 155.643 89.9987C156.37 93.5517 157.624 96.1695 159.406 97.852C161.22 99.4841 163.256 100.069 165.513 99.6075C168.063 99.0858 170.086 97.5833 171.581 95.0999C173.076 92.6165 174.139 88.8715 174.77 83.8648C175.401 78.8582 175.669 72.1838 175.573 63.8416C175.585 62.6198 175.924 61.723 176.591 61.1511C177.258 60.5791 178.218 60.1649 179.472 59.9084C182.44 59.3012 184.121 59.9591 184.514 61.8819C184.582 62.2163 184.605 62.6472 184.582 63.1745C184.325 67.4515 184.241 72.1503 184.331 77.271C184.453 82.3412 184.775 86.1513 185.297 88.7012C185.759 90.9584 186.431 92.5412 187.314 93.4494C188.188 94.3158 189.314 94.6079 190.694 94.3257C192.031 94.052 193.217 93.3523 194.249 92.2265C195.273 91.0589 196.483 89.2002 197.877 86.6502C198.259 85.9624 198.764 85.5544 199.391 85.4261C199.934 85.3149 200.403 85.4802 200.799 85.922C201.236 86.3552 201.544 87.0107 201.723 87.8885C202.057 89.5188 201.925 90.8958 201.327 92.0197C199.784 94.905 198.162 97.1965 196.462 98.8942C194.763 100.592 192.492 101.732 189.649 102.313C186.723 102.912 184.191 102.559 182.051 101.254C179.903 99.9083 178.283 97.7356 177.19 94.7364C175.422 101.848 171.529 106.02 165.509 107.251Z" fill="#BD977C"/>
<path d="M210.998 74.2859C211.259 76.4049 211.486 78.0539 211.679 79.2328C212.176 82.2644 212.714 84.6191 213.291 86.2971C213.904 87.926 214.631 89.0608 215.471 89.7013C216.346 90.2928 217.436 90.4816 218.742 90.2676C219.415 90.1572 220.181 89.8155 221.038 89.2426C221.895 88.6697 222.648 87.9843 223.295 87.1863C223.689 86.6894 224.118 86.4029 224.581 86.327C225.086 86.2441 225.535 86.4733 225.926 87.0144C226.352 87.5066 226.631 88.1526 226.762 88.9526C226.894 89.7526 226.853 90.5592 226.64 91.3723C226.47 92.1785 226.11 92.886 225.562 93.4948C223.669 95.6642 221.333 96.9767 218.554 97.4323C214.554 98.0881 211.355 96.9047 208.957 93.8822C206.553 90.8175 204.908 86.5905 204.025 81.2011C203.721 79.3485 203.477 77.4645 203.293 75.5491L200.83 75.9529C199.567 76.16 198.665 76.0699 198.126 75.6827C197.629 75.2886 197.298 74.5863 197.132 73.5758C196.746 71.2179 197.5 69.8837 199.395 69.573L202.995 68.9829C202.951 64.234 203.352 59.823 204.197 55.7499C205.043 51.6768 206.311 48.3343 208.001 45.7224C209.734 43.1036 211.8 41.5975 214.2 41.204C215.968 40.9141 217.485 41.4652 218.751 42.8574C220.017 44.2496 220.844 46.1247 221.23 48.4825C222.3 55.0087 220.495 61.1415 215.815 66.8809L222.889 65.7213C223.563 65.6108 224.071 65.6788 224.414 65.9252C224.757 66.1716 224.994 66.6948 225.125 67.4948C225.602 70.4 223.461 72.2426 218.703 73.0227L210.998 74.2859ZM213.489 47.5466C212.857 47.6502 212.273 48.5675 211.735 50.2986C211.232 51.9808 210.854 54.291 210.601 57.2294C210.383 60.1187 210.322 63.3066 210.418 66.793C212.55 64.2384 214.009 61.5347 214.795 58.6819C215.617 55.7801 215.848 53.2345 215.489 51.0451C215.082 48.5609 214.415 47.3948 213.489 47.5466Z" fill="#BD977C"/>
<path d="M239.942 59.5166C238.167 59.7654 236.78 59.5506 235.78 58.8722C234.774 58.1515 234.168 57.0517 233.96 55.5729C233.753 54.094 234.152 52.7887 235.156 51.6569C236.197 50.477 237.584 49.7656 239.316 49.5227C240.88 49.3035 242.201 49.5061 243.279 50.1304C244.357 50.7547 244.994 51.7641 245.19 53.1584C245.427 54.8486 245.067 56.2777 244.111 57.4458C243.148 58.5716 241.759 59.2619 239.942 59.5166ZM238.629 94.4048C237.277 94.5944 236.309 94.45 235.725 93.9718C235.141 93.4936 234.766 92.6629 234.6 91.4799C234.552 91.1418 234.512 90.5444 234.478 89.6874C234.07 81.8603 234.203 74.6681 234.878 68.1109C235.032 66.7537 235.454 65.7682 236.144 65.1545C236.87 64.4927 238.099 64.0403 239.831 63.7975C241.648 63.5427 242.66 64.1548 242.867 65.6337C242.897 65.845 242.911 66.2523 242.909 66.8557C242.276 76.1645 242.198 83.9089 242.677 90.089C242.782 91.4529 242.514 92.4599 241.872 93.1099C241.231 93.7599 240.15 94.1915 238.629 94.4048Z" fill="#BD977C"/>
<path d="M262.661 91.2595C260.881 91.4671 259.406 90.9733 258.236 89.7781C257.061 88.5405 256.173 86.4533 255.573 83.5164C254.372 77.6425 253.513 72.4807 252.994 68.0308L252.735 65.8059C252.614 64.4024 252.882 63.3832 253.538 62.7483C254.194 62.1133 255.243 61.7119 256.684 61.5439C257.785 61.4154 258.62 61.5758 259.188 62.0251C259.793 62.427 260.163 63.2001 260.296 64.3443C260.864 69.218 261.9 75.5191 263.402 83.2478C264.859 79.8992 266.094 76.8558 267.106 74.1175C268.156 71.3318 269.215 67.7074 270.284 63.2442C270.602 61.9185 271.118 60.9993 271.831 60.4865C272.54 59.9314 273.466 59.5871 274.61 59.4537C276.941 59.1819 278.193 59.7877 278.366 61.271C278.425 61.7795 278.337 62.4986 278.102 63.4281C275.603 71.8381 273.115 78.6789 270.636 83.9508C269.435 86.5393 268.208 88.3577 266.955 89.4058C265.703 90.4538 264.272 91.0718 262.661 91.2595Z" fill="#BD977C"/>
<path d="M292.969 53.5397C291.185 53.7058 289.809 53.4269 288.841 52.7028C287.87 51.9362 287.315 50.8095 287.177 49.3226C287.038 47.8357 287.497 46.5502 288.553 45.4663C289.648 44.336 291.066 43.6897 292.808 43.5275C294.38 43.3811 295.69 43.6447 296.738 44.3184C297.786 44.9921 298.376 46.03 298.506 47.4319C298.665 49.1312 298.239 50.5421 297.229 51.6645C296.216 52.7445 294.796 53.3696 292.969 53.5397ZM290.038 88.3293C288.679 88.4559 287.718 88.2668 287.157 87.762C286.596 87.2572 286.26 86.41 286.149 85.2205C286.117 84.8807 286.105 84.2819 286.11 83.4244C286.066 75.5867 286.533 68.4085 287.512 61.8897C287.729 60.541 288.196 59.5762 288.913 58.9952C289.669 58.3678 290.918 57.973 292.66 57.8107C294.486 57.6406 295.469 58.299 295.607 59.7859C295.627 59.9983 295.622 60.4059 295.593 61.0086C294.528 70.2779 294.091 78.0104 294.282 84.206C294.324 85.5734 294.009 86.5668 293.338 87.1864C292.668 87.8059 291.567 88.1869 290.038 88.3293Z" fill="#BD977C"/>
<path d="M329.415 70.6395C330.119 74.0986 331.033 77.5008 332.157 80.846C332.364 81.3879 332.488 81.9569 332.529 82.5528C332.658 84.4685 331.552 85.5053 329.211 85.6634C327.891 85.7525 326.845 85.4596 326.072 84.7848C325.342 84.1071 324.612 82.788 323.881 80.8274L323.8 80.5763C322.317 82.6863 320.939 84.1264 319.665 84.8966C318.434 85.664 316.967 86.1051 315.264 86.2201C312.668 86.3954 310.453 85.5827 308.621 83.782C306.829 81.9359 305.828 79.4591 305.618 76.3515C305.388 72.9459 305.899 69.7469 307.151 66.7544C308.403 63.7619 310.223 61.2657 312.611 59.2656C314.996 57.223 317.729 55.9052 320.811 55.3123C321.077 47.212 322.136 40.1058 323.99 33.9937C325.887 27.8787 328.729 24.6933 332.518 24.4376C334.348 24.314 335.916 25.0421 337.22 26.6218C338.566 28.1987 339.353 30.6686 339.58 34.0316C339.896 38.7143 339.116 44.2621 337.24 50.6751C335.364 57.088 332.755 63.7428 329.415 70.6395ZM332.238 30.7427C331.003 30.8261 330.045 34.0553 329.364 40.4303C328.725 46.8025 328.464 53.7051 328.581 61.1381C332.617 50.6023 334.419 42.1417 333.988 35.7563C333.878 34.1386 333.645 32.8929 333.286 32.019C332.971 31.1423 332.621 30.7169 332.238 30.7427ZM317.064 79.6199C317.915 79.5624 318.703 79.1885 319.426 78.4982C320.191 77.8051 321.13 76.5016 322.241 74.5877C321.605 71.5089 321.175 68.3092 320.951 64.9888C320.862 63.6691 320.814 62.646 320.808 61.9195C318.513 62.7587 316.681 64.4432 315.312 66.9732C313.943 69.5031 313.358 72.2367 313.556 75.174C313.766 78.2816 314.935 79.7636 317.064 79.6199Z" fill="#BD977C"/>
<path d="M351.282 84.2186C348.851 84.3043 346.834 83.4149 345.232 81.5503C343.672 79.6841 342.837 77.1947 342.727 74.0819C342.606 70.6707 343.282 67.4236 344.753 64.3404C346.222 61.2147 348.225 58.6892 350.761 56.7639C353.339 54.7944 356.098 53.7578 359.041 53.654C359.979 53.6209 360.604 53.791 360.916 54.1642C361.269 54.4933 361.569 55.1231 361.815 56.0537C362.619 55.8545 363.512 55.7376 364.492 55.703C365.516 55.6669 366.313 55.8949 366.886 56.3871C367.458 56.8792 367.761 57.5943 367.794 58.5324C367.829 59.5131 367.676 61.2262 367.335 63.6718C366.958 66.2894 366.683 68.7966 366.512 71.1935C366.339 73.5477 366.304 76.1959 366.408 79.1381C366.465 80.7584 366.165 81.943 365.509 82.692C364.893 83.3968 363.839 83.7755 362.347 83.8282C360.897 83.8793 359.798 83.5766 359.049 82.9199C358.341 82.2191 357.959 81.0799 357.903 79.5022L357.931 78.4765C356.739 82.1902 354.522 84.1043 351.282 84.2186ZM353.548 77.6706C354.742 77.6285 355.8 76.7586 356.722 75.0611C357.644 73.3635 358.414 70.3692 359.031 66.0781L360.018 59.5752C358.271 59.6795 356.675 60.4189 355.229 61.7934C353.782 63.1253 352.648 64.873 351.828 67.0366C351.008 69.2002 350.64 71.476 350.724 73.8638C350.769 75.143 351.038 76.1155 351.531 76.7812C352.066 77.4027 352.738 77.6992 353.548 77.6706Z" fill="#BD977C"/>
<path d="M402.003 68.7452C402.483 72.2424 403.176 75.6963 404.083 79.1068C404.255 79.6609 404.343 80.2367 404.344 80.834C404.35 82.754 403.18 83.7176 400.833 83.725C399.511 83.7291 398.486 83.3696 397.758 82.6466C397.073 81.9234 396.429 80.56 395.825 78.5566L395.761 78.3008C394.145 80.3112 392.678 81.6598 391.357 82.3466C390.079 83.0332 388.587 83.3792 386.88 83.3846C384.278 83.3927 382.12 82.4394 380.407 80.5248C378.737 78.5673 377.897 76.0313 377.888 72.9166C377.877 69.5033 378.592 66.3437 380.034 63.4379C381.476 60.532 383.452 58.1578 385.964 56.3153C388.475 54.4301 391.288 53.2906 394.401 52.8969C395.187 44.8304 396.701 37.807 398.943 31.8266C401.229 25.8461 404.27 22.8499 408.067 22.8381C409.902 22.8323 411.419 23.6596 412.619 25.3199C413.862 26.98 414.488 29.4954 414.499 32.866C414.513 37.5593 413.378 43.0456 411.094 49.3247C408.81 55.6039 405.779 62.0774 402.003 68.7452ZM407.383 29.1122C406.146 29.1161 404.982 32.2771 403.892 38.5952C402.846 44.9132 402.142 51.7847 401.781 59.2099C406.485 48.9551 408.827 40.6278 408.807 34.2278C408.802 32.6065 408.649 31.3483 408.347 30.4532C408.088 29.558 407.767 29.111 407.383 29.1122ZM389.1 76.9136C389.953 76.9109 390.763 76.5884 391.529 75.946C392.338 75.3035 393.358 74.0629 394.59 72.2244C394.153 69.1111 393.93 65.8905 393.919 62.5625C393.915 61.2398 393.933 60.2157 393.974 59.4903C391.629 60.1803 389.693 61.7437 388.164 64.1805C386.636 66.6172 385.876 69.3076 385.886 72.2516C385.895 75.3663 386.967 76.9203 389.1 76.9136Z" fill="#BD977C"/>
<path d="M438.855 71.4696C439.409 71.4849 439.829 71.7526 440.113 72.2727C440.44 72.7939 440.591 73.5024 440.566 74.3981C440.524 75.9335 440.125 77.2456 439.369 78.3344C438.124 80.1353 436.506 81.5204 434.516 82.4897C432.568 83.4602 430.251 83.9082 427.564 83.8338C423.47 83.7205 420.326 82.417 418.133 79.9233C415.941 77.387 414.903 74.029 415.018 69.8493C415.1 66.9064 415.794 64.1939 417.1 61.7118C418.408 59.187 420.17 57.2083 422.387 55.7758C424.646 54.3444 427.162 53.6671 429.934 53.7439C432.408 53.8124 434.37 54.6137 435.822 56.1478C437.274 57.6392 437.966 59.6431 437.896 62.1595C437.814 65.1023 436.678 67.6105 434.486 69.684C432.339 71.716 428.71 73.2802 423.6 74.3765C424.57 76.3668 426.27 77.3955 428.701 77.4629C430.45 77.5113 431.89 77.1456 433.021 76.366C434.195 75.5875 435.555 74.2593 437.101 72.3814C437.63 71.7558 438.215 71.4519 438.855 71.4696ZM428.673 59.9834C427.095 59.9397 425.726 60.8195 424.566 62.6227C423.449 64.4272 422.854 66.6302 422.782 69.2319L422.779 69.3599C425.312 68.8324 427.32 67.9917 428.803 66.8376C430.286 65.6835 431.05 64.3175 431.093 62.7394C431.116 61.9291 430.899 61.2828 430.443 60.8007C430.03 60.2771 429.44 60.0046 428.673 59.9834Z" fill="#BD977C"/>
<path d="M493.667 73.027C493.862 76.5516 494.273 80.0503 494.9 83.5232C495.027 84.0895 495.067 84.6704 495.02 85.2659C494.87 87.18 493.626 88.0455 491.286 87.8624C489.967 87.7591 488.975 87.3177 488.308 86.5379C487.684 85.7615 487.153 84.3504 486.714 82.3046L486.67 82.0444C484.897 83.917 483.325 85.1421 481.953 85.7194C480.623 86.3001 479.108 86.5238 477.407 86.3907C474.812 86.1875 472.739 85.0623 471.187 83.0149C469.681 80.9284 469.05 78.3325 469.293 75.2274C469.56 71.8245 470.529 68.7334 472.202 65.9541C473.874 63.1748 476.037 60.9689 478.69 59.3363C481.346 57.6612 484.242 56.7537 487.377 56.614C488.815 48.6378 490.894 41.7605 493.614 35.9818C496.377 30.2065 499.652 27.4671 503.438 27.7634C505.267 27.9066 506.712 28.8543 507.773 30.6065C508.877 32.3619 509.297 34.9199 509.034 38.2803C508.668 42.9593 507.091 48.3353 504.305 54.4084C501.518 60.4814 497.972 66.6876 493.667 73.027ZM502.246 33.9613C501.013 33.8648 499.597 36.9209 497.998 43.1297C496.441 49.3419 495.182 56.1337 494.22 63.5051C499.741 53.6659 502.751 45.5561 503.25 39.1756C503.377 37.5592 503.326 36.2928 503.098 35.3762C502.913 34.4629 502.629 33.9913 502.246 33.9613ZM480.144 80.1212C480.995 80.1878 481.828 79.932 482.644 79.3539C483.502 78.7791 484.619 77.6255 485.996 75.893C485.814 72.7545 485.853 69.5264 486.112 66.2085C486.216 64.8899 486.317 63.8707 486.416 63.1509C484.023 63.6483 481.966 65.0494 480.245 67.3541C478.524 69.6588 477.548 72.2787 477.319 75.2137C477.076 78.3189 478.017 79.9547 480.144 80.1212Z" fill="#BD977C"/>
<path d="M516.77 90.0146C514.268 89.7387 512.194 88.8876 510.549 87.4614C508.95 85.9973 507.818 84.1984 507.152 82.0645C506.486 79.9307 506.281 77.6975 506.538 75.3649C506.894 72.1418 507.803 69.3446 509.266 66.9734C510.777 64.5644 512.648 62.7748 514.881 61.6044C517.118 60.3916 519.53 59.9278 522.117 60.2131C524.619 60.489 526.69 61.3613 528.331 62.83C529.977 64.2563 531.133 66.0363 531.799 68.1702C532.465 70.3041 532.67 72.5373 532.412 74.8698C532.057 78.0929 531.124 80.909 529.614 83.3179C528.108 85.6845 526.215 87.4718 523.936 88.6799C521.703 89.8503 519.315 90.2952 516.77 90.0146ZM518.228 83.2214C519.67 83.3804 520.965 82.7291 522.113 81.2675C523.304 79.8106 524.065 77.5766 524.397 74.5655C524.655 72.233 524.425 70.4262 523.707 69.1452C522.99 67.8642 522.038 67.1583 520.85 67.0273C519.324 66.859 517.965 67.5033 516.774 68.9602C515.63 70.3794 514.89 72.6157 514.553 75.6692C514.287 78.0866 514.514 79.9145 515.236 81.1531C515.958 82.3917 516.955 83.0811 518.228 83.2214Z" fill="#BD977C"/>
<path d="M586.67 85.0744C586.572 88.603 586.691 92.1238 587.028 95.6367C587.107 96.2115 587.099 96.7937 587.003 97.3833C586.695 99.2785 585.383 100.038 583.067 99.6612C581.761 99.4489 580.809 98.9267 580.209 98.0943C579.652 97.2689 579.239 95.8185 578.971 93.7433L578.949 93.4804C577.027 95.1996 575.359 96.2899 573.944 96.7515C572.571 97.2199 571.042 97.3172 569.357 97.0434C566.788 96.6257 564.816 95.3324 563.439 93.1635C562.112 90.9592 561.698 88.3199 562.198 85.2456C562.745 81.8765 563.968 78.8765 565.865 76.2455C567.763 73.6146 570.101 71.5956 572.88 70.1887C575.666 68.7396 578.627 68.0755 581.763 68.1962C583.857 60.3668 586.499 53.6856 589.69 48.1525C592.923 42.6263 596.413 40.1678 600.161 40.7772C601.972 41.0716 603.334 42.1358 604.246 43.97C605.2 45.811 605.407 48.3949 604.866 51.7219C604.113 56.3544 602.096 61.5812 598.815 67.4022C595.535 73.2232 591.486 79.114 586.67 85.0744ZM598.46 46.8549C597.239 46.6564 595.574 49.5845 593.466 55.6394C591.399 61.701 589.581 68.365 588.011 75.6311C594.329 66.2838 598.001 58.4516 599.028 52.1345C599.288 50.5342 599.343 49.2679 599.192 48.3356C599.083 47.4101 598.839 46.9165 598.46 46.8549ZM572.605 91.0226C573.448 91.1595 574.299 90.9737 575.16 90.4653C576.063 89.9636 577.272 88.9067 578.788 87.2943C578.866 84.1515 579.173 80.9377 579.707 77.6528C579.919 76.3473 580.104 75.34 580.263 74.6309C577.837 74.9282 575.671 76.1538 573.765 78.3078C571.858 80.4618 570.669 82.9918 570.197 85.8976C569.697 88.9719 570.5 90.6803 572.605 91.0226Z" fill="#BD977C"/>
<path d="M612.745 69.7683C610.984 69.4358 609.739 68.7882 609.009 67.8254C608.286 66.8206 608.064 65.5845 608.341 64.1171C608.618 62.6497 609.414 61.5407 610.728 60.7902C612.092 60.0056 613.633 59.7756 615.352 60.1001C616.903 60.393 618.09 61.0078 618.912 61.9445C619.733 62.8813 620.014 64.0414 619.752 65.425C619.436 67.102 618.637 68.3407 617.357 69.1411C616.085 69.8996 614.548 70.1087 612.745 69.7683ZM600.331 102.4C598.99 102.146 598.119 101.7 597.719 101.06C597.319 100.42 597.229 99.5128 597.451 98.3389C597.514 98.0034 597.667 97.4244 597.909 96.6017C600.029 89.0559 602.458 82.285 605.196 76.289C605.777 75.0526 606.492 74.2541 607.342 73.8935C608.241 73.4989 609.551 73.4638 611.27 73.7884C613.072 74.1287 613.835 75.0326 613.558 76.5C613.519 76.7097 613.401 77.1001 613.207 77.6712C609.626 86.2871 607.073 93.5991 605.548 99.6071C605.211 100.933 604.635 101.801 603.819 102.212C603.003 102.622 601.841 102.685 600.331 102.4Z" fill="#BD977C"/>
<path d="M624.414 107.174C622.036 106.665 620.297 105.31 619.197 103.111C618.14 100.921 617.937 98.3027 618.59 95.2572C619.305 91.9197 620.752 88.9353 622.931 86.3042C625.118 83.6313 627.677 81.6706 630.606 80.4222C633.586 79.1411 636.516 78.809 639.394 79.426C640.312 79.6228 640.877 79.9402 641.088 80.3782C641.351 80.7835 641.488 81.4674 641.499 82.43C642.328 82.433 643.222 82.5374 644.181 82.7431C645.183 82.9577 645.901 83.3734 646.336 83.9903C646.771 84.6072 646.89 85.3746 646.693 86.2924C646.488 87.2519 645.921 88.876 644.994 91.1645C643.99 93.611 643.112 95.9755 642.361 98.2581C641.619 100.499 640.939 103.059 640.322 105.937C639.982 107.523 639.403 108.598 638.583 109.165C637.814 109.698 636.7 109.808 635.24 109.495C633.821 109.191 632.829 108.629 632.263 107.81C631.747 106.957 631.655 105.759 631.986 104.216L632.263 103.228C630.201 106.539 627.584 107.854 624.414 107.174ZM628.209 101.377C629.377 101.628 630.615 101.042 631.924 99.6208C633.232 98.1994 634.709 95.4833 636.354 91.4724L638.898 85.4068C637.178 85.0819 635.45 85.4095 633.712 86.3898C631.984 87.3284 630.458 88.7468 629.135 90.6449C627.812 92.5431 626.9 94.6603 626.399 96.9965C626.131 98.2481 626.154 99.2568 626.47 100.023C626.837 100.756 627.416 101.207 628.209 101.377Z" fill="#BD977C"/>
<path d="M620.019 323.785C621.833 320.739 623.441 317.534 624.832 314.176C640.752 275.746 616.676 229.711 565.983 218.597C560.499 162.299 512.128 123.677 457.505 117.084C394.98 109.542 337.702 142.031 318.644 193.67C295.674 187.013 273.291 187.824 252.195 197.909C242.623 201.529 233.868 206.871 226.014 213.899C214.484 224.216 206.986 237.238 203.933 250.968C199.41 251.551 194.966 252.135 190.776 253.362C166.349 260.528 150.936 275.277 146.71 297.493C144.08 311.327 149.389 325.126 152.351 330.7C164.051 352.733 191.181 365.222 218.746 361.918C220.119 361.755 222.114 362.259 223.293 363.07C224.75 398.285 245.653 429.428 277.009 447.219C327.321 475.766 392.053 466.972 432.89 427.826C450.388 442.466 471.212 449.578 495.676 446.996C520 444.429 538.889 433.449 552.669 415.595C559.036 416.995 565.07 419.013 571.31 419.571C595.749 421.757 615.593 413.81 630.153 395.831C635.728 388.952 641 380.034 641 364.406C641 348.302 633.182 333.628 620.019 323.785Z" fill="#A6D1FC"/>
<path d="M528.895 300.46C528.895 300.46 587.35 300.46 587.705 300.46C601.205 300.46 612.145 289.515 612.145 276.015C612.145 264.24 603.815 254.41 592.725 252.095C592.855 251.065 592.94 250.02 592.94 248.955C592.94 234.975 581.605 223.64 567.625 223.64C559.37 223.64 552.06 227.61 547.44 233.725C546.26 218.16 532.355 206.155 516.09 208.145C504.195 209.6 494.36 218.795 492.17 230.575C491.47 234.355 491.54 238.02 492.24 241.46C489.05 238.025 484.51 235.865 479.455 235.865C470.205 235.865 462.65 243.07 462.055 252.17C457.855 251.24 453.285 251.3 448.47 253.11C439.27 256.565 432.72 265.225 432.335 275.045C431.79 288.99 442.935 300.47 456.76 300.47C457.81 300.47 461.5 300.47 462.35 300.47H513.105" fill="#FAFCFF"/>
<path d="M587.705 302.96H528.895C527.515 302.96 526.395 301.84 526.395 300.46C526.395 299.08 527.515 297.96 528.895 297.96H587.705C599.805 297.96 609.65 288.115 609.65 276.015C609.65 265.685 602.32 256.65 592.22 254.535C590.95 254.27 590.09 253.075 590.25 251.78C590.36 250.85 590.445 249.915 590.445 248.95C590.445 236.37 580.21 226.14 567.63 226.14C560.44 226.14 553.805 229.455 549.435 235.23C548.81 236.06 547.725 236.41 546.74 236.12C545.74 235.825 545.03 234.95 544.95 233.915C544.43 227.025 541.06 220.555 535.7 216.165C530.285 211.725 523.45 209.765 516.4 210.625C505.57 211.955 496.625 220.34 494.635 231.025C494.015 234.365 494.035 237.705 494.7 240.96C494.92 242.06 494.39 243.17 493.39 243.685C492.41 244.2 491.185 243.985 490.415 243.16C487.545 240.07 483.655 238.365 479.465 238.365C471.625 238.365 465.075 244.5 464.565 252.33C464.515 253.06 464.155 253.73 463.57 254.165C462.99 254.605 462.22 254.755 461.535 254.61C457.31 253.685 453.335 253.95 449.365 255.445C441.02 258.58 435.185 266.49 434.85 275.135C434.615 281.17 436.785 286.89 440.96 291.23C445.14 295.57 450.755 297.965 456.775 297.965H513.125C514.505 297.965 515.625 299.085 515.625 300.465C515.625 301.845 514.505 302.965 513.125 302.965H456.775C449.38 302.965 442.49 300.03 437.355 294.7C432.23 289.37 429.56 282.35 429.85 274.945C430.27 264.315 437.405 254.6 447.61 250.77C451.605 249.27 455.75 248.78 459.95 249.275C461.835 240.165 469.93 233.365 479.47 233.365C482.895 233.365 486.24 234.265 489.19 235.915C489.185 233.985 489.365 232.05 489.725 230.115C492.105 217.305 502.82 207.255 515.795 205.665C524.205 204.625 532.39 206.99 538.87 212.3C543.89 216.41 547.455 222.055 549.06 228.265C554.12 223.69 560.655 221.14 567.63 221.14C582.965 221.14 595.445 233.615 595.445 248.95C595.445 249.37 595.435 249.78 595.41 250.19C606.68 253.56 614.65 264.08 614.65 276.015C614.65 290.875 602.565 302.96 587.705 302.96Z" fill="#472B29"/>
<path d="M514.73 246.615C505.69 246.02 497.905 252.265 497.35 260.56C497.28 261.59 497.325 262.605 497.475 263.59C495.73 261.62 493.15 260.285 490.185 260.09C484.76 259.735 480.075 263.315 479.395 268.19C478.41 267.92 477.38 267.74 476.315 267.67C468.405 267.15 461.595 272.615 461.105 279.875" fill="#FDFCEF"/>
<path d="M461.11 281.12C461.08 281.12 461.055 281.12 461.025 281.115C460.335 281.07 459.815 280.475 459.865 279.785C460.39 271.855 467.675 265.82 476.4 266.42C477.075 266.46 477.755 266.55 478.445 266.685C479.815 261.845 484.715 258.43 490.27 258.845C492.4 258.98 494.385 259.645 496.085 260.755C496.09 260.66 496.095 260.575 496.105 260.48C496.7 251.51 505.02 244.68 514.815 245.37C515.505 245.415 516.025 246.01 515.975 246.7C515.935 247.385 515.425 248.01 514.645 247.86C506.335 247.45 499.105 253.055 498.59 260.65C498.53 261.58 498.57 262.505 498.705 263.405C498.79 263.95 498.505 264.495 498 264.73C497.49 264.955 496.895 264.84 496.53 264.425C494.945 262.63 492.595 261.505 490.095 261.34C485.36 261.155 481.225 264.12 480.63 268.365C480.575 268.72 480.375 269.04 480.08 269.24C479.78 269.435 479.405 269.495 479.065 269.4C478.11 269.14 477.155 268.98 476.23 268.915C468.975 268.47 462.79 273.395 462.35 279.955C462.31 280.615 461.765 281.12 461.11 281.12Z" fill="#472B29"/>
<path d="M597.605 254.96C589.11 250.955 579.285 253.79 575.66 261.295C575.21 262.225 574.875 263.19 574.655 264.165" fill="#DAE9FF"/>
<path d="M574.655 265.41C574.565 265.41 574.475 265.4 574.38 265.38C573.705 265.23 573.28 264.555 573.435 263.885C573.685 262.795 574.05 261.74 574.54 260.745C578.445 252.645 589.03 249.54 598.14 253.825C598.765 254.125 599.035 254.865 598.74 255.49C598.44 256.12 597.69 256.37 597.075 256.09C589.205 252.37 580.1 254.96 576.79 261.83C576.385 262.66 576.075 263.535 575.875 264.43C575.745 265.01 575.225 265.41 574.655 265.41Z" fill="#472B29"/>
<path d="M236.695 293.78H186.545C185.165 293.78 184.045 292.66 184.045 291.28C184.045 289.9 185.165 288.78 186.545 288.78H236.695C238.075 288.78 239.195 289.9 239.195 291.28C239.195 292.66 238.075 293.78 236.695 293.78ZM251.1 293.78H243.875C242.495 293.78 241.375 292.66 241.375 291.28C241.375 289.9 242.495 288.78 243.875 288.78H251.1C252.48 288.78 253.6 289.9 253.6 291.28C253.6 292.66 252.48 293.78 251.1 293.78ZM271.375 293.78H258.645C257.265 293.78 256.145 292.66 256.145 291.28C256.145 289.9 257.265 288.78 258.645 288.78H271.375C272.755 288.78 273.875 289.9 273.875 291.28C273.875 292.66 272.755 293.78 271.375 293.78ZM271.375 303.11H223.295C221.915 303.11 220.795 301.99 220.795 300.61C220.795 299.23 221.915 298.11 223.295 298.11H271.375C272.755 298.11 273.875 299.23 273.875 300.61C273.875 301.99 272.755 303.11 271.375 303.11ZM214.635 303.11H211.735C210.355 303.11 209.235 301.99 209.235 300.61C209.235 299.23 210.355 298.11 211.735 298.11H214.635C216.015 298.11 217.135 299.23 217.135 300.61C217.135 301.99 216.015 303.11 214.635 303.11ZM202.75 303.11H195.47C194.09 303.11 192.97 301.99 192.97 300.61C192.97 299.23 194.09 298.11 195.47 298.11H202.75C204.13 298.11 205.25 299.23 205.25 300.61C205.25 301.99 204.13 303.11 202.75 303.11ZM248.43 284.455H223.295C221.915 284.455 220.795 283.335 220.795 281.955C220.795 280.575 221.915 279.455 223.295 279.455H248.43C249.81 279.455 250.93 280.575 250.93 281.955C250.93 283.335 249.81 284.455 248.43 284.455ZM248.43 275.135H242.145C240.765 275.135 239.645 274.015 239.645 272.635C239.645 271.255 240.765 270.135 242.145 270.135H248.43C249.81 270.135 250.93 271.255 250.93 272.635C250.93 274.015 249.81 275.135 248.43 275.135ZM232.085 312.43H223.29C221.91 312.43 220.79 311.31 220.79 309.93C220.79 308.55 221.91 307.43 223.29 307.43H232.085C233.465 307.43 234.585 308.55 234.585 309.93C234.585 311.31 233.47 312.43 232.085 312.43ZM502.585 162.395H452.435C451.055 162.395 449.935 161.275 449.935 159.895C449.935 158.515 451.055 157.395 452.435 157.395H502.585C503.965 157.395 505.085 158.515 505.085 159.895C505.085 161.275 503.965 162.395 502.585 162.395ZM516.99 162.395H509.765C508.385 162.395 507.265 161.275 507.265 159.895C507.265 158.515 508.385 157.395 509.765 157.395H516.99C518.37 157.395 519.49 158.515 519.49 159.895C519.49 161.275 518.37 162.395 516.99 162.395ZM537.26 162.395H524.53C523.15 162.395 522.03 161.275 522.03 159.895C522.03 158.515 523.15 157.395 524.53 157.395H537.26C538.64 157.395 539.76 158.515 539.76 159.895C539.76 161.275 538.645 162.395 537.26 162.395ZM527.135 143.745H479.055C477.675 143.745 476.555 142.625 476.555 141.245C476.555 139.865 477.675 138.745 479.055 138.745H527.135C528.515 138.745 529.635 139.865 529.635 141.245C529.635 142.625 528.515 143.745 527.135 143.745ZM470.395 143.745H467.495C466.115 143.745 464.995 142.625 464.995 141.245C464.995 139.865 466.115 138.745 467.495 138.745H470.395C471.775 138.745 472.895 139.865 472.895 141.245C472.895 142.625 471.78 143.745 470.395 143.745ZM458.51 143.745H451.23C449.85 143.745 448.73 142.625 448.73 141.245C448.73 139.865 449.85 138.745 451.23 138.745H458.51C459.89 138.745 461.01 139.865 461.01 141.245C461.01 142.625 459.895 143.745 458.51 143.745ZM514.315 153.075H489.18C487.8 153.075 486.68 151.955 486.68 150.575C486.68 149.195 487.8 148.075 489.18 148.075H514.315C515.695 148.075 516.815 149.195 516.815 150.575C516.815 151.955 515.7 153.075 514.315 153.075Z" fill="white"/>
<path d="M514.315 143.745H508.03C506.65 143.745 505.53 142.625 505.53 141.245C505.53 139.865 506.65 138.745 508.03 138.745H514.315C515.695 138.745 516.815 139.865 516.815 141.245C516.815 142.625 515.7 143.745 514.315 143.745ZM481.905 153.075H473.11C471.73 153.075 470.61 151.955 470.61 150.575C470.61 149.195 471.73 148.075 473.11 148.075H481.905C483.285 148.075 484.405 149.195 484.405 150.575C484.405 151.955 483.285 153.075 481.905 153.075Z" fill="white"/>
<path d="M425.43 281.51C425.315 281.51 425.195 281.49 425.085 281.44C424.64 281.25 424.435 280.73 424.625 280.29L429.39 269.17C429.58 268.725 430.11 268.52 430.54 268.71C430.985 268.9 431.19 269.42 431 269.86L426.235 280.98C426.095 281.315 425.765 281.51 425.43 281.51ZM429.355 285.245C429.24 285.245 429.12 285.225 429.01 285.175C428.565 284.985 428.36 284.465 428.55 284.025L433.315 272.91C433.505 272.46 434.035 272.255 434.465 272.45C434.91 272.64 435.115 273.16 434.925 273.6L430.16 284.715C430.02 285.05 429.695 285.245 429.355 285.245ZM433.285 288.985C433.17 288.985 433.05 288.965 432.94 288.915C432.495 288.725 432.29 288.205 432.48 287.765L437.24 276.645C437.43 276.195 437.96 275.995 438.39 276.185C438.835 276.375 439.04 276.895 438.85 277.335L434.09 288.455C433.95 288.79 433.625 288.985 433.285 288.985ZM437.215 292.725C437.1 292.725 436.98 292.705 436.87 292.655C436.425 292.465 436.22 291.945 436.41 291.505L441.175 280.385C441.365 279.935 441.9 279.74 442.325 279.925C442.77 280.115 442.975 280.635 442.785 281.075L438.02 292.195C437.875 292.53 437.55 292.725 437.215 292.725ZM441.14 296.465C441.025 296.465 440.905 296.445 440.795 296.395C440.35 296.205 440.145 295.685 440.335 295.245L445.1 284.125C445.29 283.675 445.825 283.475 446.25 283.665C446.695 283.855 446.9 284.375 446.71 284.815L441.945 295.935C441.805 296.27 441.475 296.465 441.14 296.465Z" fill="#472B29"/>
<path d="M348.08 432.285C357.495 432.285 365.665 432.285 365.78 432.285C376.33 432.285 384.885 423.915 384.885 413.59C384.885 404.58 378.375 397.065 369.71 395.29C369.81 394.5 369.88 393.705 369.88 392.89C369.88 382.195 361.02 373.525 350.095 373.525C343.645 373.525 337.93 376.56 334.32 381.24C333.395 369.335 322.53 360.15 309.82 361.675C300.525 362.79 292.835 369.82 291.125 378.83C290.575 381.72 290.635 384.525 291.18 387.155C288.69 384.53 285.14 382.875 281.19 382.875C273.96 382.875 268.055 388.385 267.59 395.345C264.305 394.635 260.735 394.68 256.975 396.06C249.785 398.7 244.665 405.325 244.365 412.84C243.94 423.505 252.65 432.285 263.455 432.285C264.275 432.285 267.16 432.285 267.825 432.285H307.495H348.08ZM315.69 432.285H317.49Z" fill="#FAFCFF"/>
<path d="M365.775 434.785H348.075C346.695 434.785 345.575 433.665 345.575 432.285C345.575 430.905 346.695 429.785 348.075 429.785H365.775C374.93 429.785 382.38 422.52 382.38 413.59C382.38 405.97 376.84 399.31 369.195 397.745C367.915 397.48 367.05 396.27 367.215 394.97C367.305 394.285 367.365 393.6 367.365 392.89C367.365 383.59 359.61 376.025 350.08 376.025C344.62 376.025 339.59 378.48 336.28 382.77C335.65 383.59 334.565 383.92 333.59 383.64C332.6 383.34 331.89 382.47 331.815 381.44C331.42 376.34 328.99 371.72 324.97 368.42C320.825 365.015 315.545 363.52 310.1 364.15C301.87 365.135 295.07 371.36 293.565 379.29C293.095 381.76 293.11 384.23 293.61 386.645C293.84 387.74 293.31 388.85 292.32 389.37C291.335 389.885 290.13 389.685 289.345 388.87C287.21 386.615 284.305 385.375 281.17 385.375C275.32 385.375 270.44 389.83 270.065 395.51C270.015 396.24 269.655 396.9 269.075 397.34C268.495 397.775 267.755 397.945 267.04 397.785C263.855 397.095 260.835 397.295 257.81 398.41C251.5 400.73 247.09 406.565 246.845 412.935C246.67 417.315 248.255 421.475 251.32 424.66C254.495 427.965 258.795 429.78 263.435 429.78H307.475C308.855 429.78 309.975 430.9 309.975 432.28C309.975 433.66 308.855 434.78 307.475 434.78H263.435C257.505 434.78 251.78 432.355 247.71 428.125C243.7 423.95 241.62 418.485 241.845 412.74C242.175 404.365 247.905 396.725 256.09 393.71C259.15 392.585 262.32 392.17 265.495 392.49C267.22 385.51 273.64 380.37 281.175 380.37C283.64 380.37 286.06 380.935 288.24 381.98C288.29 380.775 288.425 379.565 288.655 378.35C290.56 368.305 299.135 360.42 309.505 359.18C316.32 358.34 322.935 360.27 328.14 364.54C331.88 367.61 334.53 371.585 335.87 376.05C339.825 372.81 344.8 371.015 350.085 371.015C362.375 371.015 372.37 380.825 372.37 392.88C372.37 393.05 372.365 393.22 372.36 393.395C381.185 396.17 387.38 404.335 387.38 413.58C387.385 425.275 377.69 434.785 365.775 434.785ZM317.49 434.785H315.69C314.31 434.785 313.19 433.665 313.19 432.285C313.19 430.905 314.31 429.785 315.69 429.785H317.49C318.87 429.785 319.99 430.905 319.99 432.285C319.99 433.665 318.875 434.785 317.49 434.785Z" fill="#472B29"/>
<path d="M357.24 405.77C357.15 405.77 357.06 405.76 356.965 405.74C356.29 405.59 355.865 404.92 356.02 404.245C356.205 403.425 356.49 402.62 356.865 401.85C359.885 395.73 368.235 393.47 375.475 396.815C376.105 397.105 376.38 397.845 376.085 398.47C375.795 399.1 375.05 399.37 374.43 399.08C368.395 396.295 361.535 398.04 359.115 402.95C358.82 403.54 358.605 404.155 358.465 404.785C358.33 405.375 357.82 405.77 357.24 405.77ZM331.445 434.785H325.91C324.53 434.785 323.41 433.665 323.41 432.285C323.41 430.905 324.53 429.785 325.91 429.785H331.445C332.825 429.785 333.945 430.905 333.945 432.285C333.945 433.665 332.83 434.785 331.445 434.785Z" fill="#472B29"/>
<path d="M790.408 69.2334C789.181 66.504 787.737 63.812 786.373 60.8867C786.336 60.796 786.305 60.7027 786.264 60.612C786.179 60.4227 786.081 60.2427 785.987 60.0614L785.917 59.9134L785.915 59.9174C783.731 55.9307 779.124 54.1014 775.28 55.828C771.219 57.6507 769.552 62.7507 771.56 67.2174C773.567 71.6854 778.485 73.8267 782.547 72.0027C782.688 71.94 782.82 71.8627 782.955 71.7907C785.535 72.3747 785.613 74.2934 785.613 74.2934C785.613 74.2934 791.771 72.2654 790.408 69.2334V69.2334ZM774.501 65.8974C773.224 63.0534 774.165 59.8614 776.601 58.768C779.036 57.672 782.047 59.0907 783.324 61.9334C784.601 64.776 783.661 67.968 781.227 69.0614C778.789 70.156 775.777 68.74 774.501 65.8974V65.8974Z" fill="#DD2E44"/>
<path d="M803.971 101.491C805.521 100.615 806.887 98.1919 806.009 96.6399L790.339 69.0786C788.868 69.7399 786.421 72.1626 785.613 74.2946L803.971 101.491V101.491Z" fill="#99AAB5"/>
<path d="M780.029 101.491C778.479 100.615 777.113 98.1919 777.991 96.6399L793.661 69.0786C795.132 69.7399 797.579 72.1626 798.387 74.2946L780.029 101.491Z" fill="#CCD6DD"/>
<path d="M794.083 78.1947C794.083 79.3454 793.148 80.2774 792 80.2774C790.849 80.2774 789.917 79.3454 789.917 78.1947C789.917 77.0441 790.849 76.1121 792 76.1121C793.149 76.1121 794.083 77.0441 794.083 78.1947Z" fill="#99AAB5"/>
<g clip-path="url(#clip1_78_83)">
<path d="M407.308 430.601C422.478 431.586 437.739 431.776 452.898 430.484C467.585 429.232 482.535 426.756 496.212 421.065C499.509 419.692 502.707 418.112 505.829 416.38C508.892 414.681 511.934 412.877 514.708 410.731C520.033 406.609 524.519 401.372 527.546 395.34C530.744 388.97 532.307 381.905 532.658 374.813C532.994 368.023 532.139 361.229 528.554 355.324C521.767 344.146 508.402 338.748 496.385 335.333C482.136 331.283 467.29 329.46 452.573 328.115C440.709 327.032 428.81 326.355 416.913 325.765C411.652 325.503 406.392 325.248 401.131 324.994C396.955 324.793 392.773 324.819 388.594 324.719C381.048 324.538 373.504 324.227 365.969 323.786C350.904 322.902 335.806 321.591 320.915 319.093C314.753 318.06 308.65 316.891 302.694 314.968C295.773 312.733 289.037 309.848 282.683 306.308C270.737 299.655 259.353 290.191 254.091 277.219C251.412 270.615 250.409 263.154 251.34 256.081C252.226 249.357 255.187 243.112 259.66 238.033C265.55 231.346 273.533 227.054 281.693 223.782C295.205 218.363 309.974 215.978 324.449 215.181C333.57 214.678 342.774 214.772 351.881 215.539C364.3 216.586 376.679 218.053 389.057 219.504C404.179 221.277 419.299 223.231 434.471 224.545C442.012 225.199 449.51 226.214 457.038 227.002C464.563 227.789 472.107 228.412 479.667 228.733C487.16 229.051 494.686 229.12 502.172 228.576C509.414 228.05 516.784 226.962 523.607 224.387C529.455 222.179 534.988 218.646 538.337 213.234C535.125 219.748 528.955 224.029 522.463 226.87C515.586 229.879 508.096 231.46 500.695 232.513C485.361 234.695 469.761 234.65 454.313 234.139C450.429 234.01 446.544 233.856 442.663 233.642C438.783 233.429 434.921 232.986 431.062 232.55C428.135 232.219 425.207 231.912 422.28 231.594C410.067 230.267 397.869 228.802 385.668 227.376C373.764 225.985 361.845 224.477 349.889 223.612C338.799 222.81 327.59 222.876 316.533 224.05C308.988 224.851 301.435 226.166 294.133 228.247C288.588 229.826 283.055 231.79 277.939 234.478C270.7 238.28 263.984 243.571 260.939 251.394C258.397 257.928 258.799 265.681 261.006 272.249C263.123 278.552 267.2 284.04 271.982 288.587C276.979 293.339 282.832 297.166 288.93 300.35C295.487 303.774 302.451 306.514 309.59 308.451C312.296 309.184 315.047 309.667 317.794 310.204C321.61 310.948 325.462 311.534 329.312 312.077C337.014 313.162 344.756 313.958 352.505 314.602C367.213 315.827 381.979 316.494 396.737 316.645C401.756 316.696 406.775 317.038 411.787 317.287C422.228 317.805 432.669 318.332 443.096 319.099C458.569 320.235 474.12 321.775 489.296 325.099C496.48 326.672 503.623 328.657 510.426 331.476C517.056 334.224 523.479 337.797 528.745 342.727C533.872 347.528 537.706 353.56 539.548 360.364C541.55 367.758 541.269 375.77 539.994 383.267C538.788 390.357 536.285 397.281 532.425 403.361C528.604 409.38 523.575 414.516 517.845 418.739C505.938 427.516 490.973 431.27 476.511 433.169C461.061 435.196 445.308 434.997 429.815 433.552C422.279 432.848 414.767 431.884 407.308 430.601Z" fill="#EE3E54"/>
<path d="M389.773 427.973C350.566 414.762 336.048 387.486 335.179 385.795C335.159 385.761 335.152 385.733 335.138 385.72V385.713L358.964 375.186L395.317 359.128C395.317 359.128 406.939 388.869 389.773 427.973Z" fill="#F2C07E"/>
<path d="M372.825 389.621C370.697 390.559 368.567 391.346 366.459 391.989C365.987 392.14 365.515 392.277 365.043 392.407C352.352 395.918 340.73 394.091 336.179 387.561C336.172 387.561 336.172 387.554 336.172 387.547C335.768 386.979 335.426 386.363 335.138 385.719V385.713L258.559 212.377L282.385 201.849L318.738 185.785L395.317 359.128C399.519 368.629 389.444 382.284 372.825 389.621Z" fill="#EE3E54"/>
<path d="M389.773 427.973C350.566 414.762 336.048 387.486 335.179 385.795C335.165 385.768 335.152 385.747 335.138 385.72V385.713L358.964 375.186L363.393 385.207C364.413 387.513 378.691 420.573 389.773 427.973Z" fill="#D6A86F"/>
<path d="M366.459 391.989C365.987 392.14 365.515 392.277 365.043 392.407C352.352 395.918 340.73 394.091 336.179 387.561C336.172 387.561 336.172 387.554 336.172 387.547C335.611 386.616 335.289 386.007 335.179 385.795C335.166 385.767 335.152 385.746 335.138 385.719V385.712L258.559 212.376L282.385 201.849L358.964 375.186L363.393 385.207C363.653 385.795 364.762 388.362 366.459 391.989Z" fill="#E02B4A"/>
<path d="M318.733 185.785C314.536 176.285 297.662 174.536 281.044 181.877C264.427 189.219 254.357 202.871 258.554 212.371C262.751 221.871 279.625 223.621 296.243 216.279C312.861 208.938 322.93 195.285 318.733 185.785Z" fill="#D6A86F"/>
<path d="M278.091 208.873C276.072 208.873 274.223 207.684 273.397 205.814C272.516 203.82 272.991 201.486 274.582 199.994C277.6 197.165 281.494 194.655 285.842 192.734C290.19 190.813 294.668 189.625 298.791 189.299C300.96 189.125 303.01 190.347 303.891 192.342C304.772 194.336 304.297 196.671 302.706 198.162C299.688 200.991 295.795 203.502 291.447 205.422C287.098 207.343 282.62 208.531 278.498 208.857C278.362 208.868 278.227 208.873 278.091 208.873Z" fill="#EE3E54"/>
<path d="M396.576 407.473C395.118 413.907 392.935 420.779 389.773 427.973V427.98C389.766 427.98 389.752 427.973 389.745 427.973C382.654 425.577 376.364 422.723 370.826 419.643C370.826 419.643 372.818 415.502 376.856 411.853C381.121 408.02 387.671 404.735 396.576 407.473Z" fill="#EE3E54"/>
<path d="M389.773 427.973H389.745C382.654 425.577 376.364 422.723 370.826 419.642C370.826 419.642 372.818 415.501 376.856 411.853C381.032 418.848 385.625 425.2 389.773 427.973Z" fill="#E02B4A"/>
</g>
</g>
<rect x="1.5" y="1.5" width="789" height="609" rx="48.5" stroke="black" stroke-opacity="0.25" stroke-width="3" stroke-dasharray="6 6"/>
<defs>
<clipPath id="clip0_78_83">
<rect width="792" height="612" rx="50" fill="white"/>
</clipPath>
<clipPath id="clip1_78_83">
<rect width="290" height="290" fill="white" transform="translate(251 161)"/>
</clipPath>
</defs>
</svg>
