<svg viewBox="0 0 195 249" fill="none" xmlns="http://www.w3.org/2000/svg">
  <path d="M47.5 226.5C28.5 226.5 13.5 211 13.5 192.5V38C13.5 19 29 3.5 47.5 3.5H157C176 3.5 191 19 191 38V192.5C191 211.5 175.5 226.5 157 226.5H47.5Z" fill="#F69272"/>
  <path d="M162.5 186.5V56.5C162.5 50 167.5 45 173 45H190V186.5H162.5Z" fill="#FAE8E6"/>
  <path d="M157.5 7C174.5 7 188 21 188 37.5V192C188 209 174 223 157 223H47.5C30.5 223 16.5 209 16.5 192V37.5C16.5 20.5 30.5 7 47.5 7H157.5ZM157.5 0H48C27 0 10 17 10 37.5V192C10 213 27 230 47.5 230H157C178 230 195 213 195 192V37.5C195 17 178 0 157.5 0Z" fill="#472B29"/>
  <path d="M162.5 215C161 215 160 214 160 212.5V59C160 51.5 166.5 45 174 45H192.5C194 45 195 46 195 47.5C195 49 194 50 192.5 50H174C169 50 165 54 165 59V212.5C165 214 164 215 162.5 215Z" fill="#472B29"/>
  <path d="M60.5 117H129C133.5 117 137.5 113 137.5 108.5V60.5C137.5 56 133.5 52 129 52H60.5C56 52 52 56 52 60.5V108.5C52.5 113.5 56 117 60.5 117Z" fill="#FEFDEF"/>
  <path d="M87.5 55H77.5C76 55 75 54 75 52.5C75 51 76 50 77.5 50H87.5C89 50 90 51 90 52.5C90 54 89 55 87.5 55Z" fill="#472B29"/>
  <path d="M129 120H60.5C55 120 50 115 50 109V61C50 55 55 50 60.5 50H67.5C69 50 70 51 70 52.5C70 54 69 55 67.5 55H60.5C57.5 55 55 57.5 55 61V109C55 112.5 57.5 115 60.5 115H129C132 115 135 112.5 135 109V61C135 57.5 132.5 55 129 55H97.5C96 55 95 54 95 52.5C95 51 96 50 97.5 50H129C135 50 140 55 140 61V109C140 115 135 120 129 120Z" fill="#472B29"/>
  <path d="M27.5 45H2.5C1 45 0 44 0 42.5C0 41 1 40 2.5 40H27.5C29 40 30 41 30 42.5C30 44 29 45 27.5 45Z" fill="#472B29"/>
  <path d="M187.5 75H162.5C161 75 160 74 160 72.5C160 71 161 70 162.5 70H187.5C189 70 190 71 190 72.5C190 74 189 75 187.5 75Z" fill="#472B29"/>
  <path d="M187.5 105H162.5C161 105 160 104 160 102.5C160 101 161 100 162.5 100H187.5C189 100 190 101 190 102.5C190 104 189 105 187.5 105Z" fill="#472B29"/>
  <path d="M187.5 130H162.5C161 130 160 129 160 127.5C160 126 161 125 162.5 125H187.5C189 125 190 126 190 127.5C190 129 189 130 187.5 130Z" fill="#472B29"/>
  <path d="M187.5 160H162.5C161 160 160 159 160 157.5C160 156 161 155 162.5 155H187.5C189 155 190 156 190 157.5C190 159 189 160 187.5 160Z" fill="#472B29"/>
  <path d="M187.5 190H162.5C161 190 160 189 160 187.5C160 186 161 185 162.5 185H187.5C189 185 190 186 190 187.5C190 189 189 190 187.5 190Z" fill="#472B29"/>
  <path d="M27.5 70H2.5C1 70 0 69 0 67.5C0 66 1 65 2.5 65H27.5C29 65 30 66 30 67.5C30 69 29 70 27.5 70Z" fill="#472B29"/>
  <path d="M27.5 95H2.5C1 95 0 94 0 92.5C0 91 1 90 2.5 90H27.5C29 90 30 91 30 92.5C30 94 29 95 27.5 95Z" fill="#472B29"/>
  <path d="M27.5 120H2.5C1 120 0 119 0 117.5C0 116 1 115 2.5 115H27.5C29 115 30 116 30 117.5C30 119 29 120 27.5 120Z" fill="#472B29"/>
  <path d="M27.5 145H2.5C1 145 0 144 0 142.5C0 141 1 140 2.5 140H27.5C29 140 30 141 30 142.5C30 144 29 145 27.5 145Z" fill="#472B29"/>
  <path d="M26 165H2.5C1 165 0 164 0 162.5C0 161 1 160 2.5 160H26C27.5 160 28.5 161 28.5 162.5C28.5 164 27.5 165 26 165Z" fill="#472B29"/>
  <path d="M26 189H2.5C1 189 0 188 0 186.5C0 185 1 184 2.5 184H26C27.5 184 28.5 185 28.5 186.5C28.5 188 27.5 189 26 189Z" fill="#472B29"/>
  <path d="M95 88.5C88 88.5 82.5 83 82.5 76C82.5 69 88 63.5 95 63.5C102 63.5 107.5 69 107.5 76C107.5 83 102 88.5 95 88.5Z" fill="#A3A3CD"/>
  <path d="M95 66.5C100.5 66.5 105 71 105 76.5C105 82 100.5 86.5 95 86.5C89.5 86.5 85 82 85 76.5C85 71 89.5 66.5 95 66.5ZM95 61.5C87 61.5 80 68 80 76.5C80 85 86.5 91.5 95 91.5C103.5 91.5 110 85 110 76.5C110 68 103.5 61.5 95 61.5Z" fill="#472B29"/>
  <path d="M72.5 117.5C73.5 103.5 83 92 95 92C107 92 116.5 103 117.5 117.5H72.5Z" fill="#A3A3CD"/>
  <path d="M95 94.5C104.5 94.5 113 103.5 114.5 115H75.5C77 103.5 85.5 94.5 95 94.5ZM95 89.5C81 89.5 70 103 70 120H120C120 103 109 89.5 95 89.5Z" fill="#472B29"/>
  <path d="M62.5 241L52.5 245V227.5H72.5V245L62.5 241Z" fill="#A3A3CD"/>
  <path d="M70 230V241.5L64 239.5L62 239L60 239.5L55 241.5V230H70ZM75 225H50V248.5L62.5 244L75 248.5V225Z" fill="#472B29"/>
</svg>
