<svg width="272" height="321" xmlns="http://www.w3.org/2000/svg" xmlns:xlink="http://www.w3.org/1999/xlink" overflow="hidden"><defs><clipPath id="clip0"><rect x="340" y="110" width="272" height="321"/></clipPath></defs><g clip-path="url(#clip0)" transform="translate(-340 -110)"><path d="M454.478 111C449.619 111 444.599 112.003 439.935 112.86 433.94 113.735 427.711 115.05 421.898 116.671 411.252 119.779 401.393 124.9 392.28 130.902 388.188 133.661 384.148 136.548 379.868 139.308 375.405 142.422 372.522 145.878 369.592 150.259 364.201 158.622 359.739 167.205 357.414 176.884 356.81 179.245 357.044 181.833 357.044 184.543L357.044 186.734 357.044 188.924C356.81 193.482 358.206 198.425 359.362 202.805 359.551 203.729 359.551 204.427 359.551 205.173 359.739 216.644 352.763 226.714 347.327 236.57 342.118 246.206 339 256.453 340.955 267.221 341.695 271.956 343.651 276.857 345.976 281.06 348.489 285.44 352.393 288.903 354.484 293.675 358.758 303.524 357.972 313.38 356.251 323.585 354.484 334.707 352.575 345.652 352.159 356.775 351.971 367.548 353.738 378.671 358.206 388.527 362.623 398.028 369.222 408.055 377.361 415.017 381.03 418.303 385.863 420.101 390.143 422.463 394.794 425.399 400.418 427.412 405.628 428.685 410.505 429.78 415.896 429.78 420.969 429.951 421.859 429.982 422.749 430 423.652 430 427.828 430 432.095 429.682 436.265 429.254 441.286 428.856 446.307 427.761 450.957 426.317 456.764 424.476 462.207 422.114 468.014 420.493 475.626 418.541 483.394 417.813 491.169 417.813 495.079 417.813 498.996 417.997 502.886 418.303 513.72 419.177 524.178 422.683 535.057 423.209 537.317 423.325 539.591 423.387 541.864 423.387 550.49 423.387 559.18 422.506 567.604 420.493 589.87 415.017 601.496 393.121 595.871 372.675 592.988 361.902 589.688 351.519 590.851 340.354 592.195 329.409 596.657 319.553 600.516 309.349 607.862 289.82 616 267.576 606.699 247.301 598.801 229.785 577.269 222.34 568.767 205.173 566.624 200.793 566.02 195.672 564.857 190.937 563.694 185.112 562.954 179.245 561.369 173.421 560.025 168.472 557.699 163.571 555.374 159.013 552.867 153.893 550.353 148.595 547.424 143.688 542.215 135.105 533.109 129.28 524.178 124.331 514.324 118.684 501.912 116.494 490.708 114.132 479.27 111.765 467.462 111.196 455.602 111.018 455.231 111.006 454.855 111 454.478 111Z" fill="#BDDFD1" fill-rule="evenodd"/><path d="M499.305 245C496.444 245 493.42 245.902 491.165 247.438 488.461 249.443 486.688 251.978 486.317 255.245 486.128 256.689 486.317 258.347 486.688 259.785 486.923 259.785 486.923 259.956 486.923 259.956 485.333 261.223 484.167 263.229 483.606 264.496 483 265.977 483 267.982 484.167 269.073 484.962 270.164 485.757 270.688 486.923 271.432 487.295 271.779 488.09 271.779 488.65 271.779 487.855 273.614 487.295 275.052 487.106 277.057 486.923 279.763 487.855 282.335 489.256 284.693 492.143 289.581 498.164 291.409 503.808 292.5 505.659 292.835 507.601 293 509.575 293 514 293 518.555 292.177 522.465 290.672 524.609 289.794 526.76 287.966 527.92 286.132 528.48 285.041 528.904 283.95 529.086 282.688L529.086 281.073C529.92 281.518 530.722 281.993 531.654 281.993 531.823 281.993 531.993 281.975 532.169 281.945 534.736 281.768 537.441 281.073 539.168 279.415 542.1 277.057 543.084 273.217 541.494 270.164 544.993 265.063 544.622 257.427 539.168 253.587 536.235 251.43 532.599 249.912 529.125 249.912 527.333 249.912 525.587 250.314 524.003 251.235 523.821 250.534 523.632 249.796 523.071 249.053 521.299 247.438 519.337 246.524 517.011 245.78 516.398 245.616 515.733 245.536 515.043 245.536 513.57 245.536 512.012 245.896 510.807 246.524 509.451 247.048 509.08 247.962 508.474 248.876 506.512 247.261 504.785 245.957 501.846 245.256 501.032 245.085 500.178 245 499.305 245Z" fill="#DEF0F3" fill-rule="evenodd"/><path d="M442.433 137.006C439.494 137.006 435.224 140.897 434.238 142.109 433.252 143.204 432.645 144.299 431.901 145.394 431.287 146.3 430.36 147.425 430.236 147.425 430.157 147.425 430.366 147.022 431.104 145.92 431.901 144.648 432.462 142.812 431.476 141.54 431.104 141.191 430.543 141.191 430.125 141.191 426.057 142.457 422.74 146.489 422.133 150.301 421.76 152.883 420.964 155.422 420.402 157.961 420.03 159.234 419.423 160.151 418.626 161.075 416.896 161.993 415.355 162.911 413.579 164.006 410.073 166.196 407.174 169.653 404.418 172.767 398.999 178.592 396.054 185.511 394.324 193.171 391.007 208.718 398.202 227.329 409.276 239.156 409.531 239.394 409.831 239.486 410.125 239.486 410.321 239.486 410.51 239.443 410.68 239.376 412.084 239.841 413.69 240 415.231 240 416.001 240 416.759 239.957 417.457 239.902 419.423 239.547 421.943 237.363 420.774 235.699 420.774 235.521 420.774 235.173 420.592 234.995 417.693 228.779 413.579 222.955 410.445 216.732 407.552 210.339 406.194 203.419 406.194 196.677 406.005 189.714 410.262 181.131 414.937 175.875 417.693 172.767 420.592 170.399 423.719 167.989 425.45 167.989 427.415 169.084 428.956 169.482 429.929 169.671 430.947 169.812 431.959 169.812 432.789 169.812 433.624 169.72 434.421 169.482 437.764 168.539 439.958 166.361 443.366 166.361 443.921 166.361 444.503 166.416 445.129 166.545 445.861 166.734 446.879 166.936 447.878 166.936 448.721 166.936 449.55 166.796 450.177 166.374 453.121 164.709 452.743 162.342 450.405 160.151 449.615 159.454 448.446 158.885 447.278 158.53 449.426 157.961 451.763 157.435 453.912 156.34 457 154.853 456.014 150.124 452.508 150.124 452.364 150.111 452.214 150.105 452.07 150.105 449.857 150.105 447.532 151.286 445.737 152.314 446.292 151.567 447.088 151.041 448.068 150.472 449.426 149.775 451.156 149.206 452.325 147.933 454.506 145.89 456.36 140.536 452.005 140.536 451.692 140.536 451.345 140.561 450.967 140.622 447.839 141.191 445.737 142.635 443.582 144.476L443.582 144.299C445.129 142.812 445.502 141.014 444.94 139.001 444.457 137.557 443.536 137.006 442.433 137.006Z" fill="#F6D68D" fill-rule="evenodd"/><path d="M413.59 226.006C412.984 226.006 412.476 226.566 412.763 227.107 413.186 227.678 413.558 228.207 413.929 228.779 412.203 228.779 410.665 228.957 409.082 229.701 406 231.158 406 235.204 407.915 237.583 410.665 241.235 413.929 244.536 417.057 247.832 420.738 251.883 425.214 255.886 427.364 261.038 431.416 270.192 434.544 279.211 435.521 289.11 435.521 290.917 435.899 292.768 435.899 294.391 435.899 295.491 435.521 297.52 436.505 298.442 437.345 299.113 438.095 299.205 439.026 299.205 439.378 299.205 439.762 299.192 440.186 299.192 442.518 299.192 444.851 299.893 447.183 299.893 456.324 299.893 465.648 300.994 474.789 300.994 479.643 300.994 484.679 300.643 489.526 299.893 491.67 299.543 498.668 300.115 498.668 296.42 498.668 287.265 501 278.111 499.462 268.913 497.873 259.009 491.859 251.883 482.158 247.832 476.704 245.631 470.684 244.18 464.671 243.258 458.233 242.335 451.848 240.878 445.646 239.384 439.58 238.105 433.377 236.655 427.735 234.632 425.031 233.531 422.51 232.431 419.995 230.98 419.571 230.98 419.389 230.58 419.011 230.408 418.829 230.23 418.594 230.058 418.405 229.879L418.034 229.879C416.685 228.601 415.33 227.285 414.164 226.184 413.975 226.055 413.779 226.006 413.59 226.006Z" fill="#F6D68D" fill-rule="evenodd"/><path d="M410.526 220.006C410.409 220.006 410.292 220.006 410.175 220.012 408.452 220.012 407.06 221.277 406.124 222.366 405.597 223.01 405.532 223.789 405.526 224.44L405.526 224.44C405.428 223.868 404.693 223.759 403.978 223.759 403.53 223.759 403.087 223.801 402.821 223.801 402.658 223.795 402.489 223.789 402.327 223.789 398.302 223.789 393.269 225.79 391.93 229.633 391 233.07 391.748 237.078 395.051 238.86 393.328 240.514 394.069 243.39 396.397 244.132 393.737 247.52 396.325 253.407 400.5 253.407 400.558 253.407 400.623 253.407 400.682 253.401L400.682 253.401C400.077 255.755 402.216 257.366 404.96 258.102 403.796 260.279 403.009 262.457 404.355 264.634 405.708 266.982 407.665 268.247 410.175 268.423 409.986 270.247 410.968 271.902 413.107 272.425 414.329 272.838 415.35 273.033 416.3 273.033 417.45 273.033 418.497 272.753 419.668 272.248 420.422 276.39 423.062 280.994 428.315 280.994 428.595 280.994 428.875 280.982 429.167 280.957 431.488 280.781 434.98 280.957 437.126 279.869 439.636 278.215 440.429 276.956 440.611 274.602 441.32 274.754 442.119 274.888 442.887 274.888 443.836 274.888 444.727 274.687 445.266 274.079 447.035 271.902 447.035 270.594 446.242 268.423 449.733 268.247 453.043 267.724 454.389 264.287 454.993 262.98 454.577 259.933 453.83 258.844 453.043 257.756 452.432 257.19 451.69 256.843 453.225 255.189 454.018 252.835 453.043 250.835 451.723 248.408 449.902 247.788 447.77 247.788 447.028 247.788 446.255 247.861 445.455 247.958 446.008 245.464 444.779 243.147 442.204 243.147 441.95 243.147 441.684 243.171 441.404 243.214 440.611 241.025 438.81 239.522 436.489 239.522 435.949 239.522 435.383 239.602 434.798 239.778 434.609 239.255 434.609 238.689 434.239 238.166 433.075 236.859 431.723 236.336 430.143 235.6 429.577 235.381 428.979 235.283 428.374 235.283 427.535 235.283 426.69 235.466 425.903 235.77 425.903 230.978 423.361 225.267 418.621 225.267 417.808 225.267 416.93 225.431 415.994 225.802 415.812 222.639 414.147 220.006 410.526 220.006Z" fill="#DEF0F3" fill-rule="evenodd"/><path d="M408.755 237.006C405.13 237.006 402.062 238.265 398.622 239.529 395.964 240.617 394.817 242.794 393.44 245.189 392.71 246.447 391.742 248.059 391.147 249.712 390.967 250.235 390.781 250.624 390.781 250.977 390 253.5 390.967 254.758 392.293 256.764 396.694 262.765 402.612 267.64 408.339 272.382 413.893 276.912 419.254 280 426.684 280 432.046 280 436.446 276.912 438.925 272.559 441.994 267.294 438.56 259.853 436.267 254.758 433.007 248.235 427.094 241.529 419.619 239.183 416.179 238.094 412.374 237.006 408.755 237.006Z" fill="#F4992B" fill-rule="evenodd"/><path d="M404.625 255C404.438 255 404.244 255.035 404.051 255.105 402.536 255.436 402 256.855 402.717 258.058 403.11 258.657 403.839 259 404.618 259 404.98 259 405.348 258.924 405.703 258.767 406.645 258.227 407 257.017 406.464 256.145 406.009 255.459 405.329 255 404.625 255Z" fill="#EF7B25" fill-rule="evenodd"/><path d="M398.199 250.004C397.541 250.004 397.006 250.428 397.006 250.955 397.006 251.615 397.591 252 398.288 252 398.405 252 398.522 251.987 398.639 251.966L398.801 251.966C400 251.722 400 250.313 398.801 250.069L398.639 250.069C398.489 250.021 398.344 250.004 398.199 250.004Z" fill="#EF7B25" fill-rule="evenodd"/><path d="M409.086 250C407.008 250 407.008 252 409.086 252 410.992 252 410.992 250 409.086 250Z" fill="#EF7B25" fill-rule="evenodd"/><path d="M415.883 259C413 259 413 262.994 415.883 262.994 419 262.994 419 259 415.883 259Z" fill="#EF7B25" fill-rule="evenodd"/><path d="M408.888 266.005C407 266.005 407 267.995 408.888 267.995 410.992 267.995 410.992 266.005 408.888 266.005Z" fill="#EF7B25" fill-rule="evenodd"/><path d="M410.075 255.006C409 255.006 409 257 410.075 257 411 257 411 255.006 410.075 255.006Z" fill="#EF7B25" fill-rule="evenodd"/><path d="M419.493 254.008C418.678 254.008 418.007 254.646 418.007 255.619 418.007 256.395 418.671 256.992 419.478 256.992 419.702 256.992 419.94 256.943 420.171 256.845 421 256.142 421 254.916 420.171 254.155 419.94 254.049 419.716 254.008 419.493 254.008Z" fill="#EF7B25" fill-rule="evenodd"/><path d="M394.281 257.008C393.587 257.008 393.007 257.637 393.007 258.492 393.007 259.508 393.546 259.992 394.2 259.992 394.328 259.992 394.463 259.976 394.598 259.935L394.793 259.935C396 259.71 396 257.282 394.793 257.048L394.598 257.048C394.49 257.016 394.382 257.008 394.281 257.008Z" fill="#EF7B25" fill-rule="evenodd"/><path d="M401.381 263.006C400 263.006 400 265 401.381 265 402.993 265 402.993 263.006 401.381 263.006Z" fill="#EF7B25" fill-rule="evenodd"/><path d="M414.522 273C413.006 273 413.006 275.993 414.522 275.993 415.994 275.993 415.994 273 414.522 273Z" fill="#EF7B25" fill-rule="evenodd"/><path d="M415.973 266C413.007 266 413.007 270 415.973 270 418.993 270 418.993 266 415.973 266Z" fill="#EF7B25" fill-rule="evenodd"/><path d="M422.442 273C421 273 421 275.993 422.442 275.993 424 275.993 424 273 422.442 273Z" fill="#EF7B25" fill-rule="evenodd"/><path d="M427.497 271.008C426 271.008 426 274 427.497 274 429 274 429 271.008 427.497 271.008Z" fill="#EF7B25" fill-rule="evenodd"/><path d="M422.972 260C422.501 260 422 260.349 422 260.942 422 261.616 422.455 261.994 422.899 261.994 423.142 261.994 423.385 261.884 423.556 261.651L423.7 261.651C424 261.273 424 260.61 423.7 260.401L423.556 260.233C423.401 260.076 423.189 260 422.972 260Z" fill="#EF7B25" fill-rule="evenodd"/><path d="M422.518 266.006C421.005 266.006 421.005 269 422.518 269 424 269 424 266.006 422.518 266.006Z" fill="#EF7B25" fill-rule="evenodd"/><path d="M462.545 165C460.4 165 458.255 165.191 456.116 165.499 453.593 166.072 450.841 166.817 448.507 167.698 447.183 168.277 446.192 169.053 444.921 169.053 444.529 169.053 444.112 168.979 443.656 168.801 442.886 168.579 442.104 168.474 441.328 168.474 435.225 168.474 429.069 174.837 425.966 178.946 423.442 182.254 421.669 186.085 420.319 189.744 418.963 193.982 417.424 197.856 417.424 202.267 417 202.445 417 202.797 417.189 203.197 418.167 204.293 419.139 204.786 420.11 204.786 421.088 204.786 422.06 204.281 423.025 203.369 425.777 200.992 427.315 198.035 430.256 195.83 431.619 194.727 432.982 194.296 434.338 194.296 437.044 194.296 439.724 195.996 442.299 197.462 448.507 200.992 456.116 202.975 463.113 204.3 472.033 205.926 480.196 207.207 488.366 211.088 491.868 212.72 494.619 215.319 496.765 218.627 498.682 221.713 498.303 226.869 498.493 230.355 498.493 231.852 497.515 234.409 499.66 234.938 499.862 234.982 500.064 235 500.26 235 502.007 235 503.65 233.546 504.7 232.561 506.663 230.355 507.452 226.697 508.202 223.919 508.808 221.362 509.975 218.227 509.975 215.498 510.164 213.114 509.603 210.164 510.164 207.78 510.347 206.856 509.975 206.499 509.603 206.104 511.142 205.18 512.681 204.3 514.037 202.975 515.622 201.343 515.622 199.316 515.811 197.284 515.993 196.581 515.622 195.084 514.826 194.555 514.455 194.376 512.492 194.376 512.681 193.273 512.87 192.522 512.87 192.171 512.681 191.419 512.681 191.068 512.492 190.847 512.12 190.674 512.12 190.495 512.309 190.317 512.492 190.144 512.838 189.294 512.238 188.444 511.384 188.444 511.305 188.444 511.221 188.45 511.142 188.469 509.786 188.863 508.436 189.042 506.845 189.22 507.641 188.641 508.012 188.118 508.619 187.366 510.347 184.982 512.681 180.578 511.331 177.621 511.142 177.27 510.771 177.092 510.347 176.913 509.897 176.858 509.277 176.839 508.56 176.839 507.517 176.839 506.252 176.876 504.954 176.876 501.068 176.876 496.836 176.55 496.954 173.963 496.954 173.433 496.53 173.039 496.158 173.039 495.702 172.848 495.311 172.798 494.985 172.798 494.652 172.798 494.398 172.854 494.222 172.854 493.915 172.854 493.837 172.706 494.013 171.936 494.202 171.228 493.641 170.833 493.035 170.655 488.784 170.304 484.865 170.304 480.992 169.022 476.323 167.526 471.844 166.072 467.175 165.32 465.63 165.099 464.084 165 462.545 165Z" fill="#8F3956" fill-rule="evenodd"/><path d="M440.03 182.006C436.326 183.835 432.854 187.443 430.539 190.699 428.231 193.791 425.361 198.311 421.702 200.309L421.288 200.309C421.288 200.309 420.777 196.64 417.842 196.64 417.713 196.64 417.584 196.646 417.448 196.659 414.164 197.053 413.006 202.484 413.789 207.01 414.435 210.734 415.838 213.601 417.5 213.601 417.855 213.601 418.23 213.467 418.605 213.182L418.605 213.182C418.605 213.182 416.291 241.053 447.523 249.752 453.244 251.344 458.52 251.994 463.323 251.994 484.735 251.994 496.715 239.055 496.715 239.055 496.715 239.055 497.174 240.476 498.738 240.476 499.857 240.476 501.544 239.753 504.026 237.275 510 231.273 509.444 226.747 505.972 225.66 505.688 225.575 505.416 225.532 505.158 225.532 502.171 225.532 500.374 230.75 500.374 230.75 500.374 230.75 502.869 218.619 500.555 212.617L500.555 212.617 498.615 214.968C498.428 212.793 499.216 208.097 498.796 206.093L498.796 206.093C498.428 207.01 498.059 207.745 497.639 208.62 496.113 207.532 495.144 205.358 494.4 204.27L494.4 204.27C494.588 204.835 494.775 205.57 494.956 206.269 489.176 204.659 483.571 202.837 477.973 200.309 472.193 197.746 464.881 193.791 461.591 188.701L461.591 188.701C461.409 190.699 461.778 192.704 461.591 194.702 461.157 194.751 460.711 194.775 460.259 194.775 452.688 194.775 442.732 188.16 440.03 182.006Z" fill="#FBE4AF" fill-rule="evenodd"/><path d="M477.008 268C475.702 268 474.383 268.181 472.92 268.551 471.198 269.113 470.405 269.984 469.846 271.061 468.377 270.329 466.882 269.948 465.465 269.948 463.132 269.948 461.013 270.988 459.57 273.227 457.679 271.835 455.813 271.049 453.63 271.049 452.421 271.049 451.114 271.291 449.658 271.799 445.98 272.882 443.841 275.786 443.1 279.204 442.145 278.865 441.059 278.677 439.987 278.677 438.187 278.677 436.406 279.21 435.327 280.462 433.981 281.89 433 284.793 434.352 286.439 434.163 288.774 434.352 290.94 436.12 292.198 435.704 293.275 435.515 294.188 436.12 295.096 437.283 297.044 439.006 298.126 441.144 299.034 442.548 299.566 444.147 299.984 445.642 299.984 446.227 299.984 446.792 299.917 447.331 299.772 448.495 299.603 449.658 299.034 450.822 298.52 451.036 298.393 451.16 298.344 451.244 298.344 451.537 298.344 451.218 299.022 451.985 299.603 453.532 300.595 455.163 301 456.814 301 459.317 301 461.864 300.068 464.217 298.865 464.594 298.52 465.381 297.957 465.569 297.606 466.128 296.354 465.94 296.354 466.544 296.354 466.739 296.287 466.954 296.257 467.188 296.257 468.994 296.257 471.789 298.036 473.525 298.689 474.415 298.967 475.325 299.094 476.241 299.094 479.465 299.094 482.682 297.497 484.97 295.271 486.316 294.013 486.693 292.023 486.875 290.202 487.05 289.197 485.9 288.193 487.148 288.193 487.245 288.193 487.356 288.199 487.479 288.211 487.895 288.26 488.279 288.278 488.649 288.278 489.669 288.278 490.592 288.121 491.717 287.867 495.435 287.129 495.993 281.714 495.019 279.034 494.005 276.209 491.236 275.151 488.363 275.151 487.928 275.151 487.492 275.175 487.063 275.223 486.693 272.144 484.548 269.289 481.064 268.551 479.621 268.181 478.315 268 477.008 268Z" fill="#DEF0F3" fill-rule="evenodd"/><path d="M414.442 364.006C411.891 364.006 409.327 364.61 407.286 365.904 405.291 366.656 403.535 367.931 402.117 369.212 397.372 373.267 400.553 378.781 403.303 382.792 408.28 389.81 395 387.031 396.186 392.897 396.802 396.556 400.169 396.994 403.482 396.994 404.516 396.994 405.543 396.951 406.477 396.951 412.03 396.951 416.96 395.848 419.71 391.264 421.089 389.058 420.896 386.279 420.896 383.722 420.896 380.414 422.891 378.208 424.263 375.251 427.993 368.319 421.267 364.006 414.442 364.006Z" fill="#F4A3B1" fill-rule="evenodd"/><path d="M543.644 364.006C536.799 364.006 530 368.319 533.738 375.251 535.292 378.208 537.082 380.414 537.082 383.722 537.082 386.279 537.082 389.058 538.451 391.264 541.182 395.848 546.085 396.951 551.403 396.951 552.338 396.951 553.358 396.994 554.385 396.994 557.682 396.994 561.065 396.556 561.815 392.897 562.993 387.031 549.613 389.81 554.516 382.792 557.294 378.781 560.407 373.267 555.931 369.212 554.516 367.931 552.772 366.656 550.791 365.904 548.771 364.61 546.197 364.006 543.644 364.006Z" fill="#F4A3B1" fill-rule="evenodd"/><path d="M567.068 304.006C566.323 304.006 565.351 304.534 564.56 304.754 562.059 305.282 559.739 306.373 557.419 306.95 551.807 308.397 546.195 309.317 540.396 310.237 529.399 311.862 517.994 312.788 506.763 313.53 500.652 313.898 494.535 314.052 488.411 314.052 473.274 314.052 458.097 313.101 442.804 312.04 432.176 311.335 421.373 310.237 410.934 308.569 406.067 307.827 401.427 306.729 396.6 305.852 395.848 305.754 395.18 305.686 394.584 305.686 392.776 305.686 391.629 306.269 390.618 308.219 388.298 311.69 387.138 316.431 386.166 320.117 385.006 324.857 385.609 329.598 385.609 334.381 385.797 343.691 388.668 352.467 394.889 359.801 401.842 367.657 410.519 373.888 420.395 377.709 431.023 381.75 442.428 384.467 453.606 385.743 461.298 386.614 468.932 387 476.54 387 489.999 387 503.374 385.792 516.834 383.94 522.024 383.198 527.267 381.573 532.276 379.904 537.33 378.279 542.716 377.531 547.355 374.986 551.619 372.791 555.469 370.951 559.136 368.007 563.212 364.714 566.692 360.721 569.012 355.938 573.283 347.334 575 337.454 574.443 327.973 574.021 322.84 572.862 317.921 571.89 312.96 571.332 310.764 570.73 304.006 567.068 304.006Z" fill="#8F3956" fill-rule="evenodd"/><path d="M540.373 222C539.646 222 538.92 222.055 538.194 222.166 534.711 222.695 532.02 225.296 529.886 227.669 527.376 230.049 527.006 232.773 527.376 236.296 527.376 236.647 527.564 236.825 527.934 236.825 529.095 239.377 531.228 241.578 533.972 242.679 530.256 246.553 529.095 252.228 530.489 256.981 532.389 263.235 539.77 266.358 545.762 267.631 546.871 267.877 548.038 267.994 549.238 267.994 554.303 267.994 559.829 265.903 562.98 262.484 565.86 259.182 567.994 253.15 566.651 248.754 566.651 247.475 566.048 246.553 564.329 246.553 561.171 246.694 558.564 247.444 555.613 247.444 554.919 247.444 554.206 247.401 553.466 247.297 552.118 246.903 545.574 244.351 548.265 241.799 549.426 240.871 550.399 239.77 550.957 238.498 552.539 235.903 552.306 232.773 551.748 229.871 550.405 224.884 545.58 222 540.373 222Z" fill="#FCC557" fill-rule="evenodd"/><path d="M548.006 249C546.881 249 545.763 249.148 544.721 249.45 543.947 249.787 543.212 250.131 542.432 250.51 540.515 251.569 539.006 253.517 539.965 255.637 540.329 256.318 540.694 257.206 541.659 257.928 543.135 259.384 544.874 260 546.677 260 551.419 260 556.629 255.773 558.815 251.569 559 251.019 558.815 250.681 558.45 250.338 557.939 250.001 557.178 249.918 556.347 249.918 555.606 249.918 554.813 249.983 554.091 249.983 553.503 249.983 552.966 249.941 552.544 249.787 551.119 249.272 549.553 249 548.006 249Z" fill="#32ADB2" fill-rule="evenodd"/><path d="M573.629 294C570.043 294 565.914 295.281 562.018 295.991 554.55 297.382 519.511 305.336 476.719 305.336 474.111 305.336 471.47 305.311 468.81 305.245 436.47 304.364 405.165 296.052 389.212 296.052 382.32 296.052 378.294 297.607 378.294 301.984 378.294 301.984 375 311.377 393.115 315.372 404.492 317.746 441.188 323.994 483.676 323.994 509.7 323.994 537.891 321.65 563.779 314.631 563.779 314.631 584.994 308.329 582.12 300.163 580.45 295.372 577.331 294 573.629 294Z" fill="#32ADB2" fill-rule="evenodd"/><path d="M546.783 255C546.213 255 545.642 255.024 545.084 255.055 538.679 255.403 533.253 259.599 530.186 264.88 527.937 263.618 525.123 263.014 522.484 263.014 520.552 263.014 518.711 263.337 517.239 263.959 513.343 265.575 510.84 267.759 509.492 271.601 509.122 272.516 508.519 273.784 508.331 275.047 507.164 274.742 506.004 274.602 504.967 274.602 504.104 274.602 503.326 274.699 502.717 274.876 500.208 275.571 498.678 277.059 497.887 279.243 497.706 279.938 497.518 280.682 497.706 281.249 495.333 280.054 492.675 279.542 489.919 279.542 488.843 279.542 487.754 279.615 486.658 279.761 482.438 280.328 478.353 283.433 477.005 287.226 475.014 285.701 472.22 284.811 469.718 284.811 466.852 284.811 464.369 285.97 463.876 288.672 463.008 288.239 462.022 287.921 461.03 287.921 460.421 287.921 459.818 288.037 459.234 288.318 458.443 288.672 457.471 289.41 456.913 290.154 455.727 289.202 454.223 288.745 452.557 288.745 452.012 288.745 451.455 288.794 450.884 288.885 449.724 289.239 448.79 289.763 448.187 290.678 447.215 289.062 446.242 287.793 444.712 286.708 443.247 285.775 441.341 284.97 439.603 284.97 439.305 284.97 439.007 284.994 438.722 285.049 437.587 282.06 434.093 279.804 430.773 279.804 429.626 279.804 428.498 280.072 427.493 280.682 426.806 279.182 425.399 277.95 423.499 277.95 423.35 277.95 423.194 277.956 423.039 277.974 422.669 277.974 422.293 278.151 421.878 278.151 421.489 273.797 416.705 270.717 412.011 270.717 410.014 270.717 408.043 271.272 406.423 272.516 404.789 271.223 403.064 270.387 401.1 270.387 400.276 270.387 399.408 270.534 398.487 270.857 397.515 271.205 396.769 271.601 395.985 272.296 395.609 270.686 394.824 269.241 393.664 268.326 390.785 266.319 389.21 265.228 385.54 264.88 385.229 264.837 384.918 264.819 384.613 264.819 380.516 264.819 376.807 268.216 376.075 271.949 375.167 271.875 374.292 271.772 373.41 271.772 372.217 271.772 371.005 271.961 369.669 272.693 367.349 273.955 366.006 277.584 366.609 279.761 367.582 283.433 372.412 286.708 376.866 287.403 376.075 288.885 375.887 290.678 377.235 292.337 378.208 293.776 380.114 294.691 382.059 294.868 381.274 295.96 380.717 297.228 380.717 298.887 380.898 301.766 383.038 304.169 385.359 305.785 387.44 307.328 389.826 308.041 392.198 308.041 395.116 308.041 398.001 306.968 400.251 305.041 400.996 306.132 402.39 307.047 403.92 307.614 404.562 307.81 405.178 307.895 405.774 307.895 407.317 307.895 408.718 307.31 410.092 306.523 410.507 307.614 411.434 308.316 412.595 308.883 412.225 309.621 412.037 310.145 412.037 310.89 411.855 313.988 413.385 315.952 416.076 317.44 415.518 318.135 414.915 319.056 414.915 319.971 414.734 321.8 414.734 323.417 415.337 325.075 416.309 327.783 419.188 330.357 422.293 330.711 422.624 330.741 422.935 330.753 423.24 330.753 430.501 330.753 431.441 322.514 428.284 317.61 429.256 316.519 429.995 315.604 430.417 313.988 430.605 313.421 430.605 313.073 430.605 312.676 430.974 312.725 431.35 312.756 431.726 312.756 433.081 312.756 434.456 312.402 435.798 311.414 436.589 310.89 437.192 310.145 437.749 309.231 439.694 311.237 442.761 311.981 445.685 312.506 446.028 312.53 446.365 312.548 446.696 312.548 448.427 312.548 450.002 312.152 451.487 311.237 452.46 310.89 453.017 309.975 453.62 309.231 454.178 309.798 455.15 310.322 456.122 310.713 456.862 311.048 457.821 311.17 458.716 311.17 459.241 311.17 459.74 311.127 460.161 311.066 460.395 311.066 460.764 310.89 460.952 310.713 460.952 314.335 462.294 317.787 466.936 318.135 467.099 318.141 467.254 318.147 467.41 318.147 472.201 318.147 475.261 314.951 475.844 311.066 476.635 311.591 477.381 311.981 478.165 312.329 479.164 312.622 480.039 312.737 480.843 312.737 482.062 312.737 483.118 312.469 484.156 312.158L484.156 312.158C483.968 314.86 484.156 317.787 486.477 319.794 487.08 320.538 488.007 321.062 488.979 321.63 488.422 322.325 488.007 323.069 487.637 323.417 486.477 325.6 487.637 327.259 489.401 328.35 485.128 331.802 486.846 338.346 491.488 341.621 493.705 343.232 496.422 344 499.08 344 503.638 344 508.027 341.743 509.492 337.608 510.354 338.011 511.249 338.237 512.163 338.237 513.304 338.237 514.477 337.883 515.664 337.084 517.985 335.596 518.776 333.242 518.166 331.058 521.466 329.967 523.787 326.344 523.969 323.069 524.202 320.318 522.627 317.263 520.487 315.427 521.466 314.689 522.251 313.421 522.439 312.329 522.627 311.237 522.439 310.322 522.251 309.621 523.787 309.231 525.129 308.529 526.29 307.224 526.711 306.87 526.893 306.523 527.081 306.352 527.924 306.639 528.89 306.767 529.888 306.767 530.698 306.767 531.528 306.681 532.326 306.523 532.326 311.414 537.149 315.079 542.161 315.256 541.973 316.171 541.973 317.263 542.161 318.354 542.952 321.233 544.67 322.892 547.594 323.813 548.605 324.154 549.558 324.313 550.453 324.313 554.654 324.313 557.415 320.825 558.219 317.043 558.66 317.129 559.082 317.177 559.497 317.177 560.177 317.177 560.865 317.043 561.701 316.696 564.391 315.079 566.336 313.597 567.685 310.713 568.476 308.883 568.657 306.7 568.476 304.693L568.476 304.693C569.131 304.821 569.818 304.882 570.499 304.882 571.594 304.882 572.651 304.73 573.487 304.516 576.962 303.601 579.283 300.894 579.886 297.795 580.217 297.85 580.554 297.875 580.885 297.875 582.635 297.875 584.327 297.088 585.455 295.435 586.434 293.776 586.434 291.77 585.689 289.977 587.407 289.763 588.937 289.239 589.916 288.318 592.418 286.311 593.994 282.689 592.418 279.59 590.888 276.663 588.01 274.48 584.528 274.48 582.395 274.48 580.82 275.401 579.886 276.883 578.914 275.968 577.941 275.224 576.593 274.699 576.178 274.48 575.99 274.48 575.62 274.309 576.781 272.693 577.572 270.686 577.338 268.503 577.338 265.405 575.017 263.044 572.696 261.209 571.173 259.891 569.072 259.287 566.991 259.287 565.902 259.287 564.819 259.452 563.834 259.769 562.252 260.294 561.091 261.385 560.164 262.867 559.004 261.038 557.616 259.202 555.71 257.586 553.234 255.592 549.96 255 546.783 255Z" fill="#FFFFFF" fill-rule="evenodd"/><path d="M496.865 394C496.683 394 496.495 394.019 496.295 394.062 495.603 394.281 495.039 394.819 494.518 395.181 494.13 395.4 493.778 395.581 493.432 395.581L493.257 395.581C492.693 395.581 492.347 395.581 491.959 395.763 491.783 395.938 491.437 396.119 491.261 396.519 490.352 397.237 490.006 398.756 491.092 399.875 491.783 400.769 493.608 400.994 494.864 400.994 496.125 400.769 497.774 400.056 498.466 398.938 500 397.025 499.175 394 496.865 394Z" fill="#FFFFFF" fill-rule="evenodd"/><path d="M574.54 382C573.662 382 572.784 382.243 572.037 382.801 571.31 383.401 570.74 383.579 570.229 383.579 569.449 383.579 568.794 383.164 567.889 383.164 567.778 383.164 567.66 383.169 567.536 383.187 566.736 383.359 566.173 383.698 565.753 384.416 565.563 384.588 565.563 384.76 565.563 384.927L565.373 385.099C565 385.823 565.373 386.713 565.753 387.438 565.937 387.604 566.363 387.948 566.546 388.114 567.719 388.839 566.926 389.563 567.346 390.412 568.138 392.205 569.665 393 571.532 393 571.873 393 572.233 392.97 572.6 392.917 573.773 392.745 574.566 391.854 574.946 390.964 575.319 390.625 575.739 389.729 575.929 389.349 576.119 388.666 577.475 388.287 578.084 387.776 581 385.271 577.763 382 574.54 382Z" fill="#FFFFFF" fill-rule="evenodd"/><path d="M435.479 388.006C433.403 388.006 431.379 388.612 429.828 389.995 428.484 391.101 427.738 393.133 427.738 394.949 427.323 394.949 427.135 395.166 426.953 395.345 425.792 396.049 425 397.377 425.415 398.835 425.603 400.472 427.511 401.405 429.276 401.578 429.828 402.684 430.989 403.789 432.384 404.543 433.182 404.858 433.974 404.994 434.746 404.994 437.108 404.994 439.275 403.69 440.885 402.152 442.02 403.382 443.454 404.487 445.375 404.487 445.732 404.487 446.108 404.45 446.504 404.364 448.639 404.012 450.735 403.085 451.15 401.226 452.26 401.522 453.486 401.707 454.673 401.707 457.217 401.707 459.585 400.867 460.254 398.483 460.993 396.451 458.859 394.418 457.327 393.485 456.419 392.812 455.452 392.59 454.453 392.59 453.551 392.59 452.629 392.769 451.708 392.954 451.079 390.947 449.658 390.137 448.029 390.137 446.64 390.137 445.109 390.718 443.766 391.632 441.916 389.415 438.639 388.006 435.479 388.006Z" fill="#FFFFFF" fill-rule="evenodd"/><path d="M385.788 380C383.7 380 381.651 381.006 380.545 382.505 379.804 383.596 379.57 385.034 379.381 386.125 379.01 385.778 378.405 385.601 377.846 385.601 377.618 385.51 377.378 385.473 377.143 385.473 376.356 385.473 375.576 385.9 375.147 386.302 373.007 388.137 375.888 389.228 377.475 389.795 377.8 392.726 380.129 393.994 382.633 393.994 385.873 393.994 389.405 391.879 389.301 388.484 390.836 388.137 392 387.046 392 385.431 391.811 382.505 390.042 380.5 387.161 380.152 386.705 380.049 386.243 380 385.788 380Z" fill="#FFFFFF" fill-rule="evenodd"/><path d="M519.469 392C517.385 392 515.551 392.825 514.427 395.018 513.474 394.566 512.567 394.04 511.614 394.04 511.016 394.04 510.391 394.248 509.721 394.804 508.919 395.72 508.735 396.637 508.735 397.382 507.177 397.908 506 399.172 506.756 401.011 507.722 403.253 509.214 403.717 510.989 403.717 511.818 403.717 512.698 403.614 513.625 403.546 514.388 406.375 517.786 407.994 521.047 407.994 522.828 407.994 524.564 407.511 525.813 406.479 526.562 405.733 527.18 405.208 527.739 404.292 527.929 404.64 528.35 404.86 528.731 404.86 529.244 404.958 529.744 405.019 530.21 405.019 531.367 405.019 532.353 404.67 533.057 403.766 534.345 404.463 535.804 404.878 537.277 404.878 538.493 404.878 539.722 404.591 540.866 403.943 543.219 402.673 546 398.476 542.654 396.637 541.372 395.849 539.854 395.378 538.355 395.378 537.106 395.378 535.87 395.708 534.799 396.466 534.687 396.545 534.555 396.576 534.411 396.576 533.615 396.576 532.426 395.519 531.269 395.372 531.137 395.342 531.012 395.323 530.887 395.323 530.309 395.323 529.842 395.647 529.527 396.111 526.753 394.095 522.789 392 519.469 392Z" fill="#FFFFFF" fill-rule="evenodd"/><path d="M571.798 367C570.991 367 570.191 367.221 569.55 367.65 568.67 368.34 568 368.827 568 369.839 568 370.043 568 370.201 568.259 370.365 568 370.365 568 370.524 568.259 370.688 568.67 371.536 569.29 371.7 570.371 371.864 570.746 371.949 571.2 372 571.661 372 572.281 372 572.915 371.91 573.42 371.7 575.121 371.05 576 369.353 574.71 368.176 573.968 367.39 572.879 367 571.798 367Z" fill="#FFFFFF" fill-rule="evenodd"/><path d="M386.798 363.006C385.706 363.006 384.741 363.441 384.571 364.611L384.571 364.777C384.219 365.471 384.006 366.337 384.006 366.99 384.176 368.756 386.137 370 387.939 370 388.401 370 388.85 369.914 389.263 369.742 392 368.716 391.605 365.803 389.827 364.078 389.184 363.47 387.927 363.006 386.798 363.006Z" fill="#FFFFFF" fill-rule="evenodd"/><path d="M474.221 398C473.828 398 473.41 398.074 472.979 398.246 471.828 398.776 470.676 399.7 470.303 400.981 470.194 400.962 470.091 400.956 469.988 400.956 468.817 400.956 468 401.849 468 403.179 468 404.854 469.151 405.384 470.49 405.784 470.123 407.588 471.641 409.442 473.757 410.366 474.69 410.809 475.707 410.994 476.749 410.994 479.148 410.994 481.67 409.984 483.568 408.691 488 405.18 484.79 399.028 480.383 399.028 479.483 399.028 478.531 399.281 477.579 399.878 476.691 398.887 475.578 398 474.221 398Z" fill="#FFFFFF" fill-rule="evenodd"/><path d="M498.939 352C496.857 352 494.54 352.909 494.241 354.787 492.916 354.787 491.554 355.461 491.369 356.887 491.006 358.441 491.961 359.321 493.286 359.826 493.286 361.087 493.464 361.756 494.056 362.806 494.826 364.155 496.571 364.994 498.252 364.994 498.557 364.994 498.863 364.965 499.162 364.906 500.894 364.572 503.358 363.522 503.899 361.756 504.313 360.542 504.084 359.321 503.358 358.271 506 356.341 503.358 353.027 500.302 352.141 499.875 352.047 499.417 352 498.939 352Z" fill="#FFFFFF" fill-rule="evenodd"/><path d="M431.17 338C427.962 338 424 340.148 425.737 343.398 425.937 343.577 425.937 343.577 425.937 343.8 426.129 344.153 426.328 344.332 426.527 344.685 427.434 346.202 429.24 347 431.025 347 432.522 347 434.013 346.437 434.933 345.261 436.993 342.692 435.572 338.613 431.884 338.037 431.65 338.012 431.41 338 431.17 338Z" fill="#FFFFFF" fill-rule="evenodd"/><path d="M520.846 342C520.298 342 519.736 342.116 519.207 342.353 519.013 342.529 519.013 342.529 518.826 342.706 518.632 342.876 518.438 342.876 518.438 343.053 518.01 343.272 517.629 343.442 517.435 343.795 517.007 344.708 517.241 345.621 517.629 346.32 518.378 347.428 519.796 348 521.127 348 521.575 348 522.017 347.933 522.411 347.799 524.425 347.41 525 345.797 524.425 344.361 523.823 342.882 522.371 342 520.846 342Z" fill="#FFFFFF" fill-rule="evenodd"/><path d="M373.618 316C372.017 316 370.05 317.02 370.403 318.725 370 319.78 370.403 321.172 371.111 322.056 371.794 322.705 372.669 323 373.556 323 375.089 323 376.653 322.11 377.243 320.665 378 318.725 376.312 316.613 374.264 316.065 374.065 316.024 373.842 316 373.618 316Z" fill="#FFFFFF" fill-rule="evenodd"/><path d="M577.709 314C576.966 314 576.543 314.367 575.983 314.853 575.983 314.853 575.586 315.299 575.534 315.299 575.521 315.299 575.527 315.277 575.567 315.215L575.567 315.215C575.378 315.379 575.195 315.537 575.195 315.864 575.007 316.39 575.007 316.876 575.567 317.237 575.983 318.045 576.543 318.571 577.52 318.734 577.982 318.91 578.464 319 578.927 319 580.255 319 581.453 318.294 581.622 317.034 582 315.537 580.834 314.203 578.874 314Z" fill="#FFFFFF" fill-rule="evenodd"/><path d="M557.195 275C556.452 275 555.361 275.414 554.844 275.593 553.753 275.962 553.01 276.918 552.444 277.696 551.006 279.792 551.353 282.622 552.663 284.534 553.01 284.903 553.357 285.496 553.924 285.859 554.844 286.637 556.105 287 557.195 287 558.462 287 559.723 286.637 560.643 285.859 562.817 284.534 562.994 281.112 562.47 279.015 562.08 276.555 559.552 275.777 557.542 275.229 557.372 275 557.372 275 557.195 275Z" fill="#E6F3F3" fill-rule="evenodd"/><path d="M538.75 288.006C537.584 288.183 536.606 289.31 536.189 290.26 536 291.022 536.189 291.922 536.795 292.514L536.978 292.69C537.584 293.635 538.522 294 539.5 294 540.667 294 541.833 293.635 542.25 292.69 543 291.563 542.622 290.26 541.833 289.492 541.084 288.548 540.295 288.006 539.128 288.006Z" fill="#E6F3F3" fill-rule="evenodd"/><path d="M396.383 283.006C395.224 283.006 393.876 283.375 393.138 284.164 391.376 285.689 391.006 287.816 391.745 289.942 392.535 292.024 394.667 293 396.617 293L396.798 293C397.543 293 398.145 292.813 398.703 292.444 400.095 292.024 401.255 290.686 401.624 289.16 401.994 286.846 400.653 284.719 398.936 283.562 398.333 283.187 397.355 283.006 396.383 283.006Z" fill="#E6F3F3" fill-rule="evenodd"/><path d="M414.881 290C413.944 290.179 413.006 291.284 413.006 292.21L413.006 293.315C413.181 293.889 413.763 294.42 414.525 294.599 414.881 294.772 415.244 294.994 415.825 294.994 416.763 294.994 417.656 294.599 418.237 293.889 418.775 292.784 419 291.679 418.056 290.753 417.475 290.179 416.538 290 415.825 290Z" fill="#E6F3F3" fill-rule="evenodd"/><path d="M504.093 298.006C502.416 298.006 500.609 298.565 499.505 300.15 498.222 301.784 498 303.55 498.401 305.526 498.574 306.601 499.326 307.85 500.43 308.408 500.609 308.751 500.781 308.925 501.139 309.135 501.885 309.652 502.989 310 504.093 310 507.757 310 511.994 306.426 510.896 302.691 509.965 299.808 507.054 298.006 504.093 298.006Z" fill="#E6F3F3" fill-rule="evenodd"/><path d="M502.301 327C501.451 327 500.851 327.52 500.404 328 500.202 328.363 500 328.682 500 329.162 500 329.358 500 329.52 500.202 329.682L500.202 330C500.404 330.162 500.404 330.162 500.6 330.358 501.053 330.682 501.653 330.838 502.301 331L502.497 331C503.745 331 504.596 330.162 504.798 329.162 504.993 328.162 503.947 327.162 502.699 327Z" fill="#E6F3F3" fill-rule="evenodd"/><path d="M494.269 255.006C493.889 255.006 493.49 255.03 493.091 255.084 492.127 255.299 491.155 256.154 490.19 257.223 489.637 257.953 489.039 258.682 488.672 259.363L488.486 259.363C487.154 260.815 486.003 262.573 484.851 264.198 484.851 264.372 484.62 264.539 484.62 264.712 482.915 266.679 480.799 268.304 478.682 269.888 473.112 273.821 468.506 277.204 461.411 278.614 459.52 279.039 457.642 279.23 455.77 279.23 444.976 279.23 434.664 272.865 425.363 268.304 425.363 267.575 424.765 266.679 423.845 266.679 423.427 266.679 423.06 266.852 422.873 267.061 421.124 267.575 419.239 268.478 417.856 269.547 417.123 270.271 416.151 270.785 415.553 271.514 415.187 271.854 415 272.195 415.187 272.751L415.187 273.098C415.373 273.48 415.785 273.654 416.151 273.821 418.454 276.475 422.873 278.274 426.141 279.684 432.085 282.38 438.209 284.86 444.564 287 448.707 288.446 454.097 290 458.947 290 460.131 290 461.289 289.904 462.382 289.695 468.738 288.452 473.524 286.103 479.094 283.109 484.067 280.413 488.486 276.69 492.493 272.924 495.947 269.888 500 265.095 500 260.26 500 256.931 497.53 255.006 494.269 255.006Z" fill="#FBE4AF" fill-rule="evenodd"/><path d="M430.705 253.006C429.985 253.006 429.272 253.16 428.687 253.462 427.351 254.171 426.2 255.095 425.237 256.377 423.122 259.329 420.636 261.184 417.005 262.065 415.668 262.287 414.518 262.638 413.188 262.989 411.742 263.137 410.206 263.433 408.735 263.433 408.42 263.433 408.111 263.421 407.803 263.39 405.168 263.39 402.643 262.515 400.053 262.515 399.256 262.515 398.453 262.595 397.637 262.817 394.006 264.092 394.373 267.974 396.487 270.002 395.754 272.208 398.235 275.696 401.088 276.62 401.274 277.329 401.274 278.253 401.872 278.826 403.202 279.929 404.725 280.632 406.473 281.033 408.67 281.735 410.99 282 413.336 282 415.263 282 417.211 281.821 419.119 281.562 421.233 281.205 423.354 281.205 425.423 280.632 427.948 279.708 430.435 278.253 432.549 276.799 436 274.414 436 270.002 434.85 266.477 434.066 264.271 432.549 263.741 433.288 261.356 433.886 259.507 434.438 258.053 434.438 256.198 434.567 254.06 432.607 253.006 430.705 253.006Z" fill="#FBE4AF" fill-rule="evenodd"/><path d="M395.007 268C395.378 268.736 395.794 269.51 396.354 270.104L396.354 270.475C397.5 270.853 398.789 270.994 400.078 270.994 401.419 270.994 402.767 270.84 403.952 270.655 407.637 270.29 411.126 269.51 414.622 269.145 415 269.145 415 268.736 414.811 268.55 414.434 268.429 413.978 268.384 413.47 268.384 411.647 268.384 409.206 269.004 407.819 269.145 406.25 269.382 404.29 269.586 402.305 269.586 399.629 269.586 396.901 269.209 395.007 268Z" fill="#E8AD62" fill-rule="evenodd"/><path d="M413.842 274C409.565 274 405.132 275.606 400.687 275.606 400.121 275.606 399.56 275.581 399 275.525L399 275.525C399.76 276.06 400.519 276.415 401.229 276.639L401.229 276.994C402.163 276.994 403.103 276.819 403.856 276.639 407.38 275.525 410.897 275.301 414.602 274.591 415 274.591 414.776 274.012 414.421 274.012 414.228 274.006 414.035 274 413.842 274Z" fill="#E8AD62" fill-rule="evenodd"/><path d="M414.231 278.007C411.255 278.748 408.557 279.079 405.814 279.079 404.56 279.079 403.305 279.007 402 278.885L402 278.885C402.952 279.705 404.081 280.374 405.386 280.993 408.412 280.993 411.797 279.964 414.414 278.885 415 278.676 414.773 278.007 414.231 278.007Z" fill="#E8AD62" fill-rule="evenodd"/><path d="M464.274 208.006C463.616 208.006 463.153 208.161 462.984 208.525 462 210.321 462.378 211.389 463.915 212.284 465.498 213.137 472.306 214.76 474.033 215.661 475.199 216.174 477.531 217.236 478.886 217.964 478.964 217.988 479.049 218 479.127 218 479.622 218 480 217.57 479.674 217.236 478.886 215.661 476.971 212.97 474.221 211.556 470.951 209.784 466.495 208.006 464.274 208.006Z" fill="#8F3956" fill-rule="evenodd"/><path d="M444.989 205C442.948 205 440.389 205.341 438.14 205.829 435.27 206.405 432.762 208.605 431.369 209.99 431 210.425 431.369 211 431.79 211 433.32 210.619 435.639 210.425 436.799 209.99 437.071 209.963 437.428 209.957 437.842 209.957 439.592 209.957 442.397 210.15 444.471 210.15 445.417 210.15 446.207 210.11 446.68 209.99 448.21 209.609 448.994 208.605 448.767 206.405 448.767 205.388 447.166 205 444.989 205Z" fill="#8F3956" fill-rule="evenodd"/><path d="M457.553 231.006C457.382 231.178 457.218 231.357 457.218 231.529 457.218 231.75 457.218 231.75 457.382 231.929 457.382 231.929 457.382 232.101 457.553 232.101 457.382 232.279 457.382 232.279 457.382 232.458 457.382 232.63 457.382 232.851 457.218 233.03 457.047 233.202 457.047 233.38 456.835 233.558 456.5 233.731 456.329 233.952 455.994 234.13 455.618 234.303 455.276 234.481 455.112 234.659L453.676 234.659C453.676 234.659 453.512 234.659 453.341 234.831 453.176 234.831 453.176 235.053 453.176 235.231 453.006 235.582 453.341 235.76 453.676 235.932 453.847 235.975 454.024 235.994 454.206 235.994 455.012 235.994 455.982 235.625 456.835 235.053 457.047 234.831 457.382 234.659 457.553 234.481 457.724 234.303 457.888 234.13 458.1 233.952 458.271 233.558 458.435 233.38 458.435 233.03 458.435 232.851 458.606 232.63 458.606 232.458L458.776 232.63 458.776 232.851C458.776 233.03 458.941 233.202 459.153 233.202 459.324 233.38 459.324 233.38 459.488 233.38 459.488 233.202 459.659 233.202 459.824 233.03 459.824 232.851 459.994 232.851 459.824 232.63 459.824 232.279 459.824 232.101 459.659 231.929 459.659 231.75 459.488 231.75 459.488 231.529 459.324 231.529 459.324 231.357 459.324 231.357 458.941 231.178 458.776 231.178 458.606 231.006Z" fill="#083B4F" fill-rule="evenodd"/><path d="M467.362 220C465.945 220 464.579 221.757 464.365 224.239 464.006 226.61 464.951 228.631 466.26 228.988L466.437 228.988C466.506 228.994 466.575 229 466.638 229 468.099 229 469.471 227.212 469.817 224.939 470 222.568 469.276 220.369 467.746 220.012L467.563 220.012C467.494 220.006 467.431 220 467.362 220Z" fill="#083B4F" fill-rule="evenodd"/><path d="M438.487 215C437.143 215 435.558 216.51 435.188 218.755 435 220.795 435.792 222.63 437.143 222.994L437.325 222.994C438.117 222.994 438.857 222.63 439.461 221.974 440.019 221.285 440.442 220.424 440.623 219.405 441 217.205 440.019 215.33 438.675 215.165L438.487 215Z" fill="#083B4F" fill-rule="evenodd"/><path d="M452.636 209.006C452.41 209.006 452.234 209.181 452.234 209.405L452.234 215.157C452.052 217.386 451.876 219.03 451.292 220.549L451.292 220.723 451.11 221.259C450.927 220.904 450.752 220.723 450.569 220.549 449.985 219.97 449.445 219.79 448.861 219.609L448.679 219.609C448.522 219.559 448.346 219.54 448.158 219.54 447.712 219.54 447.209 219.665 446.795 219.79 446.255 219.97 445.671 220.549 445.313 220.904 444.948 221.439 444.546 222.199 444.364 222.778 444.188 223.488 444.006 224.247 444.006 225.007 444.188 225.717 444.364 226.476 444.546 227.012 444.948 227.765 445.488 228.524 446.255 228.879 446.613 229.06 447.021 229.458 447.555 229.639 447.737 229.639 448.139 229.819 448.503 229.819 448.679 229.819 448.861 229.819 449.043 229.994 449.445 229.994 449.985 229.639 450.167 229.06 450.167 228.879 450.167 228.524 449.985 228.344 449.803 228.126 449.627 227.945 449.263 227.945 449.043 227.945 448.679 227.945 448.503 227.765L448.139 227.765C447.737 227.591 447.379 227.41 447.197 227.229 446.795 227.229 446.613 227.012 446.431 226.831 446.255 226.476 446.255 226.296 446.073 226.115 445.897 225.897 445.897 225.536 445.671 225.181L445.671 224.067C445.671 223.668 445.671 223.133 445.897 222.778 446.073 222.554 446.255 222.199 446.431 221.838 446.431 221.663 446.613 221.439 446.795 221.259 447.021 221.084 447.197 220.904 447.379 220.904 447.555 220.723 447.737 220.723 447.919 220.723L448.861 220.723C449.263 220.904 449.445 220.904 449.627 221.084 449.985 221.259 450.167 221.439 450.569 221.838L450.752 222.199 450.927 222.373 451.11 222.373 451.292 222.554C451.512 222.373 451.694 222.373 451.694 222.199L451.694 222.018C451.876 221.663 452.052 221.259 452.234 220.723 452.234 220.144 452.41 219.79 452.636 219.21 452.818 218.096 452.818 216.982 453 215.867L453 209.405C453 209.181 452.818 209.181 452.636 209.006Z" fill="#083B4F" fill-rule="evenodd"/></g></svg>