<svg viewBox="0 0 273 196" fill="none" xmlns="http://www.w3.org/2000/svg">
<path d="M14.6399 79.48H140.77V185.695H14.6399V79.48Z" fill="#FDFCEE"/>
<path d="M143.275 188.195H12.1399V76.98H143.275V188.195ZM17.1399 183.195H138.275V81.98H17.1399V183.195Z" fill="#472B29"/>
<path d="M134.135 189.195H14.6399C12.7049 189.195 11.1399 187.63 11.1399 185.695V79.48C11.1399 77.545 12.7049 75.98 14.6399 75.98C16.5749 75.98 18.1399 77.545 18.1399 79.48V182.195H134.135C136.07 182.195 137.635 183.76 137.635 185.695C137.635 187.63 136.07 189.195 134.135 189.195Z" fill="#472B29"/>
<path d="M140.775 79.48H256.95V192.335H140.775V79.48Z" fill="#FDFCEE"/>
<path d="M256.945 195.835H140.775C138.84 195.835 137.275 194.27 137.275 192.335V79.48C137.275 77.545 138.84 75.98 140.775 75.98H256.95C258.885 75.98 260.45 77.545 260.45 79.48V192.335C260.45 194.27 258.88 195.835 256.945 195.835ZM144.275 188.835H253.445V82.98H144.275V188.835Z" fill="#472B29"/>
<path d="M144.09 82.8H253.625V92.76H144.09V82.8Z" fill="#CDCBBD"/>
<path d="M14.7401 79.48H4.43506L28.6551 16.415H43.1101H86.64H250.31L269 79.48H264.5H14.7401Z" fill="#EE3E54"/>
<path d="M269 82.98H4.43506C3.28506 82.98 2.20506 82.415 1.55006 81.46C0.90006 80.51 0.755059 79.295 1.17006 78.225L25.3901 15.16C25.9101 13.805 27.2101 12.915 28.6551 12.915H250.315C251.865 12.915 253.23 13.935 253.67 15.42L272.36 78.485C272.67 79.545 272.465 80.69 271.81 81.575C271.145 82.455 270.105 82.98 269 82.98ZM9.52506 75.975H264.31L247.7 19.915H31.0601L9.52506 75.975Z" fill="#472B29"/>
<path d="M222.095 124.29V167.44H175.625V114.33H215.455" fill="#C0E5E4"/>
<path d="M222.095 169.19H175.625C174.66 169.19 173.875 168.41 173.875 167.44V114.33C173.875 113.365 174.66 112.58 175.625 112.58H215.455C216.42 112.58 217.205 113.36 217.205 114.33C217.205 115.3 216.42 116.08 215.455 116.08H177.375V165.695H220.345V124.29C220.345 123.325 221.13 122.54 222.095 122.54C223.06 122.54 223.845 123.32 223.845 124.29V167.445C223.845 168.41 223.065 169.19 222.095 169.19Z" fill="#472B29"/>
<path d="M198.86 169.19C197.895 169.19 197.11 168.41 197.11 167.44V114.33C197.11 113.365 197.895 112.58 198.86 112.58C199.825 112.58 200.61 113.36 200.61 114.33V167.44C200.61 168.41 199.83 169.19 198.86 169.19Z" fill="#472B29"/>
<path d="M86.0501 184.035V132.845C86.0501 120.835 75.5951 111.01 62.8151 111.01C50.0351 111.01 39.5801 120.835 39.5801 132.845V184.035H86.0501Z" fill="#B2B1C2"/>
<path d="M86.0501 185.78H39.5801C38.6151 185.78 37.8301 185 37.8301 184.03V132.85C37.8301 119.845 49.0401 109.265 62.8151 109.265C76.5901 109.265 87.8001 119.845 87.8001 132.85V184.035C87.8001 185 87.0151 185.78 86.0501 185.78ZM41.3301 182.285H84.3001V132.85C84.3001 121.775 74.6601 112.76 62.8151 112.76C50.9701 112.76 41.3301 121.775 41.3301 132.85V182.285V182.285Z" fill="#472B29"/>
<path d="M76.09 144.205V138.585C76.09 130.57 70.115 124.01 62.815 124.01C55.515 124.01 49.54 130.57 49.54 138.585V144.205H76.09Z" fill="#C0E5E4"/>
<path d="M76.0899 145.455H49.5349C48.8449 145.455 48.2849 144.895 48.2849 144.205V138.59C48.2849 129.865 54.7999 122.765 62.8099 122.765C70.8199 122.765 77.3349 129.865 77.3349 138.59V144.205C77.3399 144.895 76.7799 145.455 76.0899 145.455ZM50.7849 142.955H74.8399V138.59C74.8399 131.24 69.4449 125.265 62.8149 125.265C56.1849 125.265 50.7899 131.24 50.7899 138.59V142.955H50.7849ZM79.4099 158.73H76.0899C75.3999 158.73 74.8399 158.17 74.8399 157.48C74.8399 156.79 75.3999 156.23 76.0899 156.23H79.4099C80.0999 156.23 80.6599 156.79 80.6599 157.48C80.6599 158.17 80.0999 158.73 79.4099 158.73Z" fill="#472B29"/>
<path d="M17.96 82.8H137.455V89.44H17.96V82.8Z" fill="#CDCBBD"/>
<path d="M125.88 147.525H102.645V117.65H129.2V140.885" fill="#C0E5E4"/>
<path d="M125.88 149.275H102.645C101.68 149.275 100.895 148.495 100.895 147.525V117.65C100.895 116.685 101.68 115.9 102.645 115.9H129.2C130.165 115.9 130.95 116.68 130.95 117.65V140.88C130.95 141.845 130.165 142.63 129.2 142.63C128.235 142.63 127.45 141.85 127.45 140.88V119.4H104.4V145.775H125.885C126.85 145.775 127.635 146.555 127.635 147.525C127.635 148.495 126.845 149.275 125.88 149.275Z" fill="#472B29"/>
<path d="M115.92 149.275C114.955 149.275 114.17 148.495 114.17 147.525V117.65C114.17 116.685 114.955 115.9 115.92 115.9C116.885 115.9 117.67 116.68 117.67 117.65V147.525C117.67 148.49 116.89 149.275 115.92 149.275Z" fill="#472B29"/>
<path d="M215.455 4.79498H238.69V51.265H215.455V4.79498Z" fill="#FDD4B2"/>
<path d="M238.695 52.515H215.46C214.77 52.515 214.21 51.955 214.21 51.265V4.79498C214.21 4.10498 214.77 3.54498 215.46 3.54498H238.695C239.385 3.54498 239.945 4.10498 239.945 4.79498V51.265C239.945 51.955 239.385 52.515 238.695 52.515ZM216.71 50.015H237.445V6.04497H216.71V50.015Z" fill="#472B29"/>
<path d="M242.01 8.11498H212.135C210.31 8.11498 208.815 6.61998 208.815 4.79498C208.815 2.96998 210.31 1.47498 212.135 1.47498H242.01C243.835 1.47498 245.33 2.96998 245.33 4.79498C245.33 6.61998 243.835 8.11498 242.01 8.11498Z" fill="#FBB97F"/>
<path d="M242.01 9.36498H212.135C209.615 9.36498 207.565 7.31498 207.565 4.79498C207.565 2.27498 209.615 0.224976 212.135 0.224976H242.01C244.53 0.224976 246.58 2.27498 246.58 4.79498C246.58 7.31498 244.53 9.36498 242.01 9.36498ZM212.135 2.72498C210.995 2.72498 210.065 3.65498 210.065 4.79498C210.065 5.93498 210.995 6.86498 212.135 6.86498H242.01C243.155 6.86498 244.08 5.93498 244.08 4.79498C244.08 3.65498 243.15 2.72498 242.01 2.72498H212.135ZM129.155 92.595H119.2C118.37 92.595 117.7 91.925 117.7 91.095C117.7 90.265 118.37 89.595 119.2 89.595H129.16C129.99 89.595 130.66 90.265 130.66 91.095C130.66 91.925 129.985 92.595 129.155 92.595ZM109.24 92.595H16.3C15.47 92.595 14.8 91.925 14.8 91.095C14.8 90.265 15.47 89.595 16.3 89.595H109.24C110.07 89.595 110.74 90.265 110.74 91.095C110.74 91.925 110.065 92.595 109.24 92.595ZM258.605 95.915H172.305C171.475 95.915 170.805 95.245 170.805 94.415C170.805 93.585 171.475 92.915 172.305 92.915H258.605C259.435 92.915 260.105 93.585 260.105 94.415C260.105 95.245 259.435 95.915 258.605 95.915ZM205.5 32.85H32.8951C32.0651 32.85 31.395 32.18 31.395 31.35C31.395 30.52 32.0651 29.85 32.8951 29.85H205.5C206.33 29.85 207 30.52 207 31.35C207 32.18 206.325 32.85 205.5 32.85ZM195.54 42.81H29.58C28.75 42.81 28.08 42.14 28.08 41.31C28.08 40.48 28.75 39.81 29.58 39.81H195.54C196.37 39.81 197.04 40.48 197.04 41.31C197.04 42.14 196.37 42.81 195.54 42.81ZM188.9 52.765H26.26C25.43 52.765 24.7601 52.095 24.7601 51.265C24.7601 50.435 25.43 49.765 26.26 49.765H188.9C189.73 49.765 190.4 50.435 190.4 51.265C190.4 52.095 189.73 52.765 188.9 52.765ZM162.345 95.915H155.705C154.875 95.915 154.205 95.245 154.205 94.415C154.205 93.585 154.875 92.915 155.705 92.915H162.345C163.175 92.915 163.845 93.585 163.845 94.415C163.845 95.245 163.175 95.915 162.345 95.915Z" fill="#472B29"/>
</svg>
