<svg viewBox="0 0 225 225" fill="none" xmlns="http://www.w3.org/2000/svg">
<path d="M186.925 221.45H38.3601C19.5301 221.45 4.12509 206.045 4.12509 187.215V38.6451C4.12509 19.8151 19.5301 4.41013 38.3601 4.41013H186.925C205.755 4.41013 221.16 19.8151 221.16 38.6451V187.21C221.16 206.04 205.755 221.45 186.925 221.45Z" fill="#C56528"/>
<path d="M186.925 224.95H38.3599C17.5499 224.95 0.619904 208.02 0.619904 187.21V38.6448C0.619904 17.8398 17.5499 0.909836 38.3599 0.909836H186.925C207.73 0.909836 224.66 17.8398 224.66 38.6448V187.21C224.66 208.02 207.73 224.95 186.925 224.95ZM38.3599 7.91484C21.4099 7.91484 7.62491 21.6998 7.62491 38.6448V187.21C7.62491 204.16 21.4149 217.945 38.3599 217.945H186.925C203.875 217.945 217.655 204.155 217.655 187.21V38.6448C217.655 21.6948 203.87 7.91484 186.925 7.91484H38.3599Z" fill="#472B29"/>
<path d="M177.915 205.945H47.37C32.11 205.945 19.625 193.46 19.625 178.2V47.6599C19.625 32.3999 32.11 19.9149 47.37 19.9149H177.915C193.175 19.9149 205.66 32.3999 205.66 47.6599V178.2C205.66 193.46 193.175 205.945 177.915 205.945Z" fill="#FDFCEE"/>
<path d="M177.39 207.695H47.9C31.345 207.695 17.88 194.23 17.88 177.675V48.185C17.88 31.63 31.345 18.165 47.9 18.165H171.21C172.175 18.165 172.96 18.945 172.96 19.915C172.96 20.88 172.18 21.665 171.21 21.665H47.9C33.275 21.665 21.375 33.565 21.375 48.19V177.68C21.375 192.305 33.275 204.205 47.9 204.205H177.39C192.01 204.205 203.91 192.305 203.91 177.68V106.04C203.91 105.075 204.69 104.29 205.66 104.29C206.63 104.29 207.41 105.07 207.41 106.04V177.675C207.405 194.23 193.945 207.695 177.39 207.695ZM205.655 97.45C204.69 97.45 203.905 96.67 203.905 95.7V81.92C203.905 80.955 204.685 80.17 205.655 80.17C206.625 80.17 207.405 80.95 207.405 81.92V95.7C207.405 96.67 206.625 97.45 205.655 97.45ZM205.655 76.78C204.69 76.78 203.905 76 203.905 75.03V68.14C203.905 67.175 204.685 66.39 205.655 66.39C206.625 66.39 207.405 67.17 207.405 68.14V75.03C207.405 76 206.625 76.78 205.655 76.78Z" fill="#472B29"/>
<path d="M159.6 70.1399C153.535 64.0749 145.645 62.0349 142.075 65.6049L72.3801 135.3C69.1501 138.53 60.8302 162.85 58.3002 168.475C58.0452 169.04 58.1702 169.7 58.6102 170.14L59.3652 170.895C59.9452 171.475 60.8202 171.64 61.5702 171.305C67.8702 168.47 91.2652 160.535 94.4402 157.36L164.135 87.6649C167.705 84.0899 165.665 76.2049 159.6 70.1399Z" fill="#FDFCEE"/>
<path d="M152.755 99.0401L165.075 86.7201C168.65 83.1451 166.61 75.2601 160.54 69.1951C154.475 63.1301 146.585 61.0901 143.015 64.6601L131.29 76.3851C138.48 83.8951 145.515 91.5801 152.755 99.0401Z" fill="#FCB9B9"/>
<path d="M62.7149 157.245C60.8349 162.195 59.2199 166.505 58.3049 168.535C58.0299 169.145 58.1649 169.85 58.6399 170.325L59.4549 171.14C60.0849 171.77 61.0399 171.935 61.8499 171.57C64.0399 170.585 68.1149 169.04 72.7549 167.28L62.7149 157.245Z" fill="#4A5397"/>
<path d="M127.738 79.9406L149.796 101.999L93.4212 158.372L71.3634 136.314L127.738 79.9406Z" fill="#F1BC19"/>
<path d="M137.539 70.1389L159.597 92.1975L149.793 102.001L127.735 79.9427L137.539 70.1389Z" fill="#7782AC"/>
<path d="M61.9801 172.13C60.9851 172.13 60.0051 171.74 59.2601 170.995L58.5051 170.24C57.5101 169.24 57.2401 167.77 57.8151 166.485C58.5851 164.765 59.9001 161.3 61.4451 157.22C66.1551 144.78 69.9501 135.075 72.2801 132.74L141.97 63.0498C146.355 58.6748 155.22 60.6548 162.15 67.5798C169.08 74.5148 171.07 83.3748 166.685 87.7648L96.9901 157.46C94.7351 159.715 85.8901 163.18 73.6501 167.82C69.3001 169.47 65.5451 170.89 63.5651 171.785C63.0551 172.015 62.5151 172.13 61.9801 172.13ZM148.115 64.4948C146.64 64.4948 145.425 64.9048 144.63 65.7048L74.9351 135.4C72.9851 137.345 67.9551 150.62 64.9501 158.55C63.3701 162.72 62.0251 166.265 61.2351 168.02L61.9201 168.34C64.1101 167.43 67.9152 165.985 72.3202 164.315C79.8602 161.455 92.4752 156.67 94.3352 154.81L164.03 85.1148C166.79 82.3598 164.665 75.4148 159.495 70.2398C156.795 67.5398 153.66 65.6198 150.655 64.8498C149.755 64.6148 148.895 64.4948 148.115 64.4948Z" fill="#472B29"/>
<path d="M150.35 102.82C150 102.82 149.645 102.685 149.38 102.415L127.32 80.3548C126.785 79.8198 126.785 78.9498 127.32 78.4098C127.855 77.8698 128.725 77.8748 129.265 78.4098L151.325 100.47C151.86 101.005 151.86 101.875 151.325 102.415C151.055 102.685 150.7 102.82 150.35 102.82ZM93.145 157.715C92.795 157.715 92.44 157.58 92.175 157.31L71.705 136.84C71.17 136.305 71.17 135.435 71.705 134.895C72.24 134.355 73.11 134.36 73.65 134.895L94.12 155.365C94.655 155.9 94.655 156.77 94.12 157.31C93.85 157.575 93.5 157.715 93.145 157.715ZM72.2 166.725C71.85 166.725 71.495 166.59 71.23 166.32L63.645 158.735C63.11 158.2 63.11 157.33 63.645 156.79C64.18 156.25 65.05 156.255 65.59 156.79L73.175 164.375C73.71 164.91 73.71 165.78 73.175 166.32C72.905 166.585 72.55 166.725 72.2 166.725ZM159.385 93.7948C159.035 93.7948 158.68 93.6598 158.415 93.3898L137.065 72.0348C136.53 71.4998 136.53 70.6298 137.065 70.0898C137.6 69.5498 138.47 69.5548 139.01 70.0898L160.36 91.4448C160.895 91.9798 160.895 92.8498 160.36 93.3898C160.085 93.6548 159.735 93.7948 159.385 93.7948Z" fill="#472B29"/>
</svg>
