<svg width="476" height="455" xmlns="http://www.w3.org/2000/svg" xmlns:xlink="http://www.w3.org/1999/xlink" overflow="hidden"><defs><clipPath id="clip0"><rect x="215" y="43" width="476" height="455"/></clipPath></defs><g clip-path="url(#clip0)" transform="translate(-215 -43)"><path d="M689.99 297.321C689.99 291.975 689.99 286.164 689.571 280.343 689.047 272.673 688.628 264.876 687.79 257.09 686.952 249.874 686.009 243.598 685.171 236.741 684.333 234.301 683.809 231.385 683.39 228.479 682.552 226.155 682.132 224.18 681.713 222.204L681.189 219.763 680.351 215.453C677.722 204.761 675.522 195.569 672.903 186.388 669.864 175.686 667.245 166.03 663.778 157.314 660.215 147.076 656.339 138.36 651.519 130.679 647.109 122.893 641.87 116.152 636.632 110.331 634.003 107.425 630.964 104.985 627.507 102.544 624.468 100.569 620.906 98.6988 617.02 96.7231 609.581 93.3529 601.294 91.8421 592.074 91.3772 589.026 91.3772 585.987 91.8421 583.787 91.8421 580.749 92.4232 577.71 92.4232 573.3 92.888 569.843 93.8177 565.442 94.2826 561.985 94.7475L561.146 94.7475 560.622 94.7475C558.517 95.3285 556.317 95.7934 554.117 96.2583L553.698 96.2583C546.259 97.188 540.591 97.6528 535.353 98.2339 528.742 98.6988 522.666 98.2339 516.589 97.188L517.008 97.188C513.436 96.7231 509.978 96.2583 506.94 94.7475 503.482 93.8177 500.339 92.4232 497.71 91.3772 495.091 89.9826 492.471 88.9367 489.852 87.0773 488.176 85.5665 486.395 84.1719 484.613 82.6611 482.508 80.7911 480.727 78.8154 478.527 77.3046 474.126 73.4695 469.831 70.0993 465.421 66.729 456.305 59.8618 446.656 54.6321 437.427 50.6808 427.892 46.3702 418.243 43.9297 408.604 43.4649 403.356 43 398.641 43 393.402 43.9297 388.573 44.3946 383.334 45.9054 378.096 47.7648 371.905 49.751 365.828 52.6564 359.322 56.9564 353.559 60.9077 347.902 64.7428 342.653 68.5885L340.034 71.029C335.738 74.3992 330.909 77.8857 326.509 80.7911 320.432 85.1016 314.764 88.4718 309.002 91.3772 304.287 93.8177 299.039 95.3285 294.219 97.188 292.438 97.6528 291.181 98.2339 289.399 99.1742 286.351 100.104 282.37 101.615 279.331 103.009 273.674 104.985 269.264 106.961 264.968 109.285 260.148 111.725 255.738 115.096 251.338 118.593 247.461 121.963 244.003 125.798 240.432 130.214 237.393 133.595 234.355 137.895 231.735 142.311 226.916 150.573 223.029 159.754 220.41 170.34 218.21 179.637 216.848 189.759 216.429 200.926 216.01 203.831 216.01 206.737 216.01 210.107 216.01 217.439 216.429 224.644 217.267 233.361 218.629 247.898 220.829 262.9 224.287 278.484 226.496 287.21 228.697 295.345 231.316 303.607L231.735 304.072 231.735 310.464C231.316 315.229 231.316 320.12 231.316 325.001L231.316 331.742C231.735 347.674 232.154 360.352 233.516 371.984 235.193 386.057 237.393 398.143 241.375 409.31 243.06 414.54 245.261 420.361 247.88 425.242 250.919 430.588 253.957 435.469 258.367 440.71 265.387 450.472 274.512 458.733 285.408 466.404 295.057 472.69 305.544 478.036 317.812 482.917 323.47 485.357 329.128 487.227 335.214 488.738 340.977 490.714 347.483 492.108 353.559 493.619 365.828 495.944 378.096 496.989 389.411 496.989 400.737 496.989 412.167 495.014 423.073 492.108 433.969 488.738 444.875 483.847 454.943 477.571 465.421 471.295 475.488 463.033 485.137 452.923 488.176 449.426 490.795 446.055 492.995 443.15 494.672 441.291 496.453 438.85 498.234 436.41L498.663 435.934 500.863 433.029C505.578 426.753 511.34 419.432 517.846 413.61 519.208 412.681 520.884 411.17 522.666 410.24 523.923 409.31 526.123 408.264 527.904 406.87 531.79 405.359 535.772 403.964 540.591 403.5 542.792 402.918 545.421 402.918 548.459 402.918 550.659 402.918 552.755 402.918 555.898 403.5 558.937 403.964 561.985 404.894 565.023 405.359 567.642 406.405 570.681 407.335 574.672 408.729 579.491 410.24 584.206 412.216 589.026 414.075L589.026 414.54 591.236 415.586 593.436 416.051C598.675 418.491 604.761 420.942 610.943 422.337 614.4 423.267 618.277 424.313 621.849 424.778 628.764 425.242 635.374 424.778 641.451 422.802 644.071 421.872 647.109 420.942 649.728 418.956 651.938 418.026 654.558 416.051 657.177 413.61 661.578 410.24 665.464 405.359 669.445 399.073 672.484 393.262 675.522 386.986 678.141 379.189 680.77 372.449 682.971 365.117 684.752 356.401 686.009 348.72 687.371 340.469 688.209 331.742 689.571 320.585 689.99 308.953 689.99 297.321Z" fill="#BDDFD1" fill-rule="evenodd" fill-opacity="0.290196"/><path d="M467.477 132C398.144 132 342.007 200.062 342.007 284 342.007 367.938 398.144 435.992 467.477 435.992 536.81 435.992 592.993 367.938 592.993 284 592.993 200.062 536.81 132 467.477 132Z" fill="#BDDFD1" fill-rule="evenodd"/><path d="M588.331 112.009C587.504 112.009 586.669 112.25 585.865 112.786 584.003 114.108 582.901 116.354 581.752 118.277 572.76 133.503 556.087 136.174 540.057 136.174 536.932 136.174 533.838 136.073 530.82 135.943 515.923 135.278 501.012 134.954 486.092 134.954 426.176 134.954 366.184 140.288 306.935 151.095 304.875 144.014 300.479 136.267 294.666 136.267 294.122 136.267 293.57 136.332 293.004 136.47 286.869 138.125 285 148.581 287.964 155.2 291.196 161.551 297.339 165.119 301.451 167.375 308.796 217.267 313.123 267.955 314.004 318.707 308.796 321.49 302.822 324.531 299.644 330.291 296.19 336.105 296.68 345.701 302.164 349.011 303.351 349.695 304.515 349.991 305.656 349.991 312.404 349.991 318.462 339.572 325.684 335.782 328.863 333.859 332.531 333.591 335.932 333.332 362.462 330.818 388.724 328.368 415.201 326.186 458.359 322.1 501.77 318.06 545.142 318.06 558.032 318.06 570.907 318.421 583.781 319.234 586.738 327.508 590.414 336.374 597.269 339.415 598.126 339.748 599.007 339.896 599.903 339.896 606.36 339.896 612.992 331.899 609.385 325.326 607.302 321.49 602.967 320.621 600.447 317.053 598.417 314.011 598.195 309.907 597.981 306.005 595.239 250.353 591.126 194.896 585.152 139.78 589.977 135.61 594.741 130.979 595.898 124.027 596.679 118.48 592.604 112.009 588.331 112.009Z" fill="#083B4F" fill-rule="evenodd"/><path d="M312.008 162.009C312.008 162.009 321.24 244.728 328.992 316.991 328.992 316.991 324.293 193.176 312.008 162.009Z" fill="#F4A3B1" fill-rule="evenodd"/><path d="M486.331 216.632 486.331 216.632C487.489 217.424 488.368 218.281 489.301 219.337 488.368 218.281 487.27 217.424 486.331 216.632ZM473.628 182.006C471.552 182.006 469.451 182.168 467.324 182.504 467.324 182.504 466.411 182.45 464.799 182.45 456.179 182.45 427.648 183.997 413.757 203.697 401.179 221.585 403.705 236.434 403.705 250.694 403.705 265.279 392.225 261.98 394.091 278.748 395.464 287.587 399.088 291.155 397.715 295.509 396.617 300.198 392.005 305.739 392.938 313.134 392.938 313.134 404.448 318.801 412.734 318.801 413.573 318.801 414.376 318.741 415.13 318.615L418.594 305.739 418.594 306.531 418.1 320C418.1 320 436.967 317.343 454.706 317.343 459.682 317.343 464.564 317.547 468.916 318.087 472.495 318.585 476.179 318.789 479.813 318.789 496.419 318.789 511.992 314.519 511.992 314.519L509.681 297.158 510.34 299.143 516.329 312.87C516.329 312.87 526.826 311.748 536 305.146 536 305.146 536 299.407 529.132 292.211 525.942 287.257 527.32 280.99 527.979 276.037 528.693 271.09 529.352 260.067 518.361 247.654 508.967 237.489 514.957 234.191 511.992 215.774 507.649 194.791 491.877 182.006 473.628 182.006Z" fill="#8F3956" fill-rule="evenodd"/><path d="M431.772 265C426.8 269.115 423.946 276.023 423.946 282.997L423.946 283.793C423.946 287.974 425.145 291.83 426.058 295.679 426.8 298.738 427.485 301.79 427.485 305.109L427.485 307.299C427.029 311.22 425.145 315.069 422 316.463L422.285 316.994C425.601 315.6 427.485 311.486 427.999 307.299L427.999 305.109C427.999 301.79 427.485 298.472 426.572 295.413 425.601 291.564 424.631 287.643 424.403 283.793L424.403 282.997C424.403 276.023 427.257 269.38 432 265.531L431.772 265Z" fill="#D75F13" fill-rule="evenodd"/><path d="M432.252 269C431.404 271.537 431.005 274.335 431.005 277.066 431.005 279.604 431.204 282.335 431.803 285.133 432.851 290.402 434.548 295.398 435.147 300.666 435.347 301.799 435.347 302.931 435.347 304.33 435.347 308.466 434.548 312.93 432.252 315.661L432.452 315.994C434.947 313.196 435.995 308.733 435.995 304.33 435.995 302.931 435.796 301.799 435.796 300.666 435.147 295.131 433.3 290.135 432.252 284.867 431.803 282.335 431.404 279.604 431.404 277.066 431.404 274.335 431.803 271.537 432.652 269.339L432.252 269Z" fill="#D75F13" fill-rule="evenodd"/><path d="M494.882 252.006C494.219 253.392 494 255.041 494 256.691 494 261.052 495.813 265.473 497.84 269.037 500.854 273.728 504.475 278.413 505.187 284.16 505.406 285.018 505.406 285.81 505.406 286.667 505.406 291.029 504.036 295.45 503.324 299.877 503.105 301.263 502.886 302.912 502.886 304.232 502.886 308.395 504.036 312.486 506.776 314.994L506.995 314.466C504.475 312.223 503.598 308.395 503.598 304.232 503.598 302.912 503.598 301.527 503.817 300.141 504.475 295.714 505.844 291.358 505.844 286.667L505.844 284.16C504.968 278.149 501.292 273.464 498.333 268.509 496.251 265.209 494.438 260.788 494.438 256.691 494.438 255.041 494.657 253.656 495.375 252.27L494.882 252.006Z" fill="#D75F13" fill-rule="evenodd"/><path d="M489.236 270.006 489.005 270.535C492.872 273.047 494.545 278.803 494.781 284.091L494.781 285.149C494.781 289.319 494.314 293.152 494.314 296.986L494.314 300.033C494.545 302.809 495.301 305.585 496.455 308.037 497.897 310.218 499.629 312.201 501.764 312.994L501.995 312.465C499.86 311.606 498.186 309.953 496.974 307.772 495.762 305.254 495.301 302.809 495.012 300.033 494.781 299.24 494.781 298.116 494.781 296.986 494.781 293.152 495.301 289.319 495.301 285.149L495.301 284.091C495.301 278.539 493.564 272.782 489.236 270.006Z" fill="#D75F13" fill-rule="evenodd"/><path d="M452.983 186.006C437.943 186.006 425.423 194.322 416.51 205.696 412.406 210.682 409.236 216.804 408.307 223.724 408.307 225.386 408.088 226.782 408.088 228.178 408.088 233.968 409.454 239.818 409.946 245.608 410.165 247.27 410.165 248.666 410.165 250.334 410.165 256.118 409.017 261.974 405.569 265.564 403.984 267.492 401.962 268.622 400.596 270.822 399.667 272.484 399.229 274.412 399.229 276.406 399.229 280.002 400.377 283.592 401.47 286.65 402.837 289.98 404.203 293.57 404.203 297.16 404.203 298.828 403.766 300.224 403.11 301.62 402.181 303.814 400.596 305.21 399.011 306.872 397.64 308.54 396.273 310.468 396 312.994L396.492 312.994C396.71 310.734 397.858 309.072 399.448 307.404 400.814 305.742 402.618 304.08 403.547 302.152 404.476 300.49 404.695 298.828 404.695 297.16 404.695 293.57 403.328 289.714 402.181 286.384 400.814 283.326 399.885 279.736 399.885 276.406 399.885 274.744 400.104 272.75 401.033 271.42 402.181 269.154 404.476 268.09 406.061 266.096 409.454 262.24 410.602 256.118 410.602 250.334 410.602 248.666 410.602 247.004 410.384 245.608 409.946 239.818 408.799 233.968 408.799 228.178 408.799 226.782 408.799 225.386 409.017 223.99 409.673 217.07 412.898 210.948 417.001 205.962 425.86 194.92 438.162 186.87 452.983 186.87 457.087 186.87 461.404 187.402 466 188.798L466 187.934C461.404 186.87 457.087 186.006 452.983 186.006Z" fill="#D75F13" fill-rule="evenodd"/><path d="M415.785 271.006C415.515 271.268 415.3 271.596 415.3 271.596 414.433 272.906 413.301 273.758 412.386 274.544 411.254 275.658 410.123 276.51 409.476 278.148 408.776 279.464 408.561 280.84 408.561 282.478 408.561 283.854 408.776 284.968 409.045 286.344 409.692 289.036 410.823 291.264 411.739 293.95 412.601 296.44 413.086 299.46 413.086 302.146 413.086 303.784 412.817 305.16 412.601 306.536 411.47 310.932 408.345 314.208 405 314.47L405 314.994C408.776 314.994 411.955 311.194 413.086 306.798 413.517 305.422 413.517 303.784 413.517 302.146 413.517 299.132 413.086 296.44 412.17 293.688 411.254 290.936 410.123 288.774 409.476 286.016 409.261 284.968 409.045 283.592 409.045 282.478 409.045 281.102 409.476 279.464 409.907 278.41 410.608 277.034 411.47 276.182 412.601 275.134 413.732 274.282 414.864 273.234 415.785 272.12 415.785 271.858 416 271.596 416 271.596L415.785 271.006Z" fill="#D75F13" fill-rule="evenodd"/><path d="M506.225 260.006 506.005 260.274C508.758 263.349 512.011 265.556 513.388 269.24 514.049 270.911 514.269 272.583 514.269 274.254 514.269 279.81 511.736 285.962 511.736 291.785 511.736 293.457 512.011 295.129 512.672 296.533 513.608 299.615 515.645 301.821 517.242 304.362 518.398 306.301 519.56 308.781 519.56 311.055 519.56 311.59 519.339 312.125 519.339 312.994L519.78 312.994C520 312.392 520 311.59 520 311.055 520 308.514 518.899 306.034 517.517 304.028 515.866 301.554 514.049 299.347 513.113 296.265 512.672 294.861 512.452 293.19 512.452 291.785 512.452 286.229 514.764 280.078 514.764 274.254 514.764 272.583 514.489 270.911 513.828 268.899 512.452 265.021 508.978 262.814 506.225 260.006Z" fill="#D75F13" fill-rule="evenodd"/><path d="M509.272 252.006 509 252.603C511.73 255.321 515.164 256.978 516.962 260.564 518.107 262.818 518.325 265.006 518.325 267.79 518.325 271.641 517.671 275.818 517.671 279.669 517.671 282.122 517.889 284.641 519.038 287.094 520.182 289.354 521.981 291.276 523.344 293.199 525.36 295.983 526.287 299.834 526.287 303.414 526.287 304.541 526.287 305.668 526.069 306.729L526.505 306.994C526.727 305.933 527 304.541 527 303.414 526.727 299.569 525.851 295.718 523.78 292.934 522.417 290.746 520.618 289.089 519.474 286.563 518.543 284.641 518.107 282.122 518.107 279.669 518.107 275.818 519.038 271.641 519.038 267.79 519.038 265.006 518.543 262.553 517.453 260.299 515.599 256.448 512.003 254.79 509.272 252.006Z" fill="#D75F13" fill-rule="evenodd"/><path d="M462.466 183C457.626 183 446.399 183.602 435.176 187.711 429.452 189.633 423.733 192.417 418.669 196.531 413.865 200.676 409.551 205.864 406.582 212.937L406.582 212.937 406.507 212.846C406.507 213.111 401.228 222.528 401.228 240.493 401.228 241.626 401.228 242.421 401.448 243.548L401.448 246.265C401.448 250.446 401.008 253.23 400.348 255.417 399.633 258.73 398.253 260.128 396.659 261.785 395.284 263.176 393.689 264.833 392.754 267.815 391.6 270.605 391.16 273.123 391.16 275.31 391.16 277.232 391.6 279.16 392.095 281.082 392.754 283.07 393.469 285.257 394.349 288.04 395.064 289.372 395.284 290.763 395.284 292.155 395.284 295.203 394.129 298.258 392.754 300.71 391.6 303.493 390.22 305.945 390 308.735L390.94 309C391.16 306.807 392.534 304.024 393.689 301.572 395.064 298.788 396.219 295.734 396.219 292.155 396.219 290.763 395.944 289.107 395.504 287.444 394.349 284.727 393.689 282.473 392.974 280.551 392.534 278.624 392.315 276.967 392.315 275.31 392.315 273.388 392.754 271.135 393.689 268.147 394.349 266.49 395.064 265.363 395.944 264.237 397.319 262.58 398.973 261.52 400.348 258.995 401.723 256.212 402.383 252.633 402.383 246.265L402.383 243.548 402.383 240.493C402.383 231.679 403.757 225.046 404.912 220.335 405.572 218.082 406.287 216.425 406.727 215.365 406.952 214.768 407.227 214.238 407.227 213.973 407.447 213.973 407.447 213.973 407.447 213.708L407.666 213.708C410.196 206.81 414.54 201.502 419.329 197.658 434.021 185.524 455.097 184.398 462.466 184.398L465 184.398 465 183.265C465 183.265 464.065 183 462.466 183Z" fill="#EE731D" fill-rule="evenodd"/><path d="M475.829 182C472.258 182 468.629 182.266 465.005 182.533L465.005 183.937C468.629 183.404 472.258 183.138 475.829 183.138 481.73 183.138 487.36 183.937 492.77 186.467 497.048 188.132 501.321 191.461 504.464 195.329 507.872 199.191 510.144 204.191 511.23 209.784 511.717 212.52 511.717 215.317 511.717 218.379L511.717 225.843C511.717 231.109 511.934 236.103 514.205 240.837 515.774 243.9 517.992 246.43 520.052 248.627 522.324 251.097 524.326 253.627 525.678 256.423 526.819 259.42 527.252 263.088 527.252 266.417 527.252 269.414 527.035 272.482 526.819 275.545 526.819 276.677 526.603 278.076 526.603 279.147 526.603 281.944 526.819 284.74 527.468 287.47 528.171 290.006 529.091 292.47 530.876 294.135 532.445 296.066 534.235 297.197 535.858 298.602 536.94 300 537.859 301.931 537.859 303.596 537.859 303.862 537.859 304.128 537.643 304.728L538.779 304.994C538.779 304.395 538.995 303.862 538.995 303.596 538.995 301.065 537.859 299.134 536.507 297.73 534.938 296.066 532.878 295 531.525 293.336 529.957 291.671 529.091 289.407 528.604 286.937 527.955 284.74 527.739 281.944 527.739 279.147 527.739 278.076 527.739 276.677 527.955 275.545 527.955 272.482 528.171 269.414 528.171 266.417 528.171 262.755 527.955 259.153 526.603 255.824 525.245 252.761 522.974 250.298 520.702 247.761 518.7 245.298 516.64 243.1 515.071 240.298 513.07 235.837 512.853 231.109 512.853 225.843L512.853 218.379C512.853 215.317 512.583 212.254 512.15 209.451 511.23 203.658 508.791 198.658 505.167 194.463 501.754 190.329 497.481 187 492.986 185.069 487.577 182.799 481.73 182 475.829 182Z" fill="#EE731D" fill-rule="evenodd"/><path d="M473.005 189C473.716 192.029 475.739 193.944 478.036 194.734 480.283 195.854 482.579 195.854 484.876 196.117 488.763 196.38 492.591 196.644 496.26 198.29 499.924 199.672 503.319 202.174 505.616 205.999 508.35 210.674 508.568 216.408 508.787 222.471 508.787 228.266 508.787 234.526 510.373 240.057 512.018 245.001 514.971 249.083 517.924 253.237 520.663 257.32 523.179 261.737 524.054 266.675 524.327 268.058 524.327 269.446 524.327 270.763 524.327 273.529 524.054 276.031 524.054 278.736 524.054 280.975 524.327 283.147 524.983 285.32 526.131 289.474 528.871 292.503 530.894 295.795 532.972 298.237 534.558 301.793 534.558 305.085 534.558 305.677 534.558 306.204 534.339 306.731L534.781 306.994C535 306.204 535 305.677 535 305.085 535 301.529 533.409 297.974 531.386 295.202 529.089 291.91 526.569 289.211 525.421 285.32 524.764 283.147 524.546 280.975 524.546 278.736 524.546 276.294 524.764 273.529 524.764 270.763 524.764 269.446 524.764 268.058 524.546 266.675 523.616 261.21 521.101 257.056 518.143 252.974 515.409 248.557 512.456 244.738 510.87 239.794 509.279 234.263 509.498 228.266 509.279 222.471 509.279 216.408 508.787 210.41 506.053 205.736 503.811 201.582 500.142 199.146 496.479 197.5 492.865 196.117 488.763 195.59 484.876 195.327 482.579 195.327 480.283 194.998 478.254 194.207 475.958 193.352 474.153 191.436 473.442 189Z" fill="#D75F13" fill-rule="evenodd"/><path d="M474.843 150.008C474.738 150.008 474.627 150.032 474.515 150.104 473.53 150.104 472.919 151.529 473.103 152.954 473.34 154.148 474.095 155.063 474.889 155.804 477.614 159.108 480.391 162.181 483.116 165.318 479.216 161.958 475.08 158.423 471.18 154.833 470.523 154.458 470.031 154.084 469.433 154.084 469.302 154.084 469.164 154.108 469.019 154.148 468.028 154.379 467.654 155.804 467.844 156.998 468.028 158.192 468.829 158.877 469.577 159.848 472.539 163.152 475.69 166.743 478.605 170.277 474.279 166.973 470.188 163.892 465.868 160.533 465.132 159.96 464.095 159.45 463.228 159.45 462.716 159.45 462.263 159.633 461.968 160.071 460.792 161.727 462.152 163.892 463.517 165.031 467.233 169.075 471.18 172.897 475.08 176.718 471.363 174.322 467.654 171.925 464.128 169.593 463.222 169.195 462.322 168.701 461.416 168.701 461.147 168.701 460.878 168.749 460.602 168.852 459.427 169.593 459.007 171.702 459.617 173.128 460.182 174.776 461.357 175.747 462.532 176.718 466.288 179.791 470.004 182.872 473.714 186.176 472.223 185.738 470.74 185.579 469.249 185.579 468.389 185.579 467.529 185.635 466.669 185.714 465.677 185.714 464.883 185.945 464.318 186.686 463.517 187.824 463.708 189.536 464.693 190.674 465.494 191.645 466.669 192.099 467.654 192.617 472.322 194.225 477.299 195.332 483.201 195.332 484.193 195.332 485.217 195.3 486.261 195.236 497.213 207.313 507.974 219.908 518.552 232.957 518.926 233.187 519.353 233.697 519.353 234.382L519.353 235.807C517.186 247.43 515.216 258.831 513.286 270.454 513.049 271.656 512.866 272.851 513.286 273.822 513.667 274.499 514.041 275.016 514.652 275.47 519.536 279.976 524.802 284.02 530.114 287.324 537.96 292.109 546.371 296.098 549.477 302.992 554.598 291.369 559.483 279.514 561.833 266.919 564 254.102 563.573 240.082 558.498 228.689 554.407 218.714 547.362 211.366 540.311 204.24 520.528 183.326 499.938 162.467 475.69 150.326 475.388 150.167 475.112 150.008 474.843 150.008Z" fill="#F39C97" fill-rule="evenodd"/><path d="M556.218 223.008C554.494 226.817 553.102 230.916 552.353 235.249 551.007 242.01 551.007 249.458 553.102 255.929 554.871 260.778 557.754 265.111 561.482 268 561.671 267.476 561.671 267.016 561.853 266.782 564 253.791 563.577 239.581 558.548 228.035 557.988 226.123 557.012 224.678 556.218 223.008Z" fill="#EF7E77" fill-rule="evenodd"/><path d="M564.865 324 564.008 324.432C564.436 325.003 564.865 325.429 565.135 326L565.992 325.429C565.564 325.003 565.353 324.432 564.865 324Z" fill="#083B4F" fill-rule="evenodd"/><path d="M512 232.008C511.384 234.649 511.007 236.833 511.007 238.728 511.007 243.039 512.378 245.913 512.378 249.992L512.993 249.992C512.755 245.681 511.576 242.806 511.576 238.728 511.576 236.833 511.808 234.882 512.378 232.289L512 232.008Z" fill="#083B4F" fill-rule="evenodd"/><path d="M458.196 409 458.007 409.543C465.827 413.786 474.217 416 482.6 416 488.078 416 493.699 414.981 498.993 413.243L498.81 412.767C493.516 414.505 488.078 415.516 482.6 415.516 474.4 415.516 466.017 413.243 458.196 409Z" fill="#083B4F" fill-rule="evenodd"/><path d="M600.257 126.008C592.579 126.008 585.881 132.711 584.136 141.545 580.791 137.477 576.267 135.122 571.177 135.122 561.135 135.122 552.89 145.157 552.89 157.539 552.89 158.973 552.89 160.631 553.311 162.353 552.324 162.064 551.52 161.84 550.532 161.84 543.085 161.84 537 169.521 537 178.579 537 187.637 543.085 195.029 550.532 195.029 553.687 195.029 556.426 193.884 558.593 191.938 559.58 203.166 567.45 212 576.88 212 584.94 212 591.584 206.033 594.133 197.44 597.287 201.276 601.436 203.398 606.151 203.398 615.152 203.398 622.646 194.34 622.646 183.104 622.646 180.981 622.416 178.579 621.849 176.4 629.106 176.168 635 169 635 159.942 635 150.884 628.915 143.435 621.237 143.435 619.676 143.435 618.313 143.724 616.944 144.18 615.956 134.145 608.883 126.008 600.257 126.008Z" fill="#FFFFFF" fill-rule="evenodd"/><path d="M539.477 203C535.931 203 533 206.485 533 210.635 533 214.785 535.931 217.992 539.477 217.992 543.022 217.992 546 214.785 546 210.635 546 206.485 543.022 203 539.477 203Z" fill="#FFFFFF" fill-rule="evenodd"/><path d="M524.5 227.008C522.688 227.008 521.006 228.932 521.006 231.614 521.006 234.068 522.688 235.992 524.5 235.992 526.361 235.992 528 234.068 528 231.614 528 228.932 526.361 227.008 524.5 227.008Z" fill="#FFFFFF" fill-rule="evenodd"/><path d="M561 159 561 162.21 568.262 162.21 561 175.031 561 178 571.993 178 571.993 174.79 564.732 174.79 571.993 161.969 571.993 159Z" fill="#252049" fill-rule="evenodd"/><path d="M582 159 582 162.21 589.199 162.21 582 175.031 582 178 593 178 593 174.79 585.801 174.79 593 161.969 593 159Z" fill="#252049" fill-rule="evenodd"/><path d="M603.007 159 603.007 162.21 610.268 162.21 603.007 175.031 603.007 178 614 178 614 174.79 606.738 174.79 614 161.969 614 159Z" fill="#252049" fill-rule="evenodd"/><path d="M508.847 256C502.336 271.45 495.264 286.614 487.81 301.379 486.815 303.028 486.017 304.685 484.647 305.879 483.474 306.684 482.195 306.954 480.949 306.954 480.343 306.954 479.75 306.891 479.176 306.795 471.676 306.564 464.222 304.915 456.768 304.454 455.2 304.35 453.638 304.302 452.082 304.302 420.955 304.302 391.389 324.595 369.871 352.174 366.523 356.674 363.359 361.461 361 366.653 383.408 408.95 422.563 436.992 466.957 436.992 490.354 436.992 512.195 429.354 531.064 415.847 531.255 405.414 531.064 394.926 530.267 384.493 530.076 382.844 530.076 380.901 530.643 379.021 531.255 377.142 532.811 375.716 534.182 374.291 549.136 359.525 561.309 340.539 568.993 319.163 560.314 306.564 552.86 292.826 543.237 280.912 533.806 269.284 522.009 259.536 508.847 256Z" fill="#32ADB2" fill-rule="evenodd"/><path d="M515.57 263.007 515 263.894C515.57 264.106 516 264.575 516.57 265L516.993 264.106C516.57 263.689 516 263.476 515.57 263.007Z" fill="#083B4F" fill-rule="evenodd"/><path d="M517.567 265.008 517.007 265.691C517.984 266.43 518.915 267.336 519.71 268.076L520.315 267.336C519.338 266.43 518.544 265.691 517.567 265.008ZM521.058 267.853 520.504 268.759C521.481 269.498 522.224 270.468 523.207 271.151L523.813 270.468C522.829 269.498 521.852 268.759 521.058 267.853ZM524.373 271.151 523.813 271.89C524.744 272.804 525.539 273.543 526.516 274.449L527.076 273.543C526.145 272.804 525.35 271.89 524.373 271.151ZM527.682 274.219 527.076 274.966C528.053 275.872 528.848 276.841 529.825 277.803L530.385 276.841C529.408 276.158 528.659 275.188 527.682 274.219ZM530.991 277.58 530.385 278.264C531.179 279.225 532.156 280.139 532.906 281.109L533.511 280.426C532.717 279.456 531.74 278.486 530.991 277.58ZM534.071 281.109 533.511 281.848C534.488 282.754 535.231 283.724 536.025 284.693L536.631 283.724C535.843 282.754 535.048 281.848 534.071 281.109ZM537.191 284.407 536.631 285.369C537.562 286.108 538.357 287.252 539.152 288.214L539.712 287.252C538.963 286.338 538.168 285.369 537.191 284.407ZM540.318 288.214 539.712 288.953C540.5 289.867 541.295 290.836 542.044 291.798L542.832 291.059C541.855 290.097 541.06 289.183 540.318 288.214ZM543.392 291.798 542.649 292.481C543.392 293.451 544.187 294.643 544.975 295.557L545.724 294.874C544.975 293.904 544.187 292.712 543.392 291.798ZM546.329 295.557 545.535 296.296C546.329 297.202 547.124 298.402 547.867 299.364L548.472 298.625C547.684 297.719 546.89 296.519 546.329 295.557ZM549.032 299.364 548.472 300.047C549.221 301.239 549.827 302.209 550.622 303.178L551.364 302.662C550.622 301.47 549.827 300.564 549.032 299.364ZM551.788 303.401 551.175 304.084C551.97 305.054 552.53 306.246 553.325 307.16L553.885 306.476C553.325 305.507 552.53 304.315 551.788 303.401ZM554.491 307.446 553.885 308.129C554.491 309.091 555.279 310.291 555.839 311.197L556.633 310.744C555.839 309.552 555.279 308.352 554.491 307.446ZM557.194 311.428 556.445 312.167C557.194 313.128 557.799 314.273 558.359 315.465L559.148 314.781C558.359 313.812 557.799 312.62 557.194 311.428ZM559.525 315.695 558.965 316.204C559.525 317.396 560.313 318.532 560.874 319.732L561.668 319.049C560.874 317.857 560.313 316.887 559.525 315.695ZM562.039 319.955 561.297 320.471C562.039 321.664 562.645 322.8 563.205 324L564 323.317C563.205 322.117 562.645 321.155 562.039 319.955Z" fill="#083B4F" fill-rule="evenodd"/><path d="M443.81 310.008C433.084 312.163 423.535 314.999 413.567 320.441 403.828 325.884 394.462 333.877 388 344.541L388.798 344.992C395.025 334.614 404.201 326.795 413.94 321.345 423.914 315.957 433.274 313.121 443.993 310.966L443.81 310.008Z" fill="#083B4F" fill-rule="evenodd"/><path d="M530.734 340 530 340.458C533.243 349.317 535.529 358.458 537.221 368L538 367.767C536.442 358.169 533.978 348.851 530.734 340Z" fill="#083B4F" fill-rule="evenodd"/><path d="M478.625 331C477.714 331 476.862 331.444 476.182 332.22 475.191 333.349 475 334.915 475.191 336.262 475.568 337.821 476.75 339.168 477.74 340.087 478.922 341.216 480.295 342.082 481.477 343 483.841 341.652 485.636 339.386 487.003 336.91 487.386 335.833 488 334.486 487.386 333.349 487.003 332.649 486.204 332.22 485.26 332.001 483.841 332.001 482.282 333.138 482.091 334.696 482.091 333.138 481.101 331.79 479.919 331.301 479.483 331.098 479.047 331 478.625 331Z" fill="#FFFFFF" fill-rule="evenodd"/><path d="M510.953 291C509.976 291 508.914 291.454 508.188 292.188 507.429 293.425 507.007 295.141 507.429 296.857 507.805 298.564 508.802 299.81 509.983 301.047 511.164 302.053 512.345 302.994 513.711 304 515.882 302.523 517.869 300.041 519.05 297.385 519.617 296.147 519.993 294.902 519.617 293.664 519.241 292.658 518.245 292.188 517.446 292.188 517.314 292.171 517.189 292.163 517.057 292.163 515.638 292.163 514.305 293.334 514.087 294.902 514.087 293.425 513.335 291.718 511.962 291.181 511.652 291.058 511.309 291 510.953 291Z" fill="#FFFFFF" fill-rule="evenodd"/><path d="M451.123 343C450.556 343 450.022 343.215 449.612 343.55 449.189 344.292 449.007 345.2 449.189 345.95 449.423 346.915 449.983 347.6 450.589 348.342 451.149 348.796 451.943 349.259 452.503 350 453.851 349.027 454.828 347.831 455.434 346.404 455.811 345.719 455.993 344.977 455.811 344.292 455.622 343.781 455.017 343.55 454.646 343.55 453.662 343.55 452.92 344.06 452.92 344.977 452.92 344.292 452.314 343.319 451.754 343.096 451.54 343.032 451.331 343 451.123 343Z" fill="#FFFFFF" fill-rule="evenodd"/><path d="M503.045 350C502.563 350 502.022 350.288 501.612 350.801 501.189 351.257 501.007 352.235 501.189 353.212 501.378 354.125 501.983 354.87 502.543 355.326 503.149 356.079 503.943 356.535 504.503 356.992 505.669 356.303 506.828 354.87 507.44 353.436 507.811 352.979 507.993 352.002 507.622 351.546 507.44 351.033 507.017 350.569 506.646 350.569 505.669 350.569 504.874 351.257 504.686 352.235 504.874 351.257 504.314 350.569 503.52 350.112 503.377 350.04 503.214 350 503.045 350Z" fill="#FFFFFF" fill-rule="evenodd"/><path d="M547.045 335C546.55 335 546.022 335.255 545.567 335.773 545.189 336.284 545.007 337.2 545.189 338.165 545.378 339.138 545.938 339.823 546.543 340.334 547.103 341.019 547.898 341.482 548.503 341.992 549.669 341.251 550.834 340.055 551.388 338.396 551.766 337.942 552 336.969 551.766 336.515 551.388 336.06 551.017 335.773 550.6 335.542 549.669 335.542 548.874 336.284 548.874 337.2 548.874 336.284 548.269 335.542 547.52 335.088 547.37 335.032 547.207 335 547.045 335Z" fill="#FFFFFF" fill-rule="evenodd"/><path d="M442.495 305.006 442 305.369C442 305.369 443.416 309.017 446.622 312.615 449.823 316.218 454.97 319.815 462.143 320L462.513 320C469.601 320 474.218 317.173 477.024 314.117 479.98 311.29 480.996 308.425 480.996 308.425L480.626 307.878 480.505 308.056C480.505 308.241 479.335 311.067 476.529 313.754 473.697 316.396 469.321 319.039 462.513 319.039L462.143 319.039C455.09 319.039 450.073 315.441 446.992 311.838 445.451 310.157 444.311 308.425 443.541 307.101 443.14 306.509 442.895 305.961 442.77 305.598 442.645 305.369 442.645 305.185 442.495 305.006Z" fill="#083B4F" fill-rule="evenodd"/><path d="M378.981 333.008C372.076 333.008 365.163 333.94 358.409 335.788 355.685 336.473 352.724 337.445 350 338.871 367.809 396.343 413.43 436.992 466.856 436.992 511.493 436.992 550.865 408.491 573 365.723 562.005 365.723 550.865 363.787 539.87 363.556 539.28 363.548 538.689 363.54 538.098 363.54 519.291 363.54 500.222 368.36 481.534 368.36 473.565 368.36 465.662 367.483 457.883 364.982 440.265 359.279 425.18 346.223 408.126 338.871 398.785 334.936 388.9 333.008 378.981 333.008Z" fill="#FCC557" fill-rule="evenodd"/><path d="M390 383.008 390 383.457 390.796 383.457C398.172 383.457 404.988 387.457 411.803 391.906 418.573 396.362 425.389 401.094 432.993 402L432.993 401.543C425.571 400.591 418.801 395.913 411.986 391.457 405.17 387.008 398.355 383.008 390.796 383.008Z" fill="#083B4F" fill-rule="evenodd"/><path d="M376.007 362 376.007 362.545C386.544 363.265 396.888 367.036 405.807 374L405.993 373.522C396.888 366.5 386.544 362.545 376.007 362Z" fill="#083B4F" fill-rule="evenodd"/><path d="M422.193 379.008 422.006 379.447C427.76 382.922 433.694 385.904 439.814 388L440 387.499C433.88 385.241 427.94 382.483 422.193 379.008Z" fill="#083B4F" fill-rule="evenodd"/><path d="M441.192 372.008 441 372.451C447.103 376.629 453.438 380.582 459.727 384.036 463.65 386.378 467.62 388.495 471.927 389.607 475.283 390.557 478.83 391 482.185 391 486.532 391 490.839 390.331 495 389.887L495 389.382C490.839 389.887 486.532 390.331 482.185 390.331 478.83 390.331 475.283 390.105 471.927 389.164 467.812 387.989 463.842 385.927 459.918 383.811 453.63 380.138 447.288 376.186 441.192 372.008Z" fill="#083B4F" fill-rule="evenodd"/><path d="M516.192 385 516.007 385.432C520.325 386.382 524.882 387 529.254 387 531.629 387 533.811 386.807 535.993 386.621L535.993 386.189C533.811 386.382 531.629 386.621 529.254 386.621 524.882 386.621 520.564 386.003 516.192 385Z" fill="#083B4F" fill-rule="evenodd"/><path d="M515.178 396 515.006 396.388C518.654 397.415 522.303 398 525.994 398L525.994 397.605C522.303 397.605 518.654 397.02 515.178 396Z" fill="#083B4F" fill-rule="evenodd"/><path d="M472.627 298 449.761 299.376 449.015 310.349C453.776 311.486 457.149 311.982 460.463 311.982 464.134 311.982 467.716 311.376 473 310.349L472.627 298Z" fill="#F39C97" fill-rule="evenodd"/><path d="M465.68 196.018C459.587 196.018 452.687 197.476 445.097 200.48 421.504 210.126 415 236.498 422.957 268.018 430.107 294.688 446.007 304 462.289 304 465.196 304 468.102 303.701 470.98 303.157 491.196 299.432 502.985 278.524 501.532 258.389 499.609 232.878 492.752 216.029 492.752 216.029 488.304 202.922 478.893 196.018 465.68 196.018Z" fill="#F39C97" fill-rule="evenodd"/><path d="M465.953 233C465.583 233 465.583 233 465.583 233.439 465.213 235.738 464.015 255.748 465.213 258.047 465.642 259.118 466.338 259.855 467.596 259.855 468.513 259.855 469.741 259.451 471.383 258.486L471.383 258.047C471.842 257.872 472.242 257.766 472.612 257.766 473.115 257.766 473.573 257.977 474.062 258.486 475.171 259.908 475.171 262.646 474.432 264.945 473.233 267.122 470.925 268.544 470.925 268.544L470.925 268.982 471.383 268.982C471.383 268.982 474.062 267.666 475.171 264.945 476 262.646 475.541 259.469 474.432 258.047 473.973 257.503 473.337 257.135 472.671 257.135 472.242 257.135 471.813 257.275 471.383 257.608L470.925 257.608C469.504 258.609 468.409 259.065 467.536 259.065 466.752 259.065 466.146 258.714 465.583 258.047 464.843 255.748 465.583 239.354 465.953 233.439L465.953 233Z" fill="#8F3956" fill-rule="evenodd"/><path d="M488.624 255C488.263 255 488.263 255.455 488.263 255.455 488.263 255.911 488.263 257.842 487.54 259.772 487.092 261.594 486.022 263.525 483.766 263.962L483.043 263.962C481.149 263.962 479.617 262.614 478.894 260.683 478.533 260.228 478.084 259.317 478.084 258.752 477.723 258.297 477.723 258.297 477.723 257.842 477.723 257.386 477.361 257.386 477.361 257.386 477.014 257.386 477.014 257.842 477.014 257.842 477.014 257.842 477.361 259.772 478.084 261.138 479.255 263.069 480.788 265 483.043 265 483.405 265 483.405 264.417 483.766 264.417 486.369 263.962 487.54 262.158 488.263 259.772 488.986 257.842 488.986 255.911 488.986 255.455L488.624 255Z" fill="#083B4F" fill-rule="evenodd"/><path d="M488.29 256C488.168 256 488 256.246 488 256.246L488 256.684 491.527 258C492 258 492 258 492 257.561L492 257.123 488.382 256.246C488.382 256.07 488.336 256 488.29 256Z" fill="#083B4F" fill-rule="evenodd"/><path d="M488.364 258 488 258.382C488 258.763 488 258.763 488.364 258.763L490.272 260C490.636 260 491 259.618 491 259.618 491 259.237 491 259.237 490.636 259.237L488.364 258Z" fill="#083B4F" fill-rule="evenodd"/><path d="M448.473 255C448.015 255 448.015 255.455 448.015 255.455 448.015 255.911 448.015 257.842 448.473 259.772 449.213 262.158 450.782 263.962 453.075 264.417 453.445 264.417 453.815 265 454.185 265 456.493 265 458.062 263.069 458.801 261.138 459.527 259.772 460 257.842 460 257.842L460 257.386C459.527 257.386 459.527 257.386 459.527 257.842L459.157 257.842C459.157 258.297 458.801 260.228 458.062 261.594 456.863 262.614 455.753 263.962 454.185 263.962L453.075 263.962C451.137 263.525 449.938 261.594 449.213 259.772 448.843 257.842 448.473 255.911 448.473 255.455L448.473 255Z" fill="#083B4F" fill-rule="evenodd"/><path d="M448.526 256C448.456 256 448.359 256.07 448.22 256.246L445.348 257.123C445 257.123 445 257.561 445 257.561 445 258 445.348 258 445.348 258L448.652 256.684C448.652 256.684 449 256.684 449 256.246 448.763 256.246 448.693 256 448.526 256Z" fill="#083B4F" fill-rule="evenodd"/><path d="M448.294 258 446.328 259.237C446.328 259.237 446.013 259.237 446.328 259.618 446.328 259.618 446.328 260 446.718 260L448.685 258.763C448.685 258.763 449 258.763 448.685 258.382 448.685 258.382 448.685 258 448.294 258Z" fill="#083B4F" fill-rule="evenodd"/><path d="M463.368 273.019 463 273.498C463.737 275.396 464.93 276.949 466.035 277.907 466.772 278.387 467.965 278.981 468.687 278.981 469.512 278.981 469.88 278.981 470.617 278.387 470.617 278.387 470.985 278.387 470.617 277.907L468.687 277.907C467.965 277.907 467.228 277.907 466.403 277.428 465.298 276.47 464.105 274.917 463.737 273.498 463.737 273.019 463.368 273.019 463.368 273.019Z" fill="#083B4F" fill-rule="evenodd"/><path d="M504.662 229.008C503.654 229.008 502.56 229.785 501.794 230.698 500.397 232.364 499.39 234.999 499.578 237.577 499.819 241.422 499.195 246.179 499.007 250.992 501.794 249.334 504.387 246.924 505.831 243.6 507.416 240.22 507.993 236.432 507.416 232.596 507.228 231.387 506.603 229.953 505.589 229.264 505.3 229.088 504.984 229.008 504.662 229.008Z" fill="#F39C97" fill-rule="evenodd"/><path d="M418.308 233.008C416.583 233.008 414.892 233.718 413.758 235.184 412.57 236.595 412.192 238.914 412.192 241.058 412 245.742 414.189 250.425 416.941 253.981 419.933 257.482 423.495 260.076 427.242 261.992 427.435 255.164 429 247.886 427.435 242.69 426.247 239.418 424.682 236.091 422.069 234.23 420.954 233.418 419.621 233.008 418.308 233.008Z" fill="#F39C97" fill-rule="evenodd"/><path d="M449 310.5C449 308.567 454.373 307 461 307 467.627 307 473 308.567 473 310.5 473 312.433 467.627 314 461 314 454.373 314 449 312.433 449 310.5Z" fill="#F39C97" fill-rule="evenodd"/><path d="M455.979 240.093C453.925 239.612 449.507 240.797 446.1 242.181 443.317 243.27 440.841 246.006 439.747 247.698 439.342 247.972 439.58 248.597 440.008 248.697 440.072 248.712 440.139 248.713 440.209 248.701 441.606 248.134 443.968 247.371 445.2 246.765 447.004 246.135 453.437 245.853 455.046 245.124 456.648 244.442 457.312 243.282 457.101 241.021 457.001 240.534 456.599 240.239 455.979 240.093Z" fill="#8F3956" fill-rule="evenodd"/><path d="M480.476 239.163C478.462 239.05 476.936 239.384 476.875 240.468 476.585 242.608 477.244 243.723 478.62 244.211 479.161 244.479 480.224 244.609 481.449 244.678 483.193 244.776 485.266 244.748 486.629 244.825 487.018 244.847 487.349 244.879 487.598 244.921 488.645 245.185 490.738 245.765 492.167 246.051 492.2 246.076 492.238 246.087 492.273 246.089 492.569 246.106 492.848 245.403 492.555 245.2 491.409 243.647 489.254 241.164 486.616 240.4 484.677 239.768 482.363 239.269 480.476 239.163Z" fill="#8F3956" fill-rule="evenodd"/><path d="M470.361 192C469.2 192 468.038 192.063 466.872 192.188 466.872 192.188 431.819 192.801 423.91 220.262 416 247.409 424.162 257.993 424.162 257.993 424.162 257.993 423.404 247.409 432.894 241.354 440.803 236.595 463.451 222.178 467.947 206.228 467.947 206.228 470.286 221.565 487.18 228.93 498.251 233.682 501.16 242.963 501.16 242.963 501.16 242.963 507.994 232.456 504.833 217.732 502.114 204.264 486.76 192 470.361 192Z" fill="#8F3956" fill-rule="evenodd"/><path d="M452.31 194.007C442.098 194.007 431.571 198.503 423.942 206.882 414.487 216.578 409 232.089 409 247.289 409 250.861 409.504 254.427 410.014 257.993L410.581 257.993C410.014 254.427 409.756 250.861 409.756 247.289 409.756 232.089 414.991 217.276 424.194 207.192 431.823 199.123 442.098 194.627 452.31 194.627 457.292 194.627 462.269 195.945 466.748 197.883L467 197.185C462.269 194.937 457.292 194.007 452.31 194.007Z" fill="#D75F13" fill-rule="evenodd"/><path d="M465.439 201C463.877 211.905 456.091 219.587 448.3 224.729 440.259 229.801 431.472 233.332 424.677 241.014 422.622 243.623 420.815 246.463 420.006 250L420.566 250C421.314 246.77 423.12 243.93 425.238 241.704 431.721 234.022 440.509 230.492 448.611 225.343 456.652 220.201 464.437 212.212 466 201Z" fill="#D75F13" fill-rule="evenodd"/><path d="M457.584 201C453.094 201 448.61 203.633 444.689 206.196 434.389 213.321 425.226 223.008 419.921 235.871 417.831 241.067 416.505 246.875 416 253L416.758 253C417.01 247.185 418.337 241.376 420.49 236.258 425.731 223.628 434.958 213.94 444.942 206.815 448.926 204.26 453.347 201.697 457.584 201.697 458.658 201.697 459.668 202.007 460.742 202.317L460.994 201.387C459.984 201 458.658 201 457.584 201Z" fill="#D75F13" fill-rule="evenodd"/><path d="M472 200 472 201.937C472 205.12 473.071 208.063 474.652 210.62 476.479 213.254 478.557 215.19 480.951 216.437 486.186 219.69 491.982 220.62 496.712 223.873 501.689 227.444 505.6 233.254 507.49 240L507.994 240C506.167 232.944 502.199 226.824 496.964 223.254 491.982 219.69 486.186 218.683 481.203 215.817 478.809 214.493 476.73 212.556 475.156 210 473.575 207.754 472.504 204.81 472.504 201.937L472.504 200Z" fill="#D75F13" fill-rule="evenodd"/><path d="M473 192C473 195.874 473.996 199.123 476.119 201.985 477.925 204.931 480.54 207.174 483.093 208.798 488.329 211.66 494.25 212.975 499.73 215.225 505.152 217.468 510.638 221.644 512.443 228.458 513.253 230.701 513.502 232.944 513.502 235.187 513.502 237.437 513.253 239.757 512.941 242L513.751 242C513.751 239.757 514 237.437 514 235.187 514 232.944 513.751 230.391 513.253 228.148 511.136 221.025 505.464 216.849 499.979 214.599 494.561 211.969 488.578 211.041 483.342 208.102 480.789 206.478 478.423 204.235 476.368 201.675 474.562 198.736 473.498 195.565 473.498 192Z" fill="#D75F13" fill-rule="evenodd"/><path d="M466.006 203C466.006 211.37 469.692 219.431 475.545 224.31 478.722 226.872 482.408 228.498 485.846 230.124 489.596 231.673 492.779 233.299 495.639 236.242 497.546 238.495 499.134 241.36 500.977 243.993L502 243.296C500.151 240.431 498.562 237.488 496.465 235.235 493.542 232.06 489.85 230.434 486.418 228.808 482.663 227.182 479.231 225.549 476.053 222.993 470.772 218.811 467.34 210.751 467.34 203Z" fill="#EE731D" fill-rule="evenodd"/><path d="M427.272 320C426.244 320 425.216 320.575 424.584 321.491 423.442 322.915 423.008 324.868 423.442 326.557 423.929 328.585 425.292 330.274 426.388 331.349 427.744 332.774 429.381 333.915 430.744 335 433.47 333.311 435.487 330.538 437.063 327.434 437.558 326.019 437.992 324.33 437.558 322.915 437.063 322.104 436.195 321.491 435.053 321.226 433.195 321.226 431.398 322.642 431.398 324.604 431.398 322.642 430.256 320.953 428.673 320.415 428.239 320.132 427.751 320 427.272 320Z" fill="#FFFFFF" fill-rule="evenodd"/><path d="M430.203 98C417.135 98 404.173 100.306 392.057 106 371.305 115.499 354.21 134.209 340.27 155.129 319.526 185.548 304.009 223.574 305.331 262.885 305.833 277.42 308.741 287.609 310.063 291.71 313.719 302.441 317.13 308.518 322.108 315.743 323.686 318.336 325.263 320.535 327.915 321.141 328.241 321.236 328.585 321.289 328.92 321.289 331.035 321.289 333.15 319.526 333.15 317.04 338.172 321.066 344.129 323 350.077 323 359.065 323 368.053 318.612 373.895 310.42 383.923 296.736 383.606 274.296 373.64 260.983 375.72 255.289 377.87 249.583 379.191 243.878 382.029 256.5 383.923 269.504 384.426 282.817 384.681 288.523 385.183 295.514 389.66 297.416 390.435 297.809 391.237 297.989 392.039 297.989 394.524 297.989 396.982 296.258 398.366 293.612 400.446 290.425 400.948 286.313 400.948 282.212 401.521 265.403 395.211 249.201 395.467 232.775 395.714 215.966 402.842 200.454 410.729 190.945 418.298 178.546 428.582 168.739 438.795 159.836 447.245 152.239 456.145 145.312 465.917 141.211 471.531 138.852 477.479 137.439 483.338 137.439 487.894 137.439 492.388 138.289 496.635 140.223 512.153 147.522 521.106 166.838 525.274 185.845 529.495 205.172 529.75 225.167 534.227 244.186 535.434 249.912 538.765 256.712 543.1 256.712 543.541 256.712 543.99 256.649 544.449 256.5 549.744 254.906 549.991 246.385 549.172 240.074 547.912 228.663 546.59 217.263 545.268 205.852 543.937 193.155 542.36 180.448 538.456 168.431 531.83 148.128 518.709 131.319 503.447 120.291 487.991 108.89 470.077 102.802 452.233 99.9868 444.945 98.7331 437.561 98 430.203 98Z" fill="#F4992B" fill-rule="evenodd"/><path d="M421.091 155.011C420.137 155.011 419.138 155.118 418.079 155.354 393.009 160.809 397.212 202.157 398.779 213.989 401.66 204.691 406.109 196.703 410.811 190.937 417.081 180.64 424.909 172.34 433 164.653 430.531 158.93 426.73 155.011 421.091 155.011Z" fill="#FCC557" fill-rule="evenodd"/><path d="M397.325 252.01C394.163 253.507 391 256.354 391.256 262.267 391.256 270.357 397.829 277.85 400.991 281 400.991 271.33 398.906 261.67 397.325 252.01Z" fill="#FCC557" fill-rule="evenodd"/><path d="M307.009 279 307.009 279C308.065 285.348 309.463 289.869 310.324 292.082 312.778 299.424 315.296 304.169 318.343 308.989 319.398 304.169 320 298.131 317.213 292.082 314.435 286.342 310.324 282.217 307.009 279Z" fill="#FCC557" fill-rule="evenodd"/><path d="M359.991 130C352.898 137.672 346.318 145.955 340.49 154.934 331.248 168.35 323.085 183.694 317.009 199.649 318.088 203.785 319.919 207.621 322.262 211.146 323.589 213.375 325.172 215.679 327.578 215.979 327.693 215.989 327.807 216 327.914 216 331.168 216 333.698 211.714 334.927 208.006 337.58 199.338 337.837 189.137 343.152 182.386 343.656 181.465 344.169 180.779 344.992 180.468 345.239 180.372 345.487 180.329 345.734 180.329 347.079 180.329 348.441 181.519 349.988 181.776 350.342 181.872 350.687 181.926 351.032 181.926 353.774 181.926 356.179 178.818 357.081 175.411 357.904 171.886 357.4 167.739 357.081 163.903 356.064 152.395 357.081 140.897 359.991 130Z" fill="#FCC557" fill-rule="evenodd"/><path d="M370.26 257 370.009 257.299C374.571 261.948 379.069 269.918 380.416 277L381 276.701C379.653 269.619 375.082 261.649 370.26 257Z" fill="#083B4F" fill-rule="evenodd"/><path d="M327.648 318 327 318.365C327.927 319.523 328.784 320.761 329.432 322L330 321.635C329.073 320.467 328.505 319.239 327.648 318Z" fill="#083B4F" fill-rule="evenodd"/><path d="M330.714 317 330.011 317.518C330.714 318.373 331.659 319.145 332.363 319.991L333 319.736C331.978 318.891 331.341 318.109 330.714 317Z" fill="#083B4F" fill-rule="evenodd"/><path d="M390.015 292.01 390.015 297.99 390.985 297.99 390.985 292.01Z" fill="#083B4F" fill-rule="evenodd"/><path d="M395.764 291.009 395.008 291.272C395.244 292.691 395.244 294.364 395.244 296.046L395.244 298 395.764 298C396 297.192 396 296.591 396 296.046 396 294.364 395.764 292.691 395.764 291.009Z" fill="#083B4F" fill-rule="evenodd"/><path d="M378.592 235.011 378 235.307C379.958 244.769 381.842 250.14 383.217 263.989L384 263.989C382.37 250.14 380.476 244.473 378.592 235.011Z" fill="#083B4F" fill-rule="evenodd"/><path d="M362.607 264C362.308 264 362.308 264 362.06 264.304 361.812 264.609 361.812 264.976 361.812 264.976 360.778 269.938 359.795 274.67 359 279.622L360.282 280C361.068 275.048 361.795 270.389 362.803 265.521L362.803 265.521 362.855 265.584C365.12 269.938 367.692 273.988 370.256 278.122L370.991 277.451C368.727 273.086 366.162 269.036 363.59 264.976 363.59 264.609 363.342 264.304 363.342 264.304 363.103 264 362.855 264 362.607 264Z" fill="#083B4F" fill-rule="evenodd"/><path d="M330.045 282.011C329.805 282.011 329.557 282.011 329.557 282.319 329.317 282.319 329.009 282.638 329.009 282.947L329.009 283.662C329.009 289.574 329.805 295.485 330.541 301L331.825 300.681C330.849 295.089 330.293 289.574 330.045 283.662L330.045 283.266C330.849 283.662 331.577 284.29 332.373 284.917 332.87 285.941 333.606 286.888 334.154 287.911 335.438 289.574 336.971 291.148 338.195 292.491L339 291.544C337.707 289.882 336.175 288.55 335.139 286.888 334.402 285.941 333.906 284.917 333.11 283.97 332.373 283.266 331.577 282.319 330.293 282.011Z" fill="#083B4F" fill-rule="evenodd"/><path d="M347.788 300.012C347.788 301.106 347.486 301.776 347.25 302.459 346.762 303.553 346.526 303.882 345.98 304.224 345.744 304.553 345.256 304.553 345.02 304.553L344.238 304.553C343.75 304.224 342.968 303.882 342.488 303.553L342.008 304.976C342.488 305.318 343.27 305.659 343.994 305.988L345.02 305.988C345.5 305.988 345.98 305.988 346.526 305.659 347.25 305.318 347.788 304.224 348.268 303.212 348.512 302.459 348.748 301.447 348.992 300.353L347.788 300.012Z" fill="#083B4F" fill-rule="evenodd"/><path d="M365.893 291.011C365.614 292.675 364.718 294.339 363.554 295.693 362.995 296.014 362.446 296.325 361.551 296.325 361.002 296.325 360.454 296.014 360.107 295.693L359 296.325C359.828 297.357 360.723 298 361.551 298L361.83 298C362.726 297.678 363.554 297.357 364.449 296.647 365.893 295.382 367 293.396 367 291.011Z" fill="#083B4F" fill-rule="evenodd"/><path d="M359.607 301.012C359.515 301.012 359.397 301.094 359.28 301.258 358.502 301.599 355.264 303.36 354.31 305.121 354.008 305.462 354.008 306.131 354.31 306.472 354.31 306.8 354.31 306.8 354.544 306.8 354.787 306.941 355.029 306.988 355.28 306.988 355.774 306.988 356.285 306.8 356.762 306.8 357.305 306.472 357.782 306.472 358.025 306.131 359.038 305.462 359.515 303.701 360 301.928 360 301.599 360 301.258 359.757 301.258 359.757 301.094 359.699 301.012 359.607 301.012Z" fill="#250F0F" fill-rule="evenodd"/><path d="M368.991 303.011 367.931 303.328 367.931 304.256C367.931 305.589 367.423 307.228 366.364 308.167 365.856 308.877 364.796 309.5 363.727 309.5 363.473 309.5 362.974 309.183 362.414 309.183 361.161 308.561 360.093 306.605 359.278 304.65 359.278 304.376 359.024 304.136 358.779 304.136 358.691 304.136 358.595 304.169 358.525 304.256 358.271 304.256 358.271 304.65 358.271 304.966 358.297 305.054 358.324 305.152 358.341 305.24L358.341 305.24 358.271 305.283C358.324 305.403 358.367 305.534 358.42 305.655L358.42 305.655C358.525 306.288 358.525 306.856 358.525 307.545 358.525 308.877 358.271 309.817 358.026 311.139 357.71 312.471 357.211 313.411 356.458 314.034 356.143 314.427 355.643 314.744 355.135 314.744 354.575 314.744 354.321 314.744 354.076 314.427 353.568 314.034 353.323 313.411 353.007 312.471L352 313.094C352.254 314.034 352.753 315.05 353.568 315.683 354.076 315.989 354.575 315.989 355.135 315.989 355.889 315.989 356.703 315.683 357.211 315.366 358.271 314.427 358.779 313.094 359.024 311.455 359.243 310.297 359.506 309.205 359.576 308.058L359.576 308.058C360.18 309.074 360.942 309.97 361.906 310.516 362.72 310.833 363.228 310.833 363.727 310.833 365.041 310.833 366.364 310.123 367.117 309.183 368.431 307.861 368.991 306.212 368.991 304.256L368.991 303.011Z" fill="#083B4F" fill-rule="evenodd"/><path d="M323.823 298 323 298.309C323 298.309 326.168 312.963 336.743 319L337 318.392C331.991 315.491 328.575 310.446 326.487 305.946 325.407 303.727 324.903 301.818 324.327 300.528 324.08 299.61 324.08 299.301 323.823 298.619L323.823 298Z" fill="#083B4F" fill-rule="evenodd"/><path d="M331.7 242C326.976 243.622 324.23 248.154 322.736 251.998 321.242 255.843 321 258.989 321 258.989L321.542 258.989C321.542 258.989 321.776 258.989 321.776 258.678 321.776 257.378 322.26 253.92 323.754 250.688 325.248 247.455 327.752 243.922 331.992 242.698L331.7 242Z" fill="#083B4F" fill-rule="evenodd"/><path d="M328.991 250.009C326.797 250.009 325.664 251.034 324.864 251.87 324 252.903 324 253.739 324 253.739L324.604 254C324.604 253.739 324.864 252.903 325.403 252.13 326.268 251.294 327.067 250.521 328.991 250.521L328.991 250.009Z" fill="#083B4F" fill-rule="evenodd"/><path d="M285.162 285C282.198 285 280 287.655 280 290.842 280 294.422 282.198 297 285.162 297 287.811 297 290 294.422 290 290.842 290 287.655 287.811 285 285.162 285Z" fill="#FFFFFF" fill-rule="evenodd"/><path d="M300.636 295C298.682 295 297 296.922 297 299.156 297 301.078 298.682 303 300.636 303 302.318 303 304 301.078 304 299.156 304 296.922 302.318 295 300.636 295Z" fill="#FFFFFF" fill-rule="evenodd"/><path d="M287.671 207C282.176 207 277.696 211.816 276.875 217.861 275.041 217.551 273.462 217.241 271.627 217.241 261.907 217.241 253.51 223.585 249.03 233.143 247.707 232.534 246.375 232.224 245.052 232.224 238.992 232.224 234 238.269 234 245.605 234 252.259 237.978 257.684 243.217 258.602 241.894 260.204 241.136 262.425 241.136 264.711 241.136 269.762 244.549 273.585 248.456 273.585 249.286 273.585 250.035 273.585 250.856 272.966L250.856 272.966C250.353 274.877 250.035 276.49 250.035 278.401 250.035 286.347 255.592 293 262.163 293 268.223 293 273.206 287.65 274.026 280.612 281.603 279.619 288.236 274.877 292.399 268.149 293.475 268.534 294.551 268.534 295.557 268.534 305.85 268.534 313.991 258.602 313.991 246.214 313.991 235.054 307.173 225.496 298.212 224.204 298.467 222.976 298.714 221.673 298.714 220.381 298.714 213.119 293.731 207 287.671 207Z" fill="#FFFFFF" fill-rule="evenodd"/><path d="M278.051 236.011C277.41 236.011 276.77 236.184 276.217 236.476 273.576 237.406 271.505 240.65 272.259 243.905 271.32 241.169 269.197 239.309 267.029 239.309 266.871 239.309 266.704 239.32 266.538 239.341 264.151 239.341 262.08 241.277 261.009 243.905 260.009 246.457 260.509 249.711 261.825 251.95 263.396 254.512 265.976 255.821 268.363 256.751 271.004 257.756 273.321 258.373 275.962 259 279.104 254.512 280.921 249.322 281.675 243.905 281.991 241.277 281.991 238.714 280.42 237.092 279.806 236.335 278.937 236.011 278.051 236.011Z" fill="#8F3956" fill-rule="evenodd"/><path d="M548.23 231C547.439 232.241 546.707 233.402 546.46 234.938 546.163 235.589 545.916 236.169 545.669 236.465 545.371 236.831 545.005 236.984 544.614 236.984 543.687 236.984 542.657 236.098 542.138 235.223 541.194 234.165 540.241 232.791 538.922 232.791 538.803 232.791 538.675 232.801 538.548 232.822 537.331 233.402 536.778 235.223 535.808 236.465 535.408 236.76 534.948 236.902 534.472 236.902 533.995 236.902 533.493 236.76 533 236.465L533 236.465C533.493 239.528 533.978 242.224 534.77 244.992 535.935 250.477 539.152 256.99 543.338 256.99 543.763 256.99 544.197 256.929 544.64 256.786 549.753 255.26 549.992 247.099 549.2 241.054 548.962 237.706 548.477 234.358 548.23 231Z" fill="#FCC557" fill-rule="evenodd"/></g></svg>