<svg width="407" height="402" xmlns="http://www.w3.org/2000/svg" xmlns:xlink="http://www.w3.org/1999/xlink" overflow="hidden"><defs><clipPath id="clip0"><rect x="260" y="69" width="407" height="402"/></clipPath></defs><g clip-path="url(#clip0)" transform="translate(-260 -69)"><path d="M487.872 70.008C483.103 70.008 477.92 70.008 472.727 70.3617 465.884 70.8038 458.929 71.1575 451.983 71.8648 445.546 72.5721 439.948 73.3679 433.831 74.0752 431.654 74.7826 429.053 75.2247 426.461 75.5783 424.387 76.2857 422.625 76.6393 420.862 76.993L418.685 77.4351 414.84 78.1424C405.302 80.3609 397.103 82.2177 388.913 84.4281 379.365 86.9922 370.751 89.2026 362.976 92.1284 353.843 95.1346 346.068 98.4061 339.216 102.473 332.27 106.195 326.257 110.616 321.064 115.037 318.472 117.255 316.295 119.819 314.118 122.737 312.355 125.301 310.687 128.307 308.925 131.587 305.918 137.864 304.571 144.857 304.156 152.638 304.156 155.21 304.571 157.774 304.571 159.631 305.089 162.195 305.089 164.759 305.504 168.481 306.333 171.399 306.748 175.112 307.162 178.03L307.162 178.737 307.162 179.179C307.681 180.956 308.095 182.812 308.51 184.669L308.51 185.023C309.34 191.301 309.754 196.083 310.273 200.504 310.687 206.082 310.273 211.211 309.34 216.339L309.34 215.985C308.925 218.999 308.51 221.917 307.162 224.481 306.333 227.399 305.089 230.051 304.156 232.27 302.912 234.48 301.979 236.691 300.32 238.901 298.972 240.316 297.728 241.819 296.38 243.322 294.712 245.098 292.95 246.602 291.602 248.458 288.181 252.172 285.174 255.797 282.168 259.519 276.042 267.211 271.377 275.353 267.852 283.142 264.007 291.188 261.829 299.33 261.415 307.465 261 311.894 261 315.872 261.829 320.293 262.244 324.369 263.592 328.789 265.251 333.21 267.022 338.435 269.614 343.563 273.45 349.053 276.975 353.916 280.396 358.691 283.827 363.12L286.004 365.33C289.01 368.955 292.12 373.03 294.712 376.744 298.558 381.872 301.564 386.655 304.156 391.518 306.333 395.496 307.681 399.925 309.34 403.992 309.754 405.496 310.273 406.557 311.111 408.06 311.941 410.632 313.288 413.992 314.533 416.556 316.295 421.33 318.057 425.052 320.131 428.677 322.308 432.744 325.314 436.466 328.434 440.179 331.441 443.451 334.862 446.368 338.801 449.383 341.817 451.947 345.653 454.511 349.593 456.721 356.963 460.789 365.153 464.068 374.596 466.278 382.89 468.135 391.919 469.285 401.881 469.638 404.473 469.992 407.065 469.992 410.071 469.992 416.612 469.992 423.04 469.638 430.815 468.931 443.783 467.782 457.167 465.925 471.068 463.007 478.853 461.142 486.11 459.285 493.48 457.075L493.895 456.721 499.597 456.721C503.847 457.075 508.211 457.075 512.565 457.075L518.578 457.075C532.791 456.721 544.1 456.368 554.477 455.218 567.031 453.804 577.813 451.947 587.775 448.587 592.44 447.164 597.633 445.307 601.987 443.097 606.756 440.533 611.11 437.969 615.785 434.247 624.493 428.323 631.864 420.623 638.706 411.428 644.314 403.285 649.083 394.435 653.437 384.082 655.614 379.308 657.282 374.533 658.63 369.397 660.392 364.534 661.636 359.044 662.984 353.916 665.057 343.563 665.991 333.21 665.991 323.661 665.991 314.104 664.228 304.459 661.636 295.255 658.63 286.06 654.266 276.856 648.668 268.36 643.07 259.519 635.699 251.022 626.68 242.88 623.56 240.316 620.554 238.105 617.962 236.249 616.303 234.834 614.126 233.331 611.949 231.828L611.525 231.466 608.933 229.609C603.335 225.631 596.804 220.768 591.61 215.278 590.781 214.128 589.433 212.714 588.604 211.211 587.775 210.149 586.842 208.293 585.598 206.79 584.25 203.51 583.006 200.15 582.591 196.083 582.073 194.226 582.073 192.008 582.073 189.444 582.073 187.587 582.073 185.819 582.591 183.166 583.006 180.602 583.835 178.03 584.25 175.466 585.183 173.255 586.012 170.691 587.256 167.323 588.604 163.256 590.366 159.277 592.025 155.21L592.44 155.21 593.373 153.345 593.788 151.489C595.965 147.068 598.151 141.932 599.395 136.715 600.225 133.797 601.158 130.526 601.572 127.511 601.987 121.676 601.572 116.098 599.81 110.969 598.981 108.759 598.151 106.195 596.379 103.984 595.55 102.12 593.788 99.9092 591.61 97.6987 588.604 93.9852 584.25 90.7057 578.642 87.3459 573.458 84.7818 567.86 82.2177 560.905 80.0072 554.892 77.7888 548.351 75.932 540.576 74.4289 533.724 73.3679 526.363 72.2185 518.578 71.5111 508.626 70.3617 498.249 70.008 487.872 70.008Z" fill="#BDDFD1" fill-rule="evenodd" fill-opacity="0.290196"/><path d="M418.504 434C417.676 434 417.007 434.66 417.007 435.475 417.007 436.34 417.676 437 418.504 437 419.374 437 419.993 436.34 419.993 435.475 419.993 434.66 419.374 434 418.504 434Z" fill="#FFFFFF" fill-rule="evenodd"/><path d="M441.496 95C439.193 95 436.842 95.0753 434.463 95.2329 342.936 101.356 326.007 236.373 326.007 236.373L378.598 282.755 478.293 340.993 568.993 270.105C568.993 254.954 561.263 200.045 561.263 200.045 561.263 200.045 527.624 95 441.496 95Z" fill="#8F3956" fill-rule="evenodd"/><path d="M441.576 95.7884C463.061 95.7884 481.304 102.37 496.69 112.181 519.405 126.901 535.773 148.991 546.248 167.584 551.365 176.764 555.246 184.957 557.705 191.093 558.935 193.938 559.965 196.393 560.356 198.059 560.803 198.847 560.995 199.684 561.194 200.075 561.393 200.513 561.393 200.712 561.393 200.712 561.393 200.712 561.393 201.494 561.586 202.968 562.424 208.466 564.292 221.959 565.913 235.849 567.706 249.588 569.169 263.657 569.21 270.355L569.21 270.355 478.255 340.965 378.445 283.107 325.817 236.877 325.838 236.877C325.838 236.877 325.838 236.487 326.037 235.458 327.067 228.095 332.775 194.576 348.752 162.236 356.96 146.091 367.634 130.144 381.543 118.07 395.658 106.045 412.865 97.4613 434.398 95.9873 436.857 95.9873 439.117 95.7884 441.576 95.7884ZM441.576 95.0069C439.117 95.0069 436.658 95.1988 434.398 95.1988 411.244 96.8237 392.801 106.443 378.253 119.935 356.321 140.4 343.051 169.6 335.228 193.747 327.466 217.886 325.007 236.877 325.007 236.877L325.007 237.076 325.007 237.323 377.855 283.697 478.447 341.993 569.993 270.842 569.993 270.643C569.993 263.088 567.981 245.468 566.112 229.96 564.045 214.205 562.225 200.513 562.225 200.513 562.225 200.513 553.625 174.111 534.351 147.764 524.715 134.655 512.42 121.361 497.082 111.543 481.696 101.534 463.26 95.0069 441.576 95.0069Z" fill="#8F3956" fill-rule="evenodd"/><path d="M484.839 106.007C453.106 106.007 421.379 111.257 391.472 121.635 389.023 118.607 385.102 115.975 381.236 115.778L381.236 115.778C378.39 120.66 380.203 128.76 384.904 132.033 380.012 139.349 378 148.282 378.978 156.825 380.012 165.56 383.877 173.906 390.439 179.81 390.097 179.756 389.755 179.729 389.413 179.729 387.292 179.729 385.259 180.751 384.712 182.64 384.315 184.89 386.573 186.936 388.776 187.324 389.07 187.352 389.385 187.365 389.707 187.365 391.869 187.365 394.578 186.827 396.364 186.104 430.855 195.398 466.865 200 502.793 200 524.25 200 545.686 198.357 566.753 195.091 568.367 196.304 569.982 197.286 571.843 197.723 572.363 197.839 572.911 197.9 573.451 197.9 574.785 197.9 576.12 197.511 577.132 196.502 578.993 194.647 578.357 190.986 576.352 188.988 574.491 187.133 572.233 185.715 569.394 184.89 575.319 164.339 574.293 141.79 567.143 121.88 568.559 121.437 569.982 121.048 571.207 120.217 572.432 119.439 573.266 118.219 573.266 116.555 573.266 114.339 570.919 112.648 568.511 112.648 568.265 112.648 568.018 112.669 567.779 112.703 565.33 112.9 562.045 114.557 560.184 116.166 535.683 109.375 510.258 106.007 484.839 106.007Z" fill="#FCC557" fill-rule="evenodd"/><path d="M535.183 169.007C535.183 169.007 534.989 169.197 534.413 169.394 534.178 169.592 533.984 169.782 533.602 169.979 533.214 170.224 532.785 170.414 532.403 170.809 532.015 170.999 531.586 171.441 531.205 171.631 530.816 172.019 530.387 172.413 529.811 172.849 529.383 173.236 528.994 173.631 528.613 174.263 528.184 174.65 527.802 175.283 527.414 175.67 526.985 176.303 526.603 176.697 526.215 177.282 525.786 177.717 525.592 178.302 525.21 178.934 525.016 179.322 524.587 179.954 524.393 180.342 524.206 180.927 524.011 181.369 523.817 181.756 523.63 182.144 523.388 182.586 523.194 182.973 523.194 183.361 523.007 183.803 523.007 183.993 523.194 183.803 523.194 183.361 523.388 183.17 523.63 182.776 523.817 182.388 524.011 181.953 524.206 181.559 524.393 180.927 524.828 180.539 525.016 180.151 525.21 179.519 525.592 179.131 526.027 178.737 526.409 178.105 526.791 177.717 526.985 177.085 527.608 176.697 527.99 176.303 528.425 175.67 528.807 175.283 529.189 174.848 529.624 174.453 530.193 174.066 530.582 173.631 531.01 173.433 531.586 173.046 532.015 172.658 532.403 172.413 532.785 172.216 533.214 171.829 533.602 171.631 533.984 171.441 534.413 171.196 534.607 171.196 534.989 170.999 535.183 170.809 535.612 170.612 536 170.414 536 170.414L535.183 169.007Z" fill="#083B4F" fill-rule="evenodd"/><path d="M545 165.007 545 166.759 548.513 166.759C549.154 166.759 549.748 167.027 550.39 167.027 550.983 167.027 551.625 167.235 552.212 167.235 552.86 167.45 553.447 167.665 554.289 167.873 554.882 168.088 555.524 168.356 556.318 168.563 556.96 168.779 557.553 168.994 558.195 169.417 558.781 169.684 559.43 170.108 560.017 170.323 560.659 170.746 561.252 171.013 561.701 171.437 562.294 171.86 562.736 172.075 563.329 172.55 563.723 172.765 564.171 173.189 564.364 173.404 564.765 173.664 564.958 174.094 565.406 174.302L566 174.993C566 174.993 565.8 174.733 565.406 174.094 565.206 173.879 564.765 173.664 564.565 173.404 564.171 172.973 563.723 172.55 563.329 172.342 562.936 171.86 562.487 171.437 562.094 171.221 561.5 170.746 560.859 170.323 560.465 169.892 559.824 169.417 559.23 169.202 558.588 168.779 557.995 168.356 557.153 168.088 556.559 167.665 555.918 167.45 555.082 167.027 554.489 166.759 553.847 166.544 553.054 166.336 552.412 166.121 551.818 165.906 551.176 165.698 550.583 165.698 549.941 165.431 549.348 165.431 548.706 165.215L547.277 165.215C546.684 165.007 546.235 165.007 546.042 165.007Z" fill="#083B4F" fill-rule="evenodd"/><path d="M514.007 134.007C514.397 134.197 514.836 134.393 515.226 134.78 515.616 134.969 516.062 135.41 516.651 135.797 517.089 136.183 517.678 136.624 518.068 137.207 518.706 137.641 519.294 138.224 519.932 138.854 520.966 139.824 522.185 141.037 523.411 142.495 524.445 143.708 525.425 145.112 526.26 146.522 526.897 147.105 527.288 147.736 527.678 148.319 527.877 148.949 528.315 149.532 528.706 150.163 528.904 150.746 529.103 151.376 529.541 151.763 529.74 152.197 529.932 152.59 529.932 152.976 530.329 153.607 530.568 153.993 530.568 153.993L531.993 153.41C531.993 153.41 531.794 152.976 531.356 152.197 531.158 151.959 530.966 151.566 530.767 150.983 530.568 150.549 530.13 150.163 529.74 149.532 529.541 148.949 529.103 148.319 528.706 147.736 528.315 147.105 527.678 146.522 527.288 145.892 526.26 144.481 525.034 143.268 524 141.864 522.774 140.651 521.548 139.437 520.322 138.42 519.541 137.837 518.904 137.397 518.514 136.814 517.877 136.427 517.288 135.993 516.651 135.6 516.253 135.214 515.616 134.969 515.226 134.583 514.836 134.393 514.397 134.197 514.007 134.007Z" fill="#083B4F" fill-rule="evenodd"/><path d="M561 142.007C560.401 142.007 559.551 142.198 558.304 142.397 557.906 142.397 557.258 142.595 556.659 142.787 556.011 142.787 555.21 142.985 554.562 143.231 553.315 143.621 551.873 144.011 550.423 144.647 548.981 145.235 547.734 145.871 546.236 146.46 545.839 146.904 545.24 147.294 544.592 147.492 543.992 147.882 543.539 148.32 543.142 148.518 542.097 149.107 541.247 149.743 540.85 150.133 540.251 150.57 540 150.769 540 150.769L541.052 151.993C541.052 151.993 541.498 151.795 541.895 151.357L542.745 150.57C543.142 150.331 543.344 149.934 543.992 149.743 544.39 149.353 544.787 148.908 545.24 148.518 545.839 148.32 546.487 147.882 546.884 147.492 548.131 146.658 549.378 146.07 550.827 145.434 552.068 144.647 553.517 144.209 554.764 143.621 555.412 143.423 556.011 143.231 556.659 142.985 557.258 142.985 557.906 142.787 558.506 142.595 559.551 142.397 560.401 142.198 561 142.007Z" fill="#083B4F" fill-rule="evenodd"/><path d="M504 145C503.41 145 503.018 145.196 502.181 145.439 501.982 145.439 501.542 145.629 501.151 145.629 500.952 145.825 500.56 145.825 500.114 146.021 499.331 146.21 498.494 146.649 497.464 147.034 496.626 147.23 495.844 147.859 494.807 148.244 493.976 148.63 492.94 149.258 492.157 149.839 491.12 150.272 490.289 151.049 489.253 151.678 488.47 152.259 487.632 153.084 486.802 153.665 486.012 154.483 485.175 155.307 484.344 155.889 483.753 156.706 483.115 157.531 482.524 158.308 481.886 158.937 481.295 159.707 480.904 160.336 480.657 160.728 480.458 161.161 480.266 161.357 480.067 161.742 479.867 162.127 479.675 162.37 479.229 162.952 479.037 163.58 478.838 163.966 478.199 164.79 478 165.175 478 165.175L479.428 166C479.428 166 479.867 165.371 480.067 164.547 480.266 164.162 480.657 163.58 480.904 162.952 481.096 162.756 481.295 162.566 481.495 162.127 481.687 161.742 481.687 161.546 482.133 161.161 482.524 160.532 482.916 159.707 483.554 158.937 483.946 158.308 484.584 157.531 485.175 156.706 486.012 155.889 486.603 155.111 487.44 154.483 488.271 153.665 489.06 153.084 489.898 152.259 490.729 151.678 491.518 150.853 492.349 150.272 493.386 149.643 494.168 149.258 495.006 148.63 496.036 148.244 496.874 147.616 497.656 147.23 498.494 146.838 499.331 146.649 500.114 146.21 500.56 146.21 500.952 146.021 501.343 145.825 501.542 145.825 501.982 145.629 502.38 145.629 503.018 145.439 503.41 145.196 504 145Z" fill="#083B4F" fill-rule="evenodd"/><path d="M440 127.007 440 127.007C440.39 127.241 440.773 127.629 441.398 128.011 441.781 128.439 442.406 128.828 442.984 129.403 444.188 130.602 445.586 131.793 446.789 133.614 447.414 134.431 447.797 135.201 448.422 136.205 449.001 137.021 449.384 138.026 449.821 138.983 450.204 139.987 450.587 140.998 450.829 142.002 451.024 143.006 451.212 144.017 451.407 144.974 451.79 146.989 451.79 148.81 451.595 150.39 451.595 151.2 451.595 151.97 451.407 152.593 451.407 153.168 451.212 153.791 451.212 154.172 451.024 154.554 451.024 154.989 451.024 155.183 450.829 155.371 450.829 155.565 450.829 155.565L452.415 155.993 452.415 155.565C452.61 155.371 452.61 154.989 452.61 154.367 452.798 153.985 452.798 153.362 452.993 152.787L452.993 150.39C452.993 148.81 452.798 146.795 452.415 144.78 452.227 143.776 452.032 142.819 451.79 141.808 451.407 140.616 451.024 139.605 450.587 138.601 450.009 137.597 449.626 136.827 449.001 135.823 448.422 134.812 447.797 134.002 447.219 133.232 445.774 131.606 444.383 130.213 443.179 129.209 442.601 128.828 441.976 128.205 441.398 127.817 440.968 127.629 440.39 127.241 440 127.007Z" fill="#083B4F" fill-rule="evenodd"/><path d="M420.007 153.007C420.445 153.194 421.033 153.194 421.669 153.389 422.059 153.389 422.258 153.389 422.648 153.583 423.092 153.583 423.482 153.818 423.872 153.818 424.707 154.013 425.541 154.207 426.568 154.395 427.354 154.777 428.381 155.213 429.215 155.408 430.241 155.79 431.22 156.219 432.246 156.796 433.279 157.178 434.107 157.802 435.14 158.191 435.92 158.814 436.946 159.391 437.78 160.015 438.807 160.591 439.593 161.403 440.428 161.979 441.016 162.603 441.844 163.18 442.48 163.998 443.267 164.622 443.903 165.198 444.293 165.822 444.683 166.01 444.929 166.399 445.128 166.587 445.319 167.022 445.518 167.21 445.716 167.405 446.154 167.981 446.544 168.411 446.742 168.8 447.379 169.611 447.769 170 447.769 170L448.993 168.987C448.993 168.987 448.603 168.605 447.967 167.787 447.769 167.599 447.379 167.022 446.941 166.587 446.742 166.204 446.544 166.01 446.154 165.822 445.908 165.386 445.716 165.198 445.319 164.809 444.683 164.186 444.102 163.616 443.267 162.985 442.679 162.415 441.844 161.792 441.016 161.021 440.23 160.397 439.395 159.82 438.369 159.196 437.343 158.62 436.556 158.191 435.53 157.614 434.503 156.99 433.47 156.601 432.444 156.219 431.466 155.79 430.433 155.408 429.407 155.019 428.381 154.589 427.546 154.395 426.568 154.207 425.733 154.013 424.707 153.583 423.872 153.583 423.482 153.389 423.092 153.389 422.648 153.389 422.456 153.194 422.059 153.194 421.669 153.194 421.033 153.194 420.445 153.007 420.007 153.007Z" fill="#083B4F" fill-rule="evenodd"/><path d="M506.888 166C506.302 166 505.669 166 505.084 166.207L503.035 166.207C502.45 166.406 501.627 166.406 501.041 166.613 499.578 166.87 498.162 167.07 496.754 167.483 495.338 167.683 493.929 168.346 492.513 168.76 491.05 169.166 489.641 169.829 488.226 170.443 486.817 170.899 485.598 171.719 484.183 172.382 483.55 172.582 482.965 172.995 482.529 173.452 481.944 173.659 481.311 174.065 480.725 174.521 480.092 174.935 479.704 175.135 479.119 175.548 478.677 176.005 478.091 176.211 477.656 176.618 477.268 177.074 476.873 177.281 476.438 177.688 476.05 177.894 475.662 178.351 475.219 178.557 474.443 179.171 473.81 179.834 473.416 180.24 472.395 181.31 472.007 181.724 472.007 181.724L473.028 183 474.443 181.517C475.022 180.904 475.464 180.447 476.24 179.834 476.438 179.37 476.873 179.171 477.268 178.764 477.656 178.557 478.091 178.094 478.486 177.688 478.874 177.488 479.507 177.074 479.895 176.618 480.337 176.411 480.923 176.005 481.311 175.548 481.944 175.135 482.529 174.935 482.965 174.521 483.55 174.065 484.183 173.659 484.768 173.452 485.986 172.582 487.205 171.976 488.614 171.305 489.832 170.699 491.295 170.036 492.711 169.622 494.12 168.959 495.535 168.553 496.944 168.146 498.36 167.683 499.823 167.483 501.041 167.07 501.817 167.07 502.45 166.87 503.035 166.87 503.866 166.613 504.451 166.613 505.084 166.406 505.669 166.406 506.302 166.406 506.888 166.207L514 166.207C513.415 166.207 512.584 166 511.754 166Z" fill="#083B4F" fill-rule="evenodd"/><path d="M534.993 207 510.804 222.016 506.007 239.517 518.751 246C518.751 246 518.793 246 518.876 246 519.973 246 527.884 245.66 530.398 236.051 533.094 225.673 534.993 207 534.993 207Z" fill="#B13E5B" fill-rule="evenodd"/><path d="M528.414 141.007C523.6 141.007 523.922 149.092 523.922 149.092L521.67 155.989 526.373 165.386 539.409 176.001 554.944 210.639 473.497 194.933 471.833 183.731 447.767 172.72 444.091 184.366 401.601 188.624C389.551 189.848 379.158 198.015 375.234 209.607L362.007 249.385 381.362 298.896C414.993 322.975 456.175 324 462.933 324 463.563 324 463.891 323.993 463.891 323.993L498.391 242.434C498.391 242.434 506.463 241.395 522.82 241.395 529.441 241.395 537.417 241.566 546.762 242.045 549.611 242.161 552.274 242.216 554.759 242.216 564.913 242.216 572.115 241.327 577.196 240.186 583.762 238.573 587 231.232 583.515 225.313L553.917 173.356C553.917 173.356 555.978 152.564 554.355 148.901 552.692 144.985 545.975 144.595 545.975 144.595 542.394 142.087 540.183 141.383 538.827 141.383 537.088 141.383 536.766 142.538 536.766 142.538 535.397 141.499 534.199 141.205 533.281 141.205 532.022 141.205 531.275 141.752 531.275 141.752 530.166 141.232 529.215 141.007 528.414 141.007Z" fill="#E59889" fill-rule="evenodd"/><path d="M550.007 201.007 550.007 201.007C550.247 201.824 550.627 202.79 551.008 203.998 551.629 205.207 552.203 206.659 552.823 208.253 553.397 209.847 554.212 211.494 554.786 213.088 555.593 214.682 556.408 216.33 556.982 217.923 557.603 219.321 558.363 220.726 558.991 221.935 559.558 223.143 559.992 224.156 560.373 224.784 560.753 225.561 560.993 225.993 560.993 225.993 560.993 225.993 560.753 225.561 560.566 224.784 560.179 224.156 559.799 222.948 559.371 221.739 558.797 220.53 558.363 219.132 557.603 217.538 556.982 215.891 556.214 214.297 555.593 212.703 554.786 211.055 554.212 209.462 553.397 208.064 552.823 206.416 552.009 205.018 551.442 203.809 551.008 202.6 550.434 201.581 550.007 201.007Z" fill="#083B4F" fill-rule="evenodd"/><path d="M524.007 149.007C524.193 150.261 524.386 151.515 524.572 152.77 524.572 153.376 524.765 154.031 524.765 154.637 525.004 155.292 525.191 155.898 525.576 156.553 525.576 156.751 525.763 157.159 526.195 157.357 526.381 157.357 526.574 157.357 526.767 157.159 526.953 157.159 527.146 156.955 527.146 156.955 527.572 156.349 527.958 155.694 528.144 155.088 528.45 154.341 528.729 153.495 528.929 152.615L528.929 152.615C529.141 153.975 529.441 155.25 529.767 156.553 529.953 157.357 530.146 158.216 530.332 159.273 530.525 159.682 530.718 160.133 530.951 160.534 531.143 160.943 531.336 161.394 531.715 161.598 531.715 161.796 532.141 162 532.527 162 532.906 161.796 533.099 161.598 533.332 161.394 533.525 160.943 533.717 160.534 533.717 160.133 534.097 159.273 534.289 158.421 534.522 157.61 534.629 156.532 534.742 155.539 534.848 154.524L534.848 154.524C534.981 155.158 535.114 155.778 535.287 156.349 535.473 156.955 535.713 157.61 536.099 158.216 536.285 158.618 536.285 158.872 536.664 159.273 536.903 159.478 537.096 159.879 537.475 160.133L537.855 160.133C538.094 159.879 538.287 159.879 538.287 159.879L538.666 159.478C538.859 159.273 538.859 159.076 538.859 158.872 539.045 158.618 539.045 158.618 539.045 158.421 539.285 158.012 539.477 157.815 539.477 157.357 539.664 156.955 539.664 156.751 539.664 156.349 539.803 155.884 539.923 155.384 540.01 154.869L540.01 154.869C540.023 154.94 540.036 155.017 540.049 155.088 540.049 155.496 540.049 156.095 540.236 156.553 540.475 156.751 540.475 156.955 540.668 157.159 540.668 157.357 540.854 157.815 541.047 157.815 541.174 157.878 541.307 157.906 541.433 157.906 541.686 157.906 541.918 157.815 542.045 157.815 542.238 157.61 542.431 157.357 542.431 157.159 542.856 156.751 543.049 156.349 543.235 155.898 543.615 155.088 544.047 154.235 544.426 153.376L547 150.649 544.24 153.171C543.807 154.235 543.428 155.088 543.049 155.694 542.856 156.095 542.431 156.553 542.238 156.955 542.045 157.159 541.859 157.159 541.859 157.357 541.732 157.357 541.579 157.469 541.44 157.469 541.366 157.469 541.3 157.441 541.24 157.357 541.24 157.357 541.047 157.159 541.047 156.955 540.854 156.751 540.854 156.553 540.668 156.349 540.668 155.898 540.475 155.496 540.475 155.088 540.475 154.031 540.236 153.171 540.236 152.114L539.857 152.114C539.664 153.58 539.285 154.834 539.045 156.095 539.045 156.553 538.859 156.751 538.859 157.159 538.666 157.61 538.666 157.815 538.473 158.216 538.473 158.216 538.473 158.421 538.287 158.618 538.287 158.618 538.287 158.872 538.094 159.076 537.855 159.273 537.668 159.273 537.668 159.273 537.475 159.273 537.283 159.076 537.096 158.872 537.096 158.618 536.903 158.216 536.664 158.012 536.478 157.357 536.285 156.751 536.099 156.095 535.713 154.834 535.287 153.376 535.094 152.114L534.715 149.592 534.289 152.114C534.097 153.827 533.904 155.694 533.717 157.357 533.525 158.216 533.332 159.076 533.099 159.879 532.906 160.337 532.906 160.739 532.713 160.943 532.527 161.14 532.334 161.14 532.334 161.14L532.141 161.14C531.908 160.943 531.715 160.534 531.523 160.133 531.336 159.682 531.143 159.273 531.143 158.872 530.718 158.012 530.525 157.159 530.332 156.349 529.953 154.637 529.527 152.974 529.141 151.304L528.955 149.796 528.762 151.304C528.337 152.565 528.144 153.827 527.765 154.834 527.572 155.496 527.146 156.095 526.953 156.553 526.767 156.751 526.574 156.955 526.381 156.955 526.195 156.955 525.955 156.553 525.763 156.349 525.576 155.898 525.383 155.292 525.191 154.637 525.004 154.031 524.765 153.376 524.765 152.77 524.386 151.515 524.193 150.261 524.007 149.007Z" fill="#083B4F" fill-rule="evenodd"/><path d="M538.379 159.007 538 159.411C538 159.411 538.379 159.871 538.618 160.479 538.997 161.138 539.382 162.199 539.568 163.211 539.807 163.671 539.807 164.075 539.807 164.733L539.807 165.342 539.807 166C540 165.745 540 165.54 540 165.342L540 164.733C540 164.075 539.807 163.671 539.807 163.006 539.568 161.944 539.382 161.138 538.997 160.274 538.811 159.665 538.379 159.007 538.379 159.007Z" fill="#083B4F" fill-rule="evenodd"/><path d="M544.222 153 544.008 153.193C544.008 153.193 544.222 153.618 544.659 153.811 545.158 154.189 546.032 154.568 546.745 154.807 547.627 155 548.563 155 549 155 548.563 155 547.627 154.807 546.968 154.568 546.032 154.382 545.373 154.003 544.882 153.618L544.222 153Z" fill="#083B4F" fill-rule="evenodd"/><path d="M552 152.007 552 152.007C551.992 152.007 551.722 152.197 551.083 152.428 550.654 152.618 550.383 152.618 549.955 152.618 549.519 152.809 549.038 152.809 548.609 152.809 547.692 152.809 546.827 152.618 546.128 152.428 545.699 152.428 545.271 152.197 545.271 152.197L545 152.618C545 152.618 545.481 152.618 546.128 152.809 546.827 152.993 547.692 152.993 548.609 152.993 549.038 152.993 549.519 152.993 549.955 152.809 550.383 152.809 550.865 152.618 551.083 152.618 551.722 152.197 551.992 152.007 552 152.007Z" fill="#083B4F" fill-rule="evenodd"/><path d="M551 150.007C551 150.007 550.78 150.476 550.294 150.689 550.074 150.894 549.422 151.319 548.716 151.319 548.064 151.575 547.358 151.575 546.926 151.788 546.493 151.788 546 151.575 546 151.575L546 152 546.926 152C547.358 152 548.064 151.788 548.716 151.575 549.422 151.319 550.074 151.106 550.568 150.689 550.78 150.476 551 150.007 551 150.007Z" fill="#083B4F" fill-rule="evenodd"/><path d="M530 143 529 150.993 529.57 150.993 530 143Z" fill="#083B4F" fill-rule="evenodd"/><path d="M535.989 144.007 535 152 535.989 152 535.989 144.007Z" fill="#083B4F" fill-rule="evenodd"/><path d="M543 146 540 151.812 540.356 152 543 146Z" fill="#083B4F" fill-rule="evenodd"/><path d="M529.569 155.006 529.569 155.9C529.569 156.627 529.376 157.306 528.998 157.861 528.998 158.033 528.812 158.206 528.573 158.373 528.573 158.588 528.381 158.76 528.381 158.927L528.812 158.588C528.998 158.373 528.998 158.206 529.19 158.033 529.569 157.306 529.761 156.627 530 156.073L530 155.006ZM528.381 158.927C528.195 158.927 528.002 159.1 528.002 159.273 528.195 159.1 528.381 159.1 528.381 158.927ZM528.002 159.273 527.684 159.589 527.684 159.589C527.85 159.44 528.002 159.422 528.002 159.273ZM527.684 159.589C527.664 159.613 527.644 159.631 527.624 159.654L527.684 159.589ZM527.624 159.654 527.624 159.654C527.385 159.827 527.193 159.827 527.007 159.994 527.193 159.994 527.385 159.827 527.624 159.654Z" fill="#083B4F" fill-rule="evenodd"/><path d="M447.746 173 444.059 184.634 398.791 189.079C387.927 190.109 378.491 196.609 373.767 206.379L366.007 222.069C374.412 235.703 391.807 237.949 391.807 237.949L390.186 269.908 416.192 331 463.918 324.111 498.721 246.115 519.02 246.115C520.002 231.647 534.993 207.014 534.993 207.014L473.553 195.189 471.884 183.999 447.746 173Z" fill="#F4A3B1" fill-rule="evenodd"/><path d="M529.677 206.007C529.677 206.007 516.398 224.081 513.007 246L518.528 246C519.541 231.58 534.993 207.028 534.993 207.028L529.677 206.007Z" fill="#FCC557" fill-rule="evenodd"/><path d="M368.457 217 366.007 221.941C374.408 235.723 391.794 237.993 391.794 237.993L391.993 234.487C375.829 230.781 368.457 217 368.457 217Z" fill="#FCC557" fill-rule="evenodd"/><path d="M447.286 173 443.612 184.581 425 186.383C425 186.383 431.124 207.69 446.848 210.708 447.963 210.905 449.051 211 450.119 211 463.995 211 473 195.089 473 195.089L471.337 183.949 447.286 173Z" fill="#FCC557" fill-rule="evenodd"/><path d="M393 209.007C393 209.007 392.816 210.037 392.816 211.657 393 210.037 393 209.007 393 209.007ZM392.816 211.657 392.816 211.657C392.632 213.278 392.455 215.544 392.271 218.393 392.087 221.291 391.865 224.779 391.681 228.219 391.497 231.906 391.319 235.593 391.135 239.527 390.958 243.208 390.729 247.094 390.545 250.582 390.362 254.269 390.362 257.51 390.184 260.415 390 263.264 390 265.722 390 267.343L390 269.993C390 269.993 390 269.011 390.184 267.343 390.184 265.722 390.362 263.264 390.545 260.415 390.729 257.51 390.958 254.269 391.135 250.781 391.319 247.094 391.497 243.407 391.865 239.527 391.865 235.593 392.087 231.906 392.271 228.219 392.455 224.779 392.632 221.291 392.632 218.64 392.816 215.736 392.816 213.278 392.816 211.657Z" fill="#083B4F" fill-rule="evenodd"/><path d="M447.481 173 443.735 184.64 430.007 186.061C430.007 186.061 438.329 205.993 452.043 205.993 457.33 205.993 463.42 203.029 470.151 194.811L472 184.005 447.481 173Z" fill="#E59889" fill-rule="evenodd"/><path d="M446.995 173 445.005 180.993 445.005 180.993Z" fill="#E98F3E" fill-rule="evenodd"/><path d="M447.9 173 447.653 173.642 445.007 181.655C445.007 181.655 449.518 200 460.173 200 463.018 200 466.302 198.563 470.183 195.054L472 184.127 451.973 174.879 447.9 173Z" fill="#D76D5F" fill-rule="evenodd"/><path d="M333.698 245.007 323.907 251.977C323.907 251.977 299 427.347 433.58 432.849 435.993 432.945 438.365 433 440.697 433 568.002 433 568.993 286.748 568.993 286.748L555.34 278.988 504.985 269.754 457.858 245.007 418.511 245.007 369.373 248.293 333.698 245.007Z" fill="#BDDFD1" fill-rule="evenodd"/><path d="M369.521 309.007 363.904 315.017 356.007 313.562 359.641 320.874 356.007 328.389 363.904 326.934 369.521 332.993 370.732 324.632 378 320.874 370.732 317.32 369.521 309.007Z" fill="#FCC557" fill-rule="evenodd"/><path d="M393 265.007 390.215 272.018 383.007 273.454 388.577 278.388 387.812 286 394.007 282.094 400.779 285.206 400.779 285.206 399 277.802 404 272.219 396.792 271.625 393 265.007Z" fill="#FCC557" fill-rule="evenodd"/><path d="M450.689 293 447.495 299.998 440.007 301.196 445.659 306.373 444.45 313.993 451.317 310.163 458.131 313.565 456.537 305.991 461.993 300.574 454.309 299.616 450.689 293Z" fill="#FCC557" fill-rule="evenodd"/><path d="M439.852 343 433.476 346.519 426.906 343.2 428.141 350.425 423.007 355.575 430.412 356.612 433.676 362.993 436.788 356.412 444 355.174 438.617 350.224 439.852 343Z" fill="#FCC557" fill-rule="evenodd"/><path d="M376.515 360 369.113 366.661 359.235 364.408 363.332 373.573 358 382.339 358 382.339 368.071 381.283 374.639 389 376.715 378.981 386 375.224 377.357 370.019 376.515 360Z" fill="#FCC557" fill-rule="evenodd"/><path d="M320.07 262.007 317.896 271.246 309.007 274.361 316.877 279.505 317.268 288.993 324.322 283.013 333.164 285.685 329.971 276.833 335 269.023 325.915 269.617 320.07 262.007Z" fill="#FCC557" fill-rule="evenodd"/><path d="M508.736 317.007 499.872 323.794 489.127 320.273 492.836 331.025 486.007 340.082 497.395 339.888 503.982 349 507.296 338.255 518 334.733 508.736 328.347 508.736 317.007Z" fill="#FCC557" fill-rule="evenodd"/><path d="M446.736 390 437.872 396.799 427.12 393.077 430.836 403.841 424 412.921 424 412.921 435.395 412.72 441.982 422 445.296 411.084 455.993 407.764 446.736 401.166 446.736 390Z" fill="#FCC557" fill-rule="evenodd"/><path d="M484.099 362 479.711 365.84 473.613 364.625 476.134 369.917 473.007 375.16 479.056 374.333 483.092 379 484.345 373.119 489.993 370.887 484.754 367.875 484.099 362Z" fill="#FCC557" fill-rule="evenodd"/><path d="M531.279 363 529.42 371.528 521 374.789 528.758 379.227 529.42 387.993 536.122 382.099 544.74 384.338 544.74 384.338 541.36 376.402 545.993 368.894 545.993 368.894 537.179 369.725 531.279 363Z" fill="#FCC557" fill-rule="evenodd"/><path d="M553.038 310 548.54 315.873 541 315.48 545.259 321.543 542.62 328.378 542.62 328.378 549.764 326.394 555.485 331 555.684 323.725 561.993 319.701 555.048 317.275 553.038 310Z" fill="#FCC557" fill-rule="evenodd"/><path d="M512.566 274 512.184 280.215 507 283.493 512.566 285.785 514.008 291.993 517.991 287.222 523.993 287.674 520.774 282.25 523.175 276.486 517.18 278.125 512.566 274Z" fill="#FCC557" fill-rule="evenodd"/><path d="M447.853 242 440.634 246.608 432.606 243.395 432.606 243.395 434.693 251.411 429 257.602 437.688 258.038 442.316 265 445.51 257.414 454 255.395 447.193 250.21 447.853 242Z" fill="#FCC557" fill-rule="evenodd"/><path d="M356 283C355.384 283 355.007 283.521 355.007 284.085 355.007 284.606 355.384 285 356 285 356.57 285 357 284.606 357 284.085 357 283.521 356.57 283 356 283Z" fill="#FFFFFF" fill-rule="evenodd"/><path d="M379.976 293C378.773 293 378.007 294.003 378.007 295 378.007 295.997 378.773 297 379.976 297 380.992 297 382 295.997 382 295 382 294.003 380.992 293 379.976 293Z" fill="#FFFFFF" fill-rule="evenodd"/><path d="M334.573 306.007C333.816 306.007 333.007 306.624 333.007 307.381 333.007 308.19 333.816 309 334.573 309 335.383 309 336 308.19 336 307.381 336 306.624 335.383 306.007 334.573 306.007Z" fill="#FFFFFF" fill-rule="evenodd"/><path d="M351.915 339.006C351.521 339.006 351.006 339.526 351.006 340.088 351.006 340.432 351.521 340.994 351.915 340.994 352.436 340.994 353 340.432 353 340.088 353 339.526 352.436 339.006 351.915 339.006Z" fill="#FFFFFF" fill-rule="evenodd"/><path d="M328.472 335C327.665 335 327.007 335.667 327.007 336.388 327.007 337.279 327.665 338 328.472 338 329.13 338 329.993 337.279 329.993 336.388 329.993 335.667 329.13 335 328.472 335Z" fill="#FFFFFF" fill-rule="evenodd"/><path d="M345.5 370.008C344.545 370.008 344 370.786 344 371.504 344 372.524 344.545 373 345.5 373 346.279 373 347 372.524 347 371.504 347 370.786 346.279 370.008 345.5 370.008Z" fill="#FFFFFF" fill-rule="evenodd"/><path d="M379.5 349.009C379.25 349.009 379.009 349.259 379.009 349.5 379.009 349.75 379.25 349.991 379.5 349.991 379.75 349.991 379.991 349.75 379.991 349.5 379.991 349.259 379.75 349.009 379.5 349.009Z" fill="#FFFFFF" fill-rule="evenodd"/><path d="M395.865 324.008C395.436 324.008 395 324.436 395 324.865 395 325.564 395.436 325.992 395.865 325.992 396.564 325.992 396.992 325.564 396.992 324.865 396.992 324.436 396.564 324.008 395.865 324.008Z" fill="#FFFFFF" fill-rule="evenodd"/><path d="M413.595 302C412.647 302 412 302.862 412 303.873 412 304.933 412.647 306 413.595 306 414.39 306 415 304.933 415 303.873 415 302.862 414.39 302 413.595 302Z" fill="#FFFFFF" fill-rule="evenodd"/><path d="M403.497 353C402.729 353 402 353.763 402 354.475 402 355.237 402.729 356 403.497 356 404.271 356 404.994 355.237 404.994 354.475 404.994 353.763 404.271 353 403.497 353Z" fill="#FFFFFF" fill-rule="evenodd"/><path d="M401.565 373.004C401.301 373.004 401 373.245 401 373.515 401 373.759 401.301 374 401.565 374 401.829 374 401.995 373.759 401.995 373.515 401.995 373.245 401.829 373.004 401.565 373.004Z" fill="#FFFFFF" fill-rule="evenodd"/><path d="M451.504 366C450.146 366 449 366.957 449 367.908 449 369.043 450.146 369.994 451.504 369.994 452.862 369.994 454 369.043 454 367.908 454 366.957 452.862 366 451.504 366Z" fill="#FFFFFF" fill-rule="evenodd"/><path d="M429.525 330.006C428.763 330.006 428 330.761 428 331.478 428 332.239 428.763 332.994 429.525 332.994 430.237 332.994 431 332.239 431 331.478 431 330.761 430.237 330.006 429.525 330.006Z" fill="#FFFFFF" fill-rule="evenodd"/><path d="M435.381 286.007C434.81 286.007 434 286.665 434 287.528 434 288.335 434.81 288.993 435.381 288.993 436.19 288.993 436.993 288.335 436.993 287.528 436.993 286.665 436.19 286.007 435.381 286.007Z" fill="#FFFFFF" fill-rule="evenodd"/><path d="M415.996 274C415.531 274 415.008 274.481 415.008 274.97 415.008 275.511 415.531 275.992 415.996 275.992 416.469 275.992 416.992 275.511 416.992 274.97 416.992 274.481 416.469 274 415.996 274Z" fill="#FFFFFF" fill-rule="evenodd"/><path d="M411.485 397C411.245 397 411.004 397.279 411.004 398.173 411.004 398.721 411.245 399 411.485 399 411.759 399 412 398.721 412 398.173 412 397.279 411.759 397 411.485 397Z" fill="#FFFFFF" fill-rule="evenodd"/><path d="M342.859 258.006C341.965 258.006 341.008 258.551 341.008 259.5 341.008 260.272 341.965 260.994 342.859 260.994 344.035 260.994 344.992 260.272 344.992 259.5 344.992 258.551 344.035 258.006 342.859 258.006Z" fill="#FFFFFF" fill-rule="evenodd"/><path d="M379.5 262.007C378.627 262.007 378.007 262.587 378.007 263.402 378.007 264.225 378.627 265 379.5 265 380.38 265 381 264.225 381 263.402 381 262.587 380.38 262.007 379.5 262.007Z" fill="#FFFFFF" fill-rule="evenodd"/><path d="M441 266C440.295 266 440.008 266.215 440.008 266.434 440.008 266.785 440.295 267 441 267 441.475 267 442 266.785 442 266.434 442 266.215 441.475 266 441 266Z" fill="#FFFFFF" fill-rule="evenodd"/><path d="M464.612 275.008C463.667 275.008 463 275.673 463 276.608 463 277.273 463.667 277.992 464.612 277.992 465.279 277.992 466 277.273 466 276.608 466 275.673 465.279 275.008 464.612 275.008Z" fill="#FFFFFF" fill-rule="evenodd"/><path d="M483.522 263C482.686 263 482.006 263.862 482.006 264.922 482.006 265.94 482.686 267 483.522 267 484.359 267 485 265.94 485 264.922 485 263.862 484.359 263 483.522 263Z" fill="#FFFFFF" fill-rule="evenodd"/><path d="M473.872 302C473.436 302 473.008 302.476 473.008 303.106 473.008 303.524 473.436 303.993 473.872 303.993 474.571 303.993 475 303.524 475 303.106 475 302.476 474.571 302 473.872 302Z" fill="#FFFFFF" fill-rule="evenodd"/><path d="M467.978 326C466.855 326 466.007 326.959 466.007 327.917 466.007 329.041 466.855 330 467.978 330 469.093 330 470 329.041 470 327.917 470 326.959 469.093 326 467.978 326Z" fill="#FFFFFF" fill-rule="evenodd"/><path d="M471.416 349C471.139 349 471.005 349.533 471.005 350 471.005 350.467 471.139 351 471.416 351 471.861 351 471.995 350.467 471.995 350 471.995 349.533 471.861 349 471.416 349Z" fill="#FFFFFF" fill-rule="evenodd"/><path d="M507.521 363C506.665 363 506.007 363.671 506.007 364.5 506.007 365.373 506.665 365.993 507.521 365.993 508.335 365.993 508.993 365.373 508.993 364.5 508.993 363.671 508.335 363 507.521 363Z" fill="#FFFFFF" fill-rule="evenodd"/><path d="M530.099 347.008C529.476 347.008 529 347.238 529 348 529 348.467 529.476 349 530.099 349 530.524 349 530.993 348.467 530.993 348 530.993 347.238 530.524 347.008 530.099 347.008Z" fill="#FFFFFF" fill-rule="evenodd"/><path d="M387.888 386C386.916 386 386.008 386.959 386.008 387.917 386.008 389.096 386.916 390 387.888 390 389.084 390 390 389.096 390 387.917 390 386.959 389.084 386 387.888 386Z" fill="#FFFFFF" fill-rule="evenodd"/><path d="M480.517 408C480.244 408 480.004 408.489 480.004 409.03 480.004 409.511 480.244 409.992 480.517 409.992 480.756 409.992 480.996 409.511 480.996 409.03 480.996 408.489 480.756 408 480.517 408Z" fill="#FFFFFF" fill-rule="evenodd"/><path d="M518.915 384C518.394 384 518.006 384.385 518.006 385.003 518.006 385.575 518.394 386 518.915 386 519.479 386 520 385.575 520 385.003 520 384.385 519.479 384 518.915 384Z" fill="#FFFFFF" fill-rule="evenodd"/><path d="M546.485 354C546.245 354 546 354.533 546 355 546 355.467 546.245 356 546.485 356 546.755 356 547 355.467 547 355 547 354.533 546.755 354 546.485 354Z" fill="#FFFFFF" fill-rule="evenodd"/><path d="M521.504 317.006C520.485 317.006 520.008 317.485 520.008 318.003 520.008 318.638 520.485 319 521.504 319 522.281 319 523 318.638 523 318.003 523 317.485 522.281 317.006 521.504 317.006Z" fill="#FFFFFF" fill-rule="evenodd"/><path d="M533.894 299C533.425 299 533 299.571 533 300.003 533 300.575 533.425 301 533.894 301 534.524 301 534.993 300.575 534.993 300.003 534.993 299.571 534.524 299 533.894 299Z" fill="#FFFFFF" fill-rule="evenodd"/><path d="M499.138 304C497.959 304 497 304.959 497 306.138 497 307.096 497.959 307.992 499.138 307.992 500.324 307.992 501 307.096 501 306.138 501 304.959 500.324 304 499.138 304Z" fill="#FFFFFF" fill-rule="evenodd"/><path d="M560 300.007C559.384 300.007 559.007 300.393 559.007 301.024 559.007 301.607 559.384 301.993 560 301.993 560.57 301.993 560.993 301.607 560.993 301.024 560.993 300.393 560.57 300.007 560 300.007Z" fill="#FFFFFF" fill-rule="evenodd"/><path d="M548.43 286.007C547.619 286.007 547 286.665 547 287.528 547 288.335 547.619 288.993 548.43 288.993 549.188 288.993 550 288.335 550 287.528 550 286.665 549.188 286.007 548.43 286.007Z" fill="#FFFFFF" fill-rule="evenodd"/><path d="M559.598 338.006C558.58 338.006 558 338.761 558 339.478 558 340.239 558.58 340.994 559.598 340.994 560.414 340.994 560.993 340.239 560.993 339.478 560.993 338.761 560.414 338.006 559.598 338.006Z" fill="#FFFFFF" fill-rule="evenodd"/><path d="M519.522 403C518.761 403 518.006 403.729 518.006 404.497 518.006 405.455 518.761 406 519.522 406 520.233 406 520.994 405.455 520.994 404.497 520.994 403.729 520.233 403 519.522 403Z" fill="#FFFFFF" fill-rule="evenodd"/><path d="M471.5 395C470.551 395 470.006 395.586 470.006 396.522 470.006 397.233 470.551 397.994 471.5 397.994 472.272 397.994 472.994 397.233 472.994 396.522 472.994 395.586 472.272 395 471.5 395Z" fill="#FFFFFF" fill-rule="evenodd"/><path d="M462.519 414.008C461.581 414.008 461 415.015 461 416.029 461 416.985 461.581 417.992 462.519 417.992 463.237 417.992 464 416.985 464 416.029 464 415.015 463.237 414.008 462.519 414.008Z" fill="#FFFFFF" fill-rule="evenodd"/><path d="M370.925 397C370.481 397 370 397.88 370 398.5 370 399.373 370.481 399.993 370.925 399.993 371.556 399.993 372 399.373 372 398.5 372 397.88 371.556 397 370.925 397Z" fill="#FFFFFF" fill-rule="evenodd"/><path d="M436.857 234C423.27 234 409.369 236.322 395.919 238.513 382.988 240.704 370.214 242.964 357.769 242.964 346.895 242.964 336.268 241.236 326.009 236.232L324 251.915C334.887 257.285 346.813 259.137 359.04 259.137 371.274 259.137 383.808 257.285 395.919 255.232 409.369 253.021 423.27 250.698 436.863 250.698 447.58 250.698 458.105 252.143 468.069 256.221 479.08 260.775 488.668 268.191 499.084 273.983 515.767 283.21 534.719 288 553.67 288 558.796 288 563.915 287.648 568.993 286.943L568.993 270.272C563.943 270.963 558.844 271.309 553.752 271.309 534.766 271.309 515.787 266.54 499.084 257.257 488.668 251.521 479.08 244.098 468.069 239.55 458.105 235.445 447.58 234 436.857 234Z" fill="#32ADB2" fill-rule="evenodd"/><path d="M490.517 269.007C490.517 269.64 490.309 270.028 490.094 270.661 489.67 271.682 489.187 272.901 488.764 274.119 488.125 275.337 487.649 276.753 487.226 278.162 486.795 279.578 486.319 281.185 485.896 282.839 485.465 284.255 484.99 286.059 484.566 287.713 484.135 289.319 483.66 291.171 483.444 292.975 483.021 294.581 482.813 296.433 482.545 298.046 482.122 299.898 481.906 301.504 481.691 303.111 481.691 304.765 481.483 306.378 481.215 307.985 481.215 309.448 481.215 310.857 481 312.273L481 315.929 481 318.556C481 320.163 481.215 320.993 481.215 320.993 481.215 320.993 481.215 320.163 481.483 318.556 481.483 317.147 481.906 314.901 482.122 312.273 482.33 311.055 482.545 309.639 482.545 307.985 482.813 306.569 483.021 304.962 483.236 303.356 483.66 301.695 483.875 300.088 484.135 298.237 484.351 296.63 484.774 294.826 485.205 293.172 485.465 291.368 485.896 289.714 486.104 288.101 486.535 286.304 487.01 284.643 487.434 283.036 487.865 281.43 488.125 279.966 488.556 278.36 488.979 276.944 489.187 275.535 489.67 274.316 490.094 272.465 490.517 270.661 491 269.442 491 269.245 490.785 269.245 490.517 269.007Z" fill="#5A7D7F" fill-rule="evenodd"/><path d="M491.991 266 491.991 266C491.991 266 491.398 266.642 490.602 267.838 490.602 268.162 490.333 268.318 490 268.642 490.333 268.838 490.602 268.838 490.602 269 490.861 268.48 490.861 268.162 491.13 268 491.657 266.642 491.991 266 491.991 266Z" fill="#166B70" fill-rule="evenodd"/><path d="M392.993 256.007C392.524 256.007 391.894 256.2 391.476 256.2 391.476 257.24 391.212 258.473 391.212 259.706 391.212 260.939 391 262.365 391 263.598L391 267.738 391 270.204 392.78 266.264 392.78 263.798C392.78 262.365 392.993 261.132 392.993 259.706L392.993 256.007ZM391.476 283.767 391.212 283.96 391.212 285C391.212 285 391.212 284.552 391.476 283.767Z" fill="#5A7D7F" fill-rule="evenodd"/><path d="M391.993 266.007 390.212 270.012C390 270.418 390 270.817 390 271.265 390 273.974 390 276.278 390.212 278.329 390.212 280.835 390.212 282.74 390.425 283.993L390.689 283.797C390.689 282.544 390.894 280.639 391.106 278.329 391.311 276.278 391.524 273.974 391.524 271.468 391.736 270.215 391.736 268.758 391.736 267.505 391.993 267.057 391.993 266.455 391.993 266.007Z" fill="#826B3F" fill-rule="evenodd"/><path d="M392.378 243C392.378 243 392.1 245.518 391.555 249.194 391.278 251.153 391.278 253.293 391.01 255.623L391.01 255.993C391.555 255.993 392.378 255.811 392.99 255.811L392.99 255.623 392.99 249.194C392.713 245.518 392.378 243 392.378 243Z" fill="#166B70" fill-rule="evenodd"/><path d="M368.808 117C363.917 117 358.91 117.996 354.095 120.138 335.982 128.489 328 149.879 336.181 167.952 342.289 181.181 355.353 189 369.027 189 374.075 189 379.212 187.929 384.109 185.677 390.423 182.846 395.518 178.357 398.993 173.076L398.993 173.076C398.405 173.472 397.577 173.86 396.743 174.058 392.543 175.989 388.145 176.91 383.829 176.91 372.221 176.91 361.168 170.292 355.955 159.014 348.808 143.533 355.764 125.221 371.236 118.139 372.064 117.894 372.7 117.505 373.487 117.307 371.948 117.102 370.381 117 368.808 117Z" fill="#FCC557" fill-rule="evenodd"/><path d="M403.367 139.007 388 141.8 388.667 145.356 398.167 143.601 390.58 157.153 391.107 160 406.993 157.107 406.327 153.552 396.26 155.399 396.26 155.399 403.893 141.847 403.367 139.007Z" fill="#8F3956" fill-rule="evenodd"/><path d="M416.317 148.007 405 150.173 405.472 152.871 412.518 151.519 412.518 151.519 406.883 161.874 407.303 163.993 418.993 161.78 418.528 159.082 411.108 160.528 416.697 150.173 416.317 148.007Z" fill="#8F3956" fill-rule="evenodd"/><path d="M426.107 158.007 418.007 159.633 418.338 161.614 423.354 160.649 419.33 168.374 419.615 170 428 168.324 427.669 166.286 422.361 167.359 426.392 159.633 426.107 158.007Z" fill="#8F3956" fill-rule="evenodd"/><path d="M434.494 171 428.007 172.069 428.27 173.423 432.292 172.746 432.292 172.746 429.079 177.931 429.288 178.993 435.993 177.883 435.723 176.577 431.491 177.254 434.704 172.069 434.494 171Z" fill="#8F3956" fill-rule="evenodd"/><path d="M494 278 494 278C494 278.007 494.198 278.405 494.198 279.25 494.39 279.648 494.39 280.102 494.39 280.703 494.588 281.101 494.787 281.75 494.787 282.351 494.978 283 495.225 283.601 495.423 284.453 495.615 285.102 495.813 285.898 496.203 286.75 496.449 287.602 496.648 288.196 497.038 289.047 497.428 289.851 497.674 290.696 498.064 291.547 498.454 292.351 498.899 293 499.288 293.845 499.678 294.648 500.123 295.297 500.513 295.898 501.101 296.743 501.539 297.344 501.936 297.993 502.326 298.594 502.764 299.243 503.161 299.648 503.551 300.297 503.989 300.696 504.187 301.094 504.577 301.547 505.022 301.743 505.213 302.141L506 302.993C506 302.993 505.802 302.595 505.412 301.946 504.775 301.345 504.187 300.493 503.551 299.446 503.161 298.845 502.764 298.196 502.326 297.595 501.936 296.946 501.539 296.345 501.101 295.696 500.315 294.25 499.487 292.595 498.899 291.101 498.064 289.648 497.428 288 496.839 286.547 496.449 285.703 496.203 284.851 496.011 284.25 495.813 283.601 495.423 282.797 495.225 282.148 494.978 280.898 494.588 280.102 494.39 279.25 494.198 278.405 494 278.007 494 278Z" fill="#5A7D7F" fill-rule="evenodd"/><path d="M384 257.007C383.74 257.007 383.531 257.208 383.329 257.208 383.329 257.416 383.12 257.675 382.918 257.876 382.448 258.493 382.037 259.161 381.626 259.987 381.157 260.655 380.536 261.531 380.125 262.349 380.334 262.349 380.536 262.557 380.745 263.017L380.745 262.557C381.417 261.94 381.828 261.064 382.239 260.446 382.918 259.161 383.531 258.084 384 257.007ZM378.371 264.711C377.281 266.205 376.249 267.49 375.369 268.775 374.698 269.443 374.287 270.06 373.666 270.728 373.204 271.345 372.583 272.013 372.122 272.422 371.292 273.499 370.411 274.375 370 274.993 370.411 274.785 370.621 274.584 371.082 274.117 371.501 273.708 372.122 273.298 372.583 272.832 373.666 271.805 374.698 270.52 375.788 269.235 376.459 268.567 377.079 267.949 377.541 267.282 378.162 266.413 378.573 265.795 379.244 265.128 378.833 265.128 378.573 264.919 378.371 264.711Z" fill="#5A7D7F" fill-rule="evenodd"/><path d="M380.218 262C379.636 262.721 378.855 263.388 378.264 264.333L378.009 264.55C378.264 264.775 378.591 265 379.109 265L379.109 264.775C379.636 264.109 380.482 263.388 381 262.721 380.736 262.225 380.482 262 380.218 262Z" fill="#7D8898" fill-rule="evenodd"/><path d="M386 252.008C386 252.008 385.791 252.475 385.38 253.214 384.969 253.906 384.5 255.113 383.88 256.552 383.678 257.075 383.209 257.534 383.007 257.992 383.209 257.992 383.418 257.767 383.678 257.767 383.88 257.534 384.089 257.075 384.298 256.786 384.5 256.094 384.709 255.346 384.969 254.887 385.171 254.196 385.38 253.681 385.589 253.214 385.791 252.475 386 252.008 386 252.008Z" fill="#166B70" fill-rule="evenodd"/><path d="M495.181 156.004 493.24 157.063C492.283 158.094 491.063 159.375 490.945 161.13 490.569 163.917 491.902 166.704 491.671 169.6 491.412 171.577 491.181 173.554 490.686 175.644 490.455 176.676 490.22 177.734 489.843 178.766 489.73 178.988 489.004 180.381 489.118 180.634 489.263 180.891 489.515 180.996 489.827 180.996 491.055 180.996 493.244 179.322 493.73 178.766 494.69 177.372 494.69 175.508 495.416 174.002 495.529 174.251 495.647 174.586 495.76 174.811 495.906 173.083 496.632 172.386 497.706 171.106 498.549 169.934 499.275 168.319 499.534 166.926 500 165.057 500 162.967 499.388 161.243 499.039 160.071 498.314 158.931 497.475 158.094 496.863 157.284 495.76 156.701 495.181 156.004Z" fill="#083B4F" fill-rule="evenodd"/><path d="M469.163 130.004C467.925 130.004 466.737 130.109 465.715 130.283 462.279 130.811 459.058 131.59 456.198 133.774 454.711 134.959 453.804 134.71 451.851 136.519 451.382 137.177 450.475 138.327 450.694 139.234 447.504 142.227 445.194 145.879 444.283 150.681 443.818 153.021 443.599 155.234 443.019 157.448 442.688 159.134 442 161.065 442 162.625 442.799 162.25 443.376 161.596 443.926 160.943L443.926 160.943C443.926 163.688 443.599 166.525 443.376 169.27 443.23 170.542 443.518 170.996 444.022 170.996 445.109 170.996 447.208 168.86 448.054 168.242 448.054 168.242 451.052 163.156 452.32 160.943 452.505 160.555 453.465 160.398 454.964 160.398 462.075 160.398 481.251 163.989 486.713 163.989 487.078 163.989 487.381 163.971 487.616 163.936 489.103 163.688 497.713 161.065 496.199 157.823L496.199 157.823C496.645 158.52 497.156 159.387 497.848 159.387 498.051 159.387 498.274 159.313 498.513 159.134 499.531 158.354 499.996 156.141 499.996 154.986 499.889 153.021 499.089 150.681 498.263 148.994 497.244 146.659 494.961 145.347 494.138 143.134L494.604 143.134C494.138 141.199 491.963 139.765 490.587 138.61 488.88 137.177 487.258 136.27 485.333 135.212 483.38 134.179 481.07 133.277 478.895 132.872 477.876 132.619 476.612 132.872 475.705 132.092 475.924 131.965 476.143 131.59 476.393 131.59 474.452 130.44 471.7 130.004 469.163 130.004Z" fill="#083B4F" fill-rule="evenodd"/><path d="M460.549 151.004C460.549 151.004 459.051 151.884 457.444 153.923 455.81 155.963 453.037 158.487 452.123 159.124 451.976 159.226 451.86 159.269 451.771 159.269 451.306 159.269 451.538 158.092 451.538 158.092L451.538 158.092C451.538 158.092 450.404 160.373 449.571 161.89 449.474 162.073 449.409 162.154 449.366 162.154 449.056 162.154 450.044 157.845 450.044 157.845 450.044 157.845 450.845 157.085 448.878 155.963 448.685 155.848 448.495 155.793 448.309 155.793 446.605 155.793 445.134 160.22 444.611 163.292 444.092 166.347 444.406 167.669 445.459 167.669 445.587 167.669 445.73 167.652 445.885 167.609L445.885 167.609C445.885 167.609 443.004 181.053 457.083 190.299 461.033 192.887 465.208 193.996 469.258 193.996 479.671 193.996 489.254 186.675 492.089 178.376 495.996 166.849 494.749 164.325 494.501 161.771L494.501 161.771C494.501 161.771 491.194 163.403 486.676 163.403 483.322 163.403 479.299 162.502 475.458 159.366 470.993 155.716 469.394 154.782 468.751 154.782 468.096 154.782 468.425 155.746 467.725 155.81 467.639 155.818 467.546 155.823 467.442 155.823 465.866 155.823 462.292 154.688 460.549 151.004Z" fill="#E59889" fill-rule="evenodd"/><path d="M463.151 183C463.04 183.118 462.929 183.118 462.685 183.118 462.685 183.232 462.574 183.232 462.574 183.232 462.467 183.351 462.356 183.351 462.356 183.497 462.245 183.497 462.138 183.73 462.138 183.848 462 183.962 462 184.081 462.138 184.227 462.138 184.227 462.245 184.341 462.356 184.341 462.356 184.341 462.356 184.46 462.467 184.46 462.574 184.46 462.685 184.341 462.822 184.081L462.929 183.962 462.929 184.341C462.929 184.578 463.04 184.81 463.151 184.957 463.151 185.071 463.258 185.308 463.369 185.422 463.507 185.54 463.614 185.801 463.725 185.919 464.298 186.531 464.983 186.882 465.667 187 465.885 187 465.996 186.764 465.996 186.649 465.996 186.531 465.996 186.417 465.885 186.27 465.885 186.152 465.778 186.152 465.667 186.152L465.423 186.152C465.205 186.034 465.094 186.034 464.876 185.919 464.738 185.801 464.52 185.687 464.409 185.422 464.191 185.308 464.054 185.071 463.943 184.957 463.836 184.81 463.836 184.692 463.725 184.46L463.725 184.081 463.725 183.962C463.725 183.848 463.725 183.848 463.836 183.848 463.836 183.73 463.943 183.612 463.943 183.612 463.943 183.497 463.943 183.351 463.836 183.232 463.836 183.118 463.725 183.118 463.614 183.118 463.507 183.118 463.369 183 463.258 183Z" fill="#083B4F" fill-rule="evenodd"/><path d="M469.586 169.004C469.458 169.004 469.329 169.128 469.329 169.128 468.919 170.583 468.539 172.034 468.256 173.613 468.128 174.403 468.004 175.192 468.004 175.982L468.004 177.146C468.004 177.433 468.004 177.812 468.128 178.094L468.128 178.222C468.128 178.346 468.256 178.474 468.256 178.474L468.667 178.474 468.795 178.346 468.919 178.222C469.171 177.936 469.458 177.812 469.709 177.812 469.837 177.684 469.961 177.684 470.248 177.684L470.628 177.684C470.752 177.684 470.752 177.684 470.911 177.812 471.039 177.812 471.163 177.936 471.163 177.936 471.291 178.094 471.419 178.222 471.542 178.346 471.701 178.474 471.701 178.602 471.829 178.884 471.829 179.012 471.953 179.263 471.953 179.515L471.953 180.463C471.829 180.714 471.829 180.966 471.701 181.252 471.542 181.504 471.419 181.632 471.291 181.755 471.163 181.883 471.039 182.042 470.911 182.165 470.752 182.293 470.628 182.421 470.372 182.421 470.12 182.545 469.837 182.545 469.709 182.545L468.795 182.545C468.539 182.545 468.384 182.672 468.256 182.672 468.128 182.831 468.004 183.083 468.004 183.211 468.004 183.621 468.256 184 468.667 184L469.837 184C470.12 183.872 470.5 183.744 470.752 183.744 471.291 183.462 471.701 183.211 472.081 182.672 472.492 182.293 472.744 181.883 472.872 181.38 473 180.842 473 180.304 473 179.801 473 179.263 472.872 178.884 472.62 178.346 472.492 177.936 472.209 177.556 471.829 177.305 471.419 177.023 471.039 176.895 470.628 176.895L470.5 176.895C470.12 176.895 469.586 177.023 469.047 177.305 468.919 177.433 468.795 177.433 468.667 177.556L468.539 177.305 468.539 177.023C468.539 175.982 468.539 174.782 468.795 173.203 469.047 172.034 469.458 170.707 469.709 169.256 469.837 169.128 469.709 169.004 469.586 169.004Z" fill="#083B4F" fill-rule="evenodd"/><path d="M460.906 161C459.172 161 459.111 162.46 459.111 162.46 459.004 163.899 460.589 164.993 463.324 166.316 464.31 166.779 465.188 166.996 465.899 166.996 466.823 166.996 467.458 166.626 467.645 165.942 468 164.732 467.423 163.292 463.324 161.623 462.281 161.169 461.494 161 460.906 161Z" fill="#083B4F" fill-rule="evenodd"/><path d="M480.854 172C480.357 172 479.998 172.231 479.71 172.586 479.004 173.502 479.596 175.281 481.6 177.176 483.43 178.973 484.897 180 486.018 180 486.333 180 486.621 179.919 486.882 179.752 486.882 179.752 489 178.464 485.469 175.033 483.178 172.787 481.781 172 480.854 172Z" fill="#083B4F" fill-rule="evenodd"/><path d="M475.474 180.004C475.474 180.004 475.354 180.243 475.239 180.632 475.239 180.754 475.12 180.992 475.12 181.264 475 181.503 475 181.742 475 182.131 475 182.37 475 182.759 475.12 183.119 475.12 183.509 475.239 183.869 475.474 184.258 475.622 184.501 475.738 184.618 475.857 184.74 476.092 185.008 476.212 185.129 476.36 185.251 476.595 185.368 476.83 185.489 476.95 185.64L477.213 185.757 477.452 185.757 477.452 185.879 477.568 185.879C477.836 185.879 477.951 185.996 478.19 185.996L479.427 185.996C479.661 185.879 479.901 185.879 480.045 185.879 480.284 185.757 480.399 185.64 480.519 185.64 480.783 185.489 480.902 185.368 481.022 185.251 481.137 185.129 481.376 185.129 481.52 185.008 481.64 184.89 481.759 184.74 481.759 184.618 481.994 184.38 482.258 184.141 482.378 183.99 482.497 183.752 482.613 183.63 482.732 183.509 482.848 183.119 482.996 183.002 482.996 183.002L482.996 182.881 482.848 182.881C482.848 182.881 482.732 183.119 482.497 183.391 482.378 183.63 481.994 183.99 481.52 184.38 481.52 184.501 481.376 184.501 481.257 184.618 481.137 184.74 480.902 184.74 480.783 184.89 480.519 185.008 480.164 185.129 479.901 185.251 479.661 185.368 479.546 185.368 479.427 185.368L478.808 185.368C478.689 185.368 478.573 185.251 478.306 185.251L477.836 185.129 477.333 184.89C477.213 184.74 477.098 184.618 476.95 184.501 476.83 184.38 476.715 184.258 476.595 184.141 476.595 183.99 476.476 183.869 476.36 183.752 476.212 183.509 476.092 183.241 475.977 182.881 475.977 182.759 475.857 182.642 475.857 182.491 475.857 182.37 475.857 182.131 475.738 182.01L475.738 181.264C475.622 180.992 475.622 180.871 475.622 180.632L475.622 180.126 475.622 180.004Z" fill="#083B4F" fill-rule="evenodd"/><path d="M458.827 169.004C458.827 169.004 458.712 169.267 458.596 169.505 458.485 169.739 458.37 169.887 458.37 170.121 458.227 170.355 458.115 170.622 458.115 170.975 458.115 171.09 458 171.209 458 171.357L458 171.944 458 172.44C458 172.679 458 172.822 458.115 173.06 458.115 173.175 458.227 173.413 458.227 173.557 458.37 173.795 458.485 173.91 458.485 174.148 458.596 174.292 458.827 174.53 458.938 174.645 459.081 174.764 459.196 175.027 459.423 175.146L459.538 175.265 459.65 175.265 459.908 175.499C460.019 175.614 460.25 175.614 460.504 175.762 460.62 175.881 460.846 175.881 461.073 176L461.669 176C462.154 176 462.496 175.881 462.865 175.762 463.207 175.614 463.462 175.38 463.692 175.265 463.919 175.027 464.173 174.883 464.288 174.645 464.515 174.53 464.63 174.292 464.773 174.148 465 173.91 465 173.676 465 173.676L465 173.676C465 173.676 464.773 173.795 464.515 173.91 464.404 174.029 464.173 174.148 464.062 174.148 463.804 174.292 463.577 174.411 463.35 174.53 463.207 174.645 463.092 174.645 462.981 174.645 462.865 174.764 462.639 174.764 462.496 174.764 462.269 174.883 461.927 174.883 461.669 175.027L461.216 175.027C461.073 174.883 460.846 174.883 460.731 174.883 460.62 174.883 460.504 174.764 460.25 174.764L459.793 174.53 459.423 174.148C459.308 174.029 459.196 173.91 459.081 173.795 458.938 173.676 458.827 173.557 458.827 173.294 458.712 173.175 458.596 173.06 458.596 172.822 458.485 172.56 458.485 172.206 458.485 171.825 458.37 171.706 458.37 171.591 458.37 171.472 458.37 171.209 458.485 171.09 458.485 170.975 458.485 170.355 458.596 170.002 458.712 169.62 458.827 169.267 458.938 169.152 458.938 169.152L458.827 169.004Z" fill="#083B4F" fill-rule="evenodd"/></g></svg>