<svg width="303" height="304" xmlns="http://www.w3.org/2000/svg" xmlns:xlink="http://www.w3.org/1999/xlink" overflow="hidden"><defs><clipPath id="clip0"><rect x="324" y="123" width="303" height="304"/></clipPath></defs><g clip-path="url(#clip0)" transform="translate(-324 -123)"><path d="M562.78 124.007C554.161 124.007 542.192 127.638 534.178 131.75 510.966 143.581 493.47 172.695 472.882 177.953 472.178 177.953 471.643 177.953 470.934 177.77 468.687 177.582 466.468 177.582 464.22 176.976 462.123 176.645 459.965 176.573 457.825 176.573 456.394 176.573 454.968 176.605 453.574 176.605 449.239 176.605 445.175 176.605 441.112 178.512 433.722 182.241 428.251 189.783 422.809 197.377 417.202 204.926 410.886 211.908 403.327 215.22 395.37 218.715 386.84 218.715 378.845 221.226 363.197 226.257 347.915 239.07 338.845 257.7 334.346 267.012 331.559 277.912 328.908 288.395 326.083 298.69 324.708 309.538 324.272 320.392 324.005 331.058 325.243 342.146 328.335 351.836 331.559 361.942 336.598 369.907 342.745 376.472 349.055 383.09 357.721 384.86 363.328 392.402 365.716 395.708 367.392 399.762 369.343 403.257 371.591 407.356 373.942 411.033 376.63 414.528 382.34 422.681 389.359 424.451 397.186 425.798 397.965 425.935 398.79 425.993 399.635 425.993 402.281 425.993 405.153 425.421 407.696 424.822 411.895 423.846 415.789 421.146 419.717 419.187 427.543 415.133 435.102 409.868 442.792 405.586 450.918 401.161 458.914 399.203 467.711 399.203 471.774 399.203 475.537 399.58 479.6 400.745 483.931 402.092 487.863 404.422 491.926 406.751 499.884 411.41 507.612 416.063 516.006 419.187 527.426 423.267 539.531 425.805 551.496 425.805 556.071 425.805 560.622 425.434 565.107 424.64 573.102 423.052 581.196 420.163 588.886 416.675 596.44 413.363 603.999 408.521 610.043 401.161 616.325 393.385 620.52 384.067 622.772 372.978 623.748 367.948 624.316 362.501 624.855 357.282 625.428 351.458 624.987 346.012 624.987 340.376 624.855 334.786 624.015 329.333 623.175 323.698 622.199 317.692 621.632 311.497 621.092 305.256 620.388 293.608 620.792 281.595 621.932 270.136 623.175 258.305 623.748 246.286 624.588 234.41L625.826 217.55C625.995 215.22 625.695 213.261 625.559 210.932 625.428 208.231 625.559 205.531 625.559 202.967 625.155 180.842 618.005 160.675 606.383 145.91 594.09 130.215 579.648 124.39 563.564 124.02 563.306 124.007 563.043 124.007 562.78 124.007Z" fill="#BDDFD1" fill-rule="evenodd"/><path d="M407.547 349C406.303 349 405.101 349.39 404.282 350.77 403 352.911 403.843 357.388 404.145 359.717 404.55 364.37 404.55 369.029 404.55 373.688L404.55 374.853C404.282 379.134 404.145 383.188 404.145 387.476 404.145 393.482 404.282 399.911 409.205 401.258 410.426 401.668 411.966 402 413.488 402 416.344 402 419.133 400.829 419.595 396.788 420 393.671 419.727 390.782 419.863 387.658 419.863 383.793 419.727 379.883 419.727 376.017 419.595 368.469 419.02 361.253 419.595 353.893 419.727 351.752 418.615 351.004 417.333 350.399 414.94 349.605 412.004 349.605 409.474 349.234 408.852 349.104 408.197 349 407.547 349Z" fill="#083B4F" fill-rule="evenodd"/><path d="M594.211 345C592.204 345 590.097 345.526 589.13 345.796 587.727 346.162 584.844 346.573 583.987 348.639 583.13 350.571 583.302 354.198 583.441 356.682 583.302 358.062 583.302 359.577 583.302 361.092 583.13 365.321 582.857 369.314 582.723 373.544 582.584 380.437 582 387.324 582.857 394.218 583.13 395.733 583.441 397.845 584.844 398.442 587.004 398.994 589.302 398.994 591.429 398.994 593.416 398.814 595.13 398.628 597.012 397.845 598.865 397.113 599.004 395.964 599.277 393.666 599.995 386.362 599.004 378.505 599.004 371.246 598.865 363.8 598.554 356.13 598.865 348.87 599.018 345.802 596.691 345 594.211 345Z" fill="#083B4F" fill-rule="evenodd"/><path d="M596.561 378.006C596.415 378.006 596.293 378.084 596.293 378.245 596.008 378.763 596.293 379.242 596.293 379.76 596.293 379.916 596.415 380 596.561 380 596.707 380 596.878 379.916 596.992 379.76L596.992 378.245C596.878 378.084 596.707 378.006 596.561 378.006Z" fill="#083B4F" fill-rule="evenodd"/><path d="M596.201 388.006C596.099 388.006 596.004 388.172 596.067 388.427 596.165 389.339 596.37 390.117 596.37 391.258 596.37 392.036 596.37 392.763 596.268 393.541 596.268 393.802 596.387 394 596.528 394 596.581 394 596.641 393.968 596.697 393.904 597 393.356 597 392.036 596.898 391.258 596.898 390.117 596.697 389.16 596.37 388.204 596.331 388.064 596.264 388.006 596.201 388.006Z" fill="#083B4F" fill-rule="evenodd"/><path d="M594.447 353C594.39 353 594.346 353.103 594.346 353.317 594.258 355.024 594.525 356.971 594.437 358.685 594.437 361 594.258 363.316 594.053 365.444 594.003 365.787 594.107 366 594.223 366 594.308 366 594.399 365.884 594.437 365.631 594.708 363.73 594.909 361.602 594.909 359.474 595 357.34 594.708 355.445 594.616 353.317 594.572 353.103 594.503 353 594.447 353Z" fill="#083B4F" fill-rule="evenodd"/><path d="M596.574 369C596.481 369 596.384 369.108 596.333 369.385 596 372.197 596 375.05 596.112 378.051 596.221 379.45 596.221 380.856 596.333 382.31 596.333 383.276 596.333 384.094 596.694 384.919 596.725 384.973 596.76 384.993 596.795 384.993 596.899 384.993 596.996 384.804 596.915 384.486 596.694 383.709 596.806 382.066 596.806 381.1 596.694 379.89 596.694 378.68 596.694 377.47 596.581 374.61 596.806 372.197 596.806 369.385 596.806 369.176 596.694 369 596.574 369Z" fill="#083B4F" fill-rule="evenodd"/><path d="M604.257 227.006C602.434 227.006 600.398 227.96 599.195 229.277 597.405 231.223 598.104 240.098 597.835 243.394 597.405 246.501 597.673 249.57 597.405 252.865 597.141 256.349 596.711 259.833 596.447 263.316 595.748 277.433 594.656 291.777 594.656 306.081 594.527 321.171 593 336.079 593.532 351.357 593.532 351.545 593.398 351.96 593.398 352.148 593.268 355.444 594.656 356.975 596.179 357.345 597.099 357.546 598.043 358 598.909 358 599.853 358 600.695 357.455 601.282 355.444 601.976 353.31 601.976 350.565 601.976 348.243 602.11 344.993 602.508 341.697 602.805 338.402 603.202 332.595 603.202 326.419 603.466 320.386 603.767 313.419 603.896 306.27 604.16 299.302 604.16 295.26 604.294 291.173 604.725 287.32 604.988 283.836 604.988 280.359 605.289 276.875 605.687 270.466 605.687 264.29 606.117 258.114 606.515 250.964 607.473 243.763 607.903 236.614 608.172 232.573 609 229.647 606.645 227.746 605.979 227.227 605.141 227.006 604.257 227.006Z" fill="#F4A3B1" fill-rule="evenodd"/><path d="M591.131 210C588.465 210.559 585.761 210.748 583.227 211.542 581.543 213.077 581 215.217 583.94 216.987 587.62 219.082 590.286 222.204 593.226 225.321 595.354 227.513 596.227 230.2 598.912 230.2 599.082 230.2 599.256 230.187 599.44 230.167 599.653 230.135 599.865 230.122 600.077 230.122 601.748 230.122 603.352 231 604.947 231 605.541 231 606.141 230.876 606.735 230.538 609 229.185 606.466 226.069 605.622 225.138 602.38 222.204 599.138 218.9 596.467 215.406 594.915 213.493 593.094 211.542 591.131 210Z" fill="#80624A" fill-rule="evenodd"/><path d="M579.953 210.007C579.558 210.007 579.159 210.256 578.884 210.822 578.608 211.388 578.608 211.808 578.475 212.374 577.487 216.892 575.786 220.798 575.074 225.506 574.223 230.445 573.373 235.91 572.931 241.039 571.948 252.573 571.948 263.963 569.397 275.162 568.988 277.516 568.271 279.634 568.138 282.225 568 283.402 569.121 284.579 569.701 285.335 572.66 289.471 575.211 293.996 578.204 297.902 581.026 301.617 583.439 304.583 586.703 307.312 589.254 309.482 591.634 313.388 594.76 314 595.477 314 595.886 313.198 595.886 312.211 595.886 309.292 595.477 306.326 595.886 303.169 596.19 301.617 595.886 299.875 596.052 298.277 596.19 295.548 596.461 292.819 596.599 290.037 597.178 279.259 598.879 268.29 598.879 257.275 598.879 252.008 599.283 246.497 599.454 241.23 599.454 238.685 599.591 236.094 599.724 233.365 599.724 231.622 600 229.458 599.283 227.67 599.012 226.92 597.891 225.927 597.311 225.743 595.036 224.566 592.926 221.975 591.088 220.048 589.796 218.444 588.233 217.267 586.841 215.905 585.14 214.537 582.86 213.176 581.435 211.197 581.297 211.006 581.159 210.822 581.026 210.822 580.793 210.302 580.38 210.007 579.953 210.007Z" fill="#083B4F" fill-rule="evenodd"/><path d="M587.662 309.007C585.989 309.007 584.587 309.566 582.914 309.757 582.078 309.875 581.241 309.875 580.404 309.875 579.568 309.875 578.731 309.875 577.895 309.994 575.955 310.185 574.147 310.369 572.174 310.369 571.59 310.343 571.001 310.33 570.413 310.33 568.104 310.33 565.758 310.501 563.426 310.501 562.388 310.501 561.355 310.468 560.332 310.369 557.771 310.257 555.163 310.053 552.564 310.053 550.915 310.053 549.274 310.132 547.653 310.369 545.713 310.56 543.605 310.935 541.535 311.172 539.292 311.356 537.049 311.172 534.843 311.547 532.599 311.923 530.529 312.535 528.15 312.726 527.585 312.726 526.879 312.726 526.178 312.916 525.94 312.778 525.664 312.719 525.379 312.719 524.855 312.719 524.318 312.923 523.972 313.292 523.837 313.529 523.837 313.529 523.668 313.529 523.266 313.713 523.136 314.47 523.266 314.891 523 316.826 523.402 319.413 523.402 320.973L523.402 331.195C523.402 335.908 523.668 340.384 524.103 345.091 524.103 349.428 524.238 353.95 524.94 358.051 525.379 360.533 526.86 360.993 528.379 360.993 529.286 360.993 530.207 360.829 530.926 360.829 538.32 360.829 545.713 359.651 553.107 359.651L576.222 359.651C577.498 359.651 578.75 359.677 580.003 359.677 582.036 359.677 584.054 359.605 586.125 359.229 588.634 358.663 592.546 358.051 594.355 354.938 595.892 352.397 595.056 345.894 595.056 342.741 595.191 337.462 595.892 331.946 596.159 326.673 596.43 322.336 596.729 317.814 596.864 313.529 596.995 309.191 593.785 309.757 591.845 309.566 590.438 309.566 589.069 309.007 587.662 309.007Z" fill="#F4A3B1" fill-rule="evenodd"/><path d="M535.976 273C532.753 273 529.53 273.384 526.34 273.807 524.66 273.807 522.98 273.807 521.301 274.184 519.49 274.535 517.707 275.395 515.924 275.395 515.76 275.395 515.591 275.388 515.427 275.368 515.258 275.368 514.986 275.56 514.854 275.752 514.282 275.752 513.747 275.56 513.039 275.56 511.228 275.56 509.243 276.367 508.708 279.113 508.005 282.096 510.083 287.018 510.792 289.578 512.068 293.508 513.578 297.292 515.427 300.613 518.345 305.958 521.84 315.623 527.179 316 528.554 316 530.234 315.239 531.646 315.054 532.889 315.054 534.297 315.054 535.573 314.624 537.327 314.287 539.237 314.214 541.123 314.214 542.38 314.214 543.628 314.247 544.81 314.247 550.248 314.055 592.796 313.44 595.452 313.255 596.995 313.255 596.995 311.502 596.559 311.072 594.176 308.141 569.995 280.297 567.175 276.936 564.656 273.807 561.869 273.192 558.777 273.192 557.243 273.232 555.709 273.245 554.18 273.245 548.066 273.245 542.024 273 535.976 273Z" fill="#B8376D" fill-rule="evenodd"/><path d="M535.627 154.007C535.134 154.007 534.66 154.306 534.368 154.956 533.124 158.636 528.347 160.216 523.744 168.552 521.489 172.596 517.286 185.21 514.364 188.332 511.269 191.635 508.615 195.497 505.787 199.359 500.475 206.947 495.703 216.252 492.645 225.752 491.368 229.614 490.527 233.892 489.55 237.989 488.977 239.341 488.005 241.669 488.005 243.385 488.136 244.367 488.136 245.343 488.305 246.318 488.136 247.066 488.136 247.67 488.305 248.464 488.305 251.344 488.573 255.629 490.391 257.164 497.248 262.983 505.252 265.311 512.11 271.501 513.791 273.081 515.604 274.245 517.286 275.779 519.103 277.737 520.916 279.642 522.903 281.41 526.13 284.115 529.761 286.859 533.255 288.582 537.055 290.721 540.822 291.885 544.89 292.861 549.225 293.608 555.11 293.238 557.9 299.051 558.267 299.655 558.788 299.993 559.276 299.993 559.732 299.993 560.164 299.701 560.423 299.051 564.222 290.91 571.921 287.6 577.938 283.133 584.123 278.712 589.703 272.294 593.907 264.336 598.684 255.629 602.179 245.713 604.128 234.874 605.269 229.425 606.382 224.211 607.792 218.957 608.501 216.44 609.036 213.931 610.013 211.414 610.581 210.062 611.291 208.67 611.859 207.129 611.995 206.343 611.558 205.413 611.155 204.99 610.182 203.826 608.768 203.826 607.66 202.851 605.809 201.498 603.992 199.782 602.315 198.013 598.816 194.522 596.43 190.659 593.907 186.004 589.572 178.227 584.26 171.666 577.938 167.388 571.785 162.914 564.086 161.198 557.06 160.034 553.697 159.611 550.202 159.611 546.839 158.265 543.344 157.102 539.408 156.542 536.351 154.215 536.116 154.078 535.872 154.007 535.627 154.007Z" fill="#E07391" fill-rule="evenodd"/><path d="M566.305 201.007 564.01 202.785C562.88 204.518 561.438 206.669 561.299 209.618 560.854 214.3 562.43 218.982 562.157 223.847 561.85 227.169 561.577 230.491 560.993 234.002 560.72 235.735 560.442 237.514 559.996 239.247 559.862 239.619 559.005 241.96 559.139 242.385 559.311 242.817 559.608 242.993 559.977 242.993 561.429 242.993 564.015 240.182 564.59 239.247 565.725 236.906 565.725 233.773 566.583 231.243 566.717 231.661 566.856 232.224 566.99 232.603 567.162 229.7 568.02 228.529 569.289 226.378 570.285 224.41 571.143 221.696 571.449 219.355 572 216.216 572 212.705 571.277 209.808 570.865 207.84 570.007 205.924 569.016 204.518 568.293 203.158 566.99 202.177 566.305 201.007Z" fill="#8F3956" fill-rule="evenodd"/><path d="M535.783 168.006C534.289 168.006 532.856 168.162 531.622 168.421 527.474 169.206 523.587 170.366 520.136 173.614 518.341 175.378 517.246 175.008 514.889 177.699 514.323 178.678 513.229 180.389 513.493 181.738 509.643 186.192 506.855 191.625 505.755 198.769 505.194 202.251 504.93 205.544 504.229 208.837 503.83 211.346 503 214.218 503 216.539 503.965 215.982 504.661 215.009 505.324 214.037L505.324 214.037C505.324 218.121 504.93 222.342 504.661 226.426 504.484 228.319 504.832 228.994 505.44 228.994 506.753 228.994 509.286 225.817 510.306 224.896 510.306 224.896 513.924 217.33 515.455 214.037 515.678 213.46 516.838 213.226 518.647 213.226 527.229 213.226 550.372 218.569 556.964 218.569 557.404 218.569 557.771 218.543 558.054 218.491 559.849 218.121 570.24 214.218 568.412 209.395L568.412 209.395C568.95 210.432 569.567 211.722 570.402 211.722 570.648 211.722 570.917 211.612 571.205 211.346 572.434 210.186 572.995 206.892 572.995 205.174 572.865 202.251 571.901 198.769 570.903 196.26 569.674 192.785 566.918 190.834 565.926 187.54L566.487 187.54C565.926 184.662 563.3 182.529 561.639 180.811 559.58 178.678 557.622 177.329 555.298 175.754 552.942 174.217 550.154 172.875 547.528 172.272 546.299 171.896 544.773 172.272 543.678 171.112 543.942 170.924 544.207 170.366 544.508 170.366 542.166 168.655 538.844 168.006 535.783 168.006Z" fill="#8F3956" fill-rule="evenodd"/><path d="M517.841 243C517.739 243 517.636 243.006 517.534 243.006 513.935 243.006 510.2 244.157 507.002 246.643 503.803 248.944 501.303 252.574 498.802 256.211 497.001 258.923 494.77 261.224 493.234 264.077L492.005 268.857C494.202 270.008 496.302 274.056 498.104 276.17 500.87 279.434 503.933 282.287 507.267 284.402 509.572 285.995 512.496 288 515.224 288 516.123 288 517.003 287.782 517.832 287.255 521.165 285.185 524.364 280.173 526.431 276.356 529.495 270.972 531.995 262.554 530.594 256.025 528.829 248.115 523.712 243 517.841 243Z" fill="#F4992B" fill-rule="evenodd"/><path d="M524.191 198.006C524.191 198.006 522.382 199.336 520.441 202.419 518.468 205.502 515.12 209.317 514.017 210.281 513.839 210.435 513.699 210.499 513.591 210.499 513.03 210.499 513.31 208.72 513.31 208.72L513.31 208.72C513.31 208.72 511.94 212.169 510.935 214.462 510.818 214.738 510.739 214.86 510.687 214.86 510.313 214.86 511.506 208.347 511.506 208.347 511.506 208.347 512.474 207.198 510.098 205.502 509.864 205.329 509.635 205.245 509.411 205.245 507.353 205.245 505.576 211.938 504.945 216.582 504.319 221.2 504.697 223.197 505.969 223.197 506.124 223.197 506.297 223.171 506.484 223.107L506.484 223.107C506.484 223.107 503.005 243.429 520.007 257.406 524.776 261.317 529.817 262.994 534.708 262.994 547.281 262.994 558.854 251.927 562.277 239.383 566.995 221.958 565.49 218.142 565.19 214.282L565.19 214.282C565.19 214.282 561.197 216.749 555.74 216.749 551.691 216.749 546.833 215.387 542.194 210.647 536.803 205.129 534.871 203.716 534.095 203.716 533.305 203.716 533.702 205.174 532.856 205.271 532.753 205.284 532.641 205.29 532.515 205.29 530.612 205.29 526.296 203.575 524.191 198.006Z" fill="#FBE4AF" fill-rule="evenodd"/><path d="M483.852 234C482.197 234 480.52 234.208 478.819 234.604 474.37 235.766 470.589 239.433 466.411 241.387 466.14 241.387 466.009 241.757 466.009 241.945 466.009 242.134 465.841 242.134 465.841 242.315 465.005 244.269 465.575 246.963 466.276 249.099 467.949 254.351 469.622 259.557 471.996 264.204 476.711 273.305 482.567 281.069 487.581 289.573 493.034 299.05 497.081 309.32 499.726 320.933 502.236 332.176 503.072 344.354 503.638 355.967 503.773 360.615 503.47 366.055 504.474 370.514 505.236 373.844 507.816 374 509.863 374 510.068 374 510.269 374 510.461 374 513.942 374 517.69 374 521.2 373.208 525.078 372.416 527.322 371.676 529.831 367.586 531.635 364.516 532.341 359.083 533.308 355.227 534.715 349.605 535.818 344.166 536.92 338.356 538.762 329.437 540 318.609 538.897 309.32 538.191 303.88 536.518 298.862 534.416 294.402 532.07 289.015 531.504 282.413 529.13 276.98 527.055 272.15 524.247 268.106 521.2 264.386 517.854 260.342 513.676 257.648 510.162 253.935 504.04 247.379 498.754 238.271 490.927 235.344 488.628 234.435 486.268 234 483.852 234Z" fill="#EF8681" fill-rule="evenodd"/><path d="M539.026 311C534.697 311.6 530.204 312.575 525.879 313.312 521.55 313.912 517.09 313.912 512.902 315.068 510.653 315.81 508.409 316.043 506.024 316.224 505.621 316.224 505.49 316.598 505.49 316.966 505.055 319.504 504.783 322.003 504.347 324.495 503.949 326.994 503.11 329.493 502.675 331.985 502.403 332.953 502.272 333.741 502 334.71 502.839 341.832 503.377 348.947 503.677 356.063 503.813 360.686 503.509 366.097 504.516 370.533 505.28 373.845 507.866 374 509.918 374 510.124 374 510.325 374 510.517 374 514.008 374 517.765 374 521.283 373.212 525.172 372.424 527.421 371.688 529.937 367.621 531.745 364.566 532.452 359.162 533.422 355.327 534.832 349.735 535.938 344.324 537.044 338.545 538.89 330.093 539.995 320.059 539.157 311Z" fill="#F18F90" fill-rule="evenodd"/><path d="M457.84 235.007C455.144 235.007 452.419 235.399 449.699 235.987 445.756 236.967 442.255 238.745 438.886 241.274 435.921 243.189 432.552 242.255 429.489 242.817 427.846 243.137 426.185 243.196 424.519 243.196 423.451 243.196 422.383 243.17 421.319 243.17 419.912 243.17 418.51 243.215 417.127 243.424 414.802 243.614 412.454 243.66 410.12 243.66 407.786 243.66 405.471 243.614 403.217 243.614 393.278 243.614 382.87 244.777 373.204 248.104 369.265 249.457 366.466 252.548 363.943 256.849 361.28 261.528 360.706 267.561 360.706 273.41 360.706 278.279 360 282.952 360.979 287.632 361.111 289.971 362.39 292.547 363.233 294.461 364.075 296.239 365.054 297.219 366.028 298.389 366.028 298.389 366.028 298.579 366.164 298.579 367.581 300.121 368.691 301.291 368.691 304.004 368.555 305.781 368.018 307.33 368.018 309.291 367.713 313.97 370.677 316.5 372.766 319.441 376.136 324.31 373.745 331.14 372.498 336.192 371.218 341.244 371.218 346.531 371.218 351.773 371.082 358.223 375.025 369.922 380.648 370.295 383.712 370.295 386.375 369.733 389.203 368.144 389.608 367.772 390.046 367.393 390.45 366.975 390.479 366.962 390.507 366.955 390.54 366.955 391.01 366.955 391.881 368.171 392.135 368.563 393.683 370.295 394.794 371.837 396.478 373.242 403.386 378.105 411.367 381.007 418.943 382.784 422.501 383.569 425.997 384 429.484 384 433.691 384 437.879 383.373 442.119 381.994 446.024 380.634 449.53 378.484 453.337 376.752 457.412 374.785 461.181 371.465 465.699 371.275 465.835 371.262 465.976 371.255 466.113 371.255 469.562 371.255 472.414 375.589 476.07 375.772 477.18 375.772 478.597 374.602 479.707 373.615 481.754 372.059 483.641 371.34 485.735 371.34 486.54 371.34 487.378 371.445 488.262 371.654 491.937 372.445 495.438 374.602 499.212 375.347 499.871 375.438 501 375.608 502.2 375.608 504.073 375.608 506.111 375.196 506.788 373.432 508.205 369.922 508.068 365.243 508.205 361.315 508.642 355.465 509.621 349.616 510.021 343.583 511 332.309 509.485 320.8 508.911 309.48 508.642 304.428 508.068 299.331 506.657 294.886 505.41 289.971 502.445 286.462 499.918 282.769 497.391 279.07 494.596 275.75 492.206 271.868 490.959 270.09 490.116 267.985 489.105 265.835 487.994 263.495 486.446 261.528 485.335 259.188 481.698 250.816 477.049 243.189 470.583 238.934 466.517 236.039 462.221 235.007 457.84 235.007Z" fill="#32ADB2" fill-rule="evenodd"/><path d="M367.478 252C366.248 253.354 364.985 255.078 363.89 257.031 361.263 261.69 360.696 267.697 360.696 273.521 360.696 278.37 360 283.023 360.965 287.682 361.095 290.012 362.358 292.576 363.189 294.483 364.02 296.253 364.985 297.229 365.946 298.394 365.946 298.394 365.946 298.583 366.081 298.583 367.478 300.119 368.573 301.284 368.573 303.985 368.439 305.755 367.909 307.297 367.909 309.249 367.608 313.909 370.532 316.428 372.593 319.356 375.916 324.204 373.558 331.005 372.328 336.036 371.066 341.066 371.066 346.331 371.066 351.55 370.931 357.974 374.821 369.623 380.368 369.993 383.39 369.993 386.017 369.434 388.806 367.852 389.206 367.481 389.637 367.104 390.037 366.688 390.06 366.668 390.092 366.661 390.125 366.661 390.473 366.661 391.202 367.527 391.564 368.035 391.564 364.169 391.434 360.492 391.434 356.809 391.564 345.537 391.995 334.266 390.997 323.039 390.468 317.215 388.941 312.373 387.279 306.92 385.186 300.119 381.199 294.483 378.539 287.917 374.12 276.456 370.235 264.391 367.478 252Z" fill="#32ADB2" fill-rule="evenodd"/><path d="M489.569 316.007C487.029 316.007 484.489 316.026 481.949 316.026 465.428 316.026 448.94 316.217 432.418 316.591 429.452 316.781 426.577 317.063 423.63 317.063 422.939 317.063 422.249 317.05 421.554 317.011 420.627 316.912 419.69 316.879 418.749 316.879 416.729 316.879 414.691 317.037 412.661 317.037 411.488 317.037 410.32 316.984 409.161 316.827 406.853 316.558 404.45 316.387 402.071 316.387 400.648 316.387 399.233 316.446 397.852 316.591 396.868 316.709 395.856 316.814 394.835 316.814 393.813 316.814 392.791 316.709 391.793 316.4 391.344 316.328 391.032 316.249 390.767 316.249 390.365 316.249 390.067 316.42 389.556 317.011 388 318.75 389.693 322.885 389.116 324.808 388.847 326.409 389.253 329.323 389.253 331.108 389.253 334.206 389.391 337.54 389.391 340.69 389.556 349.472 389.556 358.306 389.963 367.087L390.1 366.903C390.128 366.89 390.157 366.884 390.19 366.884 390.663 366.884 391.538 368.104 391.793 368.498 393.349 370.237 394.466 371.786 396.159 373.197 403.102 378.08 411.124 380.994 418.739 382.779 422.315 383.567 425.829 384 429.334 384 433.563 384 437.772 383.37 442.034 381.985 445.96 380.62 449.483 378.461 453.31 376.722 457.406 374.746 461.195 371.412 465.735 371.222 465.872 371.209 466.014 371.202 466.151 371.202 469.618 371.202 472.485 375.553 476.16 375.737 477.276 375.737 478.7 374.562 479.816 373.571 481.874 372.009 483.77 371.287 485.875 371.287 486.684 371.287 487.526 371.392 488.415 371.602 492.109 372.396 495.628 374.562 499.421 375.31 500.083 375.402 501.219 375.573 502.425 375.573 504.307 375.573 506.355 375.16 507.036 373.388 508.46 369.863 508.323 365.164 508.46 361.22 508.9 355.346 509.884 349.472 510.286 343.414 511 334.626 510.286 325.799 509.576 317.011 508.053 316.591 506.19 316.591 504.804 316.591 499.724 316.085 494.644 316.007 489.569 316.007Z" fill="#32ADB2" fill-rule="evenodd"/><path d="M443.227 239C443.187 239 443.147 239.006 443.111 239.019 441.797 239.436 440.836 240.951 439.782 241.913 438.057 243.428 436.458 245.546 434.858 247.657 431.913 251.655 430.859 257.213 430.189 262.956 429.004 272.556 429.804 283.075 434.058 290.698 434.188 290.904 434.371 290.994 434.55 290.994 434.898 290.994 435.242 290.66 435.242 290.146 435.113 288.632 434.603 287.849 434.058 286.7 433.258 284.775 432.843 282.292 432.204 280.18 431.113 275.996 431.113 270.028 431.659 265.664 432.329 260.107 432.588 254.363 435.403 250.141 436.583 248.209 437.928 246.508 439.237 244.763 440.452 243.614 442.181 241.137 443.526 240.399 444 240.014 443.705 239 443.227 239Z" fill="#083B4F" fill-rule="evenodd"/><path d="M431.296 294.006C429.505 294.006 427.517 294.98 425.864 295.161 422.874 295.516 419.72 295.161 416.693 295.872 416.005 296.053 416.298 297.569 416.992 297.569 418.466 297.85 420.041 297.994 421.648 297.994 425.405 297.994 429.335 297.207 432.605 295.516 432.867 295.335 433 294.399 432.605 294.218 432.187 294.069 431.746 294.006 431.296 294.006Z" fill="#083B4F" fill-rule="evenodd"/><path d="M431.432 259C431.351 259 431.27 259.04 431.203 259.126 429.495 261.113 428.368 262.682 426.388 263.868 424.541 264.861 422.666 265.669 420.957 266.662 417.13 268.603 413.441 270.219 409.58 271.589 402.613 274.152 394.071 276.139 390.215 285.623 390 286.351 390.377 287 390.826 287 390.964 287 391.102 286.94 391.236 286.808 394.347 282.066 397.488 279.079 401.897 277.093 405.891 275.338 409.852 274.152 413.713 272.589 417.712 270.974 421.401 268.795 425.09 266.848 427.958 265.238 430.521 263.868 431.785 259.927 431.995 259.45 431.714 259 431.432 259Z" fill="#083B4F" fill-rule="evenodd"/><path d="M391.559 293C391.382 293 391.21 293.091 391.118 293.26 391.118 293.26 390.968 293.26 390.968 293.448 390.812 293.629 390.661 293.818 390.661 294.051 390.349 294.609 390.349 295.395 390.349 296.141 390.005 298.276 390.661 300.599 391.468 302.552 391.618 302.864 391.833 302.993 392.054 302.993 392.516 302.993 392.995 302.422 392.892 301.761 392.737 300.229 392.43 298.879 392.274 297.114 392.081 296.556 391.93 294.609 392.081 294.421 392.274 294.051 392.274 293.818 392.081 293.448 392 293.136 391.774 293 391.559 293Z" fill="#083B4F" fill-rule="evenodd"/><path d="M385 261C382.239 261 379.637 261.764 378.215 264.559 378 265.163 378.415 266 378.881 266 378.993 266 379.105 265.951 379.217 265.84 381.143 263.943 383.601 263.377 386.161 263.377 389.323 263.377 392.648 264.245 395.339 264.559 396.943 264.768 398.534 264.861 400.119 264.861 404.316 264.861 408.458 264.208 412.599 263.284 413 263.284 413 262.355 412.599 262.355 409.768 262.669 407.017 262.81 404.284 262.81 400.408 262.81 396.566 262.521 392.569 262.004 390.512 261.72 387.682 261 385 261Z" fill="#083B4F" fill-rule="evenodd"/><path d="M473.639 238C473.433 238 473.24 238.173 473.139 238.441 473 238.62 473.139 239.035 473.413 239.035 473.587 239.035 473.587 239.214 473.726 239.214 474 239.399 474.274 239.994 474.721 239.994 474.861 239.994 475 239.764 475 239.585 475 239.035 474.721 238.85 474.447 238.62 474.274 238.441 474.139 238.256 474 238.256 474 238.256 473.861 238.256 473.861 238.07 473.788 238.026 473.712 238 473.639 238Z" fill="#F9CBC6" fill-rule="evenodd"/><path d="M475.37 240.009C475.312 240.009 475.255 240.111 475.197 240.111 475.003 240.111 475.003 240.843 475.197 240.843 475.327 241.072 475.57 241.991 475.755 241.991 475.815 241.991 475.87 241.889 475.912 241.634 476 241.149 475.827 240.604 475.739 240.357 475.63 240.111 475.545 240.111 475.458 240.111 475.427 240.034 475.4 240.009 475.37 240.009Z" fill="#F9CBC6" fill-rule="evenodd"/><path d="M476.714 242.007C476.577 242.007 476.444 242.007 476.307 242.198 476.005 242.198 476.005 242.574 476.307 242.759 476.444 242.951 476.577 242.951 476.846 243.188 477.154 243.38 477.291 243.756 477.56 243.941 477.608 243.98 477.655 243.993 477.697 243.993 477.887 243.993 478 243.683 478 243.38 477.83 242.951 477.56 242.574 477.154 242.383 476.983 242.198 476.846 242.007 476.714 242.007Z" fill="#F9CBC6" fill-rule="evenodd"/><path d="M478.392 245.006 478.264 245.174C478 245.347 478.132 245.862 478.392 245.862L478.524 245.862C478.688 246.078 478.688 246.246 478.815 246.419 478.948 246.419 479.08 246.76 479.207 246.76 479.339 246.934 479.339 246.934 479.503 246.934 479.558 246.976 479.613 246.994 479.663 246.994 479.854 246.994 479.995 246.725 479.895 246.593 479.763 246.246 479.763 246.078 479.631 245.862 479.503 245.689 479.339 245.521 479.207 245.347 479.08 245.174 478.815 245.174 478.688 245.006Z" fill="#F9CBC6" fill-rule="evenodd"/><path d="M480.44 248.006C480.137 248.006 480 248.534 480.307 248.699 480.44 248.858 480.577 249.023 480.714 249.023 480.714 249.227 480.846 249.227 480.983 249.386 480.983 249.386 481.154 249.551 481.286 249.716L481.423 249.875C481.489 249.955 481.593 250 481.678 250 481.759 250 481.83 249.955 481.83 249.875 482 249.875 482 249.716 482 249.551 482 249.023 481.693 248.699 481.423 248.534 481.286 248.369 481.154 248.369 480.983 248.21 480.846 248.006 480.577 248.006 480.44 248.006Z" fill="#F9CBC6" fill-rule="evenodd"/><path d="M482.457 251.007C482.145 251.007 482 251.444 482.26 251.742 482.422 252.119 482.59 252.119 482.757 252.543 482.908 252.821 483.127 253 483.358 253 483.445 253 483.538 252.974 483.624 252.927 483.792 252.927 483.792 252.927 483.792 252.735 483.994 252.311 483.792 251.927 483.624 251.742 483.295 251.364 483.127 251.364 482.757 251.126 482.647 251.04 482.543 251.007 482.457 251.007Z" fill="#F9CBC6" fill-rule="evenodd"/><path d="M484.627 254.009C484.517 254.009 484.407 254.064 484.303 254.191 484.005 254.455 484.151 255.3 484.454 255.3L484.637 255.564C484.637 255.818 484.789 256.082 484.94 256.082 485.086 256.345 485.086 256.664 485.389 256.927 485.42 256.973 485.462 257 485.509 257 485.718 257 485.995 256.564 485.875 256.082 485.749 255.427 485.18 254.009 484.627 254.009Z" fill="#F9CBC6" fill-rule="evenodd"/><path d="M486.426 258C486.34 258 486.241 258.05 486.17 258.157 486.005 258.357 486.005 258.564 486.17 258.764 486.307 259.229 486.577 259.429 486.846 259.636 487.017 260.043 487.154 260.507 487.423 260.914 487.461 260.971 487.508 260.993 487.56 260.993 487.712 260.993 487.901 260.807 488 260.507 488 260.043 487.693 259.429 487.56 259.021 487.423 258.764 487.291 258.564 487.154 258.564 487.017 258.357 486.577 258.157 486.577 258.157 486.577 258.05 486.511 258 486.426 258Z" fill="#F9CBC6" fill-rule="evenodd"/><path d="M488.55 261C488.275 261 488.005 261.658 488.241 262.186 488.378 262.408 488.521 262.622 488.663 263.066 488.801 263.281 488.801 263.281 488.978 263.556 489.12 263.778 489.258 263.778 489.4 263.992 489.681 263.992 490 263.778 489.857 263.281 489.681 263.066 489.681 262.844 489.681 262.622 489.543 262.408 489.4 262.408 489.4 262.186 489.258 261.696 489.12 261.474 488.801 261.253 488.732 261.077 488.639 261 488.55 261Z" fill="#F9CBC6" fill-rule="evenodd"/><path d="M490.412 265C490.273 265 490.155 265.107 490.155 265.327 490.155 265.602 490.005 265.602 490.155 265.822 490.155 266.036 490.31 266.256 490.31 266.47 490.465 266.964 490.807 267.398 490.963 267.832 491.07 267.947 491.187 268 491.299 268 491.674 268 492 267.467 491.765 266.964 491.422 266.69 491.267 266.256 491.112 266.036 491.112 265.822 490.963 265.602 490.807 265.327 490.711 265.107 490.551 265 490.412 265Z" fill="#F9CBC6" fill-rule="evenodd"/><path d="M492.243 269.005C492.115 269.005 492.003 269.342 492.12 269.571 492.12 269.862 492.275 270.01 492.349 270.337 492.445 270.337 492.445 270.485 492.523 270.485 492.523 270.633 492.597 270.776 492.675 270.923 492.696 270.98 492.728 271 492.76 271 492.837 271 492.923 270.878 492.923 270.776 492.923 270.633 493 270.485 492.923 270.337 492.923 270.01 492.827 270.01 492.749 269.862 492.675 269.571 492.445 269.423 492.349 269.097 492.317 269.031 492.277 269.005 492.243 269.005Z" fill="#F9CBC6" fill-rule="evenodd"/><path d="M494.543 272C494.248 272 494 272.655 494.271 272.998 494.632 273.624 494.965 274.505 495.438 274.927 495.504 274.978 495.57 275 495.624 275 495.857 275 496 274.636 495.911 274.301 495.659 273.413 495.078 272.786 494.744 272.109 494.678 272.036 494.609 272 494.543 272Z" fill="#F9CBC6" fill-rule="evenodd"/><path d="M496.378 276.005C496.255 276.005 496.137 276.134 496.137 276.332 496 276.619 496.307 276.901 496.577 277.218 496.846 277.218 496.983 277.505 497.154 277.644 497.248 277.851 497.418 278 497.608 278 497.678 278 497.754 277.975 497.83 277.931L498 277.787C498 277.361 497.693 277.045 497.423 276.757 497.286 276.619 497.154 276.475 496.983 276.475 496.846 276.332 496.714 276.332 496.714 276.332 496.714 276.208 496.643 276.099 496.605 276.099 496.586 276.099 496.577 276.114 496.577 276.158 496.525 276.049 496.454 276.005 496.378 276.005Z" fill="#F9CBC6" fill-rule="evenodd"/><path d="M499.477 280.007C499.236 280.007 499.005 280.621 499.218 280.939 499.514 281.193 499.648 281.595 499.912 282.005 499.912 282.202 500.046 282.456 500.046 282.661 500.208 282.661 500.343 282.859 500.477 282.859 500.537 282.958 500.606 283 500.667 283 500.856 283 501 282.612 500.875 282.456 500.875 282.202 500.875 282.005 500.741 281.8 500.606 281.595 500.606 281.398 500.477 281.193 500.208 280.741 499.912 280.339 499.648 280.134 499.593 280.042 499.532 280.007 499.477 280.007Z" fill="#F9CBC6" fill-rule="evenodd"/><path d="M501.339 283C501.099 283 501.005 283.392 501.135 283.571 501.62 284.066 502.068 284.395 502.401 284.931 502.479 284.977 502.562 285 502.635 285 502.839 285 502.995 284.844 502.995 284.602 502.995 283.738 502.068 283.202 501.469 283.035 501.422 283.012 501.38 283 501.339 283Z" fill="#F9CBC6" fill-rule="evenodd"/><path d="M504.377 286.005C504.159 286.005 504.005 286.242 504.109 286.48 504.368 286.803 504.532 287.091 504.791 287.379 504.923 287.707 505.345 287.995 505.605 287.995 505.868 287.995 505.995 287.707 505.868 287.379 505.736 287.237 505.477 286.949 505.182 286.803 505.055 286.48 504.791 286.333 504.532 286.045 504.477 286.015 504.427 286.005 504.377 286.005Z" fill="#F9CBC6" fill-rule="evenodd"/><path d="M506.534 290.006C506.409 290.006 506.279 290.045 506.139 290.149 506 290.33 506.139 290.706 506.279 290.706 506.587 290.706 506.861 291.49 506.861 291.678 507 291.866 507.139 292.235 507.139 292.469 507.274 292.65 507.447 292.65 507.447 292.838 507.534 292.955 507.62 292.994 507.697 292.994 507.865 292.994 508 292.78 508 292.65 508 292.235 508 292.048 507.861 291.866 507.721 291.49 507.587 291.076 507.447 290.706 507.212 290.421 506.918 290.006 506.534 290.006Z" fill="#F9CBC6" fill-rule="evenodd"/><path d="M508.402 295.007C508.263 295.007 508.109 295.247 508.109 295.381 508.004 295.762 508.109 296.149 508.218 296.577 508.218 296.771 508.327 296.958 508.327 297.151L508.432 297.345C508.432 297.579 508.432 297.579 508.568 297.773 508.568 297.886 508.677 297.993 508.786 297.993 508.868 297.993 508.951 297.933 508.996 297.773L508.996 296.958C508.996 296.771 508.891 296.577 508.891 296.39 508.782 295.955 508.568 295.575 508.568 295.194 508.526 295.053 508.466 295.007 508.402 295.007Z" fill="#F9CBC6" fill-rule="evenodd"/><path d="M509.262 299.006C509.181 299.006 509.122 299.049 509.122 299.136L509.122 299.315C509 299.494 509.122 299.71 509.241 299.71 509.122 299.71 509.241 299.889 509.241 299.889L509.241 300.42C509.241 300.599 509.363 300.994 509.363 301.173 509.363 301.346 509.363 301.525 509.515 301.698 509.515 301.901 509.603 302 509.696 302 509.785 302 509.878 301.901 509.878 301.698 509.996 301.346 509.996 301.173 509.996 300.815 509.996 300.42 509.996 300.241 509.878 299.889 509.755 299.494 509.755 299.315 509.515 299.136 509.439 299.049 509.342 299.006 509.262 299.006Z" fill="#F9CBC6" fill-rule="evenodd"/><path d="M509.224 304.006C509.065 304.006 509 304.276 509.103 304.457 509.224 304.639 509.224 304.814 509.224 304.814L509.224 305.578 509.224 306.117 509.224 306.699C509.224 306.912 509.353 306.994 509.487 306.994 509.586 306.994 509.685 306.956 509.75 306.881 509.996 306.299 509.996 305.935 509.871 305.177 509.871 304.814 509.75 304.232 509.349 304.056 509.302 304.019 509.259 304.006 509.224 304.006Z" fill="#F9CBC6" fill-rule="evenodd"/><path d="M510.335 308C510.175 308 510.004 308.252 510.072 308.718 510.182 309.588 510.182 310.74 510.319 311.664 510.373 311.885 510.456 311.992 510.536 311.992 510.62 311.992 510.7 311.885 510.753 311.664 511 310.74 510.863 309.153 510.536 308.229 510.498 308.076 510.418 308 510.335 308Z" fill="#F9CBC6" fill-rule="evenodd"/><path d="M510.367 313.006C510.274 313.006 510.181 313.094 510.122 313.274 510.122 313.674 510 314.035 510.122 314.391 510.245 314.615 510.122 314.79 510.122 315.152 510.122 315.326 510.245 315.507 510.245 315.732 510.304 315.906 510.401 316 510.502 316 510.599 316 510.696 315.906 510.755 315.732 511 314.971 510.755 314.035 510.637 313.274 510.561 313.094 510.464 313.006 510.367 313.006Z" fill="#F9CBC6" fill-rule="evenodd"/><path d="M511.397 318C511.312 318 511.245 318.039 511.245 318.121 511.004 318.473 511.004 318.787 511.122 319.106 511.245 319.299 511.122 319.618 511.122 319.932 511.122 320.284 511.122 320.444 511.245 320.758 511.245 320.917 511.371 320.995 511.502 320.995 511.629 320.995 511.759 320.917 511.759 320.758 512 319.772 511.878 318.947 511.637 318.121 511.578 318.039 511.477 318 511.397 318Z" fill="#F9CBC6" fill-rule="evenodd"/><path d="M511.402 323.007C511.243 323.007 511.004 323.351 511.1 323.688 511.368 324.163 511.251 324.998 511.368 325.678 511.431 325.89 511.519 325.993 511.611 325.993 511.699 325.993 511.791 325.89 511.849 325.678 512 324.793 512 323.688 511.49 323.066 511.469 323.022 511.435 323.007 511.402 323.007Z" fill="#F9CBC6" fill-rule="evenodd"/><path d="M511.311 327.007C511.172 327.007 511 327.119 511 327.407L511 327.83C511.161 328.044 511 328.259 511 328.467 511 328.948 511 329.37 511.161 329.793 511.239 329.926 511.361 329.993 511.483 329.993 511.611 329.993 511.739 329.926 511.839 329.793 511.994 329.37 511.994 328.733 511.994 328.259 511.839 327.83 511.839 327.622 511.478 327.141 511.478 327.059 511.406 327.007 511.311 327.007Z" fill="#F9CBC6" fill-rule="evenodd"/><path d="M511.367 331C511.274 331 511.186 331.111 511.122 331.318 511.122 331.739 511.004 331.953 511.122 332.426L511.122 333.062C511.004 333.276 511.004 333.542 511.122 333.749 511.122 333.874 511.245 334 511.371 334 511.464 334 511.557 333.934 511.608 333.749 511.759 333.062 512 332.426 511.608 331.739L511.608 331.318C511.549 331.111 511.456 331 511.367 331Z" fill="#F9CBC6" fill-rule="evenodd"/><path d="M511.744 334C511.606 334 511.456 334.147 511.361 334.264 511.361 334.689 511.206 335.108 511.206 335.577L511.206 336.002C511.006 336.208 511.206 336.421 511.206 336.685 511.283 336.89 511.406 337 511.522 337 511.644 337 511.761 336.89 511.839 336.685 511.839 336.421 511.839 336.421 512 336.208L512 335.577 512 334.264C511.933 334.073 511.839 334 511.744 334Z" fill="#F9CBC6" fill-rule="evenodd"/><path d="M511.483 339.007C511.322 339.007 511.161 339.117 511.161 339.337 511.006 339.929 511.006 340.569 511.006 341.161L511.006 341.601C511.161 341.8 511.322 342 511.322 342L511.483 342C511.639 341.8 511.8 341.8 511.8 341.601 512 340.768 512 340.128 511.8 339.337 511.8 339.117 511.639 339.007 511.483 339.007Z" fill="#F9CBC6" fill-rule="evenodd"/><path d="M510.879 344.006C510.655 344.006 510.448 344.096 510.448 344.283 510.448 344.649 510.698 344.829 510.448 345.246 510.448 345.612 510.207 345.979 510.207 346.396 510 346.698 510.457 346.994 510.94 346.994 511.043 346.994 511.155 346.981 511.25 346.949 511.5 346.576 511.75 345.979 511.991 345.612 511.991 345.246 511.991 345.06 511.75 344.829 511.75 344.649 511.5 344.463 511.5 344.283 511.379 344.096 511.112 344.006 510.879 344.006Z" fill="#F9CBC6" fill-rule="evenodd"/><path d="M511.35 348C511.131 348 510.878 348.096 510.726 348.274 510.481 348.688 510.481 349.051 510.245 349.414 510.245 349.828 510 350.376 510.245 350.783 510.38 350.892 510.624 350.994 510.844 350.994 511.013 350.994 511.165 350.936 511.266 350.783 511.511 350.376 511.511 350.006 511.755 349.643 511.755 349.236 511.992 348.688 511.755 348.274 511.755 348.096 511.57 348 511.35 348Z" fill="#F9CBC6" fill-rule="evenodd"/><path d="M510.464 352.007C510.344 352.007 510.211 352.107 510.139 352.306 510.139 352.77 510.005 353.176 510.005 353.382L510.005 354.658C510.005 354.893 510.144 354.993 510.287 354.993 510.392 354.993 510.493 354.943 510.55 354.857 510.995 354.245 510.861 353.176 510.689 352.306 510.689 352.107 510.589 352.007 510.464 352.007Z" fill="#F9CBC6" fill-rule="evenodd"/><path d="M509.599 357.007C509.462 357.007 509.305 357.105 509.233 357.308 509.233 357.958 509.091 358.559 509.091 359.21 509 359.72 509.228 359.993 509.462 359.993 509.619 359.993 509.777 359.874 509.853 359.608 509.995 358.811 509.995 358.161 509.853 357.308 509.853 357.105 509.736 357.007 509.599 357.007Z" fill="#F9CBC6" fill-rule="evenodd"/><path d="M509.487 362C509.396 362 509.289 362.07 509.238 362.2L509.238 362.335C509.238 362.47 509.238 362.47 509.344 362.633L509.344 362.767C509.238 362.902 509.238 363.033 509.238 363.167 509.106 363.465 509 363.735 509.238 364L509.553 364C509.762 363.735 509.762 363.465 509.894 363.033 509.996 362.767 509.894 362.335 509.656 362.2 509.656 362.07 509.579 362 509.487 362Z" fill="#F9CBC6" fill-rule="evenodd"/><path d="M509.596 366C509.466 366 509.337 366.075 509.274 366.212 509.308 366.179 509.322 366.165 509.332 366.165 509.361 366.165 509.274 366.348 509.274 366.348L509.139 366.485 509.139 367.054C509 367.054 509 367.327 509 367.327 509 367.595 509 367.727 509.139 367.896 509.207 367.967 509.274 368 509.351 368 509.423 368 509.5 367.967 509.587 367.896 509.726 367.727 509.861 367.459 509.861 367.327 510 367.054 509.861 366.885 509.861 366.616 509.861 366.616 510 366.485 510 366.348 509.923 366.108 509.755 366 509.596 366Z" fill="#F9CBC6" fill-rule="evenodd"/><path d="M508.641 370.005C508.493 370.005 508.34 370.081 508.278 370.222 508.306 370.189 508.321 370.178 508.33 370.178 508.368 370.178 508.278 370.373 508.278 370.373 508.144 370.568 508.144 370.568 508.144 370.724 508.005 370.876 508.005 371.189 508.005 371.535 508.072 371.843 508.287 372 508.502 372 508.713 372 508.928 371.843 509 371.535L509 370.876 509 370.373C509 370.119 508.823 370.005 508.641 370.005Z" fill="#F9CBC6" fill-rule="evenodd"/><path d="M489.323 236.008C489.109 236.008 489 236.688 489.218 236.688 489.353 236.856 489.485 237 489.609 237 489.703 237 489.797 236.912 489.891 236.688 489.996 236.688 489.996 236.464 489.891 236.464 489.782 236.008 489.568 236.008 489.323 236.008Z" fill="#F9CBC7" fill-rule="evenodd"/><path d="M490.242 237.004C490 237.122 490 237.483 490.242 237.483 490.508 237.634 490.746 237.634 490.867 237.756 491.104 237.874 491.375 237.996 491.612 237.996 491.85 237.996 492 237.756 491.85 237.634 491.733 237.366 491.375 237.244 491.104 237.122 490.867 237.004 490.629 237.004 490.242 237.004Z" fill="#F9CBC7" fill-rule="evenodd"/><path d="M493.348 238C493.141 238 493.005 238.46 493.258 238.818 493.545 239.234 493.833 239.657 494.303 239.861 494.364 239.956 494.424 240 494.49 240 494.747 240 495 239.365 494.737 239.029 494.449 238.555 494.015 238.35 493.545 238.139 493.48 238.044 493.409 238 493.348 238Z" fill="#F9CBC7" fill-rule="evenodd"/><path d="M495.442 240.007C495.189 240.007 495 240.489 495.121 240.662 495.515 241.252 496.102 242 496.636 242 496.709 242 496.786 241.986 496.859 241.95 496.995 241.95 496.995 241.748 496.995 241.54 496.859 240.662 495.99 240.252 495.573 240.043 495.529 240.014 495.485 240.007 495.442 240.007Z" fill="#F9CBC7" fill-rule="evenodd"/><path d="M498.261 243C498 243.192 498 243.808 498.176 244 498.261 244 498.348 244.377 498.348 244.377 498.458 244.616 498.542 244.801 498.715 244.993 498.891 244.993 499 244.616 499 244.377 498.891 243.808 498.542 243 498.261 243Z" fill="#F9CBC7" fill-rule="evenodd"/><path d="M500.399 246.005C500.172 246.005 500.005 246.352 500.113 246.471 500.404 246.754 500.535 247.072 500.794 247.36 500.794 247.36 500.925 247.499 501.057 247.643 501.215 247.821 501.347 247.821 501.478 247.96 501.524 247.99 501.574 248 501.619 248 501.828 248 502 247.762 501.868 247.499 501.737 247.36 501.737 247.216 501.605 247.072 501.605 246.933 501.478 246.754 501.347 246.61 501.057 246.328 500.794 246.184 500.535 246.045 500.49 246.015 500.444 246.005 500.399 246.005Z" fill="#F9CBC7" fill-rule="evenodd"/><path d="M502.299 249.006C502.005 249.162 502.005 249.68 502.299 249.841L502.448 250.003 502.598 250.159C502.778 250.32 502.778 250.521 502.928 250.521 503.077 250.677 503.222 250.838 503.371 250.994 503.515 250.994 504 250.838 503.851 250.677 503.701 250.159 503.515 249.68 503.222 249.323L503.077 249.323 502.928 249.162 502.778 249.162C502.778 249.006 502.598 249.006 502.448 249.006Z" fill="#F9CBC7" fill-rule="evenodd"/><path d="M504.419 252.005C504.419 252.005 504.293 252.005 504.293 252.198 504 252.198 504 252.654 504.293 252.81 504.293 252.965 504.55 252.965 504.68 253.153 504.806 253.308 504.968 253.464 505.099 253.464 505.099 253.614 505.225 253.769 505.356 253.925 505.428 253.979 505.509 254 505.59 254 505.802 254 505.995 253.839 505.905 253.614 505.775 253.308 505.775 253.153 505.613 252.965 505.486 252.654 505.356 252.504 505.225 252.349 504.968 252.349 504.806 252.198 504.68 252.198 504.55 252.005 504.55 252.005 504.419 252.005Z" fill="#F9CBC7" fill-rule="evenodd"/><path d="M507.338 254C507.145 254 507 254.272 507.103 254.545 507.222 254.545 507.222 254.713 507.346 254.916 507.47 254.916 507.47 255.084 507.59 255.084L507.744 255.252C507.868 255.414 507.987 255.583 508.111 255.751 508.312 255.751 508.449 256 508.56 256 508.585 256 508.607 255.988 508.632 255.954 508.876 255.954 508.996 255.751 508.996 255.583 508.996 255.084 508.632 254.916 508.355 254.545 508.235 254.377 508.111 254.214 507.868 254.214 507.744 254.214 507.59 254.214 507.47 254.046 507.423 254.017 507.38 254 507.338 254Z" fill="#F9CBC7" fill-rule="evenodd"/><path d="M509.656 257.007C509.524 257.007 509.396 257.007 509.264 257.197 509.005 257.38 509.137 257.99 509.396 257.99L509.524 257.99C509.656 258.18 509.82 258.18 509.82 258.37 510.08 258.554 510.212 258.928 510.472 258.928 510.531 258.98 510.585 259 510.64 259 510.854 259 511 258.666 510.895 258.37 510.763 257.99 510.472 257.57 510.212 257.38 510.08 257.197 509.948 257.007 509.656 257.007Z" fill="#F9CBC7" fill-rule="evenodd"/><path d="M512.524 259.005C512.457 259.005 512.387 259.016 512.32 259.044 512.108 259.044 512 259.512 512.32 259.708 512.561 259.866 512.773 260.019 512.985 260.335 513.227 260.488 513.439 260.995 513.651 260.995 513.892 260.995 513.996 260.842 513.996 260.488 513.996 260.019 513.546 259.708 513.331 259.36 513.138 259.234 512.822 259.005 512.524 259.005Z" fill="#F9CBC7" fill-rule="evenodd"/><path d="M515.662 261C515.53 261 515.389 261.041 515.248 261.122 515.124 261.32 515.004 261.707 515.248 261.952 515.372 261.952 515.645 262.15 515.769 262.34 516.013 262.537 516.137 262.735 516.41 262.925 516.457 262.973 516.513 262.993 516.564 262.993 516.782 262.993 517 262.619 516.778 262.15 516.585 261.497 516.15 261 515.662 261Z" fill="#F9CBC7" fill-rule="evenodd"/><path d="M518.291 264.006C518.15 264.006 518.004 264.148 518.004 264.361 518.004 264.527 518.15 264.74 518.27 264.911 518.27 264.911 518.391 265.077 518.507 265.077 518.507 265.077 518.615 265.154 518.649 265.154 518.657 265.154 518.661 265.148 518.661 265.142L518.661 265.142C518.89 265.568 519.181 266 519.576 266 519.634 266 519.696 265.988 519.759 265.97 519.879 265.97 519.996 265.799 519.996 265.586 519.879 265.077 519.489 264.74 519.252 264.527 519.015 264.361 518.894 264.189 518.748 264.189L518.507 264.189C518.462 264.059 518.378 264.006 518.291 264.006Z" fill="#F9CBC7" fill-rule="evenodd"/><path d="M520.604 267.008C520.536 267.008 520.468 267.023 520.4 267.06 520.004 267.06 520.004 267.927 520.4 267.927L520.519 267.927C520.519 268.198 520.643 268.198 520.643 268.198 520.766 268.41 520.766 268.628 520.885 268.628 520.885 268.847 521.038 269.058 521.162 269.276 521.281 269.548 521.404 269.548 521.528 269.759 521.574 269.925 521.66 270 521.74 270 521.877 270 521.996 269.812 521.923 269.548 521.923 269.276 521.923 268.847 521.8 268.628 521.647 268.41 521.528 267.927 521.404 267.709 521.204 267.362 520.906 267.008 520.604 267.008Z" fill="#F9CBC7" fill-rule="evenodd"/><path d="M522.418 270.006C522.317 270.006 522.221 270.025 522.139 270.081 522 270.255 522 270.66 522.139 270.835L522.413 270.835C522.413 271.016 522.587 271.016 522.726 271.196 523 271.371 523.139 271.551 523.447 271.95 523.495 271.981 523.548 272 523.596 272 523.812 272 524 271.701 524 271.371 523.861 270.835 523.587 270.436 523.139 270.255 522.942 270.131 522.663 270.006 522.418 270.006Z" fill="#F9CBC7" fill-rule="evenodd"/><path d="M525.222 273.006C525.003 273.006 525.003 273.479 525.149 273.641 525.149 273.641 525.222 273.641 525.222 273.802L525.296 273.802C525.222 273.802 525.389 274.003 525.389 274.003 525.389 274.159 525.464 274.32 525.536 274.476L525.536 274.638C525.611 274.799 525.611 274.799 525.683 274.799 525.714 274.939 525.758 275 525.799 275 525.863 275 525.923 274.855 525.923 274.638 525.923 274.476 525.997 274.476 525.923 274.32L525.923 274.003C525.851 273.802 525.758 273.641 525.683 273.479 525.683 273.323 525.611 273.006 525.464 273.006Z" fill="#F9CBC7" fill-rule="evenodd"/><path d="M526.43 276C526.206 276 526 276.161 526 276.515 526 276.67 526.176 276.976 526.521 277.131 526.521 277.131 526.697 277.287 526.697 277.475 526.915 277.63 527.085 277.786 527.261 277.936 527.309 277.979 527.382 277.995 527.467 277.995 527.697 277.995 528 277.855 528 277.63 528 277.287 527.782 276.976 527.436 276.67 527.436 276.515 527.261 276.327 527.085 276.327 526.97 276.327 526.933 276.257 526.921 276.257 526.915 276.257 526.915 276.273 526.915 276.327 526.812 276.113 526.618 276 526.43 276Z" fill="#F9CBC7" fill-rule="evenodd"/><path d="M528.348 279.007C528.183 279.007 528.003 279.469 528.148 279.959 528.229 280.156 528.313 280.544 528.397 280.735 528.397 280.98 528.478 281.177 528.478 281.367 528.562 281.565 528.562 281.762 528.667 281.762 528.696 281.925 528.751 281.993 528.809 281.993 528.901 281.993 528.997 281.81 528.997 281.565L528.997 280.98C528.916 280.735 528.916 280.544 528.832 280.347 528.748 279.959 528.562 279.517 528.478 279.129 528.441 279.041 528.394 279.007 528.348 279.007Z" fill="#F9CBC7" fill-rule="evenodd"/><path d="M529.323 283C529.218 283 529 283.216 529.109 283.389L529.109 283.557 529.109 283.731C529.109 283.731 529.109 283.904 529.218 283.904 529.218 284.287 529.323 284.629 529.432 284.802 529.489 284.946 529.579 285 529.665 285 529.782 285 529.891 284.898 529.891 284.802L529.891 284.629C529.996 284.629 529.996 284.461 529.996 284.287 529.891 284.072 529.891 283.904 529.782 283.557 529.782 283.557 529.782 283.389 529.673 283.389L529.673 283.216C529.568 283 529.432 283 529.323 283Z" fill="#F9CBC7" fill-rule="evenodd"/><path d="M530.523 286.006C530.262 286.006 530 286.294 530.232 286.589L530.41 286.814 530.41 286.996C530.548 287.171 530.548 287.353 530.691 287.71 530.83 288.117 530.83 288.474 531.116 288.831 531.205 288.944 531.284 289 531.358 289 531.432 289 531.501 288.944 531.575 288.831 532 287.935 531.432 286.413 530.691 286.05 530.637 286.019 530.583 286.006 530.523 286.006Z" fill="#F9CBC7" fill-rule="evenodd"/><path d="M531.442 290.007C531.231 290.007 531.007 290.174 531.007 290.419 531.007 290.823 531.395 291.221 531.395 291.667 531.585 292.072 531.782 292.47 532.218 292.916 532.272 292.972 532.333 292.993 532.401 292.993 532.592 292.993 532.803 292.798 532.803 292.47 533 292.072 532.803 291.667 532.612 291.221 532.612 291.019 532.415 290.823 532.415 290.621 532.218 290.621 531.98 290.419 531.782 290.419 531.782 290.126 531.619 290.007 531.442 290.007Z" fill="#F9CBC7" fill-rule="evenodd"/><path d="M532.453 294.006C532.199 294.006 532 294.363 532.219 294.621 532.219 294.832 532.363 294.996 532.537 294.996 532.682 295.33 532.682 295.33 532.682 295.5 532.965 296.215 533.109 296.719 533.572 296.924 533.612 296.977 533.667 296.994 533.721 296.994 533.856 296.994 534 296.865 534 296.719 534 296.045 533.716 295.5 533.428 294.996 533.254 294.621 532.965 294.287 532.682 294.117 532.607 294.041 532.527 294.006 532.453 294.006Z" fill="#F9CBC7" fill-rule="evenodd"/><path d="M534.815 298C534.775 298 534.73 298.008 534.685 298.024 534.163 298.024 534.006 298.976 534.489 298.976 534.685 298.976 534.685 299.433 534.848 299.709 534.848 299.937 535.011 300.386 535.011 300.614 535.09 300.866 535.258 300.992 535.41 300.992 535.562 300.992 535.691 300.866 535.691 300.614 535.994 299.764 535.545 298 534.815 298Z" fill="#F9CBC7" fill-rule="evenodd"/><path d="M535.524 302C535.334 302 535.162 302.1 535.162 302.285L535.162 302.478C535.006 302.664 535.162 302.903 535.162 302.903 535.524 303.281 535.685 303.666 535.841 304.091 535.841 304.529 535.936 304.993 536.214 304.993 536.298 304.993 536.398 304.954 536.521 304.854 537 304.661 536.677 303.666 536.677 303.281 536.521 302.903 536.159 302.478 536.003 302.285 535.919 302.1 535.713 302 535.524 302Z" fill="#F9CBC7" fill-rule="evenodd"/><path d="M536.647 306C536.338 306 536.008 306.169 536.008 306.404 536.008 306.647 536.218 306.843 536.218 307.031 536.218 307.227 536.218 307.422 536.436 307.611 536.654 308.049 536.436 308.434 536.865 308.818 536.865 308.939 536.985 309 537.135 309 537.286 309 537.459 308.939 537.564 308.818 538 308.434 537.782 307.854 537.782 307.422 537.782 307.031 537.564 306.843 537.353 306.647L537.353 306.647C537.391 306.681 537.414 306.694 537.429 306.694 537.489 306.694 537.316 306.404 537.135 306.404L537.135 306.216C537.03 306.067 536.842 306 536.647 306Z" fill="#F9CBC7" fill-rule="evenodd"/><path d="M537.242 310C537.119 310 537 310.138 537 310.452 537 310.635 537 311.061 537.148 311.435 537.266 311.808 537.148 312.234 537.266 312.607 537.266 312.836 537.402 313 537.529 313 537.611 313 537.689 312.941 537.734 312.797 538 312.417 538 311.998 537.881 311.435 537.881 311.061 537.619 310.635 537.5 310.262 537.447 310.092 537.34 310 537.242 310Z" fill="#F9CBC7" fill-rule="evenodd"/><path d="M537.431 315.007C537.287 315.007 537.139 315.11 537.139 315.323 537.139 315.528 537.005 315.741 537.139 316.005 537.278 316.424 537.139 316.842 537.139 317.319 537.005 317.738 537.005 318.369 537.139 318.839 537.211 318.941 537.311 319 537.421 319 537.526 319 537.636 318.941 537.722 318.839 537.995 318.369 537.995 317.525 537.995 316.842L537.995 315.741C537.861 315.741 537.861 315.528 537.861 315.528L537.722 315.323C537.722 315.11 537.579 315.007 537.431 315.007Z" fill="#F9CBC7" fill-rule="evenodd"/><path d="M537.572 320.007C537.49 320.007 537.413 320.058 537.413 320.159 537.139 320.833 537.139 321.246 537.139 321.92 537.139 322.543 537 323.217 537.139 323.841 537.207 323.942 537.322 324 537.413 324 537.51 324 537.587 323.942 537.587 323.841 538 323.428 538 322.754 538 322.13 538 321.457 538 320.833 537.726 320.159 537.726 320.058 537.649 320.007 537.572 320.007Z" fill="#F9CBC7" fill-rule="evenodd"/><path d="M537.676 325.007C537.566 325.007 537.443 325.113 537.381 325.326 537.266 326.091 537 327.089 537.266 327.707 537.324 327.9 537.414 327.993 537.5 327.993 537.59 327.993 537.676 327.9 537.734 327.707 537.881 327.468 538 326.896 538 326.517 538 326.091 538 325.705 537.881 325.326 537.881 325.113 537.787 325.007 537.676 325.007Z" fill="#F9CBC7" fill-rule="evenodd"/><path d="M536.534 330.006C536.447 330.006 536.365 330.078 536.323 330.239 536.323 330.608 536.214 330.976 536.214 331.397 536.109 331.765 536 332.134 536 332.554 536.06 332.858 536.15 332.994 536.259 332.994 536.346 332.994 536.444 332.903 536.538 332.735 536.782 332.134 536.996 330.976 536.887 330.427 536.823 330.175 536.669 330.006 536.534 330.006Z" fill="#F9CBC7" fill-rule="evenodd"/><path d="M535.693 334.007C535.569 334.007 535.434 334.176 535.434 334.423 535.33 334.627 535.33 335.028 535.221 335.486 535.221 335.683 535.112 335.887 535.112 336.289 535.004 336.662 535.146 337 535.318 337 535.356 337 535.397 336.979 535.434 336.944 535.891 336.289 535.996 335.232 535.891 334.423 535.891 334.127 535.798 334.007 535.693 334.007Z" fill="#F9CBC7" fill-rule="evenodd"/><path d="M534.608 338C534.502 338 534.396 338.117 534.344 338.361 534.238 338.906 534.238 339.384 534.238 339.862 534.11 340.398 534.004 340.885 534.004 341.363 534.004 341.765 534.187 342 534.326 342 534.377 342 534.421 341.966 534.451 341.899 534.894 340.885 535 339.618 534.894 338.361 534.828 338.117 534.718 338 534.608 338Z" fill="#F9CBC7" fill-rule="evenodd"/><path d="M534.233 343.007C534.004 343.007 533.767 343.112 533.767 343.328 533.531 343.806 533.531 344.022 533.531 344.448 533.245 344.873 533.008 345.142 533.245 345.575 533.245 345.784 533.767 346 534.004 346 534.469 345.784 534.706 345.358 534.992 344.873L534.992 344.239C534.992 343.806 534.706 343.545 534.706 343.328 534.706 343.112 534.469 343.007 534.233 343.007Z" fill="#F9CBC7" fill-rule="evenodd"/><path d="M533.694 348.006C533.545 348.006 533.388 348.139 533.311 348.319 533.144 348.649 533.144 349.025 533.005 349.355 533.005 349.894 533.005 350.224 533.144 350.722 533.144 350.873 533.297 351 533.44 351 533.493 351 533.545 350.977 533.589 350.931 533.861 350.56 533.861 350.224 534 349.685 534 349.355 533.861 349.187 534 348.857L534 348.319C533.938 348.093 533.818 348.006 533.694 348.006Z" fill="#F9CBC7" fill-rule="evenodd"/><path d="M532.261 353.005C532.12 353.005 531.972 353.037 531.859 353.105 531.613 353.238 531.613 353.238 531.408 353.535L531.408 353.664 531.408 353.796C531.204 353.924 531.204 354.057 531.204 354.222 531.007 354.483 531.204 354.616 531.204 354.876 531.31 354.959 531.472 355 531.634 355 531.803 355 531.965 354.959 532.063 354.876 531.859 354.876 532.063 354.876 532.063 354.744 532.268 354.744 532.268 354.616 532.268 354.483 532.268 354.35 532.465 354.222 532.465 354.222 532.465 354.057 532.669 353.924 532.669 353.796L532.669 353.535C533 353.224 532.641 353.005 532.261 353.005Z" fill="#F9CBC7" fill-rule="evenodd"/><path d="M531.126 357.007C530.848 357.007 530.622 357.251 530.622 357.495L530.622 357.692C530.622 357.936 530.43 358.125 530.43 358.519 530.43 359.149 530.007 359.732 530.007 360.363 530.007 360.675 530.166 360.993 530.43 360.993 530.49 360.993 530.55 360.98 530.622 360.939 531 360.553 531.192 360.119 531.43 359.732 531.616 359.536 531.616 359.149 531.808 358.905L531.808 358.519C531.808 358.322 531.993 358.125 531.808 357.936 531.808 357.692 531.616 357.495 531.616 357.305 531.457 357.088 531.285 357.007 531.126 357.007Z" fill="#F9CBC7" fill-rule="evenodd"/><path d="M529.688 362.007C529.568 362.007 529.462 362.112 529.462 362.328 529.462 362.328 529.327 362.59 529.327 362.806 529.327 363.022 529.327 363.022 529.218 363.231L529.218 363.925 529.113 364.142C529.004 364.567 529.113 365 529.327 365 529.677 365 529.891 364.358 529.891 363.925 530 363.664 530 363.231 530 363.022L530 362.59 530 362.328C529.944 362.112 529.812 362.007 529.688 362.007Z" fill="#F9CBC7" fill-rule="evenodd"/><path d="M528.768 366C528.643 366 528.5 366.087 528.435 366.26 528.301 366.417 528.171 366.417 528.171 366.575 528.171 366.883 528.005 367.035 528.005 367.388 528.005 367.545 528.005 367.696 528.171 367.854 528.25 367.957 528.338 368 528.426 368 528.634 368 528.833 367.762 528.833 367.545 528.833 367.23 529 367.035 529 366.726L529 366.26C529 366.087 528.889 366 528.768 366Z" fill="#F9CBC7" fill-rule="evenodd"/><path d="M529.35 275C529.142 275 528.929 275.065 528.753 275.189 527.231 276.538 524.747 278.082 523.36 279.855 522.661 280.833 522 282.181 522.398 283.537 522.264 283.726 522.264 283.908 522.264 284.143 522.532 287.643 523.226 290.536 525.71 292.309 526.801 293.051 528.193 293.051 529.451 293.475 531.371 293.847 533.156 294.407 535.076 294.824 535.478 294.922 535.932 294.993 536.38 294.993 537.629 294.993 538.855 294.433 538.952 292.309 538.952 292.341 538.966 292.361 538.998 292.361 539.276 292.361 540.737 290.888 540.737 290.718 540.871 290.347 541.038 290.158 541.038 289.741L541.038 288.809 541.172 288.574C541.995 287.036 541.565 285.681 540.737 284.332 540.626 284.156 540.543 284.11 540.487 284.11 540.437 284.11 540.409 284.15 540.4 284.15 540.386 284.15 540.418 284.052 540.474 283.537 540.608 282.977 540.474 282.37 540.21 281.999 538.952 279.477 534.414 279.477 532.463 279.477 532.236 279.477 531.339 279.855 530.7 279.855 530.215 279.855 529.882 279.64 530.113 278.871 530.409 277.704 530.543 277.144 530.279 275.749 530.168 275.248 529.761 275 529.35 275Z" fill="#FBE4AF" fill-rule="evenodd"/><path d="M499.058 252.006C498.527 252.006 498.231 252.778 498.397 253.371 496.743 255.655 495.916 259.265 495.089 262.097 493.832 265.93 493.005 270.268 493.005 274.465 493.005 282.093 496.577 289.307 501.835 291.769 503.836 292.738 505.925 293 508.028 293 508.809 293 509.59 292.962 510.371 292.911 513.411 292.732 516.156 292.911 519.201 292.184 520.722 291.769 522.21 291.22 523.601 290.812 524.428 290.449 526.212 290.264 526.909 289.486 528 287.802 526.512 283.783 526.082 281.908 525.948 281.315 525.518 281.13 525.121 281.13 521.812 282.642 517.811 283.598 514.372 283.598 513.739 283.598 513.065 283.611 512.367 283.611 507.884 283.611 502.441 283.165 501.008 276.569 499.751 270.497 502.233 263.054 503.887 257.53 504.317 255.84 504.714 255.247 503.753 253.92 502.797 252.6 500.315 252.236 499.058 252.006Z" fill="#FBE4AF" fill-rule="evenodd"/><path d="M506.819 239C505.208 239 503.41 239.769 502.221 240.387 499.764 241.755 497.737 244.72 496.227 247.639 494.722 250.367 492.659 253.707 492.137 257.238 492.137 257.422 492.005 257.422 492.005 257.849L492.005 258.224C492.005 258.414 492.137 258.599 492.265 258.835 493.597 264.706 499.412 267.993 503.749 267.993 504.321 267.993 504.861 267.941 505.364 267.822 510.671 266.646 512.995 254.884 512.867 248.25 512.735 244.72 511.229 241.945 509.331 240.012 508.667 239.276 507.775 239 506.819 239Z" fill="#FCC557" fill-rule="evenodd"/><path d="M507.013 239.007C506.696 239.007 506.38 239.053 506.031 239.147 502.865 241.346 500.067 244.732 497.87 248.497 496.333 251.076 495.202 253.842 494.369 256.848 493.968 258.234 493.4 259.614 493.005 261.187 493.135 261.427 493.27 261.807 493.4 262 493.968 260.234 494.667 258.421 495.202 256.848 496.035 253.842 497.167 251.263 498.703 248.691 500.067 246.498 501.734 244.298 503.4 242.539 504.797 241.153 506.464 240.153 508 239.147 507.646 239.053 507.33 239.007 507.013 239.007Z" fill="#3B6E5E" fill-rule="evenodd"/><path d="M508.142 239C504.57 242.169 501.584 246.658 499.014 251.193 497.571 253.556 496.574 256.342 495.582 259.082 494.997 260.264 494.412 261.828 494 263.432 494.139 263.624 494.412 263.809 494.551 264 494.997 262.442 495.582 260.831 496.128 259.465 497.126 256.725 498.43 253.748 499.868 251.384 501.138 249.021 502.442 246.895 503.986 244.908 505.568 242.921 507.418 241.363 508.995 239.383 508.722 239.191 508.449 239.191 508.142 239Z" fill="#3B6E5E" fill-rule="evenodd"/><path d="M510.584 241.006 510.41 241.192C506.809 243.89 504.07 248.468 501.612 253.04 500.47 255.329 499.463 257.988 498.461 260.457 497.871 262.196 497.281 263.705 497.005 265.629 497.145 265.629 497.421 265.815 497.595 265.994 498.147 264.254 498.597 262.56 499.153 261.051 500.02 258.532 501.055 256.249 502.062 254.184 503.344 251.671 504.796 249.197 506.253 247.093 507.675 245.214 509.403 243.66 510.86 241.786L511 241.601C510.86 241.371 510.719 241.192 510.584 241.006Z" fill="#3B6E5E" fill-rule="evenodd"/><path d="M511.593 242C511.152 242.422 510.882 242.974 510.475 243.395 509.627 244.323 508.917 245.297 508.069 246.277 506.507 248.412 505.389 250.917 504.238 253.429 503.253 255.753 502.273 258.258 501.558 260.815 500.985 262.165 500.71 263.697 500.44 265.228 500.303 265.832 500.137 266.202 500 266.805 500.303 266.805 500.44 266.993 500.71 266.993 501.695 262.165 503.391 257.706 505.219 253.429 506.237 250.917 507.492 248.782 509.05 246.647 510.035 245.297 511.152 244.135 512 242.792 511.863 242.604 511.73 242.234 511.593 242Z" fill="#3B6E5E" fill-rule="evenodd"/><path d="M512.401 244C510.045 247.352 507.728 250.896 505.971 255.007 504.916 257.369 504.037 259.916 503.335 262.708 502.879 264.456 502.285 266.251 502 267.993L502.879 267.993C503.9 263.889 504.916 259.54 506.673 255.621 507.871 253.067 509.029 250.711 510.502 248.533 511.243 247.352 512.121 246.362 513 245.181 512.823 244.805 512.681 244.376 512.401 244Z" fill="#3B6E5E" fill-rule="evenodd"/><path d="M512.866 247C512.437 247.984 512.04 248.962 511.611 249.757 510.521 251.667 509.298 253.628 508.735 255.773 508.471 256.939 507.908 257.917 507.479 258.849 506.953 259.833 506.653 261.182 506.256 262.349 505.697 264.122 505.3 266.084 505 267.993L505.429 267.993C505.563 267.993 505.563 267.811 505.697 267.811 506.126 266.273 506.389 264.5 506.953 262.955 507.645 260.811 508.471 258.849 509.298 256.75 509.824 254.795 510.65 253.022 511.611 251.295 512.04 250.318 512.437 249.151 513 248.167 513 247.795 512.866 247.424 512.866 247Z" fill="#3B6E5E" fill-rule="evenodd"/><path d="M513 249.006C512.598 249.968 512.293 250.937 511.891 251.854 511.189 253.598 510.487 255.297 509.78 257.041 509.078 258.734 508.676 260.478 508.24 262.409 507.838 263.922 507.402 265.435 507 267 507.402 266.769 507.707 266.404 508.109 266.038 508.811 263.146 509.382 260.299 510.351 257.407 511.053 255.893 511.591 254.374 512.293 252.815 512.598 252.264 512.729 251.482 513 250.937L513 249.006Z" fill="#3B6E5E" fill-rule="evenodd"/><path d="M535.342 283C534.942 283 534.538 283.055 534.13 283.191 534.004 283.191 534.004 283.58 534.13 283.58 535.155 283.778 536.054 283.969 537.114 283.969 537.609 284.215 538.264 284.215 538.79 284.215 539.567 284.215 540.223 284.604 541 285 540.874 284.802 540.718 284.604 540.592 284.413 540.466 284.195 540.383 284.147 540.331 284.147 540.297 284.147 540.275 284.174 540.27 284.174 540.266 284.174 540.297 284.113 540.344 283.778 539.567 283.382 538.79 283.382 537.891 283.382 537.079 283.253 536.219 283 535.342 283Z" fill="#E8AD62" fill-rule="evenodd"/><path d="M535.589 287C535.103 287 534.612 287.089 534.126 287.328 534.004 287.328 534.004 287.905 534.126 287.905 536.21 288.66 538.916 287.905 540.748 290L540.748 289.237 540.874 288.917C540.874 288.917 540.874 288.66 540.996 288.66 540.344 287.905 539.567 287.905 538.79 287.648 537.721 287.426 536.658 287 535.589 287Z" fill="#E8AD62" fill-rule="evenodd"/><path d="M534.726 291.006C534.54 291.006 534.354 291.018 534.167 291.047 534.005 291.047 534.005 291.426 534.167 291.426 535 291.598 535.833 291.935 536.8 292.107 537.498 292.485 538.033 292.657 538.73 292.994L538.73 292.32 538.995 292.32C538.595 291.935 538.163 291.769 537.633 291.598 536.581 291.314 535.646 291.006 534.726 291.006Z" fill="#E8AD62" fill-rule="evenodd"/><path d="M527.439 246C527.3 246.207 527.162 246.207 526.856 246.207 526.856 246.407 526.717 246.407 526.717 246.407 526.583 246.614 526.445 246.614 526.445 246.871 526.306 246.871 526.172 247.277 526.172 247.484 526 247.684 526 247.891 526.172 248.148 526.172 248.148 526.306 248.348 526.445 248.348 526.445 248.348 526.445 248.555 526.583 248.555 526.717 248.555 526.856 248.348 527.028 247.891L527.162 247.684 527.162 248.348C527.162 248.761 527.3 249.168 527.439 249.425 527.439 249.625 527.573 250.039 527.711 250.239 527.883 250.445 528.017 250.902 528.156 251.109 528.873 252.179 529.729 252.793 530.584 253 530.857 253 530.995 252.586 530.995 252.386 530.995 252.179 530.995 251.98 530.857 251.723 530.857 251.516 530.723 251.516 530.584 251.516L530.278 251.516C530.006 251.309 529.867 251.309 529.595 251.109 529.423 250.902 529.15 250.702 529.011 250.239 528.739 250.039 528.567 249.625 528.428 249.425 528.294 249.168 528.294 248.961 528.156 248.555L528.156 247.891 528.156 247.684C528.156 247.484 528.156 247.484 528.294 247.484 528.294 247.277 528.428 247.07 528.428 247.07 528.428 246.871 528.428 246.614 528.294 246.407 528.294 246.207 528.156 246.207 528.017 246.207 527.883 246.207 527.711 246 527.573 246Z" fill="#083B4F" fill-rule="evenodd"/><path d="M535.586 225.007C535.458 225.007 535.33 225.196 535.33 225.196 534.919 227.428 534.539 229.653 534.256 232.074 534.128 233.284 534.004 234.495 534.004 235.705L534.004 237.491C534.004 237.93 534.004 238.512 534.128 238.945L534.128 239.141C534.128 239.33 534.256 239.526 534.256 239.526L534.667 239.526 534.795 239.33 534.919 239.141C535.17 238.701 535.458 238.512 535.709 238.512 535.837 238.316 535.961 238.316 536.248 238.316L536.628 238.316C536.752 238.316 536.752 238.316 536.911 238.512 537.039 238.512 537.163 238.701 537.163 238.701 537.291 238.945 537.419 239.141 537.542 239.33 537.701 239.526 537.701 239.722 537.83 240.155 537.83 240.351 537.953 240.737 537.953 241.122L537.953 242.576C537.83 242.962 537.83 243.347 537.701 243.787 537.542 244.172 537.419 244.368 537.291 244.558 537.163 244.754 537.039 244.997 536.911 245.187 536.752 245.383 536.628 245.579 536.372 245.579 536.12 245.768 535.837 245.768 535.709 245.768L534.795 245.768C534.539 245.768 534.384 245.964 534.256 245.964 534.128 246.208 534.004 246.593 534.004 246.789 534.004 247.418 534.256 248 534.667 248L535.837 248C536.12 247.804 536.5 247.608 536.752 247.608 537.291 247.175 537.701 246.789 538.081 245.964 538.492 245.383 538.744 244.754 538.872 243.983 539 243.158 539 242.333 539 241.562 539 240.737 538.872 240.155 538.62 239.33 538.492 238.701 538.209 238.12 537.83 237.734 537.419 237.301 537.039 237.105 536.628 237.105L536.5 237.105C536.12 237.105 535.586 237.301 535.047 237.734 534.919 237.93 534.795 237.93 534.667 238.12L534.539 237.734 534.539 237.301C534.539 235.705 534.539 233.866 534.795 231.445 535.047 229.653 535.458 227.617 535.709 225.392 535.837 225.196 535.709 225.007 535.586 225.007Z" fill="#083B4F" fill-rule="evenodd"/><path d="M525.33 213C523.21 213 523.135 215.433 523.135 215.433 523.005 217.832 524.942 219.656 528.285 221.861 529.49 222.631 530.564 222.993 531.432 222.993 532.562 222.993 533.337 222.377 533.566 221.237 534 219.22 533.295 216.82 528.285 214.039 527.011 213.281 526.049 213 525.33 213Z" fill="#8F3956" fill-rule="evenodd"/><path d="M549.039 230C548.493 230 548.098 230.347 547.781 230.879 547.004 232.252 547.655 234.922 549.86 237.765 551.873 240.46 553.487 242 554.72 242 555.067 242 555.383 241.878 555.67 241.628 555.67 241.628 558 239.696 554.116 234.55 551.595 231.181 550.059 230 549.039 230Z" fill="#8F3956" fill-rule="evenodd"/><path d="M542.533 242.006C542.533 242.006 542.399 242.364 542.269 242.948 542.269 243.13 542.134 243.488 542.134 243.897 542 244.255 542 244.613 542 245.197 542 245.555 542 246.139 542.134 246.679 542.134 247.263 542.269 247.803 542.533 248.387 542.7 248.752 542.83 248.927 542.964 249.11 543.229 249.512 543.363 249.694 543.53 249.876 543.794 250.052 544.059 250.234 544.193 250.46L544.49 250.636 544.759 250.636 544.759 250.818 544.889 250.818C545.19 250.818 545.32 250.994 545.589 250.994L546.98 250.994C547.244 250.818 547.513 250.818 547.675 250.818 547.944 250.636 548.074 250.46 548.209 250.46 548.505 250.234 548.64 250.052 548.774 249.876 548.904 249.694 549.173 249.694 549.335 249.512 549.47 249.336 549.604 249.11 549.604 248.927 549.869 248.569 550.165 248.211 550.3 247.985 550.434 247.627 550.564 247.445 550.699 247.263 550.828 246.679 550.995 246.503 550.995 246.503L550.995 246.321 550.828 246.321C550.828 246.321 550.699 246.679 550.434 247.087 550.3 247.445 549.869 247.985 549.335 248.569 549.335 248.752 549.173 248.752 549.039 248.927 548.904 249.11 548.64 249.11 548.505 249.336 548.209 249.512 547.81 249.694 547.513 249.876 547.244 250.052 547.114 250.052 546.98 250.052L546.284 250.052C546.15 250.052 546.02 249.876 545.719 249.876L545.19 249.694 544.624 249.336C544.49 249.11 544.36 248.927 544.193 248.752 544.059 248.569 543.929 248.387 543.794 248.211 543.794 247.985 543.66 247.803 543.53 247.627 543.363 247.263 543.229 246.861 543.099 246.321 543.099 246.139 542.964 245.963 542.964 245.737 542.964 245.555 542.964 245.197 542.83 245.015L542.83 243.897C542.7 243.488 542.7 243.306 542.7 242.948L542.7 242.188 542.7 242.006Z" fill="#083B4F" fill-rule="evenodd"/><path d="M522.063 225.006C522.063 225.006 521.915 225.419 521.767 225.794 521.624 226.161 521.475 226.394 521.475 226.761 521.291 227.129 521.148 227.548 521.148 228.103 521.148 228.284 521 228.471 521 228.703L521 229.626 521 230.406C521 230.781 521 231.006 521.148 231.381 521.148 231.561 521.291 231.935 521.291 232.161 521.475 232.535 521.624 232.716 521.624 233.09 521.767 233.316 522.063 233.69 522.206 233.871 522.39 234.058 522.538 234.471 522.83 234.658L522.978 234.845 523.121 234.845 523.453 235.213C523.596 235.394 523.893 235.394 524.22 235.626 524.368 235.813 524.659 235.813 524.951 236L525.717 236C526.341 236 526.78 235.813 527.256 235.626 527.695 235.394 528.022 235.026 528.319 234.845 528.61 234.471 528.937 234.245 529.085 233.871 529.376 233.69 529.525 233.316 529.709 233.09 530 232.716 530 232.348 530 232.348L530 232.348C530 232.348 529.709 232.535 529.376 232.716 529.233 232.903 528.937 233.09 528.794 233.09 528.462 233.316 528.17 233.503 527.879 233.69 527.695 233.871 527.547 233.871 527.404 233.871 527.256 234.058 526.964 234.058 526.78 234.058 526.489 234.245 526.049 234.245 525.717 234.471L525.135 234.471C524.951 234.245 524.659 234.245 524.511 234.245 524.368 234.245 524.22 234.058 523.893 234.058L523.305 233.69 522.83 233.09C522.681 232.903 522.538 232.716 522.39 232.535 522.206 232.348 522.063 232.161 522.063 231.748 521.915 231.561 521.767 231.381 521.767 231.006 521.624 230.594 521.624 230.039 521.624 229.439 521.475 229.252 521.475 229.071 521.475 228.884 521.475 228.471 521.624 228.284 521.624 228.103 521.624 227.129 521.767 226.574 521.915 225.974 522.063 225.419 522.206 225.239 522.206 225.239L522.063 225.006Z" fill="#083B4F" fill-rule="evenodd"/></g></svg>