<svg viewBox="0 0 480 480" fill="none" xmlns="http://www.w3.org/2000/svg">
  <path d="M360.76 167.67C364.47 165.46 364.3 159.81 362.06 156.11C359.82 152.42 356.18 149.78 353.74 146.21C350.13 140.94 349.52 134.26 348.04 128.04C344.77 114.34 336.9 102.17 327.9 91.34C322.28 84.57 293.01 50.73 275.5 37.61C258.01 24.5 235.71 22.63 221.44 24.75C214.37 25.8 207.66 28.54 201.12 31.42C177.6 41.77 152.52 55.03 133.06 71.8C122.62 80.8 113.06 94.67 109.26 107.92C104.52 124.42 107.5 142.1 111.61 158.77C117.73 183.6 126.31 207.83 137.18 230.97C139.34 235.56 141.59 240.12 144.29 244.41C149.47 252.66 156.55 260.69 156.62 270.43L157 273.97C156.81 274 156.63 273.99 156.44 274.03C148.07 275.72 142.12 280.61 138.67 288.54C136.35 293.87 135.32 299.86 136.3 305.6C137.28 311.34 140.38 316.78 145.11 320.06C150.05 323.49 156.37 324.19 162.29 323.03L162.65 326.4C167.81 348.71 162.93 374.67 154.86 396.1C151.67 404.58 147.3 414.78 145.43 423.65C145.43 428.42 147.73 430.13 149.99 431.45C190 455 235.23 470.48 281.45 474.79C288.71 475.47 296.56 474.41 303.58 472.45C302.2 461.25 304.16 444.36 305.95 433.22C305.67 422.69 376.11 292.79 367.33 307.25C367.33 307.25 351.81 294.17 357.91 289.42C378.21 273.59 370.93 249.49 370.93 249.49C370.93 249.49 380.96 245.91 384.98 219.12C389.02 192.34 360.76 167.67 360.76 167.67Z" fill="#FEBF10"/>
  <path d="M254.1 379.76C274.08 386.78 294.43 393.87 315.59 394.7C332.92 395.38 353.56 394.45 370.31 389.98C377.24 388.13 384.18 386.1 390.5 382.72C395.63 379.98 400.42 376.2 403.08 371.03C405.74 365.86 405.86 359.12 402.28 354.54C399.26 350.68 394.29 348.96 389.5 347.89C387.97 347.55 386.09 346.9 385.96 345.34C385.91 344.69 386.2 344.08 386.44 343.48C389.49 336.06 386.24 327.59 382.19 320.66C377.07 311.9 367.2 304.41 359.71 297.57C355.81 294.01 351.46 290.67 346.34 289.38C340.52 287.91 334.41 289.24 328.43 289.81C318.92 290.72 309.13 290.39 300.03 287.48C279.6 287.1 259.23 293.75 241.24 303.44C236.78 305.84 232.43 308.49 228.62 311.82C222.87 316.85 218.55 323.27 214.47 329.72C211.66 334.16 208.91 338.7 207.25 343.69C205.55 348.79 205.02 354.19 204.51 359.54C202.93 376.08 201.83 389.77 211.24 403.47C219.08 414.88 232.66 420.72 245.71 425.36C258.07 429.75 270.94 433.63 284.04 433.07C297.14 432.51 310.57 431.18 317.48 420.03C318.66 418.13 319.78 415.96 321.84 415.08C323.34 414.44 325.04 414.63 326.67 414.62C336.32 414.61 345.34 406.66 346.55 397.09" fill="#A37B57"/>
  <path d="M384.54 208.51C383.3 201.52 380.53 194.89 377.6 188.43C376.24 185.42 372.5 181.87 370.54 179.21C368.01 175.76 364.64 173 361.01 170.74C349.65 163.67 335.39 161.43 322.42 164.69C309.59 167.91 298.23 176.47 291.52 187.87C282.8 175.29 269.41 168.16 254.62 167.58C241.49 167.07 228.25 168.02 217.72 176.39C207.19 184.76 200.37 198.22 199.57 212.19C199.08 220.75 200.73 229.27 202.37 237.67C203.21 241.96 204.07 246.32 205.93 250.23C210.6 260.04 220.79 265.46 230.81 268.16C236.83 269.79 243.02 270.68 249.23 270.81C253.18 270.9 257.14 270.67 261.02 269.89C273.02 267.48 283.85 259.58 290.81 248.89C297.77 238.2 295.28 236.95 298.7 233.06C305.93 240.96 313.02 246.36 340.74 245.33C368.46 244.3 370.95 249.51 370.95 249.51C383.93 239.02 386.98 222.23 384.54 208.51Z" fill="#D6E5E5"/>
  <path d="M241.16 230.3C238.12 230.3 235.19 229.2 233.08 227.15C229.22 223.42 228.93 217.05 232.43 213.24C232.7 212.94 233 212.65 233.34 212.36C234.16 211.27 235.4 210.48 236.86 210.27C239.09 209.97 241.88 209.56 244.84 210.33C249.08 211.43 252.25 214.83 252.73 218.78C253.29 223.42 250.12 227.97 245.2 229.62C243.88 230.08 242.51 230.3 241.16 230.3Z" fill="#010101"/>
  <path d="M360.51 219.67C358.04 219.67 355.68 218.75 353.89 217.04C350.73 214.04 349.79 209.22 351.58 205.33C352.64 203.03 354.63 201.27 357.01 200.52C358.66 199.98 360.41 199.99 362.01 200.51C364.99 200.8 367.6 202.74 369 205.72C370.47 208.82 370.31 212.48 368.6 215.24C367.12 217.63 364.67 219.2 361.85 219.59C361.41 219.64 360.96 219.67 360.51 219.67ZM357.92 211.67C357.93 211.67 357.93 211.68 357.93 211.68C357.93 211.68 357.93 211.67 357.92 211.67Z" fill="#010101"/>
  <path d="M154.43 306.79C153.76 306.79 153.07 306.65 152.42 306.37C149.89 305.26 148.74 302.31 149.85 299.78C150.94 297.31 153.48 291.53 159.32 290.41C162.1 289.87 164.57 290.66 166.37 291.24C167.2 291.51 168.07 291.79 168.54 291.79C171.3 291.79 173.54 294.03 173.54 296.79C173.54 299.55 171.3 301.79 168.54 301.79C166.5 301.79 164.73 301.22 163.31 300.76C162.61 300.54 161.56 300.17 161.21 300.23C161.03 300.3 160.33 300.79 159.01 303.79C158.18 305.67 156.36 306.79 154.43 306.79Z" fill="#010101"/>
  <path d="M406.22 351.46C402.52 346.72 396.88 344.59 391.8 343.27C393.91 336.09 392.16 327.84 386.51 318.14C382.05 310.49 374.55 303.95 367.93 298.17C366.26 296.71 364.62 295.28 363.1 293.88C362.66 293.47 362.13 293.04 361.64 292.62C366.76 289.82 372 285.94 374.08 282.36C377.31 276.83 378.43 270.74 379.04 266.05C379.64 261.47 379.82 257.64 377.52 253.54C389.08 241.33 392 221.81 389.47 207.63C388.07 199.83 384.97 192.56 382.17 186.36C380.98 183.74 378.79 181.2 376.86 178.98C376.01 178 375.21 177.09 374.58 176.24C372.56 173.5 369.78 171.02 366.64 168.7C367.35 167.63 367.95 166.46 368.28 165.14C369.22 161.4 368.49 157.05 366.36 153.53C364.88 151.08 362.97 149.08 361.28 147.32C360.08 146.07 358.87 144.83 357.88 143.39C355.66 140.15 354.8 135.87 353.88 131.35C353.58 129.85 353.27 128.35 352.92 126.88C349.9 114.19 343.17 101.89 331.77 88.1501C324.96 79.9601 295.97 46.6901 278.53 33.6101C267.25 25.1501 254.03 21.0001 241.82 19.6001C229.94 1.95009 205.35 -2.45991 187.36 2.67009C178.04 5.33009 170.42 10.5201 164.85 17.2901C164.02 17.1801 163.22 16.9201 162.39 16.8601C151.4 15.9501 139.87 19.0701 130.25 25.6101C125.68 28.7401 122.28 32.1101 119.87 35.9001C117.54 39.5001 115.9 43.9001 114.83 49.3301C112.69 60.2801 113.64 71.6001 117.12 82.0801C111.41 89.8301 106.81 98.3301 104.46 106.54C99.2998 124.51 102.72 143.63 106.75 159.96C112.92 185.06 121.64 209.67 132.65 233.1C133.91 235.79 135.31 238.57 136.8 241.36C130.46 235.1 124.43 228.81 119.44 222.88C118.08 221.26 115.86 220.68 113.9 221.4C111.92 222.12 110.61 224 110.61 226.1C110.61 231.9 110.87 237.47 111.13 242.94C111.61 253.35 112.07 263.19 110.66 273.49C110.28 276.22 112.2 278.74 114.94 279.12C115.16 279.16 115.4 279.17 115.62 279.17C118.08 279.17 120.22 277.35 120.56 274.84C122.09 263.65 121.61 253.37 121.11 242.48C121.07 241.51 121.02 240.55 120.98 239.57C130.5 249.6 141.5 259.82 151.36 268.87C151.42 269.38 151.59 269.88 151.59 270.39C143.69 273.06 137.6 278.47 134.07 286.57C131.2 293.18 130.27 300.07 131.36 306.46C132.61 313.8 136.58 320.27 142.25 324.19C146.51 327.14 151.79 328.66 157.32 328.66C157.88 328.66 158.46 328.56 159.02 328.53C163.77 350.72 156.89 376.5 150.18 394.35L148.11 399.73C145.29 406.98 142.09 415.19 140.53 422.63C140.46 422.96 140.42 423.31 140.42 423.66C140.42 431.64 145.34 434.54 147.44 435.77C189.12 460.31 235.29 475.53 280.98 479.78C282.69 479.93 284.38 480 286.03 480C293.42 480 300.21 478.59 304.95 477.27C307.33 476.61 308.87 474.3 308.56 471.85C307.1 459.97 309.71 441.43 310.9 434.02C310.98 433.53 310.9 433.07 310.84 432.61C315.21 430.27 319.1 426.93 322.16 422C322.63 421.22 323.42 419.91 323.78 419.71C324.05 419.59 325 419.61 325.66 419.64C325.69 419.64 326.64 419.65 326.68 419.65C338.57 419.64 349.5 410.23 351.4 398.52C358.17 397.74 365.06 396.56 371.6 394.82C378.55 392.96 385.94 390.85 392.87 387.13C399.79 383.43 404.73 378.77 407.53 373.31C411.26 366.04 410.74 357.26 406.22 351.46ZM373.05 190.48C375.6 196.13 378.43 202.72 379.62 209.39C381.74 221.32 379.13 237.1 370.49 246.47C364.08 242.64 354.64 240.6 349.89 240.54C344.17 240.47 338.59 240.5 333.04 240.54C327.44 240.58 321.83 240.61 316.03 240.54C313.69 240.51 311.26 240.47 309.57 239.69L307.92 238.97C306.71 238.44 303.72 237.16 302.46 236.25C302.41 236.06 302.23 235.93 302.16 235.75C304.49 228.09 305.64 219.93 305.15 211.61C304.91 207.52 304.35 203.95 303.44 200.7C302.27 196.58 300.3 192.45 297.52 187.89C303.42 178.79 312.32 172.39 323.64 169.54C335.28 166.62 348.24 168.67 358.38 174.99C361.89 177.17 364.62 179.58 366.52 182.17C367.27 183.2 368.26 184.34 369.29 185.53C370.69 187.15 372.46 189.18 373.05 190.48ZM288.47 192.14C291.12 196.32 292.82 199.9 293.81 203.41C294.52 205.94 294.97 208.81 295.17 212.18C295.89 224.51 292.86 236.57 286.62 246.15C280.19 256.01 270.51 262.87 260.03 264.98C256.85 265.62 253.34 265.87 249.34 265.8C243.53 265.67 237.74 264.83 232.12 263.32C224.58 261.28 214.7 256.98 210.45 248.06C208.86 244.74 208.1 240.84 207.3 236.7C205.74 228.71 204.13 220.45 204.58 212.46C205.3 199.83 211.39 187.81 220.86 180.29C228.93 173.86 238.96 172.45 249.02 172.45C250.84 172.45 252.64 172.49 254.45 172.57C268.5 173.11 280.9 180.24 288.47 192.14ZM190.09 12.2701C202.25 8.84009 217.85 10.8701 227.98 19.1301C225.43 19.2601 222.97 19.4701 220.7 19.8101C212.93 20.9601 205.77 23.9201 199.11 26.8501C196.38 28.0501 193.77 29.2601 191.16 30.4701C186.88 26.0001 181.62 22.5501 175.8 20.2101C179.7 16.6301 184.51 13.8601 190.09 12.2701ZM169.34 28.4001C173.86 29.8001 177.98 32.0901 181.5 35.0901C175.73 37.9501 170.27 40.8301 165.1 43.7501C165.35 38.1401 166.8 32.9501 169.34 28.4001ZM124.66 51.2401C125.47 47.0701 126.65 43.8201 128.28 41.2701C129.96 38.6201 132.45 36.2001 135.87 33.8601C142.82 29.1301 150.95 26.8001 158.92 26.8401C156.25 32.8101 154.79 39.4501 154.97 46.5801C155 47.5401 155.15 48.6001 155.24 49.6001C145.66 55.5601 137.17 61.6701 129.81 68.0201C128.13 69.4601 126.62 71.1801 125.03 72.8001C123.51 65.6801 123.27 58.3001 124.66 51.2401ZM147.97 315.96C144.54 313.59 142.03 309.41 141.24 304.76C140.47 300.28 141.16 295.37 143.25 290.55C146.06 284.09 150.7 280.3 157.43 278.94C165.14 277.38 170.9 278.89 175.08 283.55C179.62 288.61 181.09 296.57 178.74 303.36C176.45 310.01 170.67 315.49 163.66 317.68C157.93 319.45 152.09 318.81 147.97 315.96ZM298.25 468.62C292.51 469.85 286.84 470.24 281.91 469.81C237.69 465.69 192.95 450.93 152.53 427.14C151.11 426.31 150.53 425.96 150.44 424.13C151.89 417.61 154.82 410.04 157.43 403.34L159.54 397.85C166.75 378.7 174.11 350.85 168.77 326.25C177.75 322.72 185.12 315.47 188.18 306.61C191.73 296.33 189.51 284.65 182.51 276.85C177.89 271.72 171.83 269.01 164.81 268.55L168.07 229.78C173.59 241.04 179.95 251.9 187.07 262.23C188.64 264.52 191.76 265.07 194.02 263.5C196.29 261.94 196.86 258.82 195.29 256.55C184.85 241.41 176.13 225.09 169.36 208.03C168.51 205.87 166.26 204.6 163.98 204.93C161.69 205.26 159.93 207.14 159.73 209.45L156.04 253.39C154.63 251.02 153.16 248.72 151.69 246.55C150.6 244.94 149.51 243.35 148.5 241.73C145.89 237.58 143.69 233.08 141.68 228.83C130.96 206 122.47 182.01 116.45 157.55C112.74 142.5 109.55 124.99 114.06 109.28C115.6 103.9 118.37 98.2301 121.8 92.8001C124.68 98.0801 128.2 103.01 132.48 107.31C133.46 108.29 134.75 108.77 136.02 108.77C137.29 108.77 138.58 108.28 139.56 107.31C141.51 105.36 141.51 102.19 139.57 100.23C134.87 95.5201 131.11 89.8401 128.43 83.6701C130.91 80.7301 133.54 77.9701 136.31 75.5801C142.39 70.3401 149.24 65.2601 156.93 60.2801C156.93 60.3001 156.94 60.3101 156.94 60.3301C158.81 68.2601 161.44 76.0501 164.78 83.4801C165.61 85.3401 167.44 86.4301 169.34 86.4301C170.02 86.4301 170.73 86.2901 171.39 85.9901C173.91 84.8601 175.03 81.9001 173.9 79.3801C170.82 72.5301 168.39 65.3501 166.66 58.0401C166.37 56.8201 166.22 55.8001 166.01 54.7001C176.87 48.3201 189.16 42.1101 203.11 35.9801C209.15 33.3201 215.61 30.6401 222.15 29.6601C236.07 27.6001 256.58 29.6501 272.49 41.5801C289.15 54.0701 317.38 86.5001 324.03 94.5001C334.42 107.01 340.49 118.03 343.15 129.17C343.47 130.53 343.76 131.91 344.04 133.3C345.11 138.61 346.23 144.1 349.59 149C350.87 150.88 352.44 152.54 354.02 154.2C355.48 155.72 356.84 157.16 357.76 158.67C358.49 159.87 358.81 161.56 358.53 162.68C358.4 163.2 358.23 163.3 358.17 163.33C358.04 163.41 357.97 163.53 357.85 163.62C346.44 158.28 333.47 156.7 321.17 159.79C308.78 162.91 298.49 169.92 291.24 179.5C281.9 169.21 269.06 163.08 254.79 162.53C241.68 162.05 226.69 162.79 214.58 172.42C202.91 181.69 195.42 196.42 194.54 211.85C194.01 221.09 195.75 229.98 197.43 238.59C198.32 243.14 199.24 247.86 201.38 252.32C207.26 264.67 219.9 270.35 229.46 272.93C235.86 274.66 242.46 275.62 249.08 275.76C249.65 275.77 250.21 275.78 250.77 275.78C254.84 275.78 258.51 275.44 261.96 274.74C275.06 272.11 287.08 263.66 294.96 251.57C296.23 249.62 297.24 247.48 298.28 245.37C300.16 246.48 302.21 247.36 303.94 248.11L305.31 248.71C308.95 250.4 312.78 250.46 315.86 250.5C321.76 250.58 327.42 250.54 333.08 250.5C338.57 250.46 344.05 250.42 349.73 250.5C354.84 250.57 364.62 253.55 367.26 256.39C369.55 258.85 369.74 259.71 369.09 264.74C368.37 270.32 367.23 274.18 365.41 277.31C363.99 279.75 356.48 284.56 351.97 286.11C350.57 285.47 349.1 284.91 347.54 284.52C341.99 283.1 336.7 283.78 331.57 284.4L327.92 284.81C317.69 285.82 309.07 285.1 301.51 282.7C301.05 282.55 300.57 282.48 300.09 282.47C280.67 282.07 259.63 287.83 238.83 299.02C234.9 301.14 229.83 304.08 225.29 308.04C218.96 313.57 214.36 320.46 210.2 327.03C207.3 331.61 204.31 336.55 202.46 342.09C200.57 347.79 200 353.77 199.49 359.05C197.94 375.4 196.47 390.84 207.08 406.28C215.59 418.67 229.84 425.03 243.99 430.04C255.84 434.26 268.52 438.1 281.49 438.1C282.4 438.1 283.3 438.08 284.2 438.05C289.66 437.81 295.18 437.43 300.38 436.3C299.26 444.44 297.69 457.8 298.25 468.62ZM398.62 368.74C396.76 372.36 393.24 375.59 388.14 378.32C382.14 381.51 375.41 383.45 369.01 385.15C350.1 390.21 327.55 390.21 315.78 389.71C295.17 388.9 275.13 381.85 255.75 375.04C255.27 374.87 254.79 374.85 254.3 374.83C255.68 373.25 257.13 371.89 258.32 371.05C263.54 367.38 258.55 358.7 253.27 362.42C247.96 366.16 243.86 370.97 241.56 377.11C239.66 382.18 237.98 389.55 243.54 392.82C248.59 395.79 253.12 388.97 249.76 385.24C249.65 384.32 249.67 383.37 249.92 382.38C250.5 383.3 251.32 384.09 252.43 384.48C272.51 391.54 293.27 398.84 315.39 399.71C321.61 399.94 330.74 400.08 340.86 399.45C338.71 405.21 332.72 409.65 325.88 409.65C325.87 409.65 325.87 409.65 325.87 409.65C324.24 409.59 322.09 409.58 319.86 410.51C316.57 411.93 314.86 414.75 313.23 417.42C307.68 426.37 296.15 427.58 283.82 428.09C272.29 428.61 260.92 425.47 247.37 420.66C234.82 416.21 222.25 410.7 215.36 400.66C206.82 388.21 208.06 375.16 209.49 360.03C209.96 355.06 210.45 349.91 211.98 345.3C213.48 340.83 216.01 336.65 218.7 332.42C222.46 326.46 226.59 320.25 231.92 315.6C235.7 312.29 240.15 309.72 243.61 307.86C262.32 297.78 281.23 292.48 298.4 292.48C298.67 292.48 298.96 292.49 299.24 292.49C307.93 295.14 317.66 295.88 328.91 294.8C330.21 294.67 331.51 294.52 332.82 294.35C337.24 293.81 341.42 293.31 345.12 294.23C349.45 295.32 353.38 298.57 356.34 301.26C357.92 302.71 359.61 304.19 361.35 305.69C367.68 311.23 374.23 316.94 377.87 323.17C382.34 330.85 383.67 337.04 381.73 341.76C381.39 342.59 380.81 343.99 380.98 345.72C381.15 347.78 382.34 351.42 388.41 352.75C393.55 353.89 396.61 355.39 398.33 357.59C400.47 360.35 400.59 364.92 398.62 368.74Z" fill="#010101"/>
</svg>
