<svg viewBox="0 0 77 108" fill="none" xmlns="http://www.w3.org/2000/svg">
  <path d="M51.695 82.79C54.645 80.97 55.8701 76.755 55.2151 74.58L54.43 68.29C66.065 62.445 74.655 50.66 74.655 36.965C74.655 17.485 57.93 1.63501 38.05 1.63501C18.17 1.63501 2.05505 17.43 2.05505 36.91C2.05505 50.605 10.035 62.45 21.67 68.295L20.885 74.585C20.885 78.245 23.3201 81.37 26.6751 82.49" fill="#FBCD59"/>
  <path d="M51.695 84.415C51.155 84.415 50.62 84.14 50.315 83.64C49.84 82.88 50.0801 81.875 50.8401 81.405C53.1201 80 54.1201 76.585 53.6551 75.05L52.815 68.495C52.725 67.81 53.0851 67.15 53.7001 66.84C65.4401 60.94 73.0251 49.215 73.0251 36.965C73.0251 18.38 57.33 3.26 38.045 3.26C19.095 3.26 3.68004 18.355 3.68004 36.905C3.68004 49.57 10.855 61.04 22.395 66.835C23.01 67.145 23.3651 67.805 23.2801 68.49L22.495 74.78C22.51 77.45 24.39 80.005 27.185 80.94C28.04 81.225 28.5 82.145 28.215 82.995C27.925 83.845 27.0101 84.315 26.1601 84.02C22.0301 82.645 19.2551 78.845 19.2551 74.575L19.92 69.205C7.86505 62.695 0.430054 50.425 0.430054 36.9C0.430054 16.555 17.305 0 38.045 0C59.125 0 76.275 16.58 76.275 36.96C76.275 50.065 68.425 62.6 56.175 69.205L56.8201 74.37C57.6601 77.075 56.0451 82.005 52.5451 84.165C52.2801 84.335 51.985 84.415 51.695 84.415Z" fill="#595353"/>
  <path d="M33.75 79.385C33.72 79.385 33.69 79.385 33.66 79.38C33.11 79.33 32.705 78.845 32.75 78.295C33.495 70.05 32.915 63.43 30.875 57.7C28.605 58.235 26.24 57.88 24.465 56.615C22.805 55.44 21.795 53.83 21.695 52.195C21.61 50.82 22.165 49.555 23.29 48.535C23.865 48.01 24.485 47.69 25.135 47.585C26.65 47.335 28.205 48.255 29.33 50.025C30.38 51.675 31.28 53.38 32.035 55.165C32.33 55.02 32.61 54.85 32.885 54.66C33.31 54.365 33.695 54.04 34.045 53.695C32.835 52.095 32.625 49.905 33.415 47.19C33.79 45.925 34.985 44.715 36.2 44.37C37.035 44.13 37.83 44.295 38.44 44.835C39.3 45.6 39.52 46.81 39.09 48.435C38.7 49.94 38.01 51.795 36.83 53.49C38.32 54.295 40.295 54.25 41.225 54.175C42.645 54.06 44.01 53.44 45.08 52.445C43.175 51.09 42.32 49.285 42.71 47.335C42.98 45.995 44.145 44.625 45.485 44.08C46.39 43.71 47.295 43.76 48.015 44.245C48.99 44.9 49.105 46.005 49.19 46.805C49.37 48.515 48.985 50.27 48.115 51.805C48.52 51.965 48.94 52.1 49.36 52.21C50.695 49.765 52.075 48.005 53.385 47.495C54.55 47.04 55.72 47.415 56.555 48.545C58.32 50.905 57.64 52.405 57.08 53.095C55.89 54.545 53.11 54.89 50.36 54.465C46.945 61.585 43.64 73.94 44.06 77.855C44.12 78.405 43.72 78.895 43.17 78.955C42.59 79.05 42.13 78.615 42.065 78.07C41.64 74.09 44.72 61.805 48.43 54.03C47.895 53.87 47.375 53.685 46.885 53.47C45.43 55.03 43.445 56.005 41.375 56.18C39.045 56.365 36.995 55.97 35.52 55.05C35.065 55.505 34.565 55.935 34 56.32C33.6 56.6 33.175 56.84 32.745 57.05C34.885 63.05 35.495 69.945 34.725 78.495C34.695 78.995 34.265 79.385 33.75 79.385ZM25.635 49.54C25.575 49.54 25.525 49.54 25.465 49.55C25.145 49.605 24.835 49.83 24.64 50.01C23.97 50.62 23.655 51.31 23.7 52.07C23.765 53.085 24.48 54.17 25.625 54.98C26.85 55.845 28.52 56.105 30.14 55.805C29.44 54.17 28.61 52.605 27.65 51.095C27.16 50.32 26.39 49.54 25.635 49.54ZM51.35 52.565C53.285 52.77 54.985 52.485 55.54 51.815C55.985 51.275 55.365 50.275 54.96 49.73C54.545 49.175 54.305 49.27 54.12 49.345C53.27 49.68 52.325 50.855 51.35 52.565ZM36.94 46.255C36.89 46.255 36.835 46.265 36.755 46.285C36.19 46.445 35.53 47.13 35.345 47.745C34.82 49.555 34.83 51 35.385 52.055C36.3 50.665 36.84 49.155 37.165 47.915C37.375 47.11 37.36 46.53 37.12 46.315C37.09 46.3 37.045 46.255 36.94 46.255ZM46.655 45.825C46.545 45.825 46.405 45.855 46.25 45.92C45.55 46.21 44.815 47.05 44.685 47.72C44.4 49.14 45.345 50.185 46.35 50.87C47.045 49.685 47.35 48.325 47.21 47.01C47.16 46.545 47.105 46.03 46.905 45.89C46.835 45.85 46.755 45.825 46.655 45.825Z" fill="#595353"/>
  <path d="M47.915 100.28H30.305C27.955 100.28 26.035 98.355 26.035 96.01C26.035 93.66 27.96 91.74 30.305 91.74H47.915C50.265 91.74 52.185 93.665 52.185 96.01C52.19 98.355 50.265 100.28 47.915 100.28Z" fill="#CBC9BC"/>
  <path d="M47.915 101.905H30.305C27.055 101.905 24.405 99.26 24.405 96.005C24.405 92.75 27.05 90.105 30.305 90.105H47.915C51.165 90.105 53.815 92.75 53.815 96.005C53.815 99.26 51.165 101.905 47.915 101.905ZM30.305 93.36C28.845 93.36 27.66 94.545 27.66 96.005C27.66 97.465 28.845 98.65 30.305 98.65H47.915C49.375 98.65 50.56 97.465 50.56 96.005C50.56 94.545 49.375 93.36 47.915 93.36H30.305Z" fill="#595353"/>
  <path d="M47.315 100.93C47.315 104.965 40.8801 105.99 38.9651 105.99C34.4501 105.99 30.795 103.645 30.795 100.755" fill="#E1E0D8"/>
  <path d="M38.9651 107.615C33.4701 107.615 29.165 104.6 29.165 100.75C29.165 99.85 29.895 99.125 30.79 99.125C31.685 99.125 32.415 99.855 32.415 100.75C32.415 102.46 35.1051 104.36 38.9651 104.36C40.3901 104.36 45.69 103.505 45.69 100.925C45.69 100.025 46.42 99.3 47.315 99.3C48.21 99.3 48.94 100.03 48.94 100.925C48.94 105.98 42.2201 107.615 38.9651 107.615ZM66.5401 37.835C66.1251 37.835 65.79 37.5 65.79 37.085C65.79 34.695 65.455 32.335 64.79 30.055C64.675 29.66 64.895 29.24 65.3 29.125C65.7 29.02 66.115 29.24 66.23 29.635C66.94 32.045 67.3001 34.555 67.3001 37.085C67.2901 37.5 66.9551 37.835 66.5401 37.835ZM63.695 26.075C63.42 26.075 63.1651 25.925 63.0251 25.67C59.3051 18.435 52.2351 13.33 44.1101 12.01C42.7201 11.785 41.2801 11.665 39.8351 11.665C39.4201 11.665 39.085 11.33 39.085 10.915C39.085 10.5 39.4201 10.165 39.8351 10.165C41.3601 10.165 42.88 10.285 44.355 10.53C52.945 11.925 60.425 17.325 64.365 24.98C64.55 25.35 64.4101 25.805 64.0401 25.99C63.9301 26.045 63.815 26.075 63.695 26.075Z" fill="#595353"/>
  <path d="M47.915 91.7349C47.915 91.7349 52.985 91.7349 52.985 87.4649C52.985 85.1149 51.115 83.1949 48.83 83.1949H28.015C25.73 83.1949 23.86 85.1199 23.86 87.4649C23.86 89.8149 25.73 91.7349 28.015 91.7349H47.83" fill="#E1E0D8"/>
  <path d="M47.915 93.3599C47.885 93.3599 47.855 93.3599 47.825 93.3599H28.01C24.82 93.3599 22.23 90.7149 22.23 87.4599C22.23 84.2049 24.825 81.5599 28.01 81.5599H48.825C52.015 81.5599 54.61 84.2049 54.61 87.4599C54.615 92.1299 50.23 93.3599 47.915 93.3599ZM28.015 84.8149C26.62 84.8149 25.485 85.9999 25.485 87.4599C25.485 88.9199 26.62 90.1049 28.015 90.1049H47.83C47.86 90.1049 47.885 90.1099 47.915 90.1049C48.5 90.0999 51.365 89.9399 51.365 87.4599C51.365 85.9999 50.225 84.8149 48.83 84.8149H28.015Z" fill="#595353"/>
</svg>
