<svg viewBox="0 0 113 112" fill="none" xmlns="http://www.w3.org/2000/svg">
  <path d="M102.6 9.63992C96.5351 3.57492 88.6451 1.53491 85.0751 5.10491L15.3801 74.7999C12.1501 78.0299 3.8301 102.35 1.3001 107.975C1.0451 108.54 1.1701 109.2 1.6101 109.64L2.3651 110.395C2.9451 110.975 3.82009 111.14 4.57009 110.805C10.8701 107.97 34.2651 100.035 37.4401 96.8599L107.135 27.1649C110.705 23.5899 108.665 15.7049 102.6 9.63992Z" fill="#FDFCEE"/>
  <path d="M95.755 38.5401L108.075 26.2201C111.65 22.6451 109.61 14.7601 103.54 8.69507C97.475 2.63007 89.5851 0.590059 86.015 4.16006L74.29 15.8851C81.48 23.3951 88.515 31.0801 95.755 38.5401Z" fill="#FCB9B9"/>
  <path d="M5.71492 96.7452C3.83492 101.695 2.21992 106.005 1.30492 108.035C1.02992 108.645 1.16492 109.35 1.63992 109.825L2.45491 110.64C3.08491 111.27 4.03991 111.435 4.84991 111.07C7.03991 110.085 11.1149 108.54 15.7549 106.78L5.71492 96.7452Z" fill="#4A5397"/>
  <path d="M70.7385 19.4406L92.7963 41.4992L36.4213 97.8723L14.3635 75.8137L70.7385 19.4406Z" fill="#F1BC19"/>
  <path d="M80.5396 9.63889L102.597 31.6975L92.7932 41.5013L70.7354 19.4427L80.5396 9.63889Z" fill="#7782AC"/>
  <path d="M4.98021 111.63C3.98521 111.63 3.00519 111.24 2.26019 110.495L1.50521 109.74C0.510208 108.74 0.240205 107.27 0.815206 105.985C1.58521 104.265 2.9002 100.8 4.4452 96.7198C9.1552 84.2798 12.9502 74.5748 15.2802 72.2398L84.9702 2.5498C89.3552 -1.8252 98.2202 0.154793 105.15 7.07979C112.08 14.0148 114.07 22.8748 109.685 27.2648L39.9902 96.9598C37.7352 99.2148 28.8902 102.68 16.6502 107.32C12.3002 108.97 8.5452 110.39 6.5652 111.285C6.0552 111.515 5.51521 111.63 4.98021 111.63ZM91.1152 3.99479C89.6402 3.99479 88.4252 4.40479 87.6302 5.20479L17.9352 74.8998C15.9852 76.8448 10.9552 90.1198 7.9502 98.0498C6.3702 102.22 5.0252 105.765 4.2352 107.52L4.9202 107.84C7.1102 106.93 10.9152 105.485 15.3202 103.815C22.8602 100.955 35.4752 96.1698 37.3352 94.3098L107.03 24.6148C109.79 21.8598 107.665 14.9148 102.495 9.7398C99.7952 7.0398 96.6602 5.11979 93.6552 4.34979C92.7552 4.11479 91.8952 3.99479 91.1152 3.99479Z" fill="#472B29"/>
  <path d="M93.3499 42.3198C92.9999 42.3198 92.6449 42.1848 92.3799 41.9148L70.3199 19.8548C69.7849 19.3198 69.7849 18.4498 70.3199 17.9098C70.8549 17.3698 71.7249 17.3748 72.2649 17.9098L94.3249 39.9698C94.8599 40.5048 94.8599 41.3748 94.3249 41.9148C94.0549 42.1848 93.6999 42.3198 93.3499 42.3198ZM36.1449 97.2148C35.7949 97.2148 35.4399 97.0798 35.1749 96.8098L14.7049 76.3398C14.1699 75.8048 14.1699 74.9348 14.7049 74.3948C15.2399 73.8548 16.1099 73.8598 16.6499 74.3948L37.1199 94.8648C37.6549 95.3998 37.6549 96.2698 37.1199 96.8098C36.8499 97.0748 36.4999 97.2148 36.1449 97.2148ZM15.1999 106.225C14.8499 106.225 14.4949 106.09 14.2299 105.82L6.6449 98.2348C6.1099 97.6998 6.1099 96.8298 6.6449 96.2898C7.1799 95.7498 8.0499 95.7548 8.5899 96.2898L16.1749 103.875C16.7099 104.41 16.7099 105.28 16.1749 105.82C15.9049 106.085 15.5499 106.225 15.1999 106.225ZM102.385 33.2948C102.035 33.2948 101.68 33.1598 101.415 32.8898L80.0649 11.5348C79.5299 10.9998 79.5299 10.1298 80.0649 9.58982C80.5999 9.04982 81.4699 9.05482 82.0099 9.58982L103.36 30.9448C103.895 31.4798 103.895 32.3498 103.36 32.8898C103.085 33.1548 102.735 33.2948 102.385 33.2948Z" fill="#472B29"/>
  <path d="M76.4298 24.01C76.3148 24.01 76.1948 23.99 76.0848 23.94C75.6398 23.75 75.4348 23.23 75.6248 22.79L80.3898 11.67C80.5798 11.225 81.1098 11.02 81.5398 11.21C81.9848 11.4 82.1898 11.92 81.9998 12.36L77.2348 23.48C77.0948 23.815 76.7648 24.01 76.4298 24.01ZM80.3548 27.745C80.2398 27.745 80.1198 27.725 80.0098 27.675C79.5648 27.485 79.3598 26.965 79.5498 26.525L84.3148 15.41C84.5048 14.96 85.0348 14.755 85.4648 14.95C85.9098 15.14 86.1148 15.66 85.9248 16.1L81.1598 27.215C81.0198 27.55 80.6948 27.745 80.3548 27.745ZM84.2848 31.485C84.1698 31.485 84.0498 31.465 83.9398 31.415C83.4948 31.225 83.2898 30.705 83.4798 30.265L88.2398 19.145C88.4298 18.695 88.9598 18.495 89.3898 18.685C89.8348 18.875 90.0398 19.395 89.8498 19.835L85.0898 30.955C84.9498 31.29 84.6248 31.485 84.2848 31.485ZM88.2148 35.225C88.0998 35.225 87.9798 35.205 87.8698 35.155C87.4248 34.965 87.2198 34.445 87.4098 34.005L92.1748 22.885C92.3648 22.435 92.8998 22.24 93.3248 22.425C93.7698 22.615 93.9748 23.135 93.7848 23.575L89.0198 34.695C88.8748 35.03 88.5498 35.225 88.2148 35.225ZM92.1398 38.965C92.0248 38.965 91.9048 38.945 91.7948 38.895C91.3498 38.705 91.1448 38.185 91.3348 37.745L96.0998 26.625C96.2898 26.175 96.8248 25.975 97.2498 26.165C97.6948 26.355 97.8998 26.875 97.7098 27.315L92.9448 38.435C92.8048 38.77 92.4748 38.965 92.1398 38.965Z" fill="#472B29"/>
</svg>
