<svg viewBox="0 0 290 290" fill="none" xmlns="http://www.w3.org/2000/svg">
  <g clip-path="url(#clip0_78_165)">
  <path d="M156.308 269.601C171.478 270.586 186.739 270.776 201.898 269.484C216.585 268.232 231.535 265.756 245.212 260.065C248.509 258.692 251.707 257.112 254.829 255.38C257.892 253.681 260.934 251.877 263.708 249.731C269.033 245.609 273.519 240.372 276.546 234.34C279.744 227.97 281.307 220.905 281.658 213.813C281.994 207.023 281.139 200.229 277.554 194.324C270.767 183.146 257.402 177.748 245.385 174.333C231.136 170.283 216.29 168.46 201.573 167.115C189.709 166.032 177.81 165.355 165.913 164.765C160.652 164.503 155.392 164.248 150.131 163.994C145.955 163.793 141.773 163.819 137.594 163.719C130.048 163.538 122.504 163.227 114.969 162.786C99.9041 161.902 84.8065 160.591 69.9151 158.093C63.7526 157.06 57.6501 155.891 51.6937 153.968C44.7728 151.733 38.0371 148.848 31.6826 145.308C19.737 138.655 8.35281 129.191 3.09088 116.219C0.411776 109.615 -0.590766 102.154 0.340408 95.0812C1.22627 88.3568 4.18688 82.1116 8.66037 77.0331C14.5499 70.3456 22.5328 66.0539 30.6931 62.7818C44.2047 57.363 58.9738 54.9778 73.4489 54.1809C82.5697 53.6785 91.7739 53.7725 100.881 54.5394C113.3 55.5861 125.679 57.0526 138.057 58.5037C153.179 60.2771 168.299 62.2312 183.471 63.5453C191.012 64.1989 198.51 65.2145 206.038 66.0018C213.563 66.7885 221.107 67.4116 228.667 67.7327C236.16 68.0511 243.686 68.1202 251.172 67.5764C258.414 67.0502 265.784 65.9616 272.607 63.3867C278.455 61.1794 283.988 57.6456 287.337 52.2341C284.125 58.7478 277.955 63.0287 271.463 65.8704C264.586 68.8791 257.096 70.46 249.695 71.5129C234.361 73.6953 218.761 73.65 203.313 73.1385C199.429 73.01 195.544 72.8559 191.663 72.6424C187.783 72.4288 183.921 71.9859 180.062 71.5498C177.135 71.219 174.207 70.912 171.28 70.5937C159.067 69.2666 146.869 67.8018 134.668 66.3762C122.764 64.9851 110.845 63.4773 98.8885 62.6124C87.7994 61.8104 76.5902 61.8761 65.5328 63.0497C57.9882 63.8506 50.4352 65.1663 43.1331 67.2468C37.5879 68.8265 32.0553 70.7902 26.9395 73.4778C19.7002 77.2795 12.9838 82.5715 9.93932 90.3941C7.39671 96.9276 7.79943 104.681 10.0062 111.249C12.1234 117.552 16.1998 123.04 20.982 127.587C25.9794 132.339 31.8321 136.166 37.93 139.35C44.4873 142.774 51.4513 145.514 58.5903 147.451C61.2961 148.184 64.0465 148.667 66.7942 149.204C70.6101 149.948 74.4622 150.534 78.3121 151.077C86.0135 152.162 93.7557 152.958 101.505 153.602C116.213 154.827 130.979 155.494 145.737 155.645C150.756 155.696 155.775 156.038 160.787 156.287C171.228 156.805 181.669 157.332 192.096 158.099C207.569 159.235 223.12 160.775 238.296 164.099C245.48 165.672 252.623 167.657 259.426 170.476C266.056 173.224 272.479 176.797 277.745 181.727C282.872 186.528 286.706 192.56 288.548 199.364C290.55 206.758 290.269 214.77 288.994 222.267C287.788 229.357 285.285 236.281 281.425 242.361C277.604 248.38 272.575 253.516 266.845 257.739C254.938 266.516 239.973 270.27 225.511 272.169C210.061 274.196 194.308 273.997 178.815 272.552C171.279 271.848 163.767 270.884 156.308 269.601Z" fill="#EE3E54"/>
  <path d="M138.773 266.973C99.5659 253.762 85.0484 226.486 84.1789 224.795C84.1585 224.761 84.1517 224.733 84.1376 224.72V224.713L107.964 214.186L144.317 198.128C144.317 198.128 155.939 227.869 138.773 266.973Z" fill="#F2C07E"/>
  <path d="M121.825 228.621C119.697 229.559 117.567 230.346 115.459 230.989C114.987 231.14 114.515 231.277 114.043 231.407C101.352 234.918 89.7303 233.091 85.1786 226.561C85.1718 226.561 85.1718 226.554 85.1718 226.547C84.768 225.979 84.4259 225.363 84.1381 224.719V224.713L7.55872 51.3766L31.3852 40.8494L67.7378 24.7849L144.317 198.128C148.519 207.629 138.444 221.284 121.825 228.621Z" fill="#EE3E54"/>
  <path d="M138.773 266.973C99.5659 253.762 85.0484 226.486 84.1789 224.795C84.1653 224.768 84.1517 224.747 84.1376 224.72V224.713L107.964 214.186L112.393 224.207C113.413 226.513 127.691 259.573 138.773 266.973Z" fill="#D6A86F"/>
  <path d="M115.459 230.989C114.987 231.14 114.515 231.277 114.043 231.407C101.352 234.918 89.7303 233.091 85.1786 226.561C85.1718 226.561 85.1718 226.554 85.1718 226.547C84.6105 225.616 84.2888 225.007 84.1795 224.795C84.1659 224.767 84.1523 224.746 84.1381 224.719V224.712L7.55872 51.3765L31.3852 40.8492L107.964 214.186L112.393 224.207C112.653 224.795 113.762 227.362 115.459 230.989Z" fill="#E02B4A"/>
  <path d="M67.7329 24.7853C63.536 15.2853 46.6623 13.5355 30.0444 20.877C13.4266 28.2185 3.35741 41.8712 7.55434 51.3712C11.7513 60.8711 28.625 62.6209 45.2428 55.2794C61.8607 47.9379 71.9298 34.2852 67.7329 24.7853Z" fill="#D6A86F"/>
  <path d="M27.0907 47.8733C25.072 47.8733 23.2232 46.6839 22.3974 44.8142C21.5161 42.8199 21.9913 40.4857 23.5823 38.9943C26.6002 36.1651 30.4936 33.6554 34.842 31.7341C39.1903 29.8134 43.6683 28.6251 47.7906 28.2989C49.9599 28.125 52.0098 29.3467 52.8911 31.3422C53.7724 33.3365 53.2972 35.6707 51.7062 37.162C48.6884 39.9912 44.7949 42.5015 40.4466 44.4222C36.0982 46.3435 31.6202 47.5312 27.4979 47.8575C27.362 47.8677 27.2266 47.8733 27.0907 47.8733Z" fill="#EE3E54"/>
  <path d="M145.576 246.473C144.118 252.907 141.935 259.779 138.773 266.973V266.98C138.766 266.98 138.752 266.973 138.745 266.973C131.654 264.577 125.364 261.723 119.826 258.643C119.826 258.643 121.818 254.502 125.856 250.853C130.121 247.02 136.671 243.735 145.576 246.473Z" fill="#EE3E54"/>
  <path d="M138.773 266.973H138.745C131.654 264.577 125.364 261.723 119.826 258.642C119.826 258.642 121.818 254.501 125.856 250.853C130.032 257.848 134.625 264.2 138.773 266.973Z" fill="#E02B4A"/>
  </g>
  <defs>
  <clipPath id="clip0_78_165">
  <rect width="290" height="290" fill="white"/>
  </clipPath>
  </defs>
</svg>
