<svg viewBox="0 0 480 480" fill="none" xmlns="http://www.w3.org/2000/svg">
  <path d="M106.41 328.89C106.41 328.89 107.02 390.68 143.37 417.83C177.98 432.22 209.41 442.67 226.82 451.43C244.22 460.18 278.85 449.19 294.03 440.51C309.21 431.83 363.8 406.28 372.42 382.15C381.04 358.02 394.34 282.37 394.34 282.37L404.21 206.82C404.21 206.82 197.23 105.01 100.03 204.06C109.24 313.23 106.41 328.89 106.41 328.89Z" fill="#FCBF95"/>
  <path d="M404.21 257.39C388.53 243.35 372.86 229.31 357.18 215.27C348.08 207.12 338.83 198.87 327.86 193.52C320.18 189.78 311.85 187.55 303.45 186C278.69 181.43 253.22 182.58 228.18 185.19C201.8 187.94 175.16 192.41 151.23 203.84C127.29 215.27 106.09 234.47 97.1699 259.45C97.1699 259.45 99.9799 218.99 132.78 189.15C165.58 159.31 177.46 143.18 222.82 141.14C268.18 139.1 297.1 146.68 315.26 156.92C333.42 167.16 369.23 192.54 381.83 213.44C394.41 234.33 404.21 257.39 404.21 257.39Z" fill="#D03827"/>
  <path d="M428.74 264.89C426.45 262.46 423.72 260.3 420.49 259.45C415.63 258.16 408.1 258.04 404.21 261.23C400.33 264.42 398.83 270.43 396.3 274.77L382.69 361.85C388.26 362.83 396.41 361.36 400.93 357.97C405.45 354.58 408.93 350 412.26 345.43C421.08 333.29 429.41 320.34 432.83 305.73C436.25 291.12 439.02 275.81 428.74 264.89Z" fill="#FCBF95"/>
  <path d="M408.01 250.89C401.63 254.45 399.2 262.26 397.44 269.35C392.36 289.8 388.22 310.49 385.04 331.32C383.71 326.59 382.38 321.86 381.05 317.12C380.24 314.23 379.41 311.31 378.07 308.62C376.4 305.28 373.94 302.36 372.45 298.93C369.42 291.95 370.76 283.96 371.75 276.42C373.56 262.52 374.91 244.2 373.9 230.22C373.89 230.23 394.84 252.12 408.01 250.89Z" fill="#C56528"/>
  <path d="M97.5198 263.99C94.2298 256.22 84.2698 254.35 75.8698 253.56C68.5298 252.87 59.8998 252.68 55.2298 258.38C52.4598 261.76 51.8898 266.38 51.6298 270.74C50.4498 290.72 53.7598 310.95 61.2298 329.51C64.0598 336.55 67.5798 343.48 73.0198 348.77C81.8998 357.42 95.6998 360.62 107.48 356.77L97.5198 263.99Z" fill="#FCBF95"/>
  <path d="M312.57 266.95C312.15 259.82 310.2 251.77 303.9 248.4C301.41 247.07 298.5 246.66 295.68 246.8C286.49 247.26 278.32 253.31 273.01 260.82C267.7 268.33 264.79 277.23 261.95 285.98L294.38 316.44C308.23 304.6 313.64 285.14 312.57 266.95Z" fill="#D6E5E5"/>
  <path d="M122.49 226.38L97.9399 257.36C99.6999 274.52 100.99 299.12 102.75 316.28C103.12 319.89 103.67 323.87 106.4 326.26C109.52 319.6 112.64 312.94 115.76 306.28C118.54 300.35 121.33 294.38 123.08 288.07C125.43 279.56 125.83 270.64 125.71 261.81C125.55 249.94 124.47 238.08 122.49 226.38Z" fill="#C56528"/>
  <path d="M294.81 335.16C316.8 332.32 337.79 322.16 353.67 306.68C354.27 317.12 354.85 327.74 352.33 337.89C349.81 348.04 343.65 357.81 334.12 362.11C332.18 362.99 330.01 363.71 328.75 365.43C327.36 367.33 327.47 369.88 327.14 372.21C326.07 379.75 319.73 385.83 312.5 388.21C305.27 390.59 297.32 389.78 289.99 387.71C283.24 400.55 265.47 406.13 252.59 399.45C250.36 398.29 248.2 396.8 245.7 396.48C243.05 396.14 240.45 397.18 237.87 397.88C222.97 401.92 205.73 393.2 200.15 378.82C188.98 383.14 175.37 385.36 165.79 378.16C162.16 375.43 159.53 371.63 156.96 367.89C146.53 352.71 135.59 335.08 139.75 317.14C151.73 330.74 171.11 337.39 188.92 334C188.92 334 198.05 356.99 219.17 367.84C246.75 382 294.76 372.94 294.81 335.16Z" fill="#513620"/>
  <path d="M212.28 259.7C209.45 254.64 205.57 249.99 200.43 247.3C195.3 244.61 188.78 244.14 183.78 247.07C182.12 248.04 180.68 249.33 179.3 250.66C175.68 254.13 172.26 258.07 170.81 262.86C169.4 267.51 165.68 286.61 178.12 308.82C180.27 312.65 183.88 316.43 190.32 319.21L218.16 288.78C219.27 278.8 217.19 268.47 212.28 259.7Z" fill="#D6E5E5"/>
  <path d="M151.86 235.23C150.45 235.23 149.06 234.64 148.07 233.49C146.27 231.4 146.51 228.25 148.6 226.44C161.75 215.11 178.58 209.19 193.27 210.52C203.73 211.48 212.42 215.92 218.43 223.38C220.16 225.53 219.82 228.68 217.67 230.41C215.51 232.14 212.37 231.82 210.64 229.65C206.37 224.35 200.05 221.17 192.37 220.47C180.22 219.38 166.27 224.42 155.13 234.01C154.17 234.83 153.02 235.23 151.86 235.23Z" fill="#010101"/>
  <path d="M274.83 234.32C273.72 234.32 272.6 233.95 271.68 233.2C269.53 231.46 269.21 228.31 270.96 226.17C280.13 214.9 291.86 207.49 303.99 205.28C318.45 202.67 333.46 208.07 341.46 218.69C343.12 220.9 342.68 224.03 340.47 225.69C338.28 227.33 335.14 226.93 333.47 224.7C327.68 217.01 316.53 213.16 305.77 215.12C295.98 216.9 286.38 223.06 278.71 232.47C277.72 233.69 276.28 234.32 274.83 234.32Z" fill="#010101"/>
  <path d="M93.9301 253.11C92.8601 242.87 100.57 232.78 106.08 224.08C118.97 203.73 134.8 185.26 152.93 169.4C161.1 162.26 169.81 155.6 179.61 150.94C193.89 144.16 209.89 141.92 225.67 140.93C237.42 140.2 249.23 140.12 260.94 141.29C324.35 147.59 382.31 194.12 402.9 254.43C415.63 239.92 420.08 220.2 418.59 200.96C417.09 181.72 410.41 163.3 403.45 145.3C398.83 133.35 394.02 121.39 387.45 110.39C379.47 97.0299 369.02 85.2799 357.67 74.6299C339.32 57.4099 318.23 42.7499 294.62 34.0499C271.01 25.3499 244.73 22.8799 220.48 29.6099C192.25 37.4499 168.88 56.7999 146.45 75.6499C137.46 83.1999 128.47 90.7599 119.48 98.3099C114.38 102.6 109.25 106.9 104.74 111.81C99.4301 117.58 95.0201 124.13 91.2501 131C70.8001 168.35 73.4201 215.81 93.9301 253.11Z" fill="#EF4823"/>
  <path d="M292.83 147.88C292.99 146.97 296.02 143.35 296.5 142.56C300.98 135.03 302.28 126.06 302.85 117.32C303.56 106.42 303.07 94.7601 296.99 85.6901C293.64 80.6901 288.83 76.8701 283.93 73.3801C274.44 66.6201 264.04 60.6901 252.59 58.5401C232.57 54.7801 210.72 64.0501 199.52 81.0601C188.32 98.0701 187.81 123.55 200.42 143.07C200.4 143.07 261.75 132.48 292.83 147.88Z" fill="#D6E5E5"/>
  <path d="M432.37 261.46C428.97 257.85 425.5 255.6 421.76 254.6C418.79 253.83 414.03 253.41 409.39 254.21C420.1 240.09 425.17 221.27 423.55 200.56C422.01 180.77 415.36 162.27 408.08 143.48C403.29 131.12 398.44 119.09 391.72 107.81C384.34 95.4701 374.32 83.4201 361.06 70.9701C340.36 51.5501 318.58 37.5401 296.31 29.3501C270.36 19.7701 242.94 18.1601 219.11 24.7801C189.33 33.0501 164.82 53.6401 143.2 71.8101L116.11 94.5601C111 98.8601 105.72 103.3 101.03 108.41C95.8 114.08 91.16 120.69 86.83 128.59C67.03 164.78 67.39 210.92 87.12 250.43C83.55 249.43 79.8 248.9 76.31 248.57C70.41 248.02 58.18 246.87 51.33 255.21C47.71 259.63 46.92 265.15 46.61 270.44C45.39 291.09 48.83 312.17 56.55 331.37C59.14 337.8 62.95 345.98 69.49 352.35C76.78 359.45 87.04 363.36 97.22 363.36C100.54 363.36 103.82 362.84 107.02 361.99C110.67 376.23 115.81 389.35 122.11 399.72C130.24 413.09 139.04 422.3 149.06 427.87C157.31 432.47 166.35 434.6 175.09 436.66C180.43 437.92 185.48 439.11 190.35 440.82C195.86 442.75 201.09 445.33 206.65 448.07C214.23 451.79 222.06 455.65 230.65 457.73C235.54 458.91 240.71 459.5 246.07 459.5C257.69 459.5 270.25 456.74 283.12 451.27C295.06 446.21 306.21 439.45 317 432.92C320.61 430.73 324.23 428.54 327.87 426.42L333.07 423.42C346.69 415.6 360.78 407.51 370.55 394.53C376.65 386.43 380.79 376.66 383.72 366.92C384.56 367 385.34 367.13 386.25 367.13C392.05 367.13 399.12 365.54 403.9 361.96C408.91 358.2 412.61 353.39 416.27 348.36C425.23 336.05 434 322.49 437.67 306.87C440.66 294.19 445.15 275.02 432.37 261.46ZM95.63 133.41C99.56 126.22 103.74 120.28 108.41 115.2C112.67 110.56 117.48 106.52 122.68 102.14L149.65 79.4801C170.5 61.9601 194.12 42.1201 221.81 34.4201C243.66 28.3701 268.9 29.9001 292.87 38.7401C313.87 46.4701 334.51 59.7801 354.24 78.2701C366.8 90.0701 376.26 101.41 383.15 112.95C389.48 123.56 394.16 135.16 398.78 147.11C405.77 165.18 412.17 182.92 413.61 201.36C414.87 217.6 411.61 232.44 404.36 244.09C385.82 198.74 346.46 162.13 300.57 145.44C300.64 145.34 300.75 145.18 300.79 145.11C306 136.38 307.26 126.33 307.83 117.64C308.51 107.14 308.38 93.7001 301.13 82.9001C297.31 77.1901 291.99 72.9901 286.81 69.3001C279.1 63.8001 267.25 56.2001 253.5 53.6301C231.5 49.4901 207.61 59.6501 195.32 78.3101C183.62 96.0901 183.15 120.98 193.48 140.8C188.08 142.24 182.68 143.96 177.46 146.44C168.6 150.65 160.02 156.58 149.64 165.66C131.1 181.87 115.02 200.63 101.86 221.42L99.72 224.72C97.05 228.8 94.22 233.15 92.11 237.75C77.96 203.34 79.02 163.74 95.63 133.41ZM120.71 261.88C120.81 268.97 120.62 278.2 118.27 286.73C116.63 292.66 113.89 298.51 111.23 304.16L107.39 312.36C106.66 304.53 105.99 295.49 105.34 286.45C104.61 276.52 103.89 266.66 103.06 258.32C106.55 249.73 111.78 241.57 118.46 234.13C119.73 243.36 120.59 252.64 120.71 261.88ZM106.17 233.2C106.82 232.19 107.46 231.15 108.1 230.17L110.31 226.76C122.96 206.78 138.41 188.75 156.23 173.17C165.89 164.72 173.77 159.26 181.77 155.46C196.3 148.56 213.04 146.74 225.98 145.93C238.85 145.15 250.14 145.26 260.45 146.27C315.37 151.73 366.59 188.8 390.93 238.77L360.53 211.55C351.29 203.28 341.75 194.72 330.06 189.03C322.84 185.51 314.68 182.99 304.37 181.1C277.19 176.06 249.1 177.99 227.67 180.22C203.3 182.75 174.91 187.01 149.08 199.33C131.51 207.7 116.78 219.49 106.17 233.2ZM277.35 87.1301C276.78 85.1501 275.06 83.7201 273 83.5301C271.07 83.3901 269 84.4201 268.07 86.2701C265.03 92.3201 261.32 98.0101 257.41 104.02C254.8 108 252.15 112.08 249.7 116.3C246.35 112.14 243.93 108 241.44 102.38C240.72 100.75 240.1 99.0401 239.48 97.3301C237.72 92.4801 235.72 86.9801 231.35 82.8401C230.22 81.7801 228.72 81.2601 227.11 81.5401C225.58 81.7801 224.24 82.7301 223.51 84.1101C214.81 100.34 207.5 117.45 201.66 134.97C193.59 118.51 194.16 98.2701 203.68 83.8101C213.81 68.4101 233.52 60.0401 251.66 63.4501C260.64 65.1401 269.98 69.5801 281.02 77.4401C285.42 80.5701 289.9 84.0901 292.84 88.4701C298.4 96.7701 298.45 108.07 297.86 117C297.46 123.2 296.57 130.08 294.01 136.16C287.71 122.06 282.28 104.33 277.35 87.1301ZM284.99 140.53C277.25 138.55 269.38 137.11 261.44 136.33C255.29 135.71 248.85 135.41 241.99 135.41C236.72 135.41 231.19 135.59 225.36 135.95C221.1 136.22 216.37 136.68 211.51 137.29C216.22 123.29 221.81 109.56 228.42 96.3801C229.01 97.7701 229.53 99.2401 230.08 100.75C230.78 102.67 231.49 104.61 232.31 106.45C236.28 115.41 240.3 121.35 247.1 128.4C248.22 129.56 249.83 130.08 251.45 129.86C253.05 129.62 254.44 128.61 255.17 127.16C258.2 121.12 261.89 115.47 265.8 109.48C267.56 106.77 269.34 104.04 271.08 101.25C275.23 115.22 279.8 128.97 284.99 140.53ZM76.49 345.2C71.28 340.14 68.07 333.17 65.86 327.66C58.68 309.82 55.49 290.25 56.62 271.05C56.83 267.44 57.27 263.78 59.09 261.57C62.16 257.84 69.04 257.95 75.4 258.55C82.37 259.2 90.66 260.64 92.92 265.95C93.14 266.47 93.48 266.9 93.84 267.3C94.37 273.6 94.87 280.37 95.36 287.18C96.13 297.68 96.89 308.17 97.78 316.79C98.09 319.79 98.72 324.44 101.55 328.13C102.12 336.25 103.25 344.33 104.82 352.22C95.01 354.98 83.8 352.29 76.49 345.2ZM362.6 388.53C354.06 399.87 340.88 407.44 328.13 414.76L322.88 417.8C319.19 419.95 315.53 422.18 311.86 424.39C301.38 430.74 290.54 437.3 279.26 442.09C262.45 449.22 246.49 451.3 233.04 448.03C225.53 446.21 218.52 442.77 211.11 439.12C205.53 436.38 199.77 433.54 193.7 431.41C188.33 429.53 182.79 428.22 177.44 426.96C168.98 424.97 161 423.08 153.97 419.17C145.51 414.45 137.9 406.41 130.71 394.55C120.5 377.75 113.21 352.04 111.51 327.18L120.3 308.41C123.12 302.38 126.04 296.14 127.91 289.42C130.62 279.65 130.83 269.51 130.72 261.75C130.56 249.7 129.45 237.52 127.43 225.56C127.42 225.48 127.36 225.42 127.35 225.34C134.91 218.78 143.65 213 153.38 208.36C177.84 196.69 205.19 192.62 228.7 190.17C249.44 188.01 276.61 186.15 302.55 190.94C311.95 192.66 319.31 194.91 325.68 198.02C336.11 203.11 345.12 211.18 353.84 219L368.97 232.55C369.59 244.15 368.9 260.05 366.81 275.82L366.61 277.22C365.61 284.72 364.51 293.12 367.91 300.92C368.81 303.12 370.01 305.02 371.31 307.02C372.11 308.32 372.91 309.52 373.61 310.92C374.71 313.12 375.41 315.72 376.21 318.52L379.97 331.86C378.18 355.57 371.88 376.2 362.6 388.53ZM383.7 309.1C383.4 308.2 383 307.3 382.5 306.4C381.7 304.7 380.7 303.2 379.7 301.6C378.7 300.1 377.7 298.6 377 297C374.7 291.7 375.6 285.3 376.5 278.6L376.7 277.1C378.34 264.73 379.19 252.34 379.24 241.74L396.28 257C394.35 261.02 393.33 265.18 392.6 268.1C389.2 281.6 386.3 295.3 383.7 309.1ZM427.96 304.59C424.72 318.49 416.55 331.03 408.22 342.48C405.03 346.86 401.84 351.04 397.94 353.96C395.82 355.55 392.09 356.7 388.51 357.05L401.11 276.42C401.82 275.08 402.49 273.64 403.14 272.16C404.39 269.38 405.68 266.49 407.39 265.09C409.35 263.46 414.75 263.08 419.21 264.27C421.09 264.77 423.01 266.09 425.1 268.31C433.5 277.24 431.24 290.57 427.96 304.59Z" fill="#010101"/>
  <path d="M199.32 301.52C194.13 294.38 192.29 284.91 194.42 276.34C194.97 274.12 195.89 271.82 197.78 270.53C199.75 269.2 202.31 269.26 204.68 269.38C206.61 269.47 208.57 269.57 210.37 270.26C212.17 270.95 217.73 277.07 218.21 278.93L221.2 289.86C221.22 289.86 204.11 295.54 199.32 301.52Z" fill="#4B7BB2"/>
  <path d="M279.01 300.31C280.49 298.3 284.52 292.97 286 290.96C286.64 290.09 287.27 289.22 287.79 288.28C290.6 283.18 289.43 276.5 285.86 271.9C285.07 270.88 284.16 269.93 283.04 269.31C281.05 268.21 278.65 268.27 276.39 268.4C273.57 268.56 270.42 268.97 268.66 271.18L260.29 289.91C260.29 289.91 276.61 294.53 279.01 300.31Z" fill="#4B7BB2"/>
  <path d="M358.66 306.41C358.55 304.46 357.3 302.74 355.48 302.03C353.65 301.31 351.58 301.74 350.19 303.1C336.15 316.78 318.03 325.97 298.76 329.41C298.58 327.5 298.3 325.56 297.83 323.6C297.58 322.56 297.23 321.62 296.94 320.64C297.17 320.5 297.43 320.41 297.64 320.23C311.39 308.47 318.85 288.45 317.58 266.66C316.75 252.48 310.97 246.5 306.26 243.98C303.16 242.34 299.58 241.59 295.44 241.81C285.49 242.31 275.83 248.18 268.94 257.92C263.19 266.04 260.17 275.28 257.27 284.22C254.33 283.7 251.44 283.34 248.93 283.34C248.87 283.34 248.81 283.34 248.76 283.34L242.59 283.31C236.04 283.22 229.69 283.2 223.29 284.34C223.45 274.92 221.25 265.46 216.65 257.24C212.91 250.56 208.23 245.73 202.76 242.86C195.71 239.17 187.47 239.1 181.27 242.73C179.14 243.97 177.39 245.53 175.85 247.03C172.27 250.46 167.91 255.19 166.03 261.41C165.31 263.8 159.37 285.55 173.76 311.25C176.37 315.9 180.39 319.59 185.6 322.37C185.36 324.7 185.32 327.03 185.54 329.36C170.11 331.42 153.85 325.53 143.53 313.82C142.29 312.41 140.35 311.81 138.56 312.28C136.74 312.73 135.34 314.16 134.91 315.99C130.34 335.7 141.79 354.56 152.87 370.71C155.51 374.56 158.5 378.91 162.8 382.15C173.3 390.05 186.83 388.46 197.61 385.02C205.6 399 223.58 406.96 239.18 402.7L240.8 402.24C242.45 401.76 243.93 401.27 245.08 401.44C246.1 401.57 247.39 402.29 248.77 403.05L250.29 403.89C254.81 406.22 259.77 407.33 264.73 407.33C275.4 407.33 286.08 402.24 292.33 393.44C300.42 395.21 307.72 395.04 314.07 392.95C323.75 389.77 330.83 381.9 332.1 372.91L332.31 371.07C332.4 370.14 332.53 368.74 332.8 368.38C333.06 368.02 334.34 367.46 335.19 367.09L336.18 366.66C346.31 362.1 353.96 352.04 357.2 339.07C359.9 328.14 359.28 317.09 358.66 306.41ZM295.95 251.8C298.09 251.72 300.09 252.03 301.55 252.81C305.98 255.18 307.28 261.98 307.59 267.25C308.62 284.93 303.1 301 292.85 310.93C290.64 306.96 288.02 303.5 285.12 300.45C291.33 292.22 297.31 284.26 292.44 273.31C289.69 267.12 283.7 263.57 277.48 263.25C282.49 256.43 289.33 252.13 295.95 251.8ZM270.92 275.5C271.35 275.28 271.79 275.1 272.2 274.72C274.6 272.49 279.25 272.95 281.4 274.78C284.78 277.66 285.01 282.78 283.05 286.45C281.66 289.04 279.76 291.45 277.84 293.83C276.34 292.63 274.83 291.47 273.3 290.36C271.42 288.99 269.21 287.89 266.89 286.94C268.14 283.11 269.42 279.24 270.92 275.5ZM237.8 293.28C239.31 293.28 240.87 293.3 242.47 293.32L248.79 293.35C248.84 293.35 248.88 293.35 248.92 293.35C254.65 293.35 262.81 295.09 267.43 298.44C277.95 306.08 285.07 313.34 288.1 325.95C289.08 329.96 289.27 334.65 288.73 340.68C288.48 343.56 288.06 346.91 286.9 349.88C281.48 363.82 261.51 366.9 253.17 367.59C241.55 368.55 232.84 367.6 225.8 364.58C220.58 362.34 215.43 358.63 209.61 352.9C201 344.39 196.37 336.48 195.47 328.71C194.16 317.42 201.4 304.97 213.08 298.43C221.18 293.87 228.8 293.28 237.8 293.28ZM213.25 280.27C213.42 282.61 213.41 284.94 213.2 287.27C211.54 287.96 209.87 288.74 208.19 289.68C205.65 291.1 203.36 292.79 201.19 294.59C200.16 292.45 199.33 290.22 198.92 287.78C198.42 284.75 197.67 278.16 199.92 275.6C204.06 270.89 210.73 276.11 213.25 280.27ZM182.48 306.39C169.88 283.91 175.35 265.11 175.59 264.33C176.8 260.35 180.05 256.87 182.77 254.27C183.88 253.2 185.08 252.1 186.31 251.39C189.49 249.53 194.13 249.63 198.12 251.74C201.85 253.68 205.14 257.19 207.91 262.14C208.4 263.01 208.74 263.96 209.17 264.87C204.52 263.41 199.51 263.52 195.27 266.22C184.18 273.28 188.21 292.11 193.87 302.05C191.46 305.19 189.54 308.59 188.12 312.13C185.76 310.5 183.76 308.68 182.48 306.39ZM347.48 336.68C345.03 346.5 339.27 354.32 331.21 357.94C329.26 358.78 326.59 359.94 324.73 362.49C322.85 365.06 322.57 367.86 322.36 370.12L322.2 371.52C321.47 376.7 316.95 381.49 310.95 383.47C305.57 385.24 298.98 385.03 291.35 382.9C289.08 382.27 286.67 383.29 285.58 385.39C280.16 395.7 265.24 400.38 254.92 395.02L253.63 394.32C251.7 393.25 249.28 391.91 246.34 391.53C243.17 391.13 240.3 391.97 237.98 392.66L236.57 393.06C224 396.49 209.51 389.1 204.82 377.02C203.82 374.44 200.93 373.17 198.36 374.17C191.07 376.97 177.54 380.73 168.81 374.18C165.81 371.92 163.42 368.44 161.1 365.07C152.86 353.07 144.97 340.46 143.97 327.85C156.35 337.29 172.57 341.54 188.03 339.16C190.74 346.09 195.46 352.98 202.59 360.02C209.34 366.66 215.46 371.04 221.88 373.78C229.6 377.08 237.88 377.96 245.01 377.96C248.3 377.96 251.35 377.77 253.99 377.55C266.68 376.51 289.03 372.01 296.23 353.51C297.83 349.37 298.37 345.15 298.69 341.59C298.75 340.95 298.79 340.18 298.84 339.46C317.17 336.48 334.65 328.89 349.15 317.35C349.31 323.91 349.02 330.47 347.48 336.68Z" fill="#010101"/>
</svg>
