<svg width="216" height="264" xmlns="http://www.w3.org/2000/svg" xmlns:xlink="http://www.w3.org/1999/xlink" overflow="hidden"><defs><clipPath id="clip0"><rect x="677" y="214" width="216" height="264"/></clipPath></defs><g clip-path="url(#clip0)" transform="translate(-677 -214)"><path d="M773.145 407.553C773.145 407.553 760.939 433.973 782.509 450.056 792.257 457.327 803.794 460.744 812.242 462.351 819.227 463.679 824.099 463.77 824.099 463.77L824.099 463.77C824.099 463.77 821.36 474.277 822.087 474.415 822.166 474.43 822.297 474.312 822.476 474.025 824.259 471.242 825.371 454.229 825.371 454.229 825.371 454.229 790.066 442.98 797.87 415.47L773.145 407.553Z" fill="#DC8758" fill-rule="evenodd"/><path d="M820.76 452.403 816.692 464.37 819.313 465.218C819.313 465.218 818.309 474.599 822.235 477.173L830.094 456.077 820.76 452.403Z" fill="#85C5A7" fill-rule="evenodd"/><path d="M820.52 461.706C820.374 461.678 820.22 461.716 820.122 461.828L817.39 464.663C817.214 464.84 817.229 465.122 817.412 465.295 817.47 465.349 817.537 465.383 817.629 465.4 817.766 465.426 817.936 465.395 818.028 465.273L820.763 462.44C820.939 462.262 820.92 461.98 820.741 461.811 820.678 461.757 820.599 461.721 820.52 461.706Z" fill="#413E3E" fill-rule="evenodd"/><path d="M822.433 463.584C822.325 463.564 822.209 463.584 822.116 463.642L818.445 465.931C818.237 466.051 818.187 466.316 818.311 466.525 818.385 466.632 818.489 466.698 818.601 466.72 818.718 466.742 818.818 466.714 818.917 466.666L822.587 464.381C822.803 464.262 822.854 463.993 822.726 463.783 822.661 463.674 822.549 463.606 822.433 463.584Z" fill="#413E3E" fill-rule="evenodd"/><path d="M822.64 466.977C822.574 466.965 822.501 466.964 822.427 466.988L819.083 467.921C818.859 467.992 818.716 468.243 818.79 468.468 818.827 468.636 818.975 468.761 819.133 468.791 819.2 468.804 819.276 468.789 819.342 468.78L822.695 467.823C822.911 467.771 823.058 467.521 822.984 467.275 822.932 467.121 822.798 467.007 822.64 466.977Z" fill="#413E3E" fill-rule="evenodd"/><path d="M833.579 387.212 806.04 391.357C806.04 391.357 813.786 407.119 832.492 419.139 842.33 425.465 854.962 428.922 864.728 430.779 873.521 432.451 879.989 432.825 879.993 432.826L879.993 432.826C879.989 432.825 876.737 443.221 877.481 443.363 877.564 443.378 877.698 443.265 877.892 442.989 879.799 440.302 885.194 427.314 885.194 427.314 885.194 427.314 840.778 401.389 833.579 387.212Z" fill="#DC8758" fill-rule="evenodd"/><path d="M834.47 377.093C810.002 388.554 768.766 396.06 768.766 396.06 763.778 405.911 768.779 435.835 768.779 435.835 783.91 434.486 808.1 434.319 808.1 434.319 807.297 417.794 806.64 404.009 806.64 404.009L806.64 404.009C815.456 420.966 829.71 424.073 829.71 424.073 837.398 421.046 853.317 403.867 853.317 403.867 847.703 400.112 834.47 377.093 834.47 377.093Z" fill="#ED8C18" fill-rule="evenodd"/><path d="M814.588 312.293C814.334 312.384 797.074 315.48 760.412 327.745 760.412 327.745 757.407 383.889 763.331 410.614 763.331 410.614 812.946 417.898 844.523 386.796 844.523 386.796 830.025 358.63 814.588 312.293Z" fill="#F8CEBB" fill-rule="evenodd"/><path d="M849.635 308.045C840.102 306.232 827.95 306.954 812.805 312.971L819.037 336.422C819.037 336.422 843.387 326.216 860.429 329.457 864.819 330.292 868.726 332.018 871.604 335.046 871.604 335.046 873.024 343.753 874.209 343.978 874.222 343.981 874.23 343.982 874.243 343.981 875.441 344.027 875.389 336.597 875.389 336.597L875.389 336.597C875.389 336.597 880.437 346.226 882.329 346.586 882.454 346.609 882.565 346.593 882.663 346.531 884.197 345.553 880.65 337.386 880.65 337.386L880.65 337.386C880.65 337.386 887.232 344.316 888.933 344.64 889.145 344.68 889.281 344.617 889.319 344.422 889.645 342.704 883.708 334.825 883.709 334.821L883.709 334.821C883.709 334.821 887.902 338.074 890.355 338.54 891.125 338.686 891.722 338.555 891.963 337.968 892.954 335.499 882.718 331.333 882.718 331.333L882.718 331.333C882.718 331.333 883.4 331.531 884.306 331.703 886.044 332.034 888.615 332.265 888.862 330.806 889.071 329.665 886.301 328.851 883.586 328.335 881.05 327.852 878.559 327.628 878.559 327.628 878.559 327.628 870.168 311.95 849.635 308.045Z" fill="#DC8758" fill-rule="evenodd"/><path d="M877.174 421.329 872.549 433.097 875.155 434.053C875.155 434.053 873.684 443.396 877.485 446.127L886.353 425.433 877.174 421.329Z" fill="#85C5A7" fill-rule="evenodd"/><path d="M876.479 430.601C876.342 430.575 876.201 430.615 876.095 430.717L873.218 433.431C873.043 433.605 873.038 433.882 873.22 434.056 873.275 434.109 873.365 434.155 873.456 434.173 873.594 434.199 873.744 434.156 873.853 434.058L876.729 431.348C876.901 431.191 876.91 430.919 876.727 430.745 876.657 430.664 876.571 430.618 876.479 430.601Z" fill="#413E3E" fill-rule="evenodd"/><path d="M878.3 432.579C878.2 432.561 878.094 432.574 878.002 432.628L874.229 434.708C874.016 434.832 873.936 435.116 874.064 435.326 874.134 435.432 874.242 435.499 874.38 435.525 874.471 435.543 874.591 435.544 874.668 435.483L878.444 433.383C878.657 433.263 878.729 432.998 878.604 432.793 878.536 432.675 878.42 432.602 878.3 432.579Z" fill="#413E3E" fill-rule="evenodd"/><path d="M878.341 435.962C878.283 435.951 878.223 435.952 878.164 435.966L874.784 436.754C874.533 436.824 874.394 437.055 874.443 437.297 874.48 437.464 874.626 437.584 874.808 437.619 874.85 437.627 874.921 437.64 874.997 437.604L878.381 436.818C878.606 436.768 878.765 436.52 878.695 436.299 878.66 436.12 878.508 435.994 878.341 435.962Z" fill="#413E3E" fill-rule="evenodd"/><path d="M688.851 305.838C688.772 305.823 688.693 305.829 688.622 305.862 686.91 306.553 688.825 315.215 688.825 315.215 688.825 315.215 683.431 306.815 681.972 306.538 681.822 306.509 681.718 306.561 681.658 306.714 680.992 308.338 685.343 317.147 685.343 317.147 685.343 317.147 681.279 312.582 678.997 312.148 678.489 312.051 678.069 312.157 677.801 312.566 676.345 314.787 685.621 320.761 685.621 320.761 685.621 320.761 683.689 319.773 681.972 319.447 680.837 319.231 679.798 319.307 679.478 320.149 678.681 322.259 689.004 325.171 689.004 325.171 689.004 325.171 695.815 347.189 722.743 352.31 730.392 353.764 739.671 353.858 750.878 351.691L749.238 327.54C749.238 327.54 729.853 331.662 714.175 328.68 707.062 327.327 700.709 324.512 697.28 319.186 697.28 319.186 697.572 310.201 696.391 309.93 696.387 309.929 696.383 309.928 696.379 309.927 695.206 309.704 693.827 316.955 693.827 316.955 693.827 316.955 690.61 306.172 688.851 305.838Z" fill="#DC8758" fill-rule="evenodd"/><path d="M693.91 316.524C693.768 316.497 693.619 316.536 693.512 316.642 690.948 319.184 692.11 321.274 692.168 321.356 692.233 321.487 692.341 321.554 692.454 321.575 692.57 321.597 692.662 321.589 692.767 321.538 692.979 321.418 693.055 321.154 692.926 320.948 692.894 320.87 692.084 319.307 694.146 317.273 694.322 317.096 694.327 316.818 694.145 316.645 694.08 316.582 693.997 316.54 693.91 316.524Z" fill="#413E3E" fill-rule="evenodd"/><path d="M839.075 307.189C830.029 306.578 802.268 314.874 802.268 314.874 800.756 322.074 815.091 346.91 815.091 346.91 820.853 344.766 843.164 336.201 843.164 336.201 844.039 328.994 839.075 307.189 839.075 307.189Z" fill="#F8CEBB" fill-rule="evenodd"/><path d="M774.613 322.865C768.503 323.711 742.739 326.717 742.739 326.717 740.303 333.544 740.357 355.866 740.357 355.866 740.864 356.009 741.442 356.144 742.069 356.263 752.172 358.185 776.363 356.858 776.363 356.858 779.424 350.184 774.613 322.865 774.613 322.865Z" fill="#F8CEBB" fill-rule="evenodd"/><path d="M826.108 363.572C810.539 393.93 766.669 391.181 766.669 391.181L765.508 404.852C808.214 412.973 840.123 386.466 840.123 386.466L826.108 363.572Z" fill="#F7F2DD" fill-rule="evenodd"/><path d="M825.2 215.107C819.816 214.083 819.408 217.41 819.881 220.107L819.881 220.107C819.198 218.741 818.025 217.362 816.034 216.983 814.3 216.653 811.944 217.083 808.75 218.952 797.725 225.41 809.572 243.918 809.572 243.918 807.494 241.455 805.362 240.164 803.399 239.791 796.294 238.44 791.375 249.105 798.876 259.589 801.379 263.098 803.365 264.594 804.932 264.892 808.134 265.501 809.58 261.11 810.134 258.655L810.134 258.655C809.679 261.998 809.537 269.581 817.283 271.054 818.892 271.36 820.844 271.402 823.2 271.087 828.016 270.451 830.6 269.394 831.826 268.201L831.826 268.201C832.7 269.451 833.858 270.452 835.379 270.741 837.425 271.13 840.129 270.231 843.689 266.913 854.36 256.92 844.666 254.346 842.147 253.867 842.034 253.846 841.935 253.827 841.856 253.812L841.856 253.812C843.924 254.104 857.079 255.513 854.025 244.23 852.714 239.416 851.213 237.747 849.879 237.493 849.234 237.37 848.627 237.575 848.096 237.917L848.096 237.917C850.106 235.072 852.03 229.646 844.792 223.237 842.366 221.092 840.481 220.084 839.022 219.807 836.989 219.42 835.773 220.446 835.046 221.797L835.046 221.797C834.606 219.764 832.758 217.451 827.522 215.721 826.662 215.44 825.89 215.238 825.2 215.107Z" fill="#413E3E" fill-rule="evenodd"/><path d="M725.797 222.037C724.122 221.719 721.85 221.907 718.805 222.859 704.119 227.436 713.045 234.251 714.654 235.371L714.654 235.371C713.828 234.826 710.928 233.038 707.847 232.452 704.334 231.784 700.589 232.679 699.399 238.756 698.213 244.811 699.439 246.652 701.002 246.949 701.306 247.007 701.621 247.004 701.934 246.966L701.934 246.966C698.855 248.659 694.709 252.701 698.42 261.527 700.206 265.794 702.025 267.465 703.659 267.776 704.727 267.979 705.721 267.598 706.578 266.989L706.578 266.989C706.074 269.003 706.719 271.867 710.682 275.65 712.592 277.477 714.112 278.34 715.326 278.571 717.75 279.032 718.936 276.962 719.512 274.996L719.512 274.996C719.534 277.19 720.469 279.84 724.581 280.622 725.787 280.851 727.265 280.917 729.067 280.771 741.903 279.693 739.415 258.026 739.412 258.021L739.412 258.021C740.578 262.626 742.996 264.955 745.644 265.458 751.236 266.522 757.876 259.465 756.043 248.558 755.124 243.088 753.49 241.031 751.74 240.698 749.383 240.25 746.807 242.92 745.449 244.602L745.449 244.602C747.734 241.219 752.365 232.068 739.16 227.84 737.609 227.342 736.261 226.997 735.097 226.776 732.79 226.337 731.19 226.391 730.101 226.75L730.101 226.75C729.756 224.554 728.62 222.574 725.797 222.037Z" fill="#413E3E" fill-rule="evenodd"/><path d="M785.192 234.957C778.74 233.73 770.608 234.242 760.428 237.529 760.428 237.529 759.572 241.644 768.313 254.055 773.085 260.86 785.258 266.478 795.12 268.354 800.109 269.303 804.504 269.295 807.053 267.991 809.961 266.515 808.49 239.388 785.192 234.957Z" fill="#2E2427" fill-rule="evenodd"/><path d="M813.967 316.875C813.842 316.851 813.712 316.877 813.605 316.962 813.414 317.107 813.384 317.38 813.533 317.569 813.632 317.684 822.635 328.943 824.029 340.118 824.061 340.314 824.193 340.478 824.38 340.514 824.422 340.522 824.472 340.51 824.522 340.519 824.759 340.493 824.944 340.271 824.919 340.038 823.481 328.594 814.325 317.141 814.226 317.03 814.16 316.945 814.066 316.894 813.967 316.875Z" fill="#413E3E" fill-rule="evenodd"/><path d="M803.546 320.297C803.296 320.271 803.075 320.414 803.033 320.638 803.011 320.752 800.898 331.002 791.31 333.621 788.384 334.423 785.694 334.388 783.37 333.946 778.065 332.937 774.656 329.817 774.62 329.781 774.555 329.718 774.475 329.681 774.392 329.666 774.247 329.638 774.087 329.684 773.975 329.797 773.801 329.967 773.82 330.249 774.002 330.401 774.044 330.452 777.643 333.752 783.222 334.813 785.658 335.276 788.488 335.303 791.553 334.477 801.69 331.71 803.901 320.943 803.923 320.829 803.969 320.584 803.799 320.345 803.546 320.297Z" fill="#413E3E" fill-rule="evenodd"/><path d="M765.867 326.382C765.671 326.345 765.488 326.424 765.372 326.604 765.333 326.694 760.307 335.863 759.831 354.271 759.834 354.503 759.987 354.693 760.195 354.733 760.216 354.736 760.24 354.72 760.265 354.725 760.52 354.748 760.72 354.554 760.725 354.302 761.204 336.13 766.126 327.123 766.169 327.034 766.281 326.807 766.207 326.561 766.001 326.424 765.957 326.404 765.912 326.391 765.867 326.382Z" fill="#413E3E" fill-rule="evenodd"/><path d="M789.318 221.508C781.057 219.937 771.409 220.878 760.504 225.103 726.352 238.305 732.332 267.816 732.332 267.816 732.332 267.816 734.492 304.212 763.507 309.73 765.032 310.02 766.631 310.222 768.303 310.334 801.865 312.51 828.876 292.024 822.05 258.402 818.22 239.601 806.908 224.853 789.318 221.508Z" fill="#413E3E" fill-rule="evenodd"/><path d="M780.248 239.163C773.255 237.834 765.028 238.395 755.567 242.363 732.341 252.12 722.154 296.124 758.021 311.888 760.223 312.86 762.474 313.549 764.753 313.983 791.489 319.067 821.788 288.933 809.785 261.575 809.785 261.575 799.9 242.901 780.248 239.163Z" fill="#DC8758" fill-rule="evenodd"/><path d="M791.198 300.075 779.249 306.054 780.16 321.262 774.613 322.865C774.613 322.865 774.166 328.205 782.747 329.837 783.557 329.991 784.447 330.114 785.424 330.19 799.719 331.36 802.268 314.874 802.268 314.874L802.268 314.874 796.355 316.158 791.198 300.075Z" fill="#DC8758" fill-rule="evenodd"/><path d="M773.173 287.623C773.152 287.619 773.127 287.614 773.101 287.618 772.843 287.59 772.614 287.778 772.622 288.008 772.609 288.077 772.245 293.838 769.575 296.08 768.786 296.736 767.886 297.008 766.864 296.923 766.631 296.904 766.405 296.87 766.184 296.828 761.382 295.915 759.312 290.446 759.303 290.381 759.24 290.234 759.109 290.133 758.963 290.105 758.88 290.09 758.793 290.094 758.709 290.129 758.489 290.197 758.368 290.452 758.441 290.677 758.536 290.927 760.699 296.679 765.987 297.685 766.24 297.733 766.519 297.765 766.794 297.792 768.045 297.916 769.174 297.552 770.155 296.743 773.11 294.276 773.482 288.31 773.507 288.062 773.524 287.863 773.373 287.661 773.173 287.623Z" fill="#413E3E" fill-rule="evenodd"/><path d="M790.54 279.025C786.266 278.212 782.141 280.9 781.274 285.097 780.425 289.31 783.23 293.429 787.526 294.288 787.571 294.297 787.613 294.305 787.659 294.314 791.908 295.122 796.011 292.413 796.867 288.252 797.72 284.04 794.915 279.899 790.619 279.04 790.594 279.035 790.565 279.03 790.54 279.025Z" fill="#AC5E2E" fill-rule="evenodd"/><path d="M749.954 282.798C745.688 281.987 741.541 284.7 740.704 288.873 739.851 293.085 742.631 297.2 746.93 298.085 746.955 298.09 746.984 298.095 747.009 298.1 751.304 298.917 755.43 296.204 756.276 292.024 757.12 287.814 754.34 283.7 750.041 282.815 750.012 282.809 749.983 282.804 749.954 282.798Z" fill="#AC5E2E" fill-rule="evenodd"/><path d="M779.994 271.375C777.823 270.962 775.723 272.335 775.289 274.458 774.861 276.596 776.284 278.672 778.467 279.108 778.484 279.112 778.496 279.114 778.508 279.116 780.658 279.525 782.753 278.181 783.179 276.056 783.611 273.919 782.218 271.819 780.035 271.383 780.023 271.38 780.006 271.377 779.994 271.375Z" fill="#413E3E" fill-rule="evenodd"/><path d="M751.882 273.293C749.733 272.884 747.659 274.253 747.236 276.362 746.808 278.5 748.232 280.572 750.41 281.033 750.427 281.036 750.443 281.039 750.46 281.042 752.626 281.454 754.702 280.077 755.127 277.956 755.555 275.818 754.152 273.746 751.969 273.31 751.94 273.304 751.911 273.299 751.882 273.293Z" fill="#413E3E" fill-rule="evenodd"/><path d="M793.71 306.981C787.866 311.118 779.666 313.419 779.666 313.419L779.924 317.771 795.299 313.012 793.71 306.981Z" fill="#B5633F" fill-rule="evenodd"/><path d="M812.056 277.928C806.389 276.85 802.431 287.808 802.431 287.808 802.431 287.808 799.425 297.931 805.199 299.029 805.387 299.065 805.58 299.089 805.789 299.103 812.377 299.593 826.063 293.294 816.315 280.991 814.817 279.103 813.39 278.182 812.056 277.928Z" fill="#DC8758" fill-rule="evenodd"/><path d="M765.151 276.39C765.135 276.387 765.117 276.388 765.105 276.386 764.864 276.382 764.663 276.58 764.666 276.834L764.594 283.92 758.281 283.319C758.078 283.301 757.915 283.409 757.831 283.579 757.755 283.75 757.809 283.967 757.95 284.087L764.357 289.764C764.435 289.83 764.501 289.868 764.568 289.88 764.73 289.911 764.881 289.864 764.993 289.75 765.147 289.573 765.153 289.295 764.97 289.122L759.534 284.32 765.011 284.831C765.127 284.853 765.249 284.804 765.336 284.732 765.424 284.631 765.495 284.526 765.491 284.411L765.561 276.84C765.559 276.624 765.384 276.435 765.151 276.39Z" fill="#413E3E" fill-rule="evenodd"/><path d="M806.441 251.502C803.634 250.968 801.018 252.652 799.258 258.67 799.258 258.67 807.542 269.497 806.899 285.811 806.887 286.099 806.946 286.246 807.058 286.267 808.584 286.557 820.377 264.024 815.037 257.925 812.446 254.964 809.338 252.053 806.441 251.502Z" fill="#413E3E" fill-rule="evenodd"/><path d="M786.791 230.764C780.338 229.537 772.207 230.049 762.033 233.329 762.033 233.329 761.198 237.443 769.909 249.853 774.706 256.663 786.893 262.301 796.759 264.177 801.739 265.124 806.127 265.111 808.675 263.811 811.562 262.335 810.106 235.198 786.791 230.764Z" fill="#413E3E" fill-rule="evenodd"/><path d="M762.033 233.329C730.278 233.246 728.461 269.873 734.185 270.961 734.256 270.975 734.328 270.98 734.396 270.984 740.408 271.179 757.591 257.66 761.602 246.375 765.629 235.122 762.033 233.329 762.033 233.329Z" fill="#413E3E" fill-rule="evenodd"/><path d="M814.561 285.049C813.468 284.841 810.289 285.131 805.317 292.749 805.184 292.951 805.253 293.222 805.464 293.355 805.502 293.383 805.573 293.397 805.618 293.405 805.797 293.439 805.976 293.381 806.08 293.219 810.934 285.772 813.857 285.809 814.468 285.925 814.542 285.94 814.583 285.952 814.587 285.956 814.615 285.966 814.643 285.976 814.672 285.981 814.872 286.019 815.079 285.928 815.174 285.747 815.288 285.533 815.197 285.262 814.952 285.169 814.897 285.142 814.765 285.088 814.561 285.049Z" fill="#413E3E" fill-rule="evenodd"/><path d="M837.736 392.335C837.636 392.316 837.53 392.33 837.438 392.384 837.226 392.504 837.133 392.765 837.258 392.97 837.31 393.056 841.721 400.898 848.957 405.952 849.016 405.985 849.082 406.018 849.149 406.031 849.315 406.063 849.49 406.003 849.591 405.837 849.719 405.659 849.679 405.373 849.492 405.244 842.422 400.314 838.094 392.648 838.041 392.566 837.974 392.44 837.861 392.359 837.736 392.335Z" fill="#413E3E" fill-rule="evenodd"/><path d="M849.714 403.059C849.569 403.031 849.404 403.08 849.293 403.19 839.633 413.144 828.568 421.54 828.454 421.615 828.263 421.76 828.229 422.053 828.361 422.239 828.44 422.325 828.548 422.392 828.639 422.41 828.776 422.436 828.897 422.391 829.005 422.319 829.123 422.223 840.233 413.815 849.951 403.805 850.127 403.627 850.112 403.346 849.93 403.172 849.867 403.114 849.793 403.074 849.714 403.059Z" fill="#413E3E" fill-rule="evenodd"/><path d="M805.2 429.182C805.146 429.172 805.091 429.17 805.037 429.181 790.458 431.588 770.513 430.453 770.305 430.439 770.068 430.436 769.847 430.605 769.845 430.862 769.829 431.061 769.978 431.25 770.211 431.294L770.282 431.308C770.464 431.321 790.509 432.454 805.2 430.043 805.445 430.001 805.609 429.774 805.56 429.533 805.521 429.353 805.379 429.216 805.2 429.182Z" fill="#413E3E" fill-rule="evenodd"/><path d="M771.574 410.65C771.549 410.645 771.52 410.64 771.489 410.642 771.257 410.64 771.056 410.834 771.055 411.091 771.049 411.871 771.049 430.601 773.236 435.616 773.302 435.767 773.426 435.863 773.563 435.889 773.655 435.906 773.746 435.902 773.83 435.868 774.055 435.771 774.155 435.516 774.056 435.291 771.932 430.423 771.937 411.28 771.926 411.088 771.949 410.873 771.778 410.689 771.574 410.65Z" fill="#413E3E" fill-rule="evenodd"/></g></svg>