<svg width="266" height="303" xmlns="http://www.w3.org/2000/svg" xmlns:xlink="http://www.w3.org/1999/xlink" overflow="hidden"><defs><clipPath id="clip0"><rect x="328" y="136" width="266" height="303"/></clipPath></defs><g clip-path="url(#clip0)" transform="translate(-328 -136)"><path d="M336.873 297 336.262 297.526 336.262 297.794 336.262 298.583 336.873 299.372 337.789 300.161 339.012 300.95 341.761 302.265 344.205 303.054 343.289 304.106 342.678 305.157 338.4 306.209 333.2 307.524 331.062 308.318 329.228 309.107 328.312 309.896 328.006 310.159 328.312 310.422 329.228 310.948 335.345 310.948 339.623 310.422 342.372 309.896 339.012 311.474 334.422 313.578 331.978 314.893 330.451 316.207 329.534 317.259 329.534 317.785 329.84 318.048 330.145 318.311 331.062 318.58 333.2 318.58 335.651 318.048 338.095 317.522 342.678 316.207 344.511 315.682 342.983 316.733 339.012 319.106 337.178 320.42 335.651 321.735 335.04 322.787 335.04 323.313 335.345 323.576 336.262 323.576 337.789 323.313 339.623 322.787 341.456 321.998 345.122 320.157 346.961 318.843 346.961 318.843 345.733 320.42 343.9 322.787 343.289 324.102 342.678 325.417 342.372 326.206 342.678 326.732 342.983 326.995 343.594 326.995 344.511 326.732 346.65 325.417 349.406 323.313 351.85 321.209 353.377 321.472 354.905 321.472 356.433 321.209 357.96 320.946 360.105 320.157 361.633 319.106 362.855 317.785 364.077 316.207 364.688 314.63 364.994 312.789 364.688 311.211 364.077 309.37 362.549 305.157 361.633 303.843 360.411 302.528 359.189 301.476 357.655 300.424 356.127 299.898 354.294 299.635 352.766 299.372 350.933 299.635 347.267 298.583 342.678 297.263 340.234 297Z" fill="#FDC59D" fill-rule="evenodd"/><path d="M457 280.006 444.954 281.593 432.305 283.444 416.64 285.825 408.212 287.412 399.778 289.269 391.042 291.12 382.614 293.501 374.481 295.617 366.949 298.267 360.026 300.912 354 303.822 357.913 315.994 449.168 304.351 457 280.006Z" fill="#FDC59D" fill-rule="evenodd"/><path d="M409.54 287 404 288.087 406.46 310 412 309.189 409.54 287Z" fill="#FEA68C" fill-rule="evenodd"/><path d="M455 277.006 449.621 277.271 437.078 277.802 429.609 278.598 421.848 279.395 414.976 280.722 411.693 281.518 409.006 282.58 411.991 311 444.248 308.876 455 277.006Z" fill="#4D6D81" fill-rule="evenodd"/><path d="M568.698 317 567.199 317.527 565.4 318.054 563.901 318.85 562.696 319.903 561.497 320.957 558.499 324.645 557.6 326.489 557 328.07 557 329.919 557 331.5 557.6 333.081 558.499 334.661 559.998 335.978 561.497 337.296 563.002 337.822 564.501 338.349 566 338.613 567.499 338.876 569.298 341.253 571.096 343.624 573.195 345.468 573.795 345.995 574.394 345.995 574.7 345.731 575 345.468 575 344.677 575 343.36 574.394 341.78 573.195 339.14 572.595 337.559 572.595 337.296 574.094 338.876 577.099 341.516 578.597 342.57 580.096 343.624 581.595 344.15 582.495 344.15 582.795 343.887 583.094 343.624 582.495 342.306 581.595 340.989 580.096 339.14 577.099 336.242 575.6 334.661 577.398 335.715 581.595 337.822 583.694 338.876 586.092 339.935 587.897 340.199 588.797 340.199 589.396 339.935 589.696 339.672 589.696 339.14 589.096 338.086 587.897 336.505 586.092 334.925 582.195 331.5 579.497 329.656 579.497 329.656 581.895 330.446 585.792 332.027 589.996 332.817 591.495 333.081 592.694 332.817 592.994 332.554 592.994 332.29 592.094 331.5 590.595 330.183 588.497 329.129 583.994 326.753 580.096 324.909 579.797 323.855 579.497 322.538 582.195 322.274 584.893 321.484 586.092 320.957 587.298 320.43 588.197 319.64 588.497 319.113 588.497 318.586 587.897 318.317 586.698 317.79 584.893 317.263 582.495 317.263 577.398 317.527 574.094 317.79 572.296 317.263 570.497 317Z" fill="#FDC59D" fill-rule="evenodd"/><path d="M478.676 279.005 476.262 279.269 474.156 279.533 471.748 280.06 469.943 280.85 467.836 281.904 466.025 283.222 464.52 284.539 463.316 286.12 462.113 287.971 461.21 289.815 460.307 291.66 460.006 293.768 460.006 295.876 562.066 332 568.994 320.927 565.684 318.55 562.066 315.914 557.854 313.016 553.039 310.381 542.802 304.841 531.661 299.571 519.92 294.295 507.877 289.288 496.436 284.539 485.597 280.323 483.189 279.796 480.782 279.269 478.676 279.005Z" fill="#FDC59D" fill-rule="evenodd"/><path d="M523.239 296 516.007 316.353 523.553 318.995 532.993 300.232 523.239 296Z" fill="#FEA68C" fill-rule="evenodd"/><path d="M486 277 490.803 308.306 514.8 319 519.597 304.911 523.195 294.739 524.994 288.742 524.694 288.221 524.394 287.96 522.595 287.173 520.497 286.391 517.798 286.13 512.396 285.609 509.997 285.348 507.599 284.044 504.301 282.741 496.2 280.134 486 277Z" fill="#4D6D81" fill-rule="evenodd"/><path d="M461.994 353.006 426.228 353.536 410.166 373.696 395.316 358.308 391.977 359.368 385.01 361.76 381.368 363.351 378.036 364.941 375.612 366.267 375.006 367.062 375.006 367.593 375.006 368.123 375.309 368.388 375.915 368.653 376.521 368.918 378.339 368.653 380.156 368.123 383.798 367.062 385.615 366.267 388.342 370.509 391.674 374.756 395.619 379.528 400.163 384.306 402.586 386.427 405.01 388.548 407.44 390.139 409.56 391.199 411.681 392 413.801 392 416.225 391.729 418.648 391.199 421.078 390.404 423.199 389.608 428.046 387.487 432.293 384.836 436.534 381.655 440.472 378.468 444.114 375.021 447.749 371.575 450.779 367.858 453.808 364.676 458.358 358.573 461.085 354.596 461.994 353.006Z" fill="#FDC59D" fill-rule="evenodd"/><path d="M412 371.005 411.003 373 412 371.005 412 371.005Z" fill="#FFCBCB" fill-rule="evenodd"/><path d="M412.733 371.005 411.006 373.351 423.964 388.995 427.994 386.91 424.252 383.521 419.935 379.346 412.733 371.005Z" fill="#FEA68C" fill-rule="evenodd"/><path d="M399.064 354.006 397.25 354.535 393.314 355.86 387.872 358.243 382.122 360.627 376.076 363.546 371.239 366.195 369.418 367.519 367.907 368.578 367 369.638 367 370.432 367.302 370.962 367.907 371.497 369.721 372.557 371.843 373.087 374.262 373.351 379.099 373.616 380.913 373.616 382.122 374.411 384.849 375.47 386.36 375.735 387.872 376 389.081 376 389.383 375.735 389.686 375.47 390.895 373.881 391.5 372.027 391.802 371.227 391.802 370.432 391.5 369.638 390.895 369.108 389.988 368.578 388.779 368.314 386.663 368.049 384.849 368.314 383.942 368.314 393.616 364.87 400.273 362.222 402.389 361.162 402.994 360.627 402.994 360.362 402.389 359.038 401.482 356.919 400.273 354.8 399.668 354.27 399.064 354.006Z" fill="#FDFDFD" fill-rule="evenodd"/><path d="M399.064 354.006 397.25 354.535 393.314 355.86 388.174 357.978 382.43 360.627 376.68 363.281 371.843 365.93 369.721 367.254 368.209 368.314 367.302 369.373 367 370.168 367 370.432 367.302 370.962 367.605 371.497 369.116 372.292 370.936 372.822 373.052 373.351 377.285 373.616 380.913 373.616 383.64 374.941 386.058 375.735 388.174 376 389.081 376 389.686 375.47 391.197 373.351 391.5 372.027 391.802 370.962 391.5 369.903 390.895 369.108 389.988 368.578 389.081 368.314 386.965 368.049 384.849 368.314 383.942 368.314 393.616 364.87 399.971 362.222 402.389 361.162 402.994 360.892 402.994 360.362 402.389 359.038 401.482 356.919 400.273 354.8 399.668 354.27 399.064 354.006Z" fill="#F8F8F8" fill-rule="evenodd"/><path d="M400.883 355.006 393.942 358.003 384.294 362.097 379.162 364.549 374.639 367.002 370.72 369.454 368 371.64 369.508 372.457 371.624 373.002 375.845 373.547 380.971 373.547 382.177 374.365 384.897 375.455 386.405 375.727 387.912 376 389.118 376 389.42 375.727 389.721 375.455 390.927 373.82 391.53 371.912 391.832 371.089 391.832 370.272 391.53 369.454 390.927 368.909 390.023 368.364 388.817 368.092 386.706 367.819 384.897 368.092 383.992 368.092 393.641 364.549 400.28 361.824 402.391 360.734 402.994 360.183 402.994 359.911 402.391 358.003 400.883 355.006Z" fill="#4D6D81" fill-rule="evenodd"/><path d="M488.451 348 453 355.41 471.789 393.251 485.12 419.972 492.091 433.466 492.697 433.994 494.817 433.994 496.331 433.466 499.662 432.143 503.606 430.028 507.24 427.912 510.268 425.532 512.388 423.41 512.691 422.617 512.994 421.824 512.691 421.03 512.085 420.766 511.782 420.501 511.177 420.501 509.662 420.766 508.451 421.559 505.726 423.41 504.514 424.474 503 420.237 501.479 415.477 498.754 404.099 496.028 391.394 493.606 378.694 489.662 356.997 488.451 348Z" fill="#FDC59D" fill-rule="evenodd"/><path d="M496.01 391 496.01 391 496.99 394 496.99 394 496.99 394 496.01 391 496.01 391Z" fill="#FFCBCB" fill-rule="evenodd"/><path d="M495.771 388 471.006 391.439 474.062 397 496.994 394.355 496.382 390.645 495.771 388Z" fill="#FEA68C" fill-rule="evenodd"/><path d="M500.38 414.006 500.073 414.274 499.765 414.543 498.535 416.155 496.998 417.767 496.383 418.572 496.075 419.378 496.075 419.916 496.69 420.722 498.843 421.796 501.302 422.602 503.769 423.682 494.231 427.712 487.767 430.667 485.615 432.01 485 432.278 485 432.547 485.615 434.159 486.845 436.314 488.075 438.194 488.997 438.731 489.612 439 491.463 438.463 495.153 436.582 500.38 434.159 506.228 431.473 512.07 428.249 516.996 425.294 518.841 423.951 520.071 422.602 520.994 421.527 520.994 420.722 520.686 420.184 520.071 419.647 518.226 418.841 515.767 418.304 513.3 418.035 506.536 418.035 505.614 417.229 503.769 415.617 502.539 414.811 501.302 414.274 500.38 414.006Z" fill="#FDFDFD" fill-rule="evenodd"/><path d="M500.688 414.006 500.073 414.274 499.765 414.543 498.843 415.886 497.613 416.961 496.383 418.304 496.075 418.841 496.075 419.647 496.383 420.184 496.69 420.722 498.843 421.796 501.302 422.602 503.769 423.682 494.231 427.712 487.767 430.667 485.615 431.741 485 432.278 485 432.547 485.615 434.159 486.845 436.314 488.075 438.194 488.997 438.731 489.612 439 491.156 438.463 495.153 436.851 500.073 434.433 505.921 431.741 511.456 428.518 516.381 425.563 518.226 424.219 519.764 423.139 520.686 422.065 520.994 420.99 520.994 420.722 520.379 419.916 519.456 419.378 518.226 418.841 516.689 418.572 513.3 418.035 506.536 418.035 504.384 416.155 502.539 414.811 501.61 414.274 500.688 414.006Z" fill="#F8F8F8" fill-rule="evenodd"/><path d="M500.042 414.005 499.741 414.27 499.441 414.534 498.238 416.119 496.734 417.704 496.133 418.497 495.832 419.289 495.832 419.817 496.434 420.61 498.539 421.667 500.944 422.459 503.356 423.521 494.028 427.484 487.706 430.39 485.601 431.711 485 431.975 485 432.239 485.902 434.358 487.406 437 494.028 433.824 503.657 429.333 508.469 426.692 512.679 424.05 516.594 421.667 519 419.289 517.496 418.761 515.391 418.232 511.175 417.968 506.063 417.968 505.161 417.176 503.356 415.591 502.154 414.798 500.944 414.27 500.042 414.005Z" fill="#4D6D81" fill-rule="evenodd"/><path d="M425.403 352.005 417.55 359.513 412.119 364.954 410.61 366.767 410.006 367.543 413.024 371.432 420.273 379.198 424.195 383.086 427.817 386.452 429.627 387.746 431.142 388.782 432.349 389.299 433.255 389.299 435.065 388.005 438.385 385.416 446.237 378.162 456.503 368.061 457.408 372.208 459.521 381.533 460.728 386.452 461.935 390.594 463.444 393.706 464.047 394.741 464.651 395 469.787 395 473.106 394.482 471.296 391.112 495.751 387.746 496.657 391.894 497.562 391.629 499.674 390.853 501.787 389.558 502.698 388.782 503 388.005 502.39 385.934 501.485 382.051 497.864 371.432 492.734 356.406 425.403 352.005Z" fill="#FFDA73" fill-rule="evenodd"/><path d="M422.431 355.005 420.006 357.106 494 359.995 494 359.995 492.788 356.581 422.431 355.005Z" fill="#D8C276" fill-rule="evenodd"/><path d="M470.799 274 464.797 274.264 459.101 274.793 454.297 276.115 451.899 276.649 450.1 277.442 448.601 278.5 447.402 279.293 445.603 281.407 444.104 283.522 441.1 288.286 438.701 293.573 436.303 299.13 434.504 304.946 433.005 311.032 430.3 322.933 428.202 334.042 426.103 343.564 425.204 347.53 424.004 350.707 422.805 352.822 421.906 353.88 421.006 354.408 492.398 355.995 493.297 355.466 494.197 354.408 495.096 353.087 495.696 351.5 496.895 347.53 497.795 342.507 498.394 336.685 498.694 330.605 498.994 323.991 498.694 317.112 498.394 310.239 497.495 303.624 496.295 297.274 495.096 291.194 493.297 286.166 492.398 283.787 491.199 281.672 489.993 280.086 488.794 278.5 487.595 277.442 486.096 276.379 483.997 275.586 481.898 275.057 479.2 274.529 476.496 274.264 470.799 274Z" fill="#62C447" fill-rule="evenodd"/><path d="M475.896 274 476.964 274.143 476.964 274.143 476.196 274ZM476.964 274.143 480.399 274.793 480.399 275.057 480.1 276.913 479.2 278.764 477.995 280.35 476.496 281.672 474.397 282.994 471.999 283.787 469.6 284.315 466.902 284.58 464.197 284.315 461.799 284.051 459.7 283.258 457.901 282.201 456.103 280.879 454.903 279.557 453.998 277.971 453.398 276.379 456.103 275.586 459.101 274.793 459.101 274.793 455.203 275.586 451.899 276.649 449.201 277.971 448.301 278.764 447.402 279.293 445.603 281.407 444.104 283.522 441.1 288.286 438.701 293.573 436.303 299.13 434.504 304.946 433.005 311.032 430.3 322.933 428.202 334.042 426.103 343.564 425.204 347.53 424.004 350.707 422.805 352.822 421.906 353.88 421.006 354.408 492.398 355.995 493.297 355.466 493.897 354.673 495.396 352.294 496.295 349.116 497.195 345.415 498.094 340.921 498.394 335.892 498.694 330.341 498.994 324.784 498.694 316.848 498.094 309.181 497.195 301.51 495.696 294.366 494.197 288.286 492.998 285.373 491.798 282.994 490.599 280.614 489.094 278.764 487.895 277.442 486.096 276.379 483.098 275.322 479.8 274.529 476.964 274.143Z" fill="#7BBAD3" fill-rule="evenodd"/><path d="M465.897 274 462.6 274.275 459.002 274.824 456.004 275.648 453 276.472 453.6 278.126 454.505 279.775 455.704 281.148 457.503 282.522 459.302 283.621 461.4 284.445 463.799 284.72 466.503 284.994 469.201 284.72 471.6 284.17 473.998 283.346 476.096 281.972 477.595 280.599 478.801 278.951 479.7 277.028 480 275.099 480 274.824 476.696 274.275 473.099 274Z" fill="#4D6D81" fill-rule="evenodd"/><path d="M471.375 271.006 462.625 271.561 462 281 462 281 472 279.613 471.375 271.006Z" fill="#FDC59D" fill-rule="evenodd"/><path d="M471.688 274 467.003 274.608 462.312 274.912 462 281 462 281 472 279.48 471.688 274Z" fill="#FEA68C" fill-rule="evenodd"/><path d="M525.723 206.005 523.865 206.265 522.318 206.525 520.46 206.785 518.912 207.305 517.365 208.085 515.817 208.865 513.334 210.945 511.477 213.285 509.929 216.15 509 219.01 509 222.13 509.619 225.255 510.548 228.375 512.405 231.235 514.888 233.575 517.674 235.4 520.46 236.96 523.865 237.74 525.723 238 529.135 238 530.992 237.74 532.54 237.22 534.088 236.7 535.635 235.92 537.183 235.14 539.666 233.055 541.523 230.715 543.071 228.115 544 224.995 544 221.87 543.69 218.75 542.452 215.63 540.595 212.765 538.421 210.425 535.635 208.605 532.54 207.305 529.135 206.265 527.587 206.005Z" fill="#FDC59D" fill-rule="evenodd"/><path d="M531.002 212 530.431 216.224 529.575 220.179 528.433 224.134 527.006 228.094 527.291 230.731 528.433 230.995 529.86 230.995 531.858 230.731 533.571 230.204 535.283 229.413 536.425 228.094 537.567 226.776 538.429 224.93 539 223.343 539 221.497 538.715 219.388 538.144 218.07 537.567 216.751 536.711 215.697 535.854 214.642 534.713 213.582 533.571 213.055 532.429 212.527 531.002 212Z" fill="#FEA68C" fill-rule="evenodd"/><path d="M477.918 182 473.074 182.262 468.532 182.785 445.508 188.813 440.052 189.598 435.207 190.907 430.968 192.74 427.329 194.84 423.998 197.458 421.273 200.338 418.851 203.48 417.028 206.627 415.817 210.293 414.908 213.958 414.303 217.891 414 221.818 414 226.013 414.303 229.94 414.908 234.129 416.119 238.062 417.633 244.345 417.633 246.445 417.633 248.54 417.936 250.635 418.239 252.729 418.851 254.562 419.759 256.138 421.879 259.542 424.301 262.684 427.631 265.302 430.968 267.664 434.904 269.758 439.143 271.591 443.691 272.9 448.536 273.947 453.078 274.733 457.928 274.995 463.076 274.995 467.624 274.733 472.468 273.947 491.556 270.02 496.098 268.973 500.336 267.664 504.279 265.825 507.912 263.731 511.546 261.113 514.58 258.495 517.608 255.609 520.03 252.467 522.149 249.325 523.966 245.66 525.177 242.251 526.085 238.324 526.697 234.653 527 230.725 526.697 226.798 525.783 222.865 523.966 216.32 522.755 212.387 520.938 208.722 518.819 205.056 516.396 201.385 513.665 198.244 510.334 195.102 507.004 192.216 503.371 189.86 499.428 187.504 495.492 185.671 491.253 184.1 486.705 183.047 482.466 182.262 477.918 182Z" fill="#FDC59D" fill-rule="evenodd"/><path d="M482.081 231 481.774 231.25 481.468 232.499 480.549 233.748 479.629 234.497 478.397 235.252 476.865 236.001 475.333 236.501 472.269 237.001 468.899 237.001 467.06 236.751 465.522 236.251 463.99 235.752 462.764 235.002 461.538 233.998 460.926 232.749 460.313 232.749 460.006 232.999 460.926 234.497 462.151 235.752 463.377 236.501 464.909 237.251 466.754 237.75 468.592 238 472.269 238 474.108 237.75 475.946 237.251 477.478 236.751 479.017 236.001 480.549 235.252 481.774 233.998 482.387 232.749 483 231.25 482.694 231Z" fill="#4D2A22" fill-rule="evenodd"/><path d="M459.902 232 459.305 232.898 459.006 233.796 459.305 234.694 459.305 234.994 459.604 234.994 459.902 234.395 459.902 234.096 459.902 233.796 459.902 233.497 460.201 233.497 460.201 233.198 460.5 233.198 460.5 232.898 461.994 232.898 461.994 232.599 461.695 232.299 461.396 232Z" fill="#4D2A22" fill-rule="evenodd"/><path d="M481.147 231 480.006 231.855 480.006 232.139 480.291 232.424 480.862 232.424 481.432 231.855 482.288 231.855 482.574 232.139 482.859 232.139 482.859 232.424 482.859 232.709 483.144 232.709 483.429 232.994 483.715 232.994 484 232.709 484 232.139 483.144 231.285 482.288 231Z" fill="#4D2A22" fill-rule="evenodd"/><path d="M414.248 224 412.444 224.268 410.941 224.536 409.137 224.81 407.634 225.614 406.124 226.15 404.621 226.955 402.216 229.1 400.412 231.513 398.908 234.462 398.006 237.417 398.006 240.634 398.307 244.12 399.51 247.074 401.314 250.024 403.719 252.437 406.124 254.313 409.137 255.922 412.444 256.732 413.948 257 417.556 257 419.065 256.732 420.869 256.19 422.372 255.654 423.876 254.85 425.379 254.045 427.784 252.168 429.588 249.487 431.098 246.806 432 243.583 432 240.366 431.699 237.149 430.497 233.926 428.686 231.245 426.281 228.832 423.876 226.687 420.869 225.346 417.556 224.268 416.052 224.268 414.248 224Z" fill="#FDC59D" fill-rule="evenodd"/><path d="M414.343 231 412.151 231.264 409.958 231.791 408.392 232.582 406.826 233.901 405.566 235.225 404.626 236.808 404.313 238.654 404 240.5 404.313 242.61 404.94 244.192 405.879 245.511 407.139 246.835 408.392 247.89 409.958 248.945 411.524 249.473 413.09 250 414.97 250 417.163 249.736 419.048 249.209 420.928 248.418 422.494 247.099 423.747 245.78 424.374 244.192 425 242.346 425 240.5 424.687 238.39 424.06 236.808 423.434 235.489 422.181 234.165 420.928 233.11 419.362 232.055 417.789 231.527 415.91 231Z" fill="#FEA68C" fill-rule="evenodd"/><path d="M436.635 239.006 434.827 239.275 433.622 239.812 432.115 240.35 432.115 242.77 431.814 244.922 431.211 247.078 430 249.23 431.513 250.574 433.32 251.65 435.429 252.457 437.84 252.725 439.346 252.994 441.154 252.725 442.968 252.457 444.474 251.919 445.981 251.112 447.186 250.305 448.09 249.23 448.692 248.154 448.994 246.81 448.994 245.459 448.391 244.115 447.487 242.77 446.583 241.695 445.077 240.619 443.571 239.812 441.455 239.275 439.647 239.006Z" fill="#FEA68C" fill-rule="evenodd"/><path d="M432 240.006 431.002 240.823 429.998 241.912 429.25 243.274 429 244.636 429 245.731 429.25 246.821 429.749 247.91 430.248 249 431.251 246.821 431.75 244.636 432 242.457 432 240.006Z" fill="#FEA68C" fill-rule="evenodd"/><path d="M490.18 198.005 488.667 198.521 487.153 198.779 485.639 199.552 484.126 200.583 483.217 201.613 482.309 202.902 482.006 203.16 482.006 203.417 482.612 203.933 483.217 204.196 483.823 203.933 483.823 203.675 484.731 202.644 485.639 201.613 486.85 200.84 488.061 200.325 489.272 200.067 490.18 200.067 492.609 200.325 495.031 200.84 497.15 202.129 498.966 203.675 499.874 204.454 500.177 205.485 500.783 206 501.388 206 501.994 205.742 501.994 204.969 501.388 203.675 500.783 202.644 499.874 201.613 498.664 200.583 497.453 199.809 496.242 199.036 494.728 198.521 493.214 198.005Z" fill="#4D2A22" fill-rule="evenodd"/><path d="M443.379 201 442.124 201.242 439.314 202.453 436.816 203.91 435.88 204.879 435.255 205.847 434.631 206.816 434.007 208.026 434.319 208.753 434.943 208.995 435.567 208.995 435.88 208.511 436.192 207.542 436.816 206.816 438.377 205.363 440.563 204.153 442.754 203.179 444.94 202.695 446.189 202.453 447.437 202.453 448.998 202.695 450.247 203.179 451.184 203.91 452.12 204.395 452.745 204.637 453.057 204.879 453.681 204.395 453.993 203.91 453.993 203.663 453.681 203.421 452.433 202.453 451.184 201.726 449.623 201.242 448.062 201Z" fill="#4D2A22" fill-rule="evenodd"/><path d="M506.047 229.005 503.363 229.269 501.567 229.797 499.778 230.589 497.988 231.38 496.796 232.435 495.901 233.755 495.304 235.079 495.006 236.399 495.006 237.718 495.304 238.773 495.901 239.828 496.796 240.62 497.988 241.411 499.181 242.203 500.673 242.467 502.17 242.731 503.959 242.995 506.345 242.731 508.433 242.203 510.222 241.411 511.713 240.62 512.906 239.565 514.105 238.245 514.702 236.926 515 235.607 515 234.282 514.404 233.227 513.801 232.172 512.906 231.116 511.713 230.589 510.52 229.797 509.029 229.533 507.538 229.269 506.047 229.005Z" fill="#FEA68C" fill-rule="evenodd"/><path d="M445.16 212 442.772 212.263 440.677 213.052 438.886 214.104 437.394 215.424 436.2 217.002 435.305 218.843 435.006 220.684 435.006 222.788 435.305 228.053 435.902 230.157 436.797 231.998 437.991 233.576 439.483 234.891 441.274 235.948 443.369 236.737 445.458 237 447.846 237 449.935 236.737 452.025 235.948 453.815 234.891 455.314 233.576 456.806 231.998 457.403 230.157 458 228.316 458 226.212 457.403 220.947 457.105 218.843 456.209 217.265 455.015 215.687 453.218 214.104 451.428 213.052 449.637 212.263 447.249 212Z" fill="#FDFDFD" fill-rule="evenodd"/><path d="M449.803 214 447.68 214.512 445.86 215.285 444.343 216.308 443.13 217.588 441.91 219.379 441.303 221.171 441 223.218 441 225.27 441.303 227.574 442.22 229.365 443.13 231.156 444.646 232.436 446.467 233.715 448.287 234.483 450.107 235 452.23 235 453.747 234.739 455.573 233.203 457.09 231.156 457.697 229.877 458 228.853 458 227.574 458 226.294 457.393 221.171 456.787 219.123 455.877 217.332 454.36 215.541 452.837 214.256 451.32 214Z" fill="#210A06" fill-rule="evenodd"/><path d="M474.114 223 473.82 223.235 473.527 223.47 473.233 223.705 472.647 224.175 471.95 225.012 471.95 225.012 470.886 223.47 470.593 223.235 470.006 223.235 470.006 223.47 470.006 223.94 471.473 226.06 471.767 226.295 472.353 226.06 473.233 224.645 473.82 224.175 473.82 225.12 473.82 225.825 473.82 226.295 474.114 226.765 474.407 227 474.994 226.765 474.994 226.295 474.994 225.825 474.994 225.12 474.994 224.175 474.701 223.235 474.407 223Z" fill="#4D2A22" fill-rule="evenodd"/><path d="M488.434 207.005 486.077 207.531 484.31 208.32 482.542 209.372 481.069 210.949 479.89 212.527 479.301 214.367 479.006 216.213 479.006 218.317 479.89 223.575 480.479 225.421 481.363 227.262 482.542 228.839 484.31 230.154 486.077 230.943 488.14 231.732 490.202 231.995 492.566 231.995 494.628 231.469 496.69 230.68 498.458 229.365 499.931 228.051 501.11 226.473 501.699 224.627 502 222.524 502 220.683 501.11 215.425 500.521 213.316 499.637 211.738 498.164 210.161 496.69 208.846 494.923 207.794 492.86 207.268 490.798 207.005Z" fill="#FDFDFD" fill-rule="evenodd"/><path d="M484.371 209 482.881 209.268 481.688 209.804 480.198 211.413 479.304 213.557 479.006 215.708 479.006 217.853 479.9 223.214 480.198 224.555 480.496 225.633 481.39 226.705 481.986 227.777 484.073 229.654 486.457 230.994 487.947 230.994 489.735 230.458 491.53 229.386 493.02 228.314 494.212 226.705 495.106 225.096 495.702 222.946 496 220.801 496 218.657 495.404 216.512 494.51 214.367 493.318 212.753 491.828 211.145 490.033 210.072 488.245 209.268 486.159 209Z" fill="#210A06" fill-rule="evenodd"/><path d="M480.248 136 476.321 136.526 473.003 137.315 469.685 138.367 466.971 139.419 464.25 140.471 457.011 143.896 454.29 144.685 453.084 144.948 452.179 144.948 449.163 144.159 444.639 143.37 439.203 142.581 433.171 141.792 427.132 141.529 418.681 141.529 416.569 142.055 414.458 142.581 412.648 143.37 411.442 144.422 409.934 145.474 407.521 148.63 405.403 152.055 403.594 155.737 402.085 159.157 400.879 162.055 399.974 164.686 398.164 164.949 393.634 166.264 391.221 167.316 388.506 168.368 386.697 169.683 385.792 170.472 385.189 171.261 384.585 172.05 384.284 173.371 383.982 176.264 383.681 179.683 383.982 183.108 384.284 189.157 384.887 191.787 382.166 193.897 379.753 196.264 377.039 199.42 374.324 202.84 373.118 204.686 372.213 206.527 371.61 208.369 371.006 209.947 371.006 211.788 371.308 213.629 372.213 215.739 373.118 217.58 374.626 219.684 375.832 221.525 379.15 224.95 382.166 228.106 383.077 231.262 383.982 234.418 385.189 237.58 386.697 240.473 388.205 243.104 390.014 245.739 392.126 248.106 393.935 250.211 396.355 252.315 398.466 254.156 403.292 257.844 408.124 260.737 413.252 263.367 418.077 265.471 422.91 267.055 427.132 268.37 431.06 269.422 436.79 270.737 438.902 271 438.902 271 436.187 269.948 433.774 268.633 429.545 265.997 426.227 263.63 423.814 261 422.005 258.896 420.798 257.318 419.893 255.734 417.776 256.002 415.363 256.002 412.347 255.471 409.331 254.682 407.521 253.893 406.006 253.104 404.498 252.052 403.292 250.737 401.784 248.895 400.879 247.054 399.673 244.156 399.069 241.788 398.768 239.421 398.768 237.317 399.069 235.476 399.673 233.629 400.577 232.314 401.784 230.736 402.99 229.684 404.498 228.369 407.219 226.791 410.235 225.476 412.648 224.687 422.91 234.155 423.814 232.314 424.418 230.473 424.418 228.632 424.418 227.054 423.814 225.476 423.211 223.629 421.402 219.421 424.418 216.791 427.132 213.892 430.758 209.947 434.377 205.475 437.695 200.736 438.902 198.105 440.108 195.475 441.013 192.84 441.616 190.209 444.94 188.631 448.56 188.894 452.782 189.42 457.011 190.209 459.123 190.735 461.234 191.524 460.329 190.735 458.519 188.631 457.916 187.579 457.614 186.79 457.614 186.264 457.916 186.001 458.218 186.001 458.821 185.738 460.631 186.264 462.44 186.79 464.25 187.842 466.06 189.157 469.082 191.261 470.289 192.05 471.194 191.261 473.908 189.157 476.019 188.105 478.432 186.79 481.455 185.738 485.074 184.949 488.392 185.212 491.414 186.001 494.431 186.527 497.145 187.579 499.86 188.631 502.273 189.946 504.692 191.261 506.803 192.84 510.724 196.264 514.042 199.947 517.065 203.634 519.477 207.58 521.589 211.525 523.097 215.213 524.303 218.632 525.208 221.788 526.415 226.265 526.723 228.106 528.532 223.366 529.739 218.632 530.644 213.892 531.247 209.158 533.961 207.053 536.374 204.686 537.279 203.366 538.184 201.788 538.492 200.473 538.492 198.894 537.882 196.527 536.978 194.16 534.866 190.209 533.057 187.053 532.755 185.738 532.453 184.686 533.358 183.108 534.565 180.998 536.073 178.368 537.882 175.212 539.095 171.787 539.698 170.209 540 168.631 540 167.053 540 165.475 539.397 163.896 538.794 162.581 537.581 161.524 536.374 160.472 534.866 159.683 533.358 158.894 530.04 157.842 526.723 157.052 523.7 156.526 520.986 156 519.779 155.474 518.874 154.948 518.271 154.422 517.969 153.896 517.366 152.055 515.556 149.682 513.439 147.315 510.423 144.685 506.803 142.055 502.882 139.682 500.765 138.63 498.352 137.841 495.939 137.315 493.827 136.789 488.694 136Z" fill="#210A06" fill-rule="evenodd"/><path d="M499.788 143.005 498.894 143.264 498.298 143.523 498 144.3 498 145.077 498.298 146.113 499.49 148.444 501.576 150.774 503.967 153.11 506.649 155.182 508.139 155.959 509.331 156.477 510.821 156.736 512.013 156.995 513.504 156.736 514.404 156.218 515 155.7 515 154.923 514.702 153.887 514.106 152.851 513.206 151.551 511.119 149.22 508.139 146.89 505.159 144.818 502.179 143.523 500.98 143.005Z" fill="#422D29" fill-rule="evenodd"/><path d="M492.804 147 492.205 147.263 491.605 147.789 491.306 148.314 491.006 148.84 491.006 150.417 491.605 152 492.804 153.577 494.002 155.154 495.8 156.206 496.698 156.732 497.597 156.995 498.795 156.995 499.395 156.469 499.694 155.943 499.994 155.417 499.694 153.84 498.795 152 497.897 150.154 496.399 148.577 494.901 147.526 494.002 147Z" fill="#422D29" fill-rule="evenodd"/><path d="M385.487 199 384.231 199.266 383.289 199.533 381.083 200.865 379.513 202.73 377.942 204.6 377.314 206.465 377 207.531 377 208.33 377.314 209.13 377.942 209.929 378.57 210.462 379.827 210.728 380.769 210.994 381.711 210.728 382.654 210.462 383.603 209.929 384.545 209.13 386.115 207.265 387.372 204.867 388 202.73 388 200.865 387.686 200.066 387.372 199.533 386.744 199Z" fill="#422D29" fill-rule="evenodd"/><path d="M394.329 204.005 392.665 204.521 391.002 205.294 389.671 206.583 388.672 207.871 388.007 209.16 388.007 210.448 388.34 210.964 388.672 211.479 389.338 211.737 390.003 211.995 391.335 211.995 392.333 211.737 393.664 210.964 394.662 209.417 395.667 208.129 396 206.583 396 205.294 395.667 204.263 395.002 204.005Z" fill="#422D29" fill-rule="evenodd"/></g></svg>