<svg width="266" height="304" xmlns="http://www.w3.org/2000/svg" xmlns:xlink="http://www.w3.org/1999/xlink" overflow="hidden"><defs><clipPath id="clip0"><rect x="300" y="146" width="266" height="304"/></clipPath></defs><g clip-path="url(#clip0)" transform="translate(-300 -146)"><path d="M13.4369 0 11.758 0.254058 10.0791 0.508116 8.68005 1.27029 7.00117 2.03246 5.88191 3.30805 2.51832 6.6108 1.39907 8.13514 0.559627 9.65949 0 11.4379 0 13.2216 0.279813 15 1.11925 16.5243 1.95869 18.3028 3.35776 19.573 4.76266 20.3352 6.16173 21.0974 7.56079 21.6055 8.95986 21.8596 10.3589 24.4054 12.0378 27.2001 13.4369 29.2325 14.2763 29.7406 14.8418 29.9947 15.1216 29.7406 15.4014 29.4866 15.6812 28.4704 15.6812 27.2001 15.4014 25.6757 14.8418 22.8758 14.2763 21.0974 15.6812 22.8758 17.9197 25.6757 19.3188 26.946 20.7179 28.2163 22.1169 28.9785 23.516 28.9785 23.516 28.4704 23.2362 27.2001 22.3967 25.6757 21.2775 23.6433 19.039 20.3352 17.6399 18.8109 19.3188 19.8271 22.9564 22.6217 24.9151 23.8973 27.1594 24.9135 28.8383 25.6757 30.2373 25.6757 30.5172 25.4217 30.797 24.9135 30.2373 23.6433 29.3979 21.8596 27.719 20.0812 24.3554 16.2703 22.1169 13.9838 24.3554 15.2541 27.9988 17.0325 29.9575 17.7946 31.9162 18.5568 33.3153 18.8109 34.7144 18.8109 34.9942 18.5568 34.9942 18.3028 34.1547 17.2865 33.0355 16.0162 31.0768 14.4919 26.8796 11.692 23.516 9.40543 23.516 8.13514 23.2362 6.86485 25.7603 6.86485 28.5585 6.35674 29.9575 6.10268 31.0768 5.59457 31.9162 5.08645 32.4758 4.32428 32.4758 3.81616 32.196 3.5621 31.0768 2.79464 29.1181 2.28652 26.8796 1.77841 22.1169 1.52435 18.4793 1.27029 16.8005 0.762174 15.1216 0.254058 13.4369 0Z" fill="#D3641A" fill-rule="evenodd" transform="matrix(-1 0 0 1 335 355)"/><path d="M2.19053 0 0 25.943 91.7798 75 99.9943 64.4698 98.0776 62.1542 95.6132 59.8438 89.8574 54.7098 83.5596 49.3137 76.1609 43.9229 68.2145 38.5268 60.2738 33.3928 51.7798 27.9966 43.5596 23.1193 27.9464 13.8726 14.7975 6.67962 2.19053 0Z" fill="#D3641A" fill-rule="evenodd" transform="matrix(-1 0 0 1 421 294)"/><path d="M5.51081 0.00536976 2.75254 12.6404 0.825761 21.9247 0 27.3428 0.275254 27.8583 1.37627 28.8893 4.9603 31.209 10.1901 34.302 15.9762 37.4004 27.2673 43.0708 32.2219 45.6483 36.0754 51.5819 36.9012 52.3552 38.2832 52.8707 40.21 53.3862 41.8615 53.6439 45.1645 53.9016 46.5408 53.9016 46.8161 54.1594 47.9228 55.1904 49.5743 56.2214 50.6753 56.7369 52.3269 57 53.1526 57 53.9784 56.7369 55.0794 55.9636 55.9052 54.9326 57.8319 52.6129 60.0397 49.5199 61.6912 46.4216 63.3427 43.3286 64.9943 39.4624 64.9943 38.6891 64.719 38.1736 64.1685 37.9159 61.9665 37.9159 61.1407 38.1736 60.8655 35.333 60.0397 33.0133 59.4892 31.7245 58.9387 30.6935 57.8319 29.6626 57.0062 29.4048 55.9052 29.1471 55.0794 29.1471 53.4279 29.6626 52.6021 29.9203 52.0516 29.4048 50.4001 27.3428 46.8161 24.5022 44.3388 22.698 41.0357 20.636 19.8297 8.25869 5.51081 0.00536976Z" fill="#4D6D81" fill-rule="evenodd" transform="matrix(-1 0 0 1 390 311)"/><path d="M9.22938 0 7.21177 5.95632 4.61769 13.7238 0 26.4072 4.04123 28.9946 15 3.11022 9.22938 0Z" fill="#4A687C" fill-rule="evenodd" transform="matrix(-1 0 0 1 387 315)"/><path d="M0 0 4.14765 34.8144 32.0479 48.9946 36.4717 35.3298 40.0614 25.2732 41.1659 21.1442 41.9942 18.567 41.7181 18.0515 41.442 17.5361 40.3375 16.5051 38.4046 15.2165 35.6433 13.6702 29.0105 10.5721 21.2732 7.4794 6.63279 2.31953 0 0Z" fill="#FFDA73" fill-rule="evenodd" transform="matrix(-1 0 0 1 419 294)"/><path d="M9.02748 0.0054693 7.11498 0.267996 6.02212 0.793049 5.7489 1.05558 5.47 1.58063 5.7489 2.36821 6.56855 3.15579 7.38819 3.68084 8.75427 4.46842 11.4864 5.256 13.9454 6.04905 13.3989 7.09915 12.8525 8.41179 9.02748 9.98694 4.37713 12.0872 2.46463 13.3998 0.825337 14.1874 0.00569198 15.2375 0.00569198 15.5 0.278907 15.7625 1.37177 16.0251 3.01106 16.0251 4.92356 15.7625 6.84176 15.2375 10.94 14.1874 13.3989 13.1373 13.3989 13.3998 10.6668 15.2375 6.56855 18.3933 4.65035 19.9684 3.28427 21.5436 2.46463 22.8562 2.46463 23.1187 3.01106 23.6438 3.55749 23.9063 4.10392 23.9063 6.02212 23.6438 8.20784 22.8562 10.6668 21.8061 14.765 19.9684 16.4043 18.9183 15.0382 20.2309 11.7596 23.3813 10.3936 24.9564 9.3007 26.5316 8.75427 27.8497 8.75427 28.1122 9.02748 28.3747 9.57391 28.6373 10.1203 28.3747 11.4864 27.8497 12.8525 27.0621 14.4918 26.0065 17.5028 23.6438 19.1421 22.0686 19.4154 22.0686 18.3225 23.6438 16.9564 26.5316 16.4043 28.1122 16.1311 29.4248 16.1311 30.2124 16.4043 30.7375 16.6832 31 17.2296 30.7375 18.0493 30.4749 19.9618 28.6373 22.1475 26.2691 24.06 23.6438 25.6993 23.9063 27.0654 23.6438 28.4371 23.1187 29.8032 22.5937 31.4425 21.5436 32.8086 20.2309 33.9014 18.6558 34.4479 16.8181 34.9943 14.9749 34.7211 13.1373 34.4479 11.2996 33.6282 9.72442 31.1693 5.51852 30.3496 4.20589 28.9836 2.89326 27.6175 2.10568 26.2457 1.3181 24.6064 1.05558 22.9671 0.793049 21.0546 0.793049 19.4154 1.3181 16.1311 0.793049 11.4864 0.267996 9.02748 0.0054693Z" fill="#D3641A" fill-rule="evenodd" transform="matrix(-1 0 0 1 565 321)"/><path d="M87.1967 0.00547885 85.0179 0.268464 82.5667 1.05742 72.2119 4.47622 60.7676 8.68946 49.051 13.1602 37.3343 17.8939 26.1624 22.8961 15.8075 27.8928 11.1719 30.2652 7.08671 32.895 3.26817 35.5249 0 37.8917 5.72498 50 105.728 18.9513 106 16.842 105.728 14.4751 105.455 12.3712 104.638 10.2674 103.549 8.42647 102.459 6.84309 101.098 5.26518 99.458 3.68727 97.8239 2.63533 95.9175 1.58339 93.7387 0.794433 91.8322 0.268464 89.3754 0.00547885Z" fill="#D3641A" fill-rule="evenodd" transform="matrix(-1 0 0 1 541 288)"/><path d="M50.9944 0.0053686 47.4701 1.29383 42.0482 3.35538 28.4821 8.76692 10.8551 15.9877 9.22857 15.2146 7.86744 14.9569 6.51196 14.6992 5.96977 14.9569 5.69867 15.4723 5.69867 16.7608 5.96977 18.0492 6.24086 18.5646 5.69867 18.5646 4.07209 18.3069 3.2588 18.5646 2.17442 18.8223 1.36113 19.3377 0.276744 19.8531 0.00564784 20.6315 0.00564784 21.6623 0.276744 24.2392 1.36113 27.5892 2.71661 30.9446 5.15648 37.3869 6.51196 40.2215 7.59634 40.7369 8.13854 41 8.68638 40.7369 9.22857 40.4792 9.49967 39.9639 9.49967 39.7062 11.9395 40.2215 12.4817 40.2215 13.0239 39.9639 13.5661 39.7062 13.8372 39.1908 14.1083 37.9023 14.1083 37.3869 48.0123 27.8469 50.9944 0.0053686Z" fill="#4D6D81" fill-rule="evenodd" transform="matrix(-1 0 0 1 535 296)"/><path d="M4.24967 0.00540432 0 1.82126 0.249675 8.05244 0.749025 14.797 1.25358 21.2876 2.25228 26.9946 7.9948 25.4382 7.49545 25.1787 7.24577 24.6599 6.49675 22.5847 5.74772 19.4718 5.24837 15.5753 4.49935 7.26881 4.24967 0.00540432Z" fill="#4A687C" fill-rule="evenodd" transform="matrix(-1 0 0 1 495 299)"/><path d="M43 0 36.3833 1.04469 22.3292 3.90271 14.6107 5.46162 7.72428 7.02054 2.76031 8.31964 1.10757 9.0991 0.556653 9.61874 0.281196 10.1384 0.00573869 11.4429 0.00573869 15.0804 0.281196 20.0169 0.556653 25.2187 1.38302 30.4151 2.2094 34.8375 3.03577 37.6955 3.58668 38.7348 4.1376 38.9946 6.34125 38.4749 10.7543 37.4357 22.6047 34.058 38.8624 29.3758 43 0Z" fill="#FFDA73" fill-rule="evenodd" transform="matrix(-1 0 0 1 491 285)"/><path d="M0.00566592 0 3.26923 6.89816 6.5328 13.791 11.1619 21.7103 13.6095 26.0556 16.3292 30.1402 19.0488 33.9696 21.7741 37.5489 24.7657 40.8677 27.4854 43.4206 30.477 45.4683 31.8368 46.2341 33.2023 46.4894 34.5621 47 35.9219 47 39.1855 46.7447 42.1771 46.2341 45.1743 44.9524 48.4379 43.4206 51.7015 41.6336 54.6987 39.5913 57.4184 37.2937 62.8577 32.9484 66.9428 29.119 70.7503 25.0344 72.654 26.8214 76.4672 30.3955 78.6429 31.9272 80.5467 33.2037 81.3625 33.459 82.1784 33.7143 82.7224 33.459 82.9943 32.9484 82.9943 32.4378 82.7224 31.4167 81.3625 28.6085 79.1868 25.2897 76.7392 21.7103 72.1101 15.5833 69.9344 13.0251 43.5426 27.8426 34.2901 6.64287 0.00566592 0Z" fill="#D3641A" fill-rule="evenodd" transform="matrix(-1 0 0 1 450 364)"/><path d="M4.06901 0 2.4414 9.33375 1.35634 19.1857 0.271267 30.5925 0 36.5576 0 42.2583 0.271267 47.9643 0.813801 53.1468 1.6276 57.8163 2.4414 59.6302 2.98394 61.444 3.79774 63.2579 4.88846 64.5535 5.97353 65.5954 7.32986 66.3727 13.0265 68.9639 19.5425 71.296 26.3242 73.369 33.1115 75.1828 43.9679 78.0386 48.5851 79.075 49.1276 81.148 50.7552 85.8122 51.8403 87.8905 52.9253 89.7044 53.4679 90.4818 54.0104 90.7409 54.5529 91 55.0955 90.7409 55.638 89.9635 55.9093 88.927 56.4518 85.2939 56.7231 80.6298 56.9944 75.7065 56.7231 66.3727 56.7231 62.2214 52.3828 61.1849 42.3403 58.3346 36.9093 56.5207 32.0265 54.7015 29.8563 53.665 28.2287 52.6285 26.8724 51.592 26.0529 50.5556 25.7817 49.2599 25.5104 47.4461 25.2391 41.74 25.5104 35.0029 26.0529 27.483 27.1437 14.0033 27.6862 8.29727 4.06901 0Z" fill="#D3641A" fill-rule="evenodd" transform="matrix(-1 0 0 1 477 354)"/><path d="M3.81457 0.00534991 2.72632 8.47961 1.63806 17.216 0.549798 27.4932 0.277733 32.8913 0.00566802 38.284 0.00566802 43.1684 0.277733 48.0476 0.821862 52.1617 1.91012 56.0136 2.45425 57.5544 2.99838 58.8383 3.81457 59.8655 4.90283 60.6413 6.80729 62.182 9.5336 63.466 12.2543 64.75 15.519 66.034 22.0542 68.3451 28.8615 70.1427 35.119 71.9456 40.2939 72.9728 45.1911 74 47.9117 52.932 44.919 52.1617 38.1117 49.5883 34.5749 48.0476 31.5822 46.25 30.4939 45.2228 29.4057 44.4524 28.8615 43.4252 28.5838 42.6549 29.6777 26.9796 30.766 14.9049 33.2146 20.8165 36.2073 26.7228 39.7498 33.6617 41.9263 37.2568 44.3749 40.6005 46.8235 43.9388 49.2721 47.0204 51.9984 49.5883 54.719 51.6481 56.3514 52.4184 57.7117 52.932 59.0721 53.4456 60.7045 53.7024 63.7028 53.9592 66.6955 53.4456 69.6883 52.6752 72.9587 51.6481 76.2235 50.3641 79.2162 48.818 85.2073 45.4796 90.3765 41.8845 94.4632 38.7976 98 35.716 91.1927 21.5869 73.5028 30.8369 65.6073 15.932 3.81457 0.00534991Z" fill="#82B7F8" fill-rule="evenodd" transform="matrix(-1 0 0 1 479 359)"/><path d="M0.55111 0.00542986 0 4.17557 66.9943 18 65.6165 15.6489 0.826664 0.266063 0.55111 0.00542986Z" fill="#95BFF4" fill-rule="evenodd" transform="matrix(-1 0 0 1 477 363)"/><path d="M9.6543 0.00527983 9.39367 0.512144 9.39367 1.01901 9.13303 3.29989 9.13303 10.1478 9.39367 19.7835 9.13303 19.0232 8.61176 17.5026 7.56923 15.7233 6.78733 14.963 6.00543 14.2027 5.2181 13.9493 4.4362 13.9493 3.39367 14.4562 2.61176 14.963 1.3086 16.4889 0.00542986 18.0095 0.00542986 18.5164 0.00542986 19.0232 0.266063 20.037 1.04796 21.0507 2.0905 22.0644 4.17557 23.8384 5.2181 24.5987 6.00543 26.378 8.0905 30.1795 9.39367 31.9535 10.9575 33.7276 12.5213 34.7413 13.3032 34.9947 14.3457 34.9947 14.867 34.4879 15.3882 33.4741 15.9149 31.7001 16.4362 29.4192 17.2181 24.0919 17.7394 18.0095 18 11.9219 18 6.34636 18 2.5396 17.7394 0.765575 17.2181 0.258712 16.4362 0.00527983Z" fill="#FDFDFD" fill-rule="evenodd" transform="matrix(-1 0 0 1 434 414)"/><path d="M14.113 0.00539164 11.9435 0.26419 10.3164 0.26419 10.0452 0.781788 10.0452 1.81698 9.77401 4.40497 9.77401 7.77475 9.77401 16.3151 10.0452 20.4613 9.77401 19.6849 9.23164 18.1321 8.14689 16.3151 7.33333 15.5387 6.51977 14.7623 5.42938 14.5035 4.34463 14.7623 2.9887 15.5387 1.90395 16.5793 1.0904 17.6145 0.276836 18.6497 0.00564972 19.4261 0.276836 20.2025 1.0904 21.2377 2.9887 23.3081 4.88701 24.8609 5.70056 25.3785 6.51977 26.9366 8.68927 30.8186 10.0452 32.6302 11.4011 34.4418 13.0282 35.7358 13.8418 35.9946 14.9266 35.9946 15.4689 35.7358 16.0113 35.2182 16.8305 32.889 17.6441 29.7834 18.1864 25.6373 18.7288 16.8381 19 8.29235 19 3.11098 18.7288 1.04059 18.1864 0.522989 17.1017 0.26419 14.113 0.00539164Z" fill="#F8F8F8" fill-rule="evenodd" transform="matrix(-1 0 0 1 435 413)"/><path d="M10.0346 0.00531834 9.76367 0.515879 9.76367 1.02644 9.49277 3.32396 9.49277 10.2219 9.76367 19.9278 9.49277 19.162 8.95097 17.6303 7.86737 15.838 7.05467 15.0722 6.24198 14.3063 5.42363 14.0511 4.61093 14.0511 3.52734 14.5616 2.71464 15.0722 1.36014 16.6092 0.00564374 18.1409 0.00564374 18.6514 0.00564374 19.162 0.276543 20.1831 1.08924 21.2042 2.17284 22.2253 4.34003 24.0123 5.42363 24.7781 5.97108 26.0546 7.86737 29.1232 8.95097 30.9102 10.0346 32.4419 11.3891 33.9736 12.7436 34.9947 13.2854 33.463 13.8272 31.676 14.6399 27.3363 15.1817 22.4806 15.4526 17.1197 15.9944 6.90321 15.9944 0.00531834Z" fill="#FF6B6B" fill-rule="evenodd" transform="matrix(-1 0 0 1 434 414)"/><path d="M6.74707 0 4.21912 0.256137 2.25293 1.02455 0.00585176 1.54216 1.41027 3.84739 3.09558 6.15261 4.78088 8.45784 5.90442 9.22625 6.74707 9.99466 7.58973 7.94557 8.15149 5.64034 8.99415 0Z" fill="#FDFDFD" fill-rule="evenodd" transform="matrix(-1 0 0 1 428 439)"/><path d="M6.86914 0.00554063 6.04553 0.271491 3.84923 1.60124 1.64722 2.93099 0.274537 3.9948 0 4.5267 0.274537 5.0586 1.64722 7.1862 5.49645 13.0426 11.5363 21.5586 10.9872 21.0267 9.33997 19.9629 7.41821 18.8991 6.32006 18.6331 5.22192 18.6331 4.39831 18.8991 3.5747 19.431 3.02562 19.9629 2.74537 21.0267 2.19629 23.1543 2.19629 25.2819 2.19629 25.8138 2.47083 26.0798 3.5747 26.8776 4.94738 27.1436 6.5946 27.6755 9.33997 27.9414 10.7127 28.2074 12.3599 29.2767 16.4836 31.4043 18.9545 32.2021 21.1508 33 23.0725 33 23.8961 32.734 24.7255 32.4681 24.7255 31.9362 25 31.6702 25 30.0745 24.4452 28.4788 23.6216 26.0798 21.1508 21.0267 17.8563 15.4362 14.2873 9.85124 11.2617 5.0586 8.79089 1.60124 7.69275 0.271491 6.86914 0.00554063Z" fill="#FDFDFD" fill-rule="evenodd" transform="matrix(-1 0 0 1 388 371)"/><path d="M7.14367 0.00554063 6.32006 0.271491 5.49645 0.537441 3.30016 1.86719 1.37268 3.19694 0.274537 3.9948 0 4.26075 0.549073 5.5905 1.92176 7.72364 5.77099 13.5745 11.5363 21.5586 9.6145 19.9629 7.69275 18.8991 6.5946 18.6331 4.94738 18.6331 4.12377 18.8991 3.5747 19.431 3.02562 20.2288 2.74537 21.0267 2.19629 22.8883 2.19629 24.75 2.19629 25.2819 2.19629 25.8138 2.47083 26.0798 3.5747 26.8776 4.94738 27.1436 6.5946 27.6755 9.33997 27.9414 10.7127 28.2074 11.8108 28.7448 15.111 30.6064 18.9545 32.2021 20.8762 32.734 22.5234 33 23.6216 33 24.7255 32.4681 25 31.9362 25 31.1383 24.7255 29.8086 24.1707 28.2074 22.5234 23.6862 19.7781 18.8991 16.7582 13.5745 10.7127 4.26075 8.51636 1.33529 7.69275 0.271491 7.14367 0.00554063Z" fill="#F8F8F8" fill-rule="evenodd" transform="matrix(-1 0 0 1 388 371)"/><path d="M4.98997 0.00550585 1.9383 1.85547 0.2769 3.17688 0 3.70544 0.2769 4.234 1.6614 6.34825 5.54377 12.1679 11.6356 20.6304 11.0818 20.1019 9.42037 19.0447 7.48207 17.9876 6.37447 17.7233 5.26687 17.7233 4.43617 17.9876 3.60547 18.5162 3.05167 19.0447 2.769 20.1019 2.2152 22.2161 2.2152 24.3304 2.2152 24.8589 2.4921 25.1232 3.60547 25.916 4.98997 26.1803 6.65137 26.7089 9.42037 26.9732 10.8049 27.2374 12.1894 28.0358 15.241 29.6215 17.4562 30.6786 19.3945 31.4714 21.3328 32 22.9942 32 22.7173 30.4143 22.1635 28.5644 20.2252 24.5946 17.7331 19.8376 14.9641 15.075 9.14347 6.08396 4.98997 0.00550585Z" fill="#FF6B6B" fill-rule="evenodd" transform="matrix(-1 0 0 1 388 372)"/><path d="M6.83633 0 4.75759 1.35059 2.97582 2.9713 1.19404 4.59201 0 6.21835 2.38189 7.56894 5.35152 8.64941 8.32115 9.72988 9.80596 10 10.9938 10 10.3999 8.10917 9.509 5.67811 6.83633 0Z" fill="#FDFDFD" fill-rule="evenodd" transform="matrix(-1 0 0 1 376 394)"/><path d="M31.2641 0 29.0519 0.51883 27.387 1.03766 26.0044 1.82131 24.3453 3.11839 22.6862 4.67488 21.3036 6.49078 19.6445 8.56611 16.6027 13.5004 13.8318 18.9481 11.0666 25.1795 8.57789 31.6649 6.36573 38.6745 4.42433 45.4247 2.7652 52.1695 1.3826 58.4008 0.553041 64.3728 0 69.5611 0 73.7117 0.27652 75.5331 0.553041 77.0895 1.10608 78.1272 1.93564 79.1649 69.1647 95 69.1647 95 68.3351 94.2163 68.0586 93.1787 67.5056 90.5845 67.229 87.2121 67.229 82.7967 68.0586 72.4147 69.1647 60.4762 69.7177 53.9908 69.9942 47.5 69.9942 41.0092 69.9942 34.5238 69.4412 28.2925 68.3351 22.3205 67.7821 19.7264 66.9525 16.8728 65.8464 14.2786 64.7403 11.9385 63.9108 10.6414 62.8047 9.60377 61.1456 8.30669 59.4807 7.00961 54.7799 4.93429 49.8025 2.85897 44.2663 1.29708 38.7359 0.259415 35.9649 0Z" fill="#FFDA73" fill-rule="evenodd" transform="matrix(-1 0 0 1 478 284)"/><path d="M31.2641 0 29.0519 0.51883 27.6693 1.03766 26.281 1.55649 25.1749 2.59956 23.7923 3.63722 21.0271 6.49078 18.5384 10.1226 16.0439 14.5381 13.8318 19.2075 11.3431 24.4012 9.40746 29.849 7.19529 35.5615 5.53617 41.2686 3.87129 46.9812 2.48868 52.4289 1.3826 57.882 0.553041 62.8109 0.27652 67.4858 0 71.377 0 73.9766 0.553041 76.3113 1.10608 77.8678 1.93564 79.1649 69.1647 95 68.0586 93.6975 67.5056 91.8816 67.229 89.2875 67.229 86.1745 67.229 82.0184 67.5056 77.349 68.6116 66.1887 69.7177 53.9908 69.9942 47.7594 69.9942 41.2686 69.7177 33.2268 69.4412 29.3301 68.8882 25.4389 68.3351 21.8017 67.229 18.4293 66.1229 15.0569 64.7403 11.9385 63.6343 10.1226 61.6986 8.56611 56.439 7.52844 55.6094 8.82552 54.7799 10.1226 53.6738 11.1603 52.5677 12.2033 51.4616 12.9816 50.079 13.5004 48.4141 14.0192 45.3724 14.0192 43.7133 13.5004 41.7776 12.7222 40.395 11.4197 39.2889 10.1226 38.1771 8.30669 37.6241 6.49078 37.3475 4.67488 37.6241 2.59956 38.4594 0.259415 40.395 0.51883 37.071 0Z" fill="#FFE499" fill-rule="evenodd" transform="matrix(-1 0 0 1 478 284)"/><path d="M1.0904 0 0.271186 2.38099 0 4.49254 0.271186 6.34014 0.813559 8.18775 1.90395 10.0353 2.9887 11.3551 4.34463 12.6803 6.24294 13.4721 7.87006 14 9.76836 14 11.6667 13.7361 13.5706 13.2082 15.1977 12.1524 16.5537 10.8272 17.6384 9.24352 18.452 7.39592 18.9944 5.54831 14.9266 3.70071 10.3107 2.11705 5.70056 0.79183 1.0904 0Z" fill="#FFDA73" fill-rule="evenodd" transform="matrix(-1 0 0 1 441 284)"/><path d="M2.5667 0 0.00533618 7.92788 7.95091 10.9947 10 2.04453 2.5667 0Z" fill="#D3641A" fill-rule="evenodd" transform="matrix(-1 0 0 1 436 282)"/><path d="M1.32742 0.00539291 0.00550796 3.88829 8.20685 6.99461 9 3.62943 5.29315 2.07627 1.5918 0.00539291Z" fill="#BF5011" fill-rule="evenodd" transform="matrix(-1 0 0 1 436 286)"/><path d="M16.8619 0 13.5471 0.519344 10.5085 1.82311 7.46412 3.38115 4.978 5.7182 3.87305 7.01656 2.76811 8.31492 1.9394 9.87295 1.38693 11.4364 0.28199 14.5525 0.00575491 17.9282 0.28199 21.0443 1.38693 23.9061 1.9394 25.4641 2.76811 26.7625 3.87305 27.8011 4.978 29.0995 6.08294 30.1382 7.74035 30.9172 9.12153 31.7016 10.5085 32.221 12.1659 32.7403 13.8233 33 17.1381 33 20.4529 32.4807 23.4973 31.1769 26.2596 29.6189 29.022 27.2818 30.1269 25.9834 30.9557 24.4254 32.0606 23.127 32.6188 21.569 33.7238 18.1879 34 15.0718 33.4475 11.9557 32.6188 9.09393 31.7844 7.5359 30.9557 6.23754 30.1269 4.93918 29.022 3.90049 27.6408 2.8618 26.2596 2.08279 24.8785 1.30377 23.2211 0.784426 21.5636 0.259672 20.1767 0Z" fill="#D3641A" fill-rule="evenodd" transform="matrix(-1 0 0 1 483 203)"/><path d="M9.11923 0.00555093 8.04769 0.271996 6.70827 0.804885 5.63673 1.33777 4.29173 2.13711 3.48808 2.93644 2.41654 4.00222 1.61289 5.068 0.809234 6.93866 0.273465 9.07022 0.00558092 10.9353 0.273465 12.8004 0.809234 14.6656 1.61289 16.2698 2.68442 17.602 4.29173 18.6678 6.44039 19.7336 8.58346 20 9.655 17.602 9.655 13.0669 9.92288 8.53733 10.1908 4.26866 10.9944 0.00555093Z" fill="#BF5011" fill-rule="evenodd" transform="matrix(-1 0 0 1 478 208)"/><path d="M51.2303 0 46.8259 0.257502 42.691 1.03001 38.2865 2.06538 33.8821 3.6104 30.0225 5.41292 25.8933 7.73044 22.3147 10.048 18.7304 12.8859 15.7023 15.7184 12.6742 19.0659 10.191 22.6763 6.33712 28.3414 4.1349 32.2093 2.48323 35.8143 1.38212 39.6768 0.55629 43.8022 0.00573495 47.6648 0.00573495 51.5273 0.55629 55.6527 1.38212 59.5153 2.48323 63.1257 4.1349 66.9882 6.06184 70.3357 8.26407 73.6886 11.0226 76.7787 14.0506 79.8687 17.354 82.4437 21.2079 84.7666 37.1854 93.7846 41.3146 95.8446 45.4495 97.6471 49.8539 98.9346 54.5394 99.9646 59.2191 100.737 63.6236 100.995 68.309 100.995 72.7135 100.48 77.1236 99.4496 81.2528 98.1621 84.8314 96.3596 88.4158 94.0421 89.7921 92.7492 91.4438 91.2042 92.8202 89.6592 93.9213 88.1141 95.0224 86.3116 95.8483 84.2516 96.6741 82.4437 97.4999 80.1262 101.084 74.4611 103.562 70.5932 105.489 66.7307 107.14 62.8682 108.798 59.0003 109.899 54.8802 110.725 51.0123 111 47.1498 111 43.0297 110.449 39.4193 109.624 35.5568 107.966 31.9464 106.039 28.5989 103.286 25.5088 99.9832 22.6763 96.1235 19.8384 91.4438 17.5209 72.4382 5.15542 68.309 3.09539 64.1741 1.55038 60.0449 0.772508 55.6405 0.257502 51.2303 0Z" fill="#D3641A" fill-rule="evenodd" transform="matrix(-1 0 0 1 472 192)"/><path d="M16.8619 0 13.5471 0.519344 10.5027 1.8177 7.74035 3.38115 4.978 5.7182 3.87305 7.01656 2.76811 8.57459 1.93365 9.87295 1.38118 11.431 0.276236 14.8121 0 17.9282 0.276236 21.0443 1.38118 23.9061 1.93365 25.4641 2.76811 26.7625 3.87305 28.0608 4.978 29.0995 6.35917 30.1382 7.74035 30.9172 9.12153 31.6962 10.7789 32.2156 12.1601 32.7349 13.8233 32.9946 17.1381 32.9946 20.4529 32.4752 23.4915 31.1769 26.2596 29.6189 29.022 27.2818 30.1269 25.9834 30.9557 24.6851 32.0606 23.127 32.6131 21.5636 33.718 18.1879 33.9942 15.0718 33.4418 11.9503 32.6131 9.09393 32.0606 7.5359 30.9557 6.23754 30.1269 5.19885 29.022 3.90049 27.6408 2.8618 26.2596 2.07738 24.8785 1.29836 23.2153 0.779016 21.8341 0.259672 20.1767 0Z" fill="#D3641A" fill-rule="evenodd" transform="matrix(-1 0 0 1 388 253)"/><path d="M8.97543 0.00527338 7.65713 0.258396 6.60249 0.764641 5.54785 1.27089 4.22405 2.03025 3.16941 2.78962 2.37843 3.80211 1.58745 4.8146 0.796473 6.59173 0.269153 8.61671 0.00549292 10.3886 0.269153 12.1604 0.796473 13.9323 1.58745 15.451 2.64209 16.7219 4.22405 17.9875 5.27869 18.4938 6.33883 18.7469 7.65713 19 10.0301 19 11.3484 18.7469 12.403 18.2406 13.7213 17.7344 14.7759 16.975 15.8306 16.2157 16.6271 15.1979 17.418 14.1854 18.4727 12.4135 19 10.6417 19 8.61671 18.7363 6.84485 18.209 5.32084 17.418 3.80211 16.3634 2.28337 14.7759 1.27089 13.7213 0.764641 12.6667 0.258396 11.3484 0.00527338Z" fill="#BF5011" fill-rule="evenodd" transform="matrix(-1 0 0 1 380 260)"/><path d="M6.63967 0 5.31285 0.272521 3.98602 0.817562 2.92455 1.3626 1.86309 2.18017 1.06699 2.99773 0.53626 4.08781 0.00552846 5.45609 0.00552846 6.8187 0.270894 8.45382 0.801626 9.81643 1.59772 11.179 2.92455 12.2691 4.25138 13.3592 5.84358 14.1768 7.70667 14.7218 10.3603 14.9943 11.9525 14.9943 13.5447 14.7218 14.8715 14.1768 15.933 13.3592 15.6676 11.179 15.6676 8.72634 16.1984 6.27366 16.9945 3.81529 15.6676 2.45269 14.3408 1.63512 12.7486 0.817562 10.8911 0.272521 8.2374 0Z" fill="#BF5011" fill-rule="evenodd" transform="matrix(-1 0 0 1 404 260)"/><path d="M1.24783 0 0.499133 2.31688 0 4.62842 0 6.93995 0.249567 8.99465 1.24783 8.48098 1.99653 7.45363 2.50087 6.42628 2.75043 5.39893 3 4.11474 2.75043 2.57372 1.99653 1.28954 1.24783 0Z" fill="#BF5011" fill-rule="evenodd" transform="matrix(-1 0 0 1 388 264)"/><path d="M8.80935 0.00550796 6.33333 0.534272 4.13243 1.32742 3.03198 1.85618 1.93152 2.64933 0.280845 4.76438 0.00573152 5.29315 0.280845 5.82191 0.831071 5.82191 1.3813 5.55753 2.20664 4.76438 3.30709 3.97124 5.50799 2.91371 7.98401 2.38494 10.4658 2.38494 12.6667 2.64933 13.7671 3.17809 14.5925 3.70685 15.6929 4.76438 16.2431 5.82191 16.7934 7.14382 17.3436 8.46573 17.3436 8.73011 17.6187 8.99449 18.1689 8.99449 18.9943 8.73011 18.9943 8.46573 18.9943 7.93696 18.1689 5.82191 17.0685 3.70685 15.4178 2.12056 13.2169 0.798654 12.1164 0.534272 11.016 0.26989 8.80935 0.00550796Z" fill="#4D2A22" fill-rule="evenodd" transform="matrix(-1 0 0 1 438 205)"/><path d="M4.88183 0 3.25644 0.249783 1.90194 0.499566 0.547443 1.24892 0.276543 1.4987 0.00564374 1.74848 0.276543 2.24805 0.818342 2.74761 1.36014 2.74761 2.44374 2.24805 3.79824 1.99827 4.88183 1.74848 5.96543 1.74848 7.31993 1.99827 8.40917 2.49783 10.3055 3.75195 11.9309 5.25065 13.0145 6.99913 14.0981 8.9974 14.0981 10.2463 14.0981 11.2454 14.369 11.745 14.9108 11.9948 15.4526 11.745 15.7235 11.2454 15.9944 9.74675 15.7235 8.49783 15.4526 7.24892 14.9108 6.24978 14.369 5.00087 13.5563 4.00173 11.3891 2.24805 10.3055 1.4987 8.95097 0.999133 7.59083 0.499566 6.23633 0.249783 4.88183 0Z" fill="#4D2A22" fill-rule="evenodd" transform="matrix(-1 0 0 1 393 221)"/><path d="M7.26385 0 5.30976 0.254058 3.35568 0.762174 1.9599 1.77841 0.843281 3.05399 0.284971 4.32428 0.00581573 5.84862 0.284971 7.11891 0.564126 8.64326 1.40159 10.1676 2.51821 11.4379 3.91399 12.4541 5.58892 13.4757 7.26385 14.2378 8.65963 14.7459 10.3346 15 13.6902 15 15.6443 14.2378 17.0401 13.2216 18.1567 11.946 18.715 10.6757 18.9942 9.40543 18.715 7.88109 18.4359 6.35674 17.5984 5.08645 16.2026 3.81616 14.8069 2.54587 13.1319 1.52435 11.7361 0.762174 10.3346 0.254058 8.65963 0Z" fill="#BF5011" fill-rule="evenodd" transform="matrix(-1 0 0 1 461 232)"/><path d="M13.2154 0 11.0596 0.259838 9.16772 0.779513 7.2814 1.55903 5.66456 2.86363 4.31719 4.42265 3.2393 6.24152 0.814035 11.1784 0.275088 13.2625 0.00561403 15.3412 0.275088 17.4199 0.814035 19.2388 1.62246 21.0577 2.96982 22.6167 4.58667 23.9213 6.47298 24.9606 8.62877 25.7402 10.5207 26 12.6765 25.7402 14.8323 25.2205 16.4491 24.1811 18.3354 23.1364 19.6828 21.5773 20.7663 19.7585 22.9221 14.5617 23.7305 12.4776 24 10.6588 23.7305 8.58005 23.1916 6.76119 22.1137 4.94233 21.0358 3.3833 19.4133 1.81886 17.527 0.779513 15.3712 0.259838 13.2154 0Z" fill="#FDFDFD" fill-rule="evenodd" transform="matrix(-1 0 0 1 406 232)"/><path d="M9.96542 0 8.02882 0.7759 6.09222 2.06907 4.43228 3.62626 3.32565 5.69532 0.835735 10.6094 0.559078 11.9025 0.00576369 13.2011 0.00576369 14.4942 0.00576369 15.7874 0.282421 17.0806 0.559078 18.3737 1.94236 20.7014 3.04899 21.2187 4.98559 21.736 6.92219 21.9946 8.85879 21.4773 10.8012 20.9601 12.7378 19.6669 14.3977 18.3737 15.781 16.5633 16.8876 14.4942 17.7176 12.4198 17.9942 10.3507 17.9942 8.28166 17.7176 6.21259 16.8876 4.40215 15.781 2.85036 14.3977 1.5518 12.7378 0.517267 11.3545 0.258633 9.96542 0Z" fill="#210A06" fill-rule="evenodd" transform="matrix(-1 0 0 1 406 232)"/><path d="M5.90403 0.00543109 4.56347 0.266124 3.22292 1.0482 2.15047 2.09097 1.34614 3.65513 0.541808 4.95859 0.268111 6.78343 0 8.60828 0 10.4386 0.541808 12.5241 1.07803 14.3489 2.15047 16.1738 3.75914 17.9986 5.63592 19.5628 8.04892 21.1324 11.8081 22.4358 15.2935 23.4786 18.2427 24 20.9238 23.7393 23.3424 23.4786 25.7554 22.6965 27.6322 21.6538 29.2409 20.3449 30.3133 18.7807 31.3857 17.2166 32.1901 15.6524 32.7319 14.0883 33 12.5241 33 10.9599 32.7319 9.65105 32.1901 8.86897 30.8495 7.56551 29.509 6.78343 28.1684 6.52274 26.2916 6.26205 23.6105 6.00136 19.8514 4.95859 15.0254 3.39443 8.58514 0.526816 7.24458 0.00543109Z" fill="#FDFDFD" fill-rule="evenodd" transform="matrix(-1 0 0 1 440 245)"/><path d="M1.71259 0.00489596 1.71259 0.239902 0.570862 1.88494 0.285431 2.82497 0 3.29498 0 3.76499 0.285431 4 0.856293 4 1.14172 3.52999 1.14172 3.05998 1.42716 2.11995 1.96234 1.0918 1.96234 1.0918 1.99802 1.17993 2.28345 2.11995 2.86026 3.52999 2.86026 3.76499 3.71655 3.76499 6 2.11995 6 1.64994 6 1.41493 5.71457 1.17993 5.14371 1.41493 3.59762 2.52632 3.59762 2.52632 3.14569 1.64994 2.86026 1.17993 2.28345 0.239902 2.28345 0.00489596Z" fill="#4D2A22" fill-rule="evenodd" transform="matrix(-1 0 0 1 421 235)"/><path d="M12.4971 0.00546678 10.2764 0.530278 8.33333 1.31749 6.66782 2.36712 5.00231 3.94155 3.88619 5.77838 1.11034 10.7696 0.277585 12.6064 0 14.7056 0 16.8049 0.55517 18.6417 1.38793 20.4786 2.77585 22.3209 4.16377 23.6329 6.11265 24.9449 8.33333 25.4697 10.554 25.9945 12.4971 25.9945 14.7178 25.4697 16.6667 24.6825 18.3322 23.3705 19.9977 22.0585 21.108 20.2161 23.6063 15.2304 24.439 13.1312 24.9942 11.032 24.7166 9.18966 24.439 7.09041 23.6063 5.25357 22.2184 3.67914 20.5529 2.10471 18.8873 1.05509 16.6667 0.267872 14.4402 0.00546678Z" fill="#FDFDFD" fill-rule="evenodd" transform="matrix(-1 0 0 1 445 214)"/><path d="M12.0153 0.00551655 10.0612 0.270311 8.10132 0.7999 6.14723 1.85908 4.4723 3.18305 2.79737 4.77182 1.68075 6.89569 0.564126 9.01404 0.00581573 11.1324 0.00581573 13.2508 0.284971 15.3691 0.843281 17.2282 1.9599 19.0817 3.35568 20.4057 5.03061 21.4649 6.14723 21.9945 8.93878 21.2001 10.3404 20.6705 11.457 20.1409 12.5736 19.3465 13.4111 18.2874 14.2485 17.2282 15.086 16.1635 17.5984 11.1324 18.4359 9.01404 18.9942 6.63089 18.715 4.50702 18.1567 2.38867 17.0401 1.59428 15.9235 0.7999 13.9694 0.00551655Z" fill="#210A06" fill-rule="evenodd" transform="matrix(-1 0 0 1 439 218)"/><path d="M44.0564 0 42.689 0.258264 41.5895 0.774793 40.7691 1.54959 40.2221 2.58264 39.9487 3.6157 39.9487 4.64876 40.2221 5.94546 40.7691 6.97851 42.4156 9.30289 44.0564 11.369 45.9706 13.1769 47.8849 14.7264 41.8686 13.6934 35.5732 12.6603 28.4575 11.6273 20.8004 10.8525 14.2316 10.5942 11.2235 10.5942 9.03004 11.1107 7.11579 11.6273 6.56886 11.8855 6.02193 12.4021 5.74846 13.4351 5.74846 14.4682 6.29539 15.243 7.11579 16.0231 8.20965 16.7979 9.85614 17.5727 13.1377 18.864 16.4193 19.8971 19.7009 20.6719 22.7147 21.4467 19.4274 22.738 12.5908 25.5789 8.48311 27.6504 4.92807 29.7165 1.91995 31.7826 0.826092 32.8157 0.279162 33.5905 0.00569719 34.6236 0.00569719 35.3983 0.279162 35.9202 0.826092 36.695 2.46688 37.7281 4.6546 38.2446 6.84232 38.7612 9.03004 39.0194 11.2235 39.2777 10.1296 41.3438 9.30921 43.6682 7.66272 48.3223 6.29539 51.6797 5.20153 55.0372 4.38114 58.6583 3.56074 62.274 3.01381 66.1479 2.46688 70.0273 2.46688 74.1595 2.46688 78.2971 3.01381 77.264 4.92807 74.4178 7.93618 70.2855 12.0439 65.1149 14.505 62.5322 17.2397 59.6913 20.527 57.1087 23.8085 54.5207 27.3636 52.1963 31.4713 50.1302 35.5732 48.3223 39.9487 46.7727 48.1583 47.8058 50.6195 49.0971 53.0864 50.905 54.1803 52.1963 55.2741 53.4876 56.368 54.7789 57.1884 56.5922 57.1884 55.812 57.1884 54.2624 57.1884 53.7459 57.7353 53.2293 58.2822 52.7128 59.1026 52.7128 59.923 53.4876 61.0169 54.5207 61.8373 56.0702 62.3842 57.6252 63.4838 60.4661 64.0307 61.7574 69.7735 60.2078 73.8754 59.4331 75.5219 59.1748 76.6158 59.1748 77.1627 59.4331 77.4362 59.9496 77.1627 60.4661 76.8893 61.2409 76.0689 62.5322 75.5219 63.0488 89.4743 63.5653 92.7559 66.4062 95.4906 70.0273 97.9575 73.643 98.7778 75.7091 99.5982 77.7806 100.419 80.1049 100.692 82.4293 101.239 84.7537 101.239 87.3417 101.239 89.9244 101.239 92.7653 100.692 95.6062 100.145 98.7107 96.5901 102.326 94.9436 104.134 93.5763 105.684 92.209 107.492 91.3886 109.563 90.8417 111.629 90.8417 113.954 107.534 107.492 109.449 109.047 111.636 110.855 113.551 113.437 114.371 114.987 115.191 116.536 115.738 118.091 116.012 119.899 116.012 121.965 115.738 123.773 114.918 125.839 113.824 128.164 112.457 130.493 110.543 132.818 108.902 134.367 106.987 135.659 105.341 136.692 103.427 137.467 101.786 137.725 100.145 137.983 98.5044 138.241 96.8636 137.983 94.1232 137.467 91.9355 136.95 89.7478 136.175 87.8335 137.725 85.6458 139.28 82.632 141.088 79.077 142.895 75.2485 144.445 73.055 144.962 71.1408 145.478 68.9531 145.736 66.4919 145.736 69.7735 145.995 73.602 145.736 78.53 145.478 84.2728 144.962 90.5682 143.67 93.8498 142.895 97.4105 141.862 100.966 140.571 104.247 139.28 107.808 137.467 111.363 135.659 114.645 133.593 117.932 131.01 120.94 128.164 123.948 125.064 126.683 121.707 129.423 118.091 131.611 113.954 133.798 109.305 135.439 104.393 137.08 98.969 138.174 93.2818 138.721 87.0781 138.994 80.3632 138.721 73.1264 138.447 68.2194 137.627 63.8235 136.533 59.4331 134.892 55.5537 133.252 51.6797 131.064 48.3223 128.876 44.9595 126.136 41.8603 123.401 39.0194 120.12 36.1785 116.832 33.5905 113.277 31.0079 109.722 28.6835 105.888 26.6174 97.4105 22.4797 93.5763 18.0893 89.7478 14.2099 85.9193 10.5942 82.3586 7.49504 79.077 4.90702 76.3423 3.09917 73.8754 2.06611 73.055 1.54959 71.6877 1.54959 71.1408 2.06611 70.5939 2.32438 70.3204 2.84091 70.0469 4.39049 70.0469 6.20372 70.3204 8.26984 70.8673 10.5942 72.2346 14.9847 69.7735 14.7264 66.4919 11.8855 62.6577 8.78636 58.8292 6.20372 54.7272 3.6157 50.6195 1.54959 47.0645 0.516528 45.4237 0Z" fill="#210A06" fill-rule="evenodd" transform="matrix(-1 0 0 1 471 147)"/><path d="M3.54826 0.00554785 2.45823 0.271845 1.36821 0.804438 0.550689 1.07074 0.00567721 1.86963 0.00567721 2.66852 0.278183 3.46741 0.823195 4.53259 1.91322 5.59778 3.27575 6.39667 4.63828 6.92927 6.54582 7.46186 8.18086 7.72816 12.0016 7.99445 15.5442 7.72816 18.5418 6.92927 19.6318 6.66297 20.455 5.86408 20.7275 5.33148 21 4.53259 20.455 3.46741 19.3593 2.66852 17.7242 1.86963 15.8167 1.33703 13.6367 0.538141 11.1841 0.271845 8.99838 0.00554785Z" fill="#422D29" fill-rule="evenodd" transform="matrix(-1 0 0 1 428 165)"/><path d="M7.90728 0.00519931 6.27247 0.254766 4.63765 0.504333 3.00284 1.00347 1.64049 1.5026 0.544938 2.2513 0 3 0 3.49913 0 3.7487 0.544938 4.74697 1.64049 5.2461 2.73037 5.74523 3.82025 5.9948 5.18259 5.9948 6.54494 5.74523 8.17975 5.49567 9.26963 5.2461 10.3595 4.4974 11.4551 3.99827 12 3.24957 12 2.2513 11.7275 1.5026 11.1769 0.753899 10.3595 0.254766 9.26963 0.00519931Z" fill="#422D29" fill-rule="evenodd" transform="matrix(-1 0 0 1 419 175)"/><path d="M3.31133 0 2.7604 0.2498 2.20947 0.4996 1.65854 1.249 1.1076 1.9984 0.281205 4.002 0.00573888 6.2502 0.00573888 8.4984 0.556671 10.4968 1.1076 11.496 1.65854 12.2454 2.48494 12.745 3.31133 12.9948 4.96413 12.9948 5.79053 12.745 6.61693 12.2454 6.8924 11.496 7.72453 9.7474 8 7.749 7.72453 5.5008 6.8924 3.5024 6.066 1.7486 5.2396 0.999199 4.4132 0.4996 3.86227 0Z" fill="#422D29" fill-rule="evenodd" transform="matrix(-1 0 0 1 349 221)"/><path d="M1.74818 0 1.49844 0.249711 0.74922 1.24855 0.24974 2.50231 0 4.25029 0 5.74855 0.49948 7.24682 1.2487 8.49538 1.74818 8.74509 2.24766 8.9948 3.24662 8.9948 3.7461 8.74509 4.49532 7.99595 5 6.7474 5 5.24913 5 3.75087 4.49532 2.2526 3.7461 0.998844 2.99688 0.249711 2.24766 0Z" fill="#422D29" fill-rule="evenodd" transform="matrix(-1 0 0 1 358 222)"/></g></svg>