<svg viewBox="0 0 230 242" fill="none" xmlns="http://www.w3.org/2000/svg">
  <path d="M203.745 33.865L101.25 60.84V186.12V193.92C101.265 205.96 86.8151 221.31 62.6601 230.625C35.4802 241.1 9.41514 239.575 4.44515 227.22C-0.524855 214.86 17.4851 196.355 44.6651 185.875C57.1801 181.05 68.2401 179.605 78.3301 179.75L78.3251 176.29V43.25L226.39 4.45496V147.85V155.65C226.405 167.69 209.5 183.345 185.345 192.655C158.165 203.13 132.1 201.605 127.13 189.25C122.16 176.89 140.17 158.385 167.35 147.905C179.865 143.08 193.65 140.01 203.74 140.16L203.735 136.7V33.865H203.745Z" fill="#EA5167"/>
  <path d="M28.9499 241.05C15.0249 241.05 4.51493 236.77 1.19993 228.52C-0.445069 224.44 -0.19007 219.695 1.92993 214.82C7.15993 202.8 23.0549 190.455 43.4049 182.61C53.8049 178.6 64.1249 176.515 74.8249 176.265V43.25C74.8249 41.66 75.8999 40.265 77.4349 39.865L225.495 1.06999C226.54 0.779986 227.665 1.01498 228.52 1.68498C229.38 2.34498 229.88 3.36999 229.88 4.45499V155.65C229.9 169.525 212.1 186.09 186.595 195.92C157.19 207.255 129.645 204.9 123.88 190.56C122.235 186.48 122.49 181.735 124.61 176.86C129.84 164.835 145.735 152.49 166.085 144.645C177.95 140.075 190.4 137.21 200.23 136.735V38.4L104.75 63.54V193.915C104.775 208.395 88.3649 224.46 63.9199 233.885C51.4149 238.705 39.2499 241.05 28.9499 241.05ZM77.0049 183.24C66.3899 183.24 56.2099 185.175 45.9249 189.14C27.5349 196.225 12.7899 207.4 8.34993 217.61C6.97493 220.775 6.74993 223.565 7.68993 225.91C11.3349 234.975 34.2899 237.805 61.3949 227.35C85.2749 218.14 97.7549 203.56 97.7449 193.915V60.84C97.7449 59.25 98.8199 57.86 100.355 57.455L202.85 30.475C203.895 30.185 205.02 30.43 205.875 31.085C206.735 31.75 207.235 32.775 207.235 33.86L207.24 140.16C207.24 141.1 206.865 141.995 206.2 142.655C205.53 143.315 204.785 143.74 203.69 143.665C194.215 143.6 181.155 146.335 168.605 151.175C150.22 158.26 135.47 169.435 131.03 179.65C129.655 182.815 129.43 185.605 130.37 187.95C134.015 197.015 156.955 199.84 184.07 189.385C209.295 179.67 222.89 164.755 222.875 155.655V8.99499L81.8299 45.95L81.8349 179.745C81.8349 180.685 81.4599 181.58 80.7949 182.24C80.1249 182.9 79.1999 183.215 78.2849 183.25C77.8549 183.24 77.4299 183.24 77.0049 183.24Z" fill="#472B29"/>
  <path d="M102.085 81.835L186.5 61.415L102.085 81.835Z" fill="#1F212B"/>
  <path d="M102.085 84.335C100.955 84.335 99.9301 83.57 99.6551 82.42C99.3351 81.08 100.16 79.73 101.5 79.4L185.915 58.98C187.27 58.68 188.61 59.49 188.935 60.825C189.26 62.16 188.43 63.515 187.09 63.845L102.675 84.265C102.475 84.31 102.275 84.335 102.085 84.335ZM173.895 184.895C173.325 184.895 172.81 184.505 172.68 183.93C172.525 183.255 172.945 182.58 173.615 182.43C190.135 178.615 203.8 170.365 209.51 164.305C209.985 163.805 210.77 163.785 211.28 164.255C211.78 164.73 211.8 165.52 211.33 166.025C205.375 172.345 191.21 180.935 174.185 184.865C174.08 184.885 173.99 184.895 173.895 184.895ZM156.36 186.965C153.36 186.965 150.41 186.78 147.545 186.405C146.86 186.31 146.38 185.685 146.465 185.005C146.555 184.315 147.18 183.86 147.865 183.925C151.355 184.39 155.005 184.565 158.69 184.43C159.27 184.465 159.96 184.95 159.985 185.635C160.01 186.33 159.465 186.905 158.78 186.93C157.975 186.95 157.17 186.965 156.36 186.965ZM28.1251 226.12C26.4251 226.12 24.8851 226.025 23.5351 225.85C22.8501 225.76 22.3701 225.13 22.4551 224.45C22.5451 223.76 23.1701 223.305 23.8551 223.37C32.1351 224.445 47.9201 222.195 63.1201 214.695C63.7351 214.39 64.4851 214.65 64.7951 215.265C65.1001 215.885 64.8451 216.63 64.2251 216.94C51.0101 223.455 37.2701 226.12 28.1251 226.12ZM48.8651 198.685C48.3651 198.685 47.9001 198.385 47.7051 197.9C47.4501 197.255 47.7651 196.53 48.4051 196.275C55.0601 193.625 61.7901 191.875 70.2301 190.6C70.9601 190.5 71.5501 190.965 71.6501 191.65C71.7501 192.335 71.2851 192.97 70.6001 193.07C62.3601 194.315 55.7951 196.02 49.3301 198.595C49.1801 198.655 49.0251 198.685 48.8651 198.685Z" fill="#472B29"/>
  <path d="M32.2899 207.25C31.8749 207.25 31.4699 207.045 31.2299 206.665C30.8649 206.08 31.0399 205.31 31.6249 204.94C34.1849 203.335 36.7099 201.875 39.1199 200.595C39.7299 200.285 40.4849 200.5 40.8099 201.115C41.1349 201.73 40.9049 202.48 40.2899 202.805C37.9299 204.055 35.4599 205.485 32.9499 207.065C32.7499 207.185 32.5199 207.25 32.2899 207.25Z" fill="#472B29"/>
  <path d="M73.7499 211C73.3349 211 72.9249 210.79 72.6849 210.41C72.3249 209.825 72.5049 209.055 73.0899 208.685C78.2599 205.48 82.7499 200.9 84.0049 199.57C84.4799 199.065 85.2649 199.045 85.7749 199.52C86.2749 199.995 86.2949 200.785 85.8249 201.29C84.5199 202.67 79.8449 207.45 74.4149 210.815C74.2049 210.94 73.9749 211 73.7499 211Z" fill="#472B29"/>
</svg>
