<svg viewBox="0 0 220 220" fill="none" xmlns="http://www.w3.org/2000/svg">
  <path d="M0 180V40C0 17.91 17.91 0 40 0H180C202.09 0 220 17.91 220 40V180C220 202.09 202.09 220 180 220H40C17.91 220 0 202.09 0 180Z" fill="#FED5B3"/>
  <path d="M185.415 4.78491H34.5852C18.1252 4.78491 4.78516 18.1249 4.78516 34.5849V68.7499H215.22V34.5849C215.215 18.1249 201.875 4.78491 185.415 4.78491Z" fill="#D68F53"/>
  <path d="M162.5 70H7.5C6.12 70 5 68.88 5 67.5C5 66.12 6.12 65 7.5 65H162.5C163.88 65 165 66.12 165 67.5C165 68.88 163.88 70 162.5 70Z" fill="#472B29"/>
  <path d="M217.5 70H187.5C186.12 70 185 68.88 185 67.5C185 66.12 186.12 65 187.5 65H217.5C218.88 65 220 66.12 220 67.5C220 68.88 218.88 70 217.5 70Z" fill="#472B29"/>
  <path d="M110 57.3901C103.091 57.3901 96.2501 58.7509 89.8672 61.3948C83.4842 64.0387 77.6845 67.914 72.7992 72.7992C67.914 77.6845 64.0387 83.4842 61.3948 89.8672C58.7509 96.2501 57.3901 103.091 57.3901 110C57.3901 116.909 58.7509 123.75 61.3948 130.133C64.0387 136.516 67.914 142.316 72.7992 147.201C77.6845 152.086 83.4842 155.962 89.8672 158.605C96.2501 161.249 103.091 162.61 110 162.61C116.909 162.61 123.75 161.249 130.133 158.605C136.516 155.962 142.316 152.086 147.201 147.201C152.086 142.316 155.962 136.516 158.605 130.133C161.249 123.75 162.61 116.909 162.61 110C162.61 103.091 161.249 96.2501 158.605 89.8672C155.962 83.4842 152.086 77.6845 147.201 72.7992C142.316 67.914 136.516 64.0387 130.133 61.3948C123.75 58.7509 116.909 57.3901 110 57.3901Z" fill="#FEFDEF"/>
  <path d="M110 165.105C79.615 165.105 54.895 140.385 54.895 110C54.895 79.615 79.615 54.895 110 54.895C140.385 54.895 165.105 79.615 165.105 110C165.105 140.385 140.385 165.105 110 165.105ZM110 59.895C82.375 59.895 59.895 82.375 59.895 110C59.895 137.625 82.375 160.105 110 160.105C137.625 160.105 160.105 137.625 160.105 110C160.105 82.375 137.625 59.895 110 59.895Z" fill="#472B29"/>
  <path d="M30 2.38989H29.78C24.4 2.38989 20 6.78989 20 12.1699V69.3499H30V2.38989Z" fill="#F15B6C"/>
  <path d="M110 76.52C101.121 76.52 92.6048 80.0474 86.3261 86.3261C80.0474 92.6048 76.52 101.121 76.52 110C76.52 118.879 80.0474 127.395 86.3261 133.674C92.6048 139.953 101.121 143.48 110 143.48C118.879 143.48 127.395 139.953 133.674 133.674C139.953 127.395 143.48 118.879 143.48 110C143.48 101.121 139.953 92.6048 133.674 86.3261C127.395 80.0474 118.879 76.52 110 76.52Z" fill="#8F9EB6"/>
  <path d="M93.2597 86.0898C91.6897 86.0898 90.1351 86.3991 88.6847 86.9999C87.2342 87.6007 85.9163 88.4813 84.8062 89.5914C83.6961 90.7015 82.8155 92.0194 82.2147 93.4699C81.6139 94.9203 81.3047 96.4749 81.3047 98.0449C81.3047 99.6148 81.6139 101.169 82.2147 102.62C82.8155 104.07 83.6961 105.388 84.8062 106.498C85.9163 107.608 87.2342 108.489 88.6847 109.09C90.1351 109.691 91.6897 110 93.2597 110C94.8296 110 96.3842 109.691 97.8347 109.09C99.2851 108.489 100.603 107.608 101.713 106.498C102.823 105.388 103.704 104.07 104.305 102.62C104.905 101.169 105.215 99.6148 105.215 98.0449C105.215 96.4749 104.905 94.9203 104.305 93.4699C103.704 92.0194 102.823 90.7015 101.713 89.5914C100.603 88.4813 99.2851 87.6007 97.8347 86.9999C96.3842 86.3991 94.8296 86.0898 93.2597 86.0898Z" fill="#77CBD2"/>
  <path d="M93.2598 112.5C85.2848 112.5 78.7998 106.015 78.7998 98.04C78.7998 90.07 85.2848 83.585 93.2598 83.585C101.235 83.585 107.72 90.07 107.72 98.04C107.72 106.015 101.235 112.5 93.2598 112.5ZM93.2598 88.59C88.0448 88.59 83.7998 92.83 83.7998 98.045C83.7998 103.26 88.0448 107.505 93.2598 107.505C98.4748 107.505 102.72 103.26 102.72 98.045C102.72 92.83 98.4748 88.59 93.2598 88.59Z" fill="#472B29"/>
  <path d="M162.5 22.5H192.5V52.5H162.5V22.5Z" fill="#B77748"/>
  <path d="M195 55H160V20H195V55ZM165 50H190V25H165V50Z" fill="#472B29"/>
  <path d="M30 4.78491H40V66.9599H30V4.78491Z" fill="#F9E65C"/>
  <path d="M40 4.78491H50V66.9599H40V4.78491Z" fill="#A1D3A2"/>
  <path d="M50 4.78491H60V66.9599H50V4.78491Z" fill="#39C2D8"/>
  <path d="M181.74 7C198.975 7 213 21.025 213 38.26V181.74C213 198.98 198.975 213 181.74 213H38.26C21.025 213 7 198.975 7 181.74V38.26C7 21.02 21.025 7 38.26 7H181.74ZM181.74 0H38.26C17.215 0 0 17.215 0 38.26V181.74C0 202.785 17.215 220 38.26 220H181.74C202.785 220 220 202.785 220 181.74V38.26C220 17.215 202.785 0 181.74 0Z" fill="#472B29"/>
  <path d="M51.3849 62.5H24.8649C21.1999 62.5 18.2349 65.855 18.2349 70C18.2349 74.145 21.1999 77.5 24.8649 77.5H51.3849C55.0499 77.5 58.0149 74.145 58.0149 70C58.0149 65.855 55.0499 62.5 51.3849 62.5Z" fill="#B77748"/>
  <path d="M51.385 80H24.86C19.825 80 15.73 75.515 15.73 70C15.73 64.485 19.825 60 24.86 60H51.385C56.42 60 60.515 64.485 60.515 70C60.515 75.515 56.42 80 51.385 80ZM24.865 65C22.59 65 20.735 67.24 20.735 70C20.735 72.76 22.59 75 24.865 75H51.39C53.665 75 55.52 72.76 55.52 70C55.52 67.24 53.665 65 51.39 65H24.865Z" fill="#472B29"/>
  <path d="M137.76 131.215C137.275 131.215 136.79 131.08 136.36 130.785C135.215 130.015 134.915 128.455 135.69 127.315C139.145 122.205 140.98 116.21 140.98 110C140.98 108.62 142.1 107.5 143.48 107.5C144.86 107.5 145.98 108.62 145.98 110C145.98 117.215 143.855 124.17 139.835 130.115C139.345 130.83 138.56 131.215 137.76 131.215Z" fill="#472B29"/>
  <path d="M110 145.975C90.1599 145.975 74.0249 129.835 74.0249 110C74.0249 90.1649 90.1649 74.0249 110 74.0249C122.83 74.0249 134.79 80.9399 141.2 92.0699C141.89 93.2699 141.48 94.7999 140.28 95.4899C139.08 96.1649 137.55 95.7649 136.86 94.5699C131.34 84.9799 121.045 79.0249 109.995 79.0249C92.9149 79.0249 79.0199 92.9199 79.0199 110C79.0199 127.08 92.9149 140.975 109.995 140.975C111.375 140.975 112.495 142.095 112.495 143.475C112.495 144.855 111.38 145.975 110 145.975Z" fill="#472B29"/>
</svg>
