<svg width="752" height="605" xmlns="http://www.w3.org/2000/svg" xmlns:xlink="http://www.w3.org/1999/xlink" overflow="hidden"><defs><clipPath id="clip0"><rect x="105" y="-4" width="752" height="605"/></clipPath></defs><g clip-path="url(#clip0)" transform="translate(-105 4)"><path d="M855.735 356.994C856.079 349.882 856.453 342.151 856.161 334.374 855.821 324.128 855.656 313.723 854.822 303.299 853.952 293.634 852.854 285.212 851.961 276.025 850.783 272.713 850.137 268.793 849.656 264.896 848.471 261.739 847.931 259.078 847.39 256.417L846.713 253.13 845.656 247.33C842.157 232.903 839.245 220.504 835.664 208.087 831.514 193.614 827.964 180.565 823.003 168.701 817.988 154.806 812.375 142.911 805.192 132.32 798.669 121.621 790.759 112.249 782.79 104.1 778.789 100.031 774.107 96.55 768.757 93.0364 764.044 90.1735 758.49 87.4108 752.427 84.4825 740.795 79.4247 727.693 76.7754 713.036 75.4456 708.181 75.2105 703.311 75.5946 699.807 75.4248 694.929 75.9635 690.089 75.7291 683.035 76.0074 677.468 76.9776 670.428 77.2565 664.891 77.6083L663.556 77.5436 662.721 77.5032C659.331 78.1139 655.796 78.5626 652.261 79.0113L651.594 78.979C639.684 79.6421 630.627 79.8233 622.245 80.1922 611.686 80.3008 602.036 79.2135 592.424 77.3531L593.091 77.3855C587.432 76.4914 581.954 75.6062 577.212 73.3618 571.764 71.8582 566.847 69.7603 562.727 68.1659 558.645 66.1084 554.54 64.5148 550.487 61.8389 547.914 59.6996 545.167 57.7067 542.427 55.5593 539.195 52.909 536.485 50.1431 533.077 47.9634 526.315 42.5215 519.69 37.7063 512.882 32.8822 498.805 23.0425 483.773 15.3404 469.326 9.37143 454.416 2.90102 439.204-1.09028 423.88-2.45237 415.55-3.47572 408.04-3.83945 399.635-3.00666 391.913-2.76074 383.471-1.15487 375.007 0.91485 365.017 3.07977 355.15 6.47637 344.511 11.6953 335.077 16.5077 325.818 21.1736 317.21 25.8851L312.881 28.93C305.821 33.0825 297.904 37.3484 290.707 40.8743 280.75 46.1404 271.505 50.1871 262.139 53.6079 254.471 56.4911 246.014 58.0963 238.218 60.1983 235.35 60.6794 233.31 61.3555 230.413 62.469 225.498 63.4708 219.058 65.1737 214.129 66.7947 204.989 68.9867 197.837 71.275 190.845 74.0359 183.01 76.911 175.769 81.0547 168.534 85.3678 162.142 89.5526 156.387 94.3882 150.413 99.9881 145.355 104.252 140.238 109.738 135.782 115.411 127.572 126.031 120.79 137.946 115.936 151.828 111.832 164.028 109.01 177.389 107.623 192.213 106.768 196.047 106.581 199.912 106.364 204.396 105.892 214.151 106.095 223.769 106.868 235.43 108.101 254.876 110.639 275.006 115.143 296.005 118.1 307.786 121.081 318.779 124.721 329.973L125.358 330.623 124.947 339.127C123.972 345.434 123.657 351.942 123.342 358.436L122.908 367.404C122.549 388.633 122.4 405.532 123.82 421.113 125.583 439.965 128.309 456.215 133.932 471.379 136.28 478.467 139.41 486.382 143.267 493.078 147.763 500.425 152.288 507.153 158.975 514.465 169.528 527.994 183.53 539.69 200.393 550.735 215.357 559.843 231.717 567.764 250.944 575.205 259.799 578.888 268.691 581.812 278.288 584.292 287.34 587.365 297.613 589.722 307.195 592.201 326.587 596.24 346.061 598.578 364.085 599.451 382.125 600.325 400.459 598.578 418.018 595.554 435.592 591.911 453.279 586.244 469.72 578.671 486.814 571.13 503.383 560.915 519.404 548.208 524.469 543.79 528.858 539.508 532.55 535.812 535.34 533.468 538.335 530.358 541.329 527.249L542.043 526.649 545.735 522.954C553.649 514.968 563.3 505.672 574.038 498.429 576.267 497.297 579.035 495.416 581.932 494.317 583.994 493.177 587.567 491.955 590.494 490.237 596.781 488.527 603.213 486.978 610.92 486.732 614.462 486.128 618.649 486.331 623.489 486.566 626.994 486.735 630.332 486.897 635.301 487.913 640.111 488.766 644.906 490.238 649.716 491.09 653.821 492.684 658.601 494.155 664.868 496.319 672.448 498.7 679.831 501.693 687.388 504.538L687.358 505.157 690.811 506.719 694.285 507.507C702.473 511.158 712.01 514.889 721.767 517.221 727.214 518.725 733.322 520.415 738.981 521.309 749.966 522.461 760.526 522.353 770.333 520.193 774.565 519.158 779.465 518.156 783.765 515.715 787.345 514.649 791.644 512.222 795.974 509.177 803.201 505.033 809.705 498.839 816.452 490.783 821.667 483.286 826.911 475.171 831.585 465 836.207 456.235 840.184 446.65 843.583 435.191 846.081 425.069 848.782 414.197 850.68 402.651 853.568 387.913 854.985 372.47 855.735 356.994Z" fill="#FBDAE0" fill-rule="evenodd" fill-opacity="0.290196"/><path d="M358.207 399.004 355.482 399.39 354.36 399.583 353.238 399.968 351.311 401.126 349.708 402.283 348.266 403.826 346.984 405.566 345.858 407.301 344.896 409.037 344.095 410.773 343.454 412.702 342.332 416.177 341.851 419.07 341.53 421.775 339.604 421.196 337.68 420.613 335.276 420.228 332.547 420.035 329.983 420.035 328.861 420.228 327.739 420.613 326.613 421.003 325.812 421.775 325.011 422.546 324.369 423.703 323.728 424.861 323.247 426.211 322.286 429.301 321.645 432.579 321.16 435.665 321 438.562 321 440.684 321.16 441.841 321.484 442.034 322.286 442.42 325.011 442.998 334.314 444.738 347.625 446.667 362.859 448.981 391.243 452.65 400.867 453.807 403.592 454 404.718 454 404.878 453.807 405.038 453.229 405.359 451.296 405.679 448.596 406 445.51 406 442.034 406 438.948 405.679 436.248 405.519 435.087 405.359 434.315 404.878 433.544 404.557 432.965 403.432 431.808 401.989 431.036 400.707 430.265 398.303 429.493 397.338 429.301 397.498 427.368 397.822 423.125 397.982 420.421 397.982 417.72 397.822 415.02 397.498 412.702 397.338 412.316 396.857 411.737 395.735 410.387 393.811 409.037 391.567 407.687 388.839 406.337 385.794 404.983 382.424 403.826 378.898 402.476 375.208 401.511 371.518 400.547 367.991 399.775 364.462 399.197 361.096 399.004Z" fill="#FF6B6B" fill-rule="evenodd"/><path d="M361.168 431.004 360.002 431.204 359.333 431.403 359 431.602 359 431.802 359 432.201 359.167 432.6 360.002 433.198 361.168 433.597 362.5 433.996 363.832 433.996 364.998 433.796 365.497 433.597 365.83 433.398 365.997 432.999 365.997 432.6 365.997 432.4 365.664 432.201 364.831 431.802 363.665 431.403 362.5 431.204 361.168 431.004Z" fill="#FFDA73" fill-rule="evenodd"/><path d="M382.975 434 382.327 434.154 382.165 434.307 382.003 434.461 382.003 434.768 382.165 434.922 382.975 435.382 383.947 435.69 385.081 435.843 386.218 436 387.19 435.843 387.838 435.536 388 435.229 388 435.075 387.676 434.768 387.028 434.461 386.056 434.154 385.081 434Z" fill="#FFDA73" fill-rule="evenodd"/><path d="M405 453.818 405 453.818 404.678 454 404.678 454 405 453.818ZM405 453.818 405 453.818 405 453.818 405 453.818 405 453.818ZM405 453.818 405 453.818 405 453.818 405 453.818 405 453.818ZM405 453.818 405 453.818 405 453.818 405 453.818 405 453.818ZM405 453.818 405 453.818 405 453.818 405 453.818 405 453.818ZM405 453.818 405 453.818 405 453.818 405 453.818 405 453.818ZM405 453.818 405 453.818 405 453.818 405 453.818 405 453.818ZM405 453.818 405 453.818 405 453.818 405 453.818 405 453.818ZM405 453.818 405 453.818 405 453.818 405 453.818 405 453.818ZM390.515 452.546 390.515 452.546 390.515 452.546 399.85 453.455 404.678 454 404.678 454 404.678 454 399.85 453.455 390.515 452.546ZM351.896 447.455 351.896 447.455 351.896 447.455 372.817 450.362 372.817 450.362 372.817 450.362 351.896 447.455ZM321.325 442.545 321.325 442.545 322.612 442.909 325.185 443.454 334.034 444.911 334.034 444.911 334.034 444.911 325.185 443.454 322.612 442.909 321.325 442.545ZM321.161 442.363 321.161 442.363 321.325 442.545 321.325 442.545 321.161 442.363ZM321.161 442.363 321.161 442.363 321.161 442.363 321.161 442.363 321.161 442.363ZM321.161 442.363 321.161 442.363 321.161 442.363 321.161 442.363 321.161 442.363ZM321.161 442.363 321.161 442.363 321.161 442.363 321.161 442.363 321.161 442.363ZM321.161 442.363 321.161 442.363 321.161 442.363 321.161 442.363 321.161 442.363ZM321.161 442.363 321.161 442.363 321.161 442.363 321.161 442.363 321.161 442.363ZM321.161 442.363 321.161 442.363 321.161 442.363 321.161 442.363 321.161 442.363ZM321.161 442.363 321.161 442.363 321.161 442.363 321.161 442.363 321.161 442.363ZM321.161 442.182 321.161 442.182 321.161 442.363 321.161 442.363 321.161 442.182ZM321.161 442.182 321.161 442.182 321.161 442.182 321.161 442.182 321.161 442.182ZM321.161 442.182 321.161 442.182 321.161 442.182 321.161 442.182 321.161 442.182ZM321.161 442.182 321.161 442.182 321.161 442.182 321.161 442.182 321.161 442.182ZM321.161 442.182 321.161 442.182 321.161 442.182 321.161 442.182 321.161 442.182ZM321.161 442 321.161 442 321.161 442.182 321.161 442.182 321.161 442ZM321.161 442 321.161 442 321.161 442 321.161 442 321.161 442ZM321.161 442 321.161 442 321.161 442 321.161 442 321.161 442ZM321.161 442 321.161 442 321.161 442 321.161 442 321.161 442ZM321.161 442 321.161 442 321.161 442 321.161 442 321.161 442ZM321.161 442 321.161 442 321.161 442 321.161 442 321.161 442ZM321.161 442 321.161 442 321.161 442 321.161 442 321.161 442ZM321 442 321 442 321 442 321 442 321 442Z" fill="#FAF9F9" fill-rule="evenodd"/><path d="M340.841 432.004 339.548 432.39 338.42 432.775 337.291 433.354 336.324 434.125 335.518 434.897 334.873 435.668 334.39 436.443 333.419 437.986 332.936 439.529 332.613 440.879 332.452 441.072 332.291 441.264 330.84 441.264 329.712 440.879 327.777 440.3 325.517 439.143 324.227 438.372 323.099 437.408 322.132 436.251 321.326 434.704 321 438.565 321 440.107 321 441.264 321.161 441.264 321.161 441.457 321.161 441.65 321.326 441.843 322.615 442.229 325.195 442.807 334.064 444.354 334.39 442.614 335.035 440.686 335.841 439.143 336.969 437.6 338.259 436.443 339.548 435.475 341.164 434.897 342.776 434.704 343.743 434.897 344.871 435.089 345.838 435.282 346.644 435.668 347.615 436.251 348.26 436.829 349.066 437.6 350.194 439.143 351 441.072 351.645 443 351.967 445.125 351.967 447.054 372.937 450.139 373.421 448.404 374.065 446.861 375.033 445.511 376 444.161 377.128 443.193 378.418 442.229 379.872 441.843 381.484 441.65 382.29 441.65 384.224 442.229 385.84 443 387.291 444.161 388.419 445.511 389.386 447.054 390.031 448.596 390.353 450.525 390.676 452.457 400.032 453.421 404.872 454 405.194 453.807 405.516 453.421 405.678 452.65 406 449.946 392.614 449.368 392.13 447.825 391.643 446.089 390.676 444.161 390.031 443.193 389.225 442.229 388.419 441.264 387.452 440.493 386.323 439.722 385.03 439.336 383.418 438.95 381.806 438.757 379.711 438.757 378.257 438.95 376.967 439.336 375.839 439.915 374.871 440.493 374.065 441.264 372.615 442.614 371.483 444.161 370.838 445.318 370.354 446.668 354.228 444.74 354.066 443 353.744 441.072 352.935 438.95 352.451 437.793 351.645 436.636 350.839 435.668 349.872 434.704 348.743 433.74 347.454 432.968 345.838 432.39 344.065 432.197 342.292 432.004Z" fill="#FA8181" fill-rule="evenodd"/><path d="M359.557 402 356.866 402.191 355.443 402.383 354.336 402.574 353.387 402.957 352.593 403.531 351.961 404.297 351.17 405.449 350.538 406.788 349.905 408.319 348.64 411.956 347.533 415.787 345.791 422.681 345 425.551 368.257 429 369.206 416.935 369.839 408.319 369.997 405.449 369.997 403.914 369.839 403.722 369.364 403.531 367.625 402.957 365.25 402.383 362.562 402.191 359.557 402Z" fill="#FFFFFF" fill-rule="evenodd"/><path d="M359.12 404 356.527 404.193 355.232 404.387 354.099 404.58 353.29 404.967 352.478 405.358 351.83 406.132 351.183 407.099 350.697 408.259 350.05 409.613 348.917 412.708 347.946 416.193 346.489 422.193 346 424.901 367.54 427.996 368.349 417.354 368.835 409.807 368.997 407.099 368.835 405.938 368.673 405.745 368.187 405.551 366.731 404.967 364.461 404.58 361.872 404.193 359.12 404Z" fill="#82B7F8" fill-rule="evenodd"/><path d="M373.733 406.004 373.419 406.194 373.262 407.142 372.947 409.797 372.632 413.405 372.315 417.578 372.157 425.547 372 429.155 388.053 432 388.368 429.345 388.839 423.461 388.997 419.853 388.997 416.629 388.997 413.595 388.839 412.453 388.525 411.315 388.21 410.556 387.581 409.797 386.795 409.228 386.008 408.47 383.646 407.521 381.286 406.763 378.77 406.383 376.407 406.004Z" fill="#FFFFFF" fill-rule="evenodd"/><path d="M374.685 407.004 374.533 407.201 374.227 407.987 373.921 410.543 373.615 413.889 373.462 417.82 373.156 425.295 373.003 428.637 386.467 431 386.773 428.838 387.538 423.329 387.844 420.18 387.997 417.231 387.997 414.478 387.844 413.299 387.691 412.312 387.385 411.526 386.926 410.739 386.162 410.149 385.397 409.56 383.406 408.577 381.265 407.79 379.124 407.397 377.132 407.004Z" fill="#82B7F8" fill-rule="evenodd"/><path d="M342.036 435 340.267 435.579 338.821 436.354 337.376 437.511 336.252 439.054 335.288 440.596 334.646 442.525 334.161 444.457 334 446.386 334 448.314 334.485 450.243 335.128 451.982 335.609 452.753 336.091 453.525 336.894 454.296 337.536 455.068 338.5 455.646 339.303 456.032 340.427 456.417 341.555 456.803 342.679 456.996 344.927 456.996 345.891 456.803 346.694 456.417 347.5 456.032 348.303 455.453 348.945 454.875 350.07 453.332 351.033 451.592 351.675 449.664 351.997 447.543 351.997 445.421 351.675 443.489 351.194 441.368 350.23 439.632 349.106 437.897 348.464 437.318 347.661 436.547 346.854 436.157 345.891 435.579 344.927 435.386 343.803 435.193 342.839 435Z" fill="#210A06" fill-rule="evenodd"/><path d="M341.858 443 341.287 443.4 340.859 443.599 340.574 444.203 340.285 444.602 340.143 445.202 340 446.001 340 447.199 340.143 447.798 340.431 448.398 340.716 448.997 341.144 449.397 341.573 449.796 342.143 449.996 343.142 449.996 343.57 449.596 343.998 449.397 344.569 448.398 344.997 447.199 344.997 446.001 344.854 445.401 344.712 444.802 344.426 444.203 344.141 443.799 343.57 443.4 342.999 443.2 342.429 443Z" fill="#FFFFFF" fill-rule="evenodd"/><path d="M380.036 442 378.43 442.579 376.821 443.35 375.536 444.511 374.412 445.861 373.449 447.596 372.646 449.332 372.325 451.26 372 453.386 372.164 455.314 372.485 457.243 373.288 458.978 373.77 459.753 374.252 460.525 374.894 461.296 375.697 461.875 376.5 462.453 377.464 463.032 378.43 463.417 379.715 463.803 380.839 463.996 381.964 463.996 382.927 463.803 383.891 463.61 384.858 463.417 385.661 462.839 386.303 462.453 387.106 461.682 388.23 460.332 389.194 458.592 389.675 456.664 389.997 454.543 389.997 452.421 389.836 450.296 389.194 448.368 388.391 446.439 387.267 444.897 386.464 444.125 385.661 443.543 384.858 442.964 383.891 442.579 382.927 442.193 381.803 442Z" fill="#210A06" fill-rule="evenodd"/><path d="M380.168 450 379.668 450.2 379.169 450.599 378.669 450.999 378.503 451.598 378.166 452.202 378 452.801 378.166 454.199 378.336 454.798 378.503 455.398 378.836 455.997 379.335 456.397 380.001 456.796 380.667 456.996 381.166 456.996 381.832 456.796 382.332 456.596 382.831 456.197 383.497 455.398 383.83 454.199 383.997 452.801 383.83 452.202 383.664 451.598 383.331 451.199 382.831 450.799 382.332 450.4 381.666 450Z" fill="#FFFFFF" fill-rule="evenodd"/><path d="M340.752 437.004 339.968 437.196 339.032 437.58 338.252 438.348 337.627 439.116 337.159 439.884 337.003 440.844 337.003 441.036 337.003 441.42 337.159 441.612 337.471 441.804 338.096 441.996 338.876 441.804 339.812 441.42 340.596 440.652 341.376 439.884 341.844 439.116 342 438.348 342 437.964 342 437.58 341.688 437.388 341.376 437.196 340.752 437.004Z" fill="#422D29" fill-rule="evenodd"/><path d="M380.546 443 379.456 443.185 378.362 443.555 377.454 444.109 376.727 444.853 376.182 445.592 376 446.517 376.182 446.887 376.363 447.257 376.727 447.626 377.272 447.811 377.817 447.996 378.548 447.811 379.456 447.257 380.365 446.702 381.091 445.777 381.637 445.038 382 444.298 382 443.924 381.818 443.555 381.637 443.37 381.273 443.185 380.546 443Z" fill="#422D29" fill-rule="evenodd"/><path d="M319.789 423.004 319.464 423.212 318.976 423.834 318.651 425.077 318.325 426.736 318.163 428.394 318 430.264 318 431.715 318.325 432.959 318.325 433.374 318.651 433.581 319.138 433.788 319.952 433.996 320.768 433.996 321.581 433.788 322.557 433.581 323.37 433.166 324.021 432.545 324.509 431.715 324.834 430.679 324.997 429.642 324.834 428.813 324.671 427.98 324.509 427.15 324.183 426.321 323.208 425.077 322.069 424.041 321.093 423.212 320.114 423.004Z" fill="#FFFFFF" fill-rule="evenodd"/><path d="M320.075 424.004 319.922 424.422 319.461 425.258 319.307 426.721 319 428.393 319 430.07 319.154 431.533 319.307 432.578 319.461 432.996 319.922 432.996 320.075 432.578 320.536 431.742 320.843 430.279 320.997 428.607 320.997 426.93 320.843 425.467 320.69 424.422 320.536 424.213 320.382 424.004Z" fill="#FFDA73" fill-rule="evenodd"/><path d="M605.934 359 584.228 369.939 568.999 377.682 563.672 380.879 561.008 382.701 561.008 383.611 561.008 386.344 561.769 394.086 564.813 416.876 569.379 449.675 589.563 458.338 604.792 464.258 610.5 466.08 614.305 466.991 615.827 466.535 618.11 465.624 623.826 461.981 631.437 456.971 639.436 451.041 653.523 439.656 659.992 434.637 655.045 369.939 605.934 359Z" fill="#FF6B6B" fill-rule="evenodd"/><path d="M605.934 359 584.228 369.939 568.999 377.682 563.672 380.879 561.008 382.701 561.008 383.611 561.008 386.344 561.769 394.086 564.813 416.876 569.379 449.675 589.563 458.338 604.792 464.258 610.5 466.08 614.305 466.991 615.827 466.535 618.11 465.624 623.826 461.981 631.437 456.971 639.436 451.041 653.523 439.656 659.992 434.637 655.045 369.939 605.934 359Z" fill="#FF6B6B" fill-rule="evenodd"/><path d="M610.347 359.478 626 363.31 610.347 359.478 610.347 359.478 610.347 359.478ZM605.876 359 605.876 359 585 370 585 370 605.876 359 605.876 359Z" fill="#FFFDFD" fill-rule="evenodd"/><path d="M605.532 359 584.217 369.598 568.995 377.424 563.67 380.656 561.008 382.497 584.217 392.164 597.917 397.689 603.242 399.54 605.912 400 606.292 400 630.642 385.259 647.005 375.122 652.338 371.899 655 370.058 655 369.598 653.859 369.137 626.078 363.153 610.096 359.46 605.532 359Z" fill="#FF7F7F" fill-rule="evenodd"/><path d="M561.008 383.009 561.008 384.371 561.387 390.269 562.146 399.354 565.18 421.143 569.352 449.739 587.944 457.916 602.744 463.361 608.82 465.629 612.992 466.991 606.165 400.261 605.786 400.261 603.123 399.808 597.813 397.983 584.151 392.538 561.008 383.009Z" fill="#FA8181" fill-rule="evenodd"/><path d="M607 400 607 400 606.614 400 606.614 400 607 400ZM607 400 607 400 607 400 607 400ZM561.008 383.009 561.008 383.009 561.008 383.009 584.579 392.394 598.494 397.756 603.902 399.553 606.614 400 606.614 400 606.614 400 603.902 399.553 598.494 397.756 584.579 392.394 561.008 383.009ZM561.008 383.009 561.008 383.009 561.008 383.009 561.008 383.009 561.008 383.009ZM561.008 383.009 561.008 383.009 561.008 383.009 561.008 383.009Z" fill="#FA9191" fill-rule="evenodd"/><path d="M634.466 399.935 636.319 400.391 637.43 401.302 638.542 402.214 638.912 403.581 639.283 405.405 638.542 407.228 637.06 409.051 634.836 411.33 631.124 413.153 630.382 400.391 632.235 399.935ZM639.653 420.912 641.876 421.367 643.729 422.279 645.582 423.646 646.693 425.925 647.064 428.205 647.064 429.116 646.693 430.484 645.211 433.218 642.618 435.507 638.912 438.242 634.095 440.065 631.494 421.823 632.606 421.367 635.948 420.912ZM635.207 394 631.494 394.456 628.159 395.367 622.601 397.646 620.008 399.023 624.825 445.991 630.012 444.623 634.836 443.256 638.912 441.432 642.247 440.065 645.211 437.786 647.805 435.963 649.665 434.13 651.147 432.307 652.259 430.028 652.629 428.205 653 426.381 653 424.558 652.629 423.191 651.888 421.823 651.147 420.456 650.406 419.544 648.554 418.177 647.064 417.265 643.729 416.809 640.024 416.809 641.876 415.888 643.359 414.521 644.47 413.153 645.582 411.33 645.952 409.963 646.693 408.595 646.693 405.405 645.952 402.214 644.841 399.479 642.988 396.735 640.765 394.912 639.653 394.456 638.171 394Z" fill="#FFDA73" fill-rule="evenodd"/><path d="M238.839 326.508 234.396 326.878 230.237 327.988 226.349 329.099 222.744 330.209 219.416 332.06 216.36 333.911 213.587 336.132 210.814 338.353 208.595 340.951 206.377 343.542 204.43 346.504 202.489 349.095 201.102 352.056 199.438 355.395 197.22 361.317 195.556 367.61 194.164 373.17 193.332 378.722 192.777 383.534 192.5 390.945 192.5 393.906 192.777 400.947 193.609 408.35 195.002 415.02 196.943 421.683 199.438 427.975 202.212 433.905 205.822 439.088 209.705 443.907 211.646 446.128 213.864 447.979 216.36 449.83 218.861 451.31 221.357 452.791 224.13 453.901 226.903 455.012 229.682 455.752 232.733 456.122 236.06 456.492 239.116 456.492 242.444 456.122 246.049 455.752 249.654 455.012 253.265 453.901 256.87 452.421 261.59 450.57 265.749 447.979 269.354 445.018 272.965 441.308 276.015 437.607 278.789 433.535 281.007 428.716 283.231 424.274 284.895 419.092 286.282 413.902 287.391 408.72 287.945 403.168 288.223 397.608 288.5 392.055 288.223 386.503 287.668 380.943 286.559 375.391 285.45 369.831 284.063 364.649 282.116 359.467 280.175 354.647 277.679 350.205 275.184 345.763 272.133 342.062 268.8 338.353 265.472 335.021 261.59 332.43 257.702 330.209 253.265 328.359 248.822 327.248 244.108 326.508Z" stroke="#7F7F7F" stroke-linejoin="round" stroke-miterlimit="10" fill="#FFFFFF" fill-rule="evenodd"/><path d="M237.165 455.992 237.165 455.992 237.165 455.992 237.165 455.992 237.165 455.992 237.165 455.992ZM255.893 451.921 255.893 451.921 250.939 453.771 246.254 454.882 241.574 455.622 237.165 455.992 237.165 455.992 241.574 455.622 246.254 454.882 250.939 453.771 255.893 451.921ZM256.719 451.921 256.719 451.921 255.893 451.921 255.893 451.921 256.719 451.921ZM256.994 451.55 256.994 451.55 256.994 451.55 256.994 451.55 256.994 451.55ZM240.749 326.008 240.749 326.008 237.996 326.008 237.996 326.008 234.137 326.378 230.283 327.118 226.699 328.229 223.396 329.339 220.368 330.82 217.616 332.3 214.858 334.151 212.38 336.002 209.903 338.223 207.976 340.451 206.049 342.672 204.117 345.263 201.089 350.445 198.612 356.005 196.41 361.558 195.034 367.11 193.652 372.3 192.826 377.112 192.275 381.924 192 385.633 192 391.555 192 391.555 192 385.633 192.275 381.924 192.826 377.112 193.652 372.3 195.034 367.11 196.41 361.558 198.612 356.005 201.089 350.445 204.117 345.263 206.049 342.672 207.976 340.451 209.903 338.223 212.38 336.002 214.858 334.151 217.616 332.3 220.368 330.82 223.396 329.339 226.699 328.229 230.283 327.118 234.137 326.378 237.996 326.008 237.996 326.008 240.749 326.008ZM240.749 326.008 240.749 326.008 240.749 326.008 240.749 326.008 240.749 326.008 240.749 326.008Z" fill="#FAF9F9" fill-rule="evenodd"/><path d="M248.599 332.67 251.378 333.411 254.151 334.151 256.924 335.632 259.42 337.112 261.644 338.963 263.863 341.192 265.804 343.413 267.745 346.004 269.132 348.965 270.795 351.926 271.91 354.895 273.02 358.226 273.852 361.558 274.684 365.259 275.238 368.59 275.515 372.3 275.515 375.631 275.515 379.333 275.238 382.664 274.684 386.373 274.129 389.704 273.02 393.036 272.188 395.997 270.795 398.966 269.132 401.927 267.468 404.518 265.527 407.109 263.308 408.96 260.812 411.181 258.311 412.662 255.261 414.15 251.933 415.26 248.877 416.001 245.826 416.371 239.726 416.371 236.392 415.63 233.342 414.52 230.569 413.032 228.073 411.551 225.571 409.33 223.353 406.739 221.412 404.148 219.748 401.187 218.084 398.218 216.698 394.887 215.583 391.185 214.751 387.484 214.196 383.774 213.641 380.073 213.641 376.001 213.641 374.15 213.919 369.331 214.196 366.37 214.751 362.668 215.583 358.967 216.698 355.265 218.084 351.186 220.025 347.114 222.521 343.783 225.571 340.451 229.182 337.482 231.123 336.002 233.342 334.891 235.56 334.151 238.056 333.411 240.835 333.041 243.608 332.67ZM238.339 326.008 234.451 326.378 230.569 327.118 226.958 328.229 223.63 329.339 220.58 330.82 217.807 332.3 215.028 334.151 212.532 336.002 210.036 338.223 208.095 340.451 206.154 342.672 204.207 345.263 201.157 350.445 198.661 356.005 196.443 361.558 195.056 367.11 193.664 372.3 192.832 377.112 192.277 381.924 192 385.633 192 391.555 192 393.406 192.277 399.336 192.832 405.259 193.664 411.181 195.056 416.741 196.72 422.293 198.938 427.475 201.157 432.295 203.93 436.737 206.986 441.179 210.591 444.888 214.196 447.849 218.361 450.81 222.521 453.031 227.235 454.512 232.233 455.622 237.501 455.992 241.944 455.622 246.658 454.882 251.378 453.771 256.37 451.921 257.202 451.921 257.479 451.55 261.922 449.7 265.804 446.739 269.409 443.777 272.742 440.438 275.793 436.737 278.566 432.665 280.784 428.216 282.731 423.404 284.395 418.592 285.782 413.402 286.613 408.22 287.445 403.038 287.723 397.478 288 392.296 287.723 386.743 287.168 381.183 286.336 376.001 285.227 370.449 283.84 365.259 282.171 360.447 280.23 355.635 278.011 351.186 275.515 346.744 272.742 342.672 269.686 338.963 266.359 335.632 262.754 333.041 258.865 330.45 254.983 328.599 250.546 327.118 245.826 326.378 241.112 326.008Z" fill="#FAF9F9" fill-rule="evenodd"/><path d="M264.156 346.007 260.006 348.12 265.539 348.472 270.242 349.528 274.674 350.584 277.994 351.993 276.611 349.528 272.184 347.768 268.029 347.064 264.156 346.007Z" fill="#210A06" fill-rule="evenodd"/><path d="M260.961 377 259.836 377.746 257.877 379.609 252.561 385.954 247.518 392.291 245.56 394.901 245 396.392 245 397.883 245.839 401.618 248.078 410.938 251.721 423.992 268.516 423.992 271.034 423.619 272.719 423.619 273.279 422.874 273.838 422.128 274.958 418.773 276.357 414.3 277.476 409.446 278.595 404.228 279.435 399.009 279.994 395.273 279.994 393.782 279.714 392.664 279.435 391.546 278.595 390.8 276.636 388.191 273.558 385.581 270.475 383.337 264.319 378.864 262.08 377.373 260.961 377Z" fill="#210A06" fill-rule="evenodd"/><path d="M224.553 362 221.222 362.371 214.555 363.483 207.894 364.966 205.673 365.707 204.557 366.078 204.002 367.931 203.169 371.646 201.226 382.397 199.006 397.604 205.673 403.173 210.392 406.509 212.335 407.622 213.445 407.992 214.555 407.251 216.498 405.397 221.778 400.207 226.774 395.009 228.445 393.156 229 391.673 228.445 386.483 227.329 376.466 225.941 366.819 225.108 363.483 224.831 362.371 224.553 362Z" fill="#210A06" fill-rule="evenodd"/><path d="M246.91 327.008 244.409 328.501 239.683 331.86 234.952 335.218 233.562 336.711 233.006 337.458 234.396 344.93 235.508 351.274 247.188 354.633 259.425 358 261.377 356.88 264.991 353.887 268.326 350.528 269.438 349.408 269.994 348.662 269.716 347.542 268.882 345.676 266.38 340.451 262.767 333.352 253.866 329.247 249.412 327.754 246.91 327.008Z" fill="#210A06" fill-rule="evenodd"/><path d="M215.902 422 213.951 426.794 212.557 430.858 212 433.44 212 434.546 212.279 436.021 213.672 440.446 215.344 445.986 216.459 446.723 218.415 447.829 223.153 450.042 230.126 452.992 231.798 452.992 235.699 451.886 239.328 450.411 240.443 449.673 240.721 449.305 241 448.936 240.721 441.184 240.721 436.39 240.443 433.808 239.328 432.702 236.535 431.227 228.175 427.163 215.902 422Z" fill="#210A06" fill-rule="evenodd"/><path d="M217.767 332.008 214.756 334.237 219.407 334.237 225.145 334.98 231.163 336.095 236.628 337.21 235.808 349.108 213.116 374.391 205.459 365.837 204.366 345.392 203 347.622 204.093 369.932 213.116 376.992 237.175 350.223 237.994 335.724 237.448 335.724 229.25 333.494 223.233 332.379 220.227 332.008Z" fill="#210A06" fill-rule="evenodd"/><path d="M257.663 354 260.435 381.982 252.407 398.18 227.501 390.453 212 401.868 212 402.236 212 405.547 212.277 408.859 212.553 413.275 213.383 418.066 215.043 423.218 215.872 425.794 217.261 428.745 218.644 431.321 220.027 433.897 229.991 441.992 230.267 441.992 242.167 432.793 248.806 427.634 252.131 424.69 262.094 413.275 279.803 393.764 279.803 393.396 282.298 389.349 287 380.878 286.447 377.934 282.298 386.037 278.696 392.293 264.03 408.491 251.024 423.218 248.529 425.426 242.997 429.849 229.991 439.784 221.134 432.425 218.644 428.002 216.708 423.218 215.319 418.802 214.489 414.386 213.936 410.331 213.66 407.387 213.383 402.971 227.778 392.661 252.96 400.396 262.094 382.35 259.322 354Z" fill="#210A06" fill-rule="evenodd"/><path d="M271.393 418.008 270 418.731 270.832 422.348 271.948 427.773 273.613 438.992 275 437.184 273.058 426.326 272.225 421.624 271.393 418.008Z" fill="#210A06" fill-rule="evenodd"/><path d="M200.479 396 199.448 396.709 197.387 398.481 195.067 400.968 194.031 402.386 193 404.158 193.515 406.993 194.031 405.221 195.067 403.449 196.356 402.032 197.644 400.614 199.964 398.481 200.995 397.772 200.479 396Z" fill="#210A06" fill-rule="evenodd"/><path d="M214.715 433.008 208.861 434.094 203 435.181 204.115 436.992 211.091 435.543 214.994 434.819 214.715 433.008Z" fill="#210A06" fill-rule="evenodd"/><path d="M239.403 446.007 238 446.698 239.403 449.463 241.081 451.882 243.317 454.993 244.994 454.647 242.758 451.537 240.801 448.772 239.403 446.007Z" fill="#210A06" fill-rule="evenodd"/><path d="M2.29958 0.00549576 1.78903 0.225326 1.36287 0.560568 1.02532 1.00023 0.683544 1.5553 0.42616 2.11037 0.172996 2.77536 0.0886076 3.44035 0 4.32517 0.172996 5.32539 0.510548 6.32013 0.936709 7.54019 1.70464 8.98557 2.64135 10.5354 3.83122 12.1951 5.27848 14.1901 7.1519 16.3004 9.27848 18.6251 11.7468 21.1752 13.5316 23.2801 15.3207 25.6103 17.0211 28.0504 18.7257 30.5949 21.8734 35.5851 24.6793 40.24 27.1477 44.12 28.1688 45.6698 29.1899 46.8899 30.0422 47.6648 30.384 47.8901 30.7215 48 31.0633 48 31.3207 47.8901 31.5738 47.5548 31.7426 47.1152 31.9156 46.5601 32 45.8951 32 45.2301 31.9156 44.4497 31.5738 42.6801 30.9789 40.6851 30.211 38.4648 29.2785 36.1401 28.1688 33.7 26.8945 31.15 25.616 28.49 24.2574 25.8301 21.3629 20.73 18.5527 16.0751 16.0844 12.0852 14.9789 10.4255 13.8734 8.76025 12.6835 7.32036 11.5738 5.99038 10.4684 4.77032 9.36287 3.77559 8.25738 2.77536 7.23629 2.00046 6.21519 1.33547 5.36287 0.780398 4.42616 0.335242 3.66245 0.115411 2.9789 0.00549576Z" stroke="#F2F2F2" stroke-linejoin="round" stroke-miterlimit="10" fill="#FFFFFF" fill-rule="evenodd" transform="matrix(-1 0 0 1 198.5 312.5)"/><path d="M1.36042 0.00333679 1.05838 0.136808 0.806266 0.340353 0.606572 0.607296 0.404381 0.944311 0.252114 1.28133 0.102343 1.68508 0.0524198 2.08883 0 2.62605 0.102343 3.23335 0.302038 3.83731 0.554152 4.57807 1.00846 5.45565 1.56261 6.39662 2.26653 7.40434 3.12272 8.61559 4.23102 9.89692 5.4891 11.3084 6.94936 12.8566 8.00525 14.1346 9.06363 15.5494 10.0696 17.031 11.078 18.5759 12.9402 21.6057 14.6002 24.432 16.0604 26.7877 16.6645 27.7287 17.2686 28.4695 17.7728 28.94 17.975 29.0768 18.1747 29.1435 18.3769 29.1435 18.5291 29.0768 18.6789 28.8732 18.7788 28.6063 18.8811 28.2693 18.931 27.8655 18.931 27.4618 18.8811 26.9879 18.6789 25.9135 18.3269 24.7022 17.8726 23.3542 17.321 21.9427 16.6645 20.4612 15.9106 18.9129 15.1543 17.2979 14.3505 15.6829 12.6382 12.5864 10.9757 9.76011 9.51544 7.3376 8.86144 6.32989 8.20744 5.31884 7.50351 4.4446 6.84702 3.6371 6.19302 2.89633 5.53902 2.29237 4.88502 1.68508 4.28095 1.21459 3.67687 0.81084 3.17264 0.473824 2.61849 0.203544 2.16668 0.0700726 1.7623 0.00333679Z" fill="#FFFFFF" fill-rule="evenodd" transform="matrix(-0.783165 0.621814 0.621814 0.783165 178.78 373.596)"/><path d="M2.22772 0.00561026 1.73312 0.230021 1.32028 0.572246 0.993275 1.02107 0.662184 1.5877 0.412843 2.15434 0.16759 2.83318 0.0858386 3.51202 0 4.41527 0.16759 5.43634 0.494594 6.4518 0.907437 7.69728 1.65137 9.17277 2.55881 10.7549 3.7115 12.4492 5.11353 14.4857 6.9284 16.64 8.98853 19.0132 11.3797 21.6163 13.1088 23.7651 14.8419 26.1438 16.4892 28.6348 18.1406 31.2323 21.1899 36.3264 23.9081 41.0783 26.2993 45.0392 27.2885 46.6213 28.2777 47.8667 29.1034 48.6578 29.4345 48.8878 29.7615 49 30.0926 49 30.3419 48.8878 30.5872 48.5456 30.7507 48.0967 30.9182 47.5301 31 46.8513 31 46.1724 30.9182 45.3758 30.5872 43.5693 30.0108 41.5327 29.2669 39.2662 28.3635 36.8931 27.2885 34.4021 26.0541 31.7989 24.8155 29.0836 23.4993 26.3682 20.6953 21.1619 17.973 16.41 15.5817 12.337 14.5108 10.6427 13.4399 8.94275 12.2872 7.47286 11.2122 6.11518 10.1412 4.8697 9.07028 3.85425 7.99934 2.83318 7.01015 2.04213 6.02097 1.36329 5.19528 0.796657 4.28784 0.342226 3.548 0.117815 2.88581 0.00561026Z" fill="#FFFFFF" fill-rule="evenodd" transform="matrix(1 -1.22465e-16 -1.22465e-16 -1 284 456)"/><path d="M1.36042 0.00333679 1.05838 0.136808 0.806266 0.340353 0.606572 0.607296 0.404381 0.944311 0.252114 1.28133 0.102343 1.68508 0.0524198 2.08883 0 2.62605 0.102343 3.23335 0.302038 3.83731 0.554152 4.57807 1.00846 5.45565 1.56261 6.39662 2.26653 7.40434 3.12272 8.61559 4.23102 9.89692 5.4891 11.3084 6.94936 12.8566 8.00525 14.1346 9.06363 15.5494 10.0696 17.031 11.078 18.5759 12.9402 21.6057 14.6002 24.432 16.0604 26.7877 16.6645 27.7287 17.2686 28.4695 17.7728 28.94 17.975 29.0768 18.1747 29.1435 18.3769 29.1435 18.5291 29.0768 18.6789 28.8732 18.7788 28.6063 18.8811 28.2693 18.931 27.8655 18.931 27.4618 18.8811 26.9879 18.6789 25.9135 18.3269 24.7022 17.8726 23.3542 17.321 21.9427 16.6645 20.4612 15.9106 18.9129 15.1543 17.2979 14.3505 15.6829 12.6382 12.5864 10.9757 9.76011 9.51544 7.3376 8.86144 6.32989 8.20744 5.31884 7.50351 4.4446 6.84702 3.6371 6.19302 2.89633 5.53902 2.29237 4.88502 1.68508 4.28095 1.21459 3.67687 0.81084 3.17264 0.473824 2.61849 0.203544 2.16668 0.0700726 1.7623 0.00333679Z" fill="#FFFFFF" fill-rule="evenodd" transform="matrix(0.783165 -0.621814 -0.621814 -0.783165 302.829 393.914)"/><path d="M13.8049 0.0154246C12.3577 0.0154246 11.1626 2.12859 10.5122 4.61195L0.00813008 78.9584C0.00813008 81.8737 1.03252 85.2671 2.56911 86.7324L18.9594 94.9846C26.6423 40.5667 23.3171 63.4105 31 8.97711L14.6098 0.231369C14.3333 0.0771229 14.065 0.0154246 13.8049 0.0154246Z" stroke="#FDDC9A" stroke-linejoin="round" stroke-miterlimit="10" fill="#E94864" fill-rule="evenodd" transform="matrix(-1 0 0 1 785.5 271.5)"/><path d="M35.1293 53.4336C38.9428 53.4336 42.0048 59.2611 42.0048 66.5377 42.0048 73.8297 38.9428 79.1792 35.1293 79.1792 31.5662 79.1792 28.5122 73.8297 28.5122 66.5377 28.5122 59.739 31.3077 53.4336 35.1293 53.4336ZM41.2373 88.8916 49.1309 117.536 21.1277 117.536 28.7627 88.8916C30.7987 90.8341 33.0933 91.8054 35.1293 91.8054 37.4157 91.8054 39.4518 90.8341 41.2373 88.8916ZM16.5466 0C11.1981 37.8938 13.2341 23.8031 7.89358 61.6815L21.6367 68.9735C21.6367 72.8585 22.1457 77.2367 23.4222 80.1505L0.258541 162.228C0 164.648 0.509003 169.027 2.03601 169.998 2.65005 170.661 3.26408 170.985 3.83772 170.985 4.95268 170.985 5.95452 169.798 6.61704 167.562L17.3142 130.655 52.4354 130.655 63.383 167.562C63.8839 169.798 64.9342 170.985 66.033 170.985 66.5986 170.985 67.1884 170.661 67.7135 169.998 69.2405 168.533 70 164.648 68.982 161.735L46.3273 81.1217 53.2029 84.5133C57.5254 52.9403 55.9984 65.0885 61.5974 23.3252L16.5466 0Z" stroke="#FDDC9A" stroke-linejoin="round" stroke-miterlimit="10" fill="#E94864" fill-rule="evenodd" transform="matrix(-1 0 0 1 766.5 296.5)"/><path d="M5.11997 0C2.04799 22.7671 3.33204 14.8481 0 37.6309L13.06 44.5601C13.4745 44.8586 13.8727 45 14.2465 45 15.7012 45 16.7984 42.8631 17.416 40.0978L21 14.8481C20.7399 11.3914 19.976 7.43191 18.18 6.92912L5.11997 0Z" stroke="#FDDC9A" stroke-linejoin="round" stroke-miterlimit="10" fill="#E94864" fill-rule="evenodd" transform="matrix(-1 0 0 1 705.5 334.5)"/><path d="M594.756 333C593.256 333 592 334.319 592 335.883L592 342.995 602.854 342.995 602.854 335.883C602.854 334.319 601.673 333 600.173 333ZM621.887 333C620.387 333 619.146 334.319 619.146 335.883L619.146 342.995 630 342.995 630 335.883C630 334.319 628.818 333 627.319 333Z" fill="#FCC557" fill-rule="evenodd"/><path d="M592 336 592 339.995 602.854 339.995 602.854 336ZM619.146 336 619.146 339.995 630 339.995 630 336Z" fill="#8F3956" fill-rule="evenodd"/><path d="M594.482 339C589.874 339 585.967 342.295 585.102 346.832L580.063 373.689C579.005 379.597 583.475 384.995 589.438 384.995 592.301 384.995 594.972 383.758 596.776 381.581L599.506 378.34C601.311 376.178 603.976 374.926 606.839 374.926L615.161 374.926C617.965 374.926 620.63 376.178 622.494 378.34L625.224 381.581C627.028 383.758 629.699 384.995 632.502 384.995 638.525 384.995 642.995 379.597 641.937 373.689L636.839 346.832C636.033 342.295 632.067 339 627.459 339Z" fill="#F4992B" fill-rule="evenodd"/><path d="M606.839 359C603.976 359 601.311 360.228 599.506 362.381L596.776 365.581C594.972 367.719 592.301 368.962 589.438 368.962 586.279 368.962 583.475 367.425 581.744 365.082L580.063 373.815C579.005 379.657 583.475 384.995 589.438 384.995 592.301 384.995 594.972 383.772 596.776 381.619L599.506 378.414C601.311 376.276 603.976 375.038 606.839 375.038L615.161 375.038C617.965 375.038 620.63 376.276 622.494 378.414L625.224 381.619C627.028 383.772 629.699 384.995 632.502 384.995 638.525 384.995 642.995 379.657 641.937 373.815L640.271 365.082C638.525 367.425 635.721 368.962 632.502 368.962 629.699 368.962 627.028 367.719 625.224 365.581L622.494 362.381C620.63 360.228 617.965 359 615.161 359Z" fill="#FCC557" fill-rule="evenodd"/><path d="M608.977 344.005C607.871 344.005 607 344.92 607 346.01 607 347.099 607.871 348 608.977 348L613.038 348C614.144 348 615 347.099 615 346.01 615 344.92 614.144 344.005 613.038 344.005Z" fill="#FCC557" fill-rule="evenodd"/><path d="M597.475 350C596.093 350 595.005 351.239 595.005 352.736L595.005 366.323C595.005 367.815 596.093 369 597.475 369 598.852 369 599.995 367.815 599.995 366.323L599.995 352.736C599.995 351.239 598.852 350 597.475 350Z" fill="#BDDFD1" fill-rule="evenodd"/><path d="M615.005 359.005 615.005 361.978C615.005 363.626 616.148 364.995 617.525 364.995 618.907 364.995 619.995 363.626 619.995 361.978L619.995 359.005Z" fill="#8F3956" fill-rule="evenodd"/><path d="M628.005 359.005 628.005 361.978C628.005 363.626 629.308 364.995 630.956 364.995 632.609 364.995 633.995 363.626 633.995 361.978L633.995 359.005Z" fill="#8F3956" fill-rule="evenodd"/><path d="M622.005 366.005 622.005 368.475C622.005 369.852 623.09 370.995 624.464 370.995 625.841 370.995 626.995 369.852 626.995 368.475L626.995 366.005Z" fill="#8F3956" fill-rule="evenodd"/><path d="M622.005 352.005 622.005 355.044C622.005 356.692 623.09 358 624.464 358 625.841 358 626.995 356.692 626.995 355.044L626.995 352.005Z" fill="#8F3956" fill-rule="evenodd"/><path d="M590.755 356C589.259 356 588.005 357.37 588.005 359.025 588.005 360.674 589.259 362 590.755 362L604.264 362C605.756 362 606.995 360.674 606.995 359.025 606.995 357.37 605.756 356 604.264 356Z" fill="#32ADB2" fill-rule="evenodd"/><path d="M624.464 350C623.09 350 622.005 351.129 622.005 352.493 622.005 353.853 623.09 355 624.464 355 625.841 355 626.995 353.853 626.995 352.493 626.995 351.129 625.841 350 624.464 350Z" fill="#FFEA55" fill-rule="evenodd"/><path d="M624.464 363C623.09 363 622.005 364.304 622.005 366.041 622.005 367.69 623.09 369 624.464 369 625.841 369 626.995 367.69 626.995 366.041 626.995 364.304 625.841 363 624.464 363Z" fill="#32ADB2" fill-rule="evenodd"/><path d="M617.525 356C616.148 356 615.005 357.37 615.005 359.025 615.005 360.674 616.148 362 617.525 362 618.907 362 619.995 360.674 619.995 359.025 619.995 357.37 618.907 356 617.525 356Z" fill="#85C7AA" fill-rule="evenodd"/><path d="M630.956 356C629.308 356 628.005 357.37 628.005 359.025 628.005 360.674 629.308 362 630.956 362 632.609 362 633.995 360.674 633.995 359.025 633.995 357.37 632.609 356 630.956 356Z" fill="#083B4F" fill-rule="evenodd"/></g></svg>