<svg width="757" height="458" xmlns="http://www.w3.org/2000/svg" xmlns:xlink="http://www.w3.org/1999/xlink" overflow="hidden"><defs><clipPath id="clip0"><rect x="84" y="41" width="757" height="458"/></clipPath></defs><g clip-path="url(#clip0)" transform="translate(-84 -41)"><path d="M360.918 107.486C362.661 108.189 364.276 108.892 366.019 109.566 367.633 111.168 368.839 111.843 369.893 113.248 370.431 113.248 370.431 113.951 370.431 114.823 369.893 114.823 369.893 115.525 369.377 115.525 369.377 115.525 369.377 114.823 368.839 114.823 368.301 113.951 367.095 113.248 366.019 112.546L366.557 112.546C365.481 111.843 364.276 111.168 363.199 110.466 362.661 109.566 361.585 109.566 360.38 108.892 360.38 108.892 359.842 108.189 360.38 108.189L360.38 107.486ZM550.391 42.5001C541.933 42.5001 533.624 43.9055 524.111 46.1822 515.114 49.1617 505.73 52.6752 496.216 58.6342 487.757 62.991 479.987 68.7813 472.755 76.1456 470.474 78.2256 468.859 79.7997 466.578 81.9078 464.835 84.8873 462.682 87.6981 460.422 89.9749 458.141 93.6571 455.988 96.4398 453.707 100.122 452.092 103.101 449.811 106.081 447.529 108.892 443.655 113.951 439.221 120.613 433.604 125.7 430.784 128.68 428.632 130.057 425.812 131.463 424.607 132.334 423.53 133.037 421.938 133.037L419.656 133.037C418.58 133.037 417.913 132.334 417.375 132.334 416.298 131.463 415.76 131.463 415.222 130.057 414.017 129.355 413.479 128.68 412.403 127.078 411.197 124.998 410.121 122.721 409.066 119.207 408.528 117.633 407.84 116.228 407.84 113.951 407.323 112.546 407.323 111.168 406.785 109.566 406.785 106.784 406.247 103.804 406.785 100.122L406.785 95.0344 406.785 90.6776C406.785 87.6981 406.785 84.8873 406.247 81.9078 405.709 79.7997 405.171 76.8483 403.427 73.8689 402.351 71.7607 400.608 69.484 398.455 67.3758 395.657 64.3964 391.761 62.2883 387.736 60.0115 381.043 56.3574 373.251 54.2493 363.738 54.2493L363.199 54.2493C358.766 54.2493 354.224 54.952 350.866 55.6547 346.432 56.3574 342.02 57.0601 338.124 57.9315 334.099 58.6342 329.687 60.0115 325.253 61.4169 320.69 62.2883 316.278 63.6937 311.844 64.3964 305.128 66.6731 297.896 68.7813 290.514 71.058 287.845 71.7607 285.025 72.4634 281.667 73.1661 269.872 76.8483 261.026 78.9283 252.029 80.5024 245.873 81.9078 239.696 82.6105 233.54 82.6105L231.388 82.6105C229.106 82.6105 226.825 82.6105 224.694 81.9078 221.875 81.9078 218.517 81.9078 215.697 81.2051 209.541 80.5024 204.031 78.9283 197.876 77.5229 193.312 76.1456 188.34 75.4429 183.928 74.5716 178.827 73.1661 173.877 72.4634 169.314 72.4634 167.699 71.7607 165.418 71.7607 163.803 71.7607 159.779 71.7607 156.442 72.4634 153.085 73.1661 145.315 73.8689 137.523 77.5229 130.291 82.6105 127.471 84.8873 124.652 87.6981 121.316 90.6776 118.496 93.6571 115.676 97.3111 112.319 101.696 107.906 108.189 103.472 116.931 99.4474 126.403 96.0897 135.145 92.7536 144.589 90.6012 154.933 88.3197 164.377 87.2435 173.85 86.0381 183.997 85.5001 194.341 86.0381 204.488 87.2435 215.506 89.3959 237.403 95.0135 260.002 104.01 284.681 108.423 295.727 112.857 307.448 119.034 319.704 124.114 330.047 129.624 340.897 135.78 351.916 141.419 361.388 147.058 371.535 153.752 381.008 156.442 385.364 159.262 389.047 162.598 394.134 165.956 399.39 169.314 403.747 172.65 408.132 176.545 413.22 181.647 418.307 186.597 423.367 196.132 435.116 207.389 445.263 218.517 454.005 234.208 466.457 251.513 476.604 269.872 483.968 278.848 487.622 288.383 490.433 298.434 492.71 302.33 493.412 306.743 494.115 311.844 494.818 317.332 495.689 322.972 496.392 328.073 497.095 342.558 497.797 357.022 498.5 373.789 498.5 382.248 498.5 391.094 498.5 401.146 497.797 422.454 497.797 443.655 496.392 464.296 494.818L474.348 494.115C497.83 492.71 523.035 491.304 547.572 491.304L572.776 491.304C575.467 491.304 578.803 492.007 581.622 492.007L614.618 492.007C640.361 491.304 661.002 489.028 681.127 486.048 704.049 481.691 723.615 475.198 741.996 466.457 749.766 462.072 757.687 456.984 765.457 451.925 772.71 445.966 779.404 440.175 786.636 432.839 800.045 418.982 811.862 402.876 820.837 384.662 825.271 375.92 829.145 366.476 831.965 355.598 835.323 345.282 837.604 334.404 839.219 322.683 841.479 303.063 841.479 282.573 838.142 261.407 836.399 251.232 833.579 240.916 830.222 231.444 826.864 221.999 822.452 213.23 817.479 205.191 814.66 201.508 811.862 198.698 808.504 195.043 805.146 192.064 801.789 189.253 797.376 186.976 788.918 181.889 779.404 178.909 771.634 177.532 766.533 176.127 761.044 175.255 755.405 174.553 753.791 173.85 751.509 173.85 749.228 173.147 745.892 173.147 742.534 172.444 738.638 171.742 731.944 170.168 726.305 169.465 721.354 168.06 716.253 166.486 711.281 164.377 705.664 161.398 700.154 158.615 695.074 154.933 690.102 151.251 685.539 147.569 680.589 143.212 675.487 138.827 665.436 128.68 655.384 116.931 645.849 106.081 643.718 103.101 640.899 99.4192 638.079 96.4398 626.951 83.3132 614.08 69.484 600.133 59.3369 593.417 54.2493 586.185 50.5671 578.803 47.5876 571.033 44.7768 562.057 43.2028 553.189 42.5001Z" stroke="#FDEDEF" stroke-linejoin="round" stroke-miterlimit="10" fill="#FBDAE0" fill-rule="evenodd" fill-opacity="0.290196"/><path d="M563.355 361.296C563.661 361.619 563.967 362.343 563.661 362.666 563.048 363.636 562.362 364.683 561.75 365.329 562.056 365.329 562.056 365.652 562.056 365.652 562.742 365.329 563.048 365.006 563.661 364.683 564.274 364.36 564.654 363.636 564.96 363.313 564.96 362.99 565.266 362.99 565.572 362.99 565.866 362.99 566.173 362.99 566.173 363.313 566.565 363.313 566.565 363.636 566.565 364.037 566.565 364.36 566.565 364.36 566.173 364.683 565.866 365.329 565.266 365.652 564.96 366.376 562.056 370.719 558.246 373.705 553.81 375.386 553.81 375.709 553.504 375.709 553.504 375.709L553.198 375.386C552.818 375.386 552.511 375.075 552.511 374.752 552.511 374.429 552.818 374.106 553.198 373.705 553.81 373.382 554.423 372.736 555.109 372.413L555.109 371.689C555.415 371.366 555.722 371.043 555.722 370.719 555.415 370.073 555.109 369.349 555.722 369.026 557.633 367.333 559.532 365.652 560.831 363.636 561.443 362.99 561.75 362.343 562.056 361.619 562.056 361.296 562.362 361.296 562.742 361.296ZM463.511 130.513C460.007 130.513 456.184 130.836 452.374 130.836 447.252 131.159 442.143 131.482 437.107 132.116 432.292 132.84 427.869 133.486 423.752 134.533 421.841 134.856 420.236 135.179 418.324 135.502 416.732 136.149 415.433 136.549 414.208 136.873L412.603 137.196 409.699 137.842C402.764 139.846 396.724 141.539 390.622 143.555 383.369 145.895 377.267 147.899 371.545 150.639 364.905 153.302 359.17 156.275 354.061 159.985 349.026 163.371 344.21 167.391 340.706 171.411 338.795 173.751 337.19 175.767 335.671 178.417 334.372 180.834 332.767 183.497 331.848 186.47 329.557 192.197 328.344 198.556 328.344 205.64 328.344 207.979 328.638 210.306 328.638 211.999 328.638 214.339 328.944 216.679 329.25 220.052 329.557 223.116 330.243 226.089 330.549 228.752L330.549 229.475 330.549 229.799C330.855 231.492 331.162 233.185 331.162 235.189L331.468 235.189C332.154 240.838 332.461 245.258 332.767 249.291 332.767 254.281 332.767 258.947 332.154 263.704L332.154 263.381C331.848 266.031 331.162 268.693 330.549 271.033 329.937 273.76 328.944 276.423 328.344 278.117L325.44 284.153C324.521 285.523 323.529 286.816 322.61 288.186 321.311 289.866 320.012 291.159 318.799 292.852 316.582 296.239 313.984 299.613 312.085 302.922 307.65 310.005 304.145 317.334 301.315 324.418 298.718 331.825 297.125 339.154 296.512 346.56 296.512 350.593 296.512 354.29 297.125 358.323 297.505 362.02 298.411 366.053 299.404 370.073 300.935 374.752 302.847 379.419 305.751 384.486 308.262 389.165 310.86 393.185 313.384 397.218L314.977 399.221C316.888 402.608 319.412 406.318 321.311 409.614 324.215 414.371 326.432 418.714 328.037 423.057L328.344 423.057C329.557 427.09 330.855 430.8 332.154 434.497 332.461 435.79 332.767 436.837 333.073 438.116 334.066 440.857 334.984 443.519 335.671 446.169 337.19 450.202 338.489 453.589 340.094 456.963 341.699 460.672 343.904 464.292 346.122 467.355 348.033 470.328 350.545 473.069 353.449 476.054 355.973 478.381 358.864 480.398 361.694 482.414 367.11 486.111 373.138 489.174 380.171 491.191 386.199 492.884 392.533 493.841 400.167 494.164 402.066 494.487 403.977 494.487 406.268 494.487 410.691 494.487 415.813 494.164 421.535 493.518 431.079 492.471 440.918 490.868 451.075 488.127 456.797 486.434 462.212 484.831 467.64 482.815L467.946 482.414 470.764 482.414 472.063 482.815 486.031 482.815C496.261 482.414 504.813 482.091 512.447 481.121 521.672 479.751 529.612 478.058 536.633 475.085 540.455 473.715 544.266 472.021 547.476 470.005 550.906 467.678 554.117 465.339 557.633 461.952 563.661 456.639 569.383 449.556 574.198 441.18 578.621 433.773 582.125 425.72 585.262 416.374 586.867 411.954 588.166 407.598 589.072 402.931 590.371 398.588 591.363 393.508 592.282 388.842 593.887 379.419 594.5 370.073 594.5 361.296 594.194 352.597 593.275 343.911 590.984 335.444 589.072 327.081 585.948 318.705 581.819 310.975 577.629 302.922 572.287 295.593 565.572 287.863 563.355 285.523 561.137 283.507 559.226 281.813 557.939 280.456 556.334 279.086 554.729 277.793L554.423 277.47 552.511 275.777C548.395 272.08 543.665 267.724 539.843 262.657 539.156 261.687 538.238 260.317 537.551 259.348 536.939 257.978 536.032 256.62 535.346 254.927 534.427 251.941 533.435 248.891 533.128 245.258 532.822 243.565 532.822 241.561 532.822 239.545 532.822 237.528 532.822 235.835 533.128 233.508 533.435 231.169 533.741 228.752 534.427 226.412 535.04 224.408 535.652 222.069 536.633 219.096 537.551 215.386 538.85 211.676 540.149 207.979L540.762 206.286 541.374 204.593C542.979 200.573 544.266 195.893 545.564 191.227 546.177 188.487 546.79 185.514 547.096 182.851 547.476 177.461 547.096 172.381 545.871 167.714 545.185 165.698 544.266 163.681 543.273 161.355 542.367 159.661 541.374 157.645 539.843 155.628 537.245 152.255 534.121 149.269 530.298 146.218 526.488 143.879 522.285 141.539 517.249 139.535 512.753 137.519 508.011 136.149 502.289 134.856 497.18 133.486 491.752 132.529 485.724 131.793 478.777 131.159 471.144 130.513 463.511 130.513Z" stroke="#FDEDEF" stroke-linejoin="round" stroke-miterlimit="10" fill="#FBDAE0" fill-rule="evenodd"/></g></svg>