<svg width="901" height="418" xmlns="http://www.w3.org/2000/svg" xmlns:xlink="http://www.w3.org/1999/xlink" overflow="hidden"><defs><clipPath id="clip0"><rect x="14" y="94" width="901" height="418"/></clipPath></defs><g clip-path="url(#clip0)" transform="translate(-14 -94)"><path d="M342.243 154.286C344.32 154.927 346.244 155.568 348.322 156.183 350.246 157.645 351.683 158.26 352.94 159.542 353.581 159.542 353.581 160.184 353.581 160.978 352.94 160.978 352.94 161.619 352.324 161.619 352.324 161.619 352.324 160.978 351.683 160.978 351.041 160.184 349.605 159.542 348.322 158.901L348.963 158.901C347.681 158.26 346.244 157.645 344.962 157.004 344.32 156.183 343.038 156.183 341.601 155.568 341.601 155.568 340.96 154.927 341.601 154.927L341.601 154.286ZM568.057 95C557.976 95 548.074 96.2821 536.736 98.3592 526.013 101.077 514.829 104.283 503.491 109.719 493.41 113.693 484.149 118.976 475.53 125.694 472.811 127.592 470.887 129.028 468.168 130.951 466.09 133.669 463.525 136.233 460.832 138.31 458.113 141.67 455.547 144.208 452.828 147.567 450.904 150.285 448.185 153.004 445.466 155.568 440.849 160.184 435.565 166.261 428.869 170.902 425.509 173.62 422.944 174.877 419.583 176.159 418.147 176.954 416.864 177.595 414.966 177.595L412.247 177.595C410.964 177.595 410.169 176.954 409.528 176.954 408.245 176.159 407.604 176.159 406.963 174.877 405.526 174.236 404.885 173.62 403.602 172.159 402.166 170.261 400.883 168.184 399.626 164.979 398.985 163.543 398.164 162.261 398.164 160.184 397.548 158.901 397.548 157.645 396.907 156.183 396.907 153.645 396.266 150.927 396.907 147.567L396.907 142.926 396.907 138.951C396.907 136.233 396.907 133.669 396.266 130.951 395.624 129.028 394.983 126.335 392.905 123.617 391.623 121.694 389.545 119.617 386.98 117.694 383.645 114.976 379.002 113.052 374.205 110.975 366.227 107.642 356.941 105.719 345.603 105.719L344.962 105.719C339.677 105.719 334.265 106.36 330.263 107.001 324.979 107.642 319.72 108.283 315.077 109.078 310.28 109.719 305.022 110.975 299.737 112.257 294.299 113.052 289.04 114.335 283.756 114.976 275.753 117.053 267.134 118.976 258.335 121.053 255.154 121.694 251.794 122.335 247.792 122.976 233.735 126.335 223.192 128.233 212.469 129.669 205.133 130.951 197.771 131.592 190.434 131.592L187.869 131.592C185.15 131.592 182.431 131.592 179.891 130.951 176.531 130.951 172.529 130.951 169.169 130.31 161.832 129.669 155.265 128.233 147.929 126.951 142.491 125.694 136.565 125.053 131.306 124.258 125.227 122.976 119.327 122.335 113.889 122.335 111.965 121.694 109.246 121.694 107.322 121.694 102.525 121.694 98.5489 122.335 94.5472 122.976 85.2868 123.617 76.0008 126.951 67.3818 131.592 64.0213 133.669 60.6609 136.233 56.6849 138.951 53.3245 141.67 49.9641 145.003 45.9624 149.003 40.7037 154.927 35.4194 162.902 30.6225 171.543 26.6208 179.518 22.6447 188.134 20.0795 197.57 17.3604 206.186 16.0778 214.828 14.6413 224.085 14 233.521 14.6413 242.778 16.0778 252.83 18.643 272.806 25.3382 293.422 36.0607 315.937 41.3194 326.014 46.6037 336.707 53.9658 347.887 60.0196 357.324 66.5865 367.222 73.923 377.274 80.6438 385.915 87.3646 395.172 95.3424 403.814 98.5489 407.788 101.909 411.148 105.885 415.789 109.887 420.584 113.889 424.559 117.865 428.559 122.508 433.2 128.587 437.842 134.487 442.457 145.851 453.176 159.267 462.433 172.529 470.408 191.229 481.767 211.854 491.024 233.735 497.743 244.432 501.076 255.796 503.641 267.775 505.718 272.418 506.359 277.677 507 283.756 507.641 290.297 508.436 297.018 509.077 303.098 509.718 320.362 510.359 337.6 511 357.583 511 367.664 511 378.207 511 390.186 510.359 415.582 510.359 440.849 509.077 465.449 507.641L477.429 507C505.415 505.718 535.453 504.435 564.697 504.435L594.735 504.435C597.942 504.435 601.918 505.077 605.278 505.077L644.602 505.077C675.282 504.435 699.883 502.358 723.867 499.64 751.186 495.666 774.504 489.742 796.411 481.767 805.671 477.767 815.111 473.126 824.372 468.51 833.016 463.074 840.994 457.792 849.613 451.099 865.594 438.457 879.677 423.764 890.374 407.147 895.658 399.173 900.276 390.557 903.636 380.633 907.638 371.222 910.357 361.298 912.281 350.605 914.974 332.707 914.974 314.013 910.998 294.705 908.92 285.422 905.56 276.011 901.558 267.37 897.557 258.754 892.298 250.753 886.372 243.419 883.012 240.06 879.677 237.496 875.676 234.162 871.674 231.444 867.672 228.88 862.413 226.803 852.332 222.162 840.994 219.444 831.734 218.187 825.654 216.905 819.113 216.11 812.392 215.469 810.468 214.828 807.749 214.828 805.03 214.187 801.054 214.187 797.052 213.546 792.409 212.905 784.431 211.469 777.711 210.828 771.811 209.546 765.731 208.11 759.806 206.186 753.11 203.468 746.543 200.93 740.49 197.57 734.564 194.211 729.126 190.852 723.226 186.877 717.146 182.877 705.167 173.62 693.187 162.902 681.823 153.004 679.284 150.285 675.924 146.926 672.563 144.208 659.301 132.233 643.961 119.617 627.339 110.36 619.335 105.719 610.716 102.359 601.918 99.6413 592.657 97.077 581.96 95.6411 571.392 95Z" fill="#BDDFD1" fill-rule="evenodd" fill-opacity="0.290196"/><path d="M336.95 458.009 295.659 459.892 257.363 460.839 224.327 462.731 197.296 465.561 177.023 468.39 164.26 472.166 160.505 473.112 159.007 475.005 160.505 476.888 164.26 478.78 177.023 481.61 197.296 484.448 224.327 487.278 257.363 489.161 295.659 491.054 336.95 492 427.05 492 469.101 491.054 506.637 489.161 539.673 487.278 566.704 484.448 587.73 481.61 600.492 478.78 604.248 476.888 605 475.005 604.248 473.112 600.492 472.166 587.73 468.39 566.704 465.561 539.673 462.731 506.637 460.839 469.101 459.892 427.05 458.009Z" fill="#E6E6E6" fill-rule="evenodd"/><path d="M380 148.009 380 216.991 423.993 216.991 423.993 148.009Z" fill="#F2E7CE" fill-rule="evenodd"/><path d="M372.007 123.009 372.007 148 430.993 148 430.993 123.009Z" fill="#B9462C" fill-rule="evenodd"/><path d="M316.496 166 180 283.165 180 471 452.993 471 452.993 283.165 316.496 166Z" fill="#F2E7CE" fill-rule="evenodd"/><path d="M316.496 128.009 163 260.207 178.799 290 316.496 171.761 454.194 290 469.993 260.207 316.496 128.009Z" fill="#666666" fill-rule="evenodd"/><path d="M316.5 114 152.007 255.372 169.277 286.991 316.5 160.506 463.723 286.991 481 255.372 316.5 114Z" fill="#B9462C" fill-rule="evenodd"/><path d="M332.007 302.009 332.007 402.991 419.993 402.991 419.993 302.009Z" fill="#897657" fill-rule="evenodd"/><path d="M339.007 311 339.007 393 373.993 393 373.993 311Z" fill="#B4DCED" fill-rule="evenodd"/><path d="M380 311 380 393 413.993 393 413.993 311Z" fill="#B4DCED" fill-rule="evenodd"/><path d="M336 348.008 336 356 416.993 356 416.993 348.008Z" fill="#A67C52" fill-rule="evenodd"/><path d="M218.007 302.009 218.007 471 303.993 471 303.993 302.009Z" fill="#BCB7AB" fill-rule="evenodd"/><path d="M231.007 316 231.007 377 291 377 291 316Z" fill="#897657" fill-rule="evenodd"/><path d="M231.007 405.009 231.007 458 291 458 291 405.009Z" fill="#897657" fill-rule="evenodd"/><path d="M285.861 385.009 284.431 386.86 283.715 388.719 283 391.5 283.715 394.281 284.431 396.14 285.861 397.07 288 397.991 290.139 397.07 291.569 396.14 292.278 394.281 292.993 391.5 292.278 388.719 291.569 386.86 290.139 385.009Z" fill="#A67C52" fill-rule="evenodd"/><path d="M453 409.009 453 425 587 425 587 409.009Z" fill="#C69C6D" fill-rule="evenodd"/><path d="M453 443.008 453 459 587 459 587 443.008Z" fill="#C69C6D" fill-rule="evenodd"/><path d="M479.996 385.009 470 398.873 470 471 490 471 490 398.873 479.996 385.009Z" fill="#897657" fill-rule="evenodd"/><path d="M512.004 385.009 502.007 398.873 502.007 471 522 471 522 398.873 512.004 385.009Z" fill="#897657" fill-rule="evenodd"/><path d="M544.497 385.009 535 398.873 535 471 553.993 471 553.993 398.873 544.497 385.009Z" fill="#897657" fill-rule="evenodd"/><path d="M576.996 385.009 567 398.873 567 471 587 471 587 398.873 576.996 385.009Z" fill="#897657" fill-rule="evenodd"/><path d="M259.007 270 259.007 281.991 282 281.991 282 270Z" fill="#E6D7B5" fill-rule="evenodd"/><path d="M326 226 326 237.991 349 237.991 349 226Z" fill="#E6D7B5" fill-rule="evenodd"/><path d="M271 255.01 271 268 292.993 268 292.993 255.01Z" fill="#E6D7B5" fill-rule="evenodd"/><path d="M365.007 276.009 365.007 289 388 289 388 276.009Z" fill="#E6D7B5" fill-rule="evenodd"/><path d="M376.007 261.009 376.007 273 399 273 399 261.009Z" fill="#E6D7B5" fill-rule="evenodd"/><path d="M393 167 393 179.991 412 179.991 412 167Z" fill="#E6D7B5" fill-rule="evenodd"/><path d="M402.007 152.009 402.007 164 422 164 422 152.009Z" fill="#E6D7B5" fill-rule="evenodd"/><path d="M331 439.009 331 451 352.993 451 352.993 439.009Z" fill="#E6D7B5" fill-rule="evenodd"/><path d="M342.007 424 342.007 435.991 365 435.991 365 424Z" fill="#E6D7B5" fill-rule="evenodd"/><path d="M178.007 428 178.007 439.991 191 439.991 191 428Z" fill="#E6D7B5" fill-rule="evenodd"/><path d="M178.007 444 178.007 456 191 456 191 444Z" fill="#E6D7B5" fill-rule="evenodd"/><path d="M178.007 459.009 178.007 471 191 471 191 459.009Z" fill="#E6D7B5" fill-rule="evenodd"/><path d="M441.007 428 441.007 439.991 455 439.991 455 428Z" fill="#E6D7B5" fill-rule="evenodd"/><path d="M441.007 444 441.007 456 455 456 455 444Z" fill="#E6D7B5" fill-rule="evenodd"/><path d="M441.007 459.009 441.007 471 455 471 455 459.009Z" fill="#E6D7B5" fill-rule="evenodd"/><path d="M271 285.009 271 297 292.993 297 292.993 285.009Z" fill="#E6D7B5" fill-rule="evenodd"/><path d="M218.007 302.009 218.007 311.287 218.007 471 225.574 471 225.574 311.287 296.675 311.287 296.675 471 304.242 471 304.242 311.287 305 311.287 305 302.009Z" fill="#897657" fill-rule="evenodd"/><path d="M340.748 430.009 336.246 430.923 332.503 433.658 330.248 432.744 328.753 433.658 327.249 435.479 322.003 435.479 319.748 437.308 317.501 440.043 316.749 442.786 313.751 442.786 311.503 444.607 310.752 446.436 310 449.171 310.752 451 372.248 451 372.993 449.171 372.993 446.436 372.248 442.786 370.745 439.137 368.498 437.308 364.747 436.393 364.747 434.573 363.996 433.658 363.244 432.744 361.748 431.829 360.245 432.744 358.749 434.573 357.246 433.658 355.751 432.744 354.247 432.744 352.744 430.923 350.497 430.009 349.001 430.923 347.498 432.744 344.499 430.923 340.748 430.009Z" fill="#72B3A5" fill-rule="evenodd"/><path d="M309.007 450.01 309.007 456.99 373.993 456.99 373.993 450.01Z" fill="#A67C52" fill-rule="evenodd"/><path d="M311 457 315.447 474 367.296 474 371 457Z" fill="#C69C6D" fill-rule="evenodd"/><path d="M424.186 428 421.14 428.922 418.857 431.678 416.566 429.844 413.52 429.844 409.71 430.765 405.907 432.6 404.38 430.765 402.853 429.844 400.57 430.765 399.05 432.6 398.287 432.6 395.996 433.522 394.477 434.444 392.95 432.6 391.43 431.678 390.667 432.6 389.14 433.522 388.384 434.444 388.384 436.278 385.337 437.2 382.283 439.044 380.763 442.722 380 446.4 380.763 449.156 381.527 451 443.993 451 443.993 449.156 443.229 445.478 441.71 443.635 441.71 440.878 440.946 438.122 439.426 436.278 437.136 434.444 436.38 432.6 434.853 431.678 433.326 430.765 431.806 429.844 429.523 430.765 428.76 431.678 426.469 428.922 424.186 428Z" fill="#72B3A5" fill-rule="evenodd"/><path d="M380 450.01 380 456.99 443.993 456.99 443.993 450.01Z" fill="#A67C52" fill-rule="evenodd"/><path d="M382.007 457 385.758 474 438.25 474 442 457Z" fill="#C69C6D" fill-rule="evenodd"/></g></svg>