<svg width="590" height="419" xmlns="http://www.w3.org/2000/svg" xmlns:xlink="http://www.w3.org/1999/xlink" overflow="hidden"><defs><clipPath id="clip0"><rect x="89" y="111" width="590" height="419"/></clipPath></defs><g clip-path="url(#clip0)" transform="translate(-89 -111)"><path d="M357.518 0.0140716C351.026 0.0140716 344.627 1.25237 337.31 3.26461 330.405 5.7412 323.079 8.99174 315.865 14.2545 309.363 18.1383 303.386 23.2462 297.812 29.7473 296.06 31.6048 294.72 32.8431 293.483 34.8553 291.732 37.4867 290.083 39.9633 288.743 41.9896 286.579 45.2401 284.921 47.7167 283.169 50.3481 281.829 52.9795 280.18 56.0752 278.428 58.0875 275.439 63.2095 272.039 69.0914 267.701 73.5803 265.537 76.2117 263.785 77.45 261.724 78.6883 260.796 79.3074 259.972 80.0814 259.147 80.0814L256.983 80.0814C256.056 80.0814 255.643 79.3074 255.222 79.3074 254.397 78.6883 253.985 78.0691 253.47 77.45 252.645 76.8308 252.233 76.2117 251.409 74.8186 250.481 72.9611 249.657 70.9489 248.832 67.6984 248.317 66.4601 247.905 65.2218 247.905 63.2095 247.493 61.9572 247.493 60.7189 247.08 59.3258L247.08 50.9673 247.08 46.4784 247.08 42.6087C247.08 39.9633 247.08 37.4867 246.668 34.8553 246.668 32.8431 245.741 30.3665 244.504 27.7351 243.68 25.8776 242.34 23.8654 240.588 22.0079 238.517 19.3766 235.426 17.3503 232.437 15.4928 227.284 12.2423 221.298 10.3848 213.981 10.3848L213.569 10.3848C210.158 10.3848 206.654 11.004 204.078 11.6231 200.677 12.2423 197.276 12.8614 194.175 13.4806 191.187 14.2545 187.786 15.4928 184.385 16.7311 180.881 17.3503 177.471 18.7574 174.07 19.3766 168.917 21.234 163.24 23.2462 157.675 25.1037 155.511 25.8776 153.45 26.4968 150.873 27.1159 141.795 30.3665 134.881 32.2239 128.079 33.617 123.339 34.8553 118.589 35.4744 114.261 35.4744L112.199 35.4744C110.86 35.4744 109.108 35.4744 107.047 34.8553 104.873 34.8553 102.297 34.2361 100.545 34.2361 95.8042 32.8431 91.0636 32.2239 86.4168 30.9856 82.9129 29.7473 79.0998 28.9734 75.5866 27.7351 71.7735 27.1159 67.8574 26.4968 64.4566 26.4968 63.2199 25.8776 61.468 25.8776 60.1189 25.8776 57.5425 25.8776 54.5539 26.4968 51.9775 27.1159 45.9909 27.7351 40.0137 30.9856 34.3456 35.4744 32.2845 37.4867 30.111 39.3441 27.5346 42.6087 25.3704 45.2401 23.2062 48.3359 21.0421 52.2056 17.229 58.0875 13.7158 65.8409 10.7271 74.1994 8.15076 81.9388 5.57437 90.3114 3.92548 99.4438 2.17354 107.816 1.34909 116.175 0.824444 125.153 0 134.299 0.412222 143.277 1.34909 152.888 2.99798 172.236 7.32631 192.373 14.231 214.212 17.6412 223.977 21.0421 234.193 25.7826 245.197 29.6987 254.33 33.9334 263.941 38.6739 273.692 43.0023 282.051 47.7522 291.042 52.3897 299.401 54.5539 303.271 56.718 306.521 59.2944 311.024 62.2924 315.513 64.4566 319.383 67.033 322.633 70.0216 327.896 73.9377 332.399 77.7601 336.888 85.077 347.258 93.64 356.25 102.297 363.99 114.261 374.979 127.667 383.971 141.795 390.472 148.7 393.723 156.026 396.199 163.755 398.226 166.753 398.845 170.154 399.464 174.07 400.083 178.295 400.702 183.045 401.476 186.446 402.095 197.689 402.714 209.231 403.334 222.122 403.334 228.624 403.334 235.014 403.334 242.752 402.714 259.147 402.714 275.439 401.476 291.732 400.083L299.048 399.464C317.102 398.226 336.486 396.818 355.767 396.818L374.635 396.818C376.809 396.818 379.385 396.818 381.549 397.592L393.616 397.592C398.357 397.592 402.582 397.592 407.332 396.818 426.716 396.818 442.596 394.961 458.063 392.33 475.695 388.46 491.163 382.733 504.879 374.979 510.865 371.11 516.945 366.621 522.923 361.977 528.497 356.869 533.65 351.747 539.215 345.246 549.53 333.018 558.608 318.763 565.41 302.651 568.914 294.912 571.911 286.554 574.076 276.788 576.652 267.81 578.301 258.199 579.641 247.829 581.393 230.324 581.393 212.354 578.816 193.611 577.477 184.633 575.312 175.501 572.736 167.128 570.16 158.77 566.749 151.016 562.833 143.896 560.772 140.645 558.608 138.169 556.032 134.918 553.858 132.287 550.869 129.641 547.366 127.784 540.976 123.295 533.65 120.664 528.085 119.425 523.747 118.032 519.522 117.413 515.193 116.794 513.854 116.175 512.205 116.175 510.865 115.556 507.867 115.556 505.291 114.937 502.302 114.163 497.149 112.924 492.812 112.305 489.411 111.067 485.083 109.674 481.269 107.816 476.932 105.171 472.603 102.54 468.79 99.4438 464.874 96.1933 461.464 92.9428 458.063 89.0731 453.735 85.2034 445.996 76.2117 438.267 65.8409 431.353 56.0752 429.292 53.5986 427.128 50.3481 424.964 47.7167 416.401 36.0936 406.507 23.8654 395.78 14.8737 390.627 10.3848 384.95 7.13429 379.385 4.5029 373.398 1.87152 366.494 0.0140716 359.683 0.0140716Z" fill="#FEE8BC" fill-rule="evenodd" fill-opacity="0.290196" transform="matrix(-0.995179 -0.0980716 -0.0980716 0.995179 690.688 147.47)"/><path d="M264.005 293 264.005 297.017 270.366 333.773C270.622 335.021 271.734 336 273.038 336L290.026 336C291.33 336 292.442 335.021 292.619 333.773L299 297.017 299 293Z" fill="#FFE87D" fill-rule="evenodd"/><path d="M264.005 293 264.005 297.017 270.186 333.773C270.435 335.021 271.515 336 272.782 336L281 336 281 293Z" fill="#F4992B" fill-rule="evenodd"/><path d="M281.495 306.005C277.921 306.005 275.005 309.16 275.005 313.01 275.005 316.86 277.921 320 281.495 320 285.07 320 288 316.86 288 313.01 288 309.16 285.07 306.005 281.495 306.005Z" fill="#FCC557" fill-rule="evenodd"/><path d="M281 306.005C277.698 306.005 275.004 309.16 275.004 313.01 275.004 316.86 277.698 320 281 320L281 306.005Z" fill="#32ADB2" fill-rule="evenodd"/><path d="M293.899 274.005C293.175 274.005 292.451 274.263 291.902 274.783L283 283.213 286.933 286.995 295.896 278.507C296.995 277.466 296.995 275.813 295.896 274.783 295.347 274.263 294.623 274.005 293.899 274.005Z" fill="#FCC557" fill-rule="evenodd"/><path d="M293.138 274.005C292.464 274.005 291.791 274.26 291.28 274.775L283 283.123 284.858 284.995 294.995 274.838 294.995 274.775C294.484 274.26 293.811 274.005 293.138 274.005Z" fill="#BDDFD1" fill-rule="evenodd"/><path d="M267.855 283C266.344 283 265.093 284.283 265.093 285.821L265.093 288.582 263.707 288.582C262.196 288.582 261.005 289.875 261.005 291.418L261.005 294.173C261.005 295.717 262.196 296.995 263.707 296.995L299.298 296.995C300.804 296.995 302 295.717 302 294.173L302 291.418C302 289.875 300.804 288.582 299.298 288.582L297.907 288.582 297.907 285.821C297.907 284.283 296.716 283 295.21 283Z" fill="#32ADB2" fill-rule="evenodd"/><path d="M281.005 289.005 281.005 296.995 299.233 296.995C300.776 296.995 302 295.782 302 294.316L302 291.699C302 290.233 300.776 289.005 299.233 289.005Z" fill="#BDDFD1" fill-rule="evenodd"/><path d="M267.694 283C266.22 283 265 284.379 265 286.033L265 289 281 289 281 283Z" fill="#BDDFD1" fill-rule="evenodd"/><path d="M270.975 274.005C270.429 274.005 270.005 274.442 270.005 274.987L270.005 279.018C270.005 279.572 270.429 280 270.975 280 271.53 280 271.959 279.572 271.959 279.018L271.959 274.987C271.959 274.442 271.53 274.005 270.975 274.005ZM274.957 274.005C274.411 274.005 273.987 274.442 273.987 274.987L273.987 279.018C273.987 279.572 274.411 280 274.957 280 275.513 280 276 279.572 276 279.018L276 274.987C276 274.442 275.513 274.005 274.957 274.005Z" fill="#32ADB2" fill-rule="evenodd"/><path d="M439 306.005C439 307.487 440.262 308.719 441.774 308.719 440.262 308.719 439 309.896 439 311.378 439 312.314 439.503 313.117 440.201 313.605 439.442 314.974 439 316.516 439 318.121 439 319.308 439.442 320.421 440.076 321.283 439.442 322.086 439 323.081 439 324.194 439 326.795 441.216 328.888 443.865 328.888L441.774 328.888C440.262 328.888 439 330.134 439 331.622 439 334.592 441.473 337 444.504 337L488.512 337C491.542 337 494 334.592 494 331.622 494 330.134 492.743 328.888 491.226 328.888L489.135 328.888C491.789 328.888 494 326.795 494 324.194 494 323.081 493.558 322.086 492.924 321.283 493.558 320.421 494 319.308 494 318.121 494 316.516 493.558 314.974 492.804 313.605 493.497 313.117 494 312.314 494 311.378 494 309.896 492.743 308.719 491.226 308.719 492.743 308.719 494 307.487 494 306.005Z" fill="#F4992B" fill-rule="evenodd"/><path d="M443.865 320C441.216 320 439 322.021 439 324.505 439 326.993 441.216 328.995 443.865 328.995L489.135 328.995C491.789 328.995 494 326.993 494 324.505 494 322.021 491.789 320 489.135 320Z" fill="#32ADB2" fill-rule="evenodd"/><path d="M449.445 309C444.234 309 440 313.264 440 318.532 440 321.543 442.371 324 445.409 324 447.138 324 448.699 323.126 449.683 321.798 449.939 321.483 450.369 321.304 450.799 321.304 451.174 321.304 451.604 321.483 451.861 321.798 452.859 323.126 454.405 324 456.208 324 457.937 324 459.498 323.126 460.482 321.798 460.738 321.483 461.168 321.304 461.603 321.304 461.973 321.304 462.403 321.483 462.66 321.798 463.658 323.126 465.204 324 467.007 324 468.736 324 470.302 323.126 471.286 321.798 471.537 321.483 471.967 321.304 472.402 321.304 472.772 321.304 473.207 321.483 473.459 321.798 474.457 323.126 476.003 324 477.806 324 479.535 324 481.101 323.126 482.085 321.798 482.336 321.483 482.766 321.304 483.201 321.304 483.572 321.304 484.006 321.483 484.258 321.798 485.256 323.126 486.802 324 488.605 324 491.584 324 494 321.543 494 318.532 494 313.264 489.722 309 484.51 309Z" fill="#BDDFD1" fill-rule="evenodd"/><path d="M441.774 309C440.262 309 439 310.091 439 311.466 439 312.845 440.262 314 441.774 314L491.226 314C492.743 314 494 312.845 494 311.466 494 310.091 492.743 309 491.226 309Z" fill="#8F3956" fill-rule="evenodd"/><path d="M448.005 305 461.855 316.327C463.127 317.404 464.771 317.995 466.536 317.995 468.229 317.995 469.878 317.404 471.145 316.327L485 305Z" fill="#FFEA55" fill-rule="evenodd"/><path d="M458.265 287C447.655 287 439 295.603 439 306.223 439 307.737 440.262 308.995 441.774 308.995L491.226 308.995C492.743 308.995 494 307.737 494 306.223 494 295.603 485.345 287 474.735 287Z" fill="#F4992B" fill-rule="evenodd"/><path d="M458.196 287C447.624 287 439 295.454 439 305.89 439 307.378 440.257 308.614 441.764 308.614L459.583 308.614C458.076 308.614 456.804 307.378 456.804 305.89 456.804 295.454 465.428 287 476 287ZM441.764 328.858C440.257 328.858 439 330.109 439 331.602 439 334.583 441.464 337 444.484 337L462.288 337C459.268 337 456.804 334.583 456.804 331.602 456.804 330.109 458.076 328.858 459.583 328.858Z" fill="#F4AB53" fill-rule="evenodd"/><path d="M479.892 293C479.298 293 478.849 293.487 478.849 294.012 478.849 294.557 479.298 294.968 479.892 294.968L481.321 294.968C481.899 294.968 482.348 294.557 482.348 294.012 482.348 293.487 481.899 293 481.321 293ZM484.108 296.922C483.52 296.922 483.066 297.353 483.066 297.878 483.066 298.422 483.52 298.834 484.108 298.834L485.528 298.834C486.116 298.834 486.57 298.422 486.57 297.878 486.57 297.353 486.116 296.922 485.528 296.922ZM477.105 299.491C476.516 299.491 476 299.903 476 300.433 476 300.977 476.516 301.445 477.105 301.445L478.462 301.445C479.05 301.445 479.566 300.977 479.566 300.433 479.566 299.903 479.05 299.491 478.462 299.491ZM485.528 302.103C484.95 302.103 484.501 302.514 484.501 303.059 484.501 303.584 484.95 304 485.528 304L486.957 304C487.551 304 488 303.584 488 303.059 488 302.514 487.551 302.103 486.957 302.103Z" fill="#FFEE92" fill-rule="evenodd"/><path d="M467 276 467 283 478.679 283C479.394 283 480 282.366 480 281.599L480 277.416C480 276.649 479.394 276 478.679 276Z" fill="#8F3956" fill-rule="evenodd"/><path d="M467.034 275.005C466.483 275.005 466 275.444 466 275.99L466 290.995 467.995 290.995 467.995 275.99C467.995 275.444 467.575 275.005 467.034 275.005Z" fill="#FCC557" fill-rule="evenodd"/><path d="M462.03 290C461.446 290 461.005 290.435 461.005 290.998 461.005 291.551 461.446 291.995 462.03 291.995L468.975 291.995C469.538 291.995 470 291.551 470 290.998 470 290.435 469.538 290 468.975 290Z" fill="#F49745" fill-rule="evenodd"/><rect x="274.239" y="345.696" width="19.5215" height="128.607" stroke="#B9903E" stroke-width="2.66667" stroke-miterlimit="8" fill="#FCC557"/><rect x="470.239" y="345.696" width="19.5215" height="128.607" stroke="#B9903E" stroke-width="2.66667" stroke-miterlimit="8" fill="#FCC557"/><rect x="269.928" y="337.742" width="224.144" height="31.5167" stroke="#B9903E" stroke-width="2.66667" stroke-miterlimit="8" fill="#FCC557"/><path d="M348.5 170.5C348.5 147.856 370.886 129.5 398.5 129.5 426.114 129.5 448.5 147.856 448.5 170.5 448.5 193.144 426.114 211.5 398.5 211.5 370.886 211.5 348.5 193.144 348.5 170.5Z" stroke="#FFE87D" stroke-width="2.66667" stroke-linejoin="round" stroke-miterlimit="10" fill="#FFF8EC" fill-rule="evenodd"/><path d="M406.5 159.502C404.17 160.006 402.5 162.156 402.5 164.649L402.5 172.004 403.497 172.004C404.053 172.004 404.501 172.469 404.501 173.051L404.501 181.453C404.501 182.035 404.942 182.5 405.498 182.5 406.052 182.5 406.5 182.035 406.5 181.453L406.5 159.502Z" stroke="#FFE87D" stroke-linejoin="round" stroke-miterlimit="10" fill="#8F3956" fill-rule="evenodd"/><path d="M389.5 165.5 389.5 166.56C389.5 167.149 390.017 167.625 390.663 167.625 391.31 167.625 391.833 168.096 391.833 168.685L391.833 181.44C391.833 182.029 392.349 182.5 392.996 182.5 393.645 182.5 394.165 182.029 394.165 181.44L394.165 168.685C394.165 168.096 394.682 167.625 395.331 167.625 395.977 167.625 396.5 167.149 396.5 166.56L396.5 165.5Z" stroke="#FFE87D" stroke-linejoin="round" stroke-miterlimit="10" fill="#8F3956" fill-rule="evenodd"/><path d="M396.973 157.673C397.542 157.673 398.001 158.127 398.001 158.696L398.001 164.848 398.001 166.899C397.996 168.201 397.175 169.365 395.951 169.802L395.951 181.254C395.951 182.954 394.572 184.327 392.871 184.327 391.171 184.327 389.798 182.954 389.798 181.254L389.798 169.802C388.569 169.365 387.748 168.201 387.748 166.899L387.748 158.696C387.748 158.127 388.202 157.673 388.77 157.673 389.339 157.673 389.798 158.127 389.798 158.696L389.798 163.826 391.848 163.826 391.848 158.696C391.848 158.127 392.302 157.673 392.871 157.673 393.441 157.673 393.899 158.127 393.899 158.696L393.899 163.826 395.951 163.826 395.951 158.696C395.951 158.127 396.405 157.673 396.973 157.673ZM407.226 157.673C407.795 157.673 408.254 158.127 408.254 158.696L408.254 181.254C408.254 182.954 406.876 184.327 405.176 184.327 403.474 184.327 402.102 182.954 402.102 181.254L402.102 174.079 401.074 174.079C400.505 174.079 400.051 173.62 400.051 173.051L400.051 164.848C400.051 160.884 403.262 157.673 407.226 157.673ZM383.575 153.502C381.875 153.502 380.502 154.878 380.502 156.58L380.502 185.426C380.502 187.122 381.875 188.5 383.575 188.5L412.422 188.5C414.122 188.5 415.495 187.122 415.5 185.426L415.5 156.58C415.495 154.878 414.122 153.502 412.422 153.502Z" stroke="#FFE87D" stroke-linejoin="round" stroke-miterlimit="10" fill="#8F3956" fill-rule="evenodd"/></g></svg>