<svg width="756" height="455" xmlns="http://www.w3.org/2000/svg" xmlns:xlink="http://www.w3.org/1999/xlink" overflow="hidden"><defs><clipPath id="clip0"><rect x="82" y="-12" width="756" height="455"/></clipPath></defs><g clip-path="url(#clip0)" transform="translate(-82 12)"><path d="M357.418 53.7012C359.161 54.4008 360.776 55.1005 362.519 55.7721 364.133 57.3673 365.339 58.0389 366.393 59.4381 366.931 59.4381 366.931 60.1378 366.931 61.0053 366.393 61.0053 366.393 61.7049 365.877 61.7049 365.877 61.7049 365.877 61.0053 365.339 61.0053 364.8 60.1378 363.595 59.4381 362.519 58.7385L363.057 58.7385C361.981 58.0389 360.776 57.3673 359.699 56.6676 359.161 55.7721 358.085 55.7721 356.88 55.1005 356.88 55.1005 356.342 54.4008 356.88 54.4008L356.88 53.7012ZM546.891-11C538.432-11 530.124-9.60075 520.611-7.33397 511.614-4.36756 502.23-0.869445 492.716 5.06337 484.257 9.40104 476.487 15.1659 469.255 22.498 466.974 24.5689 465.359 26.136 463.078 28.2349 461.334 31.2013 459.182 33.9998 456.922 36.2666 454.641 39.9326 452.488 42.7031 450.207 46.3692 448.592 49.3356 446.311 52.302 444.029 55.1005 440.155 60.1378 435.721 66.7702 430.104 71.8355 427.284 74.8019 425.132 76.1731 422.312 77.5724 421.107 78.4399 420.03 79.1395 418.438 79.1395L416.156 79.1395C415.08 79.1395 414.413 78.4399 413.875 78.4399 412.798 77.5724 412.26 77.5724 411.722 76.1731 410.517 75.4735 409.979 74.8019 408.903 73.2067 407.697 71.1359 406.621 68.8691 405.566 65.371 405.028 63.8038 404.34 62.4045 404.34 60.1378 403.823 58.7385 403.823 57.3673 403.285 55.7721 403.285 53.0016 402.747 50.0352 403.285 46.3692L403.285 41.3039 403.285 36.9662C403.285 33.9998 403.285 31.2013 402.747 28.2349 402.209 26.136 401.671 23.1976 399.927 20.2312 398.851 18.1323 397.108 15.8656 394.955 13.7667 392.157 10.8003 388.261 8.70141 384.236 6.43463 377.543 2.79658 369.751 0.697713 360.237 0.697713L359.699 0.697713C355.265 0.697713 350.724 1.39734 347.366 2.09696 342.932 2.79658 338.52 3.49621 334.624 4.36374 330.599 5.06337 326.187 6.43463 321.753 7.83388 317.19 8.70141 312.778 10.1007 308.344 10.8003 301.628 13.0671 294.396 15.1659 287.014 17.4327 284.345 18.1323 281.525 18.832 278.167 19.5316 266.372 23.1976 257.526 25.2685 248.529 26.8357 242.373 28.2349 236.196 28.9345 230.04 28.9345L227.888 28.9345C225.606 28.9345 223.325 28.9345 221.194 28.2349 218.374 28.2349 215.017 28.2349 212.197 27.5353 206.041 26.8357 200.531 25.2685 194.375 23.8693 189.812 22.498 184.84 21.7984 180.428 20.9308 175.327 19.5316 170.376 18.832 165.813 18.832 164.199 18.1323 161.918 18.1323 160.303 18.1323 156.278 18.1323 152.942 18.832 149.585 19.5316 141.814 20.2312 134.023 23.8693 126.791 28.9345 123.971 31.2013 121.152 33.9998 117.816 36.9662 114.996 39.9326 112.176 43.5707 108.819 47.9363 104.406 54.4008 99.9723 63.1042 95.9474 72.5351 92.5897 81.2384 89.2535 90.6414 87.1011 100.94 84.8196 110.343 83.7434 119.774 82.5381 129.876 82 140.175 82.5381 150.277 83.7434 161.247 85.8958 183.048 91.5135 205.548 100.51 230.118 104.923 241.117 109.357 252.786 115.534 264.988 120.614 275.286 126.124 286.088 132.279 297.058 137.919 306.489 143.558 316.592 150.252 326.023 152.942 330.361 155.762 334.027 159.098 339.092 162.456 344.325 165.813 348.663 169.15 353.028 173.045 358.094 178.147 363.159 183.097 368.196 192.632 379.894 203.889 389.996 215.017 398.7 230.708 411.097 248.013 421.2 266.372 428.532 275.348 432.17 284.883 434.968 294.934 437.235 298.83 437.935 303.243 438.634 308.344 439.334 313.832 440.202 319.471 440.901 324.573 441.601 339.058 442.3 353.522 443 370.289 443 378.748 443 387.594 443 397.646 442.3 418.954 442.3 440.155 440.901 460.796 439.334L470.848 438.634C494.33 437.235 519.535 435.836 544.072 435.836L569.276 435.836C571.966 435.836 575.303 436.535 578.122 436.535L611.118 436.535C636.861 435.836 657.502 433.569 677.627 430.603 700.549 426.265 720.114 419.8 738.496 411.097 746.266 406.731 754.187 401.666 761.957 396.629 769.21 390.696 775.904 384.931 783.136 377.627 796.545 363.831 808.362 347.795 817.337 329.661 821.771 320.958 825.645 311.555 828.465 300.724 831.823 290.454 834.104 279.624 835.718 267.954 837.978 248.421 837.978 228.02 834.642 206.947 832.899 196.816 830.079 186.546 826.722 177.115 823.364 167.712 818.951 158.981 813.979 150.977 811.16 147.311 808.362 144.512 805.004 140.874 801.646 137.908 798.289 135.109 793.876 132.843 785.417 127.777 775.904 124.811 768.134 123.44 763.033 122.04 757.544 121.173 751.905 120.473 750.291 119.774 748.009 119.774 745.728 119.074 742.392 119.074 739.034 118.374 735.138 117.675 728.444 116.108 722.805 115.408 717.854 114.009 712.753 112.442 707.781 110.343 702.164 107.376 696.654 104.606 691.574 100.94 686.602 97.2738 682.039 93.6078 677.089 89.2701 671.987 84.9044 661.936 74.8019 651.884 63.1042 642.349 52.302 640.218 49.3356 637.399 45.6695 634.579 42.7031 623.451 29.6342 610.58 15.8656 596.633 5.76299 589.917 0.697713 582.685-2.96832 575.303-5.93472 567.533-8.73322 558.557-10.3004 549.689-11Z" fill="#7CDD59" fill-rule="evenodd" fill-opacity="0.290196"/><path d="M269.645 285C266.171 285 263.288 288.09 263.288 291.813L263.288 304.187C263 307.895 265.883 310.985 269.645 310.985L607.643 310.985C611.103 310.985 614 307.895 614 304.187L614 291.813C614 288.09 611.103 285 607.643 285Z" fill="#884E07" fill-rule="evenodd"/><path d="M282.379 72.0145C278.893 72.0145 276 75.0578 276 78.7242L276 278.276C276 281.942 278.893 284.986 282.379 284.986L594.621 284.986C598.093 284.986 601 281.942 601 278.276L601 78.7242C601 75.0578 598.093 72.0145 594.621 72.0145Z" fill="#884E07" fill-rule="evenodd"/><path d="M578.984 72.0145 578.984 253.292C578.984 257.263 576.077 260.306 572.606 260.306L276 260.306 276 278.276C276 281.942 278.893 284.986 282.379 284.986L594.621 284.986C598.093 284.986 601 281.942 601 278.276L601 78.7242C601 75.0578 598.093 72.0145 594.621 72.0145Z" fill="#996600" fill-rule="evenodd"/><path d="M295.401 83.0151C290.736 83.0151 287.015 86.8294 287.325 91.5972L287.325 250.403C287.325 255.171 290.736 258.985 295.401 258.985L581.613 258.985C586.264 258.985 590 255.171 590 250.403L590 91.5972C590 86.8294 586.264 83.0151 581.613 83.0151Z" fill="#00B050" fill-rule="evenodd"/><path d="M570.104 83.0152 570.104 216.588C570.104 228.704 560.467 238.59 548.657 238.59L287 238.59 287 250.706C287 255.164 290.414 258.985 295.085 258.985L581.604 258.985C586.26 258.985 590 255.164 590 250.706L590 91.6127C590 86.8363 586.26 83.0152 581.604 83.0152Z" fill="#7CDD59" fill-rule="evenodd" fill-opacity="0.4"/><path d="M359.09 251C351.826 251 346 257.186 346 264.9L346 284.985 416.986 284.985 416.986 264.9C416.986 257.186 411.174 251 403.896 251Z" fill="#E3E9ED" fill-rule="evenodd"/><path d="M388.014 251C392.444 254.1 395.102 259.346 395.102 264.9L395.102 284.985 416.986 284.985 416.986 264.9C416.986 257.186 410.784 251 403.386 251Z" fill="#91A8B9" fill-rule="evenodd"/><path d="M237.116 72C222.808 72 211.009 85.8513 211.009 102.625 211.009 119.399 222.808 133 237.116 133 251.468 133 263 119.399 263 102.625 263 85.8513 251.468 72 237.116 72Z" fill="#BDC0BD" fill-rule="evenodd"/><path d="M236.748 76.0104C236.166 76.0104 235.584 76.0313 234.994 76.0835 222.825 77.3879 214 90.39 214.921 104.759 215.989 118.554 225.483 128.99 236.774 128.99 237.452 128.99 238.147 128.948 238.841 128.875 251.01 127.508 259.991 114.766 258.862 100.136 257.829 86.216 248.17 76.0104 236.748 76.0104Z" fill="#FFFFFF" fill-rule="evenodd"/><path d="M237.144 81C237.091 81 237.008 81.1364 237.008 81.1364L237.008 83.1818C237.008 84.1023 237.008 84.9545 237.386 85.875 237.386 85.9545 237.417 85.9886 237.462 85.9886 237.568 85.9886 237.765 85.7727 237.765 85.5227 238 84.6705 237.576 83.4659 237.576 82.6136 237.576 82.3295 237.576 81.1364 237.197 81.1364 237.197 81.0341 237.174 81 237.144 81Z" fill="#231F20" fill-rule="evenodd"/><path d="M237.409 119C237.205 119 237.008 119.127 237.008 119.39 237.197 120.772 237.197 122.418 237.386 123.8 237.477 123.926 237.583 123.989 237.689 123.989 237.795 123.989 237.902 123.926 238 123.8 238 122.418 237.811 120.772 237.811 119.39 237.811 119.127 237.606 119 237.409 119Z" fill="#231F20" fill-rule="evenodd"/><path d="M222.614 104C221.795 104 221.17 104 220.591 104.234L219.193 104.234C219 104.467 219 104.701 219.193 104.701 219.61 104.916 220.066 104.991 220.529 104.991 221.201 104.991 221.903 104.832 222.614 104.701 222.992 104.701 222.992 104 222.614 104Z" fill="#231F20" fill-rule="evenodd"/><path d="M255.44 102C254.482 102 253.149 102 252 102.25L252 102.75C253.149 103 254.482 103 255.44 103 255.993 103 255.993 102 255.44 102Z" fill="#231F20" fill-rule="evenodd"/><path d="M221.211 94C221.008 94 221.008 94.2415 221.008 94.2415 221.211 94.7246 222.069 95.0242 222.474 95.2657 223.13 95.5072 223.729 95.9903 224.587 95.9903 224.992 95.9903 224.992 95.0242 224.587 95.0242 223.324 95.0242 222.271 94.4831 221.211 94Z" fill="#231F20" fill-rule="evenodd"/><path d="M227.217 85.0112C227.101 85.0112 227.007 85.2247 227.007 85.4719 227.37 86.8764 227.732 88.618 228.319 89.809 228.399 89.9438 228.486 90 228.558 90 228.812 90 228.993 89.4045 228.855 88.9663 228.138 88.0562 227.732 86.5955 227.37 85.1236 227.319 85.0449 227.261 85.0112 227.217 85.0112Z" fill="#231F20" fill-rule="evenodd"/><path d="M246.542 84C246.455 84 246.361 84.0586 246.266 84.1855 245.232 85.4062 244.395 87.2324 244.008 88.7461 244.008 88.9902 244.197 88.9902 244.395 88.9902 245.232 87.4766 245.871 86.1973 246.661 84.918 247 84.5469 246.818 84 246.542 84Z" fill="#231F20" fill-rule="evenodd"/><path d="M252.594 92.0087C251.937 92.2791 251.329 92.9331 250.874 93.3692 250.266 93.8576 249.609 94.0669 249.211 94.5029 249.008 94.7209 249.211 94.9913 249.406 94.9913 250.063 94.9913 250.671 94.2849 251.077 94.0669 251.734 93.6395 252.343 93.1512 252.797 92.4971 253 92.2791 252.797 92.0087 252.594 92.0087Z" fill="#231F20" fill-rule="evenodd"/><path d="M243.261 117.009C243.116 117.009 243.01 117.113 243.01 117.113 243.251 117.823 243.493 118.352 243.493 118.825 243.734 119.288 243.966 120.054 243.966 120.527 244.072 120.858 244.275 121 244.469 121 244.739 121 244.99 120.735 244.99 120.291 244.749 119.818 244.517 119.052 244.208 118.352 243.966 117.823 243.966 117.35 243.493 117.113 243.406 117.038 243.329 117.009 243.261 117.009Z" fill="#231F20" fill-rule="evenodd"/><path d="M250.372 113.81C250.438 113.81 250.504 113.84 250.562 113.86L250.562 113.86C250.405 113.87 250.256 114.01 250.165 114.31 250.165 114.06 250.165 114.06 250.372 113.81ZM248.215 112.01C248.008 112.01 248.008 112.26 248.008 112.26 248.008 112.51 248.215 112.75 248.215 112.75 248.628 113.32 248.884 113.56 249.298 114.06 249.446 114.24 250.174 114.99 250.636 114.99 250.802 114.99 250.934 114.89 250.992 114.62 250.992 114.2 250.826 113.93 250.628 113.87L250.628 113.87C250.62 113.86 250.603 113.84 250.579 113.81 250.372 113.81 250.372 113.56 250.165 113.56 249.909 113.32 249.702 113.07 249.298 112.75 249.091 112.51 248.421 112.01 248.215 112.01Z" fill="#231F20" fill-rule="evenodd"/><path d="M232.393 118C232.267 118 232.153 118.037 232.073 118.134 231.786 119.037 231.214 119.72 230.859 120.634 230.573 121.317 230 121.622 230 122.537 230 122.744 230.286 123 230.55 123 230.664 123 230.767 122.951 230.859 122.841 231.5 122.232 231.5 121.317 231.786 120.634 232.073 120.024 232.645 119.427 233 118.439 233 118.22 232.679 118 232.393 118Z" fill="#231F20" fill-rule="evenodd"/><path d="M226.563 113.012C226.429 113.012 226.277 113.105 226.202 113.363 225.992 113.936 225.521 114.228 225.101 115.175 224.891 115.468 224.471 115.76 224.21 116.345 224 116.345 224.21 116.708 224.21 117 224.681 117 225.311 116.053 225.521 115.76 225.992 115.175 226.622 114.52 226.832 113.643 226.992 113.281 226.79 113.012 226.563 113.012Z" fill="#231F20" fill-rule="evenodd"/><path d="M237.866 101C237.433 101 237 101.847 237 102.369 237 103.216 237.433 104 237.866 104 238.567 104 239 103.216 239 102.369 239 101.847 238.567 101 237.866 101Z" fill="#F4992B" fill-rule="evenodd"/><path d="M237.505 91.0103 236.01 94.2165 237.265 94.2165 237.265 101.99 238.281 101.99 238.042 94.2165 238.99 93.9588 237.505 91.0103Z" fill="#F4992B" fill-rule="evenodd"/><path d="M248.486 101 248.486 102.019 238.009 102.019 238.009 102.981 248.486 102.74 248.486 104 250.991 102.5 248.486 101Z" fill="#F4992B" fill-rule="evenodd"/><path d="M220.749 171C220.348 171 220.003 171.316 220.003 171.75L220.003 173.25C220.003 173.681 220.348 173.997 220.749 173.997L225.251 173.997C225.682 173.997 225.997 173.681 225.997 173.25L225.997 171.75C225.997 171.316 225.652 171 225.251 171Z" fill="#FFFFFF" fill-rule="evenodd"/><path d="M220.749 177C220.348 177 220.003 177.457 220.003 177.99L220.003 180.006C220.003 180.539 220.348 180.996 220.749 180.996L225.251 180.996C225.682 180.996 225.997 180.539 225.997 180.006L225.997 177.99C225.997 177.457 225.652 177 225.251 177Z" fill="#FFFFFF" fill-rule="evenodd"/><path d="M220.749 184C220.348 184 220.003 184.316 220.003 184.75L220.003 186.247C220.003 186.651 220.348 186.997 220.749 186.997L225.251 186.997C225.682 186.997 225.997 186.651 225.997 186.247L225.997 184.75C225.997 184.316 225.652 184 225.251 184Z" fill="#FFFFFF" fill-rule="evenodd"/><path d="M230.773 184C230.343 184 230.003 184.316 230.003 184.75L230.003 186.247C230.003 186.651 230.343 186.997 230.773 186.997L235.227 186.997C235.657 186.997 235.997 186.651 235.997 186.247L235.997 184.75C235.997 184.316 235.657 184 235.227 184Z" fill="#FFFFFF" fill-rule="evenodd"/><path d="M240.624 184C240.29 184 240.003 184.316 240.003 184.75L240.003 186.247C240.003 186.651 240.29 186.997 240.624 186.997L244.376 186.997C244.71 186.997 244.997 186.651 244.997 186.247L244.997 184.75C244.997 184.316 244.71 184 244.376 184Z" fill="#FFFFFF" fill-rule="evenodd"/><path d="M230.773 177C230.343 177 230.003 177.457 230.003 177.99L230.003 180.006C230.003 180.539 230.343 180.996 230.773 180.996L235.227 180.996C235.657 180.996 235.997 180.539 235.997 180.006L235.997 177.99C235.997 177.457 235.657 177 235.227 177Z" fill="#FFFFFF" fill-rule="evenodd"/><path d="M230.773 171C230.343 171 230.003 171.316 230.003 171.75L230.003 173.25C230.003 173.681 230.343 173.997 230.773 173.997L235.227 173.997C235.657 173.997 235.997 173.681 235.997 173.25L235.997 171.75C235.997 171.316 235.657 171 235.227 171Z" fill="#FFFFFF" fill-rule="evenodd"/><path d="M230.773 190C230.343 190 230.003 190.457 230.003 190.99L230.003 192.97C230.003 193.539 230.343 193.996 230.773 193.996L235.227 193.996C235.657 193.996 235.997 193.539 235.997 192.97L235.997 190.99C235.997 190.457 235.657 190 235.227 190Z" fill="#FFFFFF" fill-rule="evenodd"/><path d="M249.773 184C249.346 184 249.003 184.316 249.003 184.75L249.003 186.247C249.003 186.651 249.346 186.997 249.773 186.997L254.257 186.997C254.657 186.997 254.997 186.651 254.997 186.247L254.997 184.75C254.997 184.316 254.657 184 254.257 184Z" fill="#FFFFFF" fill-rule="evenodd"/><path d="M249.773 171C249.346 171 249.003 171.316 249.003 171.75L249.003 173.25C249.003 173.681 249.346 173.997 249.773 173.997L254.257 173.997C254.657 173.997 254.997 173.681 254.997 173.25L254.997 171.75C254.997 171.316 254.657 171 254.257 171Z" fill="#FFFFFF" fill-rule="evenodd"/><path d="M249.773 190C249.346 190 249.003 190.457 249.003 190.99L249.003 192.97C249.003 193.539 249.346 193.996 249.773 193.996L254.257 193.996C254.657 193.996 254.997 193.539 254.997 192.97L254.997 190.99C254.997 190.457 254.657 190 254.257 190Z" fill="#FFFFFF" fill-rule="evenodd"/><path d="M240.624 177C240.29 177 240.003 177.457 240.003 177.99L240.003 180.006C240.003 180.539 240.29 180.996 240.624 180.996L244.376 180.996C244.71 180.996 244.997 180.539 244.997 180.006L244.997 177.99C244.997 177.457 244.71 177 244.376 177Z" fill="#FFFFFF" fill-rule="evenodd"/><path d="M240.624 171C240.29 171 240.003 171.316 240.003 171.75L240.003 173.25C240.003 173.681 240.29 173.997 240.624 173.997L244.376 173.997C244.71 173.997 244.997 173.681 244.997 173.25L244.997 171.75C244.997 171.316 244.71 171 244.376 171Z" fill="#FFFFFF" fill-rule="evenodd"/><path d="M249.773 177C249.346 177 249.003 177.457 249.003 177.99L249.003 180.006C249.003 180.539 249.346 180.996 249.773 180.996L254.257 180.996C254.657 180.996 254.997 180.539 254.997 180.006L254.997 177.99C254.997 177.457 254.657 177 254.257 177Z" fill="#FFFFFF" fill-rule="evenodd"/><path d="M240.624 190C240.29 190 240.003 190.457 240.003 190.99L240.003 192.97C240.003 193.539 240.29 193.996 240.624 193.996L244.376 193.996C244.71 193.996 244.997 193.539 244.997 192.97L244.997 190.99C244.997 190.457 244.71 190 244.376 190Z" fill="#FFFFFF" fill-rule="evenodd"/><rect x="617.5" y="81.5001" width="140" height="117" stroke="#B9903E" stroke-width="2.66667" stroke-linejoin="round" stroke-miterlimit="10" fill="#FCC557"/><path d="M636.359 97.5001C635.391 97.5001 634.401 98.049 633.653 98.9048 633.224 99.3971 633.708 100.618 634.079 101.197 634.45 101.776 634.91 102.422 634.824 103.191 634.47 103.445 634.017 103.51 633.594 103.51 633.481 103.51 633.37 103.505 633.263 103.499 633.089 103.487 632.913 103.455 632.739 103.455 632.618 103.455 632.497 103.471 632.38 103.522 632.097 103.645 631.85 104.076 631.96 104.463 631.765 104.939 631.532 105.188 631.757 105.635 631.933 105.984 632.232 106.271 632.23 106.699 632.228 107.038 632.024 107.311 631.808 107.464 631.591 107.616 631.349 107.693 631.144 107.875 630.506 108.446 630.5 109.729 630.568 110.788 630.981 111.5 631.045 112.728 630.847 113.602 630.771 113.936 630.649 114.29 630.734 114.619 630.832 114.996 631.148 115.144 631.424 115.244 631.727 115.355 632.057 115.457 632.371 115.457 632.668 115.457 632.951 115.365 633.179 115.098 633.718 114.473 634.386 114.26 635.097 114.26 636.023 114.26 637.024 114.62 637.911 114.9 638.452 115.071 639.022 115.351 639.339 115.992 639.761 116.846 639.581 118.032 639.233 118.951 638.886 119.869 638.387 120.686 638.167 121.677 637.961 122.608 638.018 123.608 638.078 124.579 638.152 125.774 638.241 127.034 638.734 128.013 639.252 129.041 639.578 130.574 639.536 131.829 639.503 132.838 639.25 133.83 639.316 134.836 639.435 136.659 640.557 138.027 641.702 138.904 642.899 139.823 643.931 141.387 644.344 143.213 644.551 144.131 644.613 145.1 644.795 146.028 645.111 147.634 645.798 149.092 646.727 150.13 647.403 150.886 648.514 151.153 649.364 151.37 649.806 151.483 650.282 151.573 650.614 151.995 650.768 152.19 650.878 152.442 651.025 152.647 651.736 153.635 653.044 153.229 653.763 154.205 653.949 154.456 654.076 154.779 654.238 155.06 654.64 155.749 655.269 156.162 655.902 156.162 655.962 156.162 656.022 156.158 656.082 156.15L656.082 156.15C655.92 156.892 656.554 157.763 656.358 158.487 656.201 159.073 655.725 159.328 655.398 159.752 654.831 160.487 654.742 161.744 654.987 162.773 655.232 163.801 655.748 164.65 656.265 165.456 657.224 166.95 658.378 167.675 659.418 169.058 660.383 170.339 660.602 172.413 660.39 174.254 660.178 176.094 659.604 177.806 659.194 179.578 658.428 182.891 658.242 186.53 658.975 189.856 659.707 193.183 661.422 196.149 663.719 197.457 663.77 197.486 663.824 197.499 663.878 197.499 664.094 197.499 664.323 197.294 664.471 197.069 664.658 196.786 664.698 196.334 664.567 195.996 664.152 194.924 663.415 194.009 662.877 193.052 662.707 192.751 662.529 192.41 662.551 192.028 662.576 191.598 662.839 191.289 663.033 190.955 663.328 190.442 663.484 189.799 663.473 189.14 663.461 188.527 663.207 187.927 663.222 187.313 663.237 186.7 663.472 186.054 663.886 185.856 664.074 185.766 664.284 185.775 664.466 185.662 665.064 185.291 664.969 184.009 665.402 183.32 665.603 183 665.899 182.841 666.172 182.656 667.33 181.874 668.282 180.326 668.387 178.529 668.472 177.09 668.099 175.345 668.877 174.403 669.217 173.991 669.643 173.905 670.097 173.905 670.425 173.905 670.768 173.95 671.102 173.95 671.279 173.95 671.453 173.938 671.623 173.899 672.001 173.813 672.254 173.318 672.431 172.84 672.608 172.361 672.629 171.795 672.565 171.263 672.487 170.609 672.287 169.97 672.331 169.31 672.393 168.381 672.91 167.666 673.311 166.921 673.785 166.037 674.122 165.024 674.299 163.945 674.5 162.718 673.941 161.269 673.157 160.657 672.373 160.045 671.433 160.028 670.537 159.991 669.64 159.956 668.691 159.86 667.958 159.133 667.287 158.467 666.909 157.378 666.378 156.497 665.484 155.011 664.182 154.153 662.924 153.338 662.563 153.104 662.169 152.868 661.783 152.868 661.66 152.868 661.538 152.892 661.419 152.947 661.223 153.037 661.047 153.209 660.844 153.263 660.794 153.276 660.745 153.283 660.696 153.283 660.207 153.283 659.794 152.641 659.341 152.297 659.111 152.123 658.859 152.044 658.605 152.044 657.717 152.044 656.804 153.014 656.732 154.293 656.587 154.363 656.409 154.398 656.22 154.398 655.712 154.398 655.125 154.147 654.904 153.659 654.686 153.177 654.598 152.502 654.223 152.282 654.022 152.165 653.771 152.209 653.608 152.008 653.338 151.674 653.548 151.068 653.596 150.567 653.673 149.766 653.248 149.005 652.729 148.656 652.21 148.307 651.616 148.279 651.041 148.254 650.466 148.227 649.871 148.191 649.356 147.829 648.355 147.124 647.945 145.217 648.385 143.769 648.813 142.358 649.918 141.474 651.012 141.474 651.039 141.474 651.066 141.474 651.093 141.476 652.189 141.521 653.348 142.645 653.36 144.187 653.362 144.432 653.536 144.54 653.727 144.54 653.841 144.54 653.96 144.501 654.05 144.429 654.292 144.235 654.418 143.844 654.478 143.462 654.537 143.08 654.545 142.683 654.628 142.31 654.819 141.453 655.433 140.822 656.072 140.822 656.077 140.822 656.082 140.822 656.087 140.822 656.091 140.822 656.094 140.822 656.098 140.822 656.764 140.822 657.233 139.888 657.707 139.227 658.185 138.561 658.47 137.559 658.282 136.652 658.18 136.163 657.948 135.671 658.064 135.189 658.155 134.811 658.431 134.592 658.693 134.438 659.352 134.051 660.059 133.852 660.772 133.852 660.847 133.852 660.921 133.854 660.996 133.858 661.017 133.86 661.039 133.861 661.06 133.861 661.702 133.861 662.043 133.269 662.381 132.467 662.633 131.869 662.745 131.114 663.147 130.708 663.37 130.483 663.625 130.415 663.895 130.415 664.307 130.415 664.755 130.573 665.179 130.573 665.226 130.573 665.273 130.571 665.32 130.567 666.398 130.465 667.241 128.764 666.934 127.308 666.789 126.615 666.444 126.048 666.163 125.442 665.776 124.606 665.505 123.675 665.364 122.697 665.234 121.8 665.198 120.814 664.777 120.116 664.12 120.159 663.323 120.133 662.738 120.556 662.623 119.616 662.495 118.634 662.081 117.878 661.788 117.341 661.302 116.963 660.836 116.963 660.645 116.963 660.458 117.026 660.288 117.167 659.717 117.641 659.593 118.742 659.698 119.663 659.804 120.583 660.076 121.475 660.058 122.407 660.041 123.328 659.59 124.344 658.938 124.344 658.93 124.344 658.922 124.344 658.914 124.344 658.569 124.331 658.259 124.035 658.016 123.688 657.668 123.194 657.392 122.562 656.944 122.265 656.6 122.037 656.206 122.042 655.835 121.925 654.572 121.528 653.707 119.493 654.055 117.743 654.341 116.312 655.391 115.309 656.435 115.309 656.667 115.309 656.899 115.359 657.122 115.465 658.607 114.701 659.211 112.07 658.619 110.01 658.027 107.951 656.434 106.672 654.854 106.575 654.392 106.547 653.92 106.604 653.472 106.444 652.203 105.993 651.54 104.035 650.436 103.049 650.142 102.786 649.691 102.732 649.205 102.732 648.865 102.732 648.507 102.758 648.174 102.758 647.811 102.758 647.477 102.726 647.227 102.594 646.837 102.387 646.424 102.282 646.008 102.282 645.893 102.282 645.778 102.29 645.662 102.306 645.197 102.926 644.327 103.101 643.687 103.161 643.029 102.262 642.235 101.425 641.416 100.841 640.869 100.451 640.23 100.039 640.061 99.2105 639.841 98.1276 638.722 97.5746 637.799 97.5746 637.593 97.5746 637.397 97.602 637.223 97.6568 636.942 97.5501 636.651 97.5001 636.359 97.5001Z" stroke="#663300" stroke-linejoin="round" stroke-miterlimit="10" stroke-opacity="0.2" fill="#7CDD59" fill-rule="evenodd"/><path d="M673.483 88.5001C673.133 88.5001 672.789 88.5659 672.46 88.7544 670.871 89.665 671.338 91.804 670.297 93.0753 669.397 94.1738 667.734 93.3115 667.009 94.8203 666.5 95.8807 667.07 97.3254 667.811 98.0898 668.551 98.8535 669.478 99.3121 670.065 100.296 671.006 101.875 670.738 104.212 670.223 106.125 669.707 108.036 668.979 109.97 669.157 111.993 669.24 112.947 669.525 113.851 669.896 114.667 670.256 115.458 670.747 116.218 671.409 116.437 671.54 116.48 671.672 116.499 671.802 116.499 672.512 116.499 673.204 115.912 673.743 115.237 674.382 114.438 674.936 113.47 675.714 112.95 676.833 112.2 678.275 112.48 679.25 111.418 680.458 110.104 680.279 107.597 680.611 105.539 681.169 102.081 683.36 99.5266 684.216 96.1846 684.385 95.5309 684.5 94.8439 684.488 94.1508 684.451 91.9133 683.071 90.0535 681.525 89.3091 680.632 88.8789 679.735 88.7762 678.833 88.7762 678.008 88.7762 677.178 88.862 676.343 88.862 676.14 88.862 675.936 88.8572 675.732 88.8445 675.007 88.7998 674.23 88.5001 673.483 88.5001Z" stroke="#663300" stroke-linejoin="round" stroke-miterlimit="10" stroke-opacity="0.2" fill="#7CDD59" fill-rule="evenodd"/><path d="M742.905 94.5001C742.467 94.5001 742.03 94.5935 741.614 94.7859 741.181 94.9867 740.771 95.2846 740.331 95.4488 739.978 95.5794 739.614 95.6208 739.249 95.6208 738.94 95.6208 738.63 95.5914 738.323 95.562L734.72 95.2138C734.351 95.1785 733.975 95.1449 733.601 95.1449 732.885 95.1449 732.179 95.2678 731.553 95.7323 730.159 96.7667 729.369 99.3449 727.806 99.6116 727.719 99.6266 727.633 99.6338 727.548 99.6338 726.549 99.6338 725.641 98.6791 724.69 98.1481 724.107 97.8221 723.482 97.6639 722.856 97.6639 721.689 97.6639 720.519 98.2134 719.613 99.2545 719.09 98.8775 719.251 97.7771 719.067 96.989 718.874 96.1674 718.249 95.6711 717.638 95.5956 717.565 95.5866 717.493 95.5824 717.421 95.5824 716.884 95.5824 716.354 95.815 715.84 96.0523 714.584 96.6312 713.124 97.6189 713.008 99.4762 712.976 99.9994 713.058 100.556 712.903 101.033 712.681 101.712 712.08 101.936 711.706 102.466 711.26 103.097 711.189 104.072 711.171 104.963 711.152 105.854 711.146 106.811 710.781 107.538 710.546 108.007 709.663 108.325 708.945 108.325 708.55 108.325 708.204 108.229 708.043 108.008 707.782 107.649 707.472 107.501 707.14 107.501 706.363 107.501 705.472 108.313 704.836 109.119L702.133 112.546C701.456 113.403 700.727 114.298 699.829 114.511 699.733 114.534 699.635 114.545 699.535 114.545 698.712 114.545 697.849 113.781 697.816 112.635 697.989 112.405 698.211 112.336 698.453 112.336 698.81 112.336 699.212 112.487 699.565 112.487 699.818 112.487 700.046 112.41 700.214 112.143 700.711 111.354 699.975 110.225 699.328 109.696 698.144 108.73 696.921 107.746 695.566 107.486 695.371 107.448 695.173 107.429 694.974 107.429 693.787 107.429 692.574 108.102 691.971 109.52 691.369 110.937 691.479 112.786 690.883 114.208 690.51 115.098 689.895 115.735 689.471 116.578 689.047 117.422 688.866 118.696 689.385 119.426 689.804 120.015 690.517 120.017 690.931 120.611 691.251 121.07 691.359 121.836 691.778 122.088 691.858 122.136 691.939 122.158 692.02 122.158 692.425 122.158 692.816 121.606 692.911 121.009 693.026 120.292 692.866 119.553 692.782 118.829 692.533 116.66 693.304 113.994 694.844 113.684 695.195 113.703 695.311 114.41 695.153 114.853 694.997 115.296 694.69 115.604 694.525 116.04 694.212 116.863 694.575 118.037 695.215 118.273 695.882 118.52 696.996 118.322 696.909 119.287 696.815 120.312 695.471 119.64 695.036 120.472 694.78 120.963 695.007 121.647 695 122.256 694.989 123.449 694.057 124.226 693.214 124.31 693.123 124.319 693.031 124.323 692.939 124.323 692.302 124.323 691.666 124.13 691.03 124.13 690.916 124.13 690.802 124.136 690.688 124.151 689.847 124.259 688.932 125.1 688.97 126.29 687.805 127.062 686.594 127.687 685.352 128.16 685.405 129.451 687.129 129.57 687.123 130.864 687.118 131.59 686.521 131.991 685.995 131.991 685.959 131.991 685.925 131.989 685.89 131.986 685.473 131.943 685.052 131.754 684.641 131.754 684.513 131.754 684.384 131.772 684.258 131.82 683.34 132.161 683.018 133.983 683.527 135.115 683.987 136.141 684.888 136.607 685.756 136.607 685.847 136.607 685.936 136.602 686.026 136.592 686.405 136.549 686.811 136.407 687.048 135.987 687.275 135.586 687.293 135.034 687.388 134.539 687.602 133.432 688.272 132.524 689.064 132.269 689.511 132.124 690.059 132.112 690.299 131.561 691.322 132.343 692.042 133.866 692.159 135.501 692.241 135.651 692.349 135.715 692.463 135.715 692.804 135.715 693.203 135.139 693.149 134.575 693.078 133.824 692.607 133.302 692.234 132.757 691.86 132.211 691.548 131.364 691.841 130.728L691.841 130.728C693.59 131.453 695.003 133.598 695.388 136.114 695.998 135.942 696.334 134.777 695.984 134.053 696.054 133.832 696.192 133.739 696.348 133.739 696.617 133.739 696.941 134.014 697.067 134.39 697.267 134.983 697.249 135.715 697.535 136.234 697.824 136.762 698.285 136.879 698.79 136.879 699.188 136.879 699.613 136.806 700.005 136.806 700.531 136.806 700.994 136.937 701.245 137.548 701.713 138.684 700.683 140.005 699.75 140.005 699.736 140.005 699.722 140.004 699.708 140.003 698.765 139.962 697.903 139.2 696.964 139.068 696.858 139.053 696.752 139.047 696.645 139.047 695.721 139.047 694.814 139.569 693.886 139.722 693.769 139.741 693.648 139.75 693.526 139.75 692.575 139.75 691.552 139.158 691.358 137.884 691.3 137.496 691.322 137.07 691.178 136.73 691.006 136.328 690.653 136.185 690.311 136.185 690.243 136.185 690.176 136.19 690.11 136.201 688.76 136.418 687.393 138.008 686.18 138.008 685.848 138.008 685.526 137.888 685.22 137.588 684.312 140.085 682.089 141.025 680.849 143.221 679.5 145.611 679.614 149.302 680.924 151.735 682.068 153.86 683.979 155.006 685.874 155.006 686.149 155.006 686.424 154.982 686.696 154.933 686.983 154.881 687.278 154.807 687.566 154.807 687.772 154.807 687.973 154.846 688.164 154.956 688.617 155.221 688.908 155.842 689.286 156.283 689.508 156.541 689.815 156.723 690.094 156.723 690.292 156.723 690.476 156.631 690.606 156.41L690.606 156.41C690.247 157.668 690.347 159.168 690.866 160.308 691.426 161.539 692.47 162.513 692.449 163.977 692.437 164.734 692.126 165.41 691.979 166.14 691.311 169.48 694.107 172.206 694.548 175.62 694.667 176.54 694.667 177.647 695.216 178.166 695.469 178.404 695.787 178.453 696.091 178.481 696.226 178.493 696.365 178.499 696.505 178.499 697.979 178.499 699.641 177.783 699.936 175.813 700.028 175.203 699.962 174.57 699.975 173.946 700.015 172.083 700.823 170.289 702.002 169.449 702.322 169.22 702.674 169.049 702.929 168.695 703.492 167.914 703.367 166.588 703.078 165.551 702.789 164.513 702.368 163.467 702.47 162.362 702.632 160.586 703.981 159.65 705.004 158.592 706.543 156.999 707.599 154.507 707.866 151.84L707.866 151.84C707.113 152.174 706.271 152.481 705.483 152.481 704.788 152.481 704.136 152.241 703.628 151.564 703.253 151.064 703.022 150.392 702.8 149.735L700.795 143.819C700.707 143.559 700.617 143.262 700.689 142.992 700.753 142.755 700.877 142.659 701.025 142.659 701.338 142.659 701.761 143.083 701.964 143.529 703.035 145.876 703.997 148.321 704.841 150.848 706.574 150.4 708.211 149.395 709.626 147.91 710.074 147.437 710.52 146.872 710.672 146.112 710.823 145.35 710.545 144.374 709.993 144.239 709.941 144.226 709.889 144.221 709.836 144.221 709.674 144.221 709.51 144.271 709.347 144.295 709.266 144.307 709.185 144.312 709.106 144.312 707.905 144.312 706.862 143 706.064 141.683 706.295 141.318 706.6 141.181 706.935 141.181 707.445 141.181 708.022 141.499 708.503 141.811 709.931 142.737 711.437 143.397 712.985 143.777 713.37 143.871 713.766 143.952 714.113 144.205 714.356 144.383 714.567 144.638 714.767 144.9 716.551 147.22 717.871 150.245 718.536 153.538 718.591 153.556 718.645 153.564 718.697 153.564 719.291 153.564 719.7 152.49 719.749 151.586 719.803 150.604 719.722 149.471 720.223 148.785 720.616 148.246 721.263 148.173 721.609 147.571 722.043 146.814 721.816 145.536 722.324 144.876 722.487 144.665 722.676 144.574 722.872 144.574 723.443 144.574 724.079 145.349 724.332 146.185 724.672 147.31 724.796 148.692 725.512 149.379L726.669 149.144C726.675 151.902 727.354 154.649 728.564 156.814 729.224 156.326 728.925 154.908 728.512 154.03 728.1 153.153 727.695 151.844 728.281 151.193L728.281 151.193C729.095 151.204 729.474 152.789 730.266 153.061 730.336 153.085 730.405 153.096 730.474 153.096 731.171 153.096 731.742 151.909 731.612 150.884 731.471 149.758 730.785 148.93 730.078 148.376 729.444 147.395 730.36 145.828 731.287 145.606 731.589 145.534 731.901 145.525 732.213 145.525 732.316 145.525 732.42 145.526 732.523 145.526 733.063 145.526 733.594 145.499 734.069 145.161 735.076 144.447 735.413 142.57 735.184 141.011 734.955 139.453 734.3 138.099 733.765 136.698 733.309 135.501 733.083 133.634 733.971 133.108 734.208 132.968 734.475 132.973 734.732 132.958 738.09 132.759 740.868 127.738 740.195 123.088 740.068 122.211 739.827 121.341 739.385 120.702 738.586 119.552 737.232 119.281 736.635 117.908 735.906 116.228 736.808 114 737.976 112.921 739.144 111.843 740.571 111.374 741.661 110.145 741.952 110.134 742.107 109.733 742.161 109.329 742.194 109.075 742.149 108.816 742.148 108.558 742.144 107.85 742.502 107.169 742.983 106.969 743.083 106.928 743.187 106.907 743.292 106.907 743.686 106.907 744.082 107.193 744.294 107.666 744.624 108.403 744.491 109.376 744.251 110.18 744.011 110.984 743.672 111.754 743.609 112.623 743.547 113.491 743.896 114.512 744.51 114.609 744.544 114.614 744.577 114.617 744.609 114.617 745.304 114.617 745.748 113.423 745.795 112.406 745.845 111.34 745.698 110.178 746.102 109.279 746.719 107.909 748.42 107.589 748.464 105.967 748.5 104.656 747.332 103.886 747.122 102.609 747.038 102.092 747.121 101.556 747.155 101.029 747.284 99.0621 746.67 97.028 745.578 95.7964 744.827 94.9501 743.865 94.5001 742.905 94.5001Z" stroke="#663300" stroke-linejoin="round" stroke-miterlimit="10" stroke-opacity="0.2" fill="#7CDD59" fill-rule="evenodd"/><path d="M734.853 156.5C733.28 156.5 730.5 157.176 731.587 159.083 731.886 159.606 732.38 159.913 732.864 160.161 733.219 160.343 733.621 160.5 734.001 160.5 734.247 160.5 734.483 160.434 734.691 160.265 735.052 159.971 736.255 157.964 736.339 157.528 736.5 156.689 736.268 156.736 735.573 156.567 735.396 156.523 735.145 156.5 734.853 156.5Z" stroke="#663300" stroke-linejoin="round" stroke-miterlimit="10" stroke-opacity="0.2" fill="#7CDD59" fill-rule="evenodd"/><path d="M726.923 155.501C726.776 155.501 726.634 155.541 726.5 155.629 726.832 156.593 727.409 157.656 727.813 158.677 729.442 162.788 732.759 165.5 736.14 165.5 736.181 165.5 736.222 165.499 736.262 165.499 736.5 165.162 736.149 164.649 735.837 164.466 734.972 163.96 734.043 163.707 733.158 163.277 732.272 162.847 731.397 162.196 730.871 161.117 730.653 160.667 730.503 160.159 730.322 159.677 729.857 158.435 728.182 155.501 726.923 155.501Z" stroke="#663300" stroke-linejoin="round" stroke-miterlimit="10" stroke-opacity="0.2" fill="#7CDD59" fill-rule="evenodd"/><path d="M739.787 165.5C738.484 165.5 737.048 166.777 736.237 168.059 735.829 168.702 735.449 169.488 734.854 169.689 734.503 169.808 734.128 169.695 733.776 169.811 732.741 170.149 732.5 172.113 732.736 173.576 732.971 175.039 733.457 176.574 733.07 177.971 732.991 178.252 732.879 178.527 732.882 178.83 732.887 179.192 733.062 179.508 733.267 179.726 733.597 180.076 733.976 180.215 734.373 180.215 735.113 180.215 735.917 179.731 736.592 179.214 737.337 178.643 738.196 178.04 739.004 178.04 739.323 178.04 739.634 178.134 739.927 178.36 741.036 179.215 741.141 181.381 741.825 182.884 742.254 183.827 743.054 184.5 743.817 184.5 744.123 184.5 744.422 184.392 744.689 184.152 745.008 183.866 745.244 183.434 745.474 183.01L746.883 180.41C747.505 179.262 748.149 178.04 748.269 176.606 748.5 173.836 746.761 171.611 745.193 169.916 745.11 169.032 745.02 168.123 744.701 167.353 744.395 166.616 743.936 166.195 743.58 166.195 743.192 166.195 742.926 166.694 743.112 167.832 743.1 167.833 743.088 167.833 743.077 167.833 742.07 167.833 741.248 165.734 740.123 165.53 740.012 165.51 739.901 165.5 739.787 165.5Z" stroke="#663300" stroke-linejoin="round" stroke-miterlimit="10" stroke-opacity="0.2" fill="#7CDD59" fill-rule="evenodd"/><path d="M218.085 152.004C215.829 152.004 214.004 153.789 214.004 155.995L214.004 189.005C214.004 191.211 215.829 193 218.085 193L256.915 193C259.171 193 260.996 191.211 260.996 189.005L260.996 155.995C260.996 153.789 259.171 152.004 256.915 152.004Z" fill="#32ADB2" fill-rule="evenodd"/><path d="M220.029 155.004C218.894 155.004 218 155.928 218 157.032L218 186.968C218 188.072 218.894 188.996 220.029 188.996L254.971 188.996C256.106 188.996 257 188.072 257 186.968L257 157.032C257 155.928 256.106 155.004 254.971 155.004Z" fill="#FFF6B7" fill-rule="evenodd"/><path d="M220.029 150.004C218.894 150.004 218 150.928 218 152.032L218 157.034 257 157.034 257 152.032C257 150.928 256.106 150.004 254.971 150.004ZM223.621 166.991C222.772 166.991 222.115 167.675 222.115 168.504 222.115 169.33 222.772 169.981 223.621 169.981L227.721 169.981C228.57 169.981 229.284 169.33 229.284 168.504 229.284 167.675 228.57 166.991 227.721 166.991ZM247.268 173.967C246.419 173.967 245.716 174.661 245.716 175.487 245.716 176.313 246.419 176.996 247.268 176.996L251.379 176.996C252.228 176.996 252.885 176.313 252.885 175.487 252.885 174.661 252.228 173.967 251.379 173.967Z" fill="#8F3956" fill-rule="evenodd"/><path d="M226.659 147.004C225.804 147.004 225.084 147.698 225.084 148.525L225.084 151.513C225.084 152.339 225.804 153.023 226.659 153.023 227.514 153.023 228.177 152.339 228.177 151.513L228.177 148.525C228.177 147.698 227.514 147.004 226.659 147.004ZM237.498 147.004C236.643 147.004 235.924 147.698 235.924 148.525L235.924 151.513C235.924 152.339 236.643 153.023 237.498 153.023 238.357 153.023 239.065 152.339 239.065 151.513L239.065 148.525C239.065 147.698 238.357 147.004 237.498 147.004ZM248.341 147.004C247.486 147.004 246.823 147.698 246.823 148.525L246.823 151.513C246.823 152.339 247.486 153.023 248.341 153.023 249.196 153.023 249.904 152.339 249.904 151.513L249.904 148.525C249.904 147.698 249.196 147.004 248.341 147.004ZM231.269 161.247C230.848 161.247 230.504 161.569 230.504 161.986 230.504 162.395 230.848 162.772 231.269 162.772L243.686 162.772C244.152 162.772 244.485 162.395 244.485 161.986 244.485 161.569 244.152 161.247 243.686 161.247ZM235.413 166.992C234.557 166.992 233.884 167.676 233.884 168.506 233.884 169.332 234.557 169.983 235.413 169.983L239.542 169.983C240.443 169.983 241.116 169.332 241.116 168.506 241.116 167.676 240.443 166.992 239.542 166.992ZM247.338 166.992C246.483 166.992 245.775 167.676 245.775 168.506 245.775 169.332 246.483 169.983 247.338 169.983L251.479 169.983C252.334 169.983 252.996 169.332 252.996 168.506 252.996 167.676 252.334 166.992 251.479 166.992ZM223.521 173.973C222.666 173.973 222.004 174.668 222.004 175.494 222.004 176.321 222.666 177.004 223.521 177.004L227.65 177.004C228.506 177.004 229.225 176.321 229.225 175.494 229.225 174.668 228.506 173.973 227.65 173.973ZM235.413 173.973C234.557 173.973 233.884 174.668 233.884 175.494 233.884 176.321 234.557 177.004 235.413 177.004L239.542 177.004C240.443 177.004 241.116 176.321 241.116 175.494 241.116 174.668 240.443 173.973 239.542 173.973ZM223.521 181.009C222.666 181.009 222.004 181.649 222.004 182.475 222.004 183.302 222.666 183.996 223.521 183.996L227.65 183.996C228.506 183.996 229.225 183.302 229.225 182.475 229.225 181.649 228.506 181.009 227.65 181.009ZM235.413 181.009C234.557 181.009 233.884 181.649 233.884 182.475 233.884 183.302 234.557 183.996 235.413 183.996L239.542 183.996C240.443 183.996 241.116 183.302 241.116 182.475 241.116 181.649 240.443 181.009 239.542 181.009ZM247.338 181.009C246.483 181.009 245.775 181.649 245.775 182.475 245.775 183.302 246.483 183.996 247.338 183.996L251.479 183.996C252.334 183.996 252.996 183.302 252.996 182.475 252.996 181.649 252.334 181.009 251.479 181.009Z" fill="#F4992B" fill-rule="evenodd"/></g></svg>