<svg width="495" height="348" viewBox="0 0 495 348" fill="none" xmlns="http://www.w3.org/2000/svg">
  <path d="M271.108 292.374C271.108 292.374 420.19 292.374 421.095 292.374C455.525 292.374 483.426 264.46 483.426 230.03C483.426 200 462.181 174.929 433.898 169.025C434.229 166.398 434.446 163.733 434.446 161.017C434.446 125.363 405.538 96.4547 369.884 96.4547C348.83 96.4547 330.187 106.58 318.404 122.175C315.395 82.4787 279.932 51.8612 238.45 56.9365C208.114 60.6472 183.031 84.0981 177.446 114.141C175.66 123.782 175.839 133.129 177.624 141.902C169.488 133.142 157.91 127.633 145.018 127.633C121.427 127.633 102.159 146.008 100.641 169.217C89.9297 166.845 78.2745 166.998 65.9945 171.614C42.5311 180.426 25.8262 202.512 24.8443 227.556C23.4544 263.121 51.8783 292.399 87.1371 292.399C89.815 292.399 99.2258 292.399 101.394 292.399H230.838" fill="#FAFCFF"/>
  <path d="M421.095 298.75H271.108C267.588 298.75 264.732 295.893 264.732 292.374C264.732 288.854 267.588 285.998 271.108 285.998H421.095C451.954 285.998 477.062 260.89 477.062 230.03C477.062 203.685 458.368 180.642 432.61 175.248C429.371 174.572 427.177 171.525 427.585 168.222C427.866 165.85 428.083 163.466 428.083 161.004C428.083 128.921 401.98 102.831 369.896 102.831C351.559 102.831 334.637 111.285 323.492 126.013C321.898 128.13 319.131 129.023 316.619 128.283C314.068 127.531 312.258 125.299 312.054 122.66C310.728 105.088 302.133 88.5868 288.463 77.3907C274.653 66.0671 257.221 61.0683 239.241 63.2617C211.62 66.6536 188.807 88.0385 183.732 115.289C182.151 123.807 182.202 132.326 183.898 140.627C184.459 143.432 183.107 146.263 180.557 147.577C178.057 148.89 174.933 148.342 172.969 146.238C165.65 138.357 155.729 134.009 145.043 134.009C125.048 134.009 108.343 149.655 107.042 169.625C106.915 171.487 105.997 173.195 104.505 174.305C103.026 175.427 101.062 175.809 99.3148 175.44C88.5395 173.08 78.4017 173.756 68.2768 177.569C46.994 185.565 32.1126 205.738 31.2582 227.786C30.6589 243.177 36.1932 257.765 46.8409 268.834C57.5015 279.903 71.8218 286.011 87.175 286.011H230.888C234.408 286.011 237.264 288.867 237.264 292.387C237.264 295.906 234.408 298.763 230.888 298.763H87.175C68.315 298.763 50.7431 291.277 37.6469 277.684C24.5763 264.09 17.7668 246.187 18.5064 227.301C19.5776 200.191 37.7744 175.414 63.8009 165.646C73.9896 161.821 84.5609 160.571 95.2725 161.833C100.08 138.6 120.725 121.257 145.056 121.257C153.791 121.257 162.322 123.552 169.845 127.76C169.832 122.838 170.292 117.903 171.21 112.968C177.28 80.2981 204.607 54.6669 237.698 50.6118C259.146 47.9595 280.021 53.9911 296.547 67.5335C309.35 78.0155 318.442 92.4124 322.536 108.25C335.441 96.5822 352.107 90.0788 369.896 90.0788C409.006 90.0788 440.835 121.895 440.835 161.004C440.835 162.076 440.809 163.121 440.745 164.167C469.488 172.762 489.814 199.592 489.814 230.03C489.814 267.929 458.993 298.75 421.095 298.75Z" fill="#472B29"/>
  <path d="M234.981 155.05C211.926 153.532 192.072 169.459 190.656 190.614C190.478 193.241 190.592 195.83 190.975 198.342C186.524 193.318 179.945 189.913 172.383 189.416C158.547 188.51 146.598 197.641 144.864 210.074C142.352 209.385 139.725 208.926 137.009 208.748C116.836 207.421 99.4677 221.359 98.218 239.875" fill="#FDFCEF"/>
  <path d="M98.2305 243.05C98.154 243.05 98.0903 243.05 98.0138 243.037C96.254 242.923 94.9278 241.405 95.0554 239.645C96.3943 219.421 114.974 204.029 137.226 205.56C138.947 205.662 140.681 205.891 142.441 206.236C145.935 193.892 158.432 185.182 172.599 186.241C178.032 186.585 183.094 188.281 187.43 191.112C187.442 190.87 187.455 190.653 187.481 190.41C188.998 167.534 210.217 150.115 235.198 151.874C236.958 151.989 238.284 153.507 238.157 155.266C238.055 157.013 236.754 158.607 234.764 158.225C213.571 157.179 195.132 171.474 193.818 190.844C193.665 193.216 193.767 195.575 194.112 197.87C194.328 199.26 193.602 200.65 192.314 201.25C191.013 201.823 189.495 201.53 188.565 200.472C184.522 195.894 178.529 193.025 172.153 192.604C160.077 192.132 149.531 199.694 148.014 210.52C147.874 211.426 147.363 212.242 146.611 212.752C145.846 213.249 144.89 213.402 144.022 213.16C141.587 212.497 139.151 212.089 136.792 211.923C118.289 210.788 102.515 223.348 101.393 240.079C101.291 241.762 99.901 243.05 98.2305 243.05Z" fill="#472B29"/>
  <path d="M446.342 176.332C424.677 166.118 399.62 173.348 390.375 192.489C389.227 194.861 388.373 197.322 387.812 199.808" fill="#DAE9FF"/>
  <path d="M387.813 202.984C387.583 202.984 387.354 202.958 387.112 202.907C385.39 202.525 384.306 200.803 384.701 199.095C385.339 196.315 386.27 193.624 387.52 191.086C397.479 170.428 424.475 162.51 447.708 173.438C449.302 174.203 449.991 176.09 449.239 177.684C448.473 179.291 446.561 179.929 444.992 179.214C424.921 169.727 401.7 176.333 393.258 193.854C392.225 195.97 391.434 198.202 390.924 200.484C390.593 201.964 389.267 202.984 387.813 202.984Z" fill="#472B29"/>
  <path d="M7.23377 244.045C6.94048 244.045 6.63443 243.994 6.35389 243.866C5.21898 243.382 4.69618 242.055 5.18075 240.933L17.3333 212.573C17.8179 211.438 19.1695 210.915 20.2662 211.4C21.4011 211.885 21.9239 213.211 21.4393 214.333L9.2868 242.693C8.92975 243.547 8.08815 244.045 7.23377 244.045ZM17.244 253.57C16.9507 253.57 16.6447 253.519 16.3641 253.392C15.2292 252.907 14.7063 251.581 15.1909 250.459L27.3434 222.112C27.828 220.964 29.1797 220.441 30.2764 220.938C31.4113 221.423 31.9341 222.749 31.4495 223.871L19.297 252.219C18.94 253.073 18.1111 253.57 17.244 253.57ZM27.2669 263.109C26.9736 263.109 26.6676 263.058 26.3871 262.93C25.2521 262.446 24.7293 261.119 25.2139 259.997L37.3536 231.637C37.8382 230.489 39.1899 229.979 40.2866 230.464C41.4215 230.949 41.9443 232.275 41.4597 233.397L29.32 261.757C28.9629 262.611 28.1341 263.109 27.2669 263.109ZM37.2899 272.647C36.9966 272.647 36.6905 272.596 36.41 272.469C35.2751 271.984 34.7523 270.658 35.2368 269.536L47.3893 241.175C47.8739 240.028 49.2384 239.531 50.3223 240.002C51.4572 240.487 51.98 241.813 51.4954 242.935L39.3429 271.295C38.9731 272.15 38.1442 272.647 37.2899 272.647ZM47.3001 282.185C47.0068 282.185 46.7008 282.134 46.4202 282.007C45.2853 281.522 44.7624 280.196 45.247 279.074L57.3995 250.714C57.8841 249.566 59.2485 249.056 60.3324 249.541C61.4674 250.025 61.9902 251.351 61.5056 252.474L49.3531 280.834C48.9961 281.688 48.1545 282.185 47.3001 282.185Z" fill="#472B29"/>
</svg>
