<svg width="495" height="348" viewBox="0 0 495 348" fill="none" xmlns="http://www.w3.org/2000/svg">
  <path d="M474.019 207.785C475.833 204.739 477.441 201.534 478.832 198.176C494.752 159.746 470.676 113.711 419.983 102.597C414.499 46.2988 366.128 7.67674 311.505 1.08394C248.98 -6.45846 191.702 26.0307 172.644 77.6702C149.674 71.0131 127.291 71.8243 106.195 81.9088C96.6234 85.5292 87.8683 90.8707 80.0141 97.8987C68.4836 108.216 60.9862 121.238 57.9328 134.968C53.4101 135.551 48.966 136.135 44.7759 137.362C20.3486 144.528 4.9364 159.277 0.709989 181.493C-1.92018 195.327 3.38852 209.126 6.35124 214.7C18.0509 236.733 45.181 249.222 72.7463 245.918C74.1189 245.755 76.1142 246.259 77.2932 247.07C78.7504 282.285 99.6526 313.428 131.009 331.219C181.321 359.766 246.053 350.972 286.89 311.826C304.388 326.466 325.212 333.578 349.676 330.996C374 328.429 392.889 317.449 406.669 299.595C413.036 300.995 419.07 303.013 425.31 303.571C449.749 305.757 469.593 297.81 484.153 279.831C489.728 272.952 495 264.034 495 248.406C495 232.302 487.182 217.628 474.019 207.785Z" fill="#A6D1FC"/>
  <path d="M382.895 184.46C382.895 184.46 441.35 184.46 441.705 184.46C455.205 184.46 466.145 173.515 466.145 160.015C466.145 148.24 457.815 138.41 446.725 136.095C446.855 135.065 446.94 134.02 446.94 132.955C446.94 118.975 435.605 107.64 421.625 107.64C413.37 107.64 406.06 111.61 401.44 117.725C400.26 102.16 386.355 90.1549 370.09 92.1449C358.195 93.5999 348.36 102.795 346.17 114.575C345.47 118.355 345.54 122.02 346.24 125.46C343.05 122.025 338.51 119.865 333.455 119.865C324.205 119.865 316.65 127.07 316.055 136.17C311.855 135.24 307.285 135.3 302.47 137.11C293.27 140.565 286.72 149.225 286.335 159.045C285.79 172.99 296.935 184.47 310.76 184.47C311.81 184.47 315.5 184.47 316.35 184.47H367.105" fill="#FAFCFF"/>
  <path d="M441.705 186.96H382.895C381.515 186.96 380.395 185.84 380.395 184.46C380.395 183.08 381.515 181.96 382.895 181.96H441.705C453.805 181.96 463.65 172.115 463.65 160.015C463.65 149.685 456.32 140.65 446.22 138.535C444.95 138.27 444.09 137.075 444.25 135.78C444.36 134.85 444.445 133.915 444.445 132.95C444.445 120.37 434.21 110.14 421.63 110.14C414.44 110.14 407.805 113.455 403.435 119.23C402.81 120.06 401.725 120.41 400.74 120.12C399.74 119.825 399.03 118.95 398.95 117.915C398.43 111.025 395.06 104.555 389.7 100.165C384.285 95.725 377.45 93.765 370.4 94.625C359.57 95.955 350.625 104.34 348.635 115.025C348.015 118.365 348.035 121.705 348.7 124.96C348.92 126.06 348.39 127.17 347.39 127.685C346.41 128.2 345.185 127.985 344.415 127.16C341.545 124.07 337.655 122.365 333.465 122.365C325.625 122.365 319.075 128.5 318.565 136.33C318.515 137.06 318.155 137.73 317.57 138.165C316.99 138.605 316.22 138.755 315.535 138.61C311.31 137.685 307.335 137.95 303.365 139.445C295.02 142.58 289.185 150.49 288.85 159.135C288.615 165.17 290.785 170.89 294.96 175.23C299.14 179.57 304.755 181.965 310.775 181.965H367.125C368.505 181.965 369.625 183.085 369.625 184.465C369.625 185.845 368.505 186.965 367.125 186.965H310.775C303.38 186.965 296.49 184.03 291.355 178.7C286.23 173.37 283.56 166.35 283.85 158.945C284.27 148.315 291.405 138.6 301.61 134.77C305.605 133.27 309.75 132.78 313.95 133.275C315.835 124.165 323.93 117.365 333.47 117.365C336.895 117.365 340.24 118.265 343.19 119.915C343.185 117.985 343.365 116.05 343.725 114.115C346.105 101.305 356.82 91.255 369.795 89.665C378.205 88.625 386.39 90.99 392.87 96.3C397.89 100.41 401.455 106.055 403.06 112.265C408.12 107.69 414.655 105.14 421.63 105.14C436.965 105.14 449.445 117.615 449.445 132.95C449.445 133.37 449.435 133.78 449.41 134.19C460.68 137.56 468.65 148.08 468.65 160.015C468.65 174.875 456.565 186.96 441.705 186.96Z" fill="#472B29"/>
  <path d="M368.73 130.615C359.69 130.02 351.905 136.265 351.35 144.56C351.28 145.59 351.325 146.605 351.475 147.59C349.73 145.62 347.15 144.285 344.185 144.09C338.76 143.735 334.075 147.315 333.395 152.19C332.41 151.92 331.38 151.74 330.315 151.67C322.405 151.15 315.595 156.615 315.105 163.875" fill="#FDFCEF"/>
  <path d="M315.11 165.12C315.08 165.12 315.055 165.12 315.025 165.115C314.335 165.07 313.815 164.475 313.865 163.785C314.39 155.855 321.675 149.82 330.4 150.42C331.075 150.46 331.755 150.55 332.445 150.685C333.815 145.845 338.715 142.43 344.27 142.845C346.4 142.98 348.385 143.645 350.085 144.755C350.09 144.66 350.095 144.575 350.105 144.48C350.7 135.51 359.02 128.68 368.815 129.37C369.505 129.415 370.025 130.01 369.975 130.7C369.935 131.385 369.425 132.01 368.645 131.86C360.335 131.45 353.105 137.055 352.59 144.65C352.53 145.58 352.57 146.505 352.705 147.405C352.79 147.95 352.505 148.495 352 148.73C351.49 148.955 350.895 148.84 350.53 148.425C348.945 146.63 346.595 145.505 344.095 145.34C339.36 145.155 335.225 148.12 334.63 152.365C334.575 152.72 334.375 153.04 334.08 153.24C333.78 153.435 333.405 153.495 333.065 153.4C332.11 153.14 331.155 152.98 330.23 152.915C322.975 152.47 316.79 157.395 316.35 163.955C316.31 164.615 315.765 165.12 315.11 165.12Z" fill="#472B29"/>
  <path d="M451.605 138.96C443.11 134.955 433.285 137.79 429.66 145.295C429.21 146.225 428.875 147.19 428.655 148.165" fill="#DAE9FF"/>
  <path d="M428.655 149.41C428.565 149.41 428.475 149.4 428.38 149.38C427.705 149.23 427.28 148.555 427.435 147.885C427.685 146.795 428.05 145.74 428.54 144.745C432.445 136.645 443.03 133.54 452.14 137.825C452.765 138.125 453.035 138.865 452.74 139.49C452.44 140.12 451.69 140.37 451.075 140.09C443.205 136.37 434.1 138.96 430.79 145.83C430.385 146.66 430.075 147.535 429.875 148.43C429.745 149.01 429.225 149.41 428.655 149.41Z" fill="#472B29"/>
  <path d="M90.695 177.78H40.545C39.165 177.78 38.045 176.66 38.045 175.28C38.045 173.9 39.165 172.78 40.545 172.78H90.695C92.075 172.78 93.195 173.9 93.195 175.28C93.195 176.66 92.075 177.78 90.695 177.78ZM105.1 177.78H97.875C96.495 177.78 95.375 176.66 95.375 175.28C95.375 173.9 96.495 172.78 97.875 172.78H105.1C106.48 172.78 107.6 173.9 107.6 175.28C107.6 176.66 106.48 177.78 105.1 177.78ZM125.375 177.78H112.645C111.265 177.78 110.145 176.66 110.145 175.28C110.145 173.9 111.265 172.78 112.645 172.78H125.375C126.755 172.78 127.875 173.9 127.875 175.28C127.875 176.66 126.755 177.78 125.375 177.78ZM125.375 187.11H77.295C75.915 187.11 74.795 185.99 74.795 184.61C74.795 183.23 75.915 182.11 77.295 182.11H125.375C126.755 182.11 127.875 183.23 127.875 184.61C127.875 185.99 126.755 187.11 125.375 187.11ZM68.635 187.11H65.735C64.355 187.11 63.235 185.99 63.235 184.61C63.235 183.23 64.355 182.11 65.735 182.11H68.635C70.015 182.11 71.135 183.23 71.135 184.61C71.135 185.99 70.015 187.11 68.635 187.11ZM56.75 187.11H49.47C48.09 187.11 46.97 185.99 46.97 184.61C46.97 183.23 48.09 182.11 49.47 182.11H56.75C58.13 182.11 59.25 183.23 59.25 184.61C59.25 185.99 58.13 187.11 56.75 187.11ZM102.43 168.455H77.295C75.915 168.455 74.795 167.335 74.795 165.955C74.795 164.575 75.915 163.455 77.295 163.455H102.43C103.81 163.455 104.93 164.575 104.93 165.955C104.93 167.335 103.81 168.455 102.43 168.455ZM102.43 159.135H96.145C94.765 159.135 93.645 158.015 93.645 156.635C93.645 155.255 94.765 154.135 96.145 154.135H102.43C103.81 154.135 104.93 155.255 104.93 156.635C104.93 158.015 103.81 159.135 102.43 159.135ZM86.085 196.43H77.29C75.91 196.43 74.79 195.31 74.79 193.93C74.79 192.55 75.91 191.43 77.29 191.43H86.085C87.465 191.43 88.585 192.55 88.585 193.93C88.585 195.31 87.47 196.43 86.085 196.43ZM356.585 46.3948H306.435C305.055 46.3948 303.935 45.2748 303.935 43.8948C303.935 42.5148 305.055 41.3948 306.435 41.3948H356.585C357.965 41.3948 359.085 42.5148 359.085 43.8948C359.085 45.2748 357.965 46.3948 356.585 46.3948ZM370.99 46.3948H363.765C362.385 46.3948 361.265 45.2748 361.265 43.8948C361.265 42.5148 362.385 41.3948 363.765 41.3948H370.99C372.37 41.3948 373.49 42.5148 373.49 43.8948C373.49 45.2748 372.37 46.3948 370.99 46.3948ZM391.26 46.3948H378.53C377.15 46.3948 376.03 45.2748 376.03 43.8948C376.03 42.5148 377.15 41.3948 378.53 41.3948H391.26C392.64 41.3948 393.76 42.5148 393.76 43.8948C393.76 45.2748 392.645 46.3948 391.26 46.3948ZM381.135 27.7448H333.055C331.675 27.7448 330.555 26.6248 330.555 25.2448C330.555 23.8648 331.675 22.7448 333.055 22.7448H381.135C382.515 22.7448 383.635 23.8648 383.635 25.2448C383.635 26.6248 382.515 27.7448 381.135 27.7448ZM324.395 27.7448H321.495C320.115 27.7448 318.995 26.6248 318.995 25.2448C318.995 23.8648 320.115 22.7448 321.495 22.7448H324.395C325.775 22.7448 326.895 23.8648 326.895 25.2448C326.895 26.6248 325.78 27.7448 324.395 27.7448ZM312.51 27.7448H305.23C303.85 27.7448 302.73 26.6248 302.73 25.2448C302.73 23.8648 303.85 22.7448 305.23 22.7448H312.51C313.89 22.7448 315.01 23.8648 315.01 25.2448C315.01 26.6248 313.895 27.7448 312.51 27.7448ZM368.315 37.0748H343.18C341.8 37.0748 340.68 35.9548 340.68 34.5748C340.68 33.1948 341.8 32.0748 343.18 32.0748H368.315C369.695 32.0748 370.815 33.1948 370.815 34.5748C370.815 35.9548 369.7 37.0748 368.315 37.0748Z" fill="white"/>
  <path d="M368.315 27.7448H362.03C360.65 27.7448 359.53 26.6248 359.53 25.2448C359.53 23.8648 360.65 22.7448 362.03 22.7448H368.315C369.695 22.7448 370.815 23.8648 370.815 25.2448C370.815 26.6248 369.7 27.7448 368.315 27.7448ZM335.905 37.0748H327.11C325.73 37.0748 324.61 35.9548 324.61 34.5748C324.61 33.1948 325.73 32.0748 327.11 32.0748H335.905C337.285 32.0748 338.405 33.1948 338.405 34.5748C338.405 35.9548 337.285 37.0748 335.905 37.0748Z" fill="white"/>
  <path d="M279.43 165.51C279.315 165.51 279.195 165.49 279.085 165.44C278.64 165.25 278.435 164.73 278.625 164.29L283.39 153.17C283.58 152.725 284.11 152.52 284.54 152.71C284.985 152.9 285.19 153.42 285 153.86L280.235 164.98C280.095 165.315 279.765 165.51 279.43 165.51ZM283.355 169.245C283.24 169.245 283.12 169.225 283.01 169.175C282.565 168.985 282.36 168.465 282.55 168.025L287.315 156.91C287.505 156.46 288.035 156.255 288.465 156.45C288.91 156.64 289.115 157.16 288.925 157.6L284.16 168.715C284.02 169.05 283.695 169.245 283.355 169.245ZM287.285 172.985C287.17 172.985 287.05 172.965 286.94 172.915C286.495 172.725 286.29 172.205 286.48 171.765L291.24 160.645C291.43 160.195 291.96 159.995 292.39 160.185C292.835 160.375 293.04 160.895 292.85 161.335L288.09 172.455C287.95 172.79 287.625 172.985 287.285 172.985ZM291.215 176.725C291.1 176.725 290.98 176.705 290.87 176.655C290.425 176.465 290.22 175.945 290.41 175.505L295.175 164.385C295.365 163.935 295.9 163.74 296.325 163.925C296.77 164.115 296.975 164.635 296.785 165.075L292.02 176.195C291.875 176.53 291.55 176.725 291.215 176.725ZM295.14 180.465C295.025 180.465 294.905 180.445 294.795 180.395C294.35 180.205 294.145 179.685 294.335 179.245L299.1 168.125C299.29 167.675 299.825 167.475 300.25 167.665C300.695 167.855 300.9 168.375 300.71 168.815L295.945 179.935C295.805 180.27 295.475 180.465 295.14 180.465Z" fill="#472B29"/>
  <path d="M202.08 316.285C211.495 316.285 219.665 316.285 219.78 316.285C230.33 316.285 238.885 307.915 238.885 297.59C238.885 288.58 232.375 281.065 223.71 279.29C223.81 278.5 223.88 277.705 223.88 276.89C223.88 266.195 215.02 257.525 204.095 257.525C197.645 257.525 191.93 260.56 188.32 265.24C187.395 253.335 176.53 244.15 163.82 245.675C154.525 246.79 146.835 253.82 145.125 262.83C144.575 265.72 144.635 268.525 145.18 271.155C142.69 268.53 139.14 266.875 135.19 266.875C127.96 266.875 122.055 272.385 121.59 279.345C118.305 278.635 114.735 278.68 110.975 280.06C103.785 282.7 98.6651 289.325 98.3651 296.84C97.9401 307.505 106.65 316.285 117.455 316.285C118.275 316.285 121.16 316.285 121.825 316.285H161.495H202.08ZM169.69 316.285H171.49H169.69Z" fill="#FAFCFF"/>
  <path d="M219.775 318.785H202.075C200.695 318.785 199.575 317.665 199.575 316.285C199.575 314.905 200.695 313.785 202.075 313.785H219.775C228.93 313.785 236.38 306.52 236.38 297.59C236.38 289.97 230.84 283.31 223.195 281.745C221.915 281.48 221.05 280.27 221.215 278.97C221.305 278.285 221.365 277.6 221.365 276.89C221.365 267.59 213.61 260.025 204.08 260.025C198.62 260.025 193.59 262.48 190.28 266.77C189.65 267.59 188.565 267.92 187.59 267.64C186.6 267.34 185.89 266.47 185.815 265.44C185.42 260.34 182.99 255.72 178.97 252.42C174.825 249.015 169.545 247.52 164.1 248.15C155.87 249.135 149.07 255.36 147.565 263.29C147.095 265.76 147.11 268.23 147.61 270.645C147.84 271.74 147.31 272.85 146.32 273.37C145.335 273.885 144.13 273.685 143.345 272.87C141.21 270.615 138.305 269.375 135.17 269.375C129.32 269.375 124.44 273.83 124.065 279.51C124.015 280.24 123.655 280.9 123.075 281.34C122.495 281.775 121.755 281.945 121.04 281.785C117.855 281.095 114.835 281.295 111.81 282.41C105.5 284.73 101.09 290.565 100.845 296.935C100.67 301.315 102.255 305.475 105.32 308.66C108.495 311.965 112.795 313.78 117.435 313.78H161.475C162.855 313.78 163.975 314.9 163.975 316.28C163.975 317.66 162.855 318.78 161.475 318.78H117.435C111.505 318.78 105.78 316.355 101.71 312.125C97.6998 307.95 95.6198 302.485 95.8448 296.74C96.1748 288.365 101.905 280.725 110.09 277.71C113.15 276.585 116.32 276.17 119.495 276.49C121.22 269.51 127.64 264.37 135.175 264.37C137.64 264.37 140.06 264.935 142.24 265.98C142.29 264.775 142.425 263.565 142.655 262.35C144.56 252.305 153.135 244.42 163.505 243.18C170.32 242.34 176.935 244.27 182.14 248.54C185.88 251.61 188.53 255.585 189.87 260.05C193.825 256.81 198.8 255.015 204.085 255.015C216.375 255.015 226.37 264.825 226.37 276.88C226.37 277.05 226.365 277.22 226.36 277.395C235.185 280.17 241.38 288.335 241.38 297.58C241.385 309.275 231.69 318.785 219.775 318.785ZM171.49 318.785H169.69C168.31 318.785 167.19 317.665 167.19 316.285C167.19 314.905 168.31 313.785 169.69 313.785H171.49C172.87 313.785 173.99 314.905 173.99 316.285C173.99 317.665 172.875 318.785 171.49 318.785Z" fill="#472B29"/>
  <path d="M211.24 289.77C211.15 289.77 211.06 289.76 210.965 289.74C210.29 289.59 209.865 288.92 210.02 288.245C210.205 287.425 210.49 286.62 210.865 285.85C213.885 279.73 222.235 277.47 229.475 280.815C230.105 281.105 230.38 281.845 230.085 282.47C229.795 283.1 229.05 283.37 228.43 283.08C222.395 280.295 215.535 282.04 213.115 286.95C212.82 287.54 212.605 288.155 212.465 288.785C212.33 289.375 211.82 289.77 211.24 289.77ZM185.445 318.785H179.91C178.53 318.785 177.41 317.665 177.41 316.285C177.41 314.905 178.53 313.785 179.91 313.785H185.445C186.825 313.785 187.945 314.905 187.945 316.285C187.945 317.665 186.83 318.785 185.445 318.785Z" fill="#472B29"/>
</svg>
